M48
;Layer_Color=9474304
;FILE_FORMAT=4:3
METRIC,LZ
;TYPE=PLATED
T1F00S00C0.305
T2F00S00C0.500
T3F00S00C0.600
T4F00S00C0.700
T5F00S00C0.750
T6F00S00C0.800
T7F00S00C0.900
T8F00S00C0.965
T9F00S00C1.000
T10F00S00C1.016
T11F00S00C1.200
T12F00S00C1.250
T13F00S00C1.295
T14F00S00C1.300
T15F00S00C1.372
T16F00S00C1.500
T17F00S00C1.575
T18F00S00C1.600
T19F00S00C1.854
T20F00S00C2.000
T21F00S00C2.540
T22F00S00C3.175
T23F00S00C3.260
%
T01
X03208Y0134289
Y01384
X03186Y01392
X03203Y01409
X03199Y01435
Y01464
X03201Y0149
X03208Y01514
X0321391Y0154244
X0323894Y0151913
X032392Y014885
X03243Y01463
Y01433
X03278Y01435
X03309Y01431
X0329874Y01415
X03306Y01395
X03327Y01382
X03328Y01347
X03305
X03272Y01346
X03348Y01353
X0336616Y0137308
X03349Y0140378
X03348Y01437
X03349Y01461
Y0149654
X03333Y0149
X0333622Y0154244
X03306Y0152362
X03288Y01575
X032467Y0157741
X03297Y01463
X03154Y01463
X0315393Y0147913
Y01503
X0312Y01507
X0311719Y0153331
X03104Y01532
X0308735Y0153306
Y015579
X031194
X03078Y01581
X03061
X03031Y0158
X0303828Y01551
X03052Y01537
X03072Y01517
X03086Y01503
X0306816Y0146412
X030758Y01432
X03063Y01399
X0307012Y013775
X03061Y0136181
X03072Y01345
X0307304Y01328
X0301852Y0132625
X030225Y0134842
X0298Y0135
X0294554
X02952Y01377
X02928Y01402
X0290857Y013924
Y0133968
X0293282Y013132
X02906Y0127849
X0285796Y01276
X02873Y01298
X0282454Y0129
X02815Y01275
X0283175Y01261
X028825Y0124643
X0282Y0131637
X0278816
X0278027Y0127687
Y0137248
X02803Y0140271
X0285796
X02864Y01456
X02883
X0285969Y0149461
X0285325Y0151625
X0284689Y01547
X0281374Y01549
X0278816Y01519
X0279085Y01448
X02834Y01365
X0294054Y01438
X02942Y01451
X0298Y01452
X0298Y01438
X0297958Y01402
X0303216Y0141703
X03026Y01441
X03047Y0148474
X02989Y0149383
Y0151913
X02999Y0157
X02953Y0155685
X0293263Y01529
X02915Y0153
X028915Y01526
X02894Y01544
X02906Y0150806
X0292301Y0149461
X029493Y014935
X031223Y01467
X03124Y01435
X03154Y01434
X03162Y01392
Y0138
X03119
X0311Y01388
X0310914Y01409
X03119Y01346
X03134
X03138Y01321
X03151Y01308
X03174Y0134289
X03035Y01288
X03002
X0274291Y0128
X0268794Y0129
X0267918Y01275
X02694Y01261
X026811Y0130749
X0264756Y0131303
X02629Y01325
X02648Y0135956
X0269775Y013592
X0269558Y0137876
X027196Y0139909
X0273151Y0141929
X0270095Y014505
X02669Y0144
X02649Y01425
X026295Y0141318
Y0145916
X02628Y01504
X02616Y01493
X0258083Y0148946
X02567Y01505
Y0153206
X0256378Y0158034
X0259703Y01582
X02635Y01551
X02629Y015289
X02651Y01529
X0268493Y0152835
X02711Y01531
Y01549
X0273298Y015595
X0273051Y015289
X0270606Y01493
X02683Y0149
X02667Y01402
X0258122Y0143
X0257932Y0146066
X025305Y0148163
X02541Y015
X02498Y01513
X02483Y0152595
X02468Y01513
X0244428Y0149807
X0243374Y0148291
X0242997Y0145916
X02432Y0143062
X02419Y0138163
Y0135956
X0239804Y0136993
X0243904Y0137126
X02452Y013864
X02447Y013456
X0244604Y0130451
X0246497Y01276
X0253279Y0127627
X0257687Y01276
X02584Y01308
X0253269Y0132213
X02516Y0133211
Y01358
X0248958Y0134535
X0249304Y01393
X02487Y0142097
X024955Y0143394
X025305Y0143477
X0254704Y0139418
X0253794Y0138437
X0239073Y0145323
Y0147656
X0238492Y01301
X0238505Y0126095
X0277316Y0156706
X0234829Y0152
X0236148Y01504
X0232305Y0152754
X02319Y0145065
X02274Y01403
X0226Y0141498
X02245Y014034
X0221955Y0141498
X02219Y01383
X0222879Y013518
X022624
X02262Y013
X02234Y01301
X022095Y0128895
X02178Y0131
X02191Y013356
X021899Y0136211
X02163Y0139397
Y0141
X0211297Y01426
X02064Y01471
X0204225Y01456
X02023Y014035
X02053Y01365
X0204425Y0133576
X02025Y01329
X02013Y01325
X02026Y0130165
X0202175Y0128324
X01998Y0129671
X0199Y01267
X02053Y01251
X0206929Y01266
X0208199Y01281
X02075Y01305
X02062
X02119Y01317
Y0128666
Y0127201
X02116Y01251
X02239Y01249
X0225472Y01236
Y01263
X02306Y01299
X02307Y01328
X02336Y0132474
X0235562Y01304
X0235796Y0134847
X0233969Y01371
X0224854Y014741
X02245Y01504
X02216Y01462
X0218891Y0155
X0210027Y01552
X02101Y01532
X02061Y01526
X02049Y01541
X0205137Y01559
X0204948Y01586
X02002Y01582
X019265Y0157995
X0194Y015636
X0193014Y01549
X0194Y01508
X0192596Y0149405
X01912Y01508
X0195489Y014945
X0198366Y0145561
X019772Y013975
X01937Y0140413
X0194822Y0134761
X0192538Y0129476
X0196442Y01253
X01867Y01587
X0182884Y01586
X0177Y0157
X017284Y0157001
X01718Y015335
Y014945
X01717Y01469
X01694Y0148
X01674
X01654
X01634
X01614
X01594
X01604Y01417
X0162Y0143054
X016362Y01416
X01652Y0143
X0166695Y01417
X0153605Y0140131
X01522Y01388
Y01379
X0153605Y013655
X0150784
Y0140131
X01514Y0148
X01494
X01474
X01534
X01554
X01574
X01539Y01587
X01347Y01575
Y01557
X01251Y01534
X01231
X0121066Y015335
X01211Y01543
X01208Y01552
X0120249Y0156073
X01211Y015
X01231
X0125413Y013869
X0128911
X01337Y01389
X01336Y0142
X0137694Y014015
X0125108Y0135
X01184Y0138727
X0114584Y0138836
Y01418
X0111042
Y013869
X010655Y0138836
X01051Y01402
X0105Y01415
X01066Y01418
X0105288Y01434
X01029Y01431
X01051Y01373
X010655Y0135877
X0114757Y0147679
X01107Y01736
X01097Y01736
X01087
X01065Y01735
Y01725
X01053
X0104
X01028
Y01735
Y01745
X01065
X0107627Y0179893
X0108846
X01099
X0111402Y0178595
X0117699Y017825
X0116531Y0176346
X0118922
X013085Y0175837
X01324Y01743
Y01774
X01347Y01774
Y01754
Y01734
Y01714
X013465Y0170003
X013085Y01726
X013075Y01789
X01347Y01794
X013105Y01876
X01291Y01896
X01281Y01916
X0128154Y01934
X01459Y01922
Y01872
Y01822
X01509
X01559
X01539Y0165
X015395Y0161825
X0153941Y0160899
X01469Y01597
X0143471Y0159742
X01452Y016169
X01347Y01615
Y01595
Y01635
X0129882Y01591
X01289Y01591
X01279
X01269
X012495Y01593
X0123696
X0122405Y0159596
X012666Y0162234
X01609Y01822
X01659
X01709
X01759
X01809
X01859
X01909
X01959
X0184038Y0166603
X01853Y01651
X01825
X0201663Y01663
X02036Y0168331
X0205441Y0169944
X02085Y0170182
X02114
X0214404
X0217Y0170254
X02198Y01716
X021976Y01731
X022205Y0172393
X0224558Y01731
X02249Y0171497
X0227082
X02279Y01753
X02309
Y01773
X0230859Y01793
X02279
X02241
Y01773
X02241Y0181346
X02248Y0184
X02249Y01872
X02209Y01883
X0220127Y01847
X0219534Y0181346
X02195Y01793
Y01773
X02159Y01872
X02109
X02059Y01822
X02009
X0200218Y0161211
X0206416Y0162926
X0209048Y01605
X0211548Y0166
X0213691
X02163
X0217504Y0162562
X0218993Y0160938
X02203Y01589
X021765Y01589
X02238Y01639
X0225728Y0164852
X0225043Y01679
X0230546Y0166
X02316Y01643
X0233471Y0164564
X02347Y01714
X02348Y01733
Y01753
X02351Y01773
Y01793
X023295Y0178023
X0233Y01746
X02303Y0184011
X02423Y01705
X02411Y01675
X02426Y01636
X02436
X02446
X02456
X02466
X02476
X0249842Y0167458
X02479Y0170592
X02452Y01731
X02526Y017
X02556Y0173
X02586
X0261584Y0172966
X02636Y0175
X02656Y01728
X0265458Y0171866
X0264285Y01714
X026395Y01673
X0260396
X02588Y01632
X02589Y01613
X0257439Y01623
X0263599Y01621
X02688Y01617
X02693Y01628
X0269612Y0159488
X02713Y01606
X02732Y01602
Y01628
X02735Y01665
X027Y01675
X02704Y01717
Y01732
X02706Y0175
Y01773
X02701Y01793
X02656
Y01773
X02764
X0276395Y01793
X02774Y01753
Y01733
Y01713
X02772Y01652
X0276Y01842
X02706
X0268533Y01893
X0274294
X0280357
X0281013Y01793
X0281Y01773
X02804Y01753
Y01733
Y01713
X02788
X0281134Y016865
X0282866Y01673
X02877
X0287975Y0163065
X02843Y01639
X02821Y01632
X02788Y01617
X0290913Y0161116
Y0159488
X02894Y0159
X02936Y015957
X0296418
X0294642Y01635
X0292958Y01641
X0291105Y0165746
X03082Y01651
Y01671
Y01691
Y01711
X03081Y01731
X03082Y01751
X03094Y01769
X03127Y01731
Y01712
Y01692
Y01672
Y01652
Y01623
X03082Y0163
X0308218Y01611
X03061
X03162Y01655
X03019Y0187
X03001Y01863
X029908Y01848
X02959Y01893
X02939
X02788Y0176329
X03182Y01655
X03202
X03222
X0324143
X03237Y01625
X03217
X03197
X03177
X0324057Y0159488
X03288Y01595
Y01615
X0328754Y0163504
X0330453Y01654
X03307Y01701
X03285Y0168473
X03312Y0183304
X03275Y01884
X0327501Y01983
X03257Y02068
Y0209
X0322Y02104
X03234Y0212368
Y02165
X0319Y02134
X03194Y02083
X03233Y02046
X03174Y02102
X03153Y02122
X03153Y0215368
X01419Y02065
X01369Y02066
X0136788Y020375
X01393Y020395
X0135Y0202
X01331Y020375
X011575
X0114146Y0202
X01158Y02004
X01134Y02063
X0111Y02089
X01134Y02115
T02
X02847Y01242
X0306Y01449
X03134
X02753Y01511
X02744Y01242
X02631Y01259
X02578
X02567Y01395
X013866Y01368
X02092Y01909
X03364Y0188
T03
X02805Y01377
X0283Y01402
X02855Y01377
X02928
X02953Y01402
X02978Y01377
X02719
X02669
X02694Y01402
X014665Y01452
X014415Y01452
X013805Y01452
X013555Y01452
X013065Y01452
X012815Y01452
X01207Y014285
X01207Y014035
X01049Y016325
X01049Y016575
X012805Y01692
X013055
T04
X01391Y015765
X0116299Y015515
Y015165
X01391Y016115
X02964Y023725
X02064Y022845
Y022095
Y0217
Y0212
X02964Y024475
X03068Y02459
Y02509
X03066Y02559
Y02609
X030155Y02608
X029405
T05
X02135Y01237
X02292Y01557
X01136Y01902
X01569Y01672
X01588
X01607
X02266Y01697
T06
X03248Y01364
Y01384
X0282Y01455
Y01475
X02823Y01581
X02803
X02307Y015
X02287
X02218Y0155
Y0157
X02135Y01361
Y01341
X02275Y0125
X02295
X0109Y0153
Y0155
T07
X02139Y01487
Y015124
X0217Y01512
Y014866
X022366Y01439
X02262
X022874
X0116Y01857
X01097Y01856
X01047
X0121Y01857
X01444Y01722
X01444Y01672
X0175Y01631
X018Y01631
T08
X03328Y012784
X0293282Y01263
X028915Y01323
X02961Y01445
X02669Y01514
X02494Y01306
X02487Y0122
X01995Y015605
X0196Y01277
X01859Y01246
X01795Y01317
X01704Y01311
X01523Y01302
X0133083Y01304
X01483Y01521
X01161Y01368
X01114Y01304
X01038Y01576
X01201Y01593
X01306Y01632
X0196537Y0163248
X02335Y01679
X0275039Y01709
X02983Y016865
X03318Y01676
X03307Y02208
T09
X02023Y01368
X02048Y01393
X01998
X02025Y01475
X02335Y0135
Y013
X0236Y01325
X01971Y01355
X01921
X01946Y0138
X01918Y01631
X01868Y01631
X01893Y01656
X02089Y0163
X02114Y01605
X02064
X0295134Y0206248
X0300214Y0206248
X0305294Y0206248
X0305294Y0213868
X0300214Y0213868
X0295134
X0312914
X0312914Y0206248
X01685Y02007
X016245Y023925
T10
X032392Y01543
X032646
X0311942Y01308
X0309402
X0306862Y01308
X027704Y01482
X02745
X027196Y01482
X0259261Y01444
X0256721
X0257451Y013607
X0257451Y013353
X024387Y01285
X024133
X013067Y01368
X012813
X01292Y01572
X013174Y01572
X012666Y01572
X030173Y01596
X030427
X03274Y020539
X03274Y020793
X03274Y021047
X03274Y021301
T11
X023445Y01416
X023795
T12
X02968Y01867
X03377Y01931
X03072Y0239
T13
X031036Y01577
X031544
X012994Y02534
X012486
T14
X0321Y022115
Y022865
X0306
X0301
X0296
Y022115
X0301
X0306
X01527Y023705
Y025895
X02027Y025718
X02027Y02521
Y024702
X02027Y024198
X0315Y024572
X0315Y02508
Y025588
X0315Y026092
T15
X0329Y01543
T16
X01157Y019715
X012205
X013095
X01373
X015648Y019712
Y01895
X019712
Y019712
X03307Y022648
X03307Y023156
Y023664
X019712Y02149
Y020728
X015648
Y02149
X01373Y023065
X013095
X012205
X01157
X03307Y024172
T17
X0326404Y01502
T18
X022205Y01829
X02275
X023295
X026795
X02734
X027885
T19
X017135Y024569
X01777
X018405
Y025331
X01777
X017135
T20
X03154Y01795
Y01895
T21
X02148Y01793
X02402
X02607
X02861
T22
X031984Y012784
X0119835
X031984Y023784
X0119835
X0139835Y025284
X0299835
T23
X01265Y02004
Y02274
M30
