G04*
G04 #@! TF.GenerationSoftware,Altium Limited,Altium Designer,22.6.1 (34)*
G04*
G04 Layer_Color=32896*
%FSLAX43Y43*%
%MOMM*%
G71*
G04*
G04 #@! TF.SameCoordinates,15A2616C-5F2C-4B92-8F69-33DD5233AD97*
G04*
G04*
G04 #@! TF.FilePolarity,Positive*
G04*
G01*
G75*
%ADD10C,0.500*%
%ADD11C,0.200*%
%ADD13C,0.250*%
%ADD24R,0.550X1.700*%
%ADD165R,3.300X0.550*%
%ADD166R,1.700X0.550*%
%ADD167R,1.700X0.550*%
%ADD168R,3.300X0.550*%
D10*
X326840Y252840D02*
G03*
X333840Y245840I7000J0D01*
G01*
X105835D02*
G03*
X112835Y252840I0J7000D01*
G01*
X100000Y245840D02*
X100000Y120000D01*
X291000Y265000D02*
X326840Y265000D01*
Y252840D02*
Y265000D01*
X112835Y252840D02*
Y264980D01*
X100000Y245840D02*
X105835D01*
X112835Y264980D02*
X211000D01*
X100000Y120000D02*
X340611D01*
X340581Y245840D02*
X340611Y120000D01*
X333840Y245840D02*
X340581D01*
X291000Y194980D02*
Y264980D01*
X211000Y194980D02*
X291000D01*
X211000D02*
Y264980D01*
D11*
X121750Y206000D02*
X125050D01*
X121750Y207600D02*
X121750Y206000D01*
X125050Y207600D02*
X125050Y206000D01*
X111145Y188803D02*
Y191597D01*
X110650Y189350D02*
Y191050D01*
X110200Y188900D02*
X110650Y189350D01*
X110200Y191500D02*
X110650Y191050D01*
X103050Y188900D02*
X105750D01*
X103050Y191500D02*
X105750D01*
X103050Y188900D02*
Y191500D01*
X107650Y188900D02*
X110200D01*
X107650Y191500D02*
X110200D01*
X309750Y150700D02*
X311050Y150700D01*
X116900Y202850D02*
X117700D01*
X116900Y201150D02*
X117700Y201150D01*
X117700Y202850D02*
X117700Y201150D01*
X112500Y150600D02*
X113900Y150600D01*
X127100Y149200D02*
X127500D01*
Y150000D01*
X127100Y152200D02*
X127500Y152200D01*
Y151400D02*
Y152200D01*
X219600Y132900D02*
X219600Y134300D01*
X315803Y218855D02*
X318597D01*
X316350Y219350D02*
X318050D01*
X315900Y219800D02*
X316350Y219350D01*
X318050D02*
X318500Y219800D01*
X315900Y224250D02*
Y226950D01*
X318500Y224250D02*
Y226950D01*
X315900D02*
X318500D01*
X315900Y219800D02*
Y222350D01*
X318500Y219800D02*
Y222350D01*
X220050Y152000D02*
Y152200D01*
X222950Y152000D02*
Y152200D01*
Y150400D02*
Y150600D01*
X220050Y150400D02*
Y150600D01*
X222100Y150400D02*
Y152200D01*
X220050Y150400D02*
X222950D01*
X220050Y152200D02*
X222950D01*
X307778Y195677D02*
X310572D01*
X308325Y195182D02*
X310025D01*
X310475Y194732D01*
X307875D02*
X308325Y195182D01*
X310475Y187582D02*
Y190282D01*
X307875Y187582D02*
Y190282D01*
Y187582D02*
X310475D01*
Y192182D02*
Y194732D01*
X307875Y192182D02*
Y194732D01*
X307800Y182550D02*
Y185100D01*
X310400Y182550D02*
Y185100D01*
X307800Y177950D02*
X310400D01*
X307800D02*
Y180650D01*
X310400Y177950D02*
Y180650D01*
X307800Y185100D02*
X308250Y185550D01*
X309950D02*
X310400Y185100D01*
X308250Y185550D02*
X309950D01*
X307703Y186045D02*
X310497D01*
X308017Y216213D02*
X310811D01*
X308564Y215718D02*
X310264D01*
X310714Y215268D01*
X308114D02*
X308564Y215718D01*
X310714Y208118D02*
Y210818D01*
X308114Y208118D02*
Y210818D01*
Y208118D02*
X310714D01*
Y212718D02*
Y215268D01*
X308114Y212718D02*
Y215268D01*
X140350Y178300D02*
X142900D01*
X140350Y175700D02*
X142900D01*
X135750D02*
Y178300D01*
X138450D01*
X135750Y175700D02*
X138450D01*
X142900Y178300D02*
X143350Y177850D01*
X142900Y175700D02*
X143350Y176150D01*
Y177850D01*
X143845Y175603D02*
Y178397D01*
X134755Y165803D02*
Y168597D01*
X135250Y166350D02*
Y168050D01*
X135700Y168500D01*
X135250Y166350D02*
X135700Y165900D01*
X140150Y168500D02*
X142850D01*
X140150Y165900D02*
X142850D01*
Y168500D01*
X135700D02*
X138250D01*
X135700Y165900D02*
X138250D01*
X118850Y191400D02*
X121400D01*
X118850Y188800D02*
X121400D01*
X114250D02*
Y191400D01*
X116950D01*
X114250Y188800D02*
X116950D01*
X121400Y191400D02*
X121850Y190950D01*
X121400Y188800D02*
X121850Y189250D01*
Y190950D01*
X122345Y188703D02*
Y191497D01*
X103253Y171915D02*
X106047D01*
X103800Y172410D02*
X105500D01*
X103350Y172859D02*
X103800Y172410D01*
X105500D02*
X105950Y172859D01*
X103350Y177309D02*
Y180010D01*
X105950Y177309D02*
Y180010D01*
X103350D02*
X105950D01*
X103350Y172859D02*
Y175410D01*
X105950Y172859D02*
Y175410D01*
X221900Y164600D02*
Y166000D01*
Y161800D02*
Y163200D01*
X208700Y134200D02*
Y135600D01*
Y131400D02*
Y132800D01*
X173900Y159900D02*
X173900Y161300D01*
X140500Y169300D02*
X141900Y169300D01*
X121100Y182200D02*
Y183600D01*
X332700Y149600D02*
Y151000D01*
X332700Y146900D02*
X332700Y148300D01*
X312450Y184100D02*
X314150Y184100D01*
X312450Y184100D02*
X312450Y184900D01*
X314150Y184100D02*
Y184900D01*
X316550D02*
X316550Y184100D01*
X318250Y184100D02*
Y184900D01*
X316550D02*
X318250D01*
X132650Y209800D02*
X132650Y208200D01*
X129350Y209800D02*
X129350Y208200D01*
X132650Y208200D01*
X275900Y169800D02*
X277300D01*
X265646Y157646D02*
X267046Y157646D01*
X262846Y157646D02*
X264246Y157646D01*
X246850Y168500D02*
X246850Y167900D01*
X243550D02*
Y168500D01*
X105100Y181800D02*
X105100Y183200D01*
X202300Y124450D02*
Y125750D01*
X246250Y137600D02*
X247550D01*
X328300Y136500D02*
X329700Y136500D01*
X264750Y148000D02*
X266150Y148000D01*
X267550Y148000D02*
X268950Y148000D01*
X279600Y148900D02*
X281000Y148900D01*
X282400Y148900D02*
X283800Y148900D01*
X216900Y132500D02*
X218300Y132500D01*
X221800Y128000D02*
X223200Y128000D01*
X218950Y128025D02*
X220350Y128025D01*
X208300Y147800D02*
X209700Y147800D01*
X205500D02*
X206900D01*
X278800Y169700D02*
X280200Y169700D01*
X293500Y157400D02*
X293500Y158800D01*
X283600Y159600D02*
X285000Y159600D01*
X261300Y152800D02*
X261300Y154200D01*
X261300Y149800D02*
X261300Y151200D01*
X293500Y160300D02*
X293500Y161700D01*
X135850Y204900D02*
X135850Y205700D01*
X134150D02*
X134150Y204900D01*
X135850Y204900D01*
X220800Y148010D02*
Y149310D01*
X329080Y177800D02*
Y180200D01*
X325780Y180200D02*
X325780Y177800D01*
X318454Y203466D02*
X320854Y203466D01*
X318454Y200166D02*
X320854D01*
X323950Y195600D02*
X323950Y193200D01*
X320650D02*
Y195600D01*
X306854Y203366D02*
X309254Y203366D01*
X306854Y200066D02*
X309254D01*
X316900Y172850D02*
X319300D01*
X316900Y176150D02*
X319300Y176150D01*
X323950Y185700D02*
X323950Y183300D01*
X320650D02*
Y185700D01*
X230900Y163800D02*
X232300Y163800D01*
X228100Y163800D02*
X229500Y163800D01*
X321750Y258900D02*
X321750Y259500D01*
X325050Y258900D02*
Y259500D01*
X301150Y239200D02*
X301150Y239800D01*
X304450Y239200D02*
Y239800D01*
X115400Y207250D02*
X116000D01*
X115400Y210550D02*
X116000Y210550D01*
X137650Y208500D02*
Y209100D01*
X140950Y208500D02*
Y209100D01*
X198950Y225800D02*
Y226400D01*
X202250Y225800D02*
Y226400D01*
D13*
X125925Y148900D02*
G03*
X125925Y148900I-125J0D01*
G01*
X311023Y153695D02*
Y154695D01*
X310523D01*
X310357Y154528D01*
Y154195D01*
X310523Y154029D01*
X311023D01*
X310690D02*
X310357Y153695D01*
X309357D02*
X310023D01*
X309357Y154362D01*
Y154528D01*
X309523Y154695D01*
X309857D01*
X310023Y154528D01*
X222800Y161038D02*
X222966Y161205D01*
X223300D01*
X223466Y161038D01*
Y160372D01*
X223300Y160205D01*
X222966D01*
X222800Y160372D01*
X222466Y160205D02*
X222133D01*
X222300D01*
Y161205D01*
X222466Y161038D01*
X221633Y160205D02*
X221300D01*
X221467D01*
Y161205D01*
X221633Y161038D01*
X220800D02*
X220634Y161205D01*
X220300D01*
X220134Y161038D01*
Y160872D01*
X220300Y160705D01*
X220134Y160538D01*
Y160372D01*
X220300Y160205D01*
X220634D01*
X220800Y160372D01*
Y160538D01*
X220634Y160705D01*
X220800Y160872D01*
Y161038D01*
X220634Y160705D02*
X220300D01*
X222800Y167342D02*
X222966Y167508D01*
X223300D01*
X223466Y167342D01*
Y166675D01*
X223300Y166509D01*
X222966D01*
X222800Y166675D01*
X222466Y166509D02*
X222133D01*
X222300D01*
Y167508D01*
X222466Y167342D01*
X221633Y166509D02*
X221300D01*
X221467D01*
Y167508D01*
X221633Y167342D01*
X220800Y167508D02*
X220134D01*
Y167342D01*
X220800Y166675D01*
Y166509D01*
X247149Y161594D02*
Y162594D01*
X246650D01*
X246483Y162427D01*
Y162094D01*
X246650Y161928D01*
X247149D01*
X246816D02*
X246483Y161594D01*
X246150D02*
X245817D01*
X245983D01*
Y162594D01*
X246150Y162427D01*
X244650Y161594D02*
X245317D01*
X244650Y162261D01*
Y162427D01*
X244817Y162594D01*
X245150D01*
X245317Y162427D01*
X244317D02*
X244150Y162594D01*
X243817D01*
X243651Y162427D01*
Y162261D01*
X243817Y162094D01*
X243651Y161928D01*
Y161761D01*
X243817Y161594D01*
X244150D01*
X244317Y161761D01*
Y161928D01*
X244150Y162094D01*
X244317Y162261D01*
Y162427D01*
X244150Y162094D02*
X243817D01*
X250716Y137086D02*
Y138086D01*
X250216D01*
X250050Y137919D01*
Y137586D01*
X250216Y137420D01*
X250716D01*
X250383D02*
X250050Y137086D01*
X249050Y138086D02*
X249383Y137919D01*
X249717Y137586D01*
Y137253D01*
X249550Y137086D01*
X249217D01*
X249050Y137253D01*
Y137420D01*
X249217Y137586D01*
X249717D01*
X248717Y137086D02*
X248384D01*
X248550D01*
Y138086D01*
X248717Y137919D01*
X226033Y148300D02*
Y149300D01*
X225533D01*
X225366Y149133D01*
Y148800D01*
X225533Y148633D01*
X226033D01*
X225700D02*
X225366Y148300D01*
X224367Y149300D02*
X224700Y149133D01*
X225033Y148800D01*
Y148467D01*
X224867Y148300D01*
X224533D01*
X224367Y148467D01*
Y148633D01*
X224533Y148800D01*
X225033D01*
X224034Y149133D02*
X223867Y149300D01*
X223534D01*
X223367Y149133D01*
Y148467D01*
X223534Y148300D01*
X223867D01*
X224034Y148467D01*
Y149133D01*
X203633Y126675D02*
Y127675D01*
X203133D01*
X202966Y127508D01*
Y127175D01*
X203133Y127008D01*
X203633D01*
X203300D02*
X202966Y126675D01*
X201967Y127675D02*
X202633D01*
Y127175D01*
X202300Y127341D01*
X202133D01*
X201967Y127175D01*
Y126842D01*
X202133Y126675D01*
X202467D01*
X202633Y126842D01*
X201634Y127508D02*
X201467Y127675D01*
X201134D01*
X200967Y127508D01*
Y126842D01*
X201134Y126675D01*
X201467D01*
X201634Y126842D01*
Y127508D01*
X110950Y210000D02*
Y211000D01*
X110450D01*
X110283Y210833D01*
Y210500D01*
X110450Y210333D01*
X110950D01*
X110616D02*
X110283Y210000D01*
X109950D02*
X109617D01*
X109783D01*
Y211000D01*
X109950Y210833D01*
X108450Y211000D02*
X108784Y210833D01*
X109117Y210500D01*
Y210167D01*
X108950Y210000D01*
X108617D01*
X108450Y210167D01*
Y210333D01*
X108617Y210500D01*
X109117D01*
X140550Y213700D02*
Y214700D01*
X140050D01*
X139883Y214533D01*
Y214200D01*
X140050Y214033D01*
X140550D01*
X140216D02*
X139883Y213700D01*
X139550D02*
X139217D01*
X139383D01*
Y214700D01*
X139550Y214533D01*
X138717D02*
X138550Y214700D01*
X138217D01*
X138050Y214533D01*
Y214367D01*
X138217Y214200D01*
X138384D01*
X138217D01*
X138050Y214033D01*
Y213867D01*
X138217Y213700D01*
X138550D01*
X138717Y213867D01*
X324233Y253600D02*
Y254600D01*
X323733D01*
X323567Y254433D01*
Y254100D01*
X323733Y253933D01*
X324233D01*
X323900D02*
X323567Y253600D01*
X322567Y254600D02*
X323233D01*
Y254100D01*
X322900Y254267D01*
X322734D01*
X322567Y254100D01*
Y253767D01*
X322734Y253600D01*
X323067D01*
X323233Y253767D01*
X303633Y233518D02*
Y234518D01*
X303133D01*
X302967Y234351D01*
Y234018D01*
X303133Y233851D01*
X303633D01*
X303300D02*
X302967Y233518D01*
X302134D02*
Y234518D01*
X302633Y234018D01*
X301967D01*
X319066Y171100D02*
Y172100D01*
X318566D01*
X318400Y171933D01*
Y171600D01*
X318566Y171433D01*
X319066D01*
X318733D02*
X318400Y171100D01*
X317400D02*
X318067D01*
X317400Y171767D01*
Y171933D01*
X317567Y172100D01*
X317900D01*
X318067Y171933D01*
X316900Y171100D02*
Y171933D01*
Y171600D01*
X317067D01*
X316734D01*
X316900D01*
Y171933D01*
X316734Y172100D01*
X332533Y178500D02*
Y179500D01*
X332033D01*
X331866Y179333D01*
Y179000D01*
X332033Y178833D01*
X332533D01*
X332200D02*
X331866Y178500D01*
X330867D02*
X331533D01*
X330867Y179167D01*
Y179333D01*
X331033Y179500D01*
X331367D01*
X331533Y179333D01*
X330034Y178500D02*
X330367D01*
X330534Y178667D01*
Y179000D01*
X330367Y179167D01*
X330034D01*
X329867Y179000D01*
Y178833D01*
X330534D01*
X327555Y185550D02*
Y186550D01*
X327056D01*
X326889Y186383D01*
Y186050D01*
X327056Y185883D01*
X327555D01*
X327222D02*
X326889Y185550D01*
X325889D02*
X326556D01*
X325889Y186217D01*
Y186383D01*
X326056Y186550D01*
X326389D01*
X326556Y186383D01*
X324890Y186550D02*
Y185550D01*
X325389D01*
X325556Y185717D01*
Y186050D01*
X325389Y186217D01*
X324890D01*
X327638Y194000D02*
Y195000D01*
X327138D01*
X326971Y194833D01*
Y194500D01*
X327138Y194333D01*
X327638D01*
X327304D02*
X326971Y194000D01*
X325971D02*
X326638D01*
X325971Y194667D01*
Y194833D01*
X326138Y195000D01*
X326471D01*
X326638Y194833D01*
X324972Y194667D02*
X325472D01*
X325638Y194500D01*
Y194167D01*
X325472Y194000D01*
X324972D01*
X321058Y204100D02*
Y205100D01*
X320558D01*
X320392Y204933D01*
Y204600D01*
X320558Y204433D01*
X321058D01*
X320725D02*
X320392Y204100D01*
X319392D02*
X320058D01*
X319392Y204767D01*
Y204933D01*
X319558Y205100D01*
X319892D01*
X320058Y204933D01*
X319059Y205100D02*
Y204100D01*
X318559D01*
X318392Y204267D01*
Y204433D01*
Y204600D01*
X318559Y204767D01*
X319059D01*
X309256Y198200D02*
Y199200D01*
X308756D01*
X308590Y199033D01*
Y198700D01*
X308756Y198533D01*
X309256D01*
X308923D02*
X308590Y198200D01*
X307590D02*
X308256D01*
X307590Y198867D01*
Y199033D01*
X307757Y199200D01*
X308090D01*
X308256Y199033D01*
X307090Y198867D02*
X306757D01*
X306590Y198700D01*
Y198200D01*
X307090D01*
X307257Y198367D01*
X307090Y198533D01*
X306590D01*
X201266Y231100D02*
Y232100D01*
X200767D01*
X200600Y231933D01*
Y231600D01*
X200767Y231433D01*
X201266D01*
X200933D02*
X200600Y231100D01*
X200267D02*
X199934D01*
X200100D01*
Y232100D01*
X200267Y231933D01*
X226926Y152300D02*
Y151300D01*
X226426D01*
X226260Y151467D01*
Y152133D01*
X226426Y152300D01*
X226926D01*
X225260D02*
X225927D01*
Y151800D01*
X225593Y151967D01*
X225427D01*
X225260Y151800D01*
Y151467D01*
X225427Y151300D01*
X225760D01*
X225927Y151467D01*
X224927Y151300D02*
X224594D01*
X224760D01*
Y152300D01*
X224927Y152133D01*
X129383Y148500D02*
Y147500D01*
X128883D01*
X128716Y147667D01*
Y148333D01*
X128883Y148500D01*
X129383D01*
X127883Y147500D02*
Y148500D01*
X128383Y148000D01*
X127717D01*
X127384Y148333D02*
X127217Y148500D01*
X126884D01*
X126717Y148333D01*
Y147667D01*
X126884Y147500D01*
X127217D01*
X127384Y147667D01*
Y148333D01*
X110998Y193455D02*
Y192456D01*
X110498D01*
X110332Y192622D01*
Y193289D01*
X110498Y193455D01*
X110998D01*
X109998Y193289D02*
X109832Y193455D01*
X109498D01*
X109332Y193289D01*
Y193122D01*
X109498Y192956D01*
X109665D01*
X109498D01*
X109332Y192789D01*
Y192622D01*
X109498Y192456D01*
X109832D01*
X109998Y192622D01*
X108999Y193289D02*
X108832Y193455D01*
X108499D01*
X108332Y193289D01*
Y193122D01*
X108499Y192956D01*
X108665D01*
X108499D01*
X108332Y192789D01*
Y192622D01*
X108499Y192456D01*
X108832D01*
X108999Y192622D01*
X109467Y177455D02*
Y176456D01*
X108967D01*
X108801Y176622D01*
Y177289D01*
X108967Y177455D01*
X109467D01*
X108468Y177289D02*
X108301Y177455D01*
X107968D01*
X107801Y177289D01*
Y177122D01*
X107968Y176956D01*
X108134D01*
X107968D01*
X107801Y176789D01*
Y176622D01*
X107968Y176456D01*
X108301D01*
X108468Y176622D01*
X106801Y176456D02*
X107468D01*
X106801Y177122D01*
Y177289D01*
X106968Y177455D01*
X107301D01*
X107468Y177289D01*
X122199Y193354D02*
Y192354D01*
X121700D01*
X121533Y192521D01*
Y193187D01*
X121700Y193354D01*
X122199D01*
X121200Y193187D02*
X121033Y193354D01*
X120700D01*
X120533Y193187D01*
Y193021D01*
X120700Y192854D01*
X120867D01*
X120700D01*
X120533Y192687D01*
Y192521D01*
X120700Y192354D01*
X121033D01*
X121200Y192521D01*
X120200Y192354D02*
X119867D01*
X120033D01*
Y193354D01*
X120200Y193187D01*
X140376Y165216D02*
Y164216D01*
X139876D01*
X139710Y164383D01*
Y165049D01*
X139876Y165216D01*
X140376D01*
X139376Y164216D02*
X139043D01*
X139210D01*
Y165216D01*
X139376Y165049D01*
X138043Y164216D02*
Y165216D01*
X138543Y164716D01*
X137877D01*
X140209Y180100D02*
Y179100D01*
X139710D01*
X139543Y179267D01*
Y179933D01*
X139710Y180100D01*
X140209D01*
X139210Y179100D02*
X138876D01*
X139043D01*
Y180100D01*
X139210Y179933D01*
X138377Y179100D02*
X138043D01*
X138210D01*
Y180100D01*
X138377Y179933D01*
X318033Y218183D02*
Y217184D01*
X317533D01*
X317367Y217350D01*
Y218017D01*
X317533Y218183D01*
X318033D01*
X316367D02*
X317033D01*
Y217684D01*
X316700Y217850D01*
X316534D01*
X316367Y217684D01*
Y217350D01*
X316534Y217184D01*
X316867D01*
X317033Y217350D01*
X310133Y217800D02*
Y216800D01*
X309633D01*
X309467Y216967D01*
Y217633D01*
X309633Y217800D01*
X310133D01*
X309133Y217633D02*
X308967Y217800D01*
X308634D01*
X308467Y217633D01*
Y217467D01*
X308634Y217300D01*
X308800D01*
X308634D01*
X308467Y217133D01*
Y216967D01*
X308634Y216800D01*
X308967D01*
X309133Y216967D01*
X307033Y182200D02*
Y181200D01*
X306533D01*
X306367Y181367D01*
Y182033D01*
X306533Y182200D01*
X307033D01*
X305367Y181200D02*
X306033D01*
X305367Y181867D01*
Y182033D01*
X305534Y182200D01*
X305867D01*
X306033Y182033D01*
X307466Y191800D02*
Y190800D01*
X306967D01*
X306800Y190967D01*
Y191633D01*
X306967Y191800D01*
X307466D01*
X306467Y190800D02*
X306134D01*
X306300D01*
Y191800D01*
X306467Y191633D01*
X256483Y154749D02*
X256650Y154915D01*
X256983D01*
X257149Y154749D01*
Y154082D01*
X256983Y153916D01*
X256650D01*
X256483Y154082D01*
X256150Y153916D02*
X255817D01*
X255983D01*
Y154915D01*
X256150Y154749D01*
X255317D02*
X255150Y154915D01*
X254817D01*
X254650Y154749D01*
Y154582D01*
X254817Y154416D01*
X254983D01*
X254817D01*
X254650Y154249D01*
Y154082D01*
X254817Y153916D01*
X255150D01*
X255317Y154082D01*
X254317Y154749D02*
X254150Y154915D01*
X253817D01*
X253651Y154749D01*
Y154582D01*
X253817Y154416D01*
X253984D01*
X253817D01*
X253651Y154249D01*
Y154082D01*
X253817Y153916D01*
X254150D01*
X254317Y154082D01*
X256683Y149096D02*
X256850Y149263D01*
X257183D01*
X257349Y149096D01*
Y148430D01*
X257183Y148263D01*
X256850D01*
X256683Y148430D01*
X256350Y148263D02*
X256017D01*
X256183D01*
Y149263D01*
X256350Y149096D01*
X255517D02*
X255350Y149263D01*
X255017D01*
X254850Y149096D01*
Y148930D01*
X255017Y148763D01*
X255183D01*
X255017D01*
X254850Y148596D01*
Y148430D01*
X255017Y148263D01*
X255350D01*
X255517Y148430D01*
X253851Y148263D02*
X254517D01*
X253851Y148930D01*
Y149096D01*
X254017Y149263D01*
X254350D01*
X254517Y149096D01*
X235783Y162163D02*
X235950Y162329D01*
X236283D01*
X236449Y162163D01*
Y161496D01*
X236283Y161329D01*
X235950D01*
X235783Y161496D01*
X235450Y161329D02*
X235117D01*
X235283D01*
Y162329D01*
X235450Y162163D01*
X234617D02*
X234450Y162329D01*
X234117D01*
X233950Y162163D01*
Y161996D01*
X234117Y161829D01*
X234283D01*
X234117D01*
X233950Y161663D01*
Y161496D01*
X234117Y161329D01*
X234450D01*
X234617Y161496D01*
X233617Y162163D02*
X233450Y162329D01*
X233117D01*
X232951Y162163D01*
Y161496D01*
X233117Y161329D01*
X233450D01*
X233617Y161496D01*
Y162163D01*
X229583Y159233D02*
X229750Y159400D01*
X230083D01*
X230249Y159233D01*
Y158567D01*
X230083Y158400D01*
X229750D01*
X229583Y158567D01*
X229250Y158400D02*
X228917D01*
X229083D01*
Y159400D01*
X229250Y159233D01*
X227750Y158400D02*
X228417D01*
X227750Y159067D01*
Y159233D01*
X227917Y159400D01*
X228250D01*
X228417Y159233D01*
X227417Y158567D02*
X227250Y158400D01*
X226917D01*
X226751Y158567D01*
Y159233D01*
X226917Y159400D01*
X227250D01*
X227417Y159233D01*
Y159067D01*
X227250Y158900D01*
X226751D01*
X336183Y147919D02*
X336350Y148085D01*
X336683D01*
X336849Y147919D01*
Y147252D01*
X336683Y147086D01*
X336350D01*
X336183Y147252D01*
X335850Y147086D02*
X335517D01*
X335683D01*
Y148085D01*
X335850Y147919D01*
X334350Y147086D02*
X335017D01*
X334350Y147752D01*
Y147919D01*
X334517Y148085D01*
X334850D01*
X335017Y147919D01*
X334017D02*
X333850Y148085D01*
X333517D01*
X333351Y147919D01*
Y147752D01*
X333517Y147586D01*
X333351Y147419D01*
Y147252D01*
X333517Y147086D01*
X333850D01*
X334017Y147252D01*
Y147419D01*
X333850Y147586D01*
X334017Y147752D01*
Y147919D01*
X333850Y147586D02*
X333517D01*
X336183Y151133D02*
X336350Y151300D01*
X336683D01*
X336849Y151133D01*
Y150467D01*
X336683Y150300D01*
X336350D01*
X336183Y150467D01*
X335850Y150300D02*
X335517D01*
X335683D01*
Y151300D01*
X335850Y151133D01*
X334350Y150300D02*
X335017D01*
X334350Y150967D01*
Y151133D01*
X334517Y151300D01*
X334850D01*
X335017Y151133D01*
X334017Y151300D02*
X333351D01*
Y151133D01*
X334017Y150467D01*
Y150300D01*
X261479Y160131D02*
X261646Y160298D01*
X261979D01*
X262146Y160131D01*
Y159465D01*
X261979Y159298D01*
X261646D01*
X261479Y159465D01*
X261146Y159298D02*
X260813D01*
X260979D01*
Y160298D01*
X261146Y160131D01*
X259646Y159298D02*
X260313D01*
X259646Y159965D01*
Y160131D01*
X259813Y160298D01*
X260146D01*
X260313Y160131D01*
X258647Y160298D02*
X258980Y160131D01*
X259313Y159798D01*
Y159465D01*
X259147Y159298D01*
X258813D01*
X258647Y159465D01*
Y159632D01*
X258813Y159798D01*
X259313D01*
X267483Y162933D02*
X267650Y163100D01*
X267983D01*
X268149Y162933D01*
Y162267D01*
X267983Y162100D01*
X267650D01*
X267483Y162267D01*
X267150Y162100D02*
X266817D01*
X266983D01*
Y163100D01*
X267150Y162933D01*
X265650Y162100D02*
X266317D01*
X265650Y162767D01*
Y162933D01*
X265817Y163100D01*
X266150D01*
X266317Y162933D01*
X264651Y163100D02*
X265317D01*
Y162600D01*
X264984Y162767D01*
X264817D01*
X264651Y162600D01*
Y162267D01*
X264817Y162100D01*
X265150D01*
X265317Y162267D01*
X280483Y154133D02*
X280650Y154300D01*
X280983D01*
X281149Y154133D01*
Y153467D01*
X280983Y153300D01*
X280650D01*
X280483Y153467D01*
X280150Y153300D02*
X279817D01*
X279983D01*
Y154300D01*
X280150Y154133D01*
X278650Y153300D02*
X279317D01*
X278650Y153967D01*
Y154133D01*
X278817Y154300D01*
X279150D01*
X279317Y154133D01*
X277817Y153300D02*
Y154300D01*
X278317Y153800D01*
X277651D01*
X287183Y153533D02*
X287350Y153700D01*
X287683D01*
X287849Y153533D01*
Y152867D01*
X287683Y152700D01*
X287350D01*
X287183Y152867D01*
X286850Y152700D02*
X286517D01*
X286683D01*
Y153700D01*
X286850Y153533D01*
X285350Y152700D02*
X286017D01*
X285350Y153367D01*
Y153533D01*
X285517Y153700D01*
X285850D01*
X286017Y153533D01*
X285017D02*
X284850Y153700D01*
X284517D01*
X284351Y153533D01*
Y153367D01*
X284517Y153200D01*
X284684D01*
X284517D01*
X284351Y153033D01*
Y152867D01*
X284517Y152700D01*
X284850D01*
X285017Y152867D01*
X270858Y143556D02*
X271025Y143722D01*
X271358D01*
X271524Y143556D01*
Y142889D01*
X271358Y142723D01*
X271025D01*
X270858Y142889D01*
X270525Y142723D02*
X270192D01*
X270358D01*
Y143722D01*
X270525Y143556D01*
X269025Y142723D02*
X269692D01*
X269025Y143389D01*
Y143556D01*
X269192Y143722D01*
X269525D01*
X269692Y143556D01*
X268692D02*
X268525Y143722D01*
X268192D01*
X268026Y143556D01*
Y142889D01*
X268192Y142723D01*
X268525D01*
X268692Y142889D01*
Y143556D01*
X263492Y147837D02*
X263658Y148003D01*
X263992D01*
X264158Y147837D01*
Y147170D01*
X263992Y147004D01*
X263658D01*
X263492Y147170D01*
X263158Y147004D02*
X262825D01*
X262992D01*
Y148003D01*
X263158Y147837D01*
X262325Y147004D02*
X261992D01*
X262159D01*
Y148003D01*
X262325Y147837D01*
X261492Y147170D02*
X261326Y147004D01*
X260992D01*
X260826Y147170D01*
Y147837D01*
X260992Y148003D01*
X261326D01*
X261492Y147837D01*
Y147670D01*
X261326Y147503D01*
X260826D01*
X288510Y161433D02*
X288677Y161600D01*
X289010D01*
X289177Y161433D01*
Y160767D01*
X289010Y160600D01*
X288677D01*
X288510Y160767D01*
X288177Y160600D02*
X287844D01*
X288011D01*
Y161600D01*
X288177Y161433D01*
X287344Y160600D02*
X287011D01*
X287177D01*
Y161600D01*
X287344Y161433D01*
X285845Y161600D02*
X286178Y161433D01*
X286511Y161100D01*
Y160767D01*
X286344Y160600D01*
X286011D01*
X285845Y160767D01*
Y160933D01*
X286011Y161100D01*
X286511D01*
X274694Y168033D02*
X274860Y168200D01*
X275194D01*
X275360Y168033D01*
Y167367D01*
X275194Y167200D01*
X274860D01*
X274694Y167367D01*
X274361Y167200D02*
X274027D01*
X274194D01*
Y168200D01*
X274361Y168033D01*
X273527Y167200D02*
X273194D01*
X273361D01*
Y168200D01*
X273527Y168033D01*
X272028Y168200D02*
X272694D01*
Y167700D01*
X272361Y167867D01*
X272195D01*
X272028Y167700D01*
Y167367D01*
X272195Y167200D01*
X272528D01*
X272694Y167367D01*
X283200Y170267D02*
X283366Y170433D01*
X283700D01*
X283866Y170267D01*
Y169600D01*
X283700Y169434D01*
X283366D01*
X283200Y169600D01*
X282866Y169434D02*
X282533D01*
X282700D01*
Y170433D01*
X282866Y170267D01*
X282033Y169434D02*
X281700D01*
X281867D01*
Y170433D01*
X282033Y170267D01*
X280701Y169434D02*
Y170433D01*
X281200Y169934D01*
X280534D01*
X298958Y163194D02*
X299124Y163360D01*
X299457D01*
X299624Y163194D01*
Y162527D01*
X299457Y162361D01*
X299124D01*
X298958Y162527D01*
X298624Y162361D02*
X298291D01*
X298458D01*
Y163360D01*
X298624Y163194D01*
X297791Y162361D02*
X297458D01*
X297625D01*
Y163360D01*
X297791Y163194D01*
X296958D02*
X296792Y163360D01*
X296458D01*
X296292Y163194D01*
Y163027D01*
X296458Y162860D01*
X296625D01*
X296458D01*
X296292Y162694D01*
Y162527D01*
X296458Y162361D01*
X296792D01*
X296958Y162527D01*
X298600Y156530D02*
X298766Y156697D01*
X299100D01*
X299266Y156530D01*
Y155864D01*
X299100Y155697D01*
X298766D01*
X298600Y155864D01*
X298266Y155697D02*
X297933D01*
X298100D01*
Y156697D01*
X298266Y156530D01*
X297433Y155697D02*
X297100D01*
X297267D01*
Y156697D01*
X297433Y156530D01*
X295934Y155697D02*
X296600D01*
X295934Y156364D01*
Y156530D01*
X296100Y156697D01*
X296434D01*
X296600Y156530D01*
X318517Y190583D02*
X318350Y190750D01*
Y191083D01*
X318517Y191249D01*
X319183D01*
X319350Y191083D01*
Y190750D01*
X319183Y190583D01*
X319350Y190250D02*
Y189917D01*
Y190083D01*
X318350D01*
X318517Y190250D01*
Y189417D02*
X318350Y189250D01*
Y188917D01*
X318517Y188750D01*
X319183D01*
X319350Y188917D01*
Y189250D01*
X319183Y189417D01*
X318517D01*
X318350Y187751D02*
X318517Y188084D01*
X318850Y188417D01*
X319183D01*
X319350Y188250D01*
Y187917D01*
X319183Y187751D01*
X319017D01*
X318850Y187917D01*
Y188417D01*
X332418Y137133D02*
X332585Y137300D01*
X332918D01*
X333085Y137133D01*
Y136467D01*
X332918Y136300D01*
X332585D01*
X332418Y136467D01*
X332085D02*
X331919Y136300D01*
X331585D01*
X331419Y136467D01*
Y137133D01*
X331585Y137300D01*
X331919D01*
X332085Y137133D01*
Y136967D01*
X331919Y136800D01*
X331419D01*
X331086Y137133D02*
X330919Y137300D01*
X330586D01*
X330419Y137133D01*
Y136467D01*
X330586Y136300D01*
X330919D01*
X331086Y136467D01*
Y137133D01*
X217666Y126262D02*
X217833Y126429D01*
X218166D01*
X218333Y126262D01*
Y125596D01*
X218166Y125429D01*
X217833D01*
X217666Y125596D01*
X216667Y126429D02*
X217000Y126262D01*
X217333Y125929D01*
Y125596D01*
X217167Y125429D01*
X216833D01*
X216667Y125596D01*
Y125762D01*
X216833Y125929D01*
X217333D01*
X215667Y126429D02*
X216000Y126262D01*
X216334Y125929D01*
Y125596D01*
X216167Y125429D01*
X215834D01*
X215667Y125596D01*
Y125762D01*
X215834Y125929D01*
X216334D01*
X224066Y129275D02*
X224233Y129442D01*
X224566D01*
X224733Y129275D01*
Y128609D01*
X224566Y128442D01*
X224233D01*
X224066Y128609D01*
X223067Y129442D02*
X223400Y129275D01*
X223733Y128942D01*
Y128609D01*
X223567Y128442D01*
X223233D01*
X223067Y128609D01*
Y128776D01*
X223233Y128942D01*
X223733D01*
X222067Y129442D02*
X222734D01*
Y128942D01*
X222400Y129109D01*
X222234D01*
X222067Y128942D01*
Y128609D01*
X222234Y128442D01*
X222567D01*
X222734Y128609D01*
X203966Y150033D02*
X204133Y150200D01*
X204466D01*
X204633Y150033D01*
Y149367D01*
X204466Y149200D01*
X204133D01*
X203966Y149367D01*
X202967Y150200D02*
X203300Y150033D01*
X203633Y149700D01*
Y149367D01*
X203467Y149200D01*
X203133D01*
X202967Y149367D01*
Y149533D01*
X203133Y149700D01*
X203633D01*
X202134Y149200D02*
Y150200D01*
X202634Y149700D01*
X201967D01*
X210966Y147123D02*
X211133Y147289D01*
X211466D01*
X211633Y147123D01*
Y146456D01*
X211466Y146290D01*
X211133D01*
X210966Y146456D01*
X209967Y147289D02*
X210300Y147123D01*
X210633Y146789D01*
Y146456D01*
X210467Y146290D01*
X210133D01*
X209967Y146456D01*
Y146623D01*
X210133Y146789D01*
X210633D01*
X209634Y147123D02*
X209467Y147289D01*
X209134D01*
X208967Y147123D01*
Y146956D01*
X209134Y146789D01*
X209300D01*
X209134D01*
X208967Y146623D01*
Y146456D01*
X209134Y146290D01*
X209467D01*
X209634Y146456D01*
X218066Y137633D02*
X218233Y137800D01*
X218566D01*
X218733Y137633D01*
Y136967D01*
X218566Y136800D01*
X218233D01*
X218066Y136967D01*
X217067Y137800D02*
X217400Y137633D01*
X217733Y137300D01*
Y136967D01*
X217567Y136800D01*
X217233D01*
X217067Y136967D01*
Y137133D01*
X217233Y137300D01*
X217733D01*
X216734Y137633D02*
X216567Y137800D01*
X216234D01*
X216067Y137633D01*
Y136967D01*
X216234Y136800D01*
X216567D01*
X216734Y136967D01*
Y137633D01*
X225927Y133933D02*
X226094Y134100D01*
X226427D01*
X226593Y133933D01*
Y133267D01*
X226427Y133100D01*
X226094D01*
X225927Y133267D01*
X224927Y134100D02*
X225594D01*
Y133600D01*
X225260Y133767D01*
X225094D01*
X224927Y133600D01*
Y133267D01*
X225094Y133100D01*
X225427D01*
X225594Y133267D01*
X224594D02*
X224427Y133100D01*
X224094D01*
X223928Y133267D01*
Y133933D01*
X224094Y134100D01*
X224427D01*
X224594Y133933D01*
Y133767D01*
X224427Y133600D01*
X223928D01*
X209154Y136998D02*
X209320Y137165D01*
X209654D01*
X209820Y136998D01*
Y136332D01*
X209654Y136165D01*
X209320D01*
X209154Y136332D01*
X208154Y137165D02*
X208821D01*
Y136665D01*
X208487Y136832D01*
X208321D01*
X208154Y136665D01*
Y136332D01*
X208321Y136165D01*
X208654D01*
X208821Y136332D01*
X207821Y136165D02*
X207488D01*
X207654D01*
Y137165D01*
X207821Y136998D01*
X210378Y130633D02*
X210544Y130800D01*
X210878D01*
X211044Y130633D01*
Y129967D01*
X210878Y129800D01*
X210544D01*
X210378Y129967D01*
X209378Y130800D02*
X210045D01*
Y130300D01*
X209711Y130467D01*
X209545D01*
X209378Y130300D01*
Y129967D01*
X209545Y129800D01*
X209878D01*
X210045Y129967D01*
X209045Y130633D02*
X208878Y130800D01*
X208545D01*
X208379Y130633D01*
Y129967D01*
X208545Y129800D01*
X208878D01*
X209045Y129967D01*
Y130633D01*
X113466Y149633D02*
X113633Y149800D01*
X113966D01*
X114133Y149633D01*
Y148967D01*
X113966Y148800D01*
X113633D01*
X113466Y148967D01*
X112633Y148800D02*
Y149800D01*
X113133Y149300D01*
X112467D01*
X112134Y149800D02*
X111467D01*
Y149633D01*
X112134Y148967D01*
Y148800D01*
X111596Y182833D02*
X111762Y183000D01*
X112095D01*
X112262Y182833D01*
Y182167D01*
X112095Y182000D01*
X111762D01*
X111596Y182167D01*
X111262Y182833D02*
X111096Y183000D01*
X110763D01*
X110596Y182833D01*
Y182667D01*
X110763Y182500D01*
X110929D01*
X110763D01*
X110596Y182333D01*
Y182167D01*
X110763Y182000D01*
X111096D01*
X111262Y182167D01*
X110263Y182833D02*
X110096Y183000D01*
X109763D01*
X109596Y182833D01*
Y182667D01*
X109763Y182500D01*
X109596Y182333D01*
Y182167D01*
X109763Y182000D01*
X110096D01*
X110263Y182167D01*
Y182333D01*
X110096Y182500D01*
X110263Y182667D01*
Y182833D01*
X110096Y182500D02*
X109763D01*
X119910Y180933D02*
X120076Y181100D01*
X120409D01*
X120576Y180933D01*
Y180267D01*
X120409Y180100D01*
X120076D01*
X119910Y180267D01*
X119576Y180933D02*
X119410Y181100D01*
X119076D01*
X118910Y180933D01*
Y180767D01*
X119076Y180600D01*
X119243D01*
X119076D01*
X118910Y180433D01*
Y180267D01*
X119076Y180100D01*
X119410D01*
X119576Y180267D01*
X118077Y180100D02*
Y181100D01*
X118577Y180600D01*
X117910D01*
X119016Y204670D02*
X119183Y204836D01*
X119516D01*
X119683Y204670D01*
Y204003D01*
X119516Y203837D01*
X119183D01*
X119016Y204003D01*
X118017Y203837D02*
X118683D01*
X118017Y204503D01*
Y204670D01*
X118183Y204836D01*
X118517D01*
X118683Y204670D01*
X117017Y204836D02*
X117684D01*
Y204337D01*
X117350Y204503D01*
X117184D01*
X117017Y204337D01*
Y204003D01*
X117184Y203837D01*
X117517D01*
X117684Y204003D01*
X124066Y211483D02*
X124233Y211650D01*
X124566D01*
X124733Y211483D01*
Y210817D01*
X124566Y210650D01*
X124233D01*
X124066Y210817D01*
X123067Y210650D02*
X123733D01*
X123067Y211317D01*
Y211483D01*
X123233Y211650D01*
X123567D01*
X123733Y211483D01*
X122234Y210650D02*
Y211650D01*
X122734Y211150D01*
X122067D01*
X131716Y213533D02*
X131883Y213700D01*
X132216D01*
X132383Y213533D01*
Y212867D01*
X132216Y212700D01*
X131883D01*
X131716Y212867D01*
X130717Y212700D02*
X131383D01*
X130717Y213367D01*
Y213533D01*
X130883Y213700D01*
X131217D01*
X131383Y213533D01*
X130384D02*
X130217Y213700D01*
X129884D01*
X129717Y213533D01*
Y213367D01*
X129884Y213200D01*
X130050D01*
X129884D01*
X129717Y213033D01*
Y212867D01*
X129884Y212700D01*
X130217D01*
X130384Y212867D01*
X139085Y172133D02*
X139251Y172300D01*
X139584D01*
X139751Y172133D01*
Y171467D01*
X139584Y171300D01*
X139251D01*
X139085Y171467D01*
X138085Y171300D02*
X138751D01*
X138085Y171967D01*
Y172133D01*
X138251Y172300D01*
X138585D01*
X138751Y172133D01*
X137752D02*
X137585Y172300D01*
X137252D01*
X137085Y172133D01*
Y171467D01*
X137252Y171300D01*
X137585D01*
X137752Y171467D01*
Y172133D01*
X135583Y201129D02*
X135750Y201296D01*
X136083D01*
X136250Y201129D01*
Y200463D01*
X136083Y200296D01*
X135750D01*
X135583Y200463D01*
X135250Y200296D02*
X134917D01*
X135083D01*
Y201296D01*
X135250Y201129D01*
X133750Y201296D02*
X134084Y201129D01*
X134417Y200796D01*
Y200463D01*
X134250Y200296D01*
X133917D01*
X133750Y200463D01*
Y200629D01*
X133917Y200796D01*
X134417D01*
X171983Y160933D02*
X172150Y161100D01*
X172483D01*
X172650Y160933D01*
Y160267D01*
X172483Y160100D01*
X172150D01*
X171983Y160267D01*
X171650Y160100D02*
X171317D01*
X171483D01*
Y161100D01*
X171650Y160933D01*
X170150Y160100D02*
X170817D01*
X170150Y160767D01*
Y160933D01*
X170317Y161100D01*
X170650D01*
X170817Y160933D01*
X311667Y188566D02*
X311500Y188733D01*
Y189066D01*
X311667Y189233D01*
X312333D01*
X312500Y189066D01*
Y188733D01*
X312333Y188566D01*
X311500Y188233D02*
Y187567D01*
X311667D01*
X312333Y188233D01*
X312500D01*
D24*
X117425Y202000D02*
D03*
D165*
X123400Y206275D02*
D03*
D166*
X313300Y184375D02*
D03*
X135000Y205175D02*
D03*
D167*
X317400Y184625D02*
D03*
D168*
X131000Y208475D02*
D03*
M02*
