G04*
G04 #@! TF.GenerationSoftware,Altium Limited,Altium Designer,22.6.1 (34)*
G04*
G04 Layer_Color=8421504*
%FSLAX43Y43*%
%MOMM*%
G71*
G04*
G04 #@! TF.SameCoordinates,AAB5C14D-29E5-48F0-9F93-E21C6970BB33*
G04*
G04*
G04 #@! TF.FilePolarity,Positive*
G04*
G01*
G75*
%ADD15C,0.500*%
%ADD25R,1.500X1.400*%
%ADD26R,1.400X1.500*%
%ADD27R,1.900X1.500*%
%ADD28R,1.500X1.900*%
%ADD29R,1.600X1.500*%
%ADD30R,1.800X2.400*%
%ADD31R,0.600X1.800*%
G04:AMPARAMS|DCode=32|XSize=2mm|YSize=3.4mm|CornerRadius=0mm|HoleSize=0mm|Usage=FLASHONLY|Rotation=0.000|XOffset=0mm|YOffset=0mm|HoleType=Round|Shape=Octagon|*
%AMOCTAGOND32*
4,1,8,-0.500,1.700,0.500,1.700,1.000,1.200,1.000,-1.200,0.500,-1.700,-0.500,-1.700,-1.000,-1.200,-1.000,1.200,-0.500,1.700,0.0*
%
%ADD32OCTAGOND32*%

%ADD33R,0.700X2.000*%
%ADD34R,1.100X2.700*%
%ADD35R,10.700X9.200*%
%ADD36R,1.500X1.600*%
%ADD37R,1.250X0.500*%
%ADD38R,0.500X1.250*%
%ADD39R,1.600X0.850*%
%ADD40R,2.400X1.800*%
%ADD41R,2.600X0.700*%
%ADD42O,2.600X0.700*%
%ADD43R,1.800X0.600*%
%ADD44R,1.350X0.600*%
%ADD45R,0.600X1.600*%
%ADD46O,0.700X2.500*%
%ADD47R,0.600X1.350*%
%ADD48O,2.200X0.600*%
%ADD49R,8.026X6.706*%
%ADD50R,2.007X0.991*%
%ADD51R,6.706X8.026*%
%ADD52R,0.991X2.007*%
%ADD53R,3.500X3.200*%
%ADD54R,3.500X2.200*%
D15*
X326840Y252840D02*
G03*
X333840Y245840I7000J0D01*
G01*
X105835D02*
G03*
X112835Y252840I0J7000D01*
G01*
X100000Y245840D02*
X100000Y120000D01*
X291000Y265000D02*
X326840Y265000D01*
Y252840D02*
Y265000D01*
X112835Y252840D02*
Y264980D01*
X100000Y245840D02*
X105835D01*
X112835Y264980D02*
X211000D01*
X100000Y120000D02*
X340611D01*
X340581Y245840D02*
X340611Y120000D01*
X333840Y245840D02*
X340581D01*
X291000Y194980D02*
Y264980D01*
X211000Y194980D02*
X291000D01*
X211000D02*
Y264980D01*
D25*
X317400Y137600D02*
D03*
Y135600D02*
D03*
X298700Y128800D02*
D03*
X298700Y130800D02*
D03*
X162000Y134700D02*
D03*
X275000Y156400D02*
D03*
Y158400D02*
D03*
X261600Y158200D02*
D03*
Y156200D02*
D03*
X203200Y151300D02*
D03*
X203200Y153300D02*
D03*
X192000Y143000D02*
D03*
Y141000D02*
D03*
X227800Y131500D02*
D03*
Y133500D02*
D03*
X216200Y128100D02*
D03*
Y130100D02*
D03*
X213500D02*
D03*
Y128100D02*
D03*
X276300Y127000D02*
D03*
Y129000D02*
D03*
X262900Y131000D02*
D03*
Y129000D02*
D03*
X248300Y151300D02*
D03*
Y149300D02*
D03*
X241400Y144700D02*
D03*
Y146700D02*
D03*
X251100Y144700D02*
D03*
Y146700D02*
D03*
X215600Y161500D02*
D03*
Y159500D02*
D03*
X231600Y162800D02*
D03*
Y160800D02*
D03*
X232900Y171500D02*
D03*
X232900Y173500D02*
D03*
X226200Y173200D02*
D03*
Y175200D02*
D03*
X271800Y167700D02*
D03*
Y169700D02*
D03*
X162000Y139700D02*
D03*
X162000Y141700D02*
D03*
X162000Y136700D02*
D03*
X103400Y139100D02*
D03*
Y141100D02*
D03*
X184000Y163100D02*
D03*
Y165100D02*
D03*
X184800Y155700D02*
D03*
X184800Y157700D02*
D03*
X182000Y153700D02*
D03*
X182000Y155700D02*
D03*
D26*
X312300Y140900D02*
D03*
X314300D02*
D03*
X331400Y147600D02*
D03*
X333400D02*
D03*
X231000Y141300D02*
D03*
X229000D02*
D03*
X276900Y168500D02*
D03*
X274900Y168500D02*
D03*
X219300Y125300D02*
D03*
X217300D02*
D03*
X221900Y123600D02*
D03*
X223900D02*
D03*
X277000Y162500D02*
D03*
X275000Y162500D02*
D03*
X205300Y126400D02*
D03*
X203300D02*
D03*
X218300Y140300D02*
D03*
X220300D02*
D03*
X221800Y148660D02*
D03*
X219800D02*
D03*
X281500Y126100D02*
D03*
X279500Y126100D02*
D03*
X268000Y126100D02*
D03*
X266000Y126100D02*
D03*
X236100Y152000D02*
D03*
X238100D02*
D03*
X215650Y164109D02*
D03*
X217650D02*
D03*
X265100Y156900D02*
D03*
X267100D02*
D03*
X286300Y162500D02*
D03*
X284300D02*
D03*
X284000Y151600D02*
D03*
X282000D02*
D03*
X291600Y157400D02*
D03*
X293600D02*
D03*
X291600Y154700D02*
D03*
X293600D02*
D03*
X108500Y134200D02*
D03*
X106500D02*
D03*
X112842Y146429D02*
D03*
X110842Y146429D02*
D03*
D27*
X317400Y140850D02*
D03*
X317400Y143950D02*
D03*
X317400Y146350D02*
D03*
X317400Y149450D02*
D03*
X326500Y163850D02*
D03*
Y160750D02*
D03*
X322400Y147050D02*
D03*
Y143950D02*
D03*
X275600Y137650D02*
D03*
X275600Y140750D02*
D03*
X301300Y140850D02*
D03*
Y137750D02*
D03*
X290900Y147250D02*
D03*
X290900Y144150D02*
D03*
X288900Y140750D02*
D03*
X288900Y137650D02*
D03*
D28*
X310350Y149000D02*
D03*
X313450Y149000D02*
D03*
X269650Y191700D02*
D03*
X272750Y191700D02*
D03*
X278850D02*
D03*
X275750Y191700D02*
D03*
D29*
X301852Y130753D02*
D03*
X301852Y128853D02*
D03*
X152200Y134650D02*
D03*
X107100Y176350D02*
D03*
Y178250D02*
D03*
X224600Y133550D02*
D03*
Y131650D02*
D03*
X207800Y151250D02*
D03*
Y153150D02*
D03*
X211100Y149050D02*
D03*
Y150950D02*
D03*
X191200Y149450D02*
D03*
Y147550D02*
D03*
X194000Y149450D02*
D03*
X194000Y147550D02*
D03*
X109900Y178250D02*
D03*
Y176350D02*
D03*
X297000Y151150D02*
D03*
Y149250D02*
D03*
X231600Y155550D02*
D03*
X231600Y157450D02*
D03*
X165200Y141650D02*
D03*
Y139750D02*
D03*
X152200Y136550D02*
D03*
X152200Y140150D02*
D03*
Y142050D02*
D03*
X322100Y206014D02*
D03*
Y207914D02*
D03*
D30*
X175200Y149450D02*
D03*
Y153550D02*
D03*
X187500Y150150D02*
D03*
Y154250D02*
D03*
X145200Y155650D02*
D03*
Y159750D02*
D03*
D31*
X156800Y140000D02*
D03*
X105150Y145600D02*
D03*
X103250D02*
D03*
X104200Y143600D02*
D03*
X305100Y139800D02*
D03*
X306050Y137800D02*
D03*
X304150Y137800D02*
D03*
X266700Y162100D02*
D03*
X267650Y160100D02*
D03*
X265750D02*
D03*
X280510Y131000D02*
D03*
X281460Y129000D02*
D03*
X279560D02*
D03*
X266900Y131000D02*
D03*
X267850Y129000D02*
D03*
X265950D02*
D03*
X252100Y151800D02*
D03*
X253050Y149800D02*
D03*
X251150D02*
D03*
X242400Y151800D02*
D03*
X243350Y149800D02*
D03*
X241450D02*
D03*
X226800Y158200D02*
D03*
X225850Y160200D02*
D03*
X227750D02*
D03*
X287300Y149200D02*
D03*
X288250Y147200D02*
D03*
X286350D02*
D03*
X155850Y142000D02*
D03*
X157750Y142000D02*
D03*
D32*
X156800Y133900D02*
D03*
D33*
Y136600D02*
D03*
D34*
X184540Y150950D02*
D03*
X179460Y150950D02*
D03*
D35*
X182000Y140500D02*
D03*
D36*
X152050Y163400D02*
D03*
X153950Y163400D02*
D03*
X264850Y144100D02*
D03*
X262950D02*
D03*
X208250Y126600D02*
D03*
X210150D02*
D03*
X153950Y166500D02*
D03*
X152050Y166500D02*
D03*
X105550Y149100D02*
D03*
X103650D02*
D03*
X223850Y126300D02*
D03*
X221950D02*
D03*
X218350Y143000D02*
D03*
X220250D02*
D03*
X206850Y136600D02*
D03*
X208750D02*
D03*
X230750Y171500D02*
D03*
X228850D02*
D03*
X106550Y140300D02*
D03*
X108450Y140300D02*
D03*
X106550Y137300D02*
D03*
X108450Y137300D02*
D03*
X130850Y177400D02*
D03*
X128950D02*
D03*
X130850Y174300D02*
D03*
X128950D02*
D03*
X192650Y156400D02*
D03*
X190750Y156400D02*
D03*
D37*
X287975Y157050D02*
D03*
Y158000D02*
D03*
Y158950D02*
D03*
X286025Y157050D02*
D03*
Y158000D02*
D03*
Y158950D02*
D03*
X272175Y155950D02*
D03*
Y156900D02*
D03*
Y157850D02*
D03*
X270225Y155950D02*
D03*
Y156900D02*
D03*
Y157850D02*
D03*
D38*
X272200Y163675D02*
D03*
X271250D02*
D03*
X270300D02*
D03*
X272200Y161725D02*
D03*
X271250D02*
D03*
X270300D02*
D03*
X286350Y151625D02*
D03*
X287300D02*
D03*
X288250D02*
D03*
X286350Y153575D02*
D03*
X287300D02*
D03*
X288250D02*
D03*
D39*
X219800Y151300D02*
D03*
X223200D02*
D03*
X226000Y140300D02*
D03*
X222600D02*
D03*
X329500Y143100D02*
D03*
X326100D02*
D03*
X331400Y145000D02*
D03*
X334800D02*
D03*
X293000Y160900D02*
D03*
X289600D02*
D03*
X293000Y163000D02*
D03*
X289600D02*
D03*
X244700Y144700D02*
D03*
X248100D02*
D03*
D40*
X157750Y152000D02*
D03*
X153650D02*
D03*
X121050Y178700D02*
D03*
X125150D02*
D03*
D41*
X241900Y139640D02*
D03*
D42*
Y137100D02*
D03*
Y134560D02*
D03*
X251900D02*
D03*
Y139640D02*
D03*
Y137100D02*
D03*
D43*
X108500Y144350D02*
D03*
Y142450D02*
D03*
X110500Y143400D02*
D03*
X326100Y146700D02*
D03*
X328100Y147650D02*
D03*
Y145750D02*
D03*
X261100Y161350D02*
D03*
Y163250D02*
D03*
X259100Y162300D02*
D03*
D44*
X263600Y149224D02*
D03*
X263600Y148274D02*
D03*
X263600Y147324D02*
D03*
X266750D02*
D03*
Y149224D02*
D03*
X225850Y163900D02*
D03*
Y165800D02*
D03*
X229000D02*
D03*
X229000Y164850D02*
D03*
X229000Y163900D02*
D03*
D45*
X158300Y136800D02*
D03*
X155300Y136800D02*
D03*
D46*
X215107Y145040D02*
D03*
X213837Y145040D02*
D03*
X212567Y145040D02*
D03*
X211297D02*
D03*
X210027Y145040D02*
D03*
X208757Y145040D02*
D03*
X207487D02*
D03*
X215107Y140140D02*
D03*
X213837Y140140D02*
D03*
X212567D02*
D03*
X211297D02*
D03*
X210027D02*
D03*
X208757D02*
D03*
X207487Y140140D02*
D03*
D47*
X220000Y133550D02*
D03*
X221900D02*
D03*
Y130400D02*
D03*
X220950Y130400D02*
D03*
X220000Y130400D02*
D03*
D48*
X209975Y128895D02*
D03*
Y130165D02*
D03*
Y131435D02*
D03*
Y132705D02*
D03*
X204225Y128895D02*
D03*
Y130165D02*
D03*
Y131435D02*
D03*
Y132705D02*
D03*
D49*
X131751Y183500D02*
D03*
X160151Y157500D02*
D03*
D50*
X125540Y181250D02*
D03*
Y185750D02*
D03*
X153941Y155250D02*
D03*
X153941Y159750D02*
D03*
D51*
X115449Y170149D02*
D03*
D52*
X113199Y176359D02*
D03*
X117699D02*
D03*
D53*
X301700Y151200D02*
D03*
X301700Y146600D02*
D03*
X242600Y161200D02*
D03*
X242600Y156600D02*
D03*
X237800Y161200D02*
D03*
X237800Y156600D02*
D03*
X247900Y161100D02*
D03*
X247900Y156500D02*
D03*
X252700Y161100D02*
D03*
X252700Y156500D02*
D03*
D54*
X222100Y169700D02*
D03*
Y175100D02*
D03*
X268000D02*
D03*
Y169700D02*
D03*
M02*
