G04*
G04 #@! TF.GenerationSoftware,Altium Limited,Altium Designer,22.6.1 (34)*
G04*
G04 Layer_Physical_Order=2*
G04 Layer_Color=16711680*
%FSLAX43Y43*%
%MOMM*%
G71*
G04*
G04 #@! TF.SameCoordinates,AAB5C14D-29E5-48F0-9F93-E21C6970BB33*
G04*
G04*
G04 #@! TF.FilePolarity,Positive*
G04*
G01*
G75*
%ADD14C,0.600*%
%ADD15C,0.500*%
%ADD25R,1.500X1.400*%
%ADD26R,1.400X1.500*%
%ADD27R,1.900X1.500*%
%ADD28R,1.500X1.900*%
%ADD29R,1.600X1.500*%
%ADD30R,1.800X2.400*%
%ADD36R,1.500X1.600*%
%ADD39R,1.600X0.850*%
%ADD40R,2.400X1.800*%
%ADD43R,1.800X0.600*%
%ADD53R,3.500X3.200*%
%ADD54R,3.500X2.200*%
%ADD106C,2.000*%
%ADD112C,1.651*%
%ADD113R,1.651X1.651*%
%ADD115C,3.175*%
%ADD120C,1.000*%
%ADD121C,0.381*%
%ADD122C,1.500*%
%ADD123C,0.750*%
%ADD124C,2.500*%
%ADD125C,2.000*%
%ADD126C,2.032*%
%ADD127C,3.000*%
G04:AMPARAMS|DCode=128|XSize=3mm|YSize=3mm|CornerRadius=0.75mm|HoleSize=0mm|Usage=FLASHONLY|Rotation=270.000|XOffset=0mm|YOffset=0mm|HoleType=Round|Shape=RoundedRectangle|*
%AMROUNDEDRECTD128*
21,1,3.000,1.500,0,0,270.0*
21,1,1.500,3.000,0,0,270.0*
1,1,1.500,-0.750,-0.750*
1,1,1.500,-0.750,0.750*
1,1,1.500,0.750,0.750*
1,1,1.500,0.750,-0.750*
%
%ADD128ROUNDEDRECTD128*%
%ADD129C,3.260*%
%ADD130R,1.800X1.800*%
%ADD131C,1.800*%
%ADD133R,1.905X1.905*%
%ADD134C,1.905*%
%ADD135R,1.500X1.500*%
%ADD136C,1.500*%
%ADD137C,3.810*%
%ADD138C,1.350*%
%ADD139R,1.350X1.350*%
%ADD140R,1.350X1.350*%
%ADD141R,3.000X3.000*%
%ADD142R,2.600X2.600*%
%ADD143C,2.600*%
%ADD144R,4.000X4.000*%
%ADD145C,4.000*%
%ADD146C,2.500*%
%ADD147R,1.500X1.500*%
%ADD148C,2.300*%
%ADD149C,1.400*%
%ADD150C,6.350*%
%ADD151R,3.000X3.000*%
%ADD152C,0.610*%
%ADD153C,0.610*%
%ADD154C,1.000*%
%ADD155R,3.500X1.800*%
%ADD156R,2.200X3.500*%
%ADD157R,3.200X3.500*%
%ADD158C,1.600*%
%ADD159C,2.591*%
G36*
X328900Y224816D02*
Y224680D01*
X329691D01*
Y221935D01*
X329522Y221766D01*
X329357Y221518D01*
X329242Y221242D01*
X329184Y220949D01*
Y220651D01*
X329242Y220358D01*
X329357Y220082D01*
X329522Y219834D01*
X329734Y219622D01*
X329982Y219457D01*
X330258Y219342D01*
X330551Y219284D01*
X330849D01*
X331142Y219342D01*
X331418Y219457D01*
X331666Y219622D01*
X331878Y219834D01*
X332043Y220082D01*
X332158Y220358D01*
X332216Y220651D01*
Y220949D01*
X332158Y221242D01*
X332043Y221518D01*
X331878Y221766D01*
X331709Y221935D01*
Y224680D01*
X332500D01*
Y224700D01*
X335942D01*
Y210231D01*
X335815Y210205D01*
X335773Y210304D01*
X335613Y210513D01*
X332403Y213723D01*
X332194Y213883D01*
X331951Y213984D01*
X331690Y214019D01*
X328535D01*
X328366Y214188D01*
X328118Y214353D01*
X327842Y214468D01*
X327549Y214526D01*
X327251D01*
X326958Y214468D01*
X326682Y214353D01*
X326434Y214188D01*
X326222Y213976D01*
X326106Y213803D01*
X325979Y213841D01*
Y217179D01*
X325945Y217440D01*
X325844Y217684D01*
X325684Y217893D01*
X322938Y220639D01*
X323000Y220953D01*
Y221347D01*
X322923Y221733D01*
X322772Y222097D01*
X322553Y222425D01*
X322275Y222704D01*
X321947Y222922D01*
X321583Y223073D01*
X321197Y223150D01*
X320803D01*
X320417Y223073D01*
X320053Y222922D01*
X319725Y222704D01*
X319447Y222425D01*
X319269Y222159D01*
X318600D01*
Y222950D01*
X315800D01*
Y219550D01*
X318600D01*
Y220141D01*
X319269D01*
X319447Y219875D01*
X319725Y219596D01*
X320053Y219378D01*
X320417Y219227D01*
X320803Y219150D01*
X321197D01*
X321511Y219212D01*
X323962Y216762D01*
Y211400D01*
X323996Y211139D01*
X324097Y210896D01*
X324257Y210687D01*
X325171Y209773D01*
X325380Y209613D01*
X325623Y209512D01*
X325884Y209478D01*
X326248D01*
X326434Y209292D01*
X326477Y209264D01*
Y209137D01*
X326434Y209108D01*
X326222Y208896D01*
X326057Y208648D01*
X325942Y208372D01*
X325884Y208079D01*
Y207781D01*
X325942Y207488D01*
X326057Y207212D01*
X326222Y206964D01*
X326434Y206752D01*
X326477Y206723D01*
Y206596D01*
X326434Y206568D01*
X326305Y206439D01*
X325057D01*
X324829Y206666D01*
X324621Y206826D01*
X324539Y206860D01*
X316818Y214581D01*
X316609Y214741D01*
X316366Y214842D01*
X316105Y214876D01*
X314027D01*
X313870Y215033D01*
X313624Y215197D01*
X313351Y215310D01*
X313062Y215368D01*
X312766D01*
X312476Y215310D01*
X312203Y215197D01*
X311958Y215033D01*
X311751Y214826D01*
X310814D01*
Y215518D01*
X308014D01*
Y212118D01*
X310814D01*
Y212809D01*
X311851D01*
X311958Y212703D01*
X312203Y212538D01*
X312476Y212425D01*
X312766Y212368D01*
X313062D01*
X313351Y212425D01*
X313624Y212538D01*
X313870Y212703D01*
X314027Y212859D01*
X315687D01*
X323307Y205239D01*
X323515Y205079D01*
X323597Y205045D01*
X323926Y204717D01*
X324134Y204557D01*
X324378Y204456D01*
X324639Y204421D01*
X326225D01*
X326434Y204212D01*
X326682Y204047D01*
X326958Y203932D01*
X327251Y203874D01*
X327549D01*
X327842Y203932D01*
X328118Y204047D01*
X328366Y204212D01*
X328578Y204424D01*
X328743Y204672D01*
X328858Y204948D01*
X328916Y205241D01*
Y205539D01*
X328858Y205832D01*
X328743Y206108D01*
X328578Y206356D01*
X328453Y206481D01*
X328505Y206608D01*
X329324D01*
Y186915D01*
X329367Y186588D01*
X329493Y186284D01*
X329694Y186023D01*
X335639Y180078D01*
Y140412D01*
X332888Y137661D01*
X330300D01*
Y138800D01*
X330054D01*
Y139250D01*
X327946D01*
Y138800D01*
X327700D01*
Y137661D01*
X325541D01*
X325492Y137778D01*
X325543Y137830D01*
X325666Y138041D01*
X325708Y138200D01*
X324800D01*
X323892D01*
X323934Y138041D01*
X324057Y137830D01*
X324108Y137778D01*
X324059Y137661D01*
X317074Y137661D01*
X316977Y137788D01*
X317005Y137894D01*
Y138106D01*
X316950Y138311D01*
X316844Y138494D01*
X316694Y138644D01*
X316511Y138750D01*
X316306Y138805D01*
X316167D01*
X316152Y138807D01*
X311900D01*
X311886Y138805D01*
X311794D01*
X311706Y138781D01*
X311691Y138779D01*
X311678Y138774D01*
X311589Y138750D01*
X311510Y138704D01*
X311497Y138699D01*
X311485Y138690D01*
X311406Y138644D01*
X311341Y138579D01*
X311329Y138571D01*
X311321Y138559D01*
X311256Y138494D01*
X311210Y138415D01*
X311201Y138403D01*
X311196Y138390D01*
X311150Y138311D01*
X311126Y138222D01*
X311121Y138209D01*
X311119Y138194D01*
X311095Y138106D01*
Y138014D01*
X311093Y138000D01*
X311095Y137986D01*
Y137894D01*
X311119Y137806D01*
X311121Y137791D01*
X311122Y137788D01*
X311113Y137762D01*
X311026Y137661D01*
X310612D01*
Y140016D01*
X310636Y140047D01*
X310733Y140115D01*
X310739Y140114D01*
X310808Y140095D01*
X310886D01*
X310900Y140093D01*
X310914Y140095D01*
X311020D01*
X311225Y140150D01*
X311409Y140256D01*
X311559Y140406D01*
X311664Y140589D01*
X311719Y140794D01*
Y141006D01*
X311707Y141052D01*
Y148949D01*
X311679Y149157D01*
X311657Y149212D01*
Y149300D01*
X311650Y149352D01*
Y150500D01*
X311650D01*
Y152900D01*
X311207D01*
Y153203D01*
X311205Y153217D01*
Y153306D01*
X311182Y153392D01*
X311179Y153412D01*
X311172Y153430D01*
X311167Y153448D01*
Y154679D01*
X311233Y154765D01*
X311334Y155009D01*
X311369Y155270D01*
Y156264D01*
X311404Y156293D01*
X311476Y156341D01*
X311537Y156402D01*
X311603Y156457D01*
X311658Y156523D01*
X311719Y156584D01*
X311767Y156656D01*
X311822Y156723D01*
X311863Y156799D01*
X311911Y156871D01*
X311944Y156951D01*
X311985Y157027D01*
X312010Y157110D01*
X312043Y157190D01*
X312060Y157274D01*
X312085Y157357D01*
X312093Y157443D01*
X312110Y157528D01*
Y157614D01*
X312118Y157700D01*
Y173732D01*
X313683Y175296D01*
X313800Y175247D01*
Y172250D01*
X317000D01*
Y176750D01*
X316409D01*
Y177212D01*
X316584Y177285D01*
X316994Y177558D01*
X317342Y177906D01*
X317615Y178316D01*
X317804Y178771D01*
X317900Y179254D01*
Y179746D01*
X317804Y180229D01*
X317615Y180684D01*
X317342Y181094D01*
X316994Y181442D01*
X316789Y181578D01*
X316826Y181700D01*
X318850D01*
Y184200D01*
X315950D01*
Y183959D01*
X314750D01*
Y184200D01*
X311850D01*
Y181700D01*
X313974D01*
X314011Y181578D01*
X313806Y181442D01*
X313458Y181094D01*
X313185Y180684D01*
X313112Y180509D01*
X310500D01*
Y181250D01*
X307700D01*
Y177850D01*
X310500D01*
Y178491D01*
X311739D01*
X311787Y178374D01*
X309117Y175703D01*
X308898Y175437D01*
X308735Y175133D01*
X308635Y174803D01*
X308602Y174460D01*
Y157700D01*
X308610Y157614D01*
Y157528D01*
X308627Y157443D01*
X308635Y157357D01*
X308660Y157274D01*
X308677Y157190D01*
X308710Y157110D01*
X308735Y157027D01*
X308776Y156951D01*
X308809Y156871D01*
X308857Y156799D01*
X308898Y156723D01*
X308953Y156656D01*
X309001Y156584D01*
X309062Y156523D01*
X309117Y156457D01*
X309183Y156402D01*
X309244Y156341D01*
X309316Y156293D01*
X309351Y156264D01*
Y155270D01*
X309351Y155270D01*
X309386Y155009D01*
X309487Y154765D01*
X309553Y154679D01*
Y153243D01*
X309581Y153034D01*
X309583Y153027D01*
X309531Y152900D01*
X309150D01*
Y150900D01*
X309150D01*
Y149229D01*
X309033Y149181D01*
X303747Y154467D01*
X303486Y154667D01*
X303182Y154793D01*
X302855Y154836D01*
X295447D01*
X294410Y155873D01*
X294459Y155990D01*
X295000D01*
X295195Y156029D01*
X295360Y156140D01*
X295471Y156305D01*
X295510Y156500D01*
Y156800D01*
X295800D01*
Y157046D01*
X296250D01*
Y158100D01*
Y159154D01*
X295800D01*
Y159400D01*
X295510D01*
X295510Y159700D01*
X295800D01*
Y159946D01*
X296250D01*
Y161000D01*
Y162054D01*
X295800D01*
Y162300D01*
X295510D01*
Y162500D01*
X295471Y162695D01*
X295360Y162860D01*
X295195Y162971D01*
X295000Y163010D01*
X293187D01*
X290305Y165892D01*
X290044Y166092D01*
X289740Y166218D01*
X289414Y166261D01*
X284300D01*
X284300Y166261D01*
X281510D01*
Y167100D01*
X281471Y167295D01*
X281360Y167460D01*
X281195Y167571D01*
X281000Y167610D01*
X280800D01*
Y168000D01*
X280554D01*
Y168450D01*
X279500D01*
X278446D01*
Y168000D01*
X278200D01*
Y167610D01*
X277900D01*
Y168100D01*
X277654D01*
Y168550D01*
X276600D01*
X275546D01*
Y168100D01*
X275300D01*
Y167610D01*
X275000D01*
X274805Y167571D01*
X274640Y167460D01*
X274529Y167295D01*
X274490Y167100D01*
Y166061D01*
X257754D01*
X257428Y166018D01*
X257124Y165892D01*
X256862Y165692D01*
X250632Y159461D01*
X225722D01*
X224534Y160649D01*
X224571Y160705D01*
X224610Y160900D01*
Y167754D01*
X224598Y167811D01*
X224607Y167900D01*
X224578Y168194D01*
X224493Y168477D01*
X224353Y168737D01*
X224166Y168966D01*
X223937Y169153D01*
X223677Y169293D01*
X223394Y169378D01*
X223100Y169407D01*
X206600D01*
X206306Y169378D01*
X206023Y169293D01*
X205763Y169153D01*
X205534Y168966D01*
X201434Y164866D01*
X201247Y164637D01*
X201107Y164377D01*
X201022Y164094D01*
X200993Y163800D01*
Y156740D01*
X200866Y156714D01*
X200843Y156768D01*
X200678Y157016D01*
X200466Y157228D01*
X200218Y157393D01*
X199942Y157508D01*
X199649Y157566D01*
X199351D01*
X199058Y157508D01*
X198782Y157393D01*
X198534Y157228D01*
X198322Y157016D01*
X198157Y156768D01*
X198042Y156492D01*
X197984Y156199D01*
Y155901D01*
X198042Y155608D01*
X198157Y155332D01*
X198322Y155084D01*
X198534Y154872D01*
X198782Y154707D01*
X199058Y154592D01*
X199351Y154534D01*
X199649D01*
X199942Y154592D01*
X200218Y154707D01*
X200466Y154872D01*
X200678Y155084D01*
X200843Y155332D01*
X200866Y155386D01*
X200993Y155360D01*
Y147500D01*
X201000Y147426D01*
Y147352D01*
X201014Y147280D01*
X201022Y147206D01*
X201043Y147135D01*
X201058Y147062D01*
X201086Y146994D01*
X201107Y146923D01*
X201142Y146858D01*
X201171Y146789D01*
X201212Y146728D01*
X201247Y146663D01*
X201294Y146605D01*
X201335Y146544D01*
X201387Y146491D01*
X201434Y146434D01*
X201491Y146387D01*
X201544Y146335D01*
X201605Y146294D01*
X201663Y146247D01*
X201728Y146212D01*
X201789Y146171D01*
X201858Y146142D01*
X201923Y146107D01*
X201994Y146086D01*
X202062Y146058D01*
X202135Y146043D01*
X202206Y146022D01*
X202280Y146014D01*
X202352Y146000D01*
X202426D01*
X202475Y145995D01*
X202500Y145990D01*
X210600D01*
X210795Y146029D01*
X210960Y146140D01*
X211071Y146305D01*
X211110Y146500D01*
Y149200D01*
X211071Y149395D01*
X210960Y149560D01*
X210795Y149671D01*
X210600Y149710D01*
X210300D01*
Y150100D01*
X210054D01*
Y150550D01*
X207946D01*
Y150100D01*
X207700D01*
Y149710D01*
X207500D01*
Y150100D01*
X207254D01*
Y150550D01*
X205146D01*
Y150100D01*
X204900D01*
Y149710D01*
X204007D01*
Y163176D01*
X207224Y166393D01*
X217835D01*
X217946Y166354D01*
Y165500D01*
X218950D01*
Y165300D01*
X219150D01*
Y164246D01*
X219600D01*
Y164000D01*
X220090D01*
Y163800D01*
X219600D01*
Y163554D01*
X219150D01*
Y162500D01*
Y161446D01*
X219600D01*
Y161200D01*
X220090D01*
Y160900D01*
X220129Y160705D01*
X220240Y160540D01*
X220405Y160429D01*
X220600Y160390D01*
X221939D01*
Y160200D01*
X221982Y159874D01*
X222108Y159570D01*
X222308Y159308D01*
X224308Y157308D01*
X224570Y157108D01*
X224874Y156982D01*
X225200Y156939D01*
X225839D01*
Y151209D01*
X225410D01*
Y152400D01*
X225371Y152595D01*
X225260Y152760D01*
X225095Y152871D01*
X224900Y152910D01*
X221400D01*
X221205Y152871D01*
X221040Y152760D01*
X220929Y152595D01*
X220890Y152400D01*
Y152225D01*
X218500D01*
Y150375D01*
X218993D01*
Y149910D01*
X218600D01*
Y147807D01*
X218185D01*
X218111Y147934D01*
X218235Y148148D01*
X218326Y148485D01*
Y148835D01*
X218235Y149172D01*
X218061Y149474D01*
X217814Y149721D01*
X217760Y149752D01*
X217793Y149874D01*
X218326D01*
Y152525D01*
X215674D01*
Y149874D01*
X216207D01*
X216240Y149752D01*
X216186Y149721D01*
X215939Y149474D01*
X215765Y149172D01*
X215674Y148835D01*
Y148532D01*
X215552Y148474D01*
X215225Y148801D01*
Y150025D01*
X214693D01*
X214660Y150148D01*
X214714Y150179D01*
X214961Y150426D01*
X215135Y150728D01*
X215225Y151066D01*
Y151415D01*
X215135Y151752D01*
X214961Y152054D01*
X214909Y152106D01*
Y152500D01*
X214874Y152761D01*
X214773Y153004D01*
X214613Y153213D01*
X214404Y153374D01*
X214161Y153474D01*
X214053Y153489D01*
X213771Y153771D01*
X213603Y153899D01*
X213409Y153979D01*
X213200Y154007D01*
X210100D01*
X210084Y154005D01*
X209994D01*
X209907Y153982D01*
X209891Y153979D01*
X209876Y153973D01*
X209789Y153950D01*
X209711Y153905D01*
X209697Y153899D01*
X209684Y153889D01*
X209606Y153844D01*
X209542Y153780D01*
X209529Y153771D01*
X209520Y153758D01*
X209456Y153694D01*
X209411Y153616D01*
X209401Y153603D01*
X209395Y153589D01*
X209350Y153511D01*
X209327Y153424D01*
X209321Y153409D01*
X209318Y153393D01*
X209295Y153306D01*
Y153216D01*
X209293Y153200D01*
X209295Y153184D01*
Y153094D01*
X209318Y153007D01*
X209321Y152991D01*
X209327Y152976D01*
X209350Y152889D01*
X209395Y152811D01*
X209401Y152797D01*
X209411Y152784D01*
X209456Y152706D01*
X209520Y152642D01*
X209529Y152629D01*
X209542Y152620D01*
X209606Y152556D01*
X209684Y152511D01*
X209697Y152501D01*
X209711Y152495D01*
X209789Y152450D01*
X209876Y152427D01*
X209891Y152421D01*
X209907Y152418D01*
X209994Y152395D01*
X210084D01*
X210100Y152393D01*
X212866D01*
X212891Y152367D01*
Y152106D01*
X212839Y152054D01*
X212665Y151752D01*
X212574Y151415D01*
Y151066D01*
X212665Y150728D01*
X212839Y150426D01*
X213086Y150179D01*
X213140Y150148D01*
X213107Y150025D01*
X212574D01*
Y147374D01*
X213799D01*
X214887Y146287D01*
X215096Y146126D01*
X215339Y146026D01*
X215600Y145991D01*
X215700D01*
X215961Y146026D01*
X216204Y146126D01*
X216291Y146193D01*
X219200D01*
X219409Y146221D01*
X219603Y146301D01*
X219771Y146429D01*
X220371Y147029D01*
X220499Y147197D01*
X220579Y147391D01*
X220582Y147410D01*
X220890D01*
Y147200D01*
X220929Y147005D01*
X221040Y146840D01*
X221205Y146729D01*
X221400Y146690D01*
X223500D01*
X223695Y146729D01*
X223860Y146840D01*
X223971Y147005D01*
X224010Y147200D01*
Y149490D01*
X224900D01*
X225095Y149529D01*
X225194Y149595D01*
X226601D01*
X227087Y149108D01*
X227348Y148908D01*
X227525Y148835D01*
Y148825D01*
X227549D01*
X227652Y148782D01*
X227979Y148739D01*
X228700D01*
X229026Y148782D01*
X229130Y148825D01*
X229875D01*
Y149332D01*
X230002Y149384D01*
X230130Y149257D01*
X230341Y149134D01*
X230500Y149092D01*
Y150000D01*
Y150908D01*
X230341Y150866D01*
X230130Y150743D01*
X230002Y150616D01*
X229875Y150668D01*
Y151175D01*
X229130D01*
X229026Y151218D01*
X228700Y151261D01*
X228501D01*
X228361Y151401D01*
Y154600D01*
X228488Y154668D01*
X228504Y154658D01*
X228570Y154608D01*
X228646Y154577D01*
X228718Y154535D01*
X228797Y154514D01*
X228874Y154482D01*
X228956Y154471D01*
X229035Y154450D01*
X229118D01*
X229200Y154439D01*
X229282Y154450D01*
X229365D01*
X229444Y154471D01*
X229526Y154482D01*
X229603Y154514D01*
X229682Y154535D01*
X229754Y154577D01*
X229830Y154608D01*
X229896Y154658D01*
X229968Y154700D01*
X230026Y154758D01*
X230092Y154808D01*
X230301Y155018D01*
X259490D01*
Y154800D01*
X259000D01*
Y154554D01*
X258550D01*
Y153500D01*
Y152446D01*
X259000D01*
Y152200D01*
X259490D01*
Y151800D01*
X259000D01*
Y151554D01*
X258550D01*
Y150500D01*
Y149446D01*
X259000D01*
Y149200D01*
X259490D01*
Y149000D01*
X259529Y148805D01*
X259640Y148640D01*
X259805Y148529D01*
X260000Y148490D01*
X261909D01*
X261912Y148491D01*
X261914Y148490D01*
X262009Y148510D01*
X262104Y148529D01*
X262107Y148530D01*
X262109Y148531D01*
X262189Y148586D01*
X262270Y148640D01*
X262271Y148642D01*
X262273Y148643D01*
X262362Y148734D01*
X262364Y148736D01*
X262366Y148738D01*
X262418Y148819D01*
X262471Y148900D01*
X262472Y148903D01*
X262473Y148905D01*
X262490Y149001D01*
X262508Y149096D01*
X262507Y149098D01*
X262508Y149101D01*
X262380Y155500D01*
X262469Y155590D01*
X268500Y155590D01*
X268695Y155629D01*
X268779Y155685D01*
X270596D01*
X270630Y155558D01*
X270606Y155544D01*
X270456Y155394D01*
X270350Y155211D01*
X270295Y155006D01*
Y154794D01*
X270344Y154614D01*
Y153386D01*
X270295Y153206D01*
Y152994D01*
X270350Y152789D01*
X270456Y152606D01*
X270606Y152456D01*
X270789Y152350D01*
X270994Y152295D01*
X271206D01*
X271411Y152350D01*
X271594Y152456D01*
X271744Y152606D01*
X271850Y152789D01*
X271905Y152994D01*
Y153206D01*
X271856Y153386D01*
Y154614D01*
X271905Y154794D01*
Y155006D01*
X271850Y155211D01*
X271744Y155394D01*
X271594Y155544D01*
X271570Y155558D01*
X271604Y155685D01*
X272536D01*
X272549Y155639D01*
X272594Y155561D01*
X272600Y155547D01*
X272609Y155534D01*
X272654Y155456D01*
X272718Y155392D01*
X272728Y155379D01*
X272741Y155370D01*
X272804Y155306D01*
X272882Y155261D01*
X272895Y155251D01*
X272910Y155245D01*
X272988Y155200D01*
X273075Y155177D01*
X273090Y155171D01*
X273106Y155168D01*
X273193Y155145D01*
X273283D01*
X273298Y155143D01*
X273314Y155145D01*
X273404D01*
X273491Y155168D01*
X273507Y155171D01*
X273522Y155177D01*
X273609Y155200D01*
X273687Y155245D01*
X273702Y155251D01*
X273715Y155261D01*
X273793Y155306D01*
X273816Y155330D01*
X275979Y153166D01*
Y152008D01*
X275866Y151939D01*
X275852Y151937D01*
X275804Y151973D01*
X275743Y151999D01*
X275686Y152032D01*
X275622Y152049D01*
X275561Y152074D01*
X275496Y152083D01*
X275432Y152100D01*
X275366D01*
X275300Y152109D01*
X270400D01*
X270139Y152074D01*
X269896Y151973D01*
X269687Y151813D01*
X267587Y149713D01*
X267427Y149504D01*
X267417Y149481D01*
X266983Y149178D01*
X263898Y149168D01*
X263802Y149149D01*
X263705Y149130D01*
X263704Y149129D01*
X263703Y149129D01*
X263622Y149074D01*
X263540Y149019D01*
X263539Y149018D01*
X263538Y149018D01*
X263484Y148936D01*
X263429Y148854D01*
X263429Y148853D01*
X263428Y148852D01*
X263409Y148755D01*
X263390Y148659D01*
Y146659D01*
X263429Y146463D01*
X263540Y146298D01*
X263705Y146188D01*
X263900Y146149D01*
X264150D01*
Y145700D01*
X264396D01*
Y145250D01*
X265450D01*
X266504D01*
Y145700D01*
X266750D01*
Y146149D01*
X266950D01*
Y145700D01*
X267196D01*
Y145250D01*
X268250D01*
X269304D01*
Y145700D01*
X269550D01*
Y146149D01*
X269900D01*
X270095Y146188D01*
X270260Y146298D01*
X270371Y146463D01*
X270410Y146659D01*
Y147649D01*
X270537Y147674D01*
X270617Y147482D01*
X270782Y147234D01*
X270994Y147022D01*
X271242Y146857D01*
X271518Y146742D01*
X271811Y146684D01*
X272109D01*
X272402Y146742D01*
X272678Y146857D01*
X272926Y147022D01*
X273138Y147234D01*
X273303Y147482D01*
X273309Y147495D01*
X273436Y147503D01*
X273484Y147420D01*
X273720Y147184D01*
X274010Y147017D01*
X274300Y146939D01*
Y148200D01*
Y149461D01*
X274010Y149383D01*
X273720Y149216D01*
X273484Y148980D01*
X273436Y148897D01*
X273309Y148905D01*
X273303Y148918D01*
X273138Y149166D01*
X272926Y149378D01*
X272678Y149543D01*
X272402Y149658D01*
X272109Y149716D01*
X271811D01*
X271518Y149658D01*
X271242Y149543D01*
X270994Y149378D01*
X270782Y149166D01*
X270617Y148918D01*
X270522Y148689D01*
X270444Y148684D01*
X270391Y148705D01*
X270383Y148763D01*
X270374Y148778D01*
X270371Y148795D01*
X270325Y148864D01*
X270284Y148935D01*
X270270Y148946D01*
X270260Y148960D01*
X270192Y149006D01*
X270126Y149057D01*
X269994Y149122D01*
X269974Y149247D01*
X270818Y150091D01*
X275300D01*
X275366Y150100D01*
X275432D01*
X275496Y150117D01*
X275561Y150126D01*
X275622Y150151D01*
X275686Y150168D01*
X275743Y150201D01*
X275804Y150227D01*
X275857Y150267D01*
X275988Y150209D01*
X275992Y150205D01*
X276022Y149974D01*
X276036Y149940D01*
Y149514D01*
X276043Y149481D01*
X276041Y149447D01*
X276062Y149384D01*
X276065Y149369D01*
X275862Y149166D01*
X275697Y148918D01*
X275691Y148905D01*
X275564Y148897D01*
X275516Y148980D01*
X275280Y149216D01*
X274990Y149383D01*
X274700Y149461D01*
Y148200D01*
Y146939D01*
X274990Y147017D01*
X275280Y147184D01*
X275516Y147420D01*
X275564Y147503D01*
X275691Y147495D01*
X275697Y147482D01*
X275862Y147234D01*
X276065Y147031D01*
X276062Y147016D01*
X276041Y146953D01*
X276043Y146919D01*
X276036Y146886D01*
Y146200D01*
X276075Y146005D01*
X276186Y145840D01*
X276351Y145729D01*
X276546Y145690D01*
X279072D01*
X279268Y145729D01*
X279433Y145840D01*
X279543Y146005D01*
X279582Y146200D01*
X279583Y146201D01*
X281071Y146198D01*
Y145700D01*
X282000D01*
X282929D01*
Y146104D01*
X283019Y146194D01*
X284909Y146190D01*
X284909Y146190D01*
X284910Y146190D01*
X285006Y146209D01*
X285104Y146229D01*
X285104Y146229D01*
X285105Y146229D01*
X285190Y146286D01*
X285270Y146339D01*
X285270Y146339D01*
X285270Y146339D01*
X285343Y146412D01*
X303041D01*
X303571Y145882D01*
X303661Y145813D01*
X305287Y144187D01*
X305339Y144147D01*
X305386Y144100D01*
X305443Y144067D01*
X305496Y144027D01*
X305557Y144001D01*
X305614Y143968D01*
X305678Y143951D01*
X305739Y143926D01*
X305804Y143917D01*
X305868Y143900D01*
X305934D01*
X306000Y143891D01*
X306066Y143900D01*
X306132D01*
X306195Y143917D01*
X306261Y143926D01*
X306322Y143951D01*
X306386Y143968D01*
X306443Y144001D01*
X306504Y144027D01*
X306557Y144067D01*
X306614Y144100D01*
X306661Y144147D01*
X306713Y144187D01*
X306753Y144239D01*
X306800Y144286D01*
X306833Y144343D01*
X306874Y144396D01*
X306899Y144457D01*
X306932Y144514D01*
X306949Y144578D01*
X306974Y144639D01*
X306983Y144704D01*
X307000Y144768D01*
Y144834D01*
X307009Y144900D01*
X307000Y144966D01*
Y145032D01*
X306983Y145096D01*
X306974Y145161D01*
X306949Y145222D01*
X306932Y145286D01*
X306899Y145343D01*
X306874Y145404D01*
X306833Y145457D01*
X306800Y145514D01*
X306753Y145561D01*
X306713Y145613D01*
X305018Y147308D01*
X304928Y147378D01*
X304172Y148133D01*
X303963Y148294D01*
X303720Y148394D01*
X303459Y148429D01*
X285510D01*
Y150300D01*
X285471Y150495D01*
X285360Y150660D01*
X285312Y150693D01*
X285350Y150820D01*
X285431D01*
X285636Y150875D01*
X285819Y150981D01*
X285969Y151131D01*
X286062Y151293D01*
X286613Y151844D01*
X288864D01*
X289044Y151795D01*
X289256D01*
X289461Y151850D01*
X289644Y151956D01*
X289794Y152106D01*
X289900Y152289D01*
X289955Y152494D01*
Y152706D01*
X289900Y152911D01*
X289794Y153094D01*
X289644Y153244D01*
X289461Y153350D01*
X289256Y153405D01*
X289044D01*
X288864Y153356D01*
X286300D01*
X286104Y153331D01*
X285922Y153255D01*
X285765Y153135D01*
X284993Y152362D01*
X284831Y152269D01*
X284681Y152119D01*
X284575Y151936D01*
X284520Y151731D01*
Y151519D01*
X284575Y151314D01*
X284681Y151131D01*
X284831Y150981D01*
X284907Y150937D01*
X284873Y150810D01*
X284400D01*
Y151200D01*
X284154D01*
Y151650D01*
X282046D01*
Y151200D01*
X281800D01*
Y150810D01*
X281600D01*
Y151200D01*
X281354D01*
Y151650D01*
X279246D01*
Y151200D01*
X279000D01*
Y151145D01*
X278889Y151083D01*
X278501Y151317D01*
Y153407D01*
X278507Y153421D01*
X278551Y153760D01*
X278507Y154099D01*
X278376Y154416D01*
X278167Y154687D01*
X274981Y157873D01*
X274710Y158082D01*
X274393Y158213D01*
X274054Y158257D01*
X273715Y158213D01*
X273701Y158207D01*
X269639D01*
X269590Y158324D01*
X270183Y158917D01*
X270193Y158930D01*
X270257Y158993D01*
X270301Y159071D01*
X270311Y159084D01*
X270317Y159099D01*
X270362Y159177D01*
X270386Y159264D01*
X270392Y159279D01*
X270394Y159295D01*
X270417Y159382D01*
Y159472D01*
X270419Y159488D01*
X270417Y159503D01*
Y159593D01*
X270394Y159680D01*
X270392Y159696D01*
X270386Y159711D01*
X270362Y159798D01*
X270317Y159876D01*
X270311Y159891D01*
X270301Y159904D01*
X270257Y159982D01*
X270193Y160045D01*
X270183Y160058D01*
X270170Y160068D01*
X270107Y160132D01*
X270029Y160176D01*
X270016Y160186D01*
X270001Y160192D01*
X269923Y160237D01*
X269836Y160261D01*
X269821Y160267D01*
X269805Y160269D01*
X269718Y160292D01*
X269628D01*
X269612Y160294D01*
X269597Y160292D01*
X269507D01*
X269420Y160269D01*
X269404Y160267D01*
X269389Y160261D01*
X269302Y160237D01*
X269224Y160192D01*
X269209Y160186D01*
X269196Y160176D01*
X269118Y160132D01*
X269055Y160068D01*
X269042Y160058D01*
X268501Y159518D01*
X268500Y159518D01*
X267646Y159518D01*
Y159946D01*
X267400D01*
Y160396D01*
X265292D01*
Y159946D01*
X265046D01*
Y159518D01*
X264846D01*
Y159946D01*
X264600D01*
Y160396D01*
X262492D01*
Y159946D01*
X262246D01*
Y159518D01*
X261700D01*
X261505Y159479D01*
X261340Y159368D01*
X261229Y159203D01*
X261190Y159008D01*
Y158994D01*
X260255Y157539D01*
X252442D01*
X252394Y157657D01*
X258276Y163539D01*
X268729D01*
X268774Y163412D01*
X268656Y163294D01*
X268550Y163111D01*
X268495Y162906D01*
Y162694D01*
X268523Y162590D01*
X268489Y162450D01*
X268411Y162405D01*
X268397Y162399D01*
X268384Y162389D01*
X268306Y162344D01*
X268242Y162280D01*
X268229Y162271D01*
X268220Y162258D01*
X268156Y162194D01*
X268111Y162116D01*
X268101Y162103D01*
X268095Y162089D01*
X268050Y162011D01*
X268027Y161924D01*
X268021Y161909D01*
X268018Y161893D01*
X267995Y161806D01*
Y161716D01*
X267993Y161700D01*
X267995Y161684D01*
Y161594D01*
X268018Y161507D01*
X268021Y161491D01*
X268027Y161476D01*
X268050Y161389D01*
X268095Y161311D01*
X268101Y161297D01*
X268111Y161284D01*
X268156Y161206D01*
X268220Y161142D01*
X268229Y161129D01*
X268242Y161120D01*
X268306Y161056D01*
X268384Y161011D01*
X268397Y161001D01*
X268411Y160995D01*
X268489Y160950D01*
X268576Y160927D01*
X268591Y160921D01*
X268607Y160918D01*
X268694Y160895D01*
X268784D01*
X268800Y160893D01*
X270441D01*
X270518Y160792D01*
X270495Y160706D01*
Y160494D01*
X270550Y160289D01*
X270656Y160106D01*
X270806Y159956D01*
X270989Y159850D01*
X271194Y159795D01*
X271406D01*
X271586Y159844D01*
X272457D01*
X272503Y159797D01*
X272556Y159706D01*
X272706Y159556D01*
X272889Y159450D01*
X273094Y159395D01*
X273306D01*
X273511Y159450D01*
X273694Y159556D01*
X273844Y159706D01*
X273950Y159889D01*
X274005Y160094D01*
Y160306D01*
X273950Y160511D01*
X273844Y160694D01*
X273772Y160766D01*
X273825Y160893D01*
X278797D01*
X278813Y160895D01*
X278906D01*
X278912Y160897D01*
X279039Y160805D01*
X279039Y160803D01*
Y158100D01*
X279082Y157774D01*
X279125Y157670D01*
Y156925D01*
X279870D01*
X279974Y156882D01*
X280300Y156839D01*
X280626Y156882D01*
X280730Y156925D01*
X281475D01*
Y157432D01*
X281602Y157484D01*
X281730Y157357D01*
X281941Y157234D01*
X282100Y157192D01*
Y158100D01*
Y159008D01*
X281941Y158966D01*
X281730Y158843D01*
X281678Y158792D01*
X281561Y158841D01*
Y163739D01*
X283000D01*
Y161300D01*
X283246D01*
Y160850D01*
X285354D01*
Y161300D01*
X285600D01*
Y163739D01*
X288891D01*
X291290Y161340D01*
X291290Y156500D01*
X291329Y156305D01*
X291339Y156290D01*
Y155900D01*
X291382Y155574D01*
X291508Y155270D01*
X291708Y155008D01*
X294033Y152683D01*
X294295Y152483D01*
X294599Y152357D01*
X294925Y152314D01*
X302333D01*
X308091Y146557D01*
Y136400D01*
Y131895D01*
X307964Y131843D01*
X307829Y131978D01*
X307580Y132143D01*
X307304Y132258D01*
X307012Y132316D01*
X306713D01*
X306420Y132258D01*
X306144Y132143D01*
X305896Y131978D01*
X305685Y131766D01*
X305519Y131518D01*
X305404Y131242D01*
X305346Y130949D01*
Y130651D01*
X305404Y130358D01*
X305519Y130082D01*
X305685Y129834D01*
X305896Y129622D01*
X306144Y129457D01*
X306420Y129342D01*
X306713Y129284D01*
X307012D01*
X307304Y129342D01*
X307580Y129457D01*
X307829Y129622D01*
X308040Y129834D01*
X308069Y129877D01*
X308196D01*
X308225Y129834D01*
X308436Y129622D01*
X308684Y129457D01*
X308960Y129342D01*
X309253Y129284D01*
X309552D01*
X309844Y129342D01*
X310120Y129457D01*
X310369Y129622D01*
X310580Y129834D01*
X310609Y129877D01*
X310736D01*
X310765Y129834D01*
X310976Y129622D01*
X311224Y129457D01*
X311500Y129342D01*
X311793Y129284D01*
X312092D01*
X312384Y129342D01*
X312660Y129457D01*
X312909Y129622D01*
X313120Y129834D01*
X313286Y130082D01*
X313400Y130358D01*
X313458Y130651D01*
Y130949D01*
X313400Y131242D01*
X313286Y131518D01*
X313120Y131766D01*
X312951Y131935D01*
Y132758D01*
X312916Y133019D01*
X312816Y133262D01*
X312707Y133404D01*
Y134600D01*
X312705Y134614D01*
Y134706D01*
X312681Y134794D01*
X312679Y134809D01*
X312674Y134822D01*
X312650Y134911D01*
X312604Y134990D01*
X312599Y135003D01*
X312592Y135012D01*
X312593Y135020D01*
X312665Y135139D01*
X324800Y135139D01*
X333410D01*
X333736Y135182D01*
X334040Y135308D01*
X334301Y135508D01*
X337574Y138781D01*
X337691Y138733D01*
Y124518D01*
X336782Y123609D01*
X321562D01*
X321542Y123732D01*
X322063Y123989D01*
X322547Y124312D01*
X322984Y124696D01*
X323368Y125133D01*
X323691Y125617D01*
X323948Y126138D01*
X324135Y126689D01*
X324248Y127260D01*
X324287Y127840D01*
X324248Y128420D01*
X324135Y128991D01*
X323948Y129542D01*
X323691Y130063D01*
X323368Y130547D01*
X322984Y130984D01*
X322547Y131368D01*
X322063Y131691D01*
X321542Y131948D01*
X320991Y132135D01*
X320420Y132248D01*
X319840Y132287D01*
X319260Y132248D01*
X318689Y132135D01*
X318138Y131948D01*
X317617Y131691D01*
X317133Y131368D01*
X316696Y130984D01*
X316312Y130547D01*
X315989Y130063D01*
X315732Y129542D01*
X315545Y128991D01*
X315432Y128420D01*
X315393Y127840D01*
X315432Y127260D01*
X315545Y126689D01*
X315732Y126138D01*
X315989Y125617D01*
X316312Y125133D01*
X316696Y124696D01*
X317133Y124312D01*
X317617Y123989D01*
X318138Y123732D01*
X318118Y123609D01*
X285667D01*
X285640Y123633D01*
X285590Y123736D01*
X285599Y123757D01*
X285632Y123814D01*
X285649Y123878D01*
X285674Y123939D01*
X285683Y124004D01*
X285700Y124068D01*
Y124134D01*
X285709Y124200D01*
X285700Y124266D01*
Y124332D01*
X285683Y124396D01*
X285674Y124461D01*
X285649Y124522D01*
X285632Y124586D01*
X285599Y124643D01*
X285573Y124704D01*
X285533Y124757D01*
X285500Y124814D01*
X285453Y124861D01*
X285413Y124913D01*
X285361Y124953D01*
X285314Y125000D01*
X285257Y125033D01*
X285204Y125074D01*
X285143Y125099D01*
X285086Y125132D01*
X285022Y125149D01*
X284961Y125174D01*
X284896Y125183D01*
X284832Y125200D01*
X284766D01*
X284700Y125209D01*
X274400D01*
X274334Y125200D01*
X274268D01*
X274204Y125183D01*
X274139Y125174D01*
X274078Y125149D01*
X274014Y125132D01*
X273957Y125099D01*
X273896Y125074D01*
X273843Y125033D01*
X273786Y125000D01*
X273739Y124953D01*
X273687Y124913D01*
X273647Y124861D01*
X273600Y124814D01*
X273567Y124757D01*
X273526Y124704D01*
X273501Y124643D01*
X273468Y124586D01*
X273451Y124522D01*
X273426Y124461D01*
X273417Y124396D01*
X273400Y124332D01*
Y124266D01*
X273391Y124200D01*
X273400Y124134D01*
Y124068D01*
X273417Y124004D01*
X273426Y123939D01*
X273451Y123878D01*
X273468Y123814D01*
X273501Y123757D01*
X273510Y123736D01*
X273460Y123633D01*
X273433Y123609D01*
X268595D01*
X267809Y124395D01*
Y125938D01*
X267774Y126199D01*
X267673Y126442D01*
X267513Y126651D01*
X263909Y130256D01*
Y132500D01*
X263874Y132761D01*
X263773Y133004D01*
X263613Y133213D01*
X263404Y133373D01*
X263161Y133474D01*
X262900Y133509D01*
X262639Y133474D01*
X262396Y133373D01*
X262187Y133213D01*
X262026Y133004D01*
X261926Y132761D01*
X261891Y132500D01*
Y129838D01*
X261926Y129577D01*
X262026Y129334D01*
X262187Y129125D01*
X265791Y125520D01*
Y123977D01*
X265826Y123716D01*
X265927Y123473D01*
X266087Y123264D01*
X267464Y121887D01*
X267673Y121727D01*
X267916Y121626D01*
X268177Y121591D01*
X337200D01*
X337461Y121626D01*
X337704Y121727D01*
X337913Y121887D01*
X339151Y123125D01*
X339269Y123076D01*
X339269Y120846D01*
X339179Y120756D01*
X249340D01*
X249306Y120883D01*
X249480Y120984D01*
X249716Y121220D01*
X249883Y121510D01*
X249961Y121800D01*
X248700D01*
X247439D01*
X247517Y121510D01*
X247684Y121220D01*
X247920Y120984D01*
X248094Y120883D01*
X248060Y120756D01*
X215922D01*
X215879Y120883D01*
X216013Y120987D01*
X217913Y122887D01*
X218074Y123096D01*
X218174Y123339D01*
X218209Y123600D01*
Y126190D01*
X218350D01*
Y125725D01*
X218596D01*
Y125275D01*
X219650D01*
X220704D01*
Y125725D01*
X220950D01*
Y126190D01*
X221200D01*
Y125700D01*
X221446D01*
Y125250D01*
X222500D01*
X223554D01*
Y125700D01*
X223800D01*
Y126190D01*
X224100D01*
X224295Y126229D01*
X224460Y126340D01*
X224571Y126505D01*
X224610Y126700D01*
Y127491D01*
X225332D01*
X226491Y126332D01*
Y125603D01*
X226405Y125454D01*
X226325Y125155D01*
Y124845D01*
X226405Y124546D01*
X226560Y124279D01*
X226779Y124060D01*
X227046Y123905D01*
X227345Y123825D01*
X227655D01*
X227954Y123905D01*
X228221Y124060D01*
X228440Y124279D01*
X228448Y124293D01*
X228571Y124260D01*
Y124071D01*
X229300D01*
Y125000D01*
X229500D01*
D01*
X229300D01*
Y125929D01*
X228571D01*
X228509Y126030D01*
Y126750D01*
X228474Y127011D01*
X228374Y127254D01*
X228213Y127463D01*
X226463Y129213D01*
X226254Y129374D01*
X226011Y129474D01*
X225750Y129509D01*
X224562D01*
X224460Y129660D01*
X224295Y129771D01*
X224100Y129810D01*
X223524D01*
X223500Y129805D01*
X223300D01*
X223276Y129810D01*
X218100D01*
X217905Y129771D01*
X217740Y129660D01*
X217629Y129495D01*
X217591Y129304D01*
X217473Y129213D01*
X216487Y128227D01*
X216327Y128019D01*
X216226Y127775D01*
X216191Y127514D01*
Y124018D01*
X214882Y122709D01*
X214469D01*
X214442Y122744D01*
X214412Y122836D01*
X214442Y122874D01*
X214500Y122932D01*
X214542Y123004D01*
X214592Y123070D01*
X214624Y123146D01*
X214665Y123218D01*
X214686Y123297D01*
X214718Y123374D01*
X214729Y123456D01*
X214750Y123535D01*
Y123618D01*
X214761Y123700D01*
Y131949D01*
X214852Y132037D01*
X215149Y132030D01*
X215640Y131540D01*
X215805Y131429D01*
X216000Y131390D01*
X220929D01*
X221124Y131429D01*
X221290Y131540D01*
X221400Y131705D01*
X221421Y131755D01*
X221440Y131849D01*
X221460Y131942D01*
X221465Y132300D01*
X221900D01*
Y132546D01*
X222350D01*
Y133600D01*
Y134654D01*
X221900D01*
Y134900D01*
X221597D01*
X221541Y134957D01*
X221508Y135005D01*
X221490Y135101D01*
X221473Y135197D01*
X221471Y135199D01*
X221471Y135201D01*
X221417Y135282D01*
X221365Y135364D01*
X221363Y135365D01*
X221362Y135367D01*
X221273Y135458D01*
X221271Y135459D01*
X221270Y135460D01*
X221189Y135515D01*
X221108Y135569D01*
X221106Y135570D01*
X221105Y135571D01*
X221009Y135590D01*
X220914Y135610D01*
X220911Y135609D01*
X220909Y135610D01*
X219328D01*
X219132Y135571D01*
X218967Y135460D01*
X218840Y135333D01*
X218781Y135245D01*
X218766Y135250D01*
X216546D01*
Y134994D01*
X216544Y134990D01*
X216419Y134899D01*
X216399Y134903D01*
X216302Y134923D01*
X214675Y134930D01*
Y135275D01*
X214168D01*
X214116Y135402D01*
X214243Y135530D01*
X214366Y135741D01*
X214408Y135900D01*
X213500D01*
X212592D01*
X212634Y135741D01*
X212757Y135530D01*
X212884Y135402D01*
X212832Y135275D01*
X212325D01*
Y135031D01*
X212235Y134942D01*
X212035Y134943D01*
X212035Y134942D01*
X212034Y134943D01*
X211937Y134923D01*
X211867Y134910D01*
X209910D01*
Y136600D01*
X209871Y136795D01*
X209760Y136960D01*
X209595Y137071D01*
X209400Y137110D01*
X207200D01*
X207005Y137071D01*
X206840Y136960D01*
X206729Y136795D01*
X206690Y136600D01*
Y136200D01*
X206400D01*
Y135954D01*
X205950D01*
Y134900D01*
Y133846D01*
X206400D01*
Y133600D01*
X206690D01*
Y133400D01*
X206400D01*
Y133154D01*
X205950D01*
Y132100D01*
Y131046D01*
X206400D01*
Y130800D01*
X206690D01*
Y130100D01*
X206729Y129905D01*
X206840Y129740D01*
X207005Y129629D01*
X207200Y129590D01*
X209400D01*
X209595Y129629D01*
X209760Y129740D01*
X209871Y129905D01*
X209910Y130100D01*
Y132790D01*
X211626D01*
Y132615D01*
X211644Y132523D01*
X211660Y132432D01*
X211664Y132426D01*
X211665Y132420D01*
X211717Y132342D01*
X211767Y132263D01*
X211772Y132260D01*
X211775Y132254D01*
X211853Y132203D01*
X211929Y132149D01*
X211935Y132147D01*
X211941Y132144D01*
X212032Y132126D01*
X212123Y132105D01*
X212239Y132102D01*
Y125779D01*
X212112Y125726D01*
X212094Y125744D01*
X212016Y125789D01*
X212003Y125799D01*
X211989Y125805D01*
X211911Y125850D01*
X211824Y125873D01*
X211809Y125879D01*
X211793Y125882D01*
X211706Y125905D01*
X211616D01*
X211600Y125907D01*
X205300D01*
X205300Y125907D01*
X204500D01*
Y126350D01*
X200100D01*
Y125907D01*
X199700D01*
X199700Y125907D01*
X199220D01*
X197516Y127610D01*
Y127849D01*
X197458Y128142D01*
X197343Y128418D01*
X197178Y128666D01*
X196966Y128878D01*
X196718Y129043D01*
X196442Y129158D01*
X196149Y129216D01*
X195851D01*
X195558Y129158D01*
X195282Y129043D01*
X195034Y128878D01*
X194822Y128666D01*
X194657Y128418D01*
X194542Y128142D01*
X194484Y127849D01*
Y127551D01*
X194542Y127258D01*
X194657Y126982D01*
X194822Y126734D01*
X195034Y126522D01*
X195282Y126357D01*
X195558Y126242D01*
X195851Y126184D01*
X196090D01*
X197887Y124387D01*
X198096Y124227D01*
X198339Y124126D01*
X198600Y124091D01*
X198861Y124126D01*
X199104Y124227D01*
X199191Y124293D01*
X199700D01*
X199700Y124293D01*
X200100D01*
Y123850D01*
X204500D01*
Y124293D01*
X205300D01*
X205300Y124293D01*
X211600D01*
X211616Y124295D01*
X211706D01*
X211793Y124318D01*
X211809Y124321D01*
X211824Y124327D01*
X211911Y124350D01*
X211989Y124395D01*
X212003Y124401D01*
X212016Y124411D01*
X212094Y124456D01*
X212112Y124474D01*
X212239Y124421D01*
Y123700D01*
X212250Y123618D01*
Y123535D01*
X212271Y123456D01*
X212282Y123374D01*
X212314Y123297D01*
X212335Y123218D01*
X212376Y123146D01*
X212408Y123070D01*
X212458Y123004D01*
X212500Y122932D01*
X212558Y122874D01*
X212588Y122836D01*
X212558Y122744D01*
X212531Y122709D01*
X154178D01*
X139373Y137513D01*
X139321Y137553D01*
X139274Y137600D01*
X139217Y137633D01*
X139164Y137673D01*
X139103Y137699D01*
X139046Y137732D01*
X138982Y137749D01*
X138921Y137774D01*
X138856Y137783D01*
X138792Y137800D01*
X138726D01*
X138660Y137809D01*
X138594Y137800D01*
X138528D01*
X138465Y137783D01*
X138399Y137774D01*
X138338Y137749D01*
X138274Y137732D01*
X138217Y137699D01*
X138156Y137673D01*
X138103Y137633D01*
X138046Y137600D01*
X137999Y137553D01*
X137947Y137513D01*
X137907Y137461D01*
X137860Y137414D01*
X137827Y137357D01*
X137787Y137304D01*
X137761Y137243D01*
X137728Y137186D01*
X137711Y137122D01*
X137686Y137061D01*
X137677Y136995D01*
X137660Y136932D01*
Y136866D01*
X137651Y136800D01*
X137660Y136734D01*
Y136668D01*
X137677Y136604D01*
X137686Y136539D01*
X137711Y136478D01*
X137728Y136414D01*
X137761Y136357D01*
X137787Y136296D01*
X137827Y136243D01*
X137860Y136186D01*
X137907Y136139D01*
X137947Y136087D01*
X153047Y120987D01*
X153181Y120883D01*
X153138Y120756D01*
X100756D01*
X100756Y154990D01*
X106500D01*
X106549Y155000D01*
X107000D01*
Y155451D01*
X107010Y155500D01*
Y156500D01*
X125309D01*
X125317Y156482D01*
X125482Y156234D01*
X125694Y156022D01*
X125942Y155857D01*
X126218Y155742D01*
X126511Y155684D01*
X126809D01*
X127102Y155742D01*
X127378Y155857D01*
X127626Y156022D01*
X127838Y156234D01*
X127867Y156277D01*
X127993D01*
X128022Y156234D01*
X128234Y156022D01*
X128482Y155857D01*
X128758Y155742D01*
X129051Y155684D01*
X129349D01*
X129642Y155742D01*
X129918Y155857D01*
X130166Y156022D01*
X130378Y156234D01*
X130406Y156277D01*
X130533D01*
X130562Y156234D01*
X130774Y156022D01*
X131022Y155857D01*
X131298Y155742D01*
X131591Y155684D01*
X131889D01*
X132182Y155742D01*
X132458Y155857D01*
X132706Y156022D01*
X132918Y156234D01*
X133083Y156482D01*
X133091Y156500D01*
X134000D01*
Y170459D01*
X135949Y170478D01*
X136039Y170388D01*
Y168600D01*
X135450D01*
Y165800D01*
X136141D01*
Y165750D01*
X136176Y165489D01*
X136277Y165246D01*
X136437Y165037D01*
X138091Y163382D01*
Y162121D01*
X137980Y162010D01*
X137795Y161690D01*
X137700Y161334D01*
Y160966D01*
X137795Y160610D01*
X137980Y160290D01*
X138240Y160030D01*
X138560Y159845D01*
X138916Y159750D01*
X139284D01*
X139640Y159845D01*
X139960Y160030D01*
X140220Y160290D01*
X140405Y160610D01*
X140500Y160966D01*
Y161334D01*
X140405Y161690D01*
X140220Y162010D01*
X140109Y162121D01*
Y163800D01*
X140074Y164061D01*
X139973Y164304D01*
X139813Y164513D01*
X138644Y165683D01*
X138692Y165800D01*
X138850D01*
Y168600D01*
X138561D01*
Y175600D01*
X139050D01*
Y178400D01*
X138561D01*
Y184500D01*
X138518Y184826D01*
X138392Y185130D01*
X138192Y185392D01*
X132474Y191109D01*
X132457Y191163D01*
Y195829D01*
X132503Y195875D01*
X132722Y196203D01*
X132873Y196567D01*
X132950Y196953D01*
Y197347D01*
X132873Y197733D01*
X132722Y198097D01*
X132503Y198425D01*
X132457Y198471D01*
Y204337D01*
X132478Y204406D01*
X132507Y204700D01*
X132478Y204994D01*
X132393Y205277D01*
X132331Y205391D01*
X132397Y205500D01*
X133250D01*
Y206043D01*
X133550D01*
Y205600D01*
X136450D01*
Y208100D01*
X133550D01*
Y207657D01*
X133250D01*
Y208300D01*
X128750D01*
Y205500D01*
X129559D01*
X129636Y205373D01*
X129557Y205227D01*
X129472Y204944D01*
X129443Y204650D01*
Y198471D01*
X129396Y198425D01*
X129178Y198097D01*
X129027Y197733D01*
X128950Y197347D01*
Y196953D01*
X129027Y196567D01*
X129178Y196203D01*
X129396Y195875D01*
X129443Y195829D01*
Y195000D01*
X128000D01*
Y198888D01*
X128154Y199042D01*
X128388Y199391D01*
X128548Y199779D01*
X128630Y200190D01*
Y200610D01*
X128548Y201021D01*
X128388Y201409D01*
X128154Y201758D01*
X128000Y201912D01*
Y215000D01*
X143500D01*
Y205000D01*
X153400Y195000D01*
Y186000D01*
X199712D01*
X203712Y190000D01*
X208759D01*
X208814Y189968D01*
X208878Y189951D01*
X208939Y189926D01*
X209004Y189917D01*
X209068Y189900D01*
X209134D01*
X209200Y189891D01*
X301182D01*
X302605Y188469D01*
X302814Y188309D01*
X303057Y188208D01*
X303318Y188174D01*
X307775D01*
Y187482D01*
X308116D01*
Y185350D01*
X307700D01*
Y181950D01*
X310500D01*
Y185350D01*
X310133D01*
Y187482D01*
X310575D01*
Y190882D01*
X307775D01*
Y190191D01*
X307000D01*
Y192274D01*
X307775D01*
Y191582D01*
X310575D01*
Y192274D01*
X313500D01*
X313656Y192117D01*
X313608Y192000D01*
X312900D01*
Y187300D01*
X311850D01*
Y184800D01*
X314750D01*
Y185041D01*
X315950D01*
Y184800D01*
X318850D01*
Y187300D01*
X317900D01*
Y192000D01*
X316382D01*
X316374Y192061D01*
X316273Y192304D01*
X316113Y192513D01*
X314631Y193995D01*
X314422Y194156D01*
X314179Y194256D01*
X313918Y194291D01*
X310575D01*
Y194982D01*
X307775D01*
Y194291D01*
X307000D01*
Y219413D01*
X307275Y219596D01*
X307553Y219875D01*
X307772Y220203D01*
X307923Y220567D01*
X308000Y220953D01*
Y221347D01*
X307923Y221733D01*
X307772Y222097D01*
X307553Y222425D01*
X307275Y222704D01*
X307000Y222887D01*
Y225017D01*
X307148Y225164D01*
X307366Y225431D01*
X307529Y225735D01*
X307629Y226065D01*
X307663Y226408D01*
Y227539D01*
X307772Y227703D01*
X307923Y228067D01*
X308000Y228453D01*
Y228847D01*
X307923Y229233D01*
X307772Y229597D01*
X307553Y229925D01*
X307275Y230204D01*
X307000Y230387D01*
Y230642D01*
X311012D01*
X311355Y230675D01*
X311685Y230775D01*
X311989Y230938D01*
X312255Y231157D01*
X313099Y232000D01*
X322700D01*
X328900Y224816D01*
D02*
G37*
G36*
X281000Y164100D02*
X275000D01*
Y167100D01*
X275546D01*
Y167050D01*
X276600D01*
X277654D01*
Y167100D01*
X278446D01*
Y166950D01*
X279500D01*
X280554D01*
Y167100D01*
X281000D01*
Y164100D01*
D02*
G37*
G36*
X224100Y160900D02*
X220600D01*
Y161446D01*
X220650D01*
Y162500D01*
Y163554D01*
X220600D01*
Y164246D01*
X220650D01*
Y165300D01*
Y166354D01*
X220600D01*
Y167754D01*
X224100D01*
Y160900D01*
D02*
G37*
G36*
X268500Y156100D02*
X261858Y156100D01*
X261998Y149091D01*
X261909Y149000D01*
X260000D01*
Y149446D01*
X260050D01*
Y150500D01*
Y151554D01*
X260000D01*
Y152446D01*
X260050D01*
Y153500D01*
Y154554D01*
X260000D01*
Y156200D01*
X261682Y158817D01*
X261700Y158812D01*
Y159008D01*
X262492D01*
Y158896D01*
X264600D01*
Y159008D01*
X265292D01*
Y158896D01*
X267400D01*
Y159008D01*
X268500Y159008D01*
Y156100D01*
D02*
G37*
G36*
X119000Y211150D02*
X115900D01*
Y206650D01*
X119000D01*
Y203450D01*
X117600D01*
Y200550D01*
X119000D01*
Y194000D01*
X129443D01*
Y190850D01*
X129472Y190556D01*
X129557Y190273D01*
X129697Y190013D01*
X129884Y189784D01*
X129934Y189734D01*
X130163Y189547D01*
X130423Y189407D01*
X130691Y189326D01*
X136039Y183978D01*
Y178400D01*
X135650D01*
Y175600D01*
X136039D01*
Y170988D01*
X133002Y170960D01*
X133000Y158264D01*
X132873Y158211D01*
X132706Y158378D01*
X132458Y158543D01*
X132182Y158658D01*
X131889Y158716D01*
X131591D01*
X131298Y158658D01*
X131022Y158543D01*
X130774Y158378D01*
X130562Y158166D01*
X130451Y158000D01*
X130196D01*
X129980Y158216D01*
X129690Y158383D01*
X129400Y158461D01*
Y157200D01*
X129000D01*
Y158461D01*
X128710Y158383D01*
X128420Y158216D01*
X128204Y158000D01*
X127949D01*
X127838Y158166D01*
X127626Y158378D01*
X127378Y158543D01*
X127102Y158658D01*
X126809Y158716D01*
X126511D01*
X126218Y158658D01*
X125942Y158543D01*
X125694Y158378D01*
X125482Y158166D01*
X125371Y158000D01*
X121102D01*
X121072Y158097D01*
X121071Y158127D01*
X121278Y158334D01*
X121443Y158582D01*
X121558Y158858D01*
X121616Y159151D01*
Y159449D01*
X121558Y159742D01*
X121443Y160018D01*
X121278Y160266D01*
X121066Y160478D01*
X120818Y160643D01*
X120542Y160758D01*
X120249Y160816D01*
X119951D01*
X119658Y160758D01*
X119382Y160643D01*
X119258Y160561D01*
X115672D01*
X109592Y166642D01*
X109330Y166842D01*
X109026Y166968D01*
X108700Y167011D01*
X104900D01*
X104818Y167000D01*
X104735D01*
X104656Y166979D01*
X104574Y166968D01*
X104497Y166936D01*
X104418Y166915D01*
X104346Y166873D01*
X104270Y166842D01*
X104204Y166792D01*
X104132Y166750D01*
X104074Y166692D01*
X104008Y166642D01*
X103958Y166576D01*
X103900Y166518D01*
X103858Y166446D01*
X103808Y166380D01*
X103777Y166304D01*
X103735Y166232D01*
X103714Y166153D01*
X103682Y166076D01*
X103671Y165994D01*
X103650Y165915D01*
Y165832D01*
X103639Y165750D01*
X103650Y165668D01*
Y165585D01*
X103671Y165506D01*
X103682Y165424D01*
X103714Y165347D01*
X103735Y165268D01*
X103776Y165196D01*
X103808Y165120D01*
X103858Y165054D01*
X103900Y164982D01*
X103958Y164924D01*
X104008Y164858D01*
X104074Y164808D01*
X104132Y164750D01*
X104204Y164708D01*
X104270Y164658D01*
X104346Y164626D01*
X104418Y164585D01*
X104497Y164564D01*
X104574Y164532D01*
X104656Y164521D01*
X104735Y164500D01*
X104818D01*
X104900Y164489D01*
X107700D01*
Y158000D01*
X106500D01*
Y155500D01*
X100756D01*
X100756Y215000D01*
X119000D01*
Y211150D01*
D02*
G37*
G36*
X295000Y162054D02*
X294750D01*
Y161000D01*
Y159946D01*
X295000D01*
X295000Y159154D01*
X294750D01*
Y158100D01*
Y157046D01*
X295000D01*
Y156500D01*
X291800D01*
X291800Y162500D01*
X295000D01*
Y162054D01*
D02*
G37*
G36*
X210600Y146500D02*
X202500D01*
Y149200D01*
X205146D01*
Y149050D01*
X207254D01*
Y149200D01*
X207946D01*
Y149050D01*
X210054D01*
Y149200D01*
X210600D01*
Y146500D01*
D02*
G37*
G36*
X224900Y150000D02*
X223500D01*
Y147200D01*
X221400D01*
Y147656D01*
X221600D01*
Y148660D01*
Y149664D01*
X221400D01*
Y152400D01*
X224900D01*
Y150000D01*
D02*
G37*
G36*
X279200Y150300D02*
X279246D01*
Y150150D01*
X281354D01*
Y150300D01*
X282046D01*
Y150150D01*
X284154D01*
Y150300D01*
X285000D01*
Y146790D01*
X284910Y146700D01*
X282698Y146704D01*
X282645Y146832D01*
X282743Y146930D01*
X282866Y147141D01*
X282908Y147300D01*
X282000D01*
X281092D01*
X281134Y147141D01*
X281257Y146930D01*
X281352Y146834D01*
X281299Y146707D01*
X279072Y146712D01*
Y146200D01*
X276546D01*
Y146886D01*
X276673Y146984D01*
X276840Y146939D01*
Y148200D01*
Y149461D01*
X276673Y149416D01*
X276546Y149514D01*
Y151771D01*
X276657Y151833D01*
X279200Y150300D01*
D02*
G37*
G36*
X269900Y148600D02*
Y146659D01*
X269304D01*
Y146750D01*
X268250D01*
X267196D01*
Y146659D01*
X266504D01*
Y146750D01*
X265450D01*
X264396D01*
Y146659D01*
X263900D01*
Y148659D01*
X267144Y148669D01*
X268231Y149427D01*
X269900Y148600D01*
D02*
G37*
G36*
X209400Y134400D02*
X212000D01*
Y134400D01*
X212033Y134433D01*
X212571Y134430D01*
Y134300D01*
X213500D01*
X214429D01*
Y134332D01*
X214519Y134421D01*
X216300Y134413D01*
Y134200D01*
X216546D01*
Y133750D01*
X218654D01*
Y134200D01*
X218900D01*
Y134311D01*
X218990Y134401D01*
X219200Y134400D01*
Y134972D01*
X219328Y135100D01*
X220909D01*
X220999Y135009D01*
X220993Y134654D01*
X220850D01*
Y133600D01*
Y132546D01*
X220869D01*
X220958Y132455D01*
X220950Y131950D01*
X220929Y131900D01*
X216000D01*
X215365Y132535D01*
X212136Y132615D01*
Y133300D01*
X209400D01*
Y130100D01*
X207200D01*
Y131046D01*
X207450D01*
Y132100D01*
Y133154D01*
X207200D01*
Y133846D01*
X207450D01*
Y134900D01*
Y135954D01*
X207200D01*
Y136600D01*
X209400D01*
Y134400D01*
D02*
G37*
G36*
X224100Y126700D02*
X223554D01*
Y126750D01*
X222500D01*
X221446D01*
Y126700D01*
X220704D01*
Y126775D01*
X219650D01*
X218596D01*
Y126700D01*
X218100D01*
Y129300D01*
X223276D01*
X223294Y129295D01*
X223506D01*
X223524Y129300D01*
X224100D01*
Y126700D01*
D02*
G37*
%LPC*%
G36*
X322754Y230404D02*
X321200D01*
Y228850D01*
X322754D01*
Y230404D01*
D02*
G37*
G36*
X320800D02*
X319246D01*
Y228850D01*
X320800D01*
Y230404D01*
D02*
G37*
G36*
X322754Y228450D02*
X321200D01*
Y226896D01*
X322754D01*
Y228450D01*
D02*
G37*
G36*
X320800D02*
X319246D01*
Y226896D01*
X320800D01*
Y228450D01*
D02*
G37*
G36*
X318354Y226804D02*
X317400D01*
Y225550D01*
X318354D01*
Y226804D01*
D02*
G37*
G36*
X317000D02*
X316046D01*
Y225550D01*
X317000D01*
Y226804D01*
D02*
G37*
G36*
X318354Y225150D02*
X317400D01*
Y223896D01*
X318354D01*
Y225150D01*
D02*
G37*
G36*
X317000D02*
X316046D01*
Y223896D01*
X317000D01*
Y225150D01*
D02*
G37*
G36*
X141550Y213200D02*
X137050D01*
Y212109D01*
X133250D01*
Y212500D01*
X128750D01*
Y209700D01*
X133250D01*
Y210091D01*
X137050D01*
Y209000D01*
X141550D01*
Y213200D01*
D02*
G37*
G36*
X310568Y211172D02*
X309614D01*
Y209918D01*
X310568D01*
Y211172D01*
D02*
G37*
G36*
X309214D02*
X308260D01*
Y209918D01*
X309214D01*
Y211172D01*
D02*
G37*
G36*
X310568Y209518D02*
X309614D01*
Y208264D01*
X310568D01*
Y209518D01*
D02*
G37*
G36*
X309214D02*
X308260D01*
Y208264D01*
X309214D01*
Y209518D01*
D02*
G37*
G36*
X141304Y208354D02*
X139500D01*
Y206700D01*
X141304D01*
Y208354D01*
D02*
G37*
G36*
X139100D02*
X137296D01*
Y206700D01*
X139100D01*
Y208354D01*
D02*
G37*
G36*
X313114Y207492D02*
Y206448D01*
X314158D01*
X314082Y206732D01*
X313917Y207018D01*
X313684Y207251D01*
X313398Y207416D01*
X313114Y207492D01*
D02*
G37*
G36*
X312714Y207492D02*
X312430Y207416D01*
X312144Y207251D01*
X311910Y207018D01*
X311745Y206732D01*
X311669Y206448D01*
X312714D01*
Y207492D01*
D02*
G37*
G36*
Y206048D02*
X311669D01*
X311745Y205764D01*
X311910Y205478D01*
X312144Y205244D01*
X312430Y205079D01*
X312714Y205003D01*
Y206048D01*
D02*
G37*
G36*
X314158D02*
X313114D01*
Y205003D01*
X313398Y205079D01*
X313684Y205244D01*
X313917Y205478D01*
X314082Y205764D01*
X314158Y206048D01*
D02*
G37*
G36*
X141304Y206300D02*
X139500D01*
Y204646D01*
X141304D01*
Y206300D01*
D02*
G37*
G36*
X139100D02*
X137296D01*
Y204646D01*
X139100D01*
Y206300D01*
D02*
G37*
G36*
X136204Y204754D02*
X135200D01*
Y203950D01*
X136204D01*
Y204754D01*
D02*
G37*
G36*
X134800D02*
X133796D01*
Y203950D01*
X134800D01*
Y204754D01*
D02*
G37*
G36*
X136204Y203550D02*
X135200D01*
Y202746D01*
X136204D01*
Y203550D01*
D02*
G37*
G36*
X134800D02*
X133796D01*
Y202746D01*
X134800D01*
Y203550D01*
D02*
G37*
G36*
X318554Y204066D02*
X315354D01*
Y202725D01*
X312354D01*
Y203966D01*
X309154D01*
Y199466D01*
X312354D01*
Y200708D01*
X315354D01*
Y199566D01*
X316541D01*
X316639Y199526D01*
X316900Y199491D01*
X317161Y199526D01*
X317259Y199566D01*
X318554D01*
Y204066D01*
D02*
G37*
G36*
X137500Y198899D02*
Y197350D01*
X139049D01*
X138987Y197662D01*
X138854Y197981D01*
X138662Y198268D01*
X138418Y198512D01*
X138131Y198704D01*
X137812Y198837D01*
X137500Y198899D01*
D02*
G37*
G36*
X137100D02*
X136788Y198837D01*
X136469Y198704D01*
X136182Y198512D01*
X135938Y198268D01*
X135746Y197981D01*
X135613Y197662D01*
X135551Y197350D01*
X137100D01*
Y198899D01*
D02*
G37*
G36*
X323954Y204066D02*
X320754D01*
Y199566D01*
X321291D01*
Y198700D01*
X320050D01*
Y195500D01*
X324550D01*
Y198700D01*
X323309D01*
Y199566D01*
X323954D01*
Y204066D01*
D02*
G37*
G36*
X139049Y196950D02*
X137500D01*
Y195401D01*
X137812Y195463D01*
X138131Y195596D01*
X138418Y195788D01*
X138662Y196032D01*
X138854Y196319D01*
X138987Y196638D01*
X139049Y196950D01*
D02*
G37*
G36*
X137100D02*
X135551D01*
X135613Y196638D01*
X135746Y196319D01*
X135938Y196032D01*
X136182Y195788D01*
X136469Y195596D01*
X136788Y195463D01*
X137100Y195401D01*
Y196950D01*
D02*
G37*
G36*
X324550Y193300D02*
X320050D01*
Y190100D01*
X321291D01*
Y188800D01*
X320050D01*
Y185600D01*
X324550D01*
Y188800D01*
X323309D01*
Y190100D01*
X324550D01*
Y193300D01*
D02*
G37*
G36*
X296800Y188458D02*
X229300D01*
X228957Y188425D01*
X228627Y188325D01*
X228323Y188162D01*
X228057Y187943D01*
X226352Y186239D01*
X226134Y185973D01*
X225971Y185669D01*
X225871Y185339D01*
X225837Y184996D01*
Y184011D01*
X225728Y183847D01*
X225577Y183483D01*
X225500Y183097D01*
Y182703D01*
X225577Y182317D01*
X225728Y181953D01*
X225947Y181625D01*
X226225Y181346D01*
X226553Y181128D01*
X226917Y180977D01*
X227303Y180900D01*
X227697D01*
X228083Y180977D01*
X228447Y181128D01*
X228775Y181346D01*
X229053Y181625D01*
X229272Y181953D01*
X229423Y182317D01*
X229500Y182703D01*
Y183097D01*
X229423Y183483D01*
X229354Y183650D01*
Y184267D01*
X230028Y184942D01*
X230840D01*
X230950Y184900D01*
X230950Y184815D01*
Y180900D01*
X234950D01*
Y184815D01*
X234950Y184900D01*
X235060Y184942D01*
X267333D01*
X267367Y184823D01*
X267003Y184672D01*
X266675Y184454D01*
X266397Y184175D01*
X266178Y183847D01*
X266027Y183483D01*
X265950Y183097D01*
Y182703D01*
X266027Y182317D01*
X266178Y181953D01*
X266397Y181625D01*
X266675Y181346D01*
X267003Y181128D01*
X267367Y180977D01*
X267753Y180900D01*
X268147D01*
X268533Y180977D01*
X268897Y181128D01*
X269225Y181346D01*
X269504Y181625D01*
X269722Y181953D01*
X269873Y182317D01*
X269950Y182703D01*
Y183097D01*
X269873Y183483D01*
X269722Y183847D01*
X269504Y184175D01*
X269225Y184454D01*
X268897Y184672D01*
X268533Y184823D01*
X268567Y184942D01*
X271172D01*
X271642Y184472D01*
Y183868D01*
X271628Y183847D01*
X271477Y183483D01*
X271400Y183097D01*
Y182703D01*
X271477Y182317D01*
X271628Y181953D01*
X271846Y181625D01*
X272125Y181346D01*
X272453Y181128D01*
X272817Y180977D01*
X273203Y180900D01*
X273597D01*
X273983Y180977D01*
X274347Y181128D01*
X274675Y181346D01*
X274953Y181625D01*
X275172Y181953D01*
X275323Y182317D01*
X275400Y182703D01*
Y183097D01*
X275323Y183483D01*
X275172Y183847D01*
X275158Y183868D01*
Y184472D01*
X275628Y184942D01*
X276740D01*
X276850Y184900D01*
X276850Y184815D01*
Y180900D01*
X280850D01*
Y184815D01*
X280850Y184900D01*
X280960Y184942D01*
X296800D01*
X296886Y184950D01*
X296972D01*
X297057Y184967D01*
X297143Y184975D01*
X297226Y185000D01*
X297310Y185017D01*
X297390Y185050D01*
X297473Y185075D01*
X297549Y185116D01*
X297629Y185149D01*
X297701Y185197D01*
X297777Y185238D01*
X297844Y185293D01*
X297916Y185341D01*
X297977Y185402D01*
X298043Y185457D01*
X298098Y185523D01*
X298159Y185584D01*
X298207Y185656D01*
X298262Y185723D01*
X298303Y185799D01*
X298351Y185871D01*
X298384Y185951D01*
X298425Y186027D01*
X298450Y186110D01*
X298483Y186190D01*
X298500Y186274D01*
X298525Y186357D01*
X298533Y186443D01*
X298550Y186528D01*
Y186614D01*
X298558Y186700D01*
X298550Y186786D01*
Y186872D01*
X298533Y186957D01*
X298525Y187043D01*
X298500Y187126D01*
X298483Y187210D01*
X298450Y187290D01*
X298425Y187373D01*
X298384Y187449D01*
X298351Y187529D01*
X298303Y187601D01*
X298262Y187677D01*
X298207Y187744D01*
X298159Y187816D01*
X298098Y187877D01*
X298043Y187943D01*
X297977Y187998D01*
X297916Y188059D01*
X297844Y188107D01*
X297777Y188162D01*
X297701Y188203D01*
X297629Y188251D01*
X297549Y188284D01*
X297473Y188325D01*
X297390Y188350D01*
X297310Y188383D01*
X297226Y188400D01*
X297143Y188425D01*
X297057Y188433D01*
X296972Y188450D01*
X296886D01*
X296800Y188458D01*
D02*
G37*
G36*
X222247Y184900D02*
X221853D01*
X221467Y184823D01*
X221103Y184672D01*
X220775Y184454D01*
X220497Y184175D01*
X220278Y183847D01*
X220127Y183483D01*
X220050Y183097D01*
Y182703D01*
X220127Y182317D01*
X220278Y181953D01*
X220497Y181625D01*
X220775Y181346D01*
X221103Y181128D01*
X221467Y180977D01*
X221853Y180900D01*
X222247D01*
X222633Y180977D01*
X222997Y181128D01*
X223325Y181346D01*
X223604Y181625D01*
X223822Y181953D01*
X223973Y182317D01*
X224050Y182703D01*
Y183097D01*
X223973Y183483D01*
X223822Y183847D01*
X223604Y184175D01*
X223325Y184454D01*
X222997Y184672D01*
X222633Y184823D01*
X222247Y184900D01*
D02*
G37*
G36*
X324550Y183400D02*
X320050D01*
Y180200D01*
X324550D01*
Y180741D01*
X325180D01*
Y180100D01*
X329680D01*
Y183300D01*
X325180D01*
Y182759D01*
X324550D01*
Y183400D01*
D02*
G37*
G36*
X329680Y177900D02*
X325180D01*
Y177309D01*
X324180D01*
X323919Y177274D01*
X323676Y177173D01*
X323467Y177013D01*
X322517Y176064D01*
X322400Y176112D01*
Y176750D01*
X319200D01*
Y172250D01*
X322400D01*
Y173505D01*
X322561Y173526D01*
X322804Y173626D01*
X323013Y173787D01*
X323265Y174038D01*
X323319Y174061D01*
X323527Y174221D01*
X324598Y175291D01*
X325180D01*
Y174700D01*
X329680D01*
Y177900D01*
D02*
G37*
G36*
X286389Y182975D02*
X285811D01*
X285239Y182885D01*
X284689Y182706D01*
X284174Y182443D01*
X283706Y182103D01*
X283297Y181694D01*
X282957Y181226D01*
X282694Y180711D01*
X282516Y180161D01*
X282425Y179589D01*
Y179011D01*
X282516Y178439D01*
X282694Y177889D01*
X282957Y177374D01*
X283297Y176906D01*
X283706Y176497D01*
X284174Y176157D01*
X284689Y175894D01*
X285239Y175715D01*
X285811Y175625D01*
X286389D01*
X286961Y175715D01*
X287511Y175894D01*
X288026Y176157D01*
X288494Y176497D01*
X288903Y176906D01*
X289243Y177374D01*
X289506Y177889D01*
X289685Y178439D01*
X289775Y179011D01*
Y179589D01*
X289685Y180161D01*
X289506Y180711D01*
X289243Y181226D01*
X288903Y181694D01*
X288494Y182103D01*
X288026Y182443D01*
X287511Y182706D01*
X286961Y182885D01*
X286389Y182975D01*
D02*
G37*
G36*
X260989D02*
X260411D01*
X259839Y182885D01*
X259289Y182706D01*
X258774Y182443D01*
X258306Y182103D01*
X257897Y181694D01*
X257557Y181226D01*
X257294Y180711D01*
X257115Y180161D01*
X257025Y179589D01*
Y179011D01*
X257115Y178439D01*
X257294Y177889D01*
X257557Y177374D01*
X257897Y176906D01*
X258306Y176497D01*
X258774Y176157D01*
X259289Y175894D01*
X259839Y175715D01*
X260411Y175625D01*
X260989D01*
X261561Y175715D01*
X262111Y175894D01*
X262626Y176157D01*
X263094Y176497D01*
X263503Y176906D01*
X263843Y177374D01*
X264106Y177889D01*
X264285Y178439D01*
X264375Y179011D01*
Y179589D01*
X264285Y180161D01*
X264106Y180711D01*
X263843Y181226D01*
X263503Y181694D01*
X263094Y182103D01*
X262626Y182443D01*
X262111Y182706D01*
X261561Y182885D01*
X260989Y182975D01*
D02*
G37*
G36*
X240489D02*
X239911D01*
X239339Y182885D01*
X238789Y182706D01*
X238274Y182443D01*
X237806Y182103D01*
X237397Y181694D01*
X237057Y181226D01*
X236794Y180711D01*
X236615Y180161D01*
X236525Y179589D01*
Y179011D01*
X236615Y178439D01*
X236794Y177889D01*
X237057Y177374D01*
X237397Y176906D01*
X237806Y176497D01*
X238274Y176157D01*
X238789Y175894D01*
X239339Y175715D01*
X239911Y175625D01*
X240489D01*
X241061Y175715D01*
X241611Y175894D01*
X242126Y176157D01*
X242594Y176497D01*
X243003Y176906D01*
X243343Y177374D01*
X243606Y177889D01*
X243785Y178439D01*
X243875Y179011D01*
Y179589D01*
X243785Y180161D01*
X243606Y180711D01*
X243343Y181226D01*
X243003Y181694D01*
X242594Y182103D01*
X242126Y182443D01*
X241611Y182706D01*
X241061Y182885D01*
X240489Y182975D01*
D02*
G37*
G36*
X215089D02*
X214511D01*
X213939Y182885D01*
X213389Y182706D01*
X212874Y182443D01*
X212406Y182103D01*
X211997Y181694D01*
X211657Y181226D01*
X211394Y180711D01*
X211215Y180161D01*
X211125Y179589D01*
Y179011D01*
X211215Y178439D01*
X211394Y177889D01*
X211657Y177374D01*
X211997Y176906D01*
X212406Y176497D01*
X212874Y176157D01*
X213389Y175894D01*
X213939Y175715D01*
X214511Y175625D01*
X215089D01*
X215661Y175715D01*
X216211Y175894D01*
X216726Y176157D01*
X217194Y176497D01*
X217603Y176906D01*
X217943Y177374D01*
X218206Y177889D01*
X218385Y178439D01*
X218475Y179011D01*
Y179589D01*
X218385Y180161D01*
X218206Y180711D01*
X217943Y181226D01*
X217603Y181694D01*
X217194Y182103D01*
X216726Y182443D01*
X216211Y182706D01*
X215661Y182885D01*
X215089Y182975D01*
D02*
G37*
G36*
X232950Y178830D02*
X232934Y178828D01*
X232844D01*
X232757Y178805D01*
X232741Y178803D01*
X232726Y178796D01*
X232639Y178773D01*
X232561Y178728D01*
X232547Y178722D01*
X232534Y178712D01*
X232456Y178667D01*
X232392Y178604D01*
X232379Y178594D01*
X232370Y178581D01*
X232306Y178517D01*
X232261Y178439D01*
X232251Y178427D01*
X232245Y178412D01*
X232200Y178334D01*
X232177Y178247D01*
X232171Y178232D01*
X232168Y178216D01*
X232145Y178129D01*
Y178039D01*
X232143Y178023D01*
Y178021D01*
X232145Y178005D01*
Y177917D01*
X232168Y177833D01*
X232171Y177812D01*
X232179Y177792D01*
X232193Y177738D01*
Y174600D01*
X232195Y174584D01*
Y174494D01*
X232218Y174407D01*
X232221Y174391D01*
X232227Y174376D01*
X232250Y174289D01*
X232295Y174211D01*
X232301Y174197D01*
X232311Y174184D01*
X232356Y174106D01*
X232420Y174042D01*
X232429Y174029D01*
X232442Y174020D01*
X232506Y173956D01*
X232584Y173911D01*
X232597Y173901D01*
X232611Y173895D01*
X232689Y173850D01*
X232776Y173827D01*
X232791Y173821D01*
X232807Y173818D01*
X232894Y173795D01*
X232984D01*
X233000Y173793D01*
X233016Y173795D01*
X233106D01*
X233193Y173818D01*
X233209Y173821D01*
X233224Y173827D01*
X233311Y173850D01*
X233389Y173895D01*
X233403Y173901D01*
X233416Y173911D01*
X233494Y173956D01*
X233558Y174020D01*
X233571Y174029D01*
X233580Y174042D01*
X233644Y174106D01*
X233689Y174184D01*
X233699Y174197D01*
X233705Y174211D01*
X233750Y174289D01*
X233773Y174376D01*
X233779Y174391D01*
X233782Y174407D01*
X233805Y174494D01*
Y174584D01*
X233807Y174600D01*
Y177971D01*
X233779Y178179D01*
X233699Y178374D01*
X233610Y178490D01*
X233594Y178517D01*
X233572Y178540D01*
X233571Y178541D01*
X233529Y178583D01*
X233521Y178594D01*
X233508Y178604D01*
X233444Y178667D01*
X233366Y178712D01*
X233353Y178722D01*
X233339Y178728D01*
X233261Y178773D01*
X233174Y178796D01*
X233159Y178803D01*
X233143Y178805D01*
X233056Y178828D01*
X232966D01*
X232950Y178830D01*
D02*
G37*
G36*
X142254Y173254D02*
X141400D01*
Y172450D01*
X142254D01*
Y173254D01*
D02*
G37*
G36*
X141000D02*
X140146D01*
Y172450D01*
X141000D01*
Y173254D01*
D02*
G37*
G36*
X145404Y173204D02*
X144600D01*
Y172400D01*
X145404D01*
Y173204D01*
D02*
G37*
G36*
X144200D02*
X143396D01*
Y172400D01*
X144200D01*
Y173204D01*
D02*
G37*
G36*
X145404Y172000D02*
X144600D01*
Y171196D01*
X145404D01*
Y172000D01*
D02*
G37*
G36*
X144200D02*
X143396D01*
Y171196D01*
X144200D01*
Y172000D01*
D02*
G37*
G36*
X247204Y172354D02*
X245400D01*
Y170700D01*
X247204D01*
Y172354D01*
D02*
G37*
G36*
X245000D02*
X243196D01*
Y170700D01*
X245000D01*
Y172354D01*
D02*
G37*
G36*
X278800Y177136D02*
X278784Y177134D01*
X278694D01*
X278607Y177111D01*
X278591Y177109D01*
X278576Y177102D01*
X278489Y177079D01*
X278411Y177034D01*
X278397Y177028D01*
X278384Y177018D01*
X278306Y176973D01*
X278242Y176909D01*
X278229Y176900D01*
X278220Y176887D01*
X278156Y176823D01*
X278111Y176745D01*
X278101Y176733D01*
X278095Y176718D01*
X278050Y176640D01*
X278027Y176553D01*
X278021Y176538D01*
X278018Y176522D01*
X277995Y176435D01*
Y176345D01*
X277993Y176329D01*
Y171300D01*
X277995Y171284D01*
Y171194D01*
X278018Y171107D01*
X278021Y171091D01*
X278027Y171076D01*
X278050Y170989D01*
X278095Y170911D01*
X278101Y170897D01*
X278111Y170884D01*
X278156Y170806D01*
X278220Y170742D01*
X278229Y170729D01*
X278242Y170720D01*
X278306Y170656D01*
X278384Y170611D01*
X278397Y170601D01*
X278411Y170595D01*
X278489Y170550D01*
X278576Y170527D01*
X278591Y170521D01*
X278607Y170518D01*
X278694Y170495D01*
X278784D01*
X278800Y170493D01*
X278816Y170495D01*
X278906D01*
X278993Y170518D01*
X279009Y170521D01*
X279024Y170527D01*
X279111Y170550D01*
X279189Y170595D01*
X279203Y170601D01*
X279216Y170611D01*
X279294Y170656D01*
X279358Y170720D01*
X279371Y170729D01*
X279380Y170742D01*
X279444Y170806D01*
X279489Y170884D01*
X279499Y170897D01*
X279505Y170911D01*
X279550Y170989D01*
X279573Y171076D01*
X279579Y171091D01*
X279582Y171107D01*
X279605Y171194D01*
Y171284D01*
X279607Y171300D01*
Y176329D01*
X279605Y176345D01*
Y176435D01*
X279582Y176522D01*
X279579Y176538D01*
X279573Y176553D01*
X279550Y176640D01*
X279505Y176718D01*
X279499Y176733D01*
X279489Y176745D01*
X279444Y176823D01*
X279380Y176887D01*
X279371Y176900D01*
X279358Y176909D01*
X279294Y176973D01*
X279216Y177018D01*
X279203Y177028D01*
X279189Y177034D01*
X279111Y177079D01*
X279024Y177102D01*
X279009Y177109D01*
X278993Y177111D01*
X278906Y177134D01*
X278816D01*
X278800Y177136D01*
D02*
G37*
G36*
X277654Y169754D02*
X276800D01*
Y168950D01*
X277654D01*
Y169754D01*
D02*
G37*
G36*
X275188Y172416D02*
X274890D01*
X274597Y172358D01*
X274321Y172243D01*
X274073Y172078D01*
X273861Y171866D01*
X273695Y171618D01*
X273581Y171342D01*
X273523Y171049D01*
Y170751D01*
X273581Y170458D01*
X273695Y170182D01*
X273861Y169934D01*
X274073Y169722D01*
X274321Y169557D01*
X274597Y169442D01*
X274890Y169384D01*
X275188D01*
X275419Y169430D01*
X275546Y169344D01*
Y168950D01*
X276400D01*
Y169754D01*
X276203D01*
X276154Y169871D01*
X276216Y169934D01*
X276382Y170182D01*
X276497Y170458D01*
X276555Y170751D01*
Y171049D01*
X276497Y171342D01*
X276382Y171618D01*
X276216Y171866D01*
X276005Y172078D01*
X275757Y172243D01*
X275481Y172358D01*
X275188Y172416D01*
D02*
G37*
G36*
X298500Y169911D02*
Y168850D01*
X299561D01*
X299483Y169140D01*
X299316Y169430D01*
X299080Y169666D01*
X298790Y169833D01*
X298500Y169911D01*
D02*
G37*
G36*
X298100Y169911D02*
X297810Y169833D01*
X297520Y169666D01*
X297284Y169430D01*
X297117Y169140D01*
X297039Y168850D01*
X298100D01*
Y169911D01*
D02*
G37*
G36*
X280554Y169654D02*
X279700D01*
Y168850D01*
X280554D01*
Y169654D01*
D02*
G37*
G36*
X279300D02*
X278446D01*
Y168850D01*
X279300D01*
Y169654D01*
D02*
G37*
G36*
X298100Y168450D02*
X297039D01*
X297117Y168160D01*
X297284Y167870D01*
X297520Y167634D01*
X297810Y167467D01*
X298100Y167389D01*
Y168450D01*
D02*
G37*
G36*
X299561D02*
X298500D01*
Y167389D01*
X298790Y167467D01*
X299080Y167634D01*
X299316Y167870D01*
X299483Y168160D01*
X299561Y168450D01*
D02*
G37*
G36*
X226600Y170961D02*
X226518Y170950D01*
X226435D01*
X226356Y170929D01*
X226274Y170918D01*
X226197Y170886D01*
X226118Y170865D01*
X226046Y170824D01*
X225970Y170792D01*
X225904Y170742D01*
X225832Y170700D01*
X225774Y170642D01*
X225708Y170592D01*
X225658Y170526D01*
X225600Y170468D01*
X225558Y170396D01*
X225508Y170330D01*
X225477Y170254D01*
X225435Y170182D01*
X225414Y170103D01*
X225382Y170026D01*
X225371Y169944D01*
X225350Y169865D01*
Y169782D01*
X225339Y169700D01*
X225350Y169618D01*
Y169535D01*
X225371Y169456D01*
X225382Y169374D01*
X225414Y169297D01*
X225435Y169218D01*
X225477Y169146D01*
X225508Y169070D01*
X225558Y169004D01*
X225600Y168932D01*
X225658Y168874D01*
X225708Y168808D01*
X227508Y167008D01*
X227770Y166808D01*
X228074Y166682D01*
X228400Y166639D01*
X232658D01*
X232782Y166557D01*
X233058Y166442D01*
X233351Y166384D01*
X233649D01*
X233942Y166442D01*
X234218Y166557D01*
X234466Y166722D01*
X234678Y166934D01*
X234843Y167182D01*
X234958Y167458D01*
X235016Y167751D01*
Y168049D01*
X234958Y168342D01*
X234843Y168618D01*
X234678Y168866D01*
X234466Y169078D01*
X234218Y169243D01*
X233942Y169358D01*
X233649Y169416D01*
X233351D01*
X233058Y169358D01*
X232782Y169243D01*
X232658Y169161D01*
X228922D01*
X227492Y170592D01*
X227426Y170642D01*
X227368Y170700D01*
X227296Y170742D01*
X227230Y170792D01*
X227154Y170824D01*
X227082Y170865D01*
X227003Y170886D01*
X226926Y170918D01*
X226844Y170929D01*
X226765Y170950D01*
X226682D01*
X226600Y170961D01*
D02*
G37*
G36*
X331949Y169116D02*
X331651D01*
X331358Y169058D01*
X331082Y168943D01*
X330834Y168778D01*
X330622Y168566D01*
X330457Y168318D01*
X330342Y168042D01*
X330284Y167749D01*
Y167451D01*
X330342Y167158D01*
X330457Y166882D01*
X330622Y166634D01*
X330834Y166422D01*
X331082Y166257D01*
X331358Y166142D01*
X331651Y166084D01*
X331949D01*
X332242Y166142D01*
X332518Y166257D01*
X332766Y166422D01*
X332978Y166634D01*
X333143Y166882D01*
X333258Y167158D01*
X333316Y167451D01*
Y167749D01*
X333258Y168042D01*
X333143Y168318D01*
X332978Y168566D01*
X332766Y168778D01*
X332518Y168943D01*
X332242Y169058D01*
X331949Y169116D01*
D02*
G37*
G36*
X142254Y172050D02*
X140146D01*
Y171600D01*
X139900D01*
Y169100D01*
X140393D01*
Y168600D01*
X139550D01*
Y165800D01*
X142950D01*
Y165939D01*
X144400D01*
X144400Y165939D01*
X160700D01*
X160782Y165950D01*
X160865D01*
X160944Y165971D01*
X161026Y165982D01*
X161103Y166014D01*
X161182Y166035D01*
X161254Y166077D01*
X161330Y166108D01*
X161396Y166158D01*
X161468Y166200D01*
X161526Y166258D01*
X161592Y166308D01*
X161642Y166374D01*
X161700Y166432D01*
X161742Y166504D01*
X161792Y166570D01*
X161824Y166646D01*
X161865Y166718D01*
X161886Y166797D01*
X161918Y166874D01*
X161929Y166956D01*
X161950Y167035D01*
Y167118D01*
X161961Y167200D01*
X161950Y167282D01*
Y167365D01*
X161929Y167444D01*
X161918Y167526D01*
X161886Y167603D01*
X161865Y167682D01*
X161824Y167754D01*
X161792Y167830D01*
X161742Y167896D01*
X161700Y167968D01*
X161642Y168026D01*
X161592Y168092D01*
X161526Y168142D01*
X161468Y168200D01*
X161396Y168242D01*
X161330Y168292D01*
X161254Y168324D01*
X161182Y168365D01*
X161103Y168386D01*
X161026Y168418D01*
X160944Y168429D01*
X160865Y168450D01*
X160782D01*
X160700Y168461D01*
X144400D01*
X144400Y168461D01*
X142950D01*
Y168600D01*
X142007D01*
Y169100D01*
X142500D01*
Y171600D01*
X142254D01*
Y172050D01*
D02*
G37*
G36*
X189500Y166845D02*
Y165800D01*
X190545D01*
X190469Y166084D01*
X190303Y166370D01*
X190070Y166603D01*
X189784Y166769D01*
X189500Y166845D01*
D02*
G37*
G36*
X189100D02*
X188816Y166769D01*
X188530Y166603D01*
X188297Y166370D01*
X188131Y166084D01*
X188055Y165800D01*
X189100D01*
Y166845D01*
D02*
G37*
G36*
X190545Y165400D02*
X189500D01*
Y164355D01*
X189784Y164431D01*
X190070Y164597D01*
X190303Y164830D01*
X190469Y165116D01*
X190545Y165400D01*
D02*
G37*
G36*
X189100D02*
X188055D01*
X188131Y165116D01*
X188297Y164830D01*
X188530Y164597D01*
X188816Y164431D01*
X189100Y164355D01*
Y165400D01*
D02*
G37*
G36*
X218750Y165100D02*
X217946D01*
Y164246D01*
X218750D01*
Y165100D01*
D02*
G37*
G36*
X231706Y165105D02*
X231494D01*
X231289Y165050D01*
X231106Y164944D01*
X230956Y164794D01*
X230850Y164611D01*
X230795Y164406D01*
Y164194D01*
X230813Y164127D01*
X230716Y164000D01*
X230300D01*
Y163506D01*
X230100D01*
Y164000D01*
X227500D01*
Y161500D01*
X227746D01*
Y161050D01*
X228800D01*
X229854D01*
Y161500D01*
X230100D01*
Y161994D01*
X230300D01*
Y161500D01*
X230546D01*
Y161050D01*
X231600D01*
X232654D01*
Y161500D01*
X232900D01*
Y164000D01*
X232484D01*
X232387Y164127D01*
X232405Y164194D01*
Y164406D01*
X232350Y164611D01*
X232244Y164794D01*
X232094Y164944D01*
X231911Y165050D01*
X231706Y165105D01*
D02*
G37*
G36*
X196737Y164509D02*
Y163448D01*
X197798D01*
X197720Y163738D01*
X197553Y164028D01*
X197317Y164264D01*
X197027Y164431D01*
X196737Y164509D01*
D02*
G37*
G36*
X196337Y164509D02*
X196047Y164431D01*
X195757Y164264D01*
X195521Y164028D01*
X195354Y163738D01*
X195276Y163448D01*
X196337D01*
Y164509D01*
D02*
G37*
G36*
X192000Y164345D02*
Y163300D01*
X193045D01*
X192969Y163584D01*
X192803Y163870D01*
X192570Y164103D01*
X192284Y164269D01*
X192000Y164345D01*
D02*
G37*
G36*
X191600D02*
X191316Y164269D01*
X191030Y164103D01*
X190797Y163870D01*
X190631Y163584D01*
X190555Y163300D01*
X191600D01*
Y164345D01*
D02*
G37*
G36*
X180200Y164086D02*
Y163300D01*
X180986D01*
X180936Y163488D01*
X180803Y163716D01*
X180616Y163903D01*
X180388Y164036D01*
X180200Y164086D01*
D02*
G37*
G36*
X179800D02*
X179612Y164036D01*
X179384Y163903D01*
X179197Y163716D01*
X179064Y163488D01*
X179014Y163300D01*
X179800D01*
Y164086D01*
D02*
G37*
G36*
X218750Y163554D02*
X217946D01*
Y162700D01*
X218750D01*
Y163554D01*
D02*
G37*
G36*
X247204Y170300D02*
X243196D01*
Y168710D01*
X242300D01*
X242105Y168671D01*
X241940Y168560D01*
X241829Y168395D01*
X241790Y168200D01*
Y163104D01*
X241809Y163011D01*
X241825Y162918D01*
X241828Y162913D01*
X241829Y162909D01*
X241882Y162830D01*
X241933Y162750D01*
X241937Y162747D01*
X241940Y162743D01*
X242018Y162691D01*
X242096Y162637D01*
X242101Y162635D01*
X242105Y162633D01*
X242198Y162614D01*
X242290Y162594D01*
X248200Y162483D01*
X248202Y162483D01*
X248205Y162482D01*
X248300Y162501D01*
X248396Y162518D01*
X248398Y162519D01*
X248400Y162519D01*
X248481Y162573D01*
X248563Y162625D01*
X248564Y162627D01*
X248566Y162628D01*
X248657Y162717D01*
X248658Y162719D01*
X248660Y162721D01*
X248714Y162801D01*
X248769Y162882D01*
X248770Y162884D01*
X248771Y162886D01*
X248790Y162981D01*
X248810Y163076D01*
X248809Y163079D01*
X248810Y163081D01*
X248810Y168200D01*
X248771Y168395D01*
X248660Y168560D01*
X248495Y168671D01*
X248300Y168710D01*
X247204D01*
Y170300D01*
D02*
G37*
G36*
X180986Y162900D02*
X180200D01*
Y162114D01*
X180388Y162164D01*
X180616Y162297D01*
X180803Y162484D01*
X180936Y162712D01*
X180986Y162900D01*
D02*
G37*
G36*
X179800D02*
X179014D01*
X179064Y162712D01*
X179197Y162484D01*
X179384Y162297D01*
X179612Y162164D01*
X179800Y162114D01*
Y162900D01*
D02*
G37*
G36*
X197798Y163048D02*
X196737D01*
Y161987D01*
X197027Y162064D01*
X197317Y162231D01*
X197553Y162468D01*
X197720Y162758D01*
X197798Y163048D01*
D02*
G37*
G36*
X196337D02*
X195276D01*
X195354Y162758D01*
X195521Y162468D01*
X195757Y162231D01*
X196047Y162064D01*
X196337Y161987D01*
Y163048D01*
D02*
G37*
G36*
X193045Y162900D02*
X192000D01*
Y161855D01*
X192284Y161931D01*
X192570Y162097D01*
X192803Y162330D01*
X192969Y162616D01*
X193045Y162900D01*
D02*
G37*
G36*
X191600D02*
X190555D01*
X190631Y162616D01*
X190797Y162330D01*
X191030Y162097D01*
X191316Y161931D01*
X191600Y161855D01*
Y162900D01*
D02*
G37*
G36*
X186948Y164600D02*
X186652D01*
X186362Y164542D01*
X186089Y164429D01*
X185844Y164265D01*
X185635Y164056D01*
X185471Y163811D01*
X185358Y163538D01*
X185300Y163248D01*
Y162952D01*
X185358Y162662D01*
X185471Y162389D01*
X185635Y162144D01*
X185844Y161935D01*
X186089Y161771D01*
X186362Y161658D01*
X186652Y161600D01*
X186948D01*
X187238Y161658D01*
X187511Y161771D01*
X187756Y161935D01*
X187965Y162144D01*
X188129Y162389D01*
X188242Y162662D01*
X188300Y162952D01*
Y163248D01*
X188242Y163538D01*
X188129Y163811D01*
X187965Y164056D01*
X187756Y164265D01*
X187511Y164429D01*
X187238Y164542D01*
X186948Y164600D01*
D02*
G37*
G36*
X209048Y164500D02*
X208752D01*
X208462Y164442D01*
X208189Y164329D01*
X207944Y164165D01*
X207735Y163956D01*
X207571Y163711D01*
X207458Y163438D01*
X207400Y163148D01*
Y162852D01*
X207458Y162562D01*
X207571Y162289D01*
X207735Y162044D01*
X207944Y161835D01*
X208189Y161671D01*
X208462Y161558D01*
X208752Y161500D01*
X209048D01*
X209338Y161558D01*
X209611Y161671D01*
X209856Y161835D01*
X210065Y162044D01*
X210229Y162289D01*
X210342Y162562D01*
X210400Y162852D01*
Y163148D01*
X210342Y163438D01*
X210229Y163711D01*
X210065Y163956D01*
X209856Y164165D01*
X209611Y164329D01*
X209338Y164442D01*
X209048Y164500D01*
D02*
G37*
G36*
X218750Y162300D02*
X217946D01*
Y161446D01*
X218750D01*
Y162300D01*
D02*
G37*
G36*
X297454Y162054D02*
X296650D01*
Y161200D01*
X297454D01*
Y162054D01*
D02*
G37*
G36*
X177854Y161654D02*
X177050D01*
Y160800D01*
X177854D01*
Y161654D01*
D02*
G37*
G36*
X267400Y161600D02*
X266546D01*
Y160796D01*
X267400D01*
Y161600D01*
D02*
G37*
G36*
X266146D02*
X265292D01*
Y160796D01*
X266146D01*
Y161600D01*
D02*
G37*
G36*
X264600Y161600D02*
X263746D01*
Y160796D01*
X264600D01*
Y161600D01*
D02*
G37*
G36*
X263346D02*
X262492D01*
Y160796D01*
X263346D01*
Y161600D01*
D02*
G37*
G36*
X304419Y161116D02*
X304121D01*
X303828Y161058D01*
X303552Y160943D01*
X303304Y160778D01*
X303092Y160566D01*
X303064Y160523D01*
X302936D01*
X302908Y160566D01*
X302696Y160778D01*
X302448Y160943D01*
X302172Y161058D01*
X301879Y161116D01*
X301581D01*
X301288Y161058D01*
X301012Y160943D01*
X300764Y160778D01*
X300552Y160566D01*
X300387Y160318D01*
X300272Y160042D01*
X300214Y159749D01*
Y159451D01*
X300272Y159158D01*
X300387Y158882D01*
X300552Y158634D01*
X300764Y158422D01*
X301012Y158257D01*
X301288Y158142D01*
X301581Y158084D01*
X301879D01*
X302172Y158142D01*
X302448Y158257D01*
X302696Y158422D01*
X302908Y158634D01*
X302936Y158677D01*
X303064D01*
X303092Y158634D01*
X303304Y158422D01*
X303552Y158257D01*
X303828Y158142D01*
X304121Y158084D01*
X304419D01*
X304712Y158142D01*
X304988Y158257D01*
X305236Y158422D01*
X305448Y158634D01*
X305613Y158882D01*
X305728Y159158D01*
X305786Y159451D01*
Y159749D01*
X305728Y160042D01*
X305613Y160318D01*
X305448Y160566D01*
X305236Y160778D01*
X304988Y160943D01*
X304712Y161058D01*
X304419Y161116D01*
D02*
G37*
G36*
X297454Y160800D02*
X296650D01*
Y159946D01*
X297454D01*
Y160800D01*
D02*
G37*
G36*
X232654Y160650D02*
X231800D01*
Y159846D01*
X232654D01*
Y160650D01*
D02*
G37*
G36*
X231400D02*
X230546D01*
Y159846D01*
X231400D01*
Y160650D01*
D02*
G37*
G36*
X229854Y160650D02*
X229000D01*
Y159846D01*
X229854D01*
Y160650D01*
D02*
G37*
G36*
X228600D02*
X227746D01*
Y159846D01*
X228600D01*
Y160650D01*
D02*
G37*
G36*
X285354Y160450D02*
X284500D01*
Y159646D01*
X285354D01*
Y160450D01*
D02*
G37*
G36*
X284100D02*
X283246D01*
Y159646D01*
X284100D01*
Y160450D01*
D02*
G37*
G36*
X177854Y160400D02*
X177050D01*
Y159546D01*
X177854D01*
Y160400D01*
D02*
G37*
G36*
X143150Y178400D02*
X139750D01*
Y175600D01*
X143150D01*
Y175739D01*
X159328D01*
X172859Y162208D01*
X173120Y162008D01*
X173424Y161882D01*
X173700Y161846D01*
Y159300D01*
X176200D01*
Y159546D01*
X176650D01*
Y160600D01*
Y161654D01*
X176200D01*
Y161850D01*
X176250D01*
Y163018D01*
X176261Y163100D01*
X176250Y163182D01*
Y164350D01*
X175082D01*
X175000Y164361D01*
X174272D01*
X160742Y177892D01*
X160480Y178092D01*
X160176Y178218D01*
X159850Y178261D01*
X143150D01*
Y178400D01*
D02*
G37*
G36*
X211548Y162000D02*
X211252D01*
X210962Y161942D01*
X210689Y161829D01*
X210444Y161665D01*
X210235Y161456D01*
X210071Y161211D01*
X209958Y160938D01*
X209900Y160648D01*
Y160352D01*
X209958Y160062D01*
X210071Y159789D01*
X210235Y159544D01*
X210444Y159335D01*
X210689Y159171D01*
X210962Y159058D01*
X211252Y159000D01*
X211548D01*
X211838Y159058D01*
X212111Y159171D01*
X212356Y159335D01*
X212565Y159544D01*
X212729Y159789D01*
X212842Y160062D01*
X212900Y160352D01*
Y160648D01*
X212842Y160938D01*
X212729Y161211D01*
X212565Y161456D01*
X212356Y161665D01*
X212111Y161829D01*
X211838Y161942D01*
X211548Y162000D01*
D02*
G37*
G36*
X206548D02*
X206252D01*
X205962Y161942D01*
X205689Y161829D01*
X205444Y161665D01*
X205235Y161456D01*
X205071Y161211D01*
X204958Y160938D01*
X204900Y160648D01*
Y160352D01*
X204958Y160062D01*
X205071Y159789D01*
X205235Y159544D01*
X205444Y159335D01*
X205689Y159171D01*
X205962Y159058D01*
X206252Y159000D01*
X206548D01*
X206838Y159058D01*
X207111Y159171D01*
X207356Y159335D01*
X207565Y159544D01*
X207729Y159789D01*
X207842Y160062D01*
X207900Y160352D01*
Y160648D01*
X207842Y160938D01*
X207729Y161211D01*
X207565Y161456D01*
X207356Y161665D01*
X207111Y161829D01*
X206838Y161942D01*
X206548Y162000D01*
D02*
G37*
G36*
X282500Y159008D02*
Y158300D01*
X283208D01*
X283166Y158459D01*
X283043Y158670D01*
X282870Y158843D01*
X282659Y158966D01*
X282500Y159008D01*
D02*
G37*
G36*
X297454Y159154D02*
X296650D01*
Y158300D01*
X297454D01*
Y159154D01*
D02*
G37*
G36*
X315640Y159194D02*
Y157900D01*
X316934D01*
X316886Y158139D01*
X316773Y158412D01*
X316608Y158659D01*
X316399Y158868D01*
X316152Y159033D01*
X315879Y159146D01*
X315640Y159194D01*
D02*
G37*
G36*
X315240D02*
X315001Y159146D01*
X314728Y159033D01*
X314481Y158868D01*
X314272Y158659D01*
X314107Y158412D01*
X313994Y158139D01*
X313946Y157900D01*
X315240D01*
Y159194D01*
D02*
G37*
G36*
X283208Y157900D02*
X282500D01*
Y157192D01*
X282659Y157234D01*
X282870Y157357D01*
X283043Y157530D01*
X283166Y157741D01*
X283208Y157900D01*
D02*
G37*
G36*
X297454Y157900D02*
X296650D01*
Y157046D01*
X297454D01*
Y157900D01*
D02*
G37*
G36*
X316934Y157500D02*
X315640D01*
Y156206D01*
X315879Y156254D01*
X316152Y156367D01*
X316399Y156532D01*
X316608Y156741D01*
X316773Y156988D01*
X316886Y157261D01*
X316934Y157500D01*
D02*
G37*
G36*
X315240D02*
X313946D01*
X313994Y157261D01*
X314107Y156988D01*
X314272Y156741D01*
X314481Y156532D01*
X314728Y156367D01*
X315001Y156254D01*
X315240Y156206D01*
Y157500D01*
D02*
G37*
G36*
X330453Y155753D02*
X327547D01*
Y155433D01*
X327430Y155384D01*
X327352Y155462D01*
X327021Y155654D01*
X326651Y155753D01*
X326269D01*
X325899Y155654D01*
X325568Y155462D01*
X325298Y155192D01*
X325254Y155115D01*
X325126D01*
X325082Y155192D01*
X324812Y155462D01*
X324481Y155654D01*
X324111Y155753D01*
X323729D01*
X323359Y155654D01*
X323028Y155462D01*
X322758Y155192D01*
X322566Y154861D01*
X322467Y154491D01*
Y154109D01*
X322566Y153739D01*
X322758Y153408D01*
X323028Y153138D01*
X323359Y152946D01*
X323729Y152848D01*
X324111D01*
X324481Y152946D01*
X324812Y153138D01*
X325082Y153408D01*
X325126Y153485D01*
X325254D01*
X325298Y153408D01*
X325568Y153138D01*
X325899Y152946D01*
X326269Y152848D01*
X326651D01*
X327021Y152946D01*
X327352Y153138D01*
X327430Y153216D01*
X327547Y153167D01*
Y152848D01*
X330453D01*
Y155753D01*
D02*
G37*
G36*
X116499Y156291D02*
Y155350D01*
X117440D01*
X117374Y155595D01*
X117222Y155859D01*
X117008Y156073D01*
X116744Y156225D01*
X116499Y156291D01*
D02*
G37*
G36*
X116099D02*
X115854Y156225D01*
X115590Y156073D01*
X115376Y155859D01*
X115224Y155595D01*
X115158Y155350D01*
X116099D01*
Y156291D01*
D02*
G37*
G36*
X221955Y158175D02*
X221645D01*
X221346Y158095D01*
X221079Y157940D01*
X220860Y157721D01*
X220705Y157454D01*
X220625Y157155D01*
Y156845D01*
X220705Y156546D01*
X220860Y156279D01*
X221079Y156060D01*
X221093Y156052D01*
X221060Y155929D01*
X220871D01*
Y155200D01*
X221800D01*
X222729D01*
Y155929D01*
X222540D01*
X222507Y156052D01*
X222521Y156060D01*
X222740Y156279D01*
X222895Y156546D01*
X222975Y156845D01*
Y157155D01*
X222895Y157454D01*
X222740Y157721D01*
X222521Y157940D01*
X222254Y158095D01*
X221955Y158175D01*
D02*
G37*
G36*
X109200Y155908D02*
Y155200D01*
X109908D01*
X109866Y155359D01*
X109743Y155570D01*
X109570Y155743D01*
X109359Y155866D01*
X109200Y155908D01*
D02*
G37*
G36*
X108800Y155908D02*
X108641Y155866D01*
X108430Y155743D01*
X108257Y155570D01*
X108134Y155359D01*
X108092Y155200D01*
X108800D01*
Y155908D01*
D02*
G37*
G36*
X222729Y154800D02*
X222000D01*
Y154071D01*
X222729D01*
Y154800D01*
D02*
G37*
G36*
X221600D02*
X220871D01*
Y154071D01*
X221600D01*
Y154800D01*
D02*
G37*
G36*
X117440Y154950D02*
X116499D01*
Y154009D01*
X116744Y154075D01*
X117008Y154227D01*
X117222Y154441D01*
X117374Y154705D01*
X117440Y154950D01*
D02*
G37*
G36*
X116099D02*
X115158D01*
X115224Y154705D01*
X115376Y154441D01*
X115590Y154227D01*
X115854Y154075D01*
X116099Y154009D01*
Y154950D01*
D02*
G37*
G36*
X114254Y154554D02*
X113400D01*
Y153750D01*
X114254D01*
Y154554D01*
D02*
G37*
G36*
X113000D02*
X112146D01*
Y153750D01*
X113000D01*
Y154554D01*
D02*
G37*
G36*
X258150Y154554D02*
X257346D01*
Y153700D01*
X258150D01*
Y154554D01*
D02*
G37*
G36*
X289506Y159805D02*
X289294D01*
X289089Y159750D01*
X288906Y159644D01*
X288756Y159494D01*
X288650Y159311D01*
X288595Y159106D01*
Y158894D01*
X288644Y158714D01*
Y154686D01*
X288595Y154506D01*
Y154294D01*
X288650Y154089D01*
X288756Y153906D01*
X288906Y153756D01*
X289089Y153650D01*
X289294Y153595D01*
X289506D01*
X289711Y153650D01*
X289894Y153756D01*
X290044Y153906D01*
X290150Y154089D01*
X290205Y154294D01*
Y154506D01*
X290156Y154686D01*
Y158714D01*
X290205Y158894D01*
Y159106D01*
X290150Y159311D01*
X290044Y159494D01*
X289894Y159644D01*
X289711Y159750D01*
X289506Y159805D01*
D02*
G37*
G36*
X258150Y153300D02*
X257346D01*
Y152446D01*
X258150D01*
Y153300D01*
D02*
G37*
G36*
X281354Y152854D02*
X280500D01*
Y152050D01*
X281354D01*
Y152854D01*
D02*
G37*
G36*
X280100D02*
X279246D01*
Y152050D01*
X280100D01*
Y152854D01*
D02*
G37*
G36*
X284154Y152854D02*
X283300D01*
Y152050D01*
X284154D01*
Y152854D01*
D02*
G37*
G36*
X282900D02*
X282046D01*
Y152050D01*
X282900D01*
Y152854D01*
D02*
G37*
G36*
X109908Y154800D02*
X109000D01*
X108092D01*
X108134Y154641D01*
X108257Y154430D01*
X108384Y154302D01*
X108332Y154175D01*
X107825D01*
Y151825D01*
X110175D01*
Y154175D01*
X109668D01*
X109616Y154302D01*
X109743Y154430D01*
X109866Y154641D01*
X109908Y154800D01*
D02*
G37*
G36*
X140500Y159050D02*
X137700D01*
Y157676D01*
X131732Y151709D01*
X129660D01*
X129399Y151674D01*
X129156Y151573D01*
X129069Y151507D01*
X127800D01*
X127748Y151500D01*
X127200D01*
Y152450D01*
X126400D01*
X126304Y152523D01*
X126061Y152624D01*
X125800Y152659D01*
X125800Y152659D01*
X120500D01*
X120500Y152659D01*
X117699D01*
Y153050D01*
X114899D01*
Y152457D01*
X114500D01*
Y152900D01*
X114254D01*
Y153350D01*
X112146D01*
Y152900D01*
X111900D01*
Y150400D01*
X114500D01*
Y150843D01*
X114899D01*
Y150250D01*
X117699D01*
Y150641D01*
X120500D01*
X120500Y150641D01*
X125800D01*
X126061Y150676D01*
X126273Y150764D01*
X126400Y150706D01*
Y150304D01*
X126000D01*
Y149750D01*
Y149196D01*
X126954D01*
Y149900D01*
X127748D01*
X127800Y149893D01*
X129069D01*
X129156Y149827D01*
X129399Y149726D01*
X129660Y149691D01*
X132150D01*
X132411Y149726D01*
X132654Y149827D01*
X132863Y149987D01*
X139126Y156250D01*
X140500D01*
Y159050D01*
D02*
G37*
G36*
X207254Y151754D02*
X206400D01*
Y150950D01*
X207254D01*
Y151754D01*
D02*
G37*
G36*
X206000D02*
X205146D01*
Y150950D01*
X206000D01*
Y151754D01*
D02*
G37*
G36*
X210054Y151754D02*
X209200D01*
Y150950D01*
X210054D01*
Y151754D01*
D02*
G37*
G36*
X208800D02*
X207946D01*
Y150950D01*
X208800D01*
Y151754D01*
D02*
G37*
G36*
X258150Y151554D02*
X257346D01*
Y150700D01*
X258150D01*
Y151554D01*
D02*
G37*
G36*
X148449Y153616D02*
X148151D01*
X147858Y153558D01*
X147582Y153443D01*
X147334Y153278D01*
X147122Y153066D01*
X146957Y152818D01*
X146842Y152542D01*
X146784Y152249D01*
Y151951D01*
X146842Y151658D01*
X146957Y151382D01*
X147122Y151134D01*
X147334Y150922D01*
X147582Y150757D01*
X147858Y150642D01*
X148151Y150584D01*
X148449D01*
X148742Y150642D01*
X149018Y150757D01*
X149266Y150922D01*
X149478Y151134D01*
X149643Y151382D01*
X149758Y151658D01*
X149816Y151951D01*
Y152249D01*
X149758Y152542D01*
X149643Y152818D01*
X149478Y153066D01*
X149266Y153278D01*
X149018Y153443D01*
X148742Y153558D01*
X148449Y153616D01*
D02*
G37*
G36*
X329550Y151354D02*
X328746D01*
Y150500D01*
X329550D01*
Y151354D01*
D02*
G37*
G36*
X230900Y150908D02*
Y150200D01*
X231608D01*
X231566Y150359D01*
X231443Y150570D01*
X231270Y150743D01*
X231059Y150866D01*
X230900Y150908D01*
D02*
G37*
G36*
X125600Y150304D02*
X124646D01*
Y149950D01*
X125600D01*
Y150304D01*
D02*
G37*
G36*
X267049Y152916D02*
X266751D01*
X266458Y152858D01*
X266182Y152743D01*
X265934Y152578D01*
X265722Y152366D01*
X265557Y152118D01*
X265442Y151842D01*
X265384Y151549D01*
Y151251D01*
X265442Y150958D01*
X265557Y150682D01*
X265722Y150434D01*
X265934Y150222D01*
X266182Y150057D01*
X266458Y149942D01*
X266751Y149884D01*
X267049D01*
X267342Y149942D01*
X267618Y150057D01*
X267866Y150222D01*
X268078Y150434D01*
X268243Y150682D01*
X268358Y150958D01*
X268416Y151251D01*
Y151549D01*
X268358Y151842D01*
X268243Y152118D01*
X268078Y152366D01*
X267866Y152578D01*
X267618Y152743D01*
X267342Y152858D01*
X267049Y152916D01*
D02*
G37*
G36*
X258150Y150300D02*
X257346D01*
Y149446D01*
X258150D01*
Y150300D01*
D02*
G37*
G36*
X329550Y150100D02*
X328746D01*
Y149246D01*
X329550D01*
Y150100D01*
D02*
G37*
G36*
X125600Y149550D02*
X124646D01*
Y149196D01*
X125600D01*
Y149550D01*
D02*
G37*
G36*
X231608Y149800D02*
X230900D01*
Y149092D01*
X231059Y149134D01*
X231270Y149257D01*
X231443Y149430D01*
X231566Y149641D01*
X231608Y149800D01*
D02*
G37*
G36*
X326581Y151995D02*
X326227D01*
X325880Y151926D01*
X325554Y151791D01*
X325259Y151595D01*
X325009Y151344D01*
X324813Y151050D01*
X324678Y150724D01*
X324609Y150377D01*
Y150023D01*
X324678Y149676D01*
X324813Y149350D01*
X325009Y149055D01*
X325259Y148805D01*
X325554Y148609D01*
X325880Y148474D01*
X326227Y148405D01*
X326581D01*
X326928Y148474D01*
X327254Y148609D01*
X327548Y148805D01*
X327799Y149055D01*
X327995Y149350D01*
X328130Y149676D01*
X328199Y150023D01*
Y150377D01*
X328130Y150724D01*
X327995Y151050D01*
X327799Y151344D01*
X327548Y151595D01*
X327254Y151791D01*
X326928Y151926D01*
X326581Y151995D01*
D02*
G37*
G36*
X329550Y148654D02*
X328746D01*
Y147800D01*
X329550D01*
Y148654D01*
D02*
G37*
G36*
Y147400D02*
X328746D01*
Y146546D01*
X329550D01*
Y147400D01*
D02*
G37*
G36*
X144350Y146186D02*
Y145400D01*
X145136D01*
X145086Y145588D01*
X144953Y145816D01*
X144766Y146003D01*
X144538Y146136D01*
X144350Y146186D01*
D02*
G37*
G36*
X143950D02*
X143762Y146136D01*
X143534Y146003D01*
X143347Y145816D01*
X143214Y145588D01*
X143164Y145400D01*
X143950D01*
Y146186D01*
D02*
G37*
G36*
X129154Y146204D02*
X128350D01*
Y145400D01*
X129154D01*
Y146204D01*
D02*
G37*
G36*
X127950D02*
X127146D01*
Y145400D01*
X127950D01*
Y146204D01*
D02*
G37*
G36*
X139054Y146204D02*
X138250D01*
Y145400D01*
X139054D01*
Y146204D01*
D02*
G37*
G36*
X137850D02*
X137046D01*
Y145400D01*
X137850D01*
Y146204D01*
D02*
G37*
G36*
X259410Y145916D02*
X259112D01*
X258819Y145858D01*
X258543Y145743D01*
X258294Y145578D01*
X258083Y145366D01*
X258054Y145323D01*
X257927D01*
X257898Y145366D01*
X257687Y145578D01*
X257439Y145743D01*
X257163Y145858D01*
X256870Y145916D01*
X256572D01*
X256279Y145858D01*
X256003Y145743D01*
X255754Y145578D01*
X255543Y145366D01*
X255377Y145118D01*
X255263Y144842D01*
X255205Y144549D01*
Y144251D01*
X255263Y143958D01*
X255377Y143682D01*
X255543Y143434D01*
X255712Y143265D01*
Y139677D01*
X255700Y139632D01*
Y139566D01*
X255691Y139500D01*
X255700Y139434D01*
Y139368D01*
X255717Y139304D01*
X255726Y139239D01*
X255751Y139178D01*
X255768Y139114D01*
X255801Y139057D01*
X255827Y138996D01*
X255867Y138943D01*
X255900Y138886D01*
X255947Y138839D01*
X255987Y138787D01*
X256039Y138747D01*
X256086Y138700D01*
X256143Y138667D01*
X256196Y138626D01*
X256257Y138601D01*
X256314Y138568D01*
X256378Y138551D01*
X256439Y138526D01*
X256504Y138517D01*
X256568Y138500D01*
X256634D01*
X256700Y138491D01*
X256766Y138500D01*
X256832D01*
X256896Y138517D01*
X256961Y138526D01*
X257022Y138551D01*
X257086Y138568D01*
X257143Y138601D01*
X257204Y138626D01*
X257257Y138667D01*
X257314Y138700D01*
X257361Y138747D01*
X257413Y138787D01*
X257434Y138808D01*
X257474Y138860D01*
X257500Y138886D01*
X257518Y138918D01*
X257594Y139017D01*
X257695Y139260D01*
X257730Y139521D01*
Y143265D01*
X257898Y143434D01*
X257927Y143477D01*
X258054D01*
X258083Y143434D01*
X258294Y143222D01*
X258543Y143057D01*
X258819Y142942D01*
X259112Y142884D01*
X259410D01*
X259703Y142942D01*
X259979Y143057D01*
X260227Y143222D01*
X260438Y143434D01*
X260604Y143682D01*
X260719Y143958D01*
X260777Y144251D01*
Y144549D01*
X260719Y144842D01*
X260604Y145118D01*
X260438Y145366D01*
X260227Y145578D01*
X259979Y145743D01*
X259703Y145858D01*
X259410Y145916D01*
D02*
G37*
G36*
X282929Y145300D02*
X282200D01*
Y144571D01*
X282929D01*
Y145300D01*
D02*
G37*
G36*
X281800D02*
X281071D01*
Y144571D01*
X281800D01*
Y145300D01*
D02*
G37*
G36*
X228905Y145150D02*
X228575D01*
X228258Y145065D01*
X227972Y144900D01*
X227740Y144668D01*
X227575Y144382D01*
X227536Y144235D01*
X227404D01*
X227365Y144382D01*
X227200Y144668D01*
X226968Y144900D01*
X226682Y145065D01*
X226365Y145150D01*
X226035D01*
X225718Y145065D01*
X225432Y144900D01*
X225200Y144668D01*
X225035Y144382D01*
X224910Y144406D01*
Y145150D01*
X222410D01*
Y144036D01*
X221787Y143413D01*
X221782Y143407D01*
X211297D01*
X211281Y143405D01*
X211191D01*
X211104Y143382D01*
X211088Y143379D01*
X211073Y143373D01*
X210986Y143350D01*
X210908Y143305D01*
X210894Y143299D01*
X210881Y143289D01*
X210803Y143244D01*
X210739Y143180D01*
X210726Y143171D01*
X210717Y143158D01*
X210653Y143094D01*
X210608Y143016D01*
X210598Y143003D01*
X210592Y142989D01*
X210547Y142911D01*
X210524Y142824D01*
X210518Y142809D01*
X210515Y142793D01*
X210492Y142706D01*
Y142616D01*
X210490Y142600D01*
X210492Y142584D01*
Y142494D01*
X210515Y142407D01*
X210518Y142391D01*
X210524Y142376D01*
X210547Y142289D01*
X210592Y142211D01*
X210598Y142197D01*
X210608Y142184D01*
X210653Y142106D01*
X210717Y142042D01*
X210726Y142029D01*
X210739Y142020D01*
X210803Y141956D01*
X210881Y141911D01*
X210894Y141901D01*
X210908Y141895D01*
X210986Y141850D01*
X211073Y141827D01*
X211088Y141821D01*
X211104Y141818D01*
X211191Y141795D01*
X211281D01*
X211297Y141793D01*
X222076D01*
X222239Y141726D01*
X222500Y141691D01*
X222761Y141726D01*
X223004Y141827D01*
X223213Y141987D01*
X223876Y142650D01*
X224910D01*
Y143394D01*
X225035Y143418D01*
X225200Y143132D01*
X225432Y142900D01*
X225718Y142735D01*
X226035Y142650D01*
X226365D01*
X226682Y142735D01*
X226968Y142900D01*
X227200Y143132D01*
X227365Y143418D01*
X227404Y143565D01*
X227536D01*
X227575Y143418D01*
X227740Y143132D01*
X227972Y142900D01*
X228258Y142735D01*
X228575Y142650D01*
X228905D01*
X229222Y142735D01*
X229493Y142891D01*
X230282D01*
X230591Y142582D01*
Y136900D01*
X230626Y136639D01*
X230727Y136396D01*
X230887Y136187D01*
X232000Y135074D01*
Y134852D01*
X232058Y134562D01*
X232171Y134289D01*
X232335Y134044D01*
X232544Y133835D01*
X232789Y133671D01*
X233062Y133558D01*
X233352Y133500D01*
X233648D01*
X233938Y133558D01*
X234211Y133671D01*
X234456Y133835D01*
X234665Y134044D01*
X234829Y134289D01*
X234942Y134562D01*
X235000Y134852D01*
Y135148D01*
X234942Y135438D01*
X234829Y135711D01*
X234665Y135956D01*
X234456Y136165D01*
X234211Y136329D01*
X233938Y136442D01*
X233648Y136500D01*
X233426D01*
X232609Y137318D01*
Y143000D01*
X232574Y143261D01*
X232473Y143504D01*
X232313Y143713D01*
X231413Y144613D01*
X231204Y144773D01*
X230961Y144874D01*
X230700Y144909D01*
X229493D01*
X229222Y145065D01*
X228905Y145150D01*
D02*
G37*
G36*
X145136Y145000D02*
X144350D01*
Y144214D01*
X144538Y144264D01*
X144766Y144397D01*
X144953Y144584D01*
X145086Y144812D01*
X145136Y145000D01*
D02*
G37*
G36*
X143950D02*
X143164D01*
X143214Y144812D01*
X143347Y144584D01*
X143534Y144397D01*
X143762Y144264D01*
X143950Y144214D01*
Y145000D01*
D02*
G37*
G36*
X129154Y145000D02*
X128350D01*
Y144196D01*
X129154D01*
Y145000D01*
D02*
G37*
G36*
X127950D02*
X127146D01*
Y144196D01*
X127950D01*
Y145000D01*
D02*
G37*
G36*
X139054Y145000D02*
X138250D01*
Y144196D01*
X139054D01*
Y145000D01*
D02*
G37*
G36*
X137850D02*
X137046D01*
Y144196D01*
X137850D01*
Y145000D01*
D02*
G37*
G36*
X266504Y144850D02*
X265650D01*
Y144046D01*
X266504D01*
Y144850D01*
D02*
G37*
G36*
X265250D02*
X264396D01*
Y144046D01*
X265250D01*
Y144850D01*
D02*
G37*
G36*
X269304Y144850D02*
X268450D01*
Y144046D01*
X269304D01*
Y144850D01*
D02*
G37*
G36*
X268050D02*
X267196D01*
Y144046D01*
X268050D01*
Y144850D01*
D02*
G37*
G36*
X135715Y146450D02*
X135385D01*
X135068Y146365D01*
X134782Y146200D01*
X134550Y145968D01*
X134385Y145682D01*
X134300Y145365D01*
Y145035D01*
X134385Y144718D01*
X134550Y144432D01*
X134782Y144200D01*
X135068Y144035D01*
X135385Y143950D01*
X135715D01*
X136032Y144035D01*
X136318Y144200D01*
X136550Y144432D01*
X136715Y144718D01*
X136800Y145035D01*
Y145365D01*
X136715Y145682D01*
X136550Y145968D01*
X136318Y146200D01*
X136032Y146365D01*
X135715Y146450D01*
D02*
G37*
G36*
X147900Y146450D02*
X145400D01*
Y143950D01*
X147900D01*
Y146450D01*
D02*
G37*
G36*
X130815D02*
X130485D01*
X130168Y146365D01*
X129882Y146200D01*
X129650Y145968D01*
X129485Y145682D01*
X129400Y145365D01*
Y145035D01*
X129485Y144718D01*
X129650Y144432D01*
X129882Y144200D01*
X130168Y144035D01*
X130485Y143950D01*
X130815D01*
X131132Y144035D01*
X131418Y144200D01*
X131650Y144432D01*
X131815Y144718D01*
X131900Y145035D01*
Y145365D01*
X131815Y145682D01*
X131650Y145968D01*
X131418Y146200D01*
X131132Y146365D01*
X130815Y146450D01*
D02*
G37*
G36*
X333762Y152507D02*
X331319D01*
X331254Y152494D01*
X331187Y152490D01*
X331157Y152475D01*
X331124Y152469D01*
X331068Y152431D01*
X331009Y152402D01*
X330986Y152377D01*
X330959Y152358D01*
X330921Y152303D01*
X330878Y152252D01*
X330803Y152123D01*
X330799Y152113D01*
X330751Y152041D01*
X330712Y151846D01*
Y151600D01*
X330400D01*
Y151354D01*
X329950D01*
Y150300D01*
Y149246D01*
X330400D01*
Y149000D01*
X330400D01*
X330400Y148900D01*
X330400D01*
Y148654D01*
X329950D01*
Y147600D01*
Y146546D01*
X330400D01*
Y146300D01*
X330712D01*
Y146000D01*
X330621Y145909D01*
X313400D01*
X313334Y145900D01*
X313268D01*
X313204Y145883D01*
X313139Y145874D01*
X313078Y145849D01*
X313014Y145832D01*
X312957Y145799D01*
X312896Y145773D01*
X312843Y145733D01*
X312786Y145700D01*
X312739Y145653D01*
X312687Y145613D01*
X312647Y145561D01*
X312600Y145514D01*
X312567Y145457D01*
X312526Y145404D01*
X312501Y145343D01*
X312468Y145286D01*
X312451Y145222D01*
X312426Y145161D01*
X312417Y145096D01*
X312400Y145032D01*
Y144966D01*
X312391Y144900D01*
X312400Y144834D01*
Y144768D01*
X312417Y144704D01*
X312426Y144639D01*
X312451Y144578D01*
X312468Y144514D01*
X312501Y144457D01*
X312526Y144396D01*
X312567Y144343D01*
X312600Y144286D01*
X312647Y144239D01*
X312687Y144187D01*
X312739Y144147D01*
X312786Y144100D01*
X312843Y144067D01*
X312896Y144027D01*
X312957Y144001D01*
X313014Y143968D01*
X313078Y143951D01*
X313139Y143926D01*
X313204Y143917D01*
X313268Y143900D01*
X313334D01*
X313400Y143891D01*
X331039D01*
X331300Y143926D01*
X331543Y144027D01*
X331752Y144187D01*
X332153Y144588D01*
X333762D01*
X333957Y144627D01*
X334123Y144737D01*
X334233Y144902D01*
X334272Y145098D01*
Y145819D01*
X334274Y145825D01*
X334309Y146086D01*
Y149000D01*
X334274Y149261D01*
X334272Y149266D01*
Y151998D01*
X334233Y152193D01*
X334123Y152358D01*
X333957Y152469D01*
X333762Y152507D01*
D02*
G37*
G36*
X120900Y143836D02*
Y143050D01*
X121686D01*
X121636Y143238D01*
X121503Y143466D01*
X121316Y143653D01*
X121088Y143786D01*
X120900Y143836D01*
D02*
G37*
G36*
X120500Y143836D02*
X120312Y143786D01*
X120084Y143653D01*
X119897Y143466D01*
X119764Y143238D01*
X119714Y143050D01*
X120500D01*
Y143836D01*
D02*
G37*
G36*
X296249Y146016D02*
X295951D01*
X295658Y145958D01*
X295382Y145843D01*
X295134Y145678D01*
X294922Y145466D01*
X294757Y145218D01*
X294642Y144942D01*
X294584Y144649D01*
Y144351D01*
X294642Y144058D01*
X294757Y143782D01*
X294922Y143534D01*
X295134Y143322D01*
X295382Y143157D01*
X295658Y143042D01*
X295951Y142984D01*
X296249D01*
X296542Y143042D01*
X296818Y143157D01*
X297066Y143322D01*
X297278Y143534D01*
X297443Y143782D01*
X297558Y144058D01*
X297616Y144351D01*
Y144649D01*
X297558Y144942D01*
X297443Y145218D01*
X297278Y145466D01*
X297066Y145678D01*
X296818Y145843D01*
X296542Y145958D01*
X296249Y146016D01*
D02*
G37*
G36*
X121686Y142650D02*
X120900D01*
Y141864D01*
X121088Y141914D01*
X121316Y142047D01*
X121503Y142234D01*
X121636Y142462D01*
X121686Y142650D01*
D02*
G37*
G36*
X120500D02*
X119714D01*
X119764Y142462D01*
X119897Y142234D01*
X120084Y142047D01*
X120312Y141914D01*
X120500Y141864D01*
Y142650D01*
D02*
G37*
G36*
X238150Y143000D02*
Y141800D01*
X239350D01*
X239258Y142142D01*
X239073Y142462D01*
X238812Y142723D01*
X238492Y142908D01*
X238150Y143000D01*
D02*
G37*
G36*
X237750D02*
X237408Y142908D01*
X237088Y142723D01*
X236827Y142462D01*
X236642Y142142D01*
X236550Y141800D01*
X237750D01*
Y143000D01*
D02*
G37*
G36*
X239350Y141400D02*
X238150D01*
Y140200D01*
X238492Y140292D01*
X238812Y140477D01*
X239073Y140738D01*
X239258Y141058D01*
X239350Y141400D01*
D02*
G37*
G36*
X237750D02*
X236550D01*
X236642Y141058D01*
X236827Y140738D01*
X237088Y140477D01*
X237408Y140292D01*
X237750Y140200D01*
Y141400D01*
D02*
G37*
G36*
X234613Y143250D02*
X234287D01*
X233969Y143187D01*
X233668Y143062D01*
X233398Y142882D01*
X233168Y142652D01*
X232988Y142382D01*
X232863Y142081D01*
X232800Y141763D01*
Y141437D01*
X232863Y141119D01*
X232988Y140818D01*
X233168Y140548D01*
X233398Y140318D01*
X233668Y140138D01*
X233969Y140013D01*
X234287Y139950D01*
X234613D01*
X234931Y140013D01*
X235232Y140138D01*
X235502Y140318D01*
X235732Y140548D01*
X235912Y140818D01*
X236037Y141119D01*
X236100Y141437D01*
Y141763D01*
X236037Y142081D01*
X235912Y142382D01*
X235732Y142652D01*
X235502Y142882D01*
X235232Y143062D01*
X234931Y143187D01*
X234613Y143250D01*
D02*
G37*
G36*
X330054Y140454D02*
X329200D01*
Y139650D01*
X330054D01*
Y140454D01*
D02*
G37*
G36*
X328800D02*
X327946D01*
Y139650D01*
X328800D01*
Y140454D01*
D02*
G37*
G36*
X248150Y139800D02*
X245650D01*
Y139483D01*
X245452D01*
X245428Y139492D01*
X245200Y139523D01*
X244972Y139492D01*
X244759Y139404D01*
X244576Y139264D01*
X244436Y139081D01*
X244348Y138868D01*
X244317Y138640D01*
X244348Y138412D01*
X244436Y138199D01*
X244576Y138016D01*
X244616Y137976D01*
X244799Y137836D01*
X245012Y137748D01*
X245240Y137717D01*
X245650D01*
Y137400D01*
Y135400D01*
X246093D01*
Y133000D01*
X246121Y132791D01*
X246201Y132597D01*
X246329Y132429D01*
X246811Y131947D01*
X246826Y131839D01*
X246926Y131596D01*
X247087Y131387D01*
X247884Y130590D01*
Y130451D01*
X247942Y130158D01*
X248057Y129882D01*
X248222Y129634D01*
X248434Y129422D01*
X248682Y129257D01*
X248958Y129142D01*
X249251Y129084D01*
X249549D01*
X249842Y129142D01*
X250118Y129257D01*
X250366Y129422D01*
X250578Y129634D01*
X250743Y129882D01*
X250858Y130158D01*
X250916Y130451D01*
Y130749D01*
X250858Y131042D01*
X250743Y131318D01*
X250578Y131566D01*
X250366Y131778D01*
X250118Y131943D01*
X249842Y132058D01*
X249549Y132116D01*
X249251D01*
X249217Y132109D01*
X248513Y132813D01*
X248304Y132973D01*
X248061Y133074D01*
X247953Y133089D01*
X247707Y133334D01*
Y135400D01*
X248150D01*
Y137400D01*
Y139800D01*
D02*
G37*
G36*
X121950Y141600D02*
X119450D01*
Y139100D01*
X121950D01*
Y141600D01*
D02*
G37*
G36*
X295458Y141400D02*
X295142D01*
X294837Y141318D01*
X294563Y141160D01*
X294340Y140937D01*
X294182Y140663D01*
X294100Y140358D01*
Y140042D01*
X294182Y139737D01*
X294340Y139463D01*
X294563Y139240D01*
X294837Y139082D01*
X295142Y139000D01*
X295458D01*
X295763Y139082D01*
X296037Y139240D01*
X296260Y139463D01*
X296418Y139737D01*
X296500Y140042D01*
Y140358D01*
X296418Y140663D01*
X296260Y140937D01*
X296037Y141160D01*
X295763Y141318D01*
X295458Y141400D01*
D02*
G37*
G36*
X283158D02*
X282842D01*
X282537Y141318D01*
X282263Y141160D01*
X282040Y140937D01*
X281882Y140663D01*
X281800Y140358D01*
Y140042D01*
X281882Y139737D01*
X282040Y139463D01*
X282263Y139240D01*
X282537Y139082D01*
X282842Y139000D01*
X283158D01*
X283463Y139082D01*
X283737Y139240D01*
X283960Y139463D01*
X284118Y139737D01*
X284200Y140042D01*
Y140358D01*
X284118Y140663D01*
X283960Y140937D01*
X283737Y141160D01*
X283463Y141318D01*
X283158Y141400D01*
D02*
G37*
G36*
X269558D02*
X269242D01*
X268937Y141318D01*
X268663Y141160D01*
X268440Y140937D01*
X268282Y140663D01*
X268200Y140358D01*
Y140042D01*
X268282Y139737D01*
X268440Y139463D01*
X268663Y139240D01*
X268937Y139082D01*
X269242Y139000D01*
X269558D01*
X269863Y139082D01*
X270137Y139240D01*
X270360Y139463D01*
X270518Y139737D01*
X270600Y140042D01*
Y140358D01*
X270518Y140663D01*
X270360Y140937D01*
X270137Y141160D01*
X269863Y141318D01*
X269558Y141400D01*
D02*
G37*
G36*
X325000Y139308D02*
Y138600D01*
X325708D01*
X325666Y138759D01*
X325543Y138970D01*
X325370Y139143D01*
X325159Y139266D01*
X325000Y139308D01*
D02*
G37*
G36*
X324600D02*
X324441Y139266D01*
X324230Y139143D01*
X324057Y138970D01*
X323934Y138759D01*
X323892Y138600D01*
X324600D01*
Y139308D01*
D02*
G37*
G36*
X204948Y140800D02*
X204652D01*
X204362Y140742D01*
X204089Y140629D01*
X203844Y140465D01*
X203635Y140256D01*
X203471Y140011D01*
X203358Y139738D01*
X203300Y139448D01*
Y139152D01*
X203358Y138862D01*
X203471Y138589D01*
X203635Y138344D01*
X203844Y138135D01*
X204089Y137971D01*
X204362Y137858D01*
X204652Y137800D01*
X204948D01*
X205238Y137858D01*
X205511Y137971D01*
X205756Y138135D01*
X205965Y138344D01*
X206129Y138589D01*
X206242Y138862D01*
X206300Y139152D01*
Y139448D01*
X206242Y139738D01*
X206129Y140011D01*
X205965Y140256D01*
X205756Y140465D01*
X205511Y140629D01*
X205238Y140742D01*
X204948Y140800D01*
D02*
G37*
G36*
X199948D02*
X199652D01*
X199362Y140742D01*
X199089Y140629D01*
X198844Y140465D01*
X198635Y140256D01*
X198471Y140011D01*
X198358Y139738D01*
X198300Y139448D01*
Y139152D01*
X198358Y138862D01*
X198471Y138589D01*
X198635Y138344D01*
X198844Y138135D01*
X199089Y137971D01*
X199362Y137858D01*
X199652Y137800D01*
X199948D01*
X200238Y137858D01*
X200511Y137971D01*
X200756Y138135D01*
X200965Y138344D01*
X201129Y138589D01*
X201242Y138862D01*
X201300Y139152D01*
Y139448D01*
X201242Y139738D01*
X201129Y140011D01*
X200965Y140256D01*
X200756Y140465D01*
X200511Y140629D01*
X200238Y140742D01*
X199948Y140800D01*
D02*
G37*
G36*
X130819Y138316D02*
X130521D01*
X130228Y138258D01*
X129952Y138143D01*
X129704Y137978D01*
X129492Y137766D01*
X129464Y137723D01*
X129337D01*
X129308Y137766D01*
X129096Y137978D01*
X128848Y138143D01*
X128572Y138258D01*
X128279Y138316D01*
X127981D01*
X127688Y138258D01*
X127412Y138143D01*
X127164Y137978D01*
X126952Y137766D01*
X126787Y137518D01*
X126672Y137242D01*
X126614Y136949D01*
Y136651D01*
X126672Y136358D01*
X126787Y136082D01*
X126952Y135834D01*
X127164Y135622D01*
X127412Y135457D01*
X127688Y135342D01*
X127981Y135284D01*
X128279D01*
X128572Y135342D01*
X128848Y135457D01*
X129096Y135622D01*
X129308Y135834D01*
X129337Y135877D01*
X129464D01*
X129492Y135834D01*
X129704Y135622D01*
X129952Y135457D01*
X130228Y135342D01*
X130521Y135284D01*
X130819D01*
X131112Y135342D01*
X131388Y135457D01*
X131636Y135622D01*
X131848Y135834D01*
X132013Y136082D01*
X132128Y136358D01*
X132186Y136651D01*
Y136949D01*
X132128Y137242D01*
X132013Y137518D01*
X131848Y137766D01*
X131636Y137978D01*
X131388Y138143D01*
X131112Y138258D01*
X130819Y138316D01*
D02*
G37*
G36*
X194748Y139500D02*
X194452D01*
X194162Y139442D01*
X193889Y139329D01*
X193644Y139165D01*
X193435Y138956D01*
X193271Y138711D01*
X193158Y138438D01*
X193100Y138148D01*
Y137852D01*
X193158Y137562D01*
X193271Y137289D01*
X193435Y137044D01*
X193644Y136835D01*
X193889Y136671D01*
X194162Y136558D01*
X194452Y136500D01*
X194748D01*
X195038Y136558D01*
X195311Y136671D01*
X195556Y136835D01*
X195765Y137044D01*
X195929Y137289D01*
X196042Y137562D01*
X196100Y137852D01*
Y138148D01*
X196042Y138438D01*
X195929Y138711D01*
X195765Y138956D01*
X195556Y139165D01*
X195311Y139329D01*
X195038Y139442D01*
X194748Y139500D01*
D02*
G37*
G36*
X297958Y138900D02*
X297642D01*
X297337Y138818D01*
X297063Y138660D01*
X296840Y138437D01*
X296682Y138163D01*
X296600Y137858D01*
Y137542D01*
X296682Y137237D01*
X296840Y136963D01*
X297063Y136740D01*
X297337Y136582D01*
X297642Y136500D01*
X297958D01*
X298263Y136582D01*
X298537Y136740D01*
X298760Y136963D01*
X298918Y137237D01*
X299000Y137542D01*
Y137858D01*
X298918Y138163D01*
X298760Y138437D01*
X298537Y138660D01*
X298263Y138818D01*
X297958Y138900D01*
D02*
G37*
G36*
X292958D02*
X292642D01*
X292337Y138818D01*
X292063Y138660D01*
X291840Y138437D01*
X291682Y138163D01*
X291600Y137858D01*
Y137542D01*
X291682Y137237D01*
X291840Y136963D01*
X292063Y136740D01*
X292337Y136582D01*
X292642Y136500D01*
X292958D01*
X293263Y136582D01*
X293537Y136740D01*
X293760Y136963D01*
X293918Y137237D01*
X294000Y137542D01*
Y137858D01*
X293918Y138163D01*
X293760Y138437D01*
X293537Y138660D01*
X293263Y138818D01*
X292958Y138900D01*
D02*
G37*
G36*
X285658D02*
X285342D01*
X285037Y138818D01*
X284763Y138660D01*
X284540Y138437D01*
X284382Y138163D01*
X284300Y137858D01*
Y137542D01*
X284382Y137237D01*
X284540Y136963D01*
X284763Y136740D01*
X285037Y136582D01*
X285342Y136500D01*
X285658D01*
X285963Y136582D01*
X286237Y136740D01*
X286460Y136963D01*
X286618Y137237D01*
X286700Y137542D01*
Y137858D01*
X286618Y138163D01*
X286460Y138437D01*
X286237Y138660D01*
X285963Y138818D01*
X285658Y138900D01*
D02*
G37*
G36*
X280658D02*
X280342D01*
X280037Y138818D01*
X279763Y138660D01*
X279540Y138437D01*
X279382Y138163D01*
X279300Y137858D01*
Y137542D01*
X279382Y137237D01*
X279540Y136963D01*
X279763Y136740D01*
X280037Y136582D01*
X280342Y136500D01*
X280658D01*
X280963Y136582D01*
X281237Y136740D01*
X281460Y136963D01*
X281618Y137237D01*
X281700Y137542D01*
Y137858D01*
X281618Y138163D01*
X281460Y138437D01*
X281237Y138660D01*
X280963Y138818D01*
X280658Y138900D01*
D02*
G37*
G36*
X272058D02*
X271742D01*
X271437Y138818D01*
X271163Y138660D01*
X270940Y138437D01*
X270782Y138163D01*
X270700Y137858D01*
Y137542D01*
X270782Y137237D01*
X270940Y136963D01*
X271163Y136740D01*
X271437Y136582D01*
X271742Y136500D01*
X272058D01*
X272363Y136582D01*
X272637Y136740D01*
X272860Y136963D01*
X273018Y137237D01*
X273100Y137542D01*
Y137858D01*
X273018Y138163D01*
X272860Y138437D01*
X272637Y138660D01*
X272363Y138818D01*
X272058Y138900D01*
D02*
G37*
G36*
X267058D02*
X266742D01*
X266437Y138818D01*
X266163Y138660D01*
X265940Y138437D01*
X265782Y138163D01*
X265700Y137858D01*
Y137542D01*
X265782Y137237D01*
X265940Y136963D01*
X266163Y136740D01*
X266437Y136582D01*
X266742Y136500D01*
X267058D01*
X267363Y136582D01*
X267637Y136740D01*
X267860Y136963D01*
X268018Y137237D01*
X268100Y137542D01*
Y137858D01*
X268018Y138163D01*
X267860Y138437D01*
X267637Y138660D01*
X267363Y138818D01*
X267058Y138900D01*
D02*
G37*
G36*
X213700Y137008D02*
Y136300D01*
X214408D01*
X214366Y136459D01*
X214243Y136670D01*
X214070Y136843D01*
X213859Y136966D01*
X213700Y137008D01*
D02*
G37*
G36*
X213300D02*
X213141Y136966D01*
X212930Y136843D01*
X212757Y136670D01*
X212634Y136459D01*
X212592Y136300D01*
X213300D01*
Y137008D01*
D02*
G37*
G36*
X218654Y136454D02*
X217800D01*
Y135650D01*
X218654D01*
Y136454D01*
D02*
G37*
G36*
X217400D02*
X216546D01*
Y135650D01*
X217400D01*
Y136454D01*
D02*
G37*
G36*
X202448Y138300D02*
X202152D01*
X201862Y138242D01*
X201589Y138129D01*
X201344Y137965D01*
X201135Y137756D01*
X200971Y137511D01*
X200858Y137238D01*
X200800Y136948D01*
Y136652D01*
X200858Y136362D01*
X200971Y136089D01*
X201135Y135844D01*
X201344Y135635D01*
X201589Y135471D01*
X201862Y135358D01*
X202152Y135300D01*
X202448D01*
X202738Y135358D01*
X203011Y135471D01*
X203256Y135635D01*
X203465Y135844D01*
X203629Y136089D01*
X203742Y136362D01*
X203800Y136652D01*
Y136948D01*
X203742Y137238D01*
X203629Y137511D01*
X203465Y137756D01*
X203256Y137965D01*
X203011Y138129D01*
X202738Y138242D01*
X202448Y138300D01*
D02*
G37*
G36*
X116249Y138316D02*
X115951D01*
X115658Y138258D01*
X115382Y138143D01*
X115134Y137978D01*
X114922Y137766D01*
X114757Y137518D01*
X114642Y137242D01*
X114584Y136949D01*
Y136651D01*
X114642Y136358D01*
X114757Y136082D01*
X114922Y135834D01*
X115134Y135622D01*
X115382Y135457D01*
X115658Y135342D01*
X115951Y135284D01*
X116249D01*
X116542Y135342D01*
X116818Y135457D01*
X117066Y135622D01*
X117278Y135834D01*
X117443Y136082D01*
X117558Y136358D01*
X117616Y136651D01*
Y136949D01*
X117558Y137242D01*
X117443Y137518D01*
X117278Y137766D01*
X117066Y137978D01*
X116818Y138143D01*
X116542Y138258D01*
X116249Y138316D01*
D02*
G37*
G36*
X205550Y135954D02*
X204746D01*
Y135100D01*
X205550D01*
Y135954D01*
D02*
G37*
G36*
X197248Y137000D02*
X196952D01*
X196662Y136942D01*
X196389Y136829D01*
X196144Y136665D01*
X195935Y136456D01*
X195771Y136211D01*
X195658Y135938D01*
X195600Y135648D01*
Y135352D01*
X195658Y135062D01*
X195771Y134789D01*
X195935Y134544D01*
X196144Y134335D01*
X196389Y134171D01*
X196662Y134058D01*
X196952Y134000D01*
X197248D01*
X197538Y134058D01*
X197811Y134171D01*
X198056Y134335D01*
X198265Y134544D01*
X198429Y134789D01*
X198542Y135062D01*
X198600Y135352D01*
Y135648D01*
X198542Y135938D01*
X198429Y136211D01*
X198265Y136456D01*
X198056Y136665D01*
X197811Y136829D01*
X197538Y136942D01*
X197248Y137000D01*
D02*
G37*
G36*
X192248D02*
X191952D01*
X191662Y136942D01*
X191389Y136829D01*
X191144Y136665D01*
X190935Y136456D01*
X190771Y136211D01*
X190658Y135938D01*
X190600Y135648D01*
Y135352D01*
X190658Y135062D01*
X190771Y134789D01*
X190935Y134544D01*
X191144Y134335D01*
X191389Y134171D01*
X191662Y134058D01*
X191952Y134000D01*
X192248D01*
X192538Y134058D01*
X192811Y134171D01*
X193056Y134335D01*
X193265Y134544D01*
X193429Y134789D01*
X193542Y135062D01*
X193600Y135352D01*
Y135648D01*
X193542Y135938D01*
X193429Y136211D01*
X193265Y136456D01*
X193056Y136665D01*
X192811Y136829D01*
X192538Y136942D01*
X192248Y137000D01*
D02*
G37*
G36*
X205550Y134700D02*
X204746D01*
Y133846D01*
X205550D01*
Y134700D01*
D02*
G37*
G36*
X223554Y134654D02*
X222750D01*
Y133800D01*
X223554D01*
Y134654D01*
D02*
G37*
G36*
Y133400D02*
X222750D01*
Y132546D01*
X223554D01*
Y133400D01*
D02*
G37*
G36*
X205550Y133154D02*
X204746D01*
Y132300D01*
X205550D01*
Y133154D01*
D02*
G37*
G36*
X257600Y137586D02*
X257302D01*
X257009Y137528D01*
X256733Y137414D01*
X256484Y137248D01*
X256273Y137037D01*
X256107Y136788D01*
X255993Y136512D01*
X255935Y136219D01*
Y135921D01*
X255993Y135628D01*
X256107Y135352D01*
X256273Y135104D01*
X256484Y134893D01*
X256528Y134864D01*
Y134737D01*
X256484Y134708D01*
X256273Y134497D01*
X256107Y134248D01*
X255993Y133972D01*
X255935Y133679D01*
Y133381D01*
X255993Y133088D01*
X256107Y132812D01*
X256273Y132564D01*
X256484Y132353D01*
X256733Y132187D01*
X257009Y132072D01*
X257302Y132014D01*
X257600D01*
X257893Y132072D01*
X258169Y132187D01*
X258417Y132353D01*
X258628Y132564D01*
X258794Y132812D01*
X258909Y133088D01*
X258967Y133381D01*
Y133679D01*
X258909Y133972D01*
X258794Y134248D01*
X258628Y134497D01*
X258417Y134708D01*
X258374Y134737D01*
Y134864D01*
X258417Y134893D01*
X258628Y135104D01*
X258794Y135352D01*
X258909Y135628D01*
X258967Y135921D01*
Y136219D01*
X258909Y136512D01*
X258794Y136788D01*
X258628Y137037D01*
X258417Y137248D01*
X258169Y137414D01*
X257893Y137528D01*
X257600Y137586D01*
D02*
G37*
G36*
X170600Y132361D02*
Y131300D01*
X171661D01*
X171583Y131590D01*
X171416Y131880D01*
X171180Y132116D01*
X170890Y132283D01*
X170600Y132361D01*
D02*
G37*
G36*
X170200D02*
X169910Y132283D01*
X169620Y132116D01*
X169384Y131880D01*
X169217Y131590D01*
X169139Y131300D01*
X170200D01*
Y132361D01*
D02*
G37*
G36*
X205550Y131900D02*
X204746D01*
Y131046D01*
X205550D01*
Y131900D01*
D02*
G37*
G36*
X236148Y134000D02*
X235852D01*
X235562Y133942D01*
X235289Y133829D01*
X235044Y133665D01*
X234835Y133456D01*
X234671Y133211D01*
X234558Y132938D01*
X234500Y132648D01*
Y132352D01*
X234558Y132062D01*
X234671Y131789D01*
X234835Y131544D01*
X235044Y131335D01*
X235289Y131171D01*
X235562Y131058D01*
X235852Y131000D01*
X236148D01*
X236438Y131058D01*
X236711Y131171D01*
X236956Y131335D01*
X237165Y131544D01*
X237329Y131789D01*
X237442Y132062D01*
X237500Y132352D01*
Y132648D01*
X237442Y132938D01*
X237329Y133211D01*
X237165Y133456D01*
X236956Y133665D01*
X236711Y133829D01*
X236438Y133942D01*
X236148Y134000D01*
D02*
G37*
G36*
X289299Y133816D02*
X289001D01*
X288708Y133758D01*
X288432Y133643D01*
X288184Y133478D01*
X287972Y133266D01*
X287807Y133018D01*
X287692Y132742D01*
X287634Y132449D01*
Y132151D01*
X287692Y131858D01*
X287807Y131582D01*
X287972Y131334D01*
X288184Y131122D01*
X288432Y130957D01*
X288708Y130842D01*
X289001Y130784D01*
X289299D01*
X289592Y130842D01*
X289868Y130957D01*
X290116Y131122D01*
X290328Y131334D01*
X290493Y131582D01*
X290608Y131858D01*
X290666Y132151D01*
Y132449D01*
X290608Y132742D01*
X290493Y133018D01*
X290328Y133266D01*
X290116Y133478D01*
X289868Y133643D01*
X289592Y133758D01*
X289299Y133816D01*
D02*
G37*
G36*
X133283Y131661D02*
Y130600D01*
X134345D01*
X134267Y130890D01*
X134100Y131180D01*
X133863Y131416D01*
X133574Y131583D01*
X133283Y131661D01*
D02*
G37*
G36*
X111600D02*
Y130600D01*
X112661D01*
X112583Y130890D01*
X112416Y131180D01*
X112180Y131416D01*
X111890Y131583D01*
X111600Y131661D01*
D02*
G37*
G36*
X132883Y131661D02*
X132593Y131583D01*
X132304Y131416D01*
X132067Y131180D01*
X131900Y130890D01*
X131822Y130600D01*
X132883D01*
Y131661D01*
D02*
G37*
G36*
X111200D02*
X110910Y131583D01*
X110620Y131416D01*
X110384Y131180D01*
X110217Y130890D01*
X110139Y130600D01*
X111200D01*
Y131661D01*
D02*
G37*
G36*
X179649Y133216D02*
X179351D01*
X179058Y133158D01*
X178782Y133043D01*
X178534Y132878D01*
X178322Y132666D01*
X178157Y132418D01*
X178042Y132142D01*
X177984Y131849D01*
Y131551D01*
X178042Y131258D01*
X178157Y130982D01*
X178322Y130734D01*
X178534Y130522D01*
X178782Y130357D01*
X179058Y130242D01*
X179351Y130184D01*
X179649D01*
X179942Y130242D01*
X180218Y130357D01*
X180466Y130522D01*
X180678Y130734D01*
X180843Y130982D01*
X180958Y131258D01*
X181016Y131551D01*
Y131849D01*
X180958Y132142D01*
X180843Y132418D01*
X180678Y132666D01*
X180466Y132878D01*
X180218Y133043D01*
X179942Y133158D01*
X179649Y133216D01*
D02*
G37*
G36*
X171661Y130900D02*
X170600D01*
Y129839D01*
X170890Y129917D01*
X171180Y130084D01*
X171416Y130320D01*
X171583Y130610D01*
X171661Y130900D01*
D02*
G37*
G36*
X170200D02*
X169139D01*
X169217Y130610D01*
X169384Y130320D01*
X169620Y130084D01*
X169910Y129917D01*
X170200Y129839D01*
Y130900D01*
D02*
G37*
G36*
X244019Y130016D02*
X243721D01*
X243428Y129958D01*
X243152Y129843D01*
X242904Y129678D01*
X242692Y129466D01*
X242663Y129423D01*
X242536D01*
X242508Y129466D01*
X242296Y129678D01*
X242048Y129843D01*
X241772Y129958D01*
X241479Y130016D01*
X241181D01*
X240888Y129958D01*
X240612Y129843D01*
X240364Y129678D01*
X240152Y129466D01*
X239987Y129218D01*
X239872Y128942D01*
X239814Y128649D01*
Y128351D01*
X239872Y128058D01*
X239987Y127782D01*
X240152Y127534D01*
X240364Y127322D01*
X240612Y127157D01*
X240888Y127042D01*
X241181Y126984D01*
X241479D01*
X241772Y127042D01*
X242048Y127157D01*
X242296Y127322D01*
X242508Y127534D01*
X242536Y127577D01*
X242663D01*
X242692Y127534D01*
X242904Y127322D01*
X243152Y127157D01*
X243428Y127042D01*
X243721Y126984D01*
X244019D01*
X244312Y127042D01*
X244588Y127157D01*
X244836Y127322D01*
X245048Y127534D01*
X245213Y127782D01*
X245328Y128058D01*
X245386Y128351D01*
Y128649D01*
X245328Y128942D01*
X245213Y129218D01*
X245048Y129466D01*
X244836Y129678D01*
X244588Y129843D01*
X244312Y129958D01*
X244019Y130016D01*
D02*
G37*
G36*
X201300Y133307D02*
X201284Y133305D01*
X201194D01*
X201107Y133282D01*
X201091Y133279D01*
X201076Y133273D01*
X200989Y133250D01*
X200911Y133205D01*
X200897Y133199D01*
X200884Y133189D01*
X200806Y133144D01*
X200742Y133080D01*
X200729Y133071D01*
X200720Y133058D01*
X200656Y132994D01*
X200611Y132916D01*
X200601Y132903D01*
X200595Y132889D01*
X200550Y132811D01*
X200527Y132724D01*
X200521Y132709D01*
X200518Y132693D01*
X200495Y132606D01*
Y132516D01*
X200493Y132500D01*
X200495Y132484D01*
Y132394D01*
X200518Y132307D01*
X200521Y132291D01*
X200527Y132276D01*
X200550Y132189D01*
X200595Y132111D01*
X200601Y132097D01*
X200611Y132084D01*
X200656Y132006D01*
X200720Y131942D01*
X200729Y131929D01*
X201793Y130866D01*
Y130165D01*
X201795Y130149D01*
Y130059D01*
X201818Y129972D01*
X201821Y129956D01*
X201827Y129941D01*
X201850Y129854D01*
X201895Y129776D01*
X201901Y129762D01*
X201911Y129749D01*
X201956Y129671D01*
X202020Y129607D01*
X202029Y129594D01*
X202042Y129585D01*
X202106Y129521D01*
X202184Y129476D01*
X202197Y129466D01*
X202211Y129460D01*
X202289Y129415D01*
X202376Y129392D01*
X202391Y129386D01*
X202407Y129383D01*
X202494Y129360D01*
X202584D01*
X202600Y129358D01*
X202616Y129360D01*
X202706D01*
X202793Y129383D01*
X202809Y129386D01*
X202824Y129392D01*
X202911Y129415D01*
X202989Y129460D01*
X203003Y129466D01*
X203016Y129476D01*
X203094Y129521D01*
X203158Y129585D01*
X203171Y129594D01*
X203180Y129607D01*
X203244Y129671D01*
X203289Y129749D01*
X203299Y129762D01*
X203305Y129776D01*
X203350Y129854D01*
X203373Y129941D01*
X203379Y129956D01*
X203382Y129972D01*
X203405Y130059D01*
Y130149D01*
X203407Y130165D01*
Y131200D01*
X203379Y131409D01*
X203299Y131603D01*
X203171Y131771D01*
X201871Y133071D01*
X201858Y133080D01*
X201794Y133144D01*
X201716Y133189D01*
X201703Y133199D01*
X201689Y133205D01*
X201611Y133250D01*
X201524Y133273D01*
X201509Y133279D01*
X201493Y133282D01*
X201406Y133305D01*
X201316D01*
X201300Y133307D01*
D02*
G37*
G36*
X134345Y130200D02*
X133283D01*
Y129139D01*
X133574Y129217D01*
X133863Y129384D01*
X134100Y129620D01*
X134267Y129910D01*
X134345Y130200D01*
D02*
G37*
G36*
X112661D02*
X111600D01*
Y129139D01*
X111890Y129217D01*
X112180Y129384D01*
X112416Y129620D01*
X112583Y129910D01*
X112661Y130200D01*
D02*
G37*
G36*
X111200D02*
X110139D01*
X110217Y129910D01*
X110384Y129620D01*
X110620Y129384D01*
X110910Y129217D01*
X111200Y129139D01*
Y130200D01*
D02*
G37*
G36*
X132883D02*
X131822D01*
X131900Y129910D01*
X132067Y129620D01*
X132304Y129384D01*
X132593Y129217D01*
X132883Y129139D01*
Y130200D01*
D02*
G37*
G36*
X152449Y131716D02*
X152151D01*
X151858Y131658D01*
X151582Y131543D01*
X151334Y131378D01*
X151122Y131166D01*
X150957Y130918D01*
X150842Y130642D01*
X150784Y130349D01*
Y130051D01*
X150842Y129758D01*
X150957Y129482D01*
X151122Y129234D01*
X151334Y129022D01*
X151582Y128857D01*
X151858Y128742D01*
X152151Y128684D01*
X152449D01*
X152742Y128742D01*
X153018Y128857D01*
X153266Y129022D01*
X153478Y129234D01*
X153643Y129482D01*
X153758Y129758D01*
X153816Y130051D01*
Y130349D01*
X153758Y130642D01*
X153643Y130918D01*
X153478Y131166D01*
X153266Y131378D01*
X153018Y131543D01*
X152742Y131658D01*
X152449Y131716D01*
D02*
G37*
G36*
X233648Y131500D02*
X233352D01*
X233062Y131442D01*
X232789Y131329D01*
X232544Y131165D01*
X232335Y130956D01*
X232171Y130711D01*
X232058Y130438D01*
X232000Y130148D01*
Y129852D01*
X232058Y129562D01*
X232171Y129289D01*
X232335Y129044D01*
X232544Y128835D01*
X232789Y128671D01*
X233062Y128558D01*
X233352Y128500D01*
X233648D01*
X233938Y128558D01*
X234211Y128671D01*
X234456Y128835D01*
X234665Y129044D01*
X234829Y129289D01*
X234942Y129562D01*
X235000Y129852D01*
Y130148D01*
X234942Y130438D01*
X234829Y130711D01*
X234665Y130956D01*
X234456Y131165D01*
X234211Y131329D01*
X233938Y131442D01*
X233648Y131500D01*
D02*
G37*
G36*
X333000Y129101D02*
Y128040D01*
X334061D01*
X333983Y128330D01*
X333816Y128620D01*
X333580Y128856D01*
X333290Y129023D01*
X333000Y129101D01*
D02*
G37*
G36*
X332600Y129101D02*
X332310Y129023D01*
X332020Y128856D01*
X331784Y128620D01*
X331617Y128330D01*
X331539Y128040D01*
X332600D01*
Y129101D01*
D02*
G37*
G36*
X334061Y127640D02*
X333000D01*
Y126579D01*
X333290Y126657D01*
X333580Y126824D01*
X333816Y127060D01*
X333983Y127350D01*
X334061Y127640D01*
D02*
G37*
G36*
X332600D02*
X331539D01*
X331617Y127350D01*
X331784Y127060D01*
X332020Y126824D01*
X332310Y126657D01*
X332600Y126579D01*
Y127640D01*
D02*
G37*
G36*
X293482Y127561D02*
Y126500D01*
X294543D01*
X294466Y126790D01*
X294298Y127080D01*
X294062Y127316D01*
X293772Y127483D01*
X293482Y127561D01*
D02*
G37*
G36*
X293082Y127561D02*
X292792Y127483D01*
X292502Y127316D01*
X292266Y127080D01*
X292099Y126790D01*
X292021Y126500D01*
X293082D01*
Y127561D01*
D02*
G37*
G36*
X229700Y125929D02*
Y125200D01*
X230429D01*
Y125929D01*
X229700D01*
D02*
G37*
G36*
X294543Y126100D02*
X293482D01*
Y125039D01*
X293772Y125117D01*
X294062Y125284D01*
X294298Y125520D01*
X294466Y125810D01*
X294543Y126100D01*
D02*
G37*
G36*
X293082D02*
X292021D01*
X292099Y125810D01*
X292266Y125520D01*
X292502Y125284D01*
X292792Y125117D01*
X293082Y125039D01*
Y126100D01*
D02*
G37*
G36*
X263100Y126909D02*
X257800D01*
X257734Y126900D01*
X257668D01*
X257604Y126883D01*
X257539Y126874D01*
X257478Y126849D01*
X257414Y126832D01*
X257357Y126799D01*
X257296Y126773D01*
X257243Y126733D01*
X257186Y126700D01*
X257139Y126653D01*
X257087Y126613D01*
X257047Y126561D01*
X257000Y126514D01*
X256967Y126457D01*
X256927Y126404D01*
X256901Y126343D01*
X256868Y126286D01*
X256851Y126222D01*
X256826Y126161D01*
X256817Y126096D01*
X256800Y126032D01*
Y125966D01*
X256791Y125900D01*
X256800Y125834D01*
Y125768D01*
X256817Y125704D01*
X256826Y125639D01*
X256851Y125578D01*
X256868Y125514D01*
X256901Y125457D01*
X256927Y125396D01*
X256967Y125343D01*
X257000Y125286D01*
X257047Y125239D01*
X257087Y125187D01*
X257139Y125147D01*
X257186Y125100D01*
X257243Y125067D01*
X257296Y125026D01*
X257357Y125001D01*
X257414Y124968D01*
X257478Y124951D01*
X257539Y124926D01*
X257604Y124917D01*
X257668Y124900D01*
X257734D01*
X257800Y124891D01*
X263100D01*
X263166Y124900D01*
X263232D01*
X263296Y124917D01*
X263361Y124926D01*
X263422Y124951D01*
X263486Y124968D01*
X263543Y125001D01*
X263604Y125026D01*
X263657Y125067D01*
X263714Y125100D01*
X263761Y125147D01*
X263813Y125187D01*
X263853Y125239D01*
X263900Y125286D01*
X263933Y125343D01*
X263974Y125396D01*
X263999Y125457D01*
X264032Y125514D01*
X264049Y125578D01*
X264074Y125639D01*
X264083Y125704D01*
X264100Y125768D01*
Y125834D01*
X264109Y125900D01*
X264100Y125966D01*
Y126032D01*
X264083Y126096D01*
X264074Y126161D01*
X264049Y126222D01*
X264032Y126286D01*
X263999Y126343D01*
X263974Y126404D01*
X263933Y126457D01*
X263900Y126514D01*
X263853Y126561D01*
X263813Y126613D01*
X263761Y126653D01*
X263714Y126700D01*
X263657Y126733D01*
X263604Y126773D01*
X263543Y126799D01*
X263486Y126832D01*
X263422Y126849D01*
X263361Y126874D01*
X263296Y126883D01*
X263232Y126900D01*
X263166D01*
X263100Y126909D01*
D02*
G37*
G36*
X186100Y125861D02*
Y124800D01*
X187161D01*
X187083Y125090D01*
X186916Y125380D01*
X186680Y125616D01*
X186390Y125783D01*
X186100Y125861D01*
D02*
G37*
G36*
X185700Y125861D02*
X185410Y125783D01*
X185120Y125616D01*
X184884Y125380D01*
X184717Y125090D01*
X184639Y124800D01*
X185700D01*
Y125861D01*
D02*
G37*
G36*
X230429Y124800D02*
X229700D01*
Y124071D01*
X230429D01*
Y124800D01*
D02*
G37*
G36*
X220704Y124875D02*
X219850D01*
Y124071D01*
X220704D01*
Y124875D01*
D02*
G37*
G36*
X219450D02*
X218596D01*
Y124071D01*
X219450D01*
Y124875D01*
D02*
G37*
G36*
X223554Y124850D02*
X222700D01*
Y124046D01*
X223554D01*
Y124850D01*
D02*
G37*
G36*
X222300D02*
X221446D01*
Y124046D01*
X222300D01*
Y124850D01*
D02*
G37*
G36*
X119835Y132287D02*
X119255Y132248D01*
X118684Y132135D01*
X118133Y131948D01*
X117612Y131691D01*
X117128Y131368D01*
X116691Y130984D01*
X116307Y130547D01*
X115984Y130063D01*
X115727Y129542D01*
X115540Y128991D01*
X115427Y128420D01*
X115388Y127840D01*
X115427Y127260D01*
X115540Y126689D01*
X115727Y126138D01*
X115984Y125617D01*
X116307Y125133D01*
X116691Y124696D01*
X117128Y124312D01*
X117612Y123989D01*
X118133Y123732D01*
X118684Y123545D01*
X119255Y123432D01*
X119835Y123393D01*
X120415Y123432D01*
X120986Y123545D01*
X121537Y123732D01*
X122058Y123989D01*
X122542Y124312D01*
X122979Y124696D01*
X123363Y125133D01*
X123686Y125617D01*
X123943Y126138D01*
X124130Y126689D01*
X124243Y127260D01*
X124282Y127840D01*
X124243Y128420D01*
X124130Y128991D01*
X123943Y129542D01*
X123686Y130063D01*
X123363Y130547D01*
X122979Y130984D01*
X122542Y131368D01*
X122058Y131691D01*
X121537Y131948D01*
X120986Y132135D01*
X120415Y132248D01*
X119835Y132287D01*
D02*
G37*
G36*
X187161Y124400D02*
X186100D01*
Y123339D01*
X186390Y123417D01*
X186680Y123584D01*
X186916Y123820D01*
X187083Y124110D01*
X187161Y124400D01*
D02*
G37*
G36*
X185700D02*
X184639D01*
X184717Y124110D01*
X184884Y123820D01*
X185120Y123584D01*
X185410Y123417D01*
X185700Y123339D01*
Y124400D01*
D02*
G37*
G36*
X248900Y123261D02*
Y122200D01*
X249961D01*
X249883Y122490D01*
X249716Y122780D01*
X249480Y123016D01*
X249190Y123183D01*
X248900Y123261D01*
D02*
G37*
G36*
X248500Y123261D02*
X248210Y123183D01*
X247920Y123016D01*
X247684Y122780D01*
X247517Y122490D01*
X247439Y122200D01*
X248500D01*
Y123261D01*
D02*
G37*
%LPD*%
G36*
X248300Y163081D02*
X248209Y162992D01*
X242300Y163104D01*
Y168200D01*
X248300Y168200D01*
X248300Y163081D01*
D02*
G37*
%LPC*%
G36*
X247204Y167754D02*
X245400D01*
Y166100D01*
X247204D01*
Y167754D01*
D02*
G37*
G36*
X245000D02*
X243196D01*
Y166100D01*
X245000D01*
Y167754D01*
D02*
G37*
G36*
X247204Y165700D02*
X245400D01*
Y164046D01*
X247204D01*
Y165700D01*
D02*
G37*
G36*
X245000D02*
X243196D01*
Y164046D01*
X245000D01*
Y165700D01*
D02*
G37*
%LPD*%
G36*
X333762Y145098D02*
X331222D01*
Y146546D01*
X331450D01*
Y147600D01*
Y148654D01*
X331222D01*
Y149246D01*
X331450D01*
Y150300D01*
Y151354D01*
X331222D01*
Y151846D01*
X331244Y151868D01*
X331319Y151998D01*
X333762D01*
Y145098D01*
D02*
G37*
%LPC*%
G36*
X332654Y151354D02*
X331850D01*
Y150500D01*
X332654D01*
Y151354D01*
D02*
G37*
G36*
Y150100D02*
X331850D01*
Y149246D01*
X332654D01*
Y150100D01*
D02*
G37*
G36*
X332654Y148654D02*
X331850D01*
Y147800D01*
X332654D01*
Y148654D01*
D02*
G37*
G36*
Y147400D02*
X331850D01*
Y146546D01*
X332654D01*
Y147400D01*
D02*
G37*
G36*
X277654Y166650D02*
X276800D01*
Y165846D01*
X277654D01*
Y166650D01*
D02*
G37*
G36*
X276400D02*
X275546D01*
Y165846D01*
X276400D01*
Y166650D01*
D02*
G37*
G36*
X280554Y166550D02*
X279700D01*
Y165746D01*
X280554D01*
Y166550D01*
D02*
G37*
G36*
X279300D02*
X278446D01*
Y165746D01*
X279300D01*
Y166550D01*
D02*
G37*
G36*
X221854Y166354D02*
X221050D01*
Y165500D01*
X221854D01*
Y166354D01*
D02*
G37*
G36*
Y165100D02*
X221050D01*
Y164246D01*
X221854D01*
Y165100D01*
D02*
G37*
G36*
Y163554D02*
X221050D01*
Y162700D01*
X221854D01*
Y163554D01*
D02*
G37*
G36*
Y162300D02*
X221050D01*
Y161446D01*
X221854D01*
Y162300D01*
D02*
G37*
G36*
X267400Y158496D02*
X266546D01*
Y157692D01*
X267400D01*
Y158496D01*
D02*
G37*
G36*
X266146D02*
X265292D01*
Y157692D01*
X266146D01*
Y158496D01*
D02*
G37*
G36*
X264600Y158496D02*
X263746D01*
Y157692D01*
X264600D01*
Y158496D01*
D02*
G37*
G36*
X263346D02*
X262492D01*
Y157692D01*
X263346D01*
Y158496D01*
D02*
G37*
G36*
X261254Y154554D02*
X260450D01*
Y153700D01*
X261254D01*
Y154554D01*
D02*
G37*
G36*
Y153300D02*
X260450D01*
Y152446D01*
X261254D01*
Y153300D01*
D02*
G37*
G36*
Y151554D02*
X260450D01*
Y150700D01*
X261254D01*
Y151554D01*
D02*
G37*
G36*
Y150300D02*
X260450D01*
Y149446D01*
X261254D01*
Y150300D01*
D02*
G37*
G36*
X115254Y210904D02*
X113600D01*
Y209100D01*
X115254D01*
Y210904D01*
D02*
G37*
G36*
X113200D02*
X111546D01*
Y209100D01*
X113200D01*
Y210904D01*
D02*
G37*
G36*
X115254Y208700D02*
X113600D01*
Y206896D01*
X115254D01*
Y208700D01*
D02*
G37*
G36*
X113200D02*
X111546D01*
Y206896D01*
X113200D01*
Y208700D01*
D02*
G37*
G36*
X116754Y203204D02*
X115950D01*
Y202200D01*
X116754D01*
Y203204D01*
D02*
G37*
G36*
X115550D02*
X114746D01*
Y202200D01*
X115550D01*
Y203204D01*
D02*
G37*
G36*
X116754Y201800D02*
X115950D01*
Y200796D01*
X116754D01*
Y201800D01*
D02*
G37*
G36*
X115550D02*
X114746D01*
Y200796D01*
X115550D01*
Y201800D01*
D02*
G37*
G36*
X115900Y198899D02*
Y197350D01*
X117449D01*
X117387Y197662D01*
X117254Y197981D01*
X117062Y198268D01*
X116818Y198512D01*
X116531Y198704D01*
X116212Y198837D01*
X115900Y198899D01*
D02*
G37*
G36*
X115500Y198899D02*
X115188Y198837D01*
X114869Y198704D01*
X114582Y198512D01*
X114338Y198268D01*
X114146Y197981D01*
X114013Y197662D01*
X113951Y197350D01*
X115500D01*
Y198899D01*
D02*
G37*
G36*
Y196950D02*
X113951D01*
X114013Y196638D01*
X114146Y196319D01*
X114338Y196032D01*
X114582Y195788D01*
X114869Y195596D01*
X115188Y195463D01*
X115500Y195401D01*
Y196950D01*
D02*
G37*
G36*
X117449D02*
X115900D01*
Y195401D01*
X116212Y195463D01*
X116531Y195596D01*
X116818Y195788D01*
X117062Y196032D01*
X117254Y196319D01*
X117387Y196638D01*
X117449Y196950D01*
D02*
G37*
G36*
X106600Y193110D02*
X102300D01*
X102105Y193071D01*
X101940Y192960D01*
X101829Y192795D01*
X101790Y192600D01*
Y176300D01*
X101829Y176105D01*
X101899Y176000D01*
X101829Y175895D01*
X101790Y175700D01*
X101790Y172100D01*
X101829Y171905D01*
X101940Y171740D01*
X102105Y171629D01*
X102300Y171590D01*
X107000Y171590D01*
X107195Y171629D01*
X107360Y171740D01*
X107471Y171905D01*
X107510Y172100D01*
Y172889D01*
X107637Y172932D01*
X107808Y172708D01*
X108070Y172508D01*
X108374Y172382D01*
X108700Y172339D01*
X110700D01*
X110700Y172339D01*
X111026Y172382D01*
X111330Y172508D01*
X111592Y172708D01*
X111792Y172970D01*
X111918Y173274D01*
X111961Y173600D01*
X111918Y173926D01*
X111792Y174230D01*
X111592Y174492D01*
X111330Y174692D01*
X111026Y174818D01*
X110700Y174861D01*
X110107D01*
Y175818D01*
X110064Y176144D01*
X109938Y176448D01*
X109738Y176710D01*
X107566Y178881D01*
X107305Y179081D01*
X107103Y179165D01*
X107110Y180019D01*
X107109Y180022D01*
X107110Y180024D01*
Y181200D01*
X107400D01*
Y181446D01*
X107850D01*
Y182500D01*
Y183554D01*
X107400D01*
Y183800D01*
X107110D01*
Y185900D01*
Y188800D01*
X110450D01*
Y188939D01*
X113600D01*
X113682Y188950D01*
X113765D01*
X113844Y188971D01*
X113926Y188982D01*
X114003Y189014D01*
X114023Y189019D01*
X114150Y188939D01*
Y188700D01*
X117550D01*
Y191500D01*
X114150D01*
Y191461D01*
X114023Y191381D01*
X114003Y191386D01*
X113926Y191418D01*
X113844Y191429D01*
X113765Y191450D01*
X113682D01*
X113600Y191461D01*
X110450D01*
Y191600D01*
X107110D01*
Y192600D01*
X107071Y192795D01*
X106960Y192960D01*
X106795Y193071D01*
X106600Y193110D01*
D02*
G37*
G36*
X116200Y186686D02*
Y185900D01*
X116986D01*
X116936Y186088D01*
X116803Y186316D01*
X116616Y186503D01*
X116388Y186636D01*
X116200Y186686D01*
D02*
G37*
G36*
X115800Y186686D02*
X115612Y186636D01*
X115384Y186503D01*
X115197Y186316D01*
X115064Y186088D01*
X115014Y185900D01*
X115800D01*
Y186686D01*
D02*
G37*
G36*
X110704Y186604D02*
X109900D01*
Y185800D01*
X110704D01*
Y186604D01*
D02*
G37*
G36*
X109500D02*
X108696D01*
Y185800D01*
X109500D01*
Y186604D01*
D02*
G37*
G36*
X116986Y185500D02*
X116200D01*
Y184714D01*
X116388Y184764D01*
X116616Y184897D01*
X116803Y185084D01*
X116936Y185312D01*
X116986Y185500D01*
D02*
G37*
G36*
X115800D02*
X115014D01*
X115064Y185312D01*
X115197Y185084D01*
X115384Y184897D01*
X115612Y184764D01*
X115800Y184714D01*
Y185500D01*
D02*
G37*
G36*
X110704Y185400D02*
X109900D01*
Y184596D01*
X110704D01*
Y185400D01*
D02*
G37*
G36*
X109500D02*
X108696D01*
Y184596D01*
X109500D01*
Y185400D01*
D02*
G37*
G36*
X121650Y191500D02*
X118250D01*
Y188700D01*
X118689D01*
Y186750D01*
X118732Y186424D01*
X118858Y186120D01*
X119058Y185858D01*
X119538Y185379D01*
X119479Y185321D01*
X119351Y185153D01*
X119271Y184959D01*
X119243Y184750D01*
Y184200D01*
X118800D01*
Y183954D01*
X118350D01*
Y182900D01*
Y181846D01*
X118800D01*
Y181600D01*
X121300D01*
Y184200D01*
X120857D01*
Y184350D01*
X120973Y184443D01*
X121000Y184439D01*
X121082Y184450D01*
X122250D01*
Y185618D01*
X122261Y185700D01*
X122250Y185782D01*
Y186950D01*
X121533D01*
X121211Y187272D01*
Y188700D01*
X121650D01*
Y191500D01*
D02*
G37*
G36*
X117950Y183954D02*
X117146D01*
Y183100D01*
X117950D01*
Y183954D01*
D02*
G37*
G36*
X109054Y183554D02*
X108250D01*
Y182700D01*
X109054D01*
Y183554D01*
D02*
G37*
G36*
X117950Y182700D02*
X117146D01*
Y181846D01*
X117950D01*
Y182700D01*
D02*
G37*
G36*
X109054Y182300D02*
X108250D01*
Y181446D01*
X109054D01*
Y182300D01*
D02*
G37*
G36*
X130750Y170186D02*
Y169400D01*
X131536D01*
X131486Y169588D01*
X131353Y169816D01*
X131166Y170003D01*
X130938Y170136D01*
X130750Y170186D01*
D02*
G37*
G36*
X130350D02*
X130162Y170136D01*
X129934Y170003D01*
X129747Y169816D01*
X129614Y169588D01*
X129564Y169400D01*
X130350D01*
Y170186D01*
D02*
G37*
G36*
X131536Y169000D02*
X130750D01*
Y168214D01*
X130938Y168264D01*
X131166Y168397D01*
X131353Y168584D01*
X131486Y168812D01*
X131536Y169000D01*
D02*
G37*
G36*
X130350D02*
X129564D01*
X129614Y168812D01*
X129747Y168584D01*
X129934Y168397D01*
X130162Y168264D01*
X130350Y168214D01*
Y169000D01*
D02*
G37*
G36*
X129300Y170450D02*
X126800D01*
Y167950D01*
X129300D01*
Y170450D01*
D02*
G37*
G36*
X105904Y164254D02*
X105100D01*
Y163450D01*
X105904D01*
Y164254D01*
D02*
G37*
G36*
X104700D02*
X103896D01*
Y163450D01*
X104700D01*
Y164254D01*
D02*
G37*
G36*
X105904Y163050D02*
X105100D01*
Y162246D01*
X105904D01*
Y163050D01*
D02*
G37*
G36*
X104700D02*
X103896D01*
Y162246D01*
X104700D01*
Y163050D01*
D02*
G37*
G36*
X130749Y164716D02*
X130451D01*
X130158Y164658D01*
X129882Y164543D01*
X129634Y164378D01*
X129422Y164166D01*
X129257Y163918D01*
X129142Y163642D01*
X129084Y163349D01*
Y163051D01*
X129142Y162758D01*
X129257Y162482D01*
X129422Y162234D01*
X129634Y162022D01*
X129882Y161857D01*
X130158Y161742D01*
X130451Y161684D01*
X130749D01*
X131042Y161742D01*
X131318Y161857D01*
X131566Y162022D01*
X131778Y162234D01*
X131943Y162482D01*
X132058Y162758D01*
X132116Y163051D01*
Y163349D01*
X132058Y163642D01*
X131943Y163918D01*
X131778Y164166D01*
X131566Y164378D01*
X131318Y164543D01*
X131042Y164658D01*
X130749Y164716D01*
D02*
G37*
G36*
X104000Y158861D02*
Y157800D01*
X105061D01*
X104983Y158090D01*
X104816Y158380D01*
X104580Y158616D01*
X104290Y158783D01*
X104000Y158861D01*
D02*
G37*
G36*
X103600Y158861D02*
X103310Y158783D01*
X103020Y158616D01*
X102784Y158380D01*
X102617Y158090D01*
X102539Y157800D01*
X103600D01*
Y158861D01*
D02*
G37*
G36*
X105061Y157400D02*
X104000D01*
Y156339D01*
X104290Y156417D01*
X104580Y156584D01*
X104816Y156820D01*
X104983Y157110D01*
X105061Y157400D01*
D02*
G37*
G36*
X103600D02*
X102539D01*
X102617Y157110D01*
X102784Y156820D01*
X103020Y156584D01*
X103310Y156417D01*
X103600Y156339D01*
Y157400D01*
D02*
G37*
%LPD*%
G36*
X106600Y185900D02*
Y183554D01*
X106350D01*
Y182500D01*
Y181446D01*
X106600D01*
Y180024D01*
X106569Y176300D01*
X102300D01*
Y192600D01*
X106600D01*
Y185900D01*
D02*
G37*
G36*
X103496Y175700D02*
Y174509D01*
X104650D01*
X105804D01*
Y175700D01*
X107000D01*
X107000Y172100D01*
X102300Y172100D01*
X102300Y175700D01*
X103496D01*
D02*
G37*
%LPC*%
G36*
X106104Y191354D02*
X104850D01*
Y190400D01*
X106104D01*
Y191354D01*
D02*
G37*
G36*
X104450D02*
X103196D01*
Y190400D01*
X104450D01*
Y191354D01*
D02*
G37*
G36*
X106104Y190000D02*
X104850D01*
Y189046D01*
X106104D01*
Y190000D01*
D02*
G37*
G36*
X104450D02*
X103196D01*
Y189046D01*
X104450D01*
Y190000D01*
D02*
G37*
G36*
X104900Y186586D02*
Y185800D01*
X105686D01*
X105636Y185988D01*
X105503Y186216D01*
X105316Y186403D01*
X105088Y186536D01*
X104900Y186586D01*
D02*
G37*
G36*
X104500D02*
X104312Y186536D01*
X104084Y186403D01*
X103897Y186216D01*
X103764Y185988D01*
X103714Y185800D01*
X104500D01*
Y186586D01*
D02*
G37*
G36*
X105686Y185400D02*
X104900D01*
Y184614D01*
X105088Y184664D01*
X105316Y184797D01*
X105503Y184984D01*
X105636Y185212D01*
X105686Y185400D01*
D02*
G37*
G36*
X104500D02*
X103714D01*
X103764Y185212D01*
X103897Y184984D01*
X104084Y184797D01*
X104312Y184664D01*
X104500Y184614D01*
Y185400D01*
D02*
G37*
G36*
X105950Y183554D02*
X105146D01*
Y182700D01*
X105950D01*
Y183554D01*
D02*
G37*
G36*
Y182300D02*
X105146D01*
Y181446D01*
X105950D01*
Y182300D01*
D02*
G37*
G36*
X105804Y179863D02*
X104850D01*
Y178609D01*
X105804D01*
Y179863D01*
D02*
G37*
G36*
X104450D02*
X103496D01*
Y178609D01*
X104450D01*
Y179863D01*
D02*
G37*
G36*
X105804Y178210D02*
X104850D01*
Y176956D01*
X105804D01*
Y178210D01*
D02*
G37*
G36*
X104450D02*
X103496D01*
Y176956D01*
X104450D01*
Y178210D01*
D02*
G37*
G36*
X105804Y174109D02*
X104850D01*
Y172855D01*
X105804D01*
Y174109D01*
D02*
G37*
G36*
X104450D02*
X103496D01*
Y172855D01*
X104450D01*
Y174109D01*
D02*
G37*
G36*
X294350Y162054D02*
X293546D01*
Y161200D01*
X294350D01*
Y162054D01*
D02*
G37*
G36*
Y160800D02*
X293546D01*
Y159946D01*
X294350D01*
Y160800D01*
D02*
G37*
G36*
X294350Y159154D02*
X293546D01*
Y158300D01*
X294350D01*
Y159154D01*
D02*
G37*
G36*
Y157900D02*
X293546D01*
Y157046D01*
X294350D01*
Y157900D01*
D02*
G37*
G36*
X207254Y148650D02*
X206400D01*
Y147846D01*
X207254D01*
Y148650D01*
D02*
G37*
G36*
X206000D02*
X205146D01*
Y147846D01*
X206000D01*
Y148650D01*
D02*
G37*
G36*
X210054Y148650D02*
X209200D01*
Y147846D01*
X210054D01*
Y148650D01*
D02*
G37*
G36*
X208800D02*
X207946D01*
Y147846D01*
X208800D01*
Y148650D01*
D02*
G37*
G36*
X224254Y151979D02*
X223400D01*
Y151500D01*
X224254D01*
Y151979D01*
D02*
G37*
G36*
X223000D02*
X222146D01*
Y151500D01*
X223000D01*
Y151979D01*
D02*
G37*
G36*
X224254Y151100D02*
X223400D01*
Y150621D01*
X224254D01*
Y151100D01*
D02*
G37*
G36*
X223000D02*
X222146D01*
Y150621D01*
X223000D01*
Y151100D01*
D02*
G37*
G36*
X222754Y149664D02*
X222000D01*
Y148860D01*
X222754D01*
Y149664D01*
D02*
G37*
G36*
Y148460D02*
X222000D01*
Y147656D01*
X222754D01*
Y148460D01*
D02*
G37*
G36*
X281354Y149750D02*
X280500D01*
Y148946D01*
X281354D01*
Y149750D01*
D02*
G37*
G36*
X280100D02*
X279246D01*
Y148946D01*
X280100D01*
Y149750D01*
D02*
G37*
G36*
X284154Y149750D02*
X283300D01*
Y148946D01*
X284154D01*
Y149750D01*
D02*
G37*
G36*
X282900D02*
X282046D01*
Y148946D01*
X282900D01*
Y149750D01*
D02*
G37*
G36*
X277240Y149461D02*
Y148400D01*
X278301D01*
X278223Y148690D01*
X278056Y148980D01*
X277820Y149216D01*
X277530Y149383D01*
X277240Y149461D01*
D02*
G37*
G36*
X282200Y148408D02*
Y147700D01*
X282908D01*
X282866Y147859D01*
X282743Y148070D01*
X282570Y148243D01*
X282359Y148366D01*
X282200Y148408D01*
D02*
G37*
G36*
X281800D02*
X281641Y148366D01*
X281430Y148243D01*
X281257Y148070D01*
X281134Y147859D01*
X281092Y147700D01*
X281800D01*
Y148408D01*
D02*
G37*
G36*
X278301Y148000D02*
X277240D01*
Y146939D01*
X277530Y147017D01*
X277820Y147184D01*
X278056Y147420D01*
X278223Y147710D01*
X278301Y148000D01*
D02*
G37*
G36*
X266504Y147954D02*
X265650D01*
Y147150D01*
X266504D01*
Y147954D01*
D02*
G37*
G36*
X265250D02*
X264396D01*
Y147150D01*
X265250D01*
Y147954D01*
D02*
G37*
G36*
X269304Y147954D02*
X268450D01*
Y147150D01*
X269304D01*
Y147954D01*
D02*
G37*
G36*
X268050D02*
X267196D01*
Y147150D01*
X268050D01*
Y147954D01*
D02*
G37*
G36*
X208654Y135954D02*
X207850D01*
Y135100D01*
X208654D01*
Y135954D01*
D02*
G37*
G36*
Y134700D02*
X207850D01*
Y133846D01*
X208654D01*
Y134700D01*
D02*
G37*
G36*
X220450Y134654D02*
X219646D01*
Y133800D01*
X220450D01*
Y134654D01*
D02*
G37*
G36*
X214429Y133900D02*
X213700D01*
Y133171D01*
X214429D01*
Y133900D01*
D02*
G37*
G36*
X213300D02*
X212571D01*
Y133171D01*
X213300D01*
Y133900D01*
D02*
G37*
G36*
X220450Y133400D02*
X219646D01*
Y132546D01*
X220450D01*
Y133400D01*
D02*
G37*
G36*
X218654Y133350D02*
X217800D01*
Y132546D01*
X218654D01*
Y133350D01*
D02*
G37*
G36*
X217400D02*
X216546D01*
Y132546D01*
X217400D01*
Y133350D01*
D02*
G37*
G36*
X208654Y133154D02*
X207850D01*
Y132300D01*
X208654D01*
Y133154D01*
D02*
G37*
G36*
Y131900D02*
X207850D01*
Y131046D01*
X208654D01*
Y131900D01*
D02*
G37*
G36*
X220704Y127979D02*
X219850D01*
Y127175D01*
X220704D01*
Y127979D01*
D02*
G37*
G36*
X219450D02*
X218596D01*
Y127175D01*
X219450D01*
Y127979D01*
D02*
G37*
G36*
X223554Y127954D02*
X222700D01*
Y127150D01*
X223554D01*
Y127954D01*
D02*
G37*
G36*
X222300D02*
X221446D01*
Y127150D01*
X222300D01*
Y127954D01*
D02*
G37*
%LPD*%
D14*
X310450Y149700D02*
X310850Y149300D01*
Y148999D02*
X310900Y148949D01*
X310400Y149700D02*
X310450D01*
X310850Y148999D02*
Y149300D01*
X310900Y140900D02*
Y148949D01*
X311900Y132800D02*
Y134600D01*
X310400Y151700D02*
X310400Y151700D01*
X310400Y151700D02*
Y153200D01*
X284300Y162550D02*
Y165000D01*
X311900Y138000D02*
X316152D01*
X310360Y153243D02*
X310400Y153203D01*
Y153200D02*
Y153203D01*
X310360Y153243D02*
Y155270D01*
X210100Y153200D02*
X213200D01*
X268800Y161700D02*
X278797D01*
X233000Y174600D02*
Y177971D01*
X232950Y178021D02*
Y178023D01*
Y178021D02*
X233000Y177971D01*
X278800Y171300D02*
Y176329D01*
X315300Y179600D02*
X315400Y179500D01*
X120050Y184750D02*
X121000Y185700D01*
X120050Y182900D02*
Y184750D01*
X199700Y125100D02*
X199700Y125100D01*
X198600Y125100D02*
X199700D01*
X199700Y125100D02*
X201300D01*
X205300Y125100D02*
X205300Y125100D01*
X203300Y125100D02*
X203300Y125100D01*
X205300D01*
X224502Y150402D02*
X227502D01*
X227539Y150439D01*
X224500Y150400D02*
X224502Y150402D01*
X246900Y133000D02*
X247800Y132100D01*
X246900Y133000D02*
Y136600D01*
X284300Y165000D02*
X284300Y165000D01*
X268050Y158496D02*
X268621D01*
X269612Y159488D01*
X273298Y155950D02*
X274054Y156706D01*
Y156946D01*
X141200Y167250D02*
X141250Y167200D01*
X141200Y167250D02*
Y170350D01*
X205300Y125100D02*
X211600D01*
X201300Y132500D02*
X202600Y131200D01*
Y130165D02*
Y131200D01*
X113200Y151650D02*
X116299D01*
X116299Y151650D01*
X131050Y206850D02*
X135000D01*
X131000Y206900D02*
X131050Y206850D01*
X127800Y150700D02*
X129660D01*
X219800Y147600D02*
Y148660D01*
X219800Y148660D01*
X215700Y147000D02*
X219200D01*
X219800Y147600D01*
X219800Y148660D02*
Y151200D01*
X211297Y142600D02*
X222400D01*
X222500Y142700D01*
X213200Y153200D02*
X213900Y152500D01*
X309100Y179550D02*
X309150Y179500D01*
D15*
X231600Y162750D02*
Y164300D01*
X231600Y162750D02*
X231600Y162750D01*
X271300Y160600D02*
X272770D01*
X273170Y160200D01*
X289400Y154400D02*
Y159000D01*
X273170Y160200D02*
X273200D01*
X269300Y162800D02*
X273200D01*
X286300Y152600D02*
X289150D01*
X285325Y151625D02*
X286300Y152600D01*
X228800Y162750D02*
X231600D01*
X271100Y153100D02*
Y154900D01*
X326840Y252840D02*
G03*
X333840Y245840I7000J0D01*
G01*
X105835D02*
G03*
X112835Y252840I0J7000D01*
G01*
X100000Y245840D02*
X100000Y120000D01*
X291000Y265000D02*
X326840Y265000D01*
Y252840D02*
Y265000D01*
X112835Y252840D02*
Y264980D01*
X100000Y245840D02*
X105835D01*
X112835Y264980D02*
X211000D01*
X100000Y120000D02*
X340611D01*
X340581Y245840D02*
X340611Y120000D01*
X333840Y245840D02*
X340581D01*
X291000Y194980D02*
Y264980D01*
X211000Y194980D02*
X291000D01*
X211000D02*
Y264980D01*
D25*
X310400Y151700D02*
D03*
X310400Y149700D02*
D03*
X246900Y138600D02*
D03*
Y136600D02*
D03*
D26*
X201300Y125100D02*
D03*
X203300D02*
D03*
X221800Y148660D02*
D03*
X219800D02*
D03*
D27*
X313300Y186050D02*
D03*
X313300Y182950D02*
D03*
X317400Y186050D02*
D03*
X317400Y182950D02*
D03*
X135000Y203750D02*
D03*
X135000Y206850D02*
D03*
D28*
X118850Y202000D02*
D03*
X115750Y202000D02*
D03*
D29*
X113200Y151650D02*
D03*
Y153550D02*
D03*
X141200Y170350D02*
D03*
X141200Y172250D02*
D03*
X276600Y166850D02*
D03*
Y168750D02*
D03*
X266346Y160596D02*
D03*
X266346Y158696D02*
D03*
X263546Y160596D02*
D03*
X263546Y158696D02*
D03*
X329000Y137550D02*
D03*
Y139450D02*
D03*
X265450Y145050D02*
D03*
X265450Y146950D02*
D03*
X268250Y145050D02*
D03*
X268250Y146950D02*
D03*
X280300Y149950D02*
D03*
X280300Y151850D02*
D03*
X283100Y149950D02*
D03*
X283100Y151850D02*
D03*
X217600Y133550D02*
D03*
X217600Y135450D02*
D03*
X222500Y126950D02*
D03*
X222500Y125050D02*
D03*
X219650Y126975D02*
D03*
X219650Y125075D02*
D03*
X209000Y148850D02*
D03*
X209000Y150750D02*
D03*
X206200Y148850D02*
D03*
Y150750D02*
D03*
X279500Y168650D02*
D03*
X279500Y166750D02*
D03*
X284300Y160650D02*
D03*
X284300Y162550D02*
D03*
X231600Y160850D02*
D03*
X231600Y162750D02*
D03*
X228800Y160850D02*
D03*
X228800Y162750D02*
D03*
D30*
X317200Y221250D02*
D03*
Y225350D02*
D03*
X309175Y193282D02*
D03*
Y189182D02*
D03*
X309100Y179550D02*
D03*
Y183650D02*
D03*
X309414Y213818D02*
D03*
Y209718D02*
D03*
X104650Y174309D02*
D03*
Y178410D02*
D03*
D36*
X220650Y133600D02*
D03*
X222550Y133600D02*
D03*
X220850Y165300D02*
D03*
X218950Y165300D02*
D03*
X220850Y162500D02*
D03*
X218950D02*
D03*
X207650Y134900D02*
D03*
X205750D02*
D03*
X207650Y132100D02*
D03*
X205750D02*
D03*
X174950Y160600D02*
D03*
X176850D02*
D03*
X120050Y182900D02*
D03*
X118150D02*
D03*
X331650Y150300D02*
D03*
X329750Y150300D02*
D03*
X331650Y147600D02*
D03*
X329750Y147600D02*
D03*
X106150Y182500D02*
D03*
X108050Y182500D02*
D03*
X294550Y158100D02*
D03*
X296450D02*
D03*
X260250Y153500D02*
D03*
X258350Y153500D02*
D03*
X260250Y150500D02*
D03*
X258350Y150500D02*
D03*
X296450Y161000D02*
D03*
X294550D02*
D03*
D39*
X223200Y151300D02*
D03*
X219800D02*
D03*
D40*
X137350Y177000D02*
D03*
X141450D02*
D03*
X137150Y167200D02*
D03*
X141250D02*
D03*
X115850Y190100D02*
D03*
X119950D02*
D03*
X104650Y190200D02*
D03*
X108750D02*
D03*
D43*
X125800Y149750D02*
D03*
Y151650D02*
D03*
X127800Y150700D02*
D03*
D53*
X245200Y165900D02*
D03*
X245200Y170500D02*
D03*
X200600Y223800D02*
D03*
X323400Y261500D02*
D03*
X323400Y256900D02*
D03*
X302800Y241800D02*
D03*
X302800Y237200D02*
D03*
X139300Y211100D02*
D03*
X139300Y206500D02*
D03*
X200600Y228400D02*
D03*
D54*
X327430Y176300D02*
D03*
X327430Y181700D02*
D03*
X322300Y191700D02*
D03*
X322300Y197100D02*
D03*
X322300Y181800D02*
D03*
X322300Y187200D02*
D03*
D106*
X296400Y244750D02*
D03*
Y237250D02*
D03*
X211400Y160500D02*
D03*
X208900Y163000D02*
D03*
X206400Y160500D02*
D03*
X305294Y213868D02*
D03*
X206400Y217000D02*
D03*
Y220950D02*
D03*
Y212000D02*
D03*
X192100Y135500D02*
D03*
X194600Y138000D02*
D03*
X197100Y135500D02*
D03*
X233500Y135000D02*
D03*
X236000Y132500D02*
D03*
X233500Y130000D02*
D03*
X204800Y139300D02*
D03*
X202300Y136800D02*
D03*
X199800Y139300D02*
D03*
X294050Y260800D02*
D03*
X301550D02*
D03*
X312914Y213868D02*
D03*
X300214D02*
D03*
X295134D02*
D03*
Y206248D02*
D03*
X300214Y206248D02*
D03*
X305294Y206248D02*
D03*
X312914Y206248D02*
D03*
X306600Y255900D02*
D03*
Y260900D02*
D03*
X306800Y245900D02*
D03*
Y250900D02*
D03*
X186800Y163100D02*
D03*
X189300Y165600D02*
D03*
X191800Y163100D02*
D03*
X206400Y228450D02*
D03*
X162450Y239250D02*
D03*
X202500Y147500D02*
D03*
X168500Y200700D02*
D03*
D112*
X213900Y151240D02*
D03*
X217000Y148660D02*
D03*
D113*
X213900Y148700D02*
D03*
X217000Y151200D02*
D03*
D115*
X119835Y237840D02*
D03*
Y127840D02*
D03*
X139835Y252840D02*
D03*
X319840Y127840D02*
D03*
Y237840D02*
D03*
X299835Y252840D02*
D03*
D120*
X311942Y130800D02*
Y132758D01*
X327400Y207970D02*
X327501Y207869D01*
X333200Y145986D02*
Y146100D01*
X331039Y144900D02*
X331539Y145400D01*
X333200Y145986D02*
X333300Y146086D01*
Y149000D01*
X313400Y144900D02*
X331039D01*
X332717Y188394D02*
X338700Y182410D01*
X337200Y122600D02*
X338700Y124100D01*
Y182410D01*
X303459Y147420D02*
X304284Y146595D01*
X304305D01*
X306000Y144900D01*
X284700Y147420D02*
X303459D01*
X310360Y155270D02*
Y157700D01*
X310360Y155270D02*
X310360Y155270D01*
X215300Y121700D02*
X217200Y123600D01*
Y127514D01*
X218186Y128500D01*
X138660Y136800D02*
X153760Y121700D01*
X215300D01*
X218186Y128500D02*
X218500D01*
X256721Y139521D02*
Y144400D01*
X256700Y139500D02*
X256721Y139521D01*
X274500Y146485D02*
Y148200D01*
Y146485D02*
X274529Y146456D01*
X324639Y205430D02*
X327400D01*
X324116Y205953D02*
X324639Y205430D01*
X324020Y205953D02*
X324116D01*
X312914Y213868D02*
X316105D01*
X324020Y205953D01*
X324971Y211400D02*
Y217179D01*
X321000Y221150D02*
X324971Y217179D01*
X327383Y210487D02*
X327400Y210470D01*
X325884Y210487D02*
X327383D01*
X324971Y211400D02*
X325884Y210487D01*
X334900Y189500D02*
X336400Y188000D01*
X334900Y189500D02*
Y209800D01*
X331690Y213010D02*
X334900Y209800D01*
X332717Y188394D02*
Y208110D01*
X327400Y210470D02*
X330357D01*
X332717Y208110D01*
X327400Y213010D02*
X331690D01*
X310754Y201716D02*
X316854D01*
X296450Y237200D02*
X302800D01*
X315400Y179500D02*
X315400Y179500D01*
X322734Y174934D02*
X322814D01*
X322300Y174500D02*
X322734Y174934D01*
X320800Y174500D02*
X322300D01*
X320800Y174500D02*
X320800Y174500D01*
X322814Y174934D02*
X324180Y176300D01*
X327430D01*
X315400Y174500D02*
Y179500D01*
X322300Y181800D02*
X322350Y181750D01*
X327380D01*
X327430Y181700D01*
X262900Y129838D02*
X266800Y125938D01*
X262900Y129838D02*
Y132500D01*
X266800Y123977D02*
Y125938D01*
Y123977D02*
X268177Y122600D01*
X337200D01*
X103650Y185650D02*
X104650D01*
X104700Y185600D01*
X108650Y190100D02*
X108750Y190200D01*
X196000Y127700D02*
X198600Y125100D01*
X274400Y124200D02*
X284700D01*
X257800Y125900D02*
X263100D01*
X249300Y130600D02*
X249400D01*
X247800Y132100D02*
X249300Y130600D01*
X200820Y193200D02*
X206400Y198780D01*
X200820Y193200D02*
X200820Y193200D01*
X292400Y193785D02*
Y208800D01*
X200820Y193200D02*
X291814D01*
X292400Y193785D01*
X268300Y149000D02*
X270400Y151100D01*
X275300D01*
X280300Y164693D02*
X280607Y165000D01*
X139100Y161150D02*
Y163800D01*
X137150Y165750D02*
X139100Y163800D01*
X137150Y165750D02*
Y167200D01*
X227500Y125000D02*
Y126750D01*
X225750Y128500D02*
X227500Y126750D01*
X223700Y128500D02*
X225750D01*
X131000Y204700D02*
Y206900D01*
X129660Y150700D02*
X132150D01*
X139100Y157650D01*
X120500Y151650D02*
X125800D01*
X125800Y151650D01*
X116299Y151650D02*
X120500D01*
X120500Y151650D01*
X113600Y190200D02*
X115750D01*
X115850Y190100D01*
X139300Y206500D02*
X139300Y206500D01*
X133100Y211100D02*
X139300D01*
X133100Y211100D02*
X133100Y211100D01*
X118850Y202000D02*
X119050Y201800D01*
X122300D01*
X123400Y202900D01*
Y204700D01*
X118000Y208900D02*
X118000Y208900D01*
X123400D01*
X213900Y148700D02*
X215600Y147000D01*
X215700D01*
X231600Y136900D02*
Y143000D01*
Y136900D02*
X233500Y135000D01*
X230700Y143900D02*
X231600Y143000D01*
X228780Y143900D02*
X230700D01*
X222500Y142700D02*
X223700Y143900D01*
X213900Y151240D02*
Y152500D01*
X317200Y221250D02*
X317300Y221150D01*
X321000D01*
X315400Y182950D02*
X317400D01*
X313300D02*
X315400D01*
Y179500D02*
Y182950D01*
X315300Y186050D02*
X317400D01*
X313300D02*
X315300D01*
X300214Y197100D02*
Y206248D01*
Y197100D02*
X304032Y193282D01*
X309175D01*
X301600Y190900D02*
X303318Y189182D01*
X209200Y190900D02*
X301600D01*
X206400Y198780D02*
Y211909D01*
Y212000D02*
X206582Y211818D01*
X202300Y212000D02*
X206400D01*
X200600Y221300D02*
Y223800D01*
Y221300D02*
X201500Y220400D01*
Y212800D02*
Y220400D01*
Y212800D02*
X202300Y212000D01*
X309125Y183882D02*
Y189132D01*
X303318Y189182D02*
X309175D01*
X292400Y208800D02*
X294000Y210400D01*
X304094D02*
X305294Y211600D01*
X294000Y210400D02*
X304094D01*
X305294Y211600D02*
Y213868D01*
X313918Y193282D02*
X315400Y191800D01*
X309175Y193282D02*
X313918D01*
X315400Y189500D02*
Y191800D01*
X309150Y179500D02*
X315400D01*
X322300Y197100D02*
Y201763D01*
X322354Y201816D01*
X322300Y187200D02*
Y191700D01*
X322300Y191700D01*
X315300Y189400D02*
X315400Y189500D01*
X315300Y186050D02*
Y189400D01*
X309175Y193282D02*
X309225Y193332D01*
X206350Y228400D02*
X206400Y228450D01*
X200600Y228400D02*
X206350D01*
X316900Y200500D02*
X317000Y200600D01*
X305294Y200606D02*
X305400Y200500D01*
X305294Y200606D02*
Y206248D01*
X312864Y213818D02*
X312914Y213868D01*
X309414Y213818D02*
X312864D01*
X319020Y256900D02*
X323400D01*
X315000Y260920D02*
X319020Y256900D01*
X294050Y260800D02*
Y262800D01*
X294750Y263500D02*
X317600D01*
X294050Y262800D02*
X294750Y263500D01*
X319600Y261500D02*
X323400D01*
X317600Y263500D02*
X319600Y261500D01*
X304200Y245900D02*
X306800D01*
X302800Y241800D02*
Y244500D01*
X304200Y245900D01*
X306620Y255880D02*
X311000D01*
X330700Y220800D02*
Y226480D01*
D121*
X127176Y149750D02*
X127200Y149726D01*
X125800Y149750D02*
X127176D01*
X218900Y135657D02*
Y135900D01*
X218654Y135411D02*
X218900Y135657D01*
X217639Y135411D02*
X218654D01*
X217600Y135450D02*
X217639Y135411D01*
D122*
X309351Y136400D02*
Y147079D01*
X294925Y153575D02*
X302855D01*
X309351Y147079D01*
Y130800D02*
Y136400D01*
X324800Y136400D02*
X333410D01*
X292600Y155900D02*
X294925Y153575D01*
X309351Y136400D02*
X324800Y136400D01*
X336900Y139890D02*
Y180600D01*
X333410Y136400D02*
X336900Y139890D01*
X330585Y186915D02*
X336900Y180600D01*
X268231Y156946D02*
X274054D01*
X329916Y207869D02*
X330585Y207200D01*
Y186915D02*
Y207200D01*
X327501Y207869D02*
X329916D01*
X159850Y177000D02*
X173750Y163100D01*
X175000D01*
X141450Y177000D02*
X159850D01*
X229779Y156279D02*
X260647D01*
X229200Y155700D02*
X229779Y156279D01*
X223200Y160200D02*
X225200Y158200D01*
X223200Y160200D02*
Y161081D01*
X226600Y169700D02*
X228400Y167900D01*
X233500D01*
X289414Y165000D02*
X292600Y161814D01*
X284300Y165000D02*
X289414D01*
X108846Y173600D02*
Y175818D01*
X109700Y173600D02*
X110700D01*
X108846D02*
X109700D01*
X108700D02*
X108846D01*
X110700D02*
X110700Y173600D01*
X106675Y177989D02*
X108846Y175818D01*
X129200Y157200D02*
Y159200D01*
X129200Y157200D02*
X129200Y157200D01*
X119950Y186750D02*
X120551Y186149D01*
X121000Y185700D01*
X119950Y186750D02*
Y190100D01*
X108750Y190200D02*
X113600D01*
X108750Y190200D02*
X108750Y190200D01*
X213500Y123700D02*
Y132400D01*
X227539Y150439D02*
X227979Y150000D01*
X227100Y150879D02*
X227539Y150439D01*
X227100Y150879D02*
Y158200D01*
X227979Y150000D02*
X228700D01*
X137300Y167200D02*
Y176900D01*
Y184500D01*
X292600Y155900D02*
Y156706D01*
X227100Y158200D02*
X251154D01*
X225200D02*
X227100D01*
X280300Y158100D02*
Y164693D01*
X280607Y165000D02*
X284300D01*
X251154Y158200D02*
X257754Y164800D01*
X275546D01*
X156900Y167200D02*
X160700D01*
X144400D02*
X156900D01*
X144400Y167200D02*
X144400Y167200D01*
X141250Y167200D02*
X144400D01*
X277240Y150300D02*
Y153760D01*
X131000Y190800D02*
X137300Y184500D01*
X104900Y165750D02*
X108700D01*
X115150Y159300D02*
X120100D01*
X108700Y165750D02*
X115150Y159300D01*
D123*
X174950Y160600D02*
Y163000D01*
X245200Y138640D02*
X245240Y138600D01*
X246900D01*
D124*
X312476Y233864D02*
Y239925D01*
X315000Y242448D01*
X298004Y232400D02*
X311012D01*
X312476Y233864D01*
X310360Y157700D02*
Y174460D01*
X315400Y179500D01*
X296096Y230492D02*
X298004Y232400D01*
X296096Y228746D02*
Y230492D01*
X296000Y228650D02*
X296096Y228746D01*
X297604Y224900D02*
X304396D01*
X296096Y221246D02*
Y223392D01*
X297604Y224900D01*
X304396D02*
X305904Y226408D01*
Y228419D02*
X306000D01*
X305904Y226408D02*
Y228419D01*
X296000Y221150D02*
X296096Y221246D01*
X271900Y186700D02*
X274900D01*
X296800D01*
X273400Y185200D02*
X274900Y186700D01*
X227596Y184996D02*
X229300Y186700D01*
X271900D01*
X273400Y185200D01*
Y182900D02*
Y185200D01*
X227596Y182996D02*
Y184996D01*
X227500Y182900D02*
X227596Y182996D01*
X315000Y245720D02*
X320880D01*
X326500Y240100D01*
Y232846D02*
Y240100D01*
X337700Y193100D02*
Y240548D01*
X307200Y239000D02*
Y241100D01*
X311000Y244900D02*
Y254900D01*
X307200Y241100D02*
X311000Y244900D01*
X315000Y242448D02*
Y245720D01*
X311000Y254900D02*
X311980Y255880D01*
X315000D01*
X336528Y241720D02*
X337700Y240548D01*
X330700Y241720D02*
X336528D01*
X326500Y232846D02*
X327672Y231675D01*
X330585D01*
X330700Y231560D01*
D125*
X206600Y167900D02*
X223100D01*
X149250Y230650D02*
X156500Y223400D01*
X156480Y189500D02*
X160200D01*
X156500Y214920D02*
Y223400D01*
X197120Y189500D02*
X200820Y193200D01*
X146700Y206900D02*
X156480Y197120D01*
X151700Y209900D02*
X154218Y207382D01*
X156378D02*
X156480Y207280D01*
X154218Y207382D02*
X156378D01*
X156480Y214900D02*
X156500Y214920D01*
X151700Y209900D02*
Y218800D01*
X145667Y224833D02*
X151700Y218800D01*
X136767Y224833D02*
X145667D01*
X130950Y230650D02*
X136767Y224833D01*
X122050Y222450D02*
Y230650D01*
Y222450D02*
X125200Y219300D01*
X142800D01*
X146700Y215400D01*
Y206900D02*
Y215400D01*
X162400Y191700D02*
Y239250D01*
X160200Y189500D02*
X162400Y191700D01*
X202500Y147500D02*
Y163800D01*
X206600Y167900D01*
X168500Y200700D02*
Y212820D01*
X124850Y253410D02*
Y257950D01*
Y253410D02*
X124860Y253400D01*
X124850Y257950D02*
X125850Y258950D01*
X152700D01*
X184050Y240422D02*
Y245690D01*
X162450Y239250D02*
X182878D01*
X184050Y240422D01*
X152700Y237050D02*
Y248540D01*
Y237050D02*
X152800Y236950D01*
Y232800D02*
Y236950D01*
X150650Y230650D02*
X152800Y232800D01*
X149250Y230650D02*
X150650D01*
X130950Y190850D02*
X131000Y190800D01*
X130950Y190850D02*
Y197150D01*
Y204650D02*
X131000Y204700D01*
X130950Y197150D02*
Y204650D01*
X122050Y197150D02*
Y201150D01*
X168500Y212820D02*
X202700Y247020D01*
X171350Y245690D02*
X171350Y245690D01*
X171350Y245690D02*
Y253310D01*
X183707Y253653D02*
X184050Y253310D01*
X183707Y253653D02*
Y255903D01*
X181410Y258200D02*
X183707Y255903D01*
X162360Y258200D02*
X181410D01*
X152700Y248540D02*
X162360Y258200D01*
X200000Y249400D02*
X202700Y252100D01*
X181410Y249400D02*
X200000D01*
X177700Y245690D02*
X181410Y249400D01*
X137300Y230650D02*
X149250D01*
D126*
X311942Y130800D02*
D03*
X309402D02*
D03*
X306862Y130800D02*
D03*
X196537Y163248D02*
D03*
X152300Y130200D02*
D03*
X256721Y144400D02*
D03*
X277040Y148200D02*
D03*
X274500D02*
D03*
X271960Y148200D02*
D03*
X327400Y213010D02*
D03*
X327400Y210470D02*
D03*
X327400Y207930D02*
D03*
X327400Y205390D02*
D03*
X248700Y122000D02*
D03*
X199500Y156050D02*
D03*
X233500Y167900D02*
D03*
X196000Y127700D02*
D03*
X331800Y167600D02*
D03*
X296100Y144500D02*
D03*
X249400Y130600D02*
D03*
X130670Y136800D02*
D03*
X128130D02*
D03*
X257451Y136070D02*
D03*
X257451Y133530D02*
D03*
X275039Y170900D02*
D03*
X259261Y144400D02*
D03*
X243870Y128500D02*
D03*
X241330D02*
D03*
X330700Y220800D02*
D03*
X332800Y127840D02*
D03*
X170400Y131100D02*
D03*
X289150Y132300D02*
D03*
X301730Y159600D02*
D03*
X304270D02*
D03*
X126660Y157200D02*
D03*
X129200D02*
D03*
X131740Y157200D02*
D03*
X103800Y157600D02*
D03*
X148300Y152100D02*
D03*
X266900Y151400D02*
D03*
X179500Y131700D02*
D03*
X130600Y163200D02*
D03*
X116100Y136800D02*
D03*
X120100Y159300D02*
D03*
X293282Y126300D02*
D03*
X133083Y130400D02*
D03*
X185900Y124600D02*
D03*
X111400Y130400D02*
D03*
X298300Y168650D02*
D03*
D127*
X130950Y230650D02*
D03*
X122050D02*
D03*
X137300D02*
D03*
X115700Y197150D02*
D03*
X122050D02*
D03*
X130950D02*
D03*
X137300D02*
D03*
X152700Y258950D02*
D03*
Y237050D02*
D03*
X321000Y221150D02*
D03*
X306000D02*
D03*
X301000D02*
D03*
X296000D02*
D03*
Y228650D02*
D03*
X301000D02*
D03*
X306000D02*
D03*
X197120Y214900D02*
D03*
Y207280D02*
D03*
Y197120D02*
D03*
X156480D02*
D03*
Y207280D02*
D03*
X197120Y189500D02*
D03*
X156480D02*
D03*
Y214900D02*
D03*
X222050Y182900D02*
D03*
X227500D02*
D03*
X267950D02*
D03*
X273400D02*
D03*
D128*
X115700Y230650D02*
D03*
D129*
X126500Y200400D02*
D03*
Y227400D02*
D03*
D130*
X139100Y157650D02*
D03*
X116299Y151650D02*
D03*
D131*
X139100Y161150D02*
D03*
X116299Y155150D02*
D03*
D133*
X329000Y154300D02*
D03*
D134*
X326460D02*
D03*
X323920D02*
D03*
D135*
X223660Y143900D02*
D03*
X121000Y185700D02*
D03*
X109700Y185600D02*
D03*
X175000Y163100D02*
D03*
X146650Y145200D02*
D03*
X138050Y145200D02*
D03*
X128150Y145200D02*
D03*
X128050Y169200D02*
D03*
D136*
X226200Y143900D02*
D03*
X228740D02*
D03*
X116000Y185700D02*
D03*
X104700Y185600D02*
D03*
X104900Y165750D02*
D03*
X144400Y167200D02*
D03*
X180000Y163100D02*
D03*
X144150Y145200D02*
D03*
X135550Y145200D02*
D03*
X130650Y145200D02*
D03*
X120700Y142850D02*
D03*
X130550Y169200D02*
D03*
X229200Y155700D02*
D03*
X226600Y169700D02*
D03*
X213500Y123700D02*
D03*
X160700Y167200D02*
D03*
X158800D02*
D03*
X156900D02*
D03*
X113600Y190200D02*
D03*
D137*
X184050Y245690D02*
D03*
X177700D02*
D03*
X171350D02*
D03*
Y253310D02*
D03*
X177700D02*
D03*
X184050D02*
D03*
D138*
X227500Y125000D02*
D03*
X282000Y147500D02*
D03*
X282300Y158100D02*
D03*
X213500Y136100D02*
D03*
X324800Y138400D02*
D03*
X221800Y157000D02*
D03*
X230700Y150000D02*
D03*
X109000Y155000D02*
D03*
D139*
X229500Y125000D02*
D03*
X280300Y158100D02*
D03*
X228700Y150000D02*
D03*
D140*
X282000Y145500D02*
D03*
X213500Y134100D02*
D03*
X324800Y136400D02*
D03*
X221800Y155000D02*
D03*
X109000Y153000D02*
D03*
D141*
X321000Y228650D02*
D03*
D142*
X330700Y226480D02*
D03*
D143*
X330700Y231560D02*
D03*
Y236640D02*
D03*
X330700Y241720D02*
D03*
D144*
X315400Y189500D02*
D03*
D145*
Y179500D02*
D03*
D146*
X310360Y157700D02*
D03*
X315440D02*
D03*
X124860Y253400D02*
D03*
X129940D02*
D03*
X315000Y255880D02*
D03*
Y250800D02*
D03*
X315000Y245720D02*
D03*
X315000Y260920D02*
D03*
X202700Y241980D02*
D03*
X202700Y257180D02*
D03*
X202700Y252100D02*
D03*
Y247020D02*
D03*
X296800Y186700D02*
D03*
X337700Y193100D02*
D03*
X307200Y239000D02*
D03*
D147*
X104900Y163250D02*
D03*
X144400Y172200D02*
D03*
X120700Y140350D02*
D03*
D148*
X234450Y141600D02*
D03*
X237950D02*
D03*
D149*
X266900Y137700D02*
D03*
X269400Y140200D02*
D03*
X271900Y137700D02*
D03*
X280500D02*
D03*
X283000Y140200D02*
D03*
X285500Y137700D02*
D03*
X292800D02*
D03*
X295300Y140200D02*
D03*
X297800Y137700D02*
D03*
D150*
X260700Y179300D02*
D03*
X286100D02*
D03*
X240200D02*
D03*
X214800D02*
D03*
D151*
X232950Y182900D02*
D03*
X278850D02*
D03*
D152*
X285796Y127600D02*
D03*
X290600Y127849D02*
D03*
X294554Y135000D02*
D03*
X324300Y146300D02*
D03*
X315400Y143400D02*
D03*
Y146300D02*
D03*
X313800Y132100D02*
D03*
X307304Y132800D02*
D03*
X313400Y134600D02*
D03*
X311900D02*
D03*
X308600Y150300D02*
D03*
X307200Y151700D02*
D03*
X317400Y134289D02*
D03*
X318600Y139200D02*
D03*
X316200D02*
D03*
Y138000D02*
D03*
X312230Y146700D02*
D03*
X311000Y138800D02*
D03*
X312400Y143500D02*
D03*
X310914Y140900D02*
D03*
X311900Y138000D02*
D03*
X310400Y153200D02*
D03*
X330600Y152362D02*
D03*
X320800Y151400D02*
D03*
X321391Y154244D02*
D03*
X323894Y151913D02*
D03*
X299080Y184800D02*
D03*
X300100Y186300D02*
D03*
X301900Y187000D02*
D03*
X293900Y189300D02*
D03*
X295900D02*
D03*
X273500Y166500D02*
D03*
X301852Y132625D02*
D03*
X307580Y143200D02*
D03*
X320300Y140900D02*
D03*
X300200Y128800D02*
D03*
X307200Y134500D02*
D03*
X315393Y150300D02*
D03*
X320800Y138400D02*
D03*
X298000Y143800D02*
D03*
X294200Y145100D02*
D03*
X315300Y215368D02*
D03*
X315300Y212200D02*
D03*
X194000Y156360D02*
D03*
D153*
X330900Y143100D02*
D03*
X308735Y155790D02*
D03*
Y153306D02*
D03*
X333300Y149000D02*
D03*
X319900Y146400D02*
D03*
X304700Y148474D02*
D03*
X277200Y165200D02*
D03*
X307012Y137750D02*
D03*
X306100Y136181D02*
D03*
X315100Y130800D02*
D03*
X303500Y128800D02*
D03*
X210100Y153200D02*
D03*
X312000Y150700D02*
D03*
X319900Y143500D02*
D03*
X298000Y135000D02*
D03*
X311719Y153331D02*
D03*
X324670Y157741D02*
D03*
X324057Y159488D02*
D03*
X320100Y149000D02*
D03*
X330700Y170100D02*
D03*
X328500Y168473D02*
D03*
X145900Y192200D02*
D03*
Y187200D02*
D03*
X224900D02*
D03*
X220900Y188300D02*
D03*
X215900Y187200D02*
D03*
X210900D02*
D03*
X205900Y182200D02*
D03*
X200900D02*
D03*
X195900D02*
D03*
X190900D02*
D03*
X185900D02*
D03*
X180900D02*
D03*
X175900D02*
D03*
X170900D02*
D03*
X165900D02*
D03*
X160900D02*
D03*
X155900D02*
D03*
X150900D02*
D03*
X145900D02*
D03*
X284300Y163900D02*
D03*
X325700Y206800D02*
D03*
X271300Y160600D02*
D03*
X268800Y161700D02*
D03*
X278800D02*
D03*
X263500Y155100D02*
D03*
X263599Y162100D02*
D03*
X259703Y158200D02*
D03*
X133600Y142000D02*
D03*
X133700Y138900D02*
D03*
X125108Y135000D02*
D03*
X128911Y138690D02*
D03*
X125413D02*
D03*
X114757Y147679D02*
D03*
X118400Y138727D02*
D03*
X114584Y138836D02*
D03*
X111042Y138690D02*
D03*
Y141800D02*
D03*
X331200Y183304D02*
D03*
X327500Y188400D02*
D03*
X327501Y198300D02*
D03*
X323300Y204600D02*
D03*
X319400Y208300D02*
D03*
X317400Y210200D02*
D03*
X319000Y213400D02*
D03*
X322000Y210400D02*
D03*
X323400Y216500D02*
D03*
Y212368D02*
D03*
X325700Y209000D02*
D03*
X105288Y143400D02*
D03*
X269558Y137876D02*
D03*
X271960Y139909D02*
D03*
X270606Y149300D02*
D03*
X268493Y152835D02*
D03*
X333622Y154244D02*
D03*
X334900Y149654D02*
D03*
X329874Y141500D02*
D03*
X211900Y127201D02*
D03*
Y128666D02*
D03*
X223900Y124900D02*
D03*
X232950Y178023D02*
D03*
X315393Y147913D02*
D03*
X233000Y174600D02*
D03*
X234700Y171400D02*
D03*
X278800Y171300D02*
D03*
Y176329D02*
D03*
X206100Y152600D02*
D03*
X204225Y145600D02*
D03*
X193700Y140413D02*
D03*
X198366Y145561D02*
D03*
X197720Y139750D02*
D03*
X194822Y134761D02*
D03*
X192538Y129476D02*
D03*
X196442Y125300D02*
D03*
X199000Y126700D02*
D03*
X231900Y145065D02*
D03*
X248300Y152595D02*
D03*
X249550Y143394D02*
D03*
X248700Y142097D02*
D03*
X242997Y145916D02*
D03*
X239073Y145323D02*
D03*
Y147656D02*
D03*
X128154Y193400D02*
D03*
X128100Y191600D02*
D03*
X129100Y189600D02*
D03*
X131050Y187600D02*
D03*
X134700Y179400D02*
D03*
Y177400D02*
D03*
Y175400D02*
D03*
Y173400D02*
D03*
Y171400D02*
D03*
X123100Y150000D02*
D03*
X121100D02*
D03*
X125100Y153400D02*
D03*
X123100D02*
D03*
X134700Y155700D02*
D03*
Y157500D02*
D03*
Y159500D02*
D03*
Y161500D02*
D03*
Y163500D02*
D03*
X134650Y170003D02*
D03*
X120249Y156073D02*
D03*
X120800Y155200D02*
D03*
X121100Y154300D02*
D03*
X121066Y153350D02*
D03*
X147400Y148000D02*
D03*
X137694Y140150D02*
D03*
X149400Y148000D02*
D03*
X151400D02*
D03*
X153400D02*
D03*
X155400D02*
D03*
X157400D02*
D03*
X159400D02*
D03*
X161400D02*
D03*
X163400D02*
D03*
X165400D02*
D03*
X167400D02*
D03*
X169400D02*
D03*
X171800Y153350D02*
D03*
X115800Y200400D02*
D03*
X114146Y202000D02*
D03*
X115750Y203750D02*
D03*
X111000Y208900D02*
D03*
X113400Y206300D02*
D03*
X113400Y211500D02*
D03*
X136900Y206600D02*
D03*
X141900Y206500D02*
D03*
X139300Y203950D02*
D03*
X136788Y203750D02*
D03*
X133100D02*
D03*
X135000Y202000D02*
D03*
X306816Y146412D02*
D03*
X303216Y141703D02*
D03*
X306300Y139900D02*
D03*
X327200Y134600D02*
D03*
X320800Y134289D02*
D03*
X330500Y134700D02*
D03*
X332800D02*
D03*
X334800Y135300D02*
D03*
X336616Y137308D02*
D03*
X334900Y140378D02*
D03*
X332700Y138200D02*
D03*
X330600Y139500D02*
D03*
X328800Y157500D02*
D03*
Y159500D02*
D03*
Y161500D02*
D03*
X306100Y158100D02*
D03*
X309400Y176900D02*
D03*
X308200Y175100D02*
D03*
X220127Y184700D02*
D03*
X224800Y184000D02*
D03*
X230300Y184011D02*
D03*
X227900Y179300D02*
D03*
Y175300D02*
D03*
X230900D02*
D03*
X219800Y171600D02*
D03*
X219760Y173100D02*
D03*
X224558D02*
D03*
X219500Y177300D02*
D03*
Y179300D02*
D03*
X219534Y181346D02*
D03*
X224100Y177300D02*
D03*
Y179300D02*
D03*
X224100Y181346D02*
D03*
X234800Y173300D02*
D03*
Y175300D02*
D03*
X230900Y177300D02*
D03*
X235100D02*
D03*
Y179300D02*
D03*
X270600Y184200D02*
D03*
X276000D02*
D03*
X268533Y189300D02*
D03*
X265458Y171866D02*
D03*
X265600Y172800D02*
D03*
X270400Y171700D02*
D03*
Y173200D02*
D03*
X270600Y175000D02*
D03*
Y177300D02*
D03*
X270100Y179300D02*
D03*
X265600D02*
D03*
Y177300D02*
D03*
X263600Y175000D02*
D03*
X280400Y171300D02*
D03*
X281000Y177300D02*
D03*
X277400Y171300D02*
D03*
Y173300D02*
D03*
Y175300D02*
D03*
X276400Y177300D02*
D03*
X280400Y173300D02*
D03*
Y175300D02*
D03*
X281013Y179300D02*
D03*
X276395D02*
D03*
X280357Y189300D02*
D03*
X274294D02*
D03*
X312700Y162300D02*
D03*
X316200Y165500D02*
D03*
X312700Y165200D02*
D03*
Y167200D02*
D03*
Y169200D02*
D03*
Y171200D02*
D03*
Y173100D02*
D03*
X308100D02*
D03*
X308200Y171100D02*
D03*
Y169100D02*
D03*
Y167100D02*
D03*
Y165100D02*
D03*
Y163000D02*
D03*
X308218Y161100D02*
D03*
X330453Y165400D02*
D03*
X328754Y163504D02*
D03*
X321700Y162500D02*
D03*
X324143Y165500D02*
D03*
X323700Y162500D02*
D03*
X322200Y165500D02*
D03*
X320200D02*
D03*
X317700Y162500D02*
D03*
X319700D02*
D03*
X298900Y149383D02*
D03*
Y151913D02*
D03*
X296418Y159570D02*
D03*
X289400Y154400D02*
D03*
Y159000D02*
D03*
X290600Y150806D02*
D03*
X223800Y163900D02*
D03*
X233471Y164564D02*
D03*
X231600Y164300D02*
D03*
X230546Y166000D02*
D03*
X230859Y179300D02*
D03*
X241100Y167500D02*
D03*
X249842Y167458D02*
D03*
X252600Y170000D02*
D03*
X255600Y173000D02*
D03*
X258600D02*
D03*
X261584Y172966D02*
D03*
X264285Y171400D02*
D03*
X270000Y167500D02*
D03*
X263950Y167300D02*
D03*
X260396D02*
D03*
X235562Y130400D02*
D03*
X233600Y132474D02*
D03*
X235796Y134847D02*
D03*
X233969Y137100D02*
D03*
X221900Y138300D02*
D03*
X218990Y136211D02*
D03*
X206200Y130500D02*
D03*
X205300Y136500D02*
D03*
X202300Y140350D02*
D03*
X171700Y146900D02*
D03*
X171800Y149450D02*
D03*
X172840Y157001D02*
D03*
X177000Y157000D02*
D03*
X182884Y158600D02*
D03*
X186700Y158700D02*
D03*
X192650Y157995D02*
D03*
X193014Y154900D02*
D03*
X217800Y131000D02*
D03*
X244604Y130451D02*
D03*
X253279Y127627D02*
D03*
X258400Y130800D02*
D03*
X302250Y134842D02*
D03*
X327800Y143500D02*
D03*
X329700Y146300D02*
D03*
X323920Y148850D02*
D03*
X311940Y155790D02*
D03*
X303828Y155100D02*
D03*
X307800Y158100D02*
D03*
X281134Y168650D02*
D03*
X282866Y167300D02*
D03*
X287700D02*
D03*
X291105Y165746D02*
D03*
X290913Y161116D02*
D03*
X262950Y141318D02*
D03*
X258122Y143000D02*
D03*
X257932Y146066D02*
D03*
X253050Y143477D02*
D03*
X251600Y135800D02*
D03*
Y133211D02*
D03*
X253269Y132213D02*
D03*
X253794Y138437D02*
D03*
X226200Y130000D02*
D03*
X230600Y129900D02*
D03*
X223400Y130100D02*
D03*
X202175Y128324D02*
D03*
X199800Y129671D02*
D03*
X211900Y131700D02*
D03*
X204425Y133576D02*
D03*
X202500Y132900D02*
D03*
X216300Y141000D02*
D03*
Y139397D02*
D03*
X221955Y141498D02*
D03*
X224854Y147410D02*
D03*
X221600Y146200D02*
D03*
X210027Y155200D02*
D03*
X218891Y155000D02*
D03*
X220300Y158900D02*
D03*
X217650Y158900D02*
D03*
X247900Y170592D02*
D03*
X245200Y173100D02*
D03*
X242300Y170500D02*
D03*
X222050Y172393D02*
D03*
X227082Y171497D02*
D03*
X224900D02*
D03*
X225043Y167900D02*
D03*
X225728Y164852D02*
D03*
X217504Y162562D02*
D03*
X218993Y160938D02*
D03*
X217000Y170254D02*
D03*
X214404Y170182D02*
D03*
X211400D02*
D03*
X208500D02*
D03*
X205441Y169944D02*
D03*
X203600Y168331D02*
D03*
X201663Y166300D02*
D03*
X211548Y166000D02*
D03*
X213691D02*
D03*
X216300D02*
D03*
X206416Y162926D02*
D03*
X209048Y160500D02*
D03*
X204948Y158600D02*
D03*
X205137Y155900D02*
D03*
X204900Y154100D02*
D03*
X200200Y158200D02*
D03*
X200218Y161211D02*
D03*
X257687Y127600D02*
D03*
X246497D02*
D03*
X243200Y143062D02*
D03*
X244700Y134560D02*
D03*
X248958Y134535D02*
D03*
X249304Y139300D02*
D03*
X254704Y139418D02*
D03*
X264800Y135956D02*
D03*
X264756Y131303D02*
D03*
X278027Y127687D02*
D03*
X274291Y128000D02*
D03*
X278027Y137248D02*
D03*
X278816Y131637D02*
D03*
X282000D02*
D03*
X288250Y124643D02*
D03*
X287300Y129800D02*
D03*
X293282Y131320D02*
D03*
X290857Y133968D02*
D03*
Y139240D02*
D03*
X292800Y140200D02*
D03*
X295200Y137700D02*
D03*
X297958Y140200D02*
D03*
X294642Y163500D02*
D03*
X292958Y164100D02*
D03*
X318200Y165500D02*
D03*
X306100Y161100D02*
D03*
X303100Y158000D02*
D03*
X299900Y157000D02*
D03*
X292301Y149461D02*
D03*
X294930Y149350D02*
D03*
X305200Y153700D02*
D03*
X302600Y144100D02*
D03*
X298000Y145200D02*
D03*
X294054Y143800D02*
D03*
X288300Y145600D02*
D03*
X286400D02*
D03*
X285969Y149461D02*
D03*
X283400Y136500D02*
D03*
X285796Y140271D02*
D03*
X280300D02*
D03*
X266700Y140200D02*
D03*
X269775Y135920D02*
D03*
X273151Y141929D02*
D03*
X270095Y145050D02*
D03*
X279085Y144800D02*
D03*
X281374Y154900D02*
D03*
X284689Y154700D02*
D03*
X269400Y126100D02*
D03*
X268110Y130749D02*
D03*
X268794Y129000D02*
D03*
X267918Y127500D02*
D03*
X281500D02*
D03*
X282454Y129000D02*
D03*
X283175Y126100D02*
D03*
X324300Y143300D02*
D03*
X334900Y146100D02*
D03*
X334800Y143700D02*
D03*
X295300Y155685D02*
D03*
X293263Y152900D02*
D03*
X291500Y153000D02*
D03*
X290913Y159488D02*
D03*
X287975Y163065D02*
D03*
X282100Y163200D02*
D03*
X258800D02*
D03*
X258900Y161300D02*
D03*
X257439Y162300D02*
D03*
X256378Y158034D02*
D03*
X258083Y148946D02*
D03*
X256700Y150500D02*
D03*
Y153206D02*
D03*
X254100Y150000D02*
D03*
X253050Y148163D02*
D03*
X262950Y145916D02*
D03*
X262800Y150400D02*
D03*
X262900Y152890D02*
D03*
X265100Y152900D02*
D03*
X278816Y151900D02*
D03*
X277316Y156706D02*
D03*
X273051Y152890D02*
D03*
X266900Y144000D02*
D03*
X264900Y142500D02*
D03*
X239804Y136993D02*
D03*
X243904Y137126D02*
D03*
X241900Y135956D02*
D03*
Y138163D02*
D03*
X243374Y148291D02*
D03*
X244428Y149807D02*
D03*
X246800Y151300D02*
D03*
X249800D02*
D03*
X234829Y152000D02*
D03*
X236148Y150400D02*
D03*
X232305Y152754D02*
D03*
X224500Y140340D02*
D03*
X226000Y141498D02*
D03*
X227400Y140300D02*
D03*
X225472Y126300D02*
D03*
Y123600D02*
D03*
X238505Y126095D02*
D03*
X238492Y130100D02*
D03*
X230700Y132800D02*
D03*
X226240Y135180D02*
D03*
X222879D02*
D03*
X208199Y128100D02*
D03*
X206929Y126600D02*
D03*
X162000Y143054D02*
D03*
X165200Y143000D02*
D03*
X160400Y141700D02*
D03*
X163620Y141600D02*
D03*
X166695Y141700D02*
D03*
X150784Y140131D02*
D03*
X153605D02*
D03*
X152200Y138800D02*
D03*
Y137900D02*
D03*
X150784Y136550D02*
D03*
X153605D02*
D03*
X192596Y149405D02*
D03*
X195489Y149450D02*
D03*
X194000Y150800D02*
D03*
X191200D02*
D03*
X185300Y165100D02*
D03*
X182500D02*
D03*
X184038Y166603D02*
D03*
X153900Y158700D02*
D03*
X153941Y160899D02*
D03*
X153950Y161825D02*
D03*
X153900Y165000D02*
D03*
X145200Y161690D02*
D03*
X143471Y159742D02*
D03*
X146900Y159700D02*
D03*
X105000Y141500D02*
D03*
X102900Y143100D02*
D03*
X105100Y140200D02*
D03*
X105100Y137300D02*
D03*
X106550Y135877D02*
D03*
Y138836D02*
D03*
X106600Y141800D02*
D03*
X114584D02*
D03*
X110700Y173600D02*
D03*
X109700Y173600D02*
D03*
X108700D02*
D03*
X118922Y176346D02*
D03*
X116531D02*
D03*
X117699Y178250D02*
D03*
X108846Y179893D02*
D03*
X111402Y178595D02*
D03*
X107627Y179893D02*
D03*
X109900D02*
D03*
X132400Y174300D02*
D03*
X130850Y172600D02*
D03*
Y175837D02*
D03*
X132400Y177400D02*
D03*
X130750Y178900D02*
D03*
X124950Y159300D02*
D03*
X123696D02*
D03*
X122405Y159596D02*
D03*
X126900Y159100D02*
D03*
X126660Y162234D02*
D03*
X127900Y159100D02*
D03*
X128900D02*
D03*
X129882Y159100D02*
D03*
X224500Y150400D02*
D03*
X245200Y138640D02*
D03*
X273200Y162800D02*
D03*
X289150Y152600D02*
D03*
X269612Y159488D02*
D03*
X273298Y155950D02*
D03*
X207500Y130500D02*
D03*
X268300Y149000D02*
D03*
X261600Y149300D02*
D03*
X271100Y153100D02*
D03*
Y154900D02*
D03*
X273200Y160200D02*
D03*
X293600Y159570D02*
D03*
X247600Y163600D02*
D03*
X242600D02*
D03*
X205300Y125100D02*
D03*
X211600D02*
D03*
X201300Y132500D02*
D03*
X206400Y147100D02*
D03*
X219100Y133560D02*
D03*
X106500Y172500D02*
D03*
Y173500D02*
D03*
X105300Y172500D02*
D03*
X104000D02*
D03*
X102800D02*
D03*
Y173500D02*
D03*
Y174500D02*
D03*
X106500D02*
D03*
X246600Y163600D02*
D03*
X245600D02*
D03*
X244600D02*
D03*
X243600D02*
D03*
X220950Y128895D02*
D03*
X202600Y130165D02*
D03*
X211297Y142600D02*
D03*
X269300Y162800D02*
D03*
X262900Y132500D02*
D03*
X285325Y151625D02*
D03*
D154*
X306000Y144900D02*
D03*
X313400D02*
D03*
X138660Y136800D02*
D03*
X256700Y139500D02*
D03*
X336400Y188000D02*
D03*
X284700Y124200D02*
D03*
X274400D02*
D03*
X257800Y125900D02*
D03*
X263100D02*
D03*
X209200Y190900D02*
D03*
X275300Y151100D02*
D03*
D155*
X123400Y204700D02*
D03*
X123400Y208900D02*
D03*
X131000Y206900D02*
D03*
X131000Y211100D02*
D03*
D156*
X322354Y201816D02*
D03*
X316954Y201816D02*
D03*
X310754Y201716D02*
D03*
X305354Y201716D02*
D03*
X315400Y174500D02*
D03*
X320800Y174500D02*
D03*
D157*
X113400Y208900D02*
D03*
X118000Y208900D02*
D03*
D158*
X274054Y156946D02*
X277240Y153760D01*
D159*
X326404Y150200D02*
D03*
M02*
