G04*
G04 #@! TF.GenerationSoftware,Altium Limited,Altium Designer,22.6.1 (34)*
G04*
G04 Layer_Physical_Order=1*
G04 Layer_Color=255*
%FSLAX43Y43*%
%MOMM*%
G71*
G04*
G04 #@! TF.SameCoordinates,9649F8B4-3FE2-4C46-9B93-F8E3BF9B0601*
G04*
G04*
G04 #@! TF.FilePolarity,Positive*
G04*
G01*
G75*
%ADD10C,0.500*%
%ADD11C,3.200*%
G36*
X87000Y159235D02*
X325876Y159235D01*
X325874D01*
X325876Y159235D01*
X326000Y159235D01*
X326122Y159224D01*
X326321Y159198D01*
X326620Y159074D01*
X326877Y158877D01*
X327074Y158620D01*
X327198Y158321D01*
X327224Y158122D01*
X327235Y158000D01*
X327235Y158000D01*
X327235Y157873D01*
X327235Y92000D01*
X327238Y91983D01*
X327198Y91679D01*
X327074Y91380D01*
X326877Y91123D01*
X326620Y90926D01*
X326321Y90802D01*
X326017Y90762D01*
X326000Y90765D01*
X87000Y90765D01*
X86983Y90762D01*
X86679Y90802D01*
X86380Y90926D01*
X86123Y91123D01*
X85926Y91380D01*
X85802Y91679D01*
X85776Y91878D01*
X85765Y92000D01*
X85765Y92000D01*
X85765Y92127D01*
X85765Y157874D01*
X85765Y157876D01*
X85765Y158000D01*
X85776Y158122D01*
X85802Y158321D01*
X85926Y158620D01*
X86123Y158877D01*
X86380Y159074D01*
X86679Y159198D01*
X86983Y159238D01*
X87000Y159235D01*
D02*
G37*
%LPC*%
G36*
X317708Y155108D02*
X317292D01*
X316885Y155027D01*
X316501Y154868D01*
X316156Y154637D01*
X315863Y154344D01*
X315632Y153999D01*
X315473Y153615D01*
X315392Y153208D01*
Y152792D01*
X315473Y152385D01*
X315632Y152001D01*
X315863Y151656D01*
X316156Y151363D01*
X316501Y151132D01*
X316885Y150973D01*
X317292Y150892D01*
X317708D01*
X318115Y150973D01*
X318499Y151132D01*
X318844Y151363D01*
X319137Y151656D01*
X319368Y152001D01*
X319527Y152385D01*
X319608Y152792D01*
Y153208D01*
X319527Y153615D01*
X319368Y153999D01*
X319137Y154344D01*
X318844Y154637D01*
X318499Y154868D01*
X318115Y155027D01*
X317708Y155108D01*
D02*
G37*
G36*
X257208D02*
X256792D01*
X256385Y155027D01*
X256001Y154868D01*
X255656Y154637D01*
X255363Y154344D01*
X255132Y153999D01*
X254973Y153615D01*
X254892Y153208D01*
Y152792D01*
X254973Y152385D01*
X255132Y152001D01*
X255363Y151656D01*
X255656Y151363D01*
X256001Y151132D01*
X256385Y150973D01*
X256792Y150892D01*
X257208D01*
X257615Y150973D01*
X257999Y151132D01*
X258344Y151363D01*
X258637Y151656D01*
X258868Y152001D01*
X259027Y152385D01*
X259108Y152792D01*
Y153208D01*
X259027Y153615D01*
X258868Y153999D01*
X258637Y154344D01*
X258344Y154637D01*
X257999Y154868D01*
X257615Y155027D01*
X257208Y155108D01*
D02*
G37*
G36*
X92399Y146358D02*
X92041D01*
X91696Y146265D01*
X91386Y146087D01*
X91133Y145834D01*
X90955Y145524D01*
X90862Y145179D01*
Y144821D01*
X90955Y144476D01*
X91133Y144166D01*
X91386Y143913D01*
X91696Y143735D01*
X92041Y143642D01*
X92399D01*
X92744Y143735D01*
X93054Y143913D01*
X93307Y144166D01*
X93485Y144476D01*
X93578Y144821D01*
Y145179D01*
X93485Y145524D01*
X93307Y145834D01*
X93054Y146087D01*
X92744Y146265D01*
X92399Y146358D01*
D02*
G37*
G36*
X206708Y127108D02*
X206292D01*
X205885Y127027D01*
X205501Y126868D01*
X205156Y126637D01*
X204863Y126344D01*
X204632Y125999D01*
X204473Y125615D01*
X204392Y125208D01*
Y124792D01*
X204473Y124385D01*
X204632Y124001D01*
X204863Y123656D01*
X205156Y123363D01*
X205501Y123132D01*
X205885Y122973D01*
X206292Y122892D01*
X206708D01*
X207115Y122973D01*
X207499Y123132D01*
X207844Y123363D01*
X208137Y123656D01*
X208368Y124001D01*
X208527Y124385D01*
X208608Y124792D01*
Y125208D01*
X208527Y125615D01*
X208368Y125999D01*
X208137Y126344D01*
X207844Y126637D01*
X207499Y126868D01*
X207115Y127027D01*
X206708Y127108D01*
D02*
G37*
G36*
X231554Y134968D02*
X221446D01*
X221274Y134945D01*
X221114Y134879D01*
X220977Y134773D01*
X220871Y134636D01*
X220805Y134476D01*
X220782Y134304D01*
Y115696D01*
X220805Y115524D01*
X220871Y115364D01*
X220977Y115227D01*
X221114Y115121D01*
X221274Y115055D01*
X221446Y115032D01*
X231554D01*
X231726Y115055D01*
X231886Y115121D01*
X232023Y115227D01*
X232129Y115364D01*
X232195Y115524D01*
X232218Y115696D01*
Y134304D01*
X232195Y134476D01*
X232129Y134636D01*
X232023Y134773D01*
X231886Y134879D01*
X231726Y134945D01*
X231554Y134968D01*
D02*
G37*
G36*
X191554D02*
X181446D01*
X181274Y134945D01*
X181114Y134879D01*
X180977Y134773D01*
X180871Y134636D01*
X180805Y134476D01*
X180782Y134304D01*
Y115696D01*
X180805Y115524D01*
X180871Y115364D01*
X180977Y115227D01*
X181114Y115121D01*
X181274Y115055D01*
X181446Y115032D01*
X191554D01*
X191726Y115055D01*
X191886Y115121D01*
X192023Y115227D01*
X192129Y115364D01*
X192195Y115524D01*
X192218Y115696D01*
Y134304D01*
X192195Y134476D01*
X192129Y134636D01*
X192023Y134773D01*
X191886Y134879D01*
X191726Y134945D01*
X191554Y134968D01*
D02*
G37*
G36*
X206708Y110608D02*
X206292D01*
X205885Y110527D01*
X205501Y110368D01*
X205156Y110137D01*
X204863Y109844D01*
X204632Y109499D01*
X204473Y109115D01*
X204392Y108708D01*
Y108292D01*
X204473Y107885D01*
X204632Y107501D01*
X204863Y107156D01*
X205156Y106863D01*
X205501Y106632D01*
X205885Y106473D01*
X206292Y106392D01*
X206708D01*
X207115Y106473D01*
X207499Y106632D01*
X207844Y106863D01*
X208137Y107156D01*
X208368Y107501D01*
X208527Y107885D01*
X208608Y108292D01*
Y108708D01*
X208527Y109115D01*
X208368Y109499D01*
X208137Y109844D01*
X207844Y110137D01*
X207499Y110368D01*
X207115Y110527D01*
X206708Y110608D01*
D02*
G37*
%LPD*%
D10*
X328000Y158000D02*
G03*
X326000Y160000I-2000J0D01*
G01*
X326000Y90000D02*
G03*
X328000Y92000I0J2000D01*
G01*
X85000D02*
G03*
X87000Y90000I2000J0D01*
G01*
Y160000D02*
G03*
X85000Y158000I0J-2000D01*
G01*
X87000Y160000D02*
X326000D01*
X328000Y158000D02*
X328000Y92000D01*
X326000Y89987D02*
Y90000D01*
X87000Y90000D02*
X326000D01*
X85000Y92000D02*
Y158000D01*
D11*
X206500Y108500D02*
D03*
Y125000D02*
D03*
X257000Y153000D02*
D03*
X317500D02*
D03*
M02*
