G04*
G04 #@! TF.GenerationSoftware,Altium Limited,Altium Designer,22.6.1 (34)*
G04*
G04 Layer_Physical_Order=2*
G04 Layer_Color=16711680*
%FSLAX43Y43*%
%MOMM*%
G71*
G04*
G04 #@! TF.SameCoordinates,F496B0A2-B833-478F-8A90-30E2481CEF61*
G04*
G04*
G04 #@! TF.FilePolarity,Positive*
G04*
G01*
G75*
%ADD10C,0.500*%
%ADD13C,3.200*%
%ADD14C,0.152*%
%ADD15C,0.102*%
%ADD16R,1.500X1.400*%
%ADD17R,0.600X1.800*%
%ADD18R,1.500X1.600*%
%ADD19R,0.850X1.600*%
%ADD20R,1.900X1.500*%
%ADD21R,1.500X1.900*%
%ADD22R,2.400X1.600*%
%ADD23R,4.800X2.400*%
%ADD24R,1.600X1.500*%
%ADD25R,1.400X1.500*%
%ADD26R,1.800X0.600*%
%ADD27R,1.400X2.600*%
%ADD28C,1.000*%
%ADD29C,0.600*%
%ADD30C,0.254*%
%ADD31C,0.400*%
G36*
X87000Y159235D02*
X325876Y159235D01*
X325874D01*
X325876Y159235D01*
X326000Y159235D01*
X326122Y159224D01*
X326321Y159198D01*
X326620Y159074D01*
X326877Y158877D01*
X327074Y158620D01*
X327198Y158321D01*
X327224Y158122D01*
X327235Y158000D01*
X327235Y158000D01*
X327235Y157873D01*
X327235Y92000D01*
X327238Y91983D01*
X327198Y91679D01*
X327074Y91380D01*
X326877Y91123D01*
X326620Y90926D01*
X326321Y90802D01*
X326017Y90762D01*
X326000Y90765D01*
X87000Y90765D01*
X86983Y90762D01*
X86679Y90802D01*
X86380Y90926D01*
X86123Y91123D01*
X85926Y91380D01*
X85802Y91679D01*
X85776Y91878D01*
X85765Y92000D01*
X85765Y92000D01*
X85765Y92127D01*
X85765Y157874D01*
X85765Y157876D01*
X85765Y158000D01*
X85776Y158122D01*
X85802Y158321D01*
X85926Y158620D01*
X86123Y158877D01*
X86380Y159074D01*
X86679Y159198D01*
X86983Y159238D01*
X87000Y159235D01*
D02*
G37*
%LPC*%
G36*
X182826Y156878D02*
X182601Y156821D01*
X182468Y156758D01*
X182345Y156809D01*
X182116Y156853D01*
X181889Y156807D01*
X181696Y156677D01*
X181568Y156483D01*
X181523Y156255D01*
X181570Y156027D01*
X181644Y155916D01*
X181629Y155800D01*
X181659Y155575D01*
X181676Y155534D01*
X180812Y154572D01*
X180770Y154501D01*
X180719Y154434D01*
X180711Y154401D01*
X180694Y154372D01*
X180682Y154290D01*
X180661Y154209D01*
X180665Y154176D01*
X180661Y154142D01*
X180681Y154062D01*
X180693Y153979D01*
X181937Y150397D01*
X182055Y150197D01*
X182240Y150057D01*
X182465Y149998D01*
X182696Y150030D01*
X182871Y150133D01*
X182886Y150136D01*
X183087Y150253D01*
X183107Y150279D01*
X183268Y150372D01*
X183409Y150557D01*
X183469Y150781D01*
X183438Y151012D01*
X182723Y153105D01*
X182812Y153240D01*
X182957Y153268D01*
X183150Y153398D01*
X183279Y153591D01*
X183324Y153819D01*
Y153971D01*
X183301Y154090D01*
X183483Y154304D01*
X183610D01*
X183799Y154081D01*
X183776Y153963D01*
Y153810D01*
X183821Y153582D01*
X183950Y153389D01*
X184143Y153260D01*
X184288Y153231D01*
X184377Y153096D01*
X183662Y151003D01*
X183631Y150773D01*
X183691Y150548D01*
X183832Y150364D01*
X183993Y150270D01*
X184013Y150244D01*
X184214Y150127D01*
X184227Y150125D01*
X184400Y150023D01*
X184630Y149991D01*
X184855Y150049D01*
X185040Y150189D01*
X185158Y150390D01*
X186407Y153970D01*
X186439Y154200D01*
X186381Y154425D01*
X186283Y154555D01*
X186263Y154589D01*
X185424Y155525D01*
X185441Y155566D01*
X185471Y155791D01*
X185456Y155908D01*
X185530Y156018D01*
X185577Y156246D01*
X185532Y156474D01*
X185404Y156668D01*
X185211Y156798D01*
X184984Y156844D01*
X184755Y156800D01*
X184632Y156749D01*
X184499Y156812D01*
X184274Y156869D01*
X184044Y156835D01*
X183845Y156716D01*
X183706Y156529D01*
X183662Y156352D01*
X183638Y156343D01*
X183637Y156342D01*
X183635Y156342D01*
X183556Y156289D01*
X183465Y156350D01*
X183463Y156351D01*
X183462Y156351D01*
X183438Y156361D01*
X183394Y156538D01*
X183255Y156724D01*
X183056Y156844D01*
X182826Y156878D01*
D02*
G37*
G36*
X228708Y156208D02*
X222892D01*
Y155330D01*
X217308Y155330D01*
Y155808D01*
X213892D01*
Y155330D01*
X204480D01*
X204369Y155315D01*
X204133D01*
Y155808D01*
X202267D01*
Y155365D01*
X197258Y155365D01*
Y155808D01*
X194342D01*
Y153292D01*
X197258D01*
Y153735D01*
X202267Y153735D01*
Y153192D01*
X204133D01*
Y153685D01*
X204765D01*
X204876Y153700D01*
X213892D01*
Y153192D01*
X217308D01*
Y153700D01*
X222892Y153700D01*
Y152792D01*
X228708D01*
Y156208D01*
D02*
G37*
G36*
Y152208D02*
X222892D01*
Y151517D01*
X217308D01*
Y151808D01*
X213892D01*
Y151517D01*
X212369D01*
X212106Y151482D01*
X211861Y151380D01*
X211650Y151219D01*
X210624Y150193D01*
X210463Y149983D01*
X210361Y149737D01*
X210327Y149474D01*
Y140704D01*
X210361Y140441D01*
X210463Y140195D01*
X210624Y139985D01*
X214372Y136238D01*
Y123003D01*
X203181Y111813D01*
X203020Y111602D01*
X202918Y111357D01*
X202883Y111094D01*
Y110308D01*
X202692D01*
Y106692D01*
X205108D01*
Y106742D01*
X205235Y106810D01*
X205501Y106632D01*
X205885Y106473D01*
X206292Y106392D01*
X206708D01*
X207115Y106473D01*
X207499Y106632D01*
X207765Y106810D01*
X207892Y106742D01*
Y106692D01*
X210308D01*
Y110308D01*
X210117D01*
Y113379D01*
X217701Y120963D01*
X217863Y121174D01*
X217964Y121419D01*
X217999Y121682D01*
Y136326D01*
X220426Y138753D01*
X229271D01*
Y138340D01*
X231787D01*
Y141256D01*
X229271D01*
Y140786D01*
X220004D01*
X219741Y140752D01*
X219496Y140650D01*
X219286Y140488D01*
X216263Y137466D01*
X216221Y137411D01*
X216066Y137418D01*
X212360Y141125D01*
Y149053D01*
X212790Y149483D01*
X213892D01*
Y149192D01*
X217308D01*
Y149483D01*
X222892D01*
Y148792D01*
X228708D01*
Y152208D01*
D02*
G37*
G36*
X271550Y156617D02*
X245504D01*
X245241Y156582D01*
X244996Y156480D01*
X244785Y156319D01*
X243081Y154615D01*
X242920Y154404D01*
X242818Y154159D01*
X242783Y153896D01*
Y117469D01*
X238631Y113317D01*
X220703D01*
X220439Y113282D01*
X220194Y113180D01*
X219984Y113019D01*
X211681Y104717D01*
X201874D01*
X200810Y105781D01*
Y113667D01*
X208316Y121172D01*
X208454Y121278D01*
X209819Y122644D01*
X209980Y122854D01*
X210023Y122956D01*
X210082Y123099D01*
X210094Y123192D01*
X210308D01*
Y126808D01*
X207892D01*
Y126758D01*
X207765Y126690D01*
X207499Y126868D01*
X207115Y127027D01*
X206708Y127108D01*
X206292D01*
X205885Y127027D01*
X205501Y126868D01*
X205235Y126690D01*
X205108Y126758D01*
Y126808D01*
X202692D01*
Y125815D01*
X200008D01*
Y126258D01*
X197615D01*
Y137424D01*
X197615Y137424D01*
Y146600D01*
X197608Y146653D01*
Y147192D01*
X198558D01*
Y147785D01*
X198942D01*
Y147392D01*
X201458D01*
Y149808D01*
X198942D01*
Y149415D01*
X198558D01*
Y150008D01*
X198650Y150092D01*
X199508D01*
Y152708D01*
X196992D01*
Y152708D01*
X194342D01*
Y150192D01*
X195035D01*
Y148700D01*
X195042Y148647D01*
Y147192D01*
X195992D01*
Y146653D01*
X195985Y146600D01*
Y137424D01*
X195985Y137424D01*
Y126258D01*
X195592D01*
Y123742D01*
X200008D01*
Y124185D01*
X202692D01*
Y123192D01*
X205108D01*
Y123242D01*
X205235Y123310D01*
X205501Y123132D01*
X205885Y122973D01*
X206292Y122892D01*
X206708D01*
X207088Y122968D01*
X207165Y122865D01*
X207122Y122822D01*
X206984Y122716D01*
X199074Y114807D01*
X198913Y114596D01*
X198811Y114351D01*
X198776Y114088D01*
Y105360D01*
X198811Y105097D01*
X198913Y104852D01*
X199074Y104641D01*
X200734Y102981D01*
X200945Y102820D01*
X201190Y102718D01*
X201453Y102683D01*
X212103D01*
X212366Y102718D01*
X212611Y102820D01*
X212821Y102981D01*
X221124Y111283D01*
X239052D01*
X239315Y111318D01*
X239561Y111420D01*
X239771Y111581D01*
X244519Y116329D01*
X244680Y116539D01*
X244782Y116785D01*
X244817Y117048D01*
Y153475D01*
X245925Y154583D01*
X253192D01*
Y151192D01*
X253560D01*
Y149890D01*
X253535Y149700D01*
Y149008D01*
X253092D01*
Y146392D01*
X254992D01*
Y146392D01*
X257508D01*
Y146885D01*
X258392D01*
Y146442D01*
X262808D01*
Y146885D01*
X262942D01*
Y144892D01*
X265858D01*
Y145335D01*
X266220D01*
X266431Y145363D01*
X266485Y145385D01*
X274892D01*
Y144928D01*
X278308D01*
Y145385D01*
X283892D01*
Y144528D01*
X289708D01*
Y147944D01*
X283892D01*
Y147015D01*
X278308D01*
Y147544D01*
X274892D01*
Y147015D01*
X267309D01*
X267266Y147142D01*
X267295Y147165D01*
X268676Y148546D01*
X268676Y148546D01*
X268806Y148715D01*
X268887Y148911D01*
X268915Y149122D01*
Y149342D01*
X269508D01*
Y150292D01*
X270047D01*
X270100Y150285D01*
X272142D01*
Y149892D01*
X274658D01*
Y152308D01*
X272142D01*
Y151915D01*
X270915D01*
Y152456D01*
X270887Y152667D01*
X270806Y152864D01*
X270676Y153033D01*
X270676Y153033D01*
X269933Y153776D01*
X269764Y153906D01*
X269567Y153987D01*
X269356Y154015D01*
X267700D01*
X267647Y154008D01*
X267108D01*
Y154583D01*
X271129D01*
X272195Y153517D01*
X272405Y153356D01*
X272650Y153254D01*
X272914Y153220D01*
X274892D01*
Y152928D01*
X278308D01*
Y153220D01*
X283892D01*
Y152528D01*
X289708D01*
Y153220D01*
X306457D01*
X307333Y152344D01*
X307544Y152182D01*
X307789Y152081D01*
X308052Y152046D01*
X308315Y152081D01*
X308399Y152115D01*
X308504Y152045D01*
Y151805D01*
X312920D01*
Y152085D01*
X313692D01*
Y151192D01*
X316108D01*
Y151242D01*
X316235Y151310D01*
X316501Y151132D01*
X316885Y150973D01*
X317292Y150892D01*
X317708D01*
X318115Y150973D01*
X318499Y151132D01*
X318844Y151363D01*
X319137Y151656D01*
X319368Y152001D01*
X319527Y152385D01*
X319608Y152792D01*
Y153208D01*
X319527Y153615D01*
X319368Y153999D01*
X319137Y154344D01*
X318844Y154637D01*
X318499Y154868D01*
X318115Y155027D01*
X317708Y155108D01*
X317292D01*
X316885Y155027D01*
X316501Y154868D01*
X316235Y154690D01*
X316108Y154758D01*
Y154808D01*
X313692D01*
Y153715D01*
X312920D01*
Y154321D01*
X308504D01*
Y154214D01*
X308387Y154166D01*
X307597Y154955D01*
X307387Y155117D01*
X307142Y155218D01*
X306878Y155253D01*
X289708D01*
Y155944D01*
X283892D01*
Y155253D01*
X278308D01*
Y155544D01*
X274892D01*
Y155253D01*
X273335D01*
X272269Y156319D01*
X272058Y156480D01*
X271813Y156582D01*
X271550Y156617D01*
D02*
G37*
G36*
X179641Y157121D02*
X168828D01*
Y153305D01*
X169624D01*
Y150197D01*
X178771D01*
Y153305D01*
X179641D01*
Y157121D01*
D02*
G37*
G36*
X239708Y150508D02*
X237092D01*
Y147992D01*
X237556D01*
Y145906D01*
X237121D01*
Y145521D01*
X236457D01*
Y145704D01*
X236430Y145915D01*
X236348Y146111D01*
X236219Y146280D01*
X235422Y147076D01*
X235253Y147206D01*
X235057Y147287D01*
X234846Y147315D01*
X228708D01*
Y148208D01*
X222892D01*
Y147315D01*
X217308D01*
Y147808D01*
X213892D01*
Y145192D01*
X217308D01*
Y145685D01*
X222892D01*
Y144792D01*
X228708D01*
Y145685D01*
X234450D01*
X234483Y145641D01*
X234420Y145514D01*
X234234D01*
Y144564D01*
X233695D01*
X233642Y144571D01*
X233629D01*
X233576Y144564D01*
X232234D01*
Y142948D01*
X232814D01*
Y141256D01*
X232371D01*
Y138340D01*
X234887D01*
Y141256D01*
X234444D01*
Y142948D01*
X235050D01*
Y143898D01*
X235589D01*
X235642Y143891D01*
X237121D01*
Y143490D01*
X239637D01*
Y145906D01*
X239186D01*
Y147992D01*
X239708D01*
Y150508D01*
D02*
G37*
G36*
X92399Y146358D02*
X92041D01*
X91696Y146265D01*
X91386Y146087D01*
X91133Y145834D01*
X90955Y145524D01*
X90862Y145179D01*
Y144821D01*
X90955Y144476D01*
X91133Y144166D01*
X91386Y143913D01*
X91696Y143735D01*
X92041Y143642D01*
X92399D01*
X92744Y143735D01*
X93054Y143913D01*
X93307Y144166D01*
X93485Y144476D01*
X93578Y144821D01*
Y145179D01*
X93485Y145524D01*
X93307Y145834D01*
X93054Y146087D01*
X92744Y146265D01*
X92399Y146358D01*
D02*
G37*
G36*
X231554Y134968D02*
X221446D01*
X221274Y134945D01*
X221114Y134879D01*
X220977Y134773D01*
X220871Y134636D01*
X220805Y134476D01*
X220782Y134304D01*
Y115696D01*
X220805Y115524D01*
X220871Y115364D01*
X220977Y115227D01*
X221114Y115121D01*
X221274Y115055D01*
X221446Y115032D01*
X231554D01*
X231726Y115055D01*
X231886Y115121D01*
X232023Y115227D01*
X232129Y115364D01*
X232195Y115524D01*
X232218Y115696D01*
Y134304D01*
X232195Y134476D01*
X232129Y134636D01*
X232023Y134773D01*
X231886Y134879D01*
X231726Y134945D01*
X231554Y134968D01*
D02*
G37*
G36*
X191554D02*
X181446D01*
X181274Y134945D01*
X181114Y134879D01*
X180977Y134773D01*
X180871Y134636D01*
X180805Y134476D01*
X180782Y134304D01*
Y115696D01*
X180805Y115524D01*
X180871Y115364D01*
X180977Y115227D01*
X181114Y115121D01*
X181274Y115055D01*
X181446Y115032D01*
X191554D01*
X191726Y115055D01*
X191886Y115121D01*
X192023Y115227D01*
X192129Y115364D01*
X192195Y115524D01*
X192218Y115696D01*
Y134304D01*
X192195Y134476D01*
X192129Y134636D01*
X192023Y134773D01*
X191886Y134879D01*
X191726Y134945D01*
X191554Y134968D01*
D02*
G37*
%LPD*%
G36*
X264292Y153342D02*
X265647D01*
X265700Y153335D01*
X265753Y153342D01*
X266292D01*
Y153058D01*
X265753D01*
X265700Y153065D01*
X264751D01*
X264699Y153058D01*
X264292D01*
Y152916D01*
X264175Y152826D01*
X263824Y152475D01*
X263694Y152306D01*
X263647Y152191D01*
X263613Y152109D01*
X263585Y151899D01*
Y150508D01*
X262942D01*
Y148515D01*
X262808D01*
Y148958D01*
X260415D01*
Y149485D01*
X260437Y149539D01*
X260465Y149750D01*
X260465Y149750D01*
Y151192D01*
X260808D01*
Y154583D01*
X264292D01*
Y153342D01*
D02*
G37*
D10*
X328000Y158000D02*
G03*
X326000Y160000I-2000J0D01*
G01*
X326000Y90000D02*
G03*
X328000Y92000I0J2000D01*
G01*
X85000D02*
G03*
X87000Y90000I2000J0D01*
G01*
Y160000D02*
G03*
X85000Y158000I0J-2000D01*
G01*
X87000Y160000D02*
X326000D01*
X328000Y158000D02*
X328000Y92000D01*
X326000Y89987D02*
Y90000D01*
X87000Y90000D02*
X326000D01*
X85000Y92000D02*
Y158000D01*
D13*
X206500Y108500D02*
D03*
Y125000D02*
D03*
X257000Y153000D02*
D03*
X317500D02*
D03*
D14*
X182779Y155800D02*
G03*
X182779Y155800I-279J0D01*
G01*
X184879Y155791D02*
G03*
X184879Y155791I-279J0D01*
G01*
X181255Y154174D02*
X182373Y155419D01*
X181255Y154174D02*
X182500Y150593D01*
X181509Y154124D02*
X182576Y155317D01*
X181789Y154098D02*
X182703Y155140D01*
X182221Y154251D02*
X182856Y154987D01*
X182627Y154009D02*
Y154238D01*
X182322Y153819D02*
Y153971D01*
X182119D02*
X182322D01*
X182119Y153819D02*
Y153971D01*
X182221Y154009D02*
Y154238D01*
X182119Y156257D02*
X183237Y155800D01*
X182500Y155495D02*
X183237Y155800D01*
X182373Y156054D02*
X182856Y156283D01*
X181763Y154073D02*
X182874Y150819D01*
X181509Y154124D02*
X182692Y150699D01*
X182525Y153819D02*
Y153971D01*
X182729Y153819D02*
Y153971D01*
X182525D02*
X182729D01*
X184524Y155309D02*
X185591Y154115D01*
X184397Y155131D02*
X185311Y154090D01*
X184244Y154979D02*
X184879Y154242D01*
X184981Y153810D02*
Y153963D01*
X184778D02*
X184981D01*
X184778Y153810D02*
Y153963D01*
X184879Y153988D02*
Y154217D01*
X184575Y153810D02*
Y153963D01*
X184371D02*
X184575D01*
X184371Y153810D02*
Y153963D01*
X184473Y153988D02*
Y154217D01*
X183863Y155791D02*
X184981Y156249D01*
X183863Y155791D02*
X184600Y155487D01*
X184244Y156274D02*
X184727Y156045D01*
X184226Y150811D02*
X185337Y154064D01*
X184408Y150690D02*
X185591Y154115D01*
X184596Y150586D02*
X185845Y154166D01*
X184727Y155410D02*
X185819Y154191D01*
D15*
X182551Y155800D02*
G03*
X182551Y155800I-51J0D01*
G01*
X184651Y155791D02*
G03*
X184651Y155791I-51J0D01*
G01*
D16*
X200200Y148600D02*
D03*
Y146600D02*
D03*
X238379Y142698D02*
D03*
Y144698D02*
D03*
X273400Y149100D02*
D03*
X273400Y151100D02*
D03*
D17*
X196800Y146600D02*
D03*
X197750Y148600D02*
D03*
X195850Y148600D02*
D03*
D18*
X198250Y151400D02*
D03*
X200150Y151400D02*
D03*
X256250Y147700D02*
D03*
X254350Y147700D02*
D03*
D19*
X203200Y154500D02*
D03*
X203200Y151100D02*
D03*
D20*
X195800Y151450D02*
D03*
X195800Y154550D02*
D03*
X264400Y149250D02*
D03*
X264400Y146150D02*
D03*
D21*
X230529Y139798D02*
D03*
X233629D02*
D03*
D22*
X215600Y154500D02*
D03*
Y150500D02*
D03*
Y146500D02*
D03*
X276600Y146236D02*
D03*
Y150236D02*
D03*
Y154236D02*
D03*
D23*
X225800Y146500D02*
D03*
Y150500D02*
D03*
Y154500D02*
D03*
X286800Y154236D02*
D03*
Y150236D02*
D03*
Y146236D02*
D03*
D24*
X238400Y149250D02*
D03*
X238400Y151150D02*
D03*
D25*
X198800Y125000D02*
D03*
X196800D02*
D03*
X261600Y147700D02*
D03*
X259600D02*
D03*
X311712Y153063D02*
D03*
X309712D02*
D03*
D26*
X235642Y144706D02*
D03*
Y142806D02*
D03*
X233642Y143756D02*
D03*
X265700Y152250D02*
D03*
X265700Y154150D02*
D03*
X267700Y153200D02*
D03*
X270100Y151100D02*
D03*
X270100Y149200D02*
D03*
X268100Y150150D02*
D03*
D27*
X203900Y108500D02*
D03*
X209100D02*
D03*
X203900Y125000D02*
D03*
X209100D02*
D03*
X259600Y153000D02*
D03*
X254400D02*
D03*
X314900D02*
D03*
X320100D02*
D03*
D28*
X276600Y150236D02*
X291628D01*
X216982Y136747D02*
X220004Y139770D01*
X230500D01*
X211343Y140704D02*
Y149474D01*
X212369Y150500D02*
X225800D01*
X211343Y149474D02*
X212369Y150500D01*
X211343Y140704D02*
X215388Y136659D01*
Y122582D02*
Y136659D01*
X203900Y111094D02*
X215388Y122582D01*
X201453Y103700D02*
X212103D01*
X199793Y105360D02*
Y114088D01*
Y105360D02*
X201453Y103700D01*
X212103D02*
X220703Y112300D01*
X239052D01*
X199793Y114088D02*
X207703Y121997D01*
X203900Y108500D02*
Y111094D01*
X306878Y154236D02*
X308052Y153063D01*
X271550Y155600D02*
X272914Y154236D01*
X306878D01*
X209100Y113800D02*
X216982Y121682D01*
Y136747D01*
X209100Y108500D02*
Y113800D01*
X207735Y121997D02*
X209100Y123363D01*
X207703Y121997D02*
X207735D01*
X209100Y123363D02*
Y125000D01*
X243800Y153896D02*
X245504Y155600D01*
X254400D01*
X243800Y117048D02*
Y153896D01*
X239052Y112300D02*
X243800Y117048D01*
X254400Y153000D02*
X254532Y153132D01*
X265700Y155600D02*
X271550D01*
X254400D02*
X265700D01*
X254400Y153000D02*
Y155600D01*
D29*
X197750Y148600D02*
X200200D01*
X197750Y148600D02*
Y148600D01*
X196800Y137424D02*
Y146600D01*
Y137424D02*
X196800Y137424D01*
X215600Y154515D02*
X225785Y154515D01*
X204480Y154515D02*
X215600D01*
X203162Y154361D02*
Y154525D01*
X203038Y154650D02*
X203162Y154525D01*
X195800Y154550D02*
X203038Y154550D01*
X203200Y154500D02*
X204765Y154500D01*
X195800Y151550D02*
X195850Y151500D01*
X195850D01*
Y148700D02*
Y151500D01*
X195850Y151400D02*
X198250Y151400D01*
X198250Y151500D02*
X198250Y151500D01*
X198250Y151500D02*
X198250Y151500D01*
X238371Y144706D02*
Y149221D01*
X238400Y149250D01*
X225800Y146500D02*
X234846D01*
X235642Y144706D02*
Y145704D01*
X234846Y146500D02*
X235642Y145704D01*
X215600Y146500D02*
X225800D01*
X235642Y144706D02*
X238371D01*
X238379Y144698D01*
X266270Y146200D02*
X286800D01*
X225785Y154515D02*
X225800Y154500D01*
X265700Y154150D02*
Y155600D01*
X264751Y152250D02*
X265700D01*
X264400Y149250D02*
Y151899D01*
X264751Y152250D01*
X265700Y155600D02*
X265700Y155600D01*
X273400Y149100D02*
X273422Y149122D01*
X266220Y146150D02*
X266270Y146200D01*
X264400Y146150D02*
X266220D01*
X254350Y147700D02*
Y149700D01*
X256250Y147700D02*
X259600D01*
Y149700D01*
X259650Y149750D01*
X308052Y153063D02*
X309712D01*
X266719Y147741D02*
X268100Y149122D01*
Y150150D01*
X270100Y151100D02*
Y152456D01*
X269356Y153200D02*
X270100Y152456D01*
X267700Y153200D02*
X269356D01*
X270100Y151100D02*
X273454D01*
X261700Y147700D02*
X266627D01*
X259650Y149750D02*
Y152950D01*
X203791Y125000D02*
X203846Y124946D01*
X198800Y125000D02*
X203791D01*
X196800D02*
Y137424D01*
X203846Y124946D02*
X203900Y125000D01*
X233629Y139798D02*
Y143756D01*
X233642D01*
X259600Y153000D02*
X259650Y152950D01*
X254350Y149700D02*
X254375Y149725D01*
Y152975D02*
X254400Y153000D01*
X254375Y149725D02*
Y152975D01*
X311600Y152900D02*
X314800D01*
X314900Y153000D01*
D30*
X182652Y154327D02*
X183084Y154835D01*
X182500Y155419D02*
X183084Y154835D01*
X184016Y154826D02*
X184448Y154318D01*
X184016Y154826D02*
X184600Y155410D01*
D31*
X178733Y154213D02*
Y155546D01*
X178067Y156213D01*
X177400Y155546D01*
Y154213D01*
Y155213D01*
X178733D01*
X176734Y156213D02*
Y154213D01*
X175401D01*
X174734Y156213D02*
Y154213D01*
X173402D01*
X172735Y156213D02*
X172069D01*
X172402D01*
Y154213D01*
X172735D01*
X172069D01*
X169736Y156213D02*
X171069D01*
Y154213D01*
X169736D01*
X171069Y155213D02*
X170403D01*
X176530Y151105D02*
X177863D01*
X176530Y152438D01*
Y152771D01*
X176863Y153104D01*
X177530D01*
X177863Y152771D01*
X175864D02*
X175530Y153104D01*
X174864D01*
X174531Y152771D01*
Y151438D01*
X174864Y151105D01*
X175530D01*
X175864Y151438D01*
Y152771D01*
X172531Y151105D02*
X173864D01*
X172531Y152438D01*
Y152771D01*
X172865Y153104D01*
X173531D01*
X173864Y152771D01*
X170532Y151105D02*
X171865D01*
X170532Y152438D01*
Y152771D01*
X170865Y153104D01*
X171532D01*
X171865Y152771D01*
M02*
