M48
;Layer_Color=9474304
;FILE_FORMAT=4:3
METRIC,LZ
;TYPE=PLATED
T1F00S00C1.700
T2F00S00C3.200
T3F00S00C5.000
T4F00S00C6.500
T5F00S00C6.700
T7F00S00C10.000
%
T01
X009222Y0145
T02
X02065Y01085
X03175Y0153
X0257
X02065Y0125
T03
X01765Y01
X01865
X01965
X02165
X02265
X02365
T04
X0282Y0103
X0307
X02765Y0121
X02065Y01365
X0138Y0145
X01285Y0125
X0116Y0145
T05
X01065Y0108
X0151
X0257Y01365
X0159Y0145
X0097
T07
X0257Y01065
X03Y01365
M30
