G04*
G04 #@! TF.GenerationSoftware,Altium Limited,Altium Designer,22.6.1 (34)*
G04*
G04 Layer_Color=16711935*
%FSLAX43Y43*%
%MOMM*%
G71*
G04*
G04 #@! TF.SameCoordinates,803D867A-FBB8-4861-8CED-52EA4F5CAD2C*
G04*
G04*
G04 #@! TF.FilePolarity,Negative*
G04*
G01*
G75*
%ADD10C,0.500*%
%ADD11C,0.203*%
%ADD12R,0.203X0.203*%
%ADD13C,3.403*%
%ADD15C,0.152*%
%ADD16C,0.102*%
%ADD31C,0.254*%
%ADD32C,0.400*%
%ADD33R,1.703X1.603*%
%ADD34R,0.803X2.003*%
%ADD35R,1.703X1.803*%
%ADD36R,1.053X1.803*%
%ADD37R,2.103X1.703*%
%ADD38R,1.703X2.103*%
%ADD39R,2.603X1.803*%
%ADD40R,5.003X2.603*%
%ADD41R,1.803X1.703*%
%ADD42R,1.603X1.703*%
%ADD43R,2.003X0.803*%
%ADD44R,1.603X2.803*%
D10*
X328000Y158000D02*
G03*
X326000Y160000I-2000J0D01*
G01*
X326000Y90000D02*
G03*
X328000Y92000I0J2000D01*
G01*
X85000D02*
G03*
X87000Y90000I2000J0D01*
G01*
Y160000D02*
G03*
X85000Y158000I0J-2000D01*
G01*
X87000Y160000D02*
X326000D01*
X328000Y158000D02*
X328000Y92000D01*
X326000Y89987D02*
Y90000D01*
X87000Y90000D02*
X326000D01*
X85000Y92000D02*
Y158000D01*
D11*
X106500Y108000D02*
D03*
X116000Y145000D02*
D03*
X159000D02*
D03*
X257000Y136500D02*
D03*
X276500Y121000D02*
D03*
X307000Y103000D02*
D03*
X282000D02*
D03*
X92220Y145000D02*
D03*
X97000D02*
D03*
X138000D02*
D03*
X300000Y136500D02*
D03*
X128500Y125000D02*
D03*
X151000Y108000D02*
D03*
X257000Y106500D02*
D03*
X216500Y100000D02*
D03*
X206500Y136500D02*
D03*
X176500Y100000D02*
D03*
X186500D02*
D03*
X196500D02*
D03*
X226500D02*
D03*
X236500D02*
D03*
D12*
X186500Y125000D02*
D03*
X226500D02*
D03*
D13*
X206500Y108500D02*
D03*
Y125000D02*
D03*
X257000Y153000D02*
D03*
X317500D02*
D03*
D15*
X182779Y155800D02*
G03*
X182779Y155800I-279J0D01*
G01*
X184879Y155791D02*
G03*
X184879Y155791I-279J0D01*
G01*
X182119Y156257D02*
X183237Y155800D01*
X182373Y156054D02*
X182856Y156283D01*
X182500Y155495D02*
X183237Y155800D01*
X181255Y154174D02*
X182424Y155470D01*
X181509Y154124D02*
X182576Y155317D01*
X181789Y154098D02*
X182703Y155140D01*
X182221Y154251D02*
X182856Y154987D01*
X182221Y154022D02*
Y154251D01*
X182119Y153819D02*
Y153971D01*
X182322Y153819D02*
Y153971D01*
X182119D02*
X182322D01*
X182525D02*
X182729D01*
X182627Y154035D02*
Y154263D01*
X182525Y153819D02*
Y153971D01*
X182729Y153819D02*
Y153971D01*
X181763Y154073D02*
X182872Y150827D01*
X181509Y154124D02*
X182692Y150699D01*
X181255Y154174D02*
X182500Y150593D01*
X183863Y155791D02*
X184981Y156249D01*
X184244Y156274D02*
X184727Y156045D01*
X183863Y155791D02*
X184600Y155487D01*
X184672Y155475D02*
X185845Y154166D01*
X184524Y155309D02*
X185591Y154115D01*
X184397Y155131D02*
X185311Y154090D01*
X184244Y154979D02*
X184879Y154242D01*
X184473Y154013D02*
Y154242D01*
X184371Y153810D02*
Y153963D01*
X184575Y153810D02*
Y153963D01*
X184371D02*
X184575D01*
X184778D02*
X184981D01*
X184879Y154013D02*
Y154242D01*
X184778Y153810D02*
Y153963D01*
X184981Y153810D02*
Y153963D01*
X184228Y150818D02*
X185337Y154064D01*
X184408Y150691D02*
X185591Y154115D01*
X184596Y150586D02*
X185845Y154166D01*
D16*
X182551Y155800D02*
G03*
X182551Y155800I-51J0D01*
G01*
X184651Y155791D02*
G03*
X184651Y155791I-51J0D01*
G01*
D31*
X182500Y155419D02*
X183084Y154835D01*
X182652Y154327D02*
X183084Y154835D01*
X184016Y154826D02*
X184600Y155410D01*
X184016Y154826D02*
X184448Y154318D01*
D32*
X176530Y151105D02*
X177863D01*
X176530Y152438D01*
Y152771D01*
X176863Y153104D01*
X177530D01*
X177863Y152771D01*
X175864D02*
X175530Y153104D01*
X174864D01*
X174531Y152771D01*
Y151438D01*
X174864Y151105D01*
X175530D01*
X175864Y151438D01*
Y152771D01*
X172531Y151105D02*
X173864D01*
X172531Y152438D01*
Y152771D01*
X172865Y153104D01*
X173531D01*
X173864Y152771D01*
X170532Y151105D02*
X171865D01*
X170532Y152438D01*
Y152771D01*
X170865Y153104D01*
X171532D01*
X171865Y152771D01*
X178733Y154213D02*
Y155546D01*
X178067Y156213D01*
X177400Y155546D01*
Y154213D01*
Y155213D01*
X178733D01*
X176734Y156213D02*
Y154213D01*
X175401D01*
X174734Y156213D02*
Y154213D01*
X173402D01*
X172735Y156213D02*
X172069D01*
X172402D01*
Y154213D01*
X172735D01*
X172069D01*
X169736Y156213D02*
X171069D01*
Y154213D01*
X169736D01*
X171069Y155213D02*
X170403D01*
D33*
X200200Y148600D02*
D03*
Y146600D02*
D03*
X238379Y142698D02*
D03*
Y144698D02*
D03*
X273400Y149100D02*
D03*
X273400Y151100D02*
D03*
D34*
X196800Y146600D02*
D03*
X197750Y148600D02*
D03*
X195850Y148600D02*
D03*
D35*
X198250Y151400D02*
D03*
X200150Y151400D02*
D03*
X256250Y147700D02*
D03*
X254350Y147700D02*
D03*
D36*
X203200Y154500D02*
D03*
X203200Y151100D02*
D03*
D37*
X195800Y151450D02*
D03*
X195800Y154550D02*
D03*
X264400Y149250D02*
D03*
X264400Y146150D02*
D03*
D38*
X230529Y139798D02*
D03*
X233629D02*
D03*
D39*
X215600Y154500D02*
D03*
Y150500D02*
D03*
Y146500D02*
D03*
X276600Y146236D02*
D03*
Y150236D02*
D03*
Y154236D02*
D03*
D40*
X225800Y146500D02*
D03*
Y150500D02*
D03*
Y154500D02*
D03*
X286800Y154236D02*
D03*
Y150236D02*
D03*
Y146236D02*
D03*
D41*
X238400Y149250D02*
D03*
X238400Y151150D02*
D03*
D42*
X198800Y125000D02*
D03*
X196800D02*
D03*
X261600Y147700D02*
D03*
X259600D02*
D03*
X311712Y153063D02*
D03*
X309712D02*
D03*
D43*
X235642Y144706D02*
D03*
Y142806D02*
D03*
X233642Y143756D02*
D03*
X265700Y152250D02*
D03*
X265700Y154150D02*
D03*
X267700Y153200D02*
D03*
X270100Y151100D02*
D03*
X270100Y149200D02*
D03*
X268100Y150150D02*
D03*
D44*
X203900Y108500D02*
D03*
X209100D02*
D03*
X203900Y125000D02*
D03*
X209100D02*
D03*
X259600Y153000D02*
D03*
X254400D02*
D03*
X314900D02*
D03*
X320100D02*
D03*
M02*
