G04*
G04 #@! TF.GenerationSoftware,Altium Limited,Altium Designer,22.6.1 (34)*
G04*
G04 Layer_Color=8388736*
%FSLAX43Y43*%
%MOMM*%
G71*
G04*
G04 #@! TF.SameCoordinates,803D867A-FBB8-4861-8CED-52EA4F5CAD2C*
G04*
G04*
G04 #@! TF.FilePolarity,Negative*
G04*
G01*
G75*
%ADD10C,0.500*%
%ADD11C,0.203*%
%ADD12R,0.203X0.203*%
%ADD13C,3.403*%
D10*
X328000Y158000D02*
G03*
X326000Y160000I-2000J0D01*
G01*
X326000Y90000D02*
G03*
X328000Y92000I0J2000D01*
G01*
X85000D02*
G03*
X87000Y90000I2000J0D01*
G01*
Y160000D02*
G03*
X85000Y158000I0J-2000D01*
G01*
X87000Y160000D02*
X326000D01*
X328000Y158000D02*
X328000Y92000D01*
X326000Y89987D02*
Y90000D01*
X87000Y90000D02*
X326000D01*
X85000Y92000D02*
Y158000D01*
D11*
X106500Y108000D02*
D03*
X116000Y145000D02*
D03*
X159000D02*
D03*
X257000Y136500D02*
D03*
X276500Y121000D02*
D03*
X307000Y103000D02*
D03*
X282000D02*
D03*
X92220Y145000D02*
D03*
X97000D02*
D03*
X138000D02*
D03*
X300000Y136500D02*
D03*
X128500Y125000D02*
D03*
X151000Y108000D02*
D03*
X257000Y106500D02*
D03*
X216500Y100000D02*
D03*
X206500Y136500D02*
D03*
X176500Y100000D02*
D03*
X186500D02*
D03*
X196500D02*
D03*
X226500D02*
D03*
X236500D02*
D03*
D12*
X186500Y125000D02*
D03*
X226500D02*
D03*
D13*
X206500Y108500D02*
D03*
Y125000D02*
D03*
X257000Y153000D02*
D03*
X317500D02*
D03*
M02*
