G04*
G04 #@! TF.GenerationSoftware,Altium Limited,Altium Designer,22.6.1 (34)*
G04*
G04 Layer_Color=8421504*
%FSLAX43Y43*%
%MOMM*%
G71*
G04*
G04 #@! TF.SameCoordinates,AAD44367-0764-4FA4-9AEF-FD5D00886B8E*
G04*
G04*
G04 #@! TF.FilePolarity,Positive*
G04*
G01*
G75*
%ADD11C,0.600*%
%ADD13C,0.500*%
%ADD15R,1.600X1.500*%
G04:AMPARAMS|DCode=16|XSize=1.5mm|YSize=1.4mm|CornerRadius=0mm|HoleSize=0mm|Usage=FLASHONLY|Rotation=225.000|XOffset=0mm|YOffset=0mm|HoleType=Round|Shape=Rectangle|*
%AMROTATEDRECTD16*
4,1,4,0.035,1.025,1.025,0.035,-0.035,-1.025,-1.025,-0.035,0.035,1.025,0.0*
%
%ADD16ROTATEDRECTD16*%

%ADD17R,1.400X1.500*%
%ADD18O,2.600X0.700*%
%ADD19R,2.600X0.700*%
%ADD20R,1.500X1.400*%
%ADD21R,1.500X1.600*%
%ADD22R,1.800X0.600*%
%ADD23R,0.600X1.800*%
%ADD24R,1.800X2.400*%
%ADD25O,0.700X2.500*%
%ADD26O,0.600X2.200*%
%ADD27O,2.200X0.600*%
%ADD28R,1.500X1.900*%
%ADD29R,3.300X2.700*%
%ADD30R,1.000X2.700*%
%ADD31R,2.200X3.500*%
%ADD32C,1.000*%
D11*
X143300Y118200D02*
X143377Y118277D01*
D13*
X97502Y93000D02*
X315500D01*
X315500Y158000D02*
X315500Y93000D01*
X97502Y158000D02*
X315500D01*
X97502D02*
X97502Y93000D01*
D15*
X125000Y97850D02*
D03*
Y95950D02*
D03*
X113400Y118150D02*
D03*
Y116250D02*
D03*
X232000Y150050D02*
D03*
Y151950D02*
D03*
X229500Y150050D02*
D03*
X229500Y151950D02*
D03*
X159700Y132450D02*
D03*
Y130550D02*
D03*
X162380Y132464D02*
D03*
Y130564D02*
D03*
X149904Y134229D02*
D03*
X149904Y136129D02*
D03*
X143700Y140450D02*
D03*
Y138550D02*
D03*
X126900Y136950D02*
D03*
X126900Y138850D02*
D03*
X115555Y117697D02*
D03*
Y115797D02*
D03*
X129000Y108550D02*
D03*
X129000Y110450D02*
D03*
X287400Y119950D02*
D03*
Y121850D02*
D03*
X290287Y119955D02*
D03*
Y121855D02*
D03*
X276144Y144096D02*
D03*
Y142196D02*
D03*
X278901Y144090D02*
D03*
X278901Y142190D02*
D03*
X289400Y113850D02*
D03*
X289400Y111950D02*
D03*
X286500Y113850D02*
D03*
X286500Y111950D02*
D03*
X173700Y119650D02*
D03*
X173700Y117750D02*
D03*
X170900Y120150D02*
D03*
X170900Y118250D02*
D03*
D16*
X138793Y103107D02*
D03*
X140207Y101693D02*
D03*
D17*
X108700Y145000D02*
D03*
X110700D02*
D03*
X129700Y140350D02*
D03*
X131700Y140350D02*
D03*
X235500Y145700D02*
D03*
X237500D02*
D03*
X269601Y149144D02*
D03*
X271601D02*
D03*
X150504Y123661D02*
D03*
X148504D02*
D03*
X100200Y116600D02*
D03*
X102200Y116600D02*
D03*
X110678Y142580D02*
D03*
X108678D02*
D03*
X147500Y98900D02*
D03*
X145500Y98900D02*
D03*
X277801Y152540D02*
D03*
X279801Y152540D02*
D03*
X279801Y149140D02*
D03*
X277801Y149140D02*
D03*
X167500Y141100D02*
D03*
X169500D02*
D03*
X104251Y120623D02*
D03*
X106251D02*
D03*
X289125Y97925D02*
D03*
X291125D02*
D03*
X277601Y136040D02*
D03*
X279601D02*
D03*
D18*
X196300Y151600D02*
D03*
Y154140D02*
D03*
Y149060D02*
D03*
X186300D02*
D03*
Y151600D02*
D03*
D19*
Y154140D02*
D03*
D20*
X290900Y104200D02*
D03*
Y102200D02*
D03*
X231800Y146400D02*
D03*
X231800Y144400D02*
D03*
X222327Y144728D02*
D03*
Y146728D02*
D03*
X182500Y149600D02*
D03*
X207600Y152100D02*
D03*
X182500Y151600D02*
D03*
X207600Y154100D02*
D03*
X285101Y134540D02*
D03*
Y136540D02*
D03*
X171100Y126500D02*
D03*
Y124500D02*
D03*
X168600Y131600D02*
D03*
Y133600D02*
D03*
X150579Y121654D02*
D03*
Y119654D02*
D03*
X120400Y116800D02*
D03*
Y114800D02*
D03*
X132100Y110400D02*
D03*
X132100Y112400D02*
D03*
X168100Y118300D02*
D03*
Y116300D02*
D03*
X143800Y127000D02*
D03*
Y125000D02*
D03*
X154434Y118739D02*
D03*
Y120739D02*
D03*
X294200Y111800D02*
D03*
Y109800D02*
D03*
X282300Y133000D02*
D03*
X282300Y135000D02*
D03*
X120200Y120000D02*
D03*
Y122000D02*
D03*
D21*
X226850Y148800D02*
D03*
X224950D02*
D03*
X183850Y146600D02*
D03*
X185750Y146600D02*
D03*
X115065Y136349D02*
D03*
X116965D02*
D03*
X123850Y109100D02*
D03*
X125750D02*
D03*
X129850Y100375D02*
D03*
X131750Y100375D02*
D03*
X124450Y136100D02*
D03*
X122550Y136100D02*
D03*
X163650Y118700D02*
D03*
X165550Y118700D02*
D03*
X131850Y137700D02*
D03*
X129950D02*
D03*
X129950Y135000D02*
D03*
X131850D02*
D03*
X122550Y111200D02*
D03*
X120650D02*
D03*
X102950Y124700D02*
D03*
X101050D02*
D03*
X129050Y105900D02*
D03*
X130950Y105900D02*
D03*
X129750Y103100D02*
D03*
X131650Y103100D02*
D03*
X114750Y133300D02*
D03*
X116650Y133300D02*
D03*
X287550Y108100D02*
D03*
X289450Y108100D02*
D03*
X287251Y145640D02*
D03*
X285351Y145640D02*
D03*
D22*
X228725Y144778D02*
D03*
X228725Y146678D02*
D03*
X226725Y145728D02*
D03*
D23*
X206625Y127200D02*
D03*
X207575Y129200D02*
D03*
X205675D02*
D03*
X125350Y143300D02*
D03*
X123450Y143300D02*
D03*
X124400Y141300D02*
D03*
D24*
X251500Y146950D02*
D03*
X251500Y151050D02*
D03*
D25*
X124692Y105416D02*
D03*
X123422Y105416D02*
D03*
X122152Y105416D02*
D03*
X120882Y105416D02*
D03*
X119612Y105416D02*
D03*
X118342Y105416D02*
D03*
X117072Y105416D02*
D03*
X115802Y105416D02*
D03*
X124692Y100516D02*
D03*
X123422Y100516D02*
D03*
X122152Y100516D02*
D03*
X120882Y100516D02*
D03*
X119612Y100516D02*
D03*
X118342Y100516D02*
D03*
X117072Y100516D02*
D03*
X115802Y100516D02*
D03*
D26*
X168505Y128675D02*
D03*
X167235Y128675D02*
D03*
X165965Y128675D02*
D03*
X164695Y128675D02*
D03*
X168505Y122925D02*
D03*
X167235Y122925D02*
D03*
X165965D02*
D03*
X164695Y122925D02*
D03*
X108656Y130454D02*
D03*
X109926Y130454D02*
D03*
X111196Y130454D02*
D03*
X112466Y130454D02*
D03*
X108656Y136204D02*
D03*
X109926Y136204D02*
D03*
X111196Y136204D02*
D03*
X112466Y136204D02*
D03*
D27*
X146579Y129766D02*
D03*
X146579Y127226D02*
D03*
X146579Y125956D02*
D03*
X152329Y129766D02*
D03*
X152329Y128496D02*
D03*
X152329Y125956D02*
D03*
X146579Y128496D02*
D03*
X152329Y127226D02*
D03*
D28*
X116550Y126900D02*
D03*
X119650Y126900D02*
D03*
D29*
X138700Y113750D02*
D03*
D30*
X141000Y107850D02*
D03*
X138700D02*
D03*
X136400D02*
D03*
D31*
X159300Y102500D02*
D03*
X164700Y102500D02*
D03*
D32*
X143288Y118188D02*
X143300Y118200D01*
M02*
