G04*
G04 #@! TF.GenerationSoftware,Altium Limited,Altium Designer,22.6.1 (34)*
G04*
G04 Layer_Color=65535*
%FSLAX43Y43*%
%MOMM*%
G71*
G04*
G04 #@! TF.SameCoordinates,2E3A46DB-1EF5-4CD4-91FC-F2C1E03D2978*
G04*
G04*
G04 #@! TF.FilePolarity,Positive*
G04*
G01*
G75*
%ADD10C,0.254*%
%ADD11C,0.600*%
%ADD12C,0.250*%
%ADD13C,0.500*%
%ADD14C,0.200*%
D10*
X158137Y108000D02*
G03*
X158137Y108000I-7137J0D01*
G01*
X114500D02*
G03*
X114500Y108000I-8000J0D01*
G01*
X230900Y109400D02*
Y140600D01*
X222100Y109400D02*
X230900Y109400D01*
X222100Y109400D02*
Y140600D01*
X230900Y140600D01*
X222100Y133500D02*
X230900D01*
X222100Y116500D02*
X230900D01*
X190900Y109400D02*
Y140600D01*
X182100Y109400D02*
X190900Y109400D01*
X182100Y109400D02*
Y140600D01*
X190900Y140600D01*
X182100Y133500D02*
X190900D01*
X182100Y116500D02*
X190900D01*
X293600Y142900D02*
X300000D01*
X293600Y130100D02*
Y142900D01*
Y130100D02*
X306400D01*
Y142900D01*
X300000D02*
X306400D01*
X257000D02*
X263400D01*
Y130100D02*
Y142900D01*
X250600Y130100D02*
X263400D01*
X250600D02*
Y142900D01*
X257000D01*
X163933Y124149D02*
X163933Y127451D01*
X169267Y127451D01*
X169267Y124149D01*
X163933Y124149D02*
X169267Y124149D01*
X147803Y130528D02*
X147803Y125194D01*
X151105Y125194D01*
X151105Y130528D02*
X151105Y125194D01*
X147803Y130528D02*
X151105Y130528D01*
X107894Y131678D02*
X113228Y131678D01*
X113228Y134980D01*
X107894Y134980D02*
X113228Y134980D01*
X107894Y134980D02*
X107894Y131678D01*
X290273Y99999D02*
Y100998D01*
X290773D01*
X290939Y100832D01*
Y100499D01*
X290773Y100332D01*
X290273D01*
X290606D02*
X290939Y99999D01*
X291273Y100998D02*
X291939D01*
Y100832D01*
X291273Y100165D01*
Y99999D01*
X292939Y100998D02*
X292605Y100832D01*
X292272Y100499D01*
Y100165D01*
X292439Y99999D01*
X292772D01*
X292939Y100165D01*
Y100332D01*
X292772Y100499D01*
X292272D01*
X156334Y132033D02*
X156167Y132200D01*
X155834D01*
X155667Y132033D01*
Y131367D01*
X155834Y131200D01*
X156167D01*
X156334Y131367D01*
X157333Y131200D02*
X156667D01*
X157333Y131867D01*
Y132033D01*
X157167Y132200D01*
X156833D01*
X156667Y132033D01*
X158333Y131200D02*
X157666D01*
X158333Y131867D01*
Y132033D01*
X158166Y132200D01*
X157833D01*
X157666Y132033D01*
D11*
X186647Y155791D02*
G03*
X186647Y155791I-300J0D01*
G01*
X126300Y106608D02*
G03*
X126300Y106608I-300J0D01*
G01*
D12*
X189139Y154140D02*
G03*
X189139Y154140I-125J0D01*
G01*
X228850Y143928D02*
G03*
X228850Y143928I-125J0D01*
G01*
X208508Y128417D02*
G03*
X208508Y128417I-125J0D01*
G01*
X124744Y103287D02*
G03*
X124744Y103287I-125J0D01*
G01*
X126325Y143300D02*
G03*
X126325Y143300I-125J0D01*
G01*
X135475Y107850D02*
G03*
X135475Y107850I-125J0D01*
G01*
X115032Y114365D02*
X114866Y114532D01*
X114533D01*
X114366Y114365D01*
Y113698D01*
X114533Y113532D01*
X114866D01*
X115032Y113698D01*
X115366Y113532D02*
X115699D01*
X115532D01*
Y114532D01*
X115366Y114365D01*
X116199D02*
X116365Y114532D01*
X116698D01*
X116865Y114365D01*
Y114198D01*
X116698Y114032D01*
X116532D01*
X116698D01*
X116865Y113865D01*
Y113698D01*
X116698Y113532D01*
X116365D01*
X116199Y113698D01*
X108344Y119016D02*
X108178Y119182D01*
X107845D01*
X107678Y119016D01*
Y118349D01*
X107845Y118183D01*
X108178D01*
X108344Y118349D01*
X108678Y118183D02*
X109011D01*
X108844D01*
Y119182D01*
X108678Y119016D01*
X110011Y118183D02*
Y119182D01*
X109511Y118683D01*
X110177D01*
X121583Y112996D02*
Y113996D01*
X122083D01*
X122250Y113829D01*
Y113496D01*
X122083Y113330D01*
X121583D01*
X121917D02*
X122250Y112996D01*
X122583D02*
X122916D01*
X122750D01*
Y113996D01*
X122583Y113829D01*
X124082Y113996D02*
X123749Y113829D01*
X123416Y113496D01*
Y113163D01*
X123583Y112996D01*
X123916D01*
X124082Y113163D01*
Y113330D01*
X123916Y113496D01*
X123416D01*
X98550Y143945D02*
X99216D01*
X98883D01*
Y142945D01*
X99550D02*
Y143611D01*
X99883Y143945D01*
X100216Y143611D01*
Y142945D01*
Y143445D01*
X99550D01*
X100549Y142945D02*
Y143945D01*
X101049D01*
X101216Y143778D01*
Y143445D01*
X101049Y143278D01*
X100549D01*
X104306Y142468D02*
X104139Y142634D01*
X103806D01*
X103640Y142468D01*
Y141801D01*
X103806Y141635D01*
X104139D01*
X104306Y141801D01*
X105306Y142468D02*
X105139Y142634D01*
X104806D01*
X104639Y142468D01*
Y141801D01*
X104806Y141635D01*
X105139D01*
X105306Y141801D01*
X105639Y142634D02*
Y141635D01*
X105972Y141968D01*
X106305Y141635D01*
Y142634D01*
X99500Y136132D02*
X99334Y136299D01*
X99000D01*
X98834Y136132D01*
Y135466D01*
X99000Y135299D01*
X99334D01*
X99500Y135466D01*
X99834Y136299D02*
Y135299D01*
X100167Y135632D01*
X100500Y135299D01*
Y136299D01*
X102225Y135441D02*
Y136441D01*
X102725D01*
X102891Y136274D01*
Y135941D01*
X102725Y135775D01*
X102225D01*
X103391Y135441D02*
X103724D01*
X103891Y135608D01*
Y135941D01*
X103724Y136108D01*
X103391D01*
X103225Y135941D01*
Y135608D01*
X103391Y135441D01*
X104391Y136274D02*
Y136108D01*
X104224D01*
X104557D01*
X104391D01*
Y135608D01*
X104557Y135441D01*
X105724D02*
X105057D01*
X105724Y136108D01*
Y136274D01*
X105557Y136441D01*
X105224D01*
X105057Y136274D01*
X107720Y154749D02*
Y155749D01*
X108220D01*
X108386Y155582D01*
Y155249D01*
X108220Y155082D01*
X107720D01*
X108886Y154749D02*
X109220D01*
X109386Y154915D01*
Y155249D01*
X109220Y155415D01*
X108886D01*
X108720Y155249D01*
Y154915D01*
X108886Y154749D01*
X109886Y155582D02*
Y155415D01*
X109719D01*
X110053D01*
X109886D01*
Y154915D01*
X110053Y154749D01*
X111219D02*
X110552D01*
X111219Y155415D01*
Y155582D01*
X111052Y155749D01*
X110719D01*
X110552Y155582D01*
X111552D02*
X111719Y155749D01*
X112052D01*
X112219Y155582D01*
Y154915D01*
X112052Y154749D01*
X111719D01*
X111552Y154915D01*
Y155582D01*
X106316Y153483D02*
X106150Y153650D01*
X105817D01*
X105650Y153483D01*
Y152817D01*
X105817Y152650D01*
X106150D01*
X106316Y152817D01*
X107316Y153483D02*
X107150Y153650D01*
X106816D01*
X106650Y153483D01*
Y152817D01*
X106816Y152650D01*
X107150D01*
X107316Y152817D01*
X107649Y153650D02*
Y152650D01*
X107983Y152983D01*
X108316Y152650D01*
Y153650D01*
X107016Y149283D02*
X106850Y149450D01*
X106517D01*
X106350Y149283D01*
Y148617D01*
X106517Y148450D01*
X106850D01*
X107016Y148617D01*
X107350Y149450D02*
Y148450D01*
X107683Y148783D01*
X108016Y148450D01*
Y149450D01*
X148750Y142150D02*
X149416D01*
X149083D01*
Y141150D01*
X149750D02*
Y141816D01*
X150083Y142150D01*
X150416Y141816D01*
Y141150D01*
Y141650D01*
X149750D01*
X150749Y141150D02*
Y142150D01*
X151249D01*
X151416Y141983D01*
Y141650D01*
X151249Y141483D01*
X150749D01*
X145502Y144282D02*
Y145282D01*
X146002D01*
X146169Y145115D01*
Y144782D01*
X146002Y144616D01*
X145502D01*
X146669Y144282D02*
X147002D01*
X147169Y144449D01*
Y144782D01*
X147002Y144949D01*
X146669D01*
X146502Y144782D01*
Y144449D01*
X146669Y144282D01*
X147668Y145115D02*
Y144949D01*
X147502D01*
X147835D01*
X147668D01*
Y144449D01*
X147835Y144282D01*
X149001D02*
X148335D01*
X149001Y144949D01*
Y145115D01*
X148835Y145282D01*
X148501D01*
X148335Y145115D01*
X149334D02*
X149501Y145282D01*
X149834D01*
X150001Y145115D01*
Y144449D01*
X149834Y144282D01*
X149501D01*
X149334Y144449D01*
Y145115D01*
X120250Y142850D02*
Y142517D01*
X120417Y142350D01*
X121083D01*
X121250Y142517D01*
Y142850D01*
X121083Y143016D01*
X120417D01*
X120250Y142850D01*
X121250Y143516D02*
X120417D01*
X120750D01*
Y143350D01*
Y143683D01*
Y143516D01*
X120417D01*
X120250Y143683D01*
X121250Y144349D02*
X120417D01*
X120750D01*
Y144183D01*
Y144516D01*
Y144349D01*
X120417D01*
X120250Y144516D01*
X121250Y145016D02*
Y145516D01*
X121083Y145682D01*
X120917Y145516D01*
Y145182D01*
X120750Y145016D01*
X120584Y145182D01*
Y145682D01*
X121250Y146515D02*
Y146182D01*
X121083Y146015D01*
X120750D01*
X120584Y146182D01*
Y146515D01*
X120750Y146682D01*
X120917D01*
Y146015D01*
X120417Y147182D02*
X120584D01*
Y147015D01*
Y147348D01*
Y147182D01*
X121083D01*
X121250Y147348D01*
X159424Y107513D02*
X159258Y107680D01*
X158925D01*
X158758Y107513D01*
Y107347D01*
X158925Y107180D01*
X159258D01*
X159424Y107013D01*
Y106847D01*
X159258Y106680D01*
X158925D01*
X158758Y106847D01*
X159924Y107513D02*
Y107347D01*
X159758D01*
X160091D01*
X159924D01*
Y106847D01*
X160091Y106680D01*
X161091D02*
X160757D01*
X160591Y106847D01*
Y107180D01*
X160757Y107347D01*
X161091D01*
X161257Y107180D01*
Y107013D01*
X160591D01*
X161590Y106347D02*
Y107347D01*
X162090D01*
X162257Y107180D01*
Y106847D01*
X162090Y106680D01*
X161590D01*
X164090Y107680D02*
X163756D01*
X163590Y107513D01*
Y106847D01*
X163756Y106680D01*
X164090D01*
X164256Y106847D01*
Y107513D01*
X164090Y107680D01*
X164589Y107347D02*
Y106847D01*
X164756Y106680D01*
X165256D01*
Y107347D01*
X165756Y107513D02*
Y107347D01*
X165589D01*
X165922D01*
X165756D01*
Y106847D01*
X165922Y106680D01*
X166422Y106347D02*
Y107347D01*
X166922D01*
X167089Y107180D01*
Y106847D01*
X166922Y106680D01*
X166422D01*
X167422Y107347D02*
Y106847D01*
X167588Y106680D01*
X168088D01*
Y107347D01*
X168588Y107513D02*
Y107347D01*
X168422D01*
X168755D01*
X168588D01*
Y106847D01*
X168755Y106680D01*
X99000Y98951D02*
Y99951D01*
X99334D02*
Y98951D01*
X98834Y99617D02*
X99334D01*
X99500D01*
X98834Y99284D02*
X99500D01*
X100500Y99784D02*
X100333Y99951D01*
X100000D01*
X99834Y99784D01*
Y99617D01*
X100000Y99451D01*
X100333D01*
X100500Y99284D01*
Y99118D01*
X100333Y98951D01*
X100000D01*
X99834Y99118D01*
X101000Y99784D02*
Y99617D01*
X100833D01*
X101166D01*
X101000D01*
Y99118D01*
X101166Y98951D01*
X102166D02*
X101833D01*
X101666Y99118D01*
Y99451D01*
X101833Y99617D01*
X102166D01*
X102333Y99451D01*
Y99284D01*
X101666D01*
X102666Y98618D02*
Y99617D01*
X103166D01*
X103332Y99451D01*
Y99118D01*
X103166Y98951D01*
X102666D01*
X103666D02*
X104165D01*
X104332Y99118D01*
X104165Y99284D01*
X103832D01*
X103666Y99451D01*
X103832Y99617D01*
X104332D01*
X135725Y122204D02*
Y121204D01*
X136225D01*
X136391Y121371D01*
Y121537D01*
X136225Y121704D01*
X135725D01*
X136225D01*
X136391Y121870D01*
Y122037D01*
X136225Y122204D01*
X135725D01*
X137391D02*
X137058D01*
X137225D01*
Y121371D01*
X137058Y121204D01*
X136891D01*
X136725Y121371D01*
X137724Y122204D02*
X138391D01*
X138058D01*
Y121204D01*
X138724D02*
X139390Y121870D01*
X140390Y122204D02*
X139724D01*
Y121704D01*
X140057D01*
X139724D01*
Y121204D01*
X141390Y122204D02*
X140723D01*
Y121204D01*
X141390D01*
X140723Y121704D02*
X141057D01*
X141723Y122204D02*
X142390D01*
X142056D01*
Y121204D01*
X296492Y144890D02*
Y144223D01*
X296825Y143890D01*
X297158Y144223D01*
Y144890D01*
X297658Y143890D02*
X297992D01*
X298158Y144056D01*
Y144390D01*
X297992Y144556D01*
X297658D01*
X297492Y144390D01*
Y144056D01*
X297658Y143890D01*
X298491D02*
X298825D01*
X298658D01*
Y144890D01*
X298491D01*
X299491Y144723D02*
Y144556D01*
X299324D01*
X299658D01*
X299491D01*
Y144056D01*
X299658Y143890D01*
X300324Y144556D02*
X300657D01*
X300824Y144390D01*
Y143890D01*
X300324D01*
X300157Y144056D01*
X300324Y144223D01*
X300824D01*
X301490Y143557D02*
X301657D01*
X301824Y143723D01*
Y144556D01*
X301324D01*
X301157Y144390D01*
Y144056D01*
X301324Y143890D01*
X301824D01*
X302657D02*
X302323D01*
X302157Y144056D01*
Y144390D01*
X302323Y144556D01*
X302657D01*
X302823Y144390D01*
Y144223D01*
X302157D01*
X162450Y155150D02*
Y156150D01*
X163116Y155150D01*
Y156150D01*
X163450Y155150D02*
X164116Y155816D01*
X164449Y155150D02*
Y156150D01*
X164949D01*
X165116Y155983D01*
Y155650D01*
X164949Y155483D01*
X164449D01*
X257666Y144473D02*
X257500Y144640D01*
X257167D01*
X257000Y144473D01*
Y143807D01*
X257167Y143640D01*
X257500D01*
X257666Y143807D01*
X258000Y144306D02*
Y143807D01*
X258166Y143640D01*
X258666D01*
Y144306D01*
X258999D02*
Y143640D01*
Y143973D01*
X259166Y144140D01*
X259333Y144306D01*
X259499D01*
X259999D02*
Y143640D01*
Y143973D01*
X260166Y144140D01*
X260332Y144306D01*
X260499D01*
X261499Y143640D02*
X261165D01*
X260999Y143807D01*
Y144140D01*
X261165Y144306D01*
X261499D01*
X261665Y144140D01*
Y143973D01*
X260999D01*
X261998Y143640D02*
Y144306D01*
X262498D01*
X262665Y144140D01*
Y143640D01*
X263165Y144473D02*
Y144306D01*
X262998D01*
X263331D01*
X263165D01*
Y143807D01*
X263331Y143640D01*
X250216Y114916D02*
X250050Y115083D01*
X249717D01*
X249550Y114916D01*
Y114250D01*
X249717Y114083D01*
X250050D01*
X250216Y114250D01*
X250550Y114750D02*
Y114250D01*
X250716Y114083D01*
X251216D01*
Y114750D01*
X251549D02*
Y114083D01*
Y114416D01*
X251716Y114583D01*
X251883Y114750D01*
X252049D01*
X252549D02*
Y114083D01*
Y114416D01*
X252716Y114583D01*
X252882Y114750D01*
X253049D01*
X254049Y114083D02*
X253715D01*
X253549Y114250D01*
Y114583D01*
X253715Y114750D01*
X254049D01*
X254215Y114583D01*
Y114416D01*
X253549D01*
X254548Y114083D02*
Y114750D01*
X255048D01*
X255215Y114583D01*
Y114083D01*
X255715Y114916D02*
Y114750D01*
X255548D01*
X255881D01*
X255715D01*
Y114250D01*
X255881Y114083D01*
X257381D02*
Y115083D01*
X257881D01*
X258047Y114916D01*
Y114583D01*
X257881Y114416D01*
X257381D01*
X257714D02*
X258047Y114083D01*
X258547Y114750D02*
X258880D01*
X259047Y114583D01*
Y114083D01*
X258547D01*
X258380Y114250D01*
X258547Y114416D01*
X259047D01*
X259380Y114083D02*
Y114750D01*
X259880D01*
X260047Y114583D01*
Y114083D01*
X260713Y113750D02*
X260880D01*
X261046Y113917D01*
Y114750D01*
X260546D01*
X260380Y114583D01*
Y114250D01*
X260546Y114083D01*
X261046D01*
X261879D02*
X261546D01*
X261380Y114250D01*
Y114583D01*
X261546Y114750D01*
X261879D01*
X262046Y114583D01*
Y114416D01*
X261380D01*
X304686Y95605D02*
X304519Y95771D01*
X304186D01*
X304020Y95605D01*
Y95438D01*
X304186Y95272D01*
X304519D01*
X304686Y95105D01*
Y94938D01*
X304519Y94772D01*
X304186D01*
X304020Y94938D01*
X305519Y94772D02*
X305186D01*
X305019Y94938D01*
Y95272D01*
X305186Y95438D01*
X305519D01*
X305686Y95272D01*
Y95105D01*
X305019D01*
X306019Y94772D02*
X306352D01*
X306185D01*
Y95771D01*
X306019D01*
X307352Y94772D02*
X307019D01*
X306852Y94938D01*
Y95272D01*
X307019Y95438D01*
X307352D01*
X307518Y95272D01*
Y95105D01*
X306852D01*
X308518Y95438D02*
X308018D01*
X307852Y95272D01*
Y94938D01*
X308018Y94772D01*
X308518D01*
X309018Y95605D02*
Y95438D01*
X308851D01*
X309185D01*
X309018D01*
Y94938D01*
X309185Y94772D01*
X310684Y95771D02*
Y95105D01*
X311017Y94772D01*
X311350Y95105D01*
Y95771D01*
X107750Y98750D02*
X108083D01*
X107917D01*
Y99750D01*
X107750Y99583D01*
X108583D02*
X108750Y99750D01*
X109083D01*
X109250Y99583D01*
Y98917D01*
X109083Y98750D01*
X108750D01*
X108583Y98917D01*
Y99583D01*
X115049Y110850D02*
X115716D01*
Y110683D01*
X115049Y110017D01*
Y109850D01*
X98150Y104950D02*
X98483D01*
X98317D01*
Y105950D01*
X98150Y105783D01*
X104650Y116250D02*
Y117250D01*
X104150Y116750D01*
X104816D01*
X304776Y129244D02*
X304609Y129410D01*
X304276D01*
X304110Y129244D01*
Y128577D01*
X304276Y128411D01*
X304609D01*
X304776Y128577D01*
X305109Y129410D02*
Y128411D01*
X305442Y128744D01*
X305776Y128411D01*
Y129410D01*
X293648Y129269D02*
X293481Y129435D01*
X293148D01*
X292981Y129269D01*
Y128602D01*
X293148Y128436D01*
X293481D01*
X293648Y128602D01*
X294647Y129269D02*
X294481Y129435D01*
X294147D01*
X293981Y129269D01*
Y128602D01*
X294147Y128436D01*
X294481D01*
X294647Y128602D01*
X294980Y129435D02*
Y128436D01*
X295314Y128769D01*
X295647Y128436D01*
Y129435D01*
X298632Y127275D02*
X299298D01*
X298965D01*
Y126276D01*
X299632D02*
Y126942D01*
X299965Y127275D01*
X300298Y126942D01*
Y126276D01*
Y126775D01*
X299632D01*
X300631Y126276D02*
Y127275D01*
X301131D01*
X301298Y127109D01*
Y126775D01*
X301131Y126609D01*
X300631D01*
X261716Y129283D02*
X261550Y129450D01*
X261217D01*
X261050Y129283D01*
Y128617D01*
X261217Y128450D01*
X261550D01*
X261716Y128617D01*
X262050Y129450D02*
Y128450D01*
X262383Y128783D01*
X262716Y128450D01*
Y129450D01*
X251016Y129283D02*
X250850Y129450D01*
X250517D01*
X250350Y129283D01*
Y128617D01*
X250517Y128450D01*
X250850D01*
X251016Y128617D01*
X252016Y129283D02*
X251850Y129450D01*
X251516D01*
X251350Y129283D01*
Y128617D01*
X251516Y128450D01*
X251850D01*
X252016Y128617D01*
X252349Y129450D02*
Y128450D01*
X252683Y128783D01*
X253016Y128450D01*
Y129450D01*
X255701Y127350D02*
X256367D01*
X256034D01*
Y126350D01*
X256700D02*
Y127016D01*
X257034Y127350D01*
X257367Y127016D01*
Y126350D01*
Y126850D01*
X256700D01*
X257700Y126350D02*
Y127350D01*
X258200D01*
X258367Y127183D01*
Y126850D01*
X258200Y126683D01*
X257700D01*
X126833Y97487D02*
X126667Y97654D01*
X126334D01*
X126167Y97487D01*
Y96821D01*
X126334Y96654D01*
X126667D01*
X126833Y96821D01*
X127167Y97487D02*
X127333Y97654D01*
X127666D01*
X127833Y97487D01*
Y97320D01*
X127666Y97154D01*
X127833Y96987D01*
Y96821D01*
X127666Y96654D01*
X127333D01*
X127167Y96821D01*
Y96987D01*
X127333Y97154D01*
X127167Y97320D01*
Y97487D01*
X127333Y97154D02*
X127666D01*
X138970Y99315D02*
Y100315D01*
X139470D01*
X139637Y100149D01*
Y99815D01*
X139470Y99649D01*
X138970D01*
X139304D02*
X139637Y99315D01*
X140637D02*
X139970D01*
X140637Y99982D01*
Y100149D01*
X140470Y100315D01*
X140137D01*
X139970Y100149D01*
X141470Y99315D02*
Y100315D01*
X140970Y99815D01*
X141636D01*
X108555Y146350D02*
Y147350D01*
X109054D01*
X109221Y147183D01*
Y146850D01*
X109054Y146683D01*
X108555D01*
X108888D02*
X109221Y146350D01*
X110221D02*
X109554D01*
X110221Y147017D01*
Y147183D01*
X110054Y147350D01*
X109721D01*
X109554Y147183D01*
X110554Y146350D02*
X110887D01*
X110720D01*
Y147350D01*
X110554Y147183D01*
X238951Y145229D02*
Y146228D01*
X239451D01*
X239618Y146062D01*
Y145728D01*
X239451Y145562D01*
X238951D01*
X239285D02*
X239618Y145229D01*
X239951D02*
X240284D01*
X240118D01*
Y146228D01*
X239951Y146062D01*
X241451Y145229D02*
X240784D01*
X241451Y145895D01*
Y146062D01*
X241284Y146228D01*
X240951D01*
X240784Y146062D01*
X242450Y145229D02*
X241784D01*
X242450Y145895D01*
Y146062D01*
X242284Y146228D01*
X241950D01*
X241784Y146062D01*
X218090Y146772D02*
Y147771D01*
X218590D01*
X218756Y147605D01*
Y147272D01*
X218590Y147105D01*
X218090D01*
X218423D02*
X218756Y146772D01*
X219090D02*
X219423D01*
X219256D01*
Y147771D01*
X219090Y147605D01*
X220589Y146772D02*
X219923D01*
X220589Y147438D01*
Y147605D01*
X220423Y147771D01*
X220089D01*
X219923Y147605D01*
X220922Y146772D02*
X221256D01*
X221089D01*
Y147771D01*
X220922Y147605D01*
X230124Y142305D02*
Y143305D01*
X230623D01*
X230790Y143138D01*
Y142805D01*
X230623Y142638D01*
X230124D01*
X230457D02*
X230790Y142305D01*
X231123D02*
X231456D01*
X231290D01*
Y143305D01*
X231123Y143138D01*
X232623Y142305D02*
X231956D01*
X232623Y142971D01*
Y143138D01*
X232456Y143305D01*
X232123D01*
X231956Y143138D01*
X232956D02*
X233123Y143305D01*
X233456D01*
X233622Y143138D01*
Y142472D01*
X233456Y142305D01*
X233123D01*
X232956Y142472D01*
Y143138D01*
X225317Y142854D02*
Y143521D01*
X225150Y143687D01*
X224817D01*
X224651Y143521D01*
Y142854D01*
X224817Y142688D01*
X225150D01*
X224984Y143021D02*
X225317Y142688D01*
X225150D02*
X225317Y142854D01*
X225650Y142688D02*
X225983D01*
X225817D01*
Y143687D01*
X225650Y143521D01*
X227150Y142688D02*
X226483D01*
X227150Y143354D01*
Y143521D01*
X226983Y143687D01*
X226650D01*
X226483Y143521D01*
X227483D02*
X227650Y143687D01*
X227983D01*
X228149Y143521D01*
Y142854D01*
X227983Y142688D01*
X227650D01*
X227483Y142854D01*
Y143521D01*
X225317Y152033D02*
X225150Y152200D01*
X224817D01*
X224651Y152033D01*
Y151367D01*
X224817Y151200D01*
X225150D01*
X225317Y151367D01*
X225650Y151200D02*
X225983D01*
X225817D01*
Y152200D01*
X225650Y152033D01*
X227150Y151200D02*
X226483D01*
X227150Y151867D01*
Y152033D01*
X226983Y152200D01*
X226650D01*
X226483Y152033D01*
X228149Y151200D02*
X227483D01*
X228149Y151867D01*
Y152033D01*
X227983Y152200D01*
X227650D01*
X227483Y152033D01*
X234109Y153132D02*
X233943Y153299D01*
X233609D01*
X233443Y153132D01*
Y152466D01*
X233609Y152299D01*
X233943D01*
X234109Y152466D01*
X234442Y152299D02*
X234776D01*
X234609D01*
Y153299D01*
X234442Y153132D01*
X235942Y152299D02*
X235276D01*
X235942Y152965D01*
Y153132D01*
X235775Y153299D01*
X235442D01*
X235276Y153132D01*
X236275Y152299D02*
X236608D01*
X236442D01*
Y153299D01*
X236275Y153132D01*
X220917Y149950D02*
X220750Y150117D01*
X220417D01*
X220251Y149950D01*
Y149283D01*
X220417Y149117D01*
X220750D01*
X220917Y149283D01*
X221250Y149117D02*
X221583D01*
X221417D01*
Y150117D01*
X221250Y149950D01*
X222750Y149117D02*
X222083D01*
X222750Y149783D01*
Y149950D01*
X222583Y150117D01*
X222250D01*
X222083Y149950D01*
X223083D02*
X223250Y150117D01*
X223583D01*
X223749Y149950D01*
Y149283D01*
X223583Y149117D01*
X223250D01*
X223083Y149283D01*
Y149950D01*
X187766Y146933D02*
X187600Y147100D01*
X187267D01*
X187100Y146933D01*
Y146267D01*
X187267Y146100D01*
X187600D01*
X187766Y146267D01*
X188600Y146100D02*
Y147100D01*
X188100Y146600D01*
X188766D01*
X189766Y147100D02*
X189433Y146933D01*
X189099Y146600D01*
Y146267D01*
X189266Y146100D01*
X189599D01*
X189766Y146267D01*
Y146433D01*
X189599Y146600D01*
X189099D01*
X209000Y127600D02*
Y126600D01*
X209500D01*
X209666Y126767D01*
Y127433D01*
X209500Y127600D01*
X209000D01*
X210666Y126600D02*
X210000D01*
X210666Y127266D01*
Y127433D01*
X210500Y127600D01*
X210166D01*
X210000Y127433D01*
X211666Y127600D02*
X210999D01*
Y127100D01*
X211333Y127266D01*
X211499D01*
X211666Y127100D01*
Y126767D01*
X211499Y126600D01*
X211166D01*
X210999Y126767D01*
X181200Y152900D02*
Y153900D01*
X181700D01*
X181866Y153733D01*
Y153400D01*
X181700Y153233D01*
X181200D01*
X181533D02*
X181866Y152900D01*
X182700D02*
Y153900D01*
X182200Y153400D01*
X182866D01*
X183699Y152900D02*
Y153900D01*
X183199Y153400D01*
X183866D01*
X209063Y152349D02*
Y153349D01*
X209563D01*
X209730Y153183D01*
Y152849D01*
X209563Y152683D01*
X209063D01*
X209396D02*
X209730Y152349D01*
X210729Y153349D02*
X210396Y153183D01*
X210063Y152849D01*
Y152516D01*
X210229Y152349D01*
X210563D01*
X210729Y152516D01*
Y152683D01*
X210563Y152849D01*
X210063D01*
X211062Y153349D02*
X211729D01*
Y153183D01*
X211062Y152516D01*
Y152349D01*
X188200Y156262D02*
Y155429D01*
X188367Y155262D01*
X188700D01*
X188866Y155429D01*
Y156262D01*
X189866Y155262D02*
X189200D01*
X189866Y155929D01*
Y156096D01*
X189700Y156262D01*
X189366D01*
X189200Y156096D01*
X190699Y155262D02*
Y156262D01*
X190199Y155762D01*
X190866D01*
X164400Y132433D02*
X164234Y132600D01*
X163900D01*
X163734Y132433D01*
Y131767D01*
X163900Y131600D01*
X164234D01*
X164400Y131767D01*
X165400Y132600D02*
X164733D01*
Y132100D01*
X165067Y132267D01*
X165233D01*
X165400Y132100D01*
Y131767D01*
X165233Y131600D01*
X164900D01*
X164733Y131767D01*
X165733Y131600D02*
X166066D01*
X165900D01*
Y132600D01*
X165733Y132433D01*
X269050Y146790D02*
Y147790D01*
X269550D01*
X269717Y147623D01*
Y147290D01*
X269550Y147123D01*
X269050D01*
X269384D02*
X269717Y146790D01*
X270050Y147623D02*
X270217Y147790D01*
X270550D01*
X270717Y147623D01*
Y147457D01*
X270550Y147290D01*
X270717Y147123D01*
Y146957D01*
X270550Y146790D01*
X270217D01*
X270050Y146957D01*
Y147123D01*
X270217Y147290D01*
X270050Y147457D01*
Y147623D01*
X270217Y147290D02*
X270550D01*
X271050Y147790D02*
X271716D01*
Y147623D01*
X271050Y146957D01*
Y146790D01*
X284094Y120740D02*
X283927Y120906D01*
X283594D01*
X283427Y120740D01*
Y120073D01*
X283594Y119907D01*
X283927D01*
X284094Y120073D01*
X284427Y120906D02*
X285093D01*
Y120740D01*
X284427Y120073D01*
Y119907D01*
X286093Y120906D02*
X285760Y120740D01*
X285427Y120407D01*
Y120073D01*
X285593Y119907D01*
X285926D01*
X286093Y120073D01*
Y120240D01*
X285926Y120407D01*
X285427D01*
X292434Y121133D02*
X292267Y121300D01*
X291934D01*
X291767Y121133D01*
Y120467D01*
X291934Y120300D01*
X292267D01*
X292434Y120467D01*
X292767Y121300D02*
X293433D01*
Y121133D01*
X292767Y120467D01*
Y120300D01*
X294433Y121300D02*
X293766D01*
Y120800D01*
X294100Y120967D01*
X294266D01*
X294433Y120800D01*
Y120467D01*
X294266Y120300D01*
X293933D01*
X293766Y120467D01*
X277367Y146790D02*
Y147790D01*
X277867D01*
X278034Y147623D01*
Y147290D01*
X277867Y147123D01*
X277367D01*
X277700D02*
X278034Y146790D01*
X278367Y147790D02*
X279033D01*
Y147623D01*
X278367Y146957D01*
Y146790D01*
X280033Y147790D02*
X279366D01*
Y147290D01*
X279700Y147457D01*
X279866D01*
X280033Y147290D01*
Y146957D01*
X279866Y146790D01*
X279533D01*
X279366Y146957D01*
X277413Y154045D02*
Y155045D01*
X277913D01*
X278079Y154878D01*
Y154545D01*
X277913Y154378D01*
X277413D01*
X277746D02*
X278079Y154045D01*
X278413Y155045D02*
X279079D01*
Y154878D01*
X278413Y154212D01*
Y154045D01*
X279412Y154212D02*
X279579Y154045D01*
X279912D01*
X280079Y154212D01*
Y154878D01*
X279912Y155045D01*
X279579D01*
X279412Y154878D01*
Y154712D01*
X279579Y154545D01*
X280079D01*
X250226Y154323D02*
Y153324D01*
X250726D01*
X250892Y153490D01*
Y154157D01*
X250726Y154323D01*
X250226D01*
X251226D02*
X251892D01*
Y154157D01*
X251226Y153490D01*
Y153324D01*
X252225Y154157D02*
X252392Y154323D01*
X252725D01*
X252892Y154157D01*
Y153990D01*
X252725Y153823D01*
X252558D01*
X252725D01*
X252892Y153657D01*
Y153490D01*
X252725Y153324D01*
X252392D01*
X252225Y153490D01*
X147850Y116679D02*
X147684Y116846D01*
X147350D01*
X147184Y116679D01*
Y116512D01*
X147350Y116346D01*
X147684D01*
X147850Y116179D01*
Y116013D01*
X147684Y115846D01*
X147350D01*
X147184Y116013D01*
X148850Y115846D02*
X148183D01*
X148850Y116512D01*
Y116679D01*
X148683Y116846D01*
X148350D01*
X148183Y116679D01*
X149183Y115846D02*
X149516D01*
X149350D01*
Y116846D01*
X149183Y116679D01*
X98933Y114433D02*
X98767Y114600D01*
X98434D01*
X98267Y114433D01*
Y114267D01*
X98434Y114100D01*
X98767D01*
X98933Y113933D01*
Y113767D01*
X98767Y113600D01*
X98434D01*
X98267Y113767D01*
X99267Y114433D02*
X99433Y114600D01*
X99766D01*
X99933Y114433D01*
Y114267D01*
X99766Y114100D01*
X99600D01*
X99766D01*
X99933Y113933D01*
Y113767D01*
X99766Y113600D01*
X99433D01*
X99267Y113767D01*
X121533Y108633D02*
X121367Y108800D01*
X121034D01*
X120867Y108633D01*
Y107967D01*
X121034Y107800D01*
X121367D01*
X121533Y107967D01*
X121867Y108800D02*
X122533D01*
Y108633D01*
X121867Y107967D01*
Y107800D01*
X290482Y95666D02*
Y96666D01*
X290982D01*
X291148Y96499D01*
Y96166D01*
X290982Y96000D01*
X290482D01*
X290815D02*
X291148Y95666D01*
X291481Y96499D02*
X291648Y96666D01*
X291981D01*
X292148Y96499D01*
Y96333D01*
X291981Y96166D01*
X292148Y96000D01*
Y95833D01*
X291981Y95666D01*
X291648D01*
X291481Y95833D01*
Y96000D01*
X291648Y96166D01*
X291481Y96333D01*
Y96499D01*
X291648Y96166D02*
X291981D01*
X292481Y96499D02*
X292648Y96666D01*
X292981D01*
X293148Y96499D01*
Y96333D01*
X292981Y96166D01*
X292814D01*
X292981D01*
X293148Y96000D01*
Y95833D01*
X292981Y95666D01*
X292648D01*
X292481Y95833D01*
X228034Y107800D02*
Y108800D01*
X228534D01*
X228700Y108633D01*
Y108300D01*
X228534Y108133D01*
X228034D01*
X229033Y108800D02*
X229700D01*
Y108633D01*
X229033Y107967D01*
Y107800D01*
X230033D02*
X230366D01*
X230200D01*
Y108800D01*
X230033Y108633D01*
X185155Y107900D02*
Y108900D01*
X185655D01*
X185821Y108733D01*
Y108400D01*
X185655Y108233D01*
X185155D01*
X186154Y108900D02*
X186821D01*
Y108733D01*
X186154Y108067D01*
Y107900D01*
X187154Y108733D02*
X187321Y108900D01*
X187654D01*
X187821Y108733D01*
Y108067D01*
X187654Y107900D01*
X187321D01*
X187154Y108067D01*
Y108733D01*
X271387Y113698D02*
X271220Y113865D01*
X270887D01*
X270720Y113698D01*
Y113531D01*
X270887Y113365D01*
X271220D01*
X271387Y113198D01*
Y113032D01*
X271220Y112865D01*
X270887D01*
X270720Y113032D01*
X271720Y112865D02*
X272053D01*
X271887D01*
Y113865D01*
X271720Y113698D01*
X272553D02*
X272720Y113865D01*
X273053D01*
X273220Y113698D01*
Y113032D01*
X273053Y112865D01*
X272720D01*
X272553Y113032D01*
Y113698D01*
X274219Y112865D02*
X273553D01*
X274219Y113531D01*
Y113698D01*
X274053Y113865D01*
X273719D01*
X273553Y113698D01*
X273656Y128987D02*
X273489Y129153D01*
X273156D01*
X272989Y128987D01*
Y128820D01*
X273156Y128653D01*
X273489D01*
X273656Y128487D01*
Y128320D01*
X273489Y128154D01*
X273156D01*
X272989Y128320D01*
X273989Y128820D02*
Y128320D01*
X274156Y128154D01*
X274322Y128320D01*
X274489Y128154D01*
X274656Y128320D01*
Y128820D01*
X275489Y128154D02*
X275155D01*
X274989Y128320D01*
Y128653D01*
X275155Y128820D01*
X275489D01*
X275655Y128653D01*
Y128487D01*
X274989D01*
X276488Y128154D02*
X276155D01*
X275988Y128320D01*
Y128653D01*
X276155Y128820D01*
X276488D01*
X276655Y128653D01*
Y128487D01*
X275988D01*
X276988Y127820D02*
Y128820D01*
X277488D01*
X277655Y128653D01*
Y128320D01*
X277488Y128154D01*
X276988D01*
X277988D02*
X278654Y128820D01*
X278988Y129153D02*
Y128154D01*
X279487D01*
X279654Y128320D01*
Y128987D01*
X279487Y129153D01*
X278988D01*
X280654Y128987D02*
X280487Y129153D01*
X280154D01*
X279987Y128987D01*
Y128320D01*
X280154Y128154D01*
X280487D01*
X280654Y128320D01*
X248760Y119833D02*
X248594Y120000D01*
X248260D01*
X248094Y119833D01*
Y119667D01*
X248260Y119500D01*
X248594D01*
X248760Y119333D01*
Y119167D01*
X248594Y119000D01*
X248260D01*
X248094Y119167D01*
X249093Y119000D02*
X249427D01*
X249260D01*
Y120000D01*
X249093Y119833D01*
X249926D02*
X250093Y120000D01*
X250426D01*
X250593Y119833D01*
Y119167D01*
X250426Y119000D01*
X250093D01*
X249926Y119167D01*
Y119833D01*
X250926Y119000D02*
X251259D01*
X251093D01*
Y120000D01*
X250926Y119833D01*
X301417Y110958D02*
X301250Y111125D01*
X300917D01*
X300751Y110958D01*
Y110792D01*
X300917Y110625D01*
X301250D01*
X301417Y110458D01*
Y110292D01*
X301250Y110125D01*
X300917D01*
X300751Y110292D01*
X301750Y110125D02*
X302083D01*
X301917D01*
Y111125D01*
X301750Y110958D01*
X302583D02*
X302750Y111125D01*
X303083D01*
X303250Y110958D01*
Y110292D01*
X303083Y110125D01*
X302750D01*
X302583Y110292D01*
Y110958D01*
X303583D02*
X303750Y111125D01*
X304083D01*
X304249Y110958D01*
Y110292D01*
X304083Y110125D01*
X303750D01*
X303583Y110292D01*
Y110958D01*
X114834Y153333D02*
X114667Y153500D01*
X114334D01*
X114167Y153333D01*
Y153167D01*
X114334Y153000D01*
X114667D01*
X114834Y152833D01*
Y152667D01*
X114667Y152500D01*
X114334D01*
X114167Y152667D01*
X115833Y152500D02*
X115167D01*
X115833Y153167D01*
Y153333D01*
X115667Y153500D01*
X115333D01*
X115167Y153333D01*
X116166D02*
X116333Y153500D01*
X116666D01*
X116833Y153333D01*
Y152667D01*
X116666Y152500D01*
X116333D01*
X116166Y152667D01*
Y153333D01*
X292867Y113200D02*
Y114200D01*
X293367D01*
X293534Y114033D01*
Y113700D01*
X293367Y113533D01*
X292867D01*
X293200D02*
X293534Y113200D01*
X293867Y114033D02*
X294033Y114200D01*
X294367D01*
X294533Y114033D01*
Y113867D01*
X294367Y113700D01*
X294533Y113533D01*
Y113367D01*
X294367Y113200D01*
X294033D01*
X293867Y113367D01*
Y113533D01*
X294033Y113700D01*
X293867Y113867D01*
Y114033D01*
X294033Y113700D02*
X294367D01*
X295533Y114200D02*
X294866D01*
Y113700D01*
X295200Y113867D01*
X295366D01*
X295533Y113700D01*
Y113367D01*
X295366Y113200D01*
X295033D01*
X294866Y113367D01*
X307341Y139002D02*
Y140002D01*
X307841D01*
X308007Y139835D01*
Y139502D01*
X307841Y139335D01*
X307341D01*
X308507Y139002D02*
X308840D01*
X309007Y139169D01*
Y139502D01*
X308840Y139668D01*
X308507D01*
X308341Y139502D01*
Y139169D01*
X308507Y139002D01*
X309507Y139835D02*
Y139668D01*
X309340D01*
X309673D01*
X309507D01*
Y139169D01*
X309673Y139002D01*
X310173D02*
X310507D01*
X310340D01*
Y140002D01*
X310173Y139835D01*
X311006D02*
X311173Y140002D01*
X311506D01*
X311673Y139835D01*
Y139169D01*
X311506Y139002D01*
X311173D01*
X311006Y139169D01*
Y139835D01*
X312672Y139002D02*
X312006D01*
X312672Y139668D01*
Y139835D01*
X312506Y140002D01*
X312173D01*
X312006Y139835D01*
X254334Y137300D02*
Y138300D01*
X254834D01*
X255001Y138133D01*
Y137800D01*
X254834Y137633D01*
X254334D01*
X255500Y137300D02*
X255834D01*
X256000Y137467D01*
Y137800D01*
X255834Y137967D01*
X255500D01*
X255334Y137800D01*
Y137467D01*
X255500Y137300D01*
X256500Y138133D02*
Y137967D01*
X256334D01*
X256667D01*
X256500D01*
Y137467D01*
X256667Y137300D01*
X257167D02*
X257500D01*
X257333D01*
Y138300D01*
X257167Y138133D01*
X258000D02*
X258166Y138300D01*
X258500D01*
X258666Y138133D01*
Y137467D01*
X258500Y137300D01*
X258166D01*
X258000Y137467D01*
Y138133D01*
X258999D02*
X259166Y138300D01*
X259499D01*
X259666Y138133D01*
Y137467D01*
X259499Y137300D01*
X259166D01*
X258999Y137467D01*
Y138133D01*
X163866Y117233D02*
X163700Y117400D01*
X163367D01*
X163200Y117233D01*
Y116567D01*
X163367Y116400D01*
X163700D01*
X163866Y116567D01*
X164866Y116400D02*
X164200D01*
X164866Y117066D01*
Y117233D01*
X164700Y117400D01*
X164366D01*
X164200Y117233D01*
X165199Y117400D02*
X165866D01*
Y117233D01*
X165199Y116567D01*
Y116400D01*
X134992Y135474D02*
X134826Y135641D01*
X134493D01*
X134326Y135474D01*
Y134808D01*
X134493Y134641D01*
X134826D01*
X134992Y134808D01*
X135826Y134641D02*
Y135641D01*
X135326Y135141D01*
X135992D01*
X136325Y135474D02*
X136492Y135641D01*
X136825D01*
X136992Y135474D01*
Y135308D01*
X136825Y135141D01*
X136992Y134975D01*
Y134808D01*
X136825Y134641D01*
X136492D01*
X136325Y134808D01*
Y134975D01*
X136492Y135141D01*
X136325Y135308D01*
Y135474D01*
X136492Y135141D02*
X136825D01*
X133566Y103597D02*
X133400Y103763D01*
X133067D01*
X132900Y103597D01*
Y102930D01*
X133067Y102764D01*
X133400D01*
X133566Y102930D01*
X134566Y102764D02*
X133900D01*
X134566Y103430D01*
Y103597D01*
X134400Y103763D01*
X134066D01*
X133900Y103597D01*
X135399Y102764D02*
Y103763D01*
X134899Y103264D01*
X135566D01*
X133741Y100702D02*
X133575Y100868D01*
X133242D01*
X133075Y100702D01*
Y100035D01*
X133242Y99869D01*
X133575D01*
X133741Y100035D01*
X134741Y99869D02*
X134075D01*
X134741Y100535D01*
Y100702D01*
X134575Y100868D01*
X134241D01*
X134075Y100702D01*
X135741Y100868D02*
X135074D01*
Y100369D01*
X135408Y100535D01*
X135574D01*
X135741Y100369D01*
Y100035D01*
X135574Y99869D01*
X135241D01*
X135074Y100035D01*
X120682Y137603D02*
X120515Y137436D01*
Y137103D01*
X120682Y136937D01*
X121348D01*
X121515Y137103D01*
Y137436D01*
X121348Y137603D01*
X121515Y138436D02*
X120515D01*
X121015Y137936D01*
Y138603D01*
X121515Y138936D02*
Y139269D01*
Y139103D01*
X120515D01*
X120682Y138936D01*
X175766Y116733D02*
X175600Y116900D01*
X175267D01*
X175100Y116733D01*
Y116067D01*
X175267Y115900D01*
X175600D01*
X175766Y116067D01*
X176766Y115900D02*
X176100D01*
X176766Y116566D01*
Y116733D01*
X176600Y116900D01*
X176266D01*
X176100Y116733D01*
X177099D02*
X177266Y116900D01*
X177599D01*
X177766Y116733D01*
Y116566D01*
X177599Y116400D01*
X177766Y116233D01*
Y116067D01*
X177599Y115900D01*
X177266D01*
X177099Y116067D01*
Y116233D01*
X177266Y116400D01*
X177099Y116566D01*
Y116733D01*
X177266Y116400D02*
X177599D01*
X171372Y122487D02*
X171205Y122654D01*
X170872D01*
X170705Y122487D01*
Y121821D01*
X170872Y121654D01*
X171205D01*
X171372Y121821D01*
X172371Y121654D02*
X171705D01*
X172371Y122320D01*
Y122487D01*
X172205Y122654D01*
X171871D01*
X171705Y122487D01*
X172704Y121821D02*
X172871Y121654D01*
X173204D01*
X173371Y121821D01*
Y122487D01*
X173204Y122654D01*
X172871D01*
X172704Y122487D01*
Y122320D01*
X172871Y122154D01*
X173371D01*
X138219Y116042D02*
Y116709D01*
X138052Y116875D01*
X137719D01*
X137552Y116709D01*
Y116042D01*
X137719Y115876D01*
X138052D01*
X137886Y116209D02*
X138219Y115876D01*
X138052D02*
X138219Y116042D01*
X139219Y115876D02*
X138552D01*
X139219Y116542D01*
Y116709D01*
X139052Y116875D01*
X138719D01*
X138552Y116709D01*
X139552Y115876D02*
X139885D01*
X139718D01*
Y116875D01*
X139552Y116709D01*
X124466Y144726D02*
Y145392D01*
X124300Y145559D01*
X123967D01*
X123800Y145392D01*
Y144726D01*
X123967Y144559D01*
X124300D01*
X124133Y144892D02*
X124466Y144559D01*
X124300D02*
X124466Y144726D01*
X125466Y144559D02*
X124800D01*
X125466Y145226D01*
Y145392D01*
X125300Y145559D01*
X124966D01*
X124800Y145392D01*
X125799D02*
X125966Y145559D01*
X126299D01*
X126466Y145392D01*
Y145226D01*
X126299Y145059D01*
X126133D01*
X126299D01*
X126466Y144892D01*
Y144726D01*
X126299Y144559D01*
X125966D01*
X125799Y144726D01*
X172463Y124596D02*
Y125596D01*
X172963D01*
X173130Y125430D01*
Y125096D01*
X172963Y124930D01*
X172463D01*
X172797D02*
X173130Y124596D01*
X174130D02*
X173463D01*
X174130Y125263D01*
Y125430D01*
X173963Y125596D01*
X173630D01*
X173463Y125430D01*
X174463Y125596D02*
X175129D01*
Y125430D01*
X174463Y124763D01*
Y124596D01*
X169919Y132246D02*
Y133246D01*
X170419D01*
X170585Y133079D01*
Y132746D01*
X170419Y132579D01*
X169919D01*
X170252D02*
X170585Y132246D01*
X171585D02*
X170919D01*
X171585Y132912D01*
Y133079D01*
X171418Y133246D01*
X171085D01*
X170919Y133079D01*
X171918Y132413D02*
X172085Y132246D01*
X172418D01*
X172585Y132413D01*
Y133079D01*
X172418Y133246D01*
X172085D01*
X171918Y133079D01*
Y132912D01*
X172085Y132746D01*
X172585D01*
X166737Y114041D02*
Y115041D01*
X167237D01*
X167403Y114875D01*
Y114541D01*
X167237Y114375D01*
X166737D01*
X167070D02*
X167403Y114041D01*
X167737Y114875D02*
X167903Y115041D01*
X168237D01*
X168403Y114875D01*
Y114708D01*
X168237Y114541D01*
X168070D01*
X168237D01*
X168403Y114375D01*
Y114208D01*
X168237Y114041D01*
X167903D01*
X167737Y114208D01*
X169403Y114041D02*
X168736D01*
X169403Y114708D01*
Y114875D01*
X169236Y115041D01*
X168903D01*
X168736Y114875D01*
X166500Y100100D02*
Y101100D01*
X167000D01*
X167166Y100933D01*
Y100600D01*
X167000Y100433D01*
X166500D01*
X166833D02*
X167166Y100100D01*
X168166Y101100D02*
X167500D01*
Y100600D01*
X167833Y100766D01*
X168000D01*
X168166Y100600D01*
Y100267D01*
X168000Y100100D01*
X167666D01*
X167500Y100267D01*
X169166Y100100D02*
X168499D01*
X169166Y100766D01*
Y100933D01*
X168999Y101100D01*
X168666D01*
X168499Y100933D01*
X151650Y123470D02*
Y124470D01*
X152150D01*
X152316Y124303D01*
Y123970D01*
X152150Y123804D01*
X151650D01*
X151983D02*
X152316Y123470D01*
X153150D02*
Y124470D01*
X152650Y123970D01*
X153316D01*
X154316Y123470D02*
X153649D01*
X154316Y124137D01*
Y124303D01*
X154149Y124470D01*
X153816D01*
X153649Y124303D01*
X146722Y120000D02*
Y121000D01*
X147222D01*
X147389Y120833D01*
Y120500D01*
X147222Y120333D01*
X146722D01*
X147055D02*
X147389Y120000D01*
X148222D02*
Y121000D01*
X147722Y120500D01*
X148388D01*
X148721Y120833D02*
X148888Y121000D01*
X149221D01*
X149388Y120833D01*
Y120666D01*
X149221Y120500D01*
X149055D01*
X149221D01*
X149388Y120333D01*
Y120167D01*
X149221Y120000D01*
X148888D01*
X148721Y120167D01*
X112254Y126500D02*
Y127500D01*
X112754D01*
X112920Y127333D01*
Y127000D01*
X112754Y126833D01*
X112254D01*
X112587D02*
X112920Y126500D01*
X113753D02*
Y127500D01*
X113253Y127000D01*
X113920D01*
X114253Y126667D02*
X114420Y126500D01*
X114753D01*
X114919Y126667D01*
Y127333D01*
X114753Y127500D01*
X114420D01*
X114253Y127333D01*
Y127166D01*
X114420Y127000D01*
X114919D01*
X142700Y122925D02*
Y123925D01*
X143200D01*
X143366Y123758D01*
Y123425D01*
X143200Y123258D01*
X142700D01*
X143033D02*
X143366Y122925D01*
X143700Y123758D02*
X143866Y123925D01*
X144200D01*
X144366Y123758D01*
Y123591D01*
X144200Y123425D01*
X144033D01*
X144200D01*
X144366Y123258D01*
Y123092D01*
X144200Y122925D01*
X143866D01*
X143700Y123092D01*
X144699Y123925D02*
X145366D01*
Y123758D01*
X144699Y123092D01*
Y122925D01*
X160808Y126991D02*
Y126158D01*
X160975Y125991D01*
X161308D01*
X161474Y126158D01*
Y126991D01*
X162474Y125991D02*
X161808D01*
X162474Y126657D01*
Y126824D01*
X162308Y126991D01*
X161974D01*
X161808Y126824D01*
X162807D02*
X162974Y126991D01*
X163307D01*
X163474Y126824D01*
Y126158D01*
X163307Y125991D01*
X162974D01*
X162807Y126158D01*
Y126824D01*
X147679Y132000D02*
Y131167D01*
X147846Y131000D01*
X148179D01*
X148345Y131167D01*
Y132000D01*
X149345Y131000D02*
X148679D01*
X149345Y131666D01*
Y131833D01*
X149179Y132000D01*
X148845D01*
X148679Y131833D01*
X150345Y131000D02*
X149678D01*
X150345Y131666D01*
Y131833D01*
X150178Y132000D01*
X149845D01*
X149678Y131833D01*
X146466Y134133D02*
X146300Y134300D01*
X145967D01*
X145800Y134133D01*
Y133467D01*
X145967Y133300D01*
X146300D01*
X146466Y133467D01*
X147300Y133300D02*
Y134300D01*
X146800Y133800D01*
X147466D01*
X147799Y134133D02*
X147966Y134300D01*
X148299D01*
X148466Y134133D01*
Y133966D01*
X148299Y133800D01*
X148133D01*
X148299D01*
X148466Y133633D01*
Y133467D01*
X148299Y133300D01*
X147966D01*
X147799Y133467D01*
X140366Y139733D02*
X140200Y139900D01*
X139867D01*
X139700Y139733D01*
Y139067D01*
X139867Y138900D01*
X140200D01*
X140366Y139067D01*
X141200Y138900D02*
Y139900D01*
X140700Y139400D01*
X141366D01*
X141699Y139067D02*
X141866Y138900D01*
X142199D01*
X142366Y139067D01*
Y139733D01*
X142199Y139900D01*
X141866D01*
X141699Y139733D01*
Y139566D01*
X141866Y139400D01*
X142366D01*
X123766Y139265D02*
X123600Y139432D01*
X123267D01*
X123100Y139265D01*
Y138599D01*
X123267Y138432D01*
X123600D01*
X123766Y138599D01*
X124600Y138432D02*
Y139432D01*
X124100Y138932D01*
X124766D01*
X125766Y139432D02*
X125099D01*
Y138932D01*
X125433Y139098D01*
X125599D01*
X125766Y138932D01*
Y138599D01*
X125599Y138432D01*
X125266D01*
X125099Y138599D01*
X134073Y138104D02*
X133906Y138271D01*
X133573D01*
X133407Y138104D01*
Y137437D01*
X133573Y137271D01*
X133906D01*
X134073Y137437D01*
X134906Y137271D02*
Y138271D01*
X134406Y137771D01*
X135073D01*
X135406Y138271D02*
X136072D01*
Y138104D01*
X135406Y137437D01*
Y137271D01*
X129524Y141568D02*
Y142567D01*
X130024D01*
X130191Y142401D01*
Y142068D01*
X130024Y141901D01*
X129524D01*
X129857D02*
X130191Y141568D01*
X131024D02*
Y142567D01*
X130524Y142068D01*
X131190D01*
X131523Y141568D02*
X131857D01*
X131690D01*
Y142567D01*
X131523Y142401D01*
X127166Y115047D02*
X127000Y115213D01*
X126667D01*
X126500Y115047D01*
Y114880D01*
X126667Y114713D01*
X127000D01*
X127166Y114547D01*
Y114380D01*
X127000Y114214D01*
X126667D01*
X126500Y114380D01*
X128166Y114214D02*
X127500D01*
X128166Y114880D01*
Y115047D01*
X128000Y115213D01*
X127666D01*
X127500Y115047D01*
X129166Y114214D02*
X128499D01*
X129166Y114880D01*
Y115047D01*
X128999Y115213D01*
X128666D01*
X128499Y115047D01*
X155850Y119663D02*
Y120663D01*
X156350D01*
X156516Y120496D01*
Y120163D01*
X156350Y119996D01*
X155850D01*
X156183D02*
X156516Y119663D01*
X156850Y120496D02*
X157016Y120663D01*
X157350D01*
X157516Y120496D01*
Y120329D01*
X157350Y120163D01*
X157183D01*
X157350D01*
X157516Y119996D01*
Y119830D01*
X157350Y119663D01*
X157016D01*
X156850Y119830D01*
X157849Y120496D02*
X158016Y120663D01*
X158349D01*
X158516Y120496D01*
Y119830D01*
X158349Y119663D01*
X158016D01*
X157849Y119830D01*
Y120496D01*
X148708Y98400D02*
Y99400D01*
X149208D01*
X149374Y99233D01*
Y98900D01*
X149208Y98733D01*
X148708D01*
X149041D02*
X149374Y98400D01*
X150207D02*
Y99400D01*
X149707Y98900D01*
X150374D01*
X150707Y99400D02*
X151373D01*
Y99233D01*
X150707Y98567D01*
Y98400D01*
X274534Y140433D02*
X274367Y140600D01*
X274034D01*
X273867Y140433D01*
Y139767D01*
X274034Y139600D01*
X274367D01*
X274534Y139767D01*
X274867Y140600D02*
X275533D01*
Y140433D01*
X274867Y139767D01*
Y139600D01*
X275866Y140433D02*
X276033Y140600D01*
X276366D01*
X276533Y140433D01*
Y140267D01*
X276366Y140100D01*
X276533Y139933D01*
Y139767D01*
X276366Y139600D01*
X276033D01*
X275866Y139767D01*
Y139933D01*
X276033Y140100D01*
X275866Y140267D01*
Y140433D01*
X276033Y140100D02*
X276366D01*
X279834Y140373D02*
X279668Y140540D01*
X279335D01*
X279168Y140373D01*
Y139707D01*
X279335Y139540D01*
X279668D01*
X279834Y139707D01*
X280168Y140540D02*
X280834D01*
Y140373D01*
X280168Y139707D01*
Y139540D01*
X281167Y140540D02*
X281834D01*
Y140373D01*
X281167Y139707D01*
Y139540D01*
X289173Y116093D02*
X289006Y115926D01*
Y115593D01*
X289173Y115426D01*
X289839D01*
X290006Y115593D01*
Y115926D01*
X289839Y116093D01*
X289173Y116426D02*
X289006Y116593D01*
Y116926D01*
X289173Y117093D01*
X289340D01*
X289506Y116926D01*
X289673Y117093D01*
X289839D01*
X290006Y116926D01*
Y116593D01*
X289839Y116426D01*
X289673D01*
X289506Y116593D01*
X289340Y116426D01*
X289173D01*
X289506Y116593D02*
Y116926D01*
X289173Y117426D02*
X289006Y117592D01*
Y117926D01*
X289173Y118092D01*
X289839D01*
X290006Y117926D01*
Y117592D01*
X289839Y117426D01*
X289173D01*
X286167Y116200D02*
X286000Y116034D01*
Y115700D01*
X286167Y115534D01*
X286833D01*
X287000Y115700D01*
Y116034D01*
X286833Y116200D01*
X286167Y116533D02*
X286000Y116700D01*
Y117033D01*
X286167Y117200D01*
X286333D01*
X286500Y117033D01*
X286667Y117200D01*
X286833D01*
X287000Y117033D01*
Y116700D01*
X286833Y116533D01*
X286667D01*
X286500Y116700D01*
X286333Y116533D01*
X286167D01*
X286500Y116700D02*
Y117033D01*
X287000Y117533D02*
Y117866D01*
Y117700D01*
X286000D01*
X286167Y117533D01*
X289285Y147281D02*
X289119Y147448D01*
X288786D01*
X288619Y147281D01*
Y146615D01*
X288786Y146448D01*
X289119D01*
X289285Y146615D01*
X289619Y147281D02*
X289785Y147448D01*
X290118D01*
X290285Y147281D01*
Y147115D01*
X290118Y146948D01*
X290285Y146781D01*
Y146615D01*
X290118Y146448D01*
X289785D01*
X289619Y146615D01*
Y146781D01*
X289785Y146948D01*
X289619Y147115D01*
Y147281D01*
X289785Y146948D02*
X290118D01*
X290618Y147281D02*
X290785Y147448D01*
X291118D01*
X291285Y147281D01*
Y147115D01*
X291118Y146948D01*
X290952D01*
X291118D01*
X291285Y146781D01*
Y146615D01*
X291118Y146448D01*
X290785D01*
X290618Y146615D01*
X273517Y136127D02*
Y137127D01*
X274017D01*
X274184Y136960D01*
Y136627D01*
X274017Y136460D01*
X273517D01*
X273851D02*
X274184Y136127D01*
X274517Y137127D02*
X275184D01*
Y136960D01*
X274517Y136294D01*
Y136127D01*
X276183D02*
X275517D01*
X276183Y136794D01*
Y136960D01*
X276017Y137127D01*
X275683D01*
X275517Y136960D01*
X283671Y131400D02*
Y132400D01*
X284171D01*
X284338Y132233D01*
Y131900D01*
X284171Y131733D01*
X283671D01*
X284005D02*
X284338Y131400D01*
X284671Y132400D02*
X285338D01*
Y132233D01*
X284671Y131567D01*
Y131400D01*
X285671Y132233D02*
X285837Y132400D01*
X286171D01*
X286337Y132233D01*
Y132067D01*
X286171Y131900D01*
X286004D01*
X286171D01*
X286337Y131733D01*
Y131567D01*
X286171Y131400D01*
X285837D01*
X285671Y131567D01*
X287636Y134601D02*
X286636D01*
Y135101D01*
X286802Y135268D01*
X287136D01*
X287302Y135101D01*
Y134601D01*
Y134935D02*
X287636Y135268D01*
X286636Y135601D02*
Y136268D01*
X286802D01*
X287469Y135601D01*
X287636D01*
Y137101D02*
X286636D01*
X287136Y136601D01*
Y137267D01*
X276550Y98549D02*
X276383Y98716D01*
X276050D01*
X275883Y98549D01*
Y98383D01*
X276050Y98216D01*
X276383D01*
X276550Y98049D01*
Y97883D01*
X276383Y97716D01*
X276050D01*
X275883Y97883D01*
X276883Y98716D02*
X277549D01*
Y98549D01*
X276883Y97883D01*
Y97716D01*
X277882Y98549D02*
X278049Y98716D01*
X278382D01*
X278549Y98549D01*
Y97883D01*
X278382Y97716D01*
X278049D01*
X277882Y97883D01*
Y98549D01*
X280839Y97425D02*
X281172D01*
X281005D01*
Y98425D01*
X280839Y98258D01*
X281672Y98425D02*
X282338Y97425D01*
Y98425D02*
X281672Y97425D01*
X282672Y97925D02*
X283338D01*
X283671Y97425D02*
X284005D01*
X283838D01*
Y98425D01*
X283671Y98258D01*
X284504D02*
X284671Y98425D01*
X285004D01*
X285171Y98258D01*
Y97592D01*
X285004Y97425D01*
X284671D01*
X284504Y97592D01*
Y98258D01*
X285504Y98425D02*
X286171Y97425D01*
Y98425D02*
X285504Y97425D01*
X200666Y144038D02*
X200499Y144205D01*
X200166D01*
X200000Y144038D01*
Y143872D01*
X200166Y143705D01*
X200499D01*
X200666Y143538D01*
Y143372D01*
X200499Y143205D01*
X200166D01*
X200000Y143372D01*
X200999Y144205D02*
X201666D01*
Y144038D01*
X200999Y143372D01*
Y143205D01*
X201999D02*
X202332D01*
X202166D01*
Y144205D01*
X201999Y144038D01*
X214167Y134100D02*
Y134767D01*
X214500Y135100D01*
X214834Y134767D01*
Y134100D01*
Y134600D01*
X214167D01*
X215167Y134100D02*
X215833Y134767D01*
X216166Y135100D02*
Y134100D01*
X216666D01*
X216833Y134267D01*
Y134433D01*
X216666Y134600D01*
X216166D01*
X216666D01*
X216833Y134767D01*
Y134933D01*
X216666Y135100D01*
X216166D01*
X158346Y155933D02*
X158179Y156100D01*
X157846D01*
X157679Y155933D01*
Y155767D01*
X157846Y155600D01*
X158179D01*
X158346Y155433D01*
Y155267D01*
X158179Y155100D01*
X157846D01*
X157679Y155267D01*
X158679Y156100D02*
X159346D01*
Y155933D01*
X158679Y155267D01*
Y155100D01*
X160345D02*
X159679D01*
X160345Y155767D01*
Y155933D01*
X160179Y156100D01*
X159845D01*
X159679Y155933D01*
X291534Y107933D02*
X291367Y108100D01*
X291034D01*
X290867Y107933D01*
Y107267D01*
X291034Y107100D01*
X291367D01*
X291534Y107267D01*
X291867Y107933D02*
X292033Y108100D01*
X292367D01*
X292533Y107933D01*
Y107767D01*
X292367Y107600D01*
X292533Y107433D01*
Y107267D01*
X292367Y107100D01*
X292033D01*
X291867Y107267D01*
Y107433D01*
X292033Y107600D01*
X291867Y107767D01*
Y107933D01*
X292033Y107600D02*
X292367D01*
X292866Y108100D02*
X293533D01*
Y107933D01*
X292866Y107267D01*
Y107100D01*
X128816Y112528D02*
X128650Y112694D01*
X128317D01*
X128150Y112528D01*
Y111861D01*
X128317Y111695D01*
X128650D01*
X128816Y111861D01*
X129816Y111695D02*
X129150D01*
X129816Y112361D01*
Y112528D01*
X129650Y112694D01*
X129316D01*
X129150Y112528D01*
X133070Y106133D02*
X132903Y106300D01*
X132570D01*
X132403Y106133D01*
Y105467D01*
X132570Y105300D01*
X132903D01*
X133070Y105467D01*
X133403Y105300D02*
X133736D01*
X133570D01*
Y106300D01*
X133403Y106133D01*
X119248Y136382D02*
X119415Y136549D01*
Y136882D01*
X119248Y137049D01*
X118582D01*
X118415Y136882D01*
Y136549D01*
X118582Y136382D01*
X118415Y136049D02*
Y135716D01*
Y135883D01*
X119415D01*
X119248Y136049D01*
Y135216D02*
X119415Y135050D01*
Y134716D01*
X119248Y134550D01*
X118582D01*
X118415Y134716D01*
Y135050D01*
X118582Y135216D01*
X119248D01*
X118956Y133552D02*
X118789Y133719D01*
X118456D01*
X118289Y133552D01*
Y132886D01*
X118456Y132719D01*
X118789D01*
X118956Y132886D01*
X119955Y133719D02*
X119622Y133552D01*
X119289Y133219D01*
Y132886D01*
X119456Y132719D01*
X119789D01*
X119955Y132886D01*
Y133052D01*
X119789Y133219D01*
X119289D01*
X100956Y126833D02*
X100790Y127000D01*
X100456D01*
X100290Y126833D01*
Y126167D01*
X100456Y126000D01*
X100790D01*
X100956Y126167D01*
X101290Y126000D02*
X101623D01*
X101456D01*
Y127000D01*
X101290Y126833D01*
X102123Y126000D02*
X102456D01*
X102289D01*
Y127000D01*
X102123Y126833D01*
X117566Y110433D02*
X117400Y110600D01*
X117067D01*
X116900Y110433D01*
Y109767D01*
X117067Y109600D01*
X117400D01*
X117566Y109767D01*
X117900Y109600D02*
X118233D01*
X118066D01*
Y110600D01*
X117900Y110433D01*
X119399Y110600D02*
X119066Y110433D01*
X118733Y110100D01*
Y109767D01*
X118899Y109600D01*
X119233D01*
X119399Y109767D01*
Y109933D01*
X119233Y110100D01*
X118733D01*
X105692Y134383D02*
Y133550D01*
X105859Y133383D01*
X106192D01*
X106359Y133550D01*
Y134383D01*
X107358D02*
X106692D01*
Y133883D01*
X107025Y134049D01*
X107192D01*
X107358Y133883D01*
Y133550D01*
X107192Y133383D01*
X106858D01*
X106692Y133550D01*
X171100Y140700D02*
Y141700D01*
X171600D01*
X171766Y141533D01*
Y141200D01*
X171600Y141033D01*
X171100D01*
X171433D02*
X171766Y140700D01*
X172100D02*
X172433D01*
X172266D01*
Y141700D01*
X172100Y141533D01*
X100400Y117800D02*
Y118800D01*
X100900D01*
X101066Y118633D01*
Y118300D01*
X100900Y118133D01*
X100400D01*
X100733D02*
X101066Y117800D01*
X102066D02*
X101400D01*
X102066Y118466D01*
Y118633D01*
X101900Y118800D01*
X101566D01*
X101400Y118633D01*
X119400Y123200D02*
Y124200D01*
X119900D01*
X120066Y124033D01*
Y123700D01*
X119900Y123533D01*
X119400D01*
X119733D02*
X120066Y123200D01*
X120400Y124200D02*
X121066D01*
Y124033D01*
X120400Y123367D01*
Y123200D01*
X104200Y121800D02*
Y122800D01*
X104700D01*
X104866Y122633D01*
Y122300D01*
X104700Y122133D01*
X104200D01*
X104533D02*
X104866Y121800D01*
X105200D02*
X105533D01*
X105366D01*
Y122800D01*
X105200Y122633D01*
X106033Y121800D02*
X106366D01*
X106199D01*
Y122800D01*
X106033Y122633D01*
X130823Y113700D02*
Y114700D01*
X131323D01*
X131489Y114533D01*
Y114200D01*
X131323Y114033D01*
X130823D01*
X131156D02*
X131489Y113700D01*
X131823D02*
X132156D01*
X131989D01*
Y114700D01*
X131823Y114533D01*
X133322Y113700D02*
X132656D01*
X133322Y114366D01*
Y114533D01*
X133156Y114700D01*
X132822D01*
X132656Y114533D01*
X108356Y140010D02*
Y141010D01*
X108856D01*
X109022Y140843D01*
Y140510D01*
X108856Y140343D01*
X108356D01*
X108689D02*
X109022Y140010D01*
X109355D02*
X109689D01*
X109522D01*
Y141010D01*
X109355Y140843D01*
X110688Y140010D02*
Y141010D01*
X110189Y140510D01*
X110855D01*
X125917Y104666D02*
Y103833D01*
X126084Y103666D01*
X126417D01*
X126583Y103833D01*
Y104666D01*
X127583D02*
X127250Y104499D01*
X126917Y104166D01*
Y103833D01*
X127083Y103666D01*
X127416D01*
X127583Y103833D01*
Y103999D01*
X127416Y104166D01*
X126917D01*
D13*
X270089Y106501D02*
G03*
X270089Y106501I-13100J0D01*
G01*
X163150Y123725D02*
G03*
X163150Y123725I-250J0D01*
G01*
X145323Y130750D02*
G03*
X145323Y130750I-250J0D01*
G01*
X107326Y131208D02*
G03*
X107326Y131208I-250J0D01*
G01*
X122000Y133600D02*
X135000D01*
X122000Y115800D02*
Y133600D01*
Y115800D02*
X135000D01*
Y133600D01*
X112500Y138500D02*
X119500D01*
X112500D02*
Y151500D01*
X119500D01*
Y138500D02*
Y151500D01*
X313500Y96650D02*
Y109350D01*
X300500Y96650D02*
X313500D01*
X300500D02*
Y109350D01*
X313500D01*
X152500Y136400D02*
X165500D01*
Y154200D01*
X152500D02*
X165500D01*
X152500Y136400D02*
Y154200D01*
X270800Y127500D02*
X282200D01*
Y114500D02*
Y127500D01*
X270800Y114500D02*
X282200D01*
X270800D02*
Y127500D01*
X200000Y130800D02*
Y142200D01*
X213000D01*
Y130800D02*
Y142200D01*
X200000Y130800D02*
X213000D01*
X275500Y106600D02*
X288500D01*
X275500Y99600D02*
Y106600D01*
Y99600D02*
X288500D01*
Y106600D01*
X97502Y93000D02*
X315500D01*
X315500Y158000D02*
X315500Y93000D01*
X97502Y158000D02*
X315500D01*
X97502D02*
X97502Y93000D01*
D14*
X114500Y118700D02*
X115900Y118700D01*
X110800Y119300D02*
X112200Y119300D01*
X124300Y98900D02*
X125700Y98900D01*
X139040Y101940D02*
X139960Y102860D01*
X109700Y144350D02*
Y145650D01*
X130700Y139700D02*
X130700Y141000D01*
X188395Y148425D02*
X194195D01*
X188395Y154775D02*
X194195D01*
Y148425D02*
Y154775D01*
X188395Y148425D02*
Y154775D01*
X290250Y103200D02*
X291550D01*
X227900Y148100D02*
X227900Y149500D01*
X227025Y144228D02*
X227425Y144228D01*
X227025Y145028D02*
X227025Y144228D01*
Y147228D02*
X227425Y147228D01*
X227025Y146428D02*
X227025Y147228D01*
X236500Y145050D02*
X236500Y146350D01*
X231300Y149000D02*
X232700Y149000D01*
X228800Y149000D02*
X230200Y149000D01*
X231150Y145400D02*
X232450D01*
X221650Y146300D02*
X222950D01*
X182800Y147300D02*
X182800Y145900D01*
X205125Y127500D02*
X205925D01*
X205125D02*
Y127900D01*
X207325Y127500D02*
X208125Y127500D01*
X208125Y127900D01*
X181850Y150600D02*
X183150Y150600D01*
X206950Y153100D02*
X208250Y153100D01*
X159000Y129500D02*
X160400Y129500D01*
X161680Y129514D02*
X163080Y129514D01*
X114015Y137049D02*
X114015Y135649D01*
X250103Y144555D02*
X252897D01*
X250650Y145050D02*
X252350Y145050D01*
X252800Y145500D01*
X250200Y145500D02*
X250650Y145050D01*
X252800Y149950D02*
X252800Y152650D01*
X250200Y149950D02*
X250200Y152650D01*
X252800Y152650D01*
X252800Y145500D02*
X252800Y148050D01*
X250200Y145500D02*
Y148050D01*
X115247Y103766D02*
X125247D01*
X115247Y102166D02*
X125247Y102166D01*
X125247Y103766D02*
X125247Y102166D01*
X115247Y103766D02*
X115247Y102166D01*
X284451Y135540D02*
X285751Y135540D01*
X170450Y125500D02*
X171750Y125500D01*
X270601Y148494D02*
Y149794D01*
X126800Y109800D02*
X126800Y108400D01*
X128800Y99675D02*
X128800Y101075D01*
X125900Y141600D02*
X125900Y142000D01*
X125100Y141600D02*
X125900Y141600D01*
X122900Y141600D02*
X122900Y142000D01*
X122900Y141600D02*
X123700Y141600D01*
X125500Y135400D02*
X125500Y136800D01*
X167950Y132600D02*
X169250Y132600D01*
X166600Y118000D02*
Y119400D01*
X149204Y133179D02*
X150604Y133179D01*
X143000Y137500D02*
X144400Y137500D01*
X126200Y135900D02*
X127600D01*
X132900Y138400D02*
X132900Y137000D01*
X132900Y134300D02*
X132900Y135700D01*
X149504Y123011D02*
Y124311D01*
X149929Y120654D02*
X151229D01*
X123600Y111900D02*
X123600Y110500D01*
X117700Y127750D02*
X118500Y127750D01*
X117700Y126050D02*
X118500Y126050D01*
X101200Y115950D02*
Y117250D01*
X100000Y125400D02*
X100000Y124000D01*
X119750Y115800D02*
X121050Y115800D01*
X131450Y111400D02*
X132750Y111400D01*
X128000Y106600D02*
X128000Y105200D01*
X128300Y107500D02*
X129700Y107500D01*
X128700Y102400D02*
X128700Y103800D01*
X109678Y141930D02*
Y143230D01*
X114000Y132600D02*
Y134000D01*
X142050Y112100D02*
X142050Y109500D01*
X135350Y109500D02*
Y112100D01*
X142050Y112100D01*
X135350Y109500D02*
X142050Y109500D01*
X167450Y117300D02*
X168750Y117300D01*
X146500Y98250D02*
Y99550D01*
X160800Y104150D02*
X163200D01*
X160800Y100850D02*
X163200Y100850D01*
X143150Y126000D02*
X144450D01*
X153784Y119739D02*
X155084D01*
X286700Y118900D02*
X288100Y118900D01*
X289587Y118905D02*
X290987Y118905D01*
X286500Y108800D02*
X286500Y107400D01*
X293550Y110800D02*
X294850D01*
X278801Y153190D02*
X278801Y151890D01*
X278801Y149790D02*
X278801Y148490D01*
X168500Y140450D02*
X168500Y141750D01*
X105251Y119973D02*
Y121273D01*
X290125Y97275D02*
Y98575D01*
X284301Y144940D02*
Y146340D01*
X275444Y141146D02*
X276844Y141146D01*
X278201Y141140D02*
X279601Y141140D01*
X278601Y135390D02*
Y136690D01*
X281650Y134000D02*
X282950Y134000D01*
X288700Y114900D02*
X290100D01*
X285800D02*
X287200D01*
X119550Y121000D02*
X120850Y121000D01*
X173000Y120700D02*
X174400Y120700D01*
X170200Y121200D02*
X171600Y121200D01*
M02*
