G04*
G04 #@! TF.GenerationSoftware,Altium Limited,Altium Designer,22.6.1 (34)*
G04*
G04 Layer_Color=8388736*
%FSLAX43Y43*%
%MOMM*%
G71*
G04*
G04 #@! TF.SameCoordinates,2E3A46DB-1EF5-4CD4-91FC-F2C1E03D2978*
G04*
G04*
G04 #@! TF.FilePolarity,Negative*
G04*
G01*
G75*
%ADD13C,0.500*%
%ADD33R,1.803X1.703*%
G04:AMPARAMS|DCode=34|XSize=1.703mm|YSize=1.603mm|CornerRadius=0mm|HoleSize=0mm|Usage=FLASHONLY|Rotation=225.000|XOffset=0mm|YOffset=0mm|HoleType=Round|Shape=Rectangle|*
%AMROTATEDRECTD34*
4,1,4,0.035,1.169,1.169,0.035,-0.035,-1.169,-1.169,-0.035,0.035,1.169,0.0*
%
%ADD34ROTATEDRECTD34*%

%ADD35R,1.603X1.703*%
%ADD36O,2.803X0.903*%
%ADD37R,2.803X0.903*%
%ADD38R,1.703X1.603*%
%ADD39R,1.703X1.803*%
%ADD40R,2.003X0.803*%
%ADD41R,0.803X2.003*%
%ADD42R,2.003X2.603*%
%ADD43O,0.903X2.703*%
%ADD44O,0.803X2.403*%
%ADD45O,2.403X0.803*%
%ADD46R,1.703X2.103*%
%ADD47R,3.503X2.903*%
%ADD48R,1.203X2.903*%
%ADD49R,2.403X3.703*%
%ADD50R,1.651X1.651*%
%ADD51C,1.651*%
%ADD52C,2.235*%
%ADD53C,3.403*%
%ADD54C,2.203*%
%ADD55C,1.703*%
%ADD56C,1.553*%
%ADD57R,1.553X1.553*%
%ADD58C,2.703*%
%ADD59R,1.703X1.703*%
%ADD60R,1.553X1.553*%
%ADD61C,1.503*%
%ADD62C,1.603*%
%ADD63C,2.503*%
%ADD64C,4.203*%
%ADD65C,2.603*%
%ADD66C,5.080*%
%ADD67C,0.813*%
%ADD68C,0.813*%
%ADD69C,1.203*%
%ADD70C,0.953*%
%ADD71C,1.473*%
D13*
X97502Y93000D02*
X315500D01*
X315500Y158000D02*
X315500Y93000D01*
X97502Y158000D02*
X315500D01*
X97502D02*
X97502Y93000D01*
D33*
X115200Y115750D02*
D03*
Y117650D02*
D03*
X111500Y116350D02*
D03*
Y118250D02*
D03*
X125000Y97850D02*
D03*
Y95950D02*
D03*
X232000Y150050D02*
D03*
Y151950D02*
D03*
X229500Y150050D02*
D03*
X229500Y151950D02*
D03*
X159700Y132450D02*
D03*
Y130550D02*
D03*
X162380Y132464D02*
D03*
Y130564D02*
D03*
X149904Y134229D02*
D03*
X149904Y136129D02*
D03*
X143700Y140450D02*
D03*
Y138550D02*
D03*
X126900Y136950D02*
D03*
X126900Y138850D02*
D03*
X129000Y108550D02*
D03*
X129000Y110450D02*
D03*
X287400Y119950D02*
D03*
Y121850D02*
D03*
X290287Y119955D02*
D03*
Y121855D02*
D03*
X276144Y144096D02*
D03*
Y142196D02*
D03*
X278901Y144090D02*
D03*
X278901Y142190D02*
D03*
X289400Y113850D02*
D03*
X289400Y111950D02*
D03*
X286500Y113850D02*
D03*
X286500Y111950D02*
D03*
X173700Y119650D02*
D03*
X173700Y117750D02*
D03*
X170900Y120150D02*
D03*
X170900Y118250D02*
D03*
D34*
X138793Y103107D02*
D03*
X140207Y101693D02*
D03*
D35*
X108700Y145000D02*
D03*
X110700D02*
D03*
X129700Y140350D02*
D03*
X131700Y140350D02*
D03*
X235500Y145700D02*
D03*
X237500D02*
D03*
X269601Y149144D02*
D03*
X271601D02*
D03*
X150504Y123661D02*
D03*
X148504D02*
D03*
X100200Y116600D02*
D03*
X102200Y116600D02*
D03*
X110678Y142580D02*
D03*
X108678D02*
D03*
X147500Y98900D02*
D03*
X145500Y98900D02*
D03*
X277801Y152540D02*
D03*
X279801Y152540D02*
D03*
X279801Y149140D02*
D03*
X277801Y149140D02*
D03*
X167500Y141100D02*
D03*
X169500D02*
D03*
X104251Y120623D02*
D03*
X106251D02*
D03*
X289125Y97925D02*
D03*
X291125D02*
D03*
X277601Y136040D02*
D03*
X279601D02*
D03*
D36*
X196300Y151600D02*
D03*
Y154140D02*
D03*
Y149060D02*
D03*
X186300D02*
D03*
Y151600D02*
D03*
D37*
Y154140D02*
D03*
D38*
X290900Y104200D02*
D03*
Y102200D02*
D03*
X231800Y146400D02*
D03*
X231800Y144400D02*
D03*
X222300Y145300D02*
D03*
Y147300D02*
D03*
X182500Y149600D02*
D03*
X207600Y152100D02*
D03*
X182500Y151600D02*
D03*
X207600Y154100D02*
D03*
X285101Y134540D02*
D03*
Y136540D02*
D03*
X171100Y126500D02*
D03*
Y124500D02*
D03*
X168600Y131600D02*
D03*
Y133600D02*
D03*
X150579Y121654D02*
D03*
Y119654D02*
D03*
X120400Y116800D02*
D03*
Y114800D02*
D03*
X132100Y110400D02*
D03*
X132100Y112400D02*
D03*
X168100Y118300D02*
D03*
Y116300D02*
D03*
X143800Y127000D02*
D03*
Y125000D02*
D03*
X154434Y118739D02*
D03*
Y120739D02*
D03*
X294200Y111800D02*
D03*
Y109800D02*
D03*
X282300Y133000D02*
D03*
X282300Y135000D02*
D03*
X120200Y120000D02*
D03*
Y122000D02*
D03*
D39*
X226850Y148800D02*
D03*
X224950D02*
D03*
X183850Y146600D02*
D03*
X185750Y146600D02*
D03*
X115065Y136349D02*
D03*
X116965D02*
D03*
X123850Y109100D02*
D03*
X125750D02*
D03*
X129850Y100375D02*
D03*
X131750Y100375D02*
D03*
X124450Y136100D02*
D03*
X122550Y136100D02*
D03*
X163650Y118700D02*
D03*
X165550Y118700D02*
D03*
X131850Y137700D02*
D03*
X129950D02*
D03*
X129950Y135000D02*
D03*
X131850D02*
D03*
X122550Y111200D02*
D03*
X120650D02*
D03*
X102950Y124700D02*
D03*
X101050D02*
D03*
X129050Y105900D02*
D03*
X130950Y105900D02*
D03*
X129750Y103100D02*
D03*
X131650Y103100D02*
D03*
X115050Y133300D02*
D03*
X116950Y133300D02*
D03*
X287550Y108100D02*
D03*
X289450Y108100D02*
D03*
X287251Y145640D02*
D03*
X285351Y145640D02*
D03*
D40*
X228725Y144778D02*
D03*
X228725Y146678D02*
D03*
X226725Y145728D02*
D03*
D41*
X206625Y127200D02*
D03*
X207575Y129200D02*
D03*
X205675D02*
D03*
X125350Y143300D02*
D03*
X123450Y143300D02*
D03*
X124400Y141300D02*
D03*
D42*
X251500Y146950D02*
D03*
X251500Y151050D02*
D03*
D43*
X124692Y105416D02*
D03*
X123422Y105416D02*
D03*
X122152Y105416D02*
D03*
X120882Y105416D02*
D03*
X119612Y105416D02*
D03*
X118342Y105416D02*
D03*
X117072Y105416D02*
D03*
X115802Y105416D02*
D03*
X124692Y100516D02*
D03*
X123422Y100516D02*
D03*
X122152Y100516D02*
D03*
X120882Y100516D02*
D03*
X119612Y100516D02*
D03*
X118342Y100516D02*
D03*
X117072Y100516D02*
D03*
X115802Y100516D02*
D03*
D44*
X168505Y128675D02*
D03*
X167235Y128675D02*
D03*
X165965Y128675D02*
D03*
X164695Y128675D02*
D03*
X168505Y122925D02*
D03*
X167235Y122925D02*
D03*
X165965D02*
D03*
X164695Y122925D02*
D03*
X108656Y130454D02*
D03*
X109926Y130454D02*
D03*
X111196Y130454D02*
D03*
X112466Y130454D02*
D03*
X108656Y136204D02*
D03*
X109926Y136204D02*
D03*
X111196Y136204D02*
D03*
X112466Y136204D02*
D03*
D45*
X146579Y129766D02*
D03*
X146579Y127226D02*
D03*
X146579Y125956D02*
D03*
X152329Y129766D02*
D03*
X152329Y128496D02*
D03*
X152329Y125956D02*
D03*
X146579Y128496D02*
D03*
X152329Y127226D02*
D03*
D46*
X116550Y126900D02*
D03*
X119650Y126900D02*
D03*
D47*
X138700Y113750D02*
D03*
D48*
X141000Y107850D02*
D03*
X138700D02*
D03*
X136400D02*
D03*
D49*
X159300Y102500D02*
D03*
X164700Y102500D02*
D03*
D50*
X117700Y130200D02*
D03*
D51*
X115160D02*
D03*
D52*
X302730Y124620D02*
D03*
X305270Y124620D02*
D03*
X238770Y138800D02*
D03*
X236230D02*
D03*
X311750Y119085D02*
D03*
X311750Y116545D02*
D03*
X311750Y114005D02*
D03*
X311750Y111465D02*
D03*
X137340Y153400D02*
D03*
X134800D02*
D03*
X132260Y153400D02*
D03*
X266000Y121630D02*
D03*
Y124170D02*
D03*
X267130Y130100D02*
D03*
X269670D02*
D03*
X294470Y125300D02*
D03*
X291930D02*
D03*
X103670Y151700D02*
D03*
X101130D02*
D03*
X167924Y110658D02*
D03*
X110400Y98100D02*
D03*
X175100Y148900D02*
D03*
X99557Y95195D02*
D03*
X156857Y117086D02*
D03*
X171384Y144500D02*
D03*
D53*
X133200Y129800D02*
D03*
X128500D02*
D03*
X123800D02*
D03*
X133200Y125000D02*
D03*
X128500D02*
D03*
X123800D02*
D03*
X133200Y120200D02*
D03*
X128500D02*
D03*
X123800D02*
D03*
X206500Y123200D02*
D03*
X116000Y149700D02*
D03*
Y145000D02*
D03*
Y140300D02*
D03*
X302300Y100600D02*
D03*
X307000D02*
D03*
X311700D02*
D03*
X302300Y105400D02*
D03*
X307000D02*
D03*
X311700D02*
D03*
X154300Y140200D02*
D03*
X159000D02*
D03*
X163700D02*
D03*
X154300Y145000D02*
D03*
X159000D02*
D03*
X163700D02*
D03*
X154300Y149800D02*
D03*
X159000D02*
D03*
X163700D02*
D03*
X278900Y116300D02*
D03*
Y121000D02*
D03*
Y125700D02*
D03*
X274100Y116300D02*
D03*
Y121000D02*
D03*
Y125700D02*
D03*
X211200Y138900D02*
D03*
X206500D02*
D03*
X201800D02*
D03*
X211200Y134100D02*
D03*
X206500D02*
D03*
X201800D02*
D03*
X286700Y103100D02*
D03*
X282000D02*
D03*
X277300D02*
D03*
D54*
X109926Y153195D02*
D03*
X147429Y142859D02*
D03*
X109924Y149008D02*
D03*
X104133Y140064D02*
D03*
X100774Y141374D02*
D03*
X100856Y137770D02*
D03*
X105133Y108410D02*
D03*
X224700Y130080D02*
D03*
X224700Y127540D02*
D03*
X224700Y125000D02*
D03*
X224700Y122460D02*
D03*
X224700Y119920D02*
D03*
X228300Y119920D02*
D03*
X228300Y122460D02*
D03*
X228300Y125000D02*
D03*
Y127540D02*
D03*
X228300Y130080D02*
D03*
X184700Y130080D02*
D03*
X184700Y127540D02*
D03*
X184700Y125000D02*
D03*
X184700Y122460D02*
D03*
X184700Y119920D02*
D03*
X188300Y119920D02*
D03*
X188300Y122460D02*
D03*
X188300Y125000D02*
D03*
Y127540D02*
D03*
X188300Y130080D02*
D03*
X297500Y128900D02*
D03*
X302500Y128900D02*
D03*
X300000Y128900D02*
D03*
X257000Y128900D02*
D03*
X259500D02*
D03*
X254500D02*
D03*
X178625Y153650D02*
D03*
D55*
X309000Y127200D02*
D03*
X311500Y129700D02*
D03*
X309000Y132200D02*
D03*
X117200Y122300D02*
D03*
X114700Y124800D02*
D03*
X112200Y122300D02*
D03*
X272401Y140640D02*
D03*
X269901Y143140D02*
D03*
X272401Y145640D02*
D03*
X286300Y124850D02*
D03*
X101912Y109229D02*
D03*
X103141Y111359D02*
D03*
X105271Y112588D02*
D03*
X107729D02*
D03*
X109859Y111359D02*
D03*
X111088Y109229D02*
D03*
Y106771D02*
D03*
X109859Y104641D02*
D03*
X107729Y103412D02*
D03*
X105271D02*
D03*
X103141Y104641D02*
D03*
X101912Y106771D02*
D03*
X203700Y143800D02*
D03*
X211273Y143732D02*
D03*
X296200Y142300D02*
D03*
D56*
X175100Y122900D02*
D03*
X171800Y137400D02*
D03*
X289600Y142300D02*
D03*
X132400Y97600D02*
D03*
X140200Y119900D02*
D03*
X144150Y153400D02*
D03*
X124800Y150400D02*
D03*
X103600Y130000D02*
D03*
D57*
X177100Y122900D02*
D03*
X169800Y137400D02*
D03*
X138200Y119900D02*
D03*
X101600Y130000D02*
D03*
D58*
X246800Y151840D02*
D03*
Y146760D02*
D03*
X254137Y117225D02*
D03*
X259712Y103775D02*
D03*
X267712Y103625D02*
D03*
X264837Y98650D02*
D03*
X259862Y95775D02*
D03*
X246262Y103625D02*
D03*
X249137Y98650D02*
D03*
X254113Y95775D02*
D03*
D59*
X286300Y127350D02*
D03*
D60*
X289600Y140300D02*
D03*
X132400Y95600D02*
D03*
X144150Y151400D02*
D03*
X124800Y148400D02*
D03*
D61*
X148570Y102133D02*
D03*
X146510Y103510D02*
D03*
X145133Y105570D02*
D03*
X144650Y108000D02*
D03*
X145133Y110430D02*
D03*
X146510Y112490D02*
D03*
X148570Y113867D02*
D03*
X151000Y114350D02*
D03*
X153430Y113867D02*
D03*
X155490Y112490D02*
D03*
X156867Y110430D02*
D03*
X157350Y108000D02*
D03*
X156867Y105570D02*
D03*
X155490Y103510D02*
D03*
X153430Y102133D02*
D03*
X151000Y101650D02*
D03*
D62*
Y108000D02*
D03*
D63*
X298350Y102800D02*
D03*
X294850Y102800D02*
D03*
X283900Y152550D02*
D03*
X283900Y149050D02*
D03*
D64*
X306100Y136500D02*
D03*
X293900D02*
D03*
X250900D02*
D03*
X263100D02*
D03*
D65*
X236500Y105500D02*
D03*
X226500D02*
D03*
X216500D02*
D03*
X196500D02*
D03*
X186500D02*
D03*
X176500D02*
D03*
D66*
X236500Y100000D02*
D03*
X226500D02*
D03*
X216500D02*
D03*
X196500D02*
D03*
X186500D02*
D03*
X176500D02*
D03*
D67*
X114300Y120400D02*
D03*
X116400Y117700D02*
D03*
X109800Y117300D02*
D03*
X124200Y114450D02*
D03*
X126900Y140200D02*
D03*
X292900Y111800D02*
D03*
X299800Y120500D02*
D03*
X118900Y114800D02*
D03*
X116041Y123400D02*
D03*
X165600Y120000D02*
D03*
X98500Y119350D02*
D03*
X125793Y111000D02*
D03*
X124500Y110900D02*
D03*
X144200Y99400D02*
D03*
X132300Y109000D02*
D03*
X125900Y113300D02*
D03*
X124600Y116950D02*
D03*
X120500Y118100D02*
D03*
X169500Y117900D02*
D03*
X137700Y131400D02*
D03*
X147050Y123800D02*
D03*
X130100Y114800D02*
D03*
X143400Y130500D02*
D03*
X128400Y138600D02*
D03*
X139500Y145400D02*
D03*
X133600Y133400D02*
D03*
X139300Y133100D02*
D03*
X122550Y112375D02*
D03*
X152100Y122600D02*
D03*
X208500Y130200D02*
D03*
X233894Y154308D02*
D03*
X238242Y149280D02*
D03*
X240000Y151500D02*
D03*
X236200D02*
D03*
X162834Y135162D02*
D03*
X161700Y128200D02*
D03*
X158001Y133600D02*
D03*
X202008Y141615D02*
D03*
X214408Y147113D02*
D03*
X149800Y153900D02*
D03*
X152344Y156500D02*
D03*
X166158Y148100D02*
D03*
X156718Y143746D02*
D03*
X161737Y142892D02*
D03*
X165500Y142519D02*
D03*
X161108Y147361D02*
D03*
X152500Y147630D02*
D03*
X156579Y151266D02*
D03*
X165927D02*
D03*
X114270Y106097D02*
D03*
X113200Y119300D02*
D03*
X215292Y132756D02*
D03*
X217900Y142300D02*
D03*
X220700D02*
D03*
X149673Y100726D02*
D03*
X170900Y116700D02*
D03*
X273700Y138600D02*
D03*
X281200Y138100D02*
D03*
X276677Y134768D02*
D03*
X301400Y142100D02*
D03*
X165300Y111200D02*
D03*
X122000Y122500D02*
D03*
X130628Y131852D02*
D03*
X153582Y97450D02*
D03*
X161500Y97500D02*
D03*
Y98800D02*
D03*
X155587Y115508D02*
D03*
X157261Y113758D02*
D03*
X147050Y122068D02*
D03*
X142800Y107500D02*
D03*
X152831Y100600D02*
D03*
X157025Y100891D02*
D03*
X264100Y111800D02*
D03*
X287900Y114600D02*
D03*
X244200Y123600D02*
D03*
X154300Y128500D02*
D03*
X229800Y125950D02*
D03*
X275100Y108200D02*
D03*
X270900Y108300D02*
D03*
X258100Y108600D02*
D03*
X256100Y116300D02*
D03*
X256600Y114200D02*
D03*
X262300Y110000D02*
D03*
X268962Y113550D02*
D03*
X298165Y98073D02*
D03*
X303431Y97375D02*
D03*
X300350Y97996D02*
D03*
X298100Y94100D02*
D03*
X275000Y96550D02*
D03*
X289007Y96407D02*
D03*
X289000Y100500D02*
D03*
X284300Y96667D02*
D03*
Y99200D02*
D03*
X285046Y100715D02*
D03*
X275000Y100600D02*
D03*
X279500D02*
D03*
Y96800D02*
D03*
X283470Y100709D02*
D03*
X277200Y100600D02*
D03*
X279500Y98200D02*
D03*
X251224Y111939D02*
D03*
X256700Y122000D02*
D03*
X268647Y126962D02*
D03*
X271586Y125854D02*
D03*
X263100Y115500D02*
D03*
X288900Y119200D02*
D03*
X298750Y116545D02*
D03*
X304600Y132300D02*
D03*
X297720Y114700D02*
D03*
X289800Y105275D02*
D03*
X112500Y115000D02*
D03*
X225100Y146478D02*
D03*
X234208Y145700D02*
D03*
X224673Y145300D02*
D03*
X219297Y150700D02*
D03*
X212600D02*
D03*
X190177Y139255D02*
D03*
X270000Y120700D02*
D03*
Y123000D02*
D03*
X251300Y96600D02*
D03*
X256954Y95775D02*
D03*
X183100Y123900D02*
D03*
Y125800D02*
D03*
X216279Y126290D02*
D03*
X195100Y124800D02*
D03*
X208800Y136400D02*
D03*
X229800Y123900D02*
D03*
X222700Y126164D02*
D03*
X195796Y134288D02*
D03*
X198600Y131500D02*
D03*
X192252Y132119D02*
D03*
X198100Y144100D02*
D03*
X191739Y143066D02*
D03*
X179901Y138891D02*
D03*
X190275Y135975D02*
D03*
X209600Y128900D02*
D03*
Y125000D02*
D03*
X212800Y125100D02*
D03*
X202922Y117992D02*
D03*
X200207Y121372D02*
D03*
X200000Y125400D02*
D03*
Y128400D02*
D03*
X204000Y122100D02*
D03*
X203500Y125400D02*
D03*
Y128400D02*
D03*
X300700Y117370D02*
D03*
X270000Y117800D02*
D03*
X251300Y110400D02*
D03*
X130263Y150179D02*
D03*
X298567Y130500D02*
D03*
X291815Y114432D02*
D03*
X295099Y117431D02*
D03*
X301094Y115484D02*
D03*
X252654Y143840D02*
D03*
X291216Y117319D02*
D03*
X313900Y102892D02*
D03*
X313300Y94300D02*
D03*
X252850Y111860D02*
D03*
X254200Y110400D02*
D03*
X122500Y134500D02*
D03*
X99901Y123050D02*
D03*
X115100Y128084D02*
D03*
X103879Y114668D02*
D03*
X98700Y110500D02*
D03*
X177164Y128996D02*
D03*
X297120Y148900D02*
D03*
X279800Y150900D02*
D03*
X277847Y150884D02*
D03*
X268100Y149200D02*
D03*
X273486Y133185D02*
D03*
X274900Y130800D02*
D03*
X272600D02*
D03*
X268399Y131792D02*
D03*
X257905Y134694D02*
D03*
X293078Y139647D02*
D03*
X284097Y110625D02*
D03*
X275267Y129400D02*
D03*
X272100D02*
D03*
X249900Y110400D02*
D03*
X269900Y100200D02*
D03*
X246500Y110200D02*
D03*
X254100Y106700D02*
D03*
X249100Y106800D02*
D03*
X249800Y103500D02*
D03*
X264984Y102200D02*
D03*
X245097Y106309D02*
D03*
X244300Y119400D02*
D03*
X247400Y94700D02*
D03*
X259700Y110100D02*
D03*
X248441Y115169D02*
D03*
X269601Y150672D02*
D03*
X296528Y155900D02*
D03*
X297720Y123400D02*
D03*
X295504Y133711D02*
D03*
X292800Y130500D02*
D03*
X291216Y130318D02*
D03*
X289623D02*
D03*
X287600Y130200D02*
D03*
X282090Y130285D02*
D03*
X283919Y133338D02*
D03*
X290866Y133700D02*
D03*
X288019Y133338D02*
D03*
X285119D02*
D03*
X283601Y138640D02*
D03*
X161000Y130600D02*
D03*
X155089Y133946D02*
D03*
X167483Y135742D02*
D03*
X156700Y147400D02*
D03*
X147156Y146100D02*
D03*
X145600Y137500D02*
D03*
X145792Y135179D02*
D03*
X139350Y140975D02*
D03*
X123100Y145100D02*
D03*
X125983Y146515D02*
D03*
X127100Y144308D02*
D03*
X131542Y146488D02*
D03*
X139420Y151442D02*
D03*
X143109Y143944D02*
D03*
X147156Y149292D02*
D03*
X143300Y146515D02*
D03*
X143600Y122100D02*
D03*
X129300Y113400D02*
D03*
X134600Y108600D02*
D03*
X120642Y112911D02*
D03*
X126100Y118500D02*
D03*
X127300Y133400D02*
D03*
X130900Y126100D02*
D03*
X122456Y137781D02*
D03*
X122000Y152000D02*
D03*
X113800Y138000D02*
D03*
X107013Y141180D02*
D03*
X99400Y139500D02*
D03*
X102300D02*
D03*
X102200Y134400D02*
D03*
X99648Y133571D02*
D03*
X106978Y132420D02*
D03*
X107500Y135100D02*
D03*
X105181Y137400D02*
D03*
X106953Y123894D02*
D03*
X106900Y126100D02*
D03*
X110500Y125800D02*
D03*
X110646Y120008D02*
D03*
X108354Y126946D02*
D03*
X107800Y120600D02*
D03*
X117057Y112083D02*
D03*
X134544Y102000D02*
D03*
X134600Y106600D02*
D03*
X114500Y105200D02*
D03*
X296600Y110100D02*
D03*
X251654Y116800D02*
D03*
X269700Y109100D02*
D03*
X268552Y116800D02*
D03*
X279515Y99309D02*
D03*
X310100Y109350D02*
D03*
X281700Y111300D02*
D03*
X283100Y113500D02*
D03*
X283101Y116593D02*
D03*
X298623Y145781D02*
D03*
X292995Y133645D02*
D03*
X284900Y130200D02*
D03*
X285700Y121900D02*
D03*
X290300Y123400D02*
D03*
X281571Y120271D02*
D03*
X280400Y123314D02*
D03*
X256000Y125186D02*
D03*
X263280Y119600D02*
D03*
X260962Y125652D02*
D03*
X264168Y130250D02*
D03*
X258403Y130443D02*
D03*
X258000Y125652D02*
D03*
X260100Y118500D02*
D03*
X247000Y125500D02*
D03*
X251100Y127500D02*
D03*
X244600Y136000D02*
D03*
X254100Y124500D02*
D03*
X244600Y139000D02*
D03*
X245100Y133500D02*
D03*
X244200Y128300D02*
D03*
X248100Y130500D02*
D03*
X253000Y119500D02*
D03*
X243700Y98204D02*
D03*
X250000Y122500D02*
D03*
X251254Y99612D02*
D03*
X243000Y96000D02*
D03*
X259600Y112900D02*
D03*
X249900Y113500D02*
D03*
X266718Y114067D02*
D03*
X269841Y96792D02*
D03*
X292426Y109010D02*
D03*
X301304Y131004D02*
D03*
X301420Y136500D02*
D03*
X304686Y130818D02*
D03*
X301400Y139200D02*
D03*
X297528Y136602D02*
D03*
X296765Y134607D02*
D03*
X297474Y139184D02*
D03*
X301304Y147900D02*
D03*
X304000Y122900D02*
D03*
X299834Y152758D02*
D03*
X267296Y152438D02*
D03*
X253750Y146950D02*
D03*
X179700Y95173D02*
D03*
X191600Y97200D02*
D03*
X198837D02*
D03*
X205359Y95300D02*
D03*
X212050D02*
D03*
X221181D02*
D03*
X231000D02*
D03*
X239900Y102600D02*
D03*
X240400Y94600D02*
D03*
Y127600D02*
D03*
Y132600D02*
D03*
Y136260D02*
D03*
X238500Y140800D02*
D03*
X240285Y147354D02*
D03*
X208900Y132000D02*
D03*
X204100D02*
D03*
X204050Y136400D02*
D03*
X214961Y145800D02*
D03*
X218000Y145900D02*
D03*
X229636Y132756D02*
D03*
X235501Y129824D02*
D03*
X234514Y124909D02*
D03*
X233960Y119850D02*
D03*
X238789Y120392D02*
D03*
X239040Y113837D02*
D03*
X233527Y114177D02*
D03*
X239107Y108393D02*
D03*
X233269Y108578D02*
D03*
X226036Y108862D02*
D03*
X222225Y107142D02*
D03*
X218019Y111000D02*
D03*
X224986Y117120D02*
D03*
X215900Y116700D02*
D03*
X210250Y117992D02*
D03*
X208817Y122300D02*
D03*
X212800Y128900D02*
D03*
X214200Y121400D02*
D03*
X217579Y129904D02*
D03*
X220332Y132756D02*
D03*
X216903Y136389D02*
D03*
X186400Y131900D02*
D03*
X187498Y138979D02*
D03*
X199339Y137831D02*
D03*
X187235Y135500D02*
D03*
X190400Y128700D02*
D03*
X190100Y112700D02*
D03*
X190400Y106309D02*
D03*
X193385Y109642D02*
D03*
X187586Y110321D02*
D03*
X183192Y117486D02*
D03*
X183739Y110760D02*
D03*
X183700Y106349D02*
D03*
X178296Y112316D02*
D03*
X179116Y117700D02*
D03*
X152150Y135661D02*
D03*
X173514Y142350D02*
D03*
X168050Y143480D02*
D03*
X167596Y94700D02*
D03*
X154857Y110600D02*
D03*
X155387Y106954D02*
D03*
X153486Y104106D02*
D03*
X150033Y103416D02*
D03*
X146357Y107100D02*
D03*
X148350Y112031D02*
D03*
X151967Y112600D02*
D03*
X117800Y125455D02*
D03*
X127400Y127377D02*
D03*
X121900Y141600D02*
D03*
Y148600D02*
D03*
X122338Y154416D02*
D03*
X117100Y98500D02*
D03*
X119000Y102400D02*
D03*
X294464Y143935D02*
D03*
X288885Y145615D02*
D03*
X287251Y147290D02*
D03*
Y144109D02*
D03*
X274607Y144681D02*
D03*
X276144Y145747D02*
D03*
X282013Y142005D02*
D03*
X282150Y143287D02*
D03*
X273486Y141913D02*
D03*
X277200Y138500D02*
D03*
X279984Y131004D02*
D03*
X278000Y129400D02*
D03*
X226500Y124516D02*
D03*
Y125600D02*
D03*
X186500Y124576D02*
D03*
Y125484D02*
D03*
X302900Y94100D02*
D03*
X310063Y112480D02*
D03*
X304000Y126300D02*
D03*
X137800Y124800D02*
D03*
X134000Y122500D02*
D03*
X106800Y145000D02*
D03*
X117700Y147331D02*
D03*
X113360Y150699D02*
D03*
X114478Y156726D02*
D03*
X117993Y152384D02*
D03*
X117344Y154700D02*
D03*
X159400Y105600D02*
D03*
X161993Y102500D02*
D03*
X169421Y101796D02*
D03*
X168407Y106053D02*
D03*
X165900Y108600D02*
D03*
X165406Y113639D02*
D03*
X165288Y115623D02*
D03*
X161769Y116254D02*
D03*
X163084Y127663D02*
D03*
X161100Y134200D02*
D03*
X145200Y140500D02*
D03*
X139600Y148700D02*
D03*
X112289Y124329D02*
D03*
X135400Y147600D02*
D03*
X110234Y101492D02*
D03*
X103100Y101700D02*
D03*
X130800Y113100D02*
D03*
X119100Y111400D02*
D03*
X120294Y109506D02*
D03*
X112649Y103734D02*
D03*
X115723Y97626D02*
D03*
X114000Y107100D02*
D03*
X154223Y137461D02*
D03*
X156678Y141454D02*
D03*
X143100Y141900D02*
D03*
X197100Y126200D02*
D03*
X218000Y124800D02*
D03*
X218007Y128064D02*
D03*
X195200Y127900D02*
D03*
X190900Y124509D02*
D03*
Y125612D02*
D03*
X222700Y124100D02*
D03*
X177200Y131400D02*
D03*
Y126400D02*
D03*
X173800D02*
D03*
X174100Y131400D02*
D03*
X177164Y140908D02*
D03*
X182500Y143132D02*
D03*
X185800Y144300D02*
D03*
X177150Y136415D02*
D03*
X183364Y141859D02*
D03*
X186778Y143272D02*
D03*
X195000Y141500D02*
D03*
X192400Y138700D02*
D03*
X165419Y125656D02*
D03*
X162100Y119318D02*
D03*
X171700Y115100D02*
D03*
X166500Y116273D02*
D03*
X175200Y117800D02*
D03*
X173700Y116200D02*
D03*
X160100Y120900D02*
D03*
X156200Y121400D02*
D03*
X146200Y141359D02*
D03*
X151122Y139058D02*
D03*
X149590Y140249D02*
D03*
X164100Y137400D02*
D03*
X157387Y137461D02*
D03*
X159800Y137350D02*
D03*
X167850Y138919D02*
D03*
X159800Y128747D02*
D03*
X158100Y130300D02*
D03*
X150492Y130528D02*
D03*
X146300Y130875D02*
D03*
X144675Y129625D02*
D03*
X144150Y131496D02*
D03*
X134550Y104625D02*
D03*
X131000Y108600D02*
D03*
X114212Y99221D02*
D03*
X114800Y102100D02*
D03*
X106700Y100700D02*
D03*
X107401Y130287D02*
D03*
X108600Y128504D02*
D03*
X116600Y134800D02*
D03*
X117900Y138000D02*
D03*
X113334Y142859D02*
D03*
X103200Y126200D02*
D03*
X104519Y124650D02*
D03*
X103000Y123000D02*
D03*
X104300Y95100D02*
D03*
X107700D02*
D03*
X126000Y105300D02*
D03*
X156100Y125700D02*
D03*
X163100Y125183D02*
D03*
X124400Y143300D02*
D03*
X171281Y128021D02*
D03*
X167100Y130900D02*
D03*
X152150Y134229D02*
D03*
X108600Y137800D02*
D03*
X125747Y100458D02*
D03*
X109978Y128084D02*
D03*
X111775Y133825D02*
D03*
X117072Y102400D02*
D03*
X119000Y98500D02*
D03*
X283601Y145640D02*
D03*
X277551Y140334D02*
D03*
D68*
X117300Y118800D02*
D03*
X237635Y142909D02*
D03*
X151100Y137700D02*
D03*
X147100Y114400D02*
D03*
X144800Y117000D02*
D03*
X145685Y117003D02*
D03*
X143086Y119690D02*
D03*
X145040Y119596D02*
D03*
X124978Y94765D02*
D03*
X126900Y135600D02*
D03*
X297200Y112800D02*
D03*
X253700Y102400D02*
D03*
X252500Y103400D02*
D03*
X256300Y103900D02*
D03*
X258050Y102067D02*
D03*
X236400Y140800D02*
D03*
X118970Y113123D02*
D03*
X115800Y121400D02*
D03*
X108655Y132282D02*
D03*
X158332Y121331D02*
D03*
X154128Y122600D02*
D03*
X152958Y122225D02*
D03*
X138758Y124715D02*
D03*
X137800Y127800D02*
D03*
X208000Y145800D02*
D03*
X212000D02*
D03*
X229000Y154000D02*
D03*
X224000D02*
D03*
X218977Y154042D02*
D03*
X205584Y151199D02*
D03*
X199800Y154000D02*
D03*
X188700Y148300D02*
D03*
Y150300D02*
D03*
X188740Y152655D02*
D03*
X180573Y154425D02*
D03*
X180390Y151831D02*
D03*
X101400Y112617D02*
D03*
X135400Y145300D02*
D03*
X159827Y114125D02*
D03*
X166200Y99400D02*
D03*
X166177Y97992D02*
D03*
X115000Y98500D02*
D03*
X114074Y101654D02*
D03*
X115000Y107300D02*
D03*
X142200Y101200D02*
D03*
X137408Y101203D02*
D03*
X139500Y105600D02*
D03*
X138300D02*
D03*
X148390Y154670D02*
D03*
X139325Y137875D02*
D03*
X154857Y98508D02*
D03*
X156800Y97400D02*
D03*
X131000Y107300D02*
D03*
X131300Y101725D02*
D03*
X131100Y104500D02*
D03*
X115500Y119300D02*
D03*
X142796Y105792D02*
D03*
X124600Y122600D02*
D03*
X124900Y132002D02*
D03*
Y127600D02*
D03*
X127600Y122655D02*
D03*
X118800Y116300D02*
D03*
X307200Y126300D02*
D03*
X214600Y130200D02*
D03*
X268194Y110493D02*
D03*
X263480Y107900D02*
D03*
X287600Y109700D02*
D03*
X155835Y118850D02*
D03*
X300700Y112800D02*
D03*
X282000Y109010D02*
D03*
X277800Y109100D02*
D03*
X309000Y123600D02*
D03*
X219300Y144100D02*
D03*
X190200Y141600D02*
D03*
D69*
X233000Y148400D02*
D03*
X240040Y141032D02*
D03*
X247900Y113700D02*
D03*
X163600Y113800D02*
D03*
X136400Y105400D02*
D03*
X133650Y141425D02*
D03*
X131900Y143800D02*
D03*
X143300Y118200D02*
D03*
X141000Y105400D02*
D03*
X141600Y126100D02*
D03*
X143100Y134400D02*
D03*
X139700D02*
D03*
X169800Y122800D02*
D03*
X201800Y127300D02*
D03*
Y123600D02*
D03*
X211200Y129100D02*
D03*
Y125047D02*
D03*
X163600Y105246D02*
D03*
X219900Y112100D02*
D03*
X193300Y115200D02*
D03*
Y120000D02*
D03*
X196400Y119900D02*
D03*
X289700Y131900D02*
D03*
X167535Y104553D02*
D03*
X141400Y143800D02*
D03*
X154550Y132200D02*
D03*
D70*
X233300Y144100D02*
D03*
X193000Y149100D02*
D03*
X207567Y150764D02*
D03*
X199800Y151600D02*
D03*
Y149060D02*
D03*
X192893Y154148D02*
D03*
X205700Y154100D02*
D03*
D71*
X215853Y138933D02*
D03*
M02*
