M48
;Layer_Color=9474304
;FILE_FORMAT=4:3
METRIC,LZ
;TYPE=PLATED
T1F00S00C0.305
T2F00S00C0.375
T3F00S00C0.500
T4F00S00C0.600
T5F00S00C0.711
T6F00S00C0.750
T7F00S00C0.800
T8F00S00C0.900
T9F00S00C0.965
T10F00S00C1.000
T11F00S00C1.016
T12F00S00C1.200
T13F00S00C1.295
T14F00S00C1.300
T15F00S00C1.850
T16F00S00C2.700
T17F00S00C5.080
%
T01
X01043Y00951
X01077
X01067Y01007
X0110234Y0101492
X0114074Y0101654
X01148Y01021
X0117072Y01024
X0119Y01024
Y00985
X01171
X0115
X0114212Y0099221
X0115723Y0097626
X01145Y01052
X011427Y0106097
X0114Y01071
X0115Y01073
X0112649Y0103734
X01125Y0115
X01098Y01173
X01164Y01177
X01173Y01188
X01188Y01163
X01189Y01148
X011897Y0113123
X0117057Y0112083
X0103879Y0114668
X01014Y0112617
X00987Y01105
X01031Y01017
X0125747Y0100458
X0126Y01053
X01311Y01045
X0131Y01073
Y01086
X01323Y0109
X01346Y01086
Y01066
X013455Y0104625
X0134544Y0102
X01313Y0101725
X0137408Y0101203
X01422Y01012
X01442Y00994
X0149673Y0100726
X0150033Y0103416
X0153486Y0104106
X0152831Y01006
X0153582Y009745
X0154857Y0098508
X01568Y00974
X0157025Y0100891
X0155387Y0106954
X0154857Y01106
X0151967Y01126
X014835Y0112031
X01471Y01144
X0145685Y0117003
X01448Y0117
X0146357Y01071
X01428Y01075
X0142796Y0105792
X01395Y01056
X01383
X01308Y01131
X01293Y01134
X01301Y01148
X01259Y01133
X0125793Y0111
X01245Y01109
X012255Y0112375
X0120642Y0112911
X01191Y01114
X0120294Y0109506
X01205Y01181
X01246Y011695
X01242Y011445
X01261Y01185
X0124978Y0094765
X0157261Y0113758
X0155587Y0115508
X0155835Y011885
X0161769Y0116254
X0159827Y0114125
X0165406Y0113639
X0165288Y0115623
X01665Y0116273
X01695Y01179
X01709Y01167
X01717Y01151
X01737Y01162
X01752Y01178
X0179116Y01177
X0183192Y0117486
X0183739Y011076
X0187586Y0110321
X01901Y01127
X0193385Y0109642
X01904Y0106309
X01837Y0106349
X0178296Y0112316
X01653Y01112
X01659Y01086
X0168407Y0106053
X0169421Y0101796
X01662Y00994
X0166177Y0097992
X0167596Y00947
X01615Y00975
Y00988
X0161993Y01025
X01594Y01056
X01797Y0095173
X01916Y00972
X0198837
X0205359Y00953
X021205
X0221181
X0231
X0233269Y0108578
X0233527Y0114177
X0224986Y011712
X0226036Y0108862
X0222225Y0107142
X0218019Y0111
X02159Y01167
X021025Y0117992
X0202922Y0117992
X023904Y0113837
X0239107Y0108393
X02399Y01026
X02437Y0098204
X0243Y0096
X02404Y00946
X02474Y00947
X02513Y00966
X0251254Y0099612
X02525Y01034
X02537Y01024
X02563Y01039
X025805Y0102067
X02581Y01086
X02597Y01101
X02623Y011
X026348Y01079
X02641Y01118
X02631Y01155
X0266718Y0114067
X0268962Y011355
X0268552Y01168
X027Y01178
X02697Y01091
X02709Y01083
X02751Y01082
X02778Y01091
X02772Y01006
X0275
Y009655
X0269841Y0096792
X02699Y01002
X0264984Y01022
X0268194Y0110493
X02596Y01129
X02566Y01142
X02561Y01163
X0251654Y01168
X0248441Y0115169
X02499Y01135
X0251224Y0111939
X02513Y01104
X02499
X02465Y01102
X0245097Y0106309
X02491Y01068
X02498Y01035
X02541Y01067
X02542Y01104
X025285Y011186
X02601Y01185
X0256954Y0095775
X02795Y00968
Y00982
X0279515Y0099309
X02795Y01006
X028347Y0100709
X0285046Y0100715
X02843Y00992
Y0096667
X0289007Y0096407
X0289Y01005
X02898Y0105275
X0292426Y010901
X02929Y01118
X0291815Y0114432
X0291216Y0117319
X0295099Y0117431
X029875Y0116545
X03007Y011737
X0301094Y0115484
X03007Y01128
X02972
X029772Y01147
X02966Y01101
X02876Y01097
X0284097Y0110625
X02817Y01113
X0282Y010901
X02831Y01135
X0283101Y0116593
X02879Y01146
X0310063Y011248
X03101Y010935
X03139Y0102892
X03133Y00943
X03029Y00941
X0303431Y0097375
X030035Y0097996
X0298165Y0098073
X02981Y00941
X02998Y01205
X029772Y01234
X0304Y01229
Y01263
X03072
X0309Y01236
X0304686Y0130818
X03046Y01323
X0301304Y0131004
X0298567Y01305
X02928
X0291216Y0130318
X0289623
X02876Y01302
X02849
X028209Y0130285
X0279984Y0131004
X0278Y01294
X02804Y0123314
X0281571Y0120271
X02857Y01219
X02889Y01192
X02903Y01234
X0290866Y01337
X0292995Y0133645
X0295504Y0133711
X0296765Y0134607
X0297528Y0136602
X0297474Y0139184
X03014Y01392
X030142Y01365
X03014Y01421
X0301304Y01479
X0298623Y0145781
X029712Y01489
X0299834Y0152758
X0296528Y01559
X0294464Y0143935
X0293078Y0139647
X0288885Y0145615
X0287251Y0144109
Y014729
X0283601Y014564
X028215Y0143287
X0282013Y0142005
X02812Y01381
X0283601Y013864
X0283919Y0133338
X0285119
X0288019
X02798Y01509
X0277847Y0150884
X0276144Y0145747
X0274607Y0144681
X0273486Y0141913
X02737Y01386
X02772Y01385
X0277551Y0140334
X0276677Y0134768
X0273486Y0133185
X02726Y01308
X02721Y01294
X0275267
X02749Y01308
X0268399Y0131792
X0268647Y0126962
X0271586Y0125854
X027Y0123
Y01207
X026328Y01196
X0260962Y0125652
X0258
X0256Y0125186
X02541Y01245
X02567Y0122
X0253Y01195
X025Y01225
X0247Y01255
X02442Y01236
X02443Y01194
X0238789Y0120392
X02404Y01276
X02442Y01283
X02451Y01335
X02446Y0136
Y0139
X02404Y013626
Y01326
X02481Y01305
X02511Y01275
X0258403Y0130443
X0257905Y0134694
X0264168Y013025
X02681Y01492
X0269601Y0150672
X0267296Y0152438
X025375Y014695
X0252654Y014384
X0240285Y0147354
X0238242Y014928
X024Y01515
X02385Y01408
X02364
X0237635Y0142909
X0234208Y01457
X02362Y01515
X0233894Y0154308
X0229Y0154
X0224
X0218977Y0154042
X0219297Y01507
X0218Y01459
X02193Y01441
X02179Y01423
X02207
X0224673Y01453
X02251Y0146478
X0214961Y01458
X0214408Y0147113
X0212Y01458
X0208
X0205584Y0151199
X02126Y01507
X01998Y0154
X0202008Y0141615
X0199339Y0137831
X020405Y01364
X02041Y0132
X02035Y01284
Y01254
X02
Y01284
X01986Y01315
X02089Y0132
X02085Y01302
X02096Y01289
X02128
X02146Y01302
X0215292Y0132756
X0220332
X0217579Y0129904
X0218007Y0128064
X0218Y01248
X0216279Y012629
X02128Y01251
X02096Y0125
X0208817Y01223
X0204Y01221
X0200207Y0121372
X02142Y01214
X02227Y01241
Y0126164
X02265Y01256
Y0124516
X02298Y01239
Y012595
X0234514Y0124909
X023396Y011985
X0235501Y0129824
X0229636Y0132756
X0216903Y0136389
X02088Y01364
X0195796Y0134288
X0192252Y0132119
X01904Y01287
X01909Y0125612
Y0124509
X01865Y0124576
Y0125484
X01831Y01258
Y01239
X01772Y01264
X0177164Y0128996
X01772Y01314
X01741
X01738Y01264
X0171281Y0128021
X01671Y01309
X0167483Y0135742
X016785Y0138919
X016805Y014348
X01655Y0142519
X0161737Y0142892
X0161108Y0147361
X0166158Y01481
X0165927Y0151266
X018039Y0151831
X0180573Y0154425
X018874Y0152655
X01887Y01503
Y01483
X01858Y01443
X0186778Y0143272
X01825Y0143132
X0183364Y0141859
X0179901Y0138891
X0177164Y0140908
X017715Y0136415
X0173514Y014235
X01641Y01374
X0162834Y0135162
X01611Y01342
X0161Y01306
X01598Y0128747
X01617Y01282
X0163084Y0127663
X01631Y0125183
X0165419Y0125656
X01656Y012
X01621Y0119318
X01601Y01209
X01598Y013735
X0187235Y01355
X0190275Y0135975
X0190177Y0139255
X01902Y01416
X0191739Y0143066
X0195Y01415
X01924Y01387
X0187498Y0138979
X01864Y01319
X01952Y01279
X01951Y01248
X01971Y01262
X01981Y01441
X0156718Y0143746
X0156678Y0141454
X0157387Y0137461
X0154223
X01511Y01377
X0151122Y0139058
X014959Y0140249
X01462Y0141359
X01452Y01405
X01456Y01375
X0145792Y0135179
X01463Y0130875
X014415Y0131496
X01434Y01305
X0144675Y0129625
X0150492Y0130528
X015215Y0134229
Y0135661
X0155089Y0133946
X0158001Y01336
X01581Y01303
X01543Y01285
X01561Y01257
X01562Y01214
X0158332Y0121331
X0154128Y01226
X0152958Y0122225
X01521Y01226
X014705Y0122068
Y01238
X01436Y01221
X0143086Y011969
X014504Y0119596
X0138758Y0124715
X01378Y01248
Y01278
X01377Y01314
X01393Y01331
X0139325Y0137875
X013935Y0140975
X01395Y01454
X01396Y01487
X013942Y0151442
X01354Y01476
Y01453
X0131542Y0146488
X0130263Y0150179
X0125983Y0146515
X01271Y0144308
X01244Y01433
X01231Y01451
X01219Y01416
X0122456Y0137781
X01225Y01345
X01249Y0132002
X01273Y01334
X01269Y01356
X01284Y01386
X01269Y01402
X0130628Y0131852
X01336Y01334
X01309Y01261
X01274Y0127377
X01249Y01276
X01246Y01226
X0122Y01225
X01276Y0122655
X0134Y01225
X01431Y01419
X0143109Y0143944
X01433Y0146515
X0147156Y01461
Y0149292
X014839Y015467
X01498Y01539
X0152344Y01565
X01525Y014763
X01567Y01474
X0156579Y0151266
X0122Y0152
X0122338Y0154416
X01219Y01486
X01177Y0147331
X0117993Y0152384
X0117344Y01547
X0114478Y0156726
X011336Y0150699
X0113334Y0142859
X01138Y0138
X01179
X01166Y01348
X0111775Y0133825
X0108655Y0132282
X0106978Y013242
X0107401Y0130287
X01086Y0128504
X0109978Y0128084
X0108354Y0126946
X01069Y01261
X0106953Y0123894
X0104519Y012465
X01032Y01262
X0103Y0123
X0099901Y012305
X00985Y011935
X01078Y01206
X0110646Y0120008
X01132Y01193
X01143Y01204
X01155Y01193
X01158Y01214
X0116041Y01234
X01178Y0125455
X01151Y0128084
X0112289Y0124329
X01105Y01258
X01075Y01351
X01086Y01378
X0105181Y01374
X01023Y01395
X00994
X0099648Y0133571
X01022Y01344
X0107013Y014118
X01068Y0145
T02
X01998Y014906
Y01516
X02057Y01541
X0207567Y0150764
X02333Y01441
X0193Y01491
X0192893Y0154148
T03
X01364Y01054
X0141
X01433Y01182
X01636Y01138
X01636Y0105246
X0167535Y0104553
X01933Y01152
X02199Y01121
X02479Y01137
X02897Y01319
X024004Y0141032
X0233Y01484
X02112Y01291
Y0125047
X02018Y01236
Y01273
X01964Y01199
X01933Y012
X01698Y01228
X015455Y01322
X01431Y01344
X01397
X01416Y01261
X01414Y01438
X01319
X013365Y0141425
T04
X02863Y012485
X02863Y012735
T05
X0215853Y0138933
T06
X014651Y010351
X014857Y0102133
X0151Y010165
X015343Y0102133
X015549Y010351
X0156867Y010557
X015735Y0108
X0156867Y011043
X015549Y011249
X015343Y0113867
X0151Y011435
X014857Y0113867
X014651Y011249
X0145133Y011043
X014465Y0108
X0145133Y010557
X02962Y01423
X0211273Y0143732
X02037Y01438
T07
X01324Y00956
Y00976
X0151Y0108
X02896Y01403
Y01423
X0309Y01322
Y01272
X03115Y01297
X0272401Y014064
X0269901Y014314
X0272401Y014564
X01718Y01374
X01698
X01751Y01229
X01771
X01402Y01199
X01382Y01199
X0147429Y0142859
X014415Y01514
Y01534
X01248Y01504
Y01484
X0109924Y0149008
X0109926Y0153195
X0104133Y0140064
X0100774Y0141374
X0100856Y013777
X01016Y013
X01036
X01147Y01248
X01172Y01223
X01122
T08
X011516Y01302
X01177
T09
X0099557Y0095195
X01104Y00981
X0156857Y0117086
X0167924Y0110658
X0171384Y01445
X01751Y01489
T10
X0103141Y0104641
X0101912Y0106771
Y0109229
X0103141Y0111359
X0105271Y0112588
X0107729
X0109859Y0111359
X0111088Y0109229
Y0106771
X0109859Y0104641
X0107729Y0103412
X0105271
X0105133Y010841
X02975Y01289
X03
X03025Y01289
X02595
X0257
X02545
X0178625Y015365
T11
X031175Y0111465
X031175Y0114005
X031175Y0116545
X031175Y0119085
X030527Y012462
X030273Y012462
X029447Y01253
X029193
X026967Y01301
X026713
X0266Y012417
Y012163
X023877Y01388
X023623
X013734Y01534
X01348
X013226Y01534
X010367Y01517
X010113
T12
X01765Y01055
X01865
X01965
X02165
X02265
X02365
X029485Y01028
X029835Y01028
X02839Y014905
X02839Y015255
X02283Y013008
X02283Y012754
Y0125
X02283Y012246
X02283Y011992
X02247Y011992
X02247Y012246
X02247Y0125
X02247Y012754
X02247Y013008
X01883Y013008
X01883Y012754
Y0125
X01883Y012246
X01883Y011992
X01847Y011992
X01847Y012246
X01847Y0125
X01847Y012754
X01847Y013008
T13
X02468Y014676
Y015184
T14
X0249137Y009865
X0246262Y0103625
X0259712Y0103775
X0267712Y0103625
X0264837Y009865
X0259862Y0095775
X0254113
X0254137Y0117225
T15
X02773Y01031
X02741Y01163
X02789
X0282Y01031
X02867
X03023Y01054
X0307
X03117
Y01006
X0307
X03023
X02789Y0121
Y01257
X02741
Y0121
X02065Y01232
Y01341
X02112
Y01389
X02065
X02018
Y01341
X01637Y01402
X0159
Y0145
X01637
Y01498
X0159
X01543
Y0145
Y01402
X01332Y01298
X01285
X01238
Y0125
X01285
X01332
Y01202
X01285
X01238
X0116Y01403
Y0145
Y01497
T16
X02939Y01365
X03061
X02631
X02509
T17
X01765Y01
X01865
X01965
X02165
X02265
X02365
M30
