G04*
G04 #@! TF.GenerationSoftware,Altium Limited,Altium Designer,22.6.1 (34)*
G04*
G04 Layer_Color=128*
%FSLAX43Y43*%
%MOMM*%
G71*
G04*
G04 #@! TF.SameCoordinates,AAD44367-0764-4FA4-9AEF-FD5D00886B8E*
G04*
G04*
G04 #@! TF.FilePolarity,Positive*
G04*
G01*
G75*
%ADD13C,0.500*%
%ADD15R,1.600X1.500*%
%ADD17R,1.400X1.500*%
%ADD18O,2.600X0.700*%
%ADD19R,2.600X0.700*%
%ADD20R,1.500X1.400*%
%ADD21R,1.500X1.600*%
%ADD22R,1.800X0.600*%
%ADD23R,0.600X1.800*%
%ADD25O,0.700X2.500*%
%ADD26O,0.600X2.200*%
%ADD27O,2.200X0.600*%
%ADD28R,1.500X1.900*%
%ADD29R,3.300X2.700*%
%ADD30R,1.000X2.700*%
%ADD31R,2.200X3.500*%
%ADD98R,0.152X0.152*%
%ADD99R,0.850X1.600*%
%ADD100R,1.600X0.850*%
%ADD101R,1.400X1.300*%
%ADD102R,3.200X3.500*%
%ADD103R,3.500X3.200*%
%ADD104O,2.500X0.700*%
%ADD105R,1.500X2.800*%
%ADD106R,1.350X0.600*%
%ADD107R,2.800X1.500*%
D13*
X97502Y93000D02*
X315500D01*
X315500Y158000D02*
X315500Y93000D01*
X97502Y158000D02*
X315500D01*
X97502D02*
X97502Y93000D01*
D15*
X126900Y138850D02*
D03*
Y136950D02*
D03*
X168100Y118250D02*
D03*
X168100Y116350D02*
D03*
X216600Y147750D02*
D03*
X216600Y145850D02*
D03*
X125900Y116650D02*
D03*
X125900Y114750D02*
D03*
X143300Y129050D02*
D03*
X143300Y127150D02*
D03*
X146300Y129150D02*
D03*
X146300Y127250D02*
D03*
X108667Y139550D02*
D03*
X108667Y141450D02*
D03*
X110978Y139550D02*
D03*
X110978Y141450D02*
D03*
X255900Y106650D02*
D03*
X255900Y108550D02*
D03*
X285101Y134990D02*
D03*
X285101Y136890D02*
D03*
X283576Y107110D02*
D03*
X283576Y109010D02*
D03*
D17*
X295400Y114000D02*
D03*
X293400D02*
D03*
X298200Y120500D02*
D03*
X296200D02*
D03*
X163800Y132200D02*
D03*
X165800D02*
D03*
X160900Y119300D02*
D03*
X158900D02*
D03*
X163600Y118700D02*
D03*
X165600Y118700D02*
D03*
X139000Y129200D02*
D03*
X141000Y129200D02*
D03*
X141100Y131600D02*
D03*
X139100D02*
D03*
X137800Y139000D02*
D03*
X135800Y139000D02*
D03*
X140000Y136300D02*
D03*
X142000Y136300D02*
D03*
X142050Y114093D02*
D03*
X144050Y114093D02*
D03*
X108978Y115543D02*
D03*
X110978D02*
D03*
X159500Y112500D02*
D03*
X161500D02*
D03*
X161500Y107300D02*
D03*
X159500Y107300D02*
D03*
X141000Y109500D02*
D03*
X143000D02*
D03*
X141000Y111900D02*
D03*
X143000Y111900D02*
D03*
X161500Y109900D02*
D03*
X159500D02*
D03*
X163800Y129600D02*
D03*
X125700Y109000D02*
D03*
X127700D02*
D03*
X251254Y105152D02*
D03*
X249254D02*
D03*
X247900Y108500D02*
D03*
X249900Y108500D02*
D03*
X251654Y101652D02*
D03*
X249654D02*
D03*
X279801Y152540D02*
D03*
X277801D02*
D03*
X165800Y129600D02*
D03*
X171331Y132246D02*
D03*
X169331Y132246D02*
D03*
X128454Y111500D02*
D03*
X130454D02*
D03*
D18*
X212600Y151600D02*
D03*
Y149060D02*
D03*
X202600D02*
D03*
Y154140D02*
D03*
Y151600D02*
D03*
D19*
X212600Y154140D02*
D03*
D20*
X124400Y136700D02*
D03*
X124400Y134700D02*
D03*
X170800Y118300D02*
D03*
X170800Y120300D02*
D03*
X216500Y151100D02*
D03*
X191000Y151100D02*
D03*
X191000Y153100D02*
D03*
X216500D02*
D03*
X99600Y101700D02*
D03*
Y99700D02*
D03*
X140900Y139000D02*
D03*
X140900Y141000D02*
D03*
X114300Y114400D02*
D03*
Y116400D02*
D03*
X132700Y112200D02*
D03*
X132700Y110200D02*
D03*
X129300Y105200D02*
D03*
Y103200D02*
D03*
X132700Y107000D02*
D03*
X132700Y105000D02*
D03*
X143700Y103300D02*
D03*
Y101300D02*
D03*
Y97900D02*
D03*
Y95900D02*
D03*
X146400Y99200D02*
D03*
Y97200D02*
D03*
X148900Y99200D02*
D03*
Y97200D02*
D03*
X151700Y99000D02*
D03*
Y97000D02*
D03*
X148800Y115700D02*
D03*
Y117700D02*
D03*
X151300Y116300D02*
D03*
Y118300D02*
D03*
X153900Y118300D02*
D03*
Y116300D02*
D03*
X252806Y108493D02*
D03*
X252806Y110493D02*
D03*
X262154Y100652D02*
D03*
X262154Y98652D02*
D03*
X263480Y104221D02*
D03*
X263480Y106221D02*
D03*
X254254Y100752D02*
D03*
Y98752D02*
D03*
X259554Y100652D02*
D03*
X259554Y98652D02*
D03*
X279600Y109100D02*
D03*
Y107100D02*
D03*
X289300Y108600D02*
D03*
X289300Y106600D02*
D03*
X290900Y104200D02*
D03*
Y102200D02*
D03*
X274800Y137000D02*
D03*
Y135000D02*
D03*
D21*
X137650Y141500D02*
D03*
X135750D02*
D03*
X149350Y138600D02*
D03*
X147450Y138600D02*
D03*
X143650Y123600D02*
D03*
X145550D02*
D03*
X150450D02*
D03*
X148550Y123600D02*
D03*
X158076Y128725D02*
D03*
X156176Y128725D02*
D03*
X158076Y131725D02*
D03*
X156176Y131725D02*
D03*
X102956Y124700D02*
D03*
X101056D02*
D03*
X279751Y149140D02*
D03*
X277851Y149140D02*
D03*
X249804Y111952D02*
D03*
X247904Y111952D02*
D03*
X169381Y129546D02*
D03*
X171281Y129546D02*
D03*
X120650Y111000D02*
D03*
X122550Y111000D02*
D03*
X285351Y145640D02*
D03*
X287251Y145640D02*
D03*
X280051Y136840D02*
D03*
X278151Y136840D02*
D03*
X139950Y126433D02*
D03*
X138050Y126433D02*
D03*
X193250Y126200D02*
D03*
X195150Y126200D02*
D03*
X219907Y126355D02*
D03*
X218007Y126355D02*
D03*
D22*
X228825Y145728D02*
D03*
Y143828D02*
D03*
X226825Y144778D02*
D03*
X130000Y142250D02*
D03*
X130000Y140350D02*
D03*
X128000Y141300D02*
D03*
X154600Y125700D02*
D03*
X152600Y126650D02*
D03*
Y124750D02*
D03*
X161400Y125183D02*
D03*
X159400Y126133D02*
D03*
X159400Y124233D02*
D03*
D23*
X124413Y141300D02*
D03*
X125363Y143300D02*
D03*
X123463Y143300D02*
D03*
D25*
X124644Y100553D02*
D03*
X123374D02*
D03*
X122104D02*
D03*
X120834D02*
D03*
X119564D02*
D03*
X118294D02*
D03*
X117024D02*
D03*
X115754D02*
D03*
X124644Y105453D02*
D03*
X123374D02*
D03*
X122104D02*
D03*
X120834D02*
D03*
X119564D02*
D03*
X118294D02*
D03*
X117024D02*
D03*
X115754D02*
D03*
D26*
X286357Y117071D02*
D03*
X287627D02*
D03*
X288897D02*
D03*
X290167D02*
D03*
X286357Y111321D02*
D03*
X287627Y111321D02*
D03*
X288897Y111321D02*
D03*
X290167D02*
D03*
X278396Y145615D02*
D03*
X279666Y145615D02*
D03*
X280936Y145615D02*
D03*
X282206Y145615D02*
D03*
X278396Y139865D02*
D03*
X279666Y139865D02*
D03*
X280936D02*
D03*
X282206Y139865D02*
D03*
D27*
X135475Y137205D02*
D03*
X135475Y135935D02*
D03*
X135475Y134665D02*
D03*
Y133395D02*
D03*
X129725Y137205D02*
D03*
X129725Y135935D02*
D03*
X129725Y134665D02*
D03*
X129725Y133395D02*
D03*
X117057Y113123D02*
D03*
X117057Y114393D02*
D03*
X117057Y115663D02*
D03*
X117057Y116933D02*
D03*
X122807Y113123D02*
D03*
X122807Y114393D02*
D03*
X122807Y115663D02*
D03*
Y116933D02*
D03*
D28*
X277950Y133700D02*
D03*
X281050Y133700D02*
D03*
D29*
X138700Y97450D02*
D03*
D30*
X141000Y103350D02*
D03*
X138700Y103350D02*
D03*
X136400Y103350D02*
D03*
D31*
X164200Y97900D02*
D03*
X158800Y97900D02*
D03*
X159300Y102500D02*
D03*
X164700Y102500D02*
D03*
D98*
X213756Y112330D02*
D03*
D99*
X284900Y139100D02*
D03*
Y142500D02*
D03*
D100*
X231800Y140900D02*
D03*
X228400D02*
D03*
D101*
X148800Y127050D02*
D03*
Y129950D02*
D03*
X152100Y131750D02*
D03*
Y128850D02*
D03*
D102*
X295750Y95625D02*
D03*
X300350D02*
D03*
X291500Y98200D02*
D03*
X286900Y98200D02*
D03*
X272600D02*
D03*
X277200Y98200D02*
D03*
D103*
X272975Y105600D02*
D03*
Y110200D02*
D03*
D104*
X101025Y114273D02*
D03*
X101025Y115543D02*
D03*
X101025Y116813D02*
D03*
X101025Y118083D02*
D03*
X101025Y119353D02*
D03*
X101025Y120623D02*
D03*
X101025Y121893D02*
D03*
X105925Y114273D02*
D03*
X105925Y115543D02*
D03*
X105925Y116813D02*
D03*
X105925Y118083D02*
D03*
Y119353D02*
D03*
X105925Y120623D02*
D03*
X105925Y121893D02*
D03*
D105*
X219850Y122400D02*
D03*
X216750Y122400D02*
D03*
X193252Y122457D02*
D03*
X196352Y122457D02*
D03*
D106*
X150579Y134229D02*
D03*
X150579Y136129D02*
D03*
X147429Y136129D02*
D03*
X147429Y135179D02*
D03*
X147429Y134229D02*
D03*
D107*
X281844Y96166D02*
D03*
X281844Y99266D02*
D03*
M02*
