G04*
G04 #@! TF.GenerationSoftware,Altium Limited,Altium Designer,22.6.1 (34)*
G04*
G04 Layer_Color=33789*
%FSLAX43Y43*%
%MOMM*%
G71*
G04*
G04 #@! TF.SameCoordinates,FEFD47CE-FA2D-494C-A3F3-0CD5D296AA06*
G04*
G04*
G04 #@! TF.FilePolarity,Positive*
G04*
G01*
G75*
%ADD10C,0.254*%
%ADD11C,0.600*%
%ADD12C,0.250*%
%ADD13C,0.500*%
%ADD14C,0.200*%
%ADD95C,0.400*%
%ADD116C,0.203*%
%ADD117C,0.300*%
%ADD118C,0.150*%
%ADD119C,0.150*%
%ADD120R,0.550X2.600*%
%ADD121R,2.600X0.550*%
G36*
X239921Y143222D02*
X240356D01*
Y143038D01*
X239921D01*
Y142600D01*
X239736D01*
Y143038D01*
X239300D01*
Y143222D01*
X239736D01*
Y143657D01*
X239921D01*
Y143222D01*
D02*
G37*
D10*
X207770Y123200D02*
G03*
X207770Y123200I-1270J0D01*
G01*
X296000Y110100D02*
G03*
X293700Y110100I-1150J-425D01*
G01*
X293700D02*
G03*
X296000Y110100I1150J425D01*
G01*
X299500Y110100D02*
G03*
X297200Y110100I-1150J-425D01*
G01*
Y110100D02*
G03*
X299500Y110100I1150J425D01*
G01*
X291200Y150200D02*
G03*
X291200Y147900I425J-1150D01*
G01*
X291200Y147900D02*
G03*
X291200Y150200I-425J1150D01*
G01*
X291200Y153700D02*
G03*
X291200Y151400I425J-1150D01*
G01*
Y151400D02*
G03*
X291200Y153700I-425J1150D01*
G01*
X169194Y110658D02*
G03*
X169194Y110658I-1270J0D01*
G01*
X111670Y98100D02*
G03*
X111670Y98100I-1270J0D01*
G01*
X176370Y148900D02*
G03*
X176370Y148900I-1270J0D01*
G01*
X100827Y95195D02*
G03*
X100827Y95195I-1270J0D01*
G01*
X158127Y117086D02*
G03*
X158127Y117086I-1270J0D01*
G01*
X172654Y144500D02*
G03*
X172654Y144500I-1270J0D01*
G01*
X306540Y127160D02*
X306540Y121445D01*
X301460Y127160D02*
X306540Y127160D01*
X301460Y121445D02*
X306540D01*
X301460D02*
X301460Y127160D01*
X301460Y122080D02*
X306540D01*
X234960Y136260D02*
Y141975D01*
Y136260D02*
X240040Y136260D01*
X234960Y141975D02*
X240040Y141975D01*
Y136260D02*
Y141975D01*
X234960Y141340D02*
X240040Y141340D01*
X308575Y110195D02*
X314290D01*
X314290Y120355D02*
X314290Y110195D01*
X308575D02*
Y120355D01*
X314290D01*
X309210D02*
X309210Y110195D01*
X130990Y150860D02*
X138610Y150860D01*
X130990Y155940D02*
X130990Y150225D01*
X138610Y150225D01*
X130990Y155940D02*
X138610Y155940D01*
Y150225D02*
Y155940D01*
X263460Y120360D02*
X263460Y125440D01*
X262825Y125440D02*
X268540D01*
X262825Y120360D02*
X262825Y125440D01*
X268540D02*
X268540Y120360D01*
X262825D02*
X268540D01*
X265860Y132640D02*
X270940Y132640D01*
X270940Y127560D02*
Y133275D01*
X265860Y133275D02*
X270940Y133275D01*
X265860Y127560D02*
X270940Y127560D01*
X265860Y127560D02*
Y133275D01*
X290660Y122760D02*
Y128475D01*
Y122760D02*
X295740Y122760D01*
X290660Y128475D02*
X295740Y128475D01*
Y122760D02*
Y128475D01*
X290660Y127840D02*
X295740Y127840D01*
X99860Y149160D02*
X104940Y149160D01*
X99860Y148525D02*
Y154240D01*
Y148525D02*
X104940Y148525D01*
X99860Y154240D02*
X104940Y154240D01*
Y148525D02*
Y154240D01*
X148000Y129000D02*
X149600D01*
X151300Y129800D02*
X152900D01*
X134251Y132633D02*
Y137967D01*
X130949Y132633D02*
X134251D01*
X130949D02*
X130949Y137967D01*
X134251Y137967D01*
X118281Y117695D02*
X121583Y117695D01*
X118281Y112361D02*
X118281Y117695D01*
X118281Y112361D02*
X121583Y112361D01*
X121583Y117695D02*
X121583Y112361D01*
X113890Y131470D02*
X113890Y128930D01*
X118970Y131470D02*
X118970Y128930D01*
X113890Y131470D02*
X118970Y131470D01*
X113890Y128930D02*
X118970Y128930D01*
X290929Y112545D02*
Y115847D01*
X285595Y115847D02*
X290929Y115847D01*
X285595Y115847D02*
X285595Y112545D01*
X290929Y112545D01*
X277634Y144391D02*
X282968Y144391D01*
X282968Y141089D01*
X277634Y141089D02*
X282968Y141089D01*
X277634Y141089D02*
X277634Y144391D01*
D11*
X212853Y155791D02*
G03*
X212853Y155791I-300J0D01*
G01*
X127200Y100500D02*
G03*
X127200Y100500I-300J0D01*
G01*
X106305Y123287D02*
G03*
X106305Y123287I-300J0D01*
G01*
D12*
X210011Y154140D02*
G03*
X210011Y154140I-125J0D01*
G01*
X228950Y146578D02*
G03*
X228950Y146578I-125J0D01*
G01*
X124389Y103000D02*
G03*
X124389Y103000I-125J0D01*
G01*
X130125Y143100D02*
G03*
X130125Y143100I-125J0D01*
G01*
X122738Y143300D02*
G03*
X122738Y143300I-125J0D01*
G01*
X152725Y123900D02*
G03*
X152725Y123900I-125J0D01*
G01*
X103844Y122017D02*
G03*
X103844Y122017I-125J0D01*
G01*
X159525Y123383D02*
G03*
X159525Y123383I-125J0D01*
G01*
X135475Y103350D02*
G03*
X135475Y103350I-125J0D01*
G01*
X314508Y131233D02*
X315008D01*
X314508Y128233D02*
Y131233D01*
Y128233D02*
X315008D01*
X308008Y126233D02*
Y133233D01*
X315008D01*
Y126233D02*
Y133233D01*
X308008Y126233D02*
X315008D01*
X111200Y118800D02*
X118200D01*
X111200D02*
Y125800D01*
X118200D01*
Y118800D02*
Y125800D01*
X268901Y146640D02*
X275901D01*
X268901Y139640D02*
Y146640D01*
Y139640D02*
X275901D01*
Y146640D01*
X148800Y129000D02*
X148800D01*
X148000Y128200D02*
X148800Y129000D01*
X148800D02*
X149600Y128200D01*
X148000D02*
X149600D01*
X152100Y129800D02*
X152100D01*
X152900Y130600D01*
X151300D02*
X152100Y129800D01*
X151300Y130600D02*
X152900D01*
X307627Y124100D02*
X307294D01*
X307460D01*
Y125100D01*
X307627Y124933D01*
X306084Y128483D02*
X306250Y128650D01*
X306583D01*
X306750Y128483D01*
Y127817D01*
X306583Y127650D01*
X306250D01*
X306084Y127817D01*
X305084Y128483D02*
X305250Y128650D01*
X305584D01*
X305750Y128483D01*
Y127817D01*
X305584Y127650D01*
X305250D01*
X305084Y127817D01*
X304751Y128650D02*
Y127650D01*
X304417Y127983D01*
X304084Y127650D01*
Y128650D01*
X259690Y137308D02*
Y138308D01*
X259190D01*
X259023Y138141D01*
Y137808D01*
X259190Y137642D01*
X259690D01*
X258524Y137308D02*
X258190D01*
X258024Y137475D01*
Y137808D01*
X258190Y137975D01*
X258524D01*
X258690Y137808D01*
Y137475D01*
X258524Y137308D01*
X257524Y138141D02*
Y137975D01*
X257691D01*
X257357D01*
X257524D01*
Y137475D01*
X257357Y137308D01*
X256857D02*
X256524D01*
X256691D01*
Y138308D01*
X256857Y138141D01*
X256024D02*
X255858Y138308D01*
X255525D01*
X255358Y138141D01*
Y137475D01*
X255525Y137308D01*
X255858D01*
X256024Y137475D01*
Y138141D01*
X255025D02*
X254858Y138308D01*
X254525D01*
X254358Y138141D01*
Y137475D01*
X254525Y137308D01*
X254858D01*
X255025Y137475D01*
Y138141D01*
X130378Y118162D02*
Y117162D01*
X129878D01*
X129711Y117329D01*
Y117495D01*
X129878Y117662D01*
X130378D01*
X129878D01*
X129711Y117829D01*
Y117995D01*
X129878Y118162D01*
X130378D01*
X129378Y117162D02*
X128712Y117829D01*
X127712Y117995D02*
X127878Y118162D01*
X128212D01*
X128378Y117995D01*
Y117329D01*
X128212Y117162D01*
X127878D01*
X127712Y117329D01*
Y117662D01*
X128045D01*
X275050Y101250D02*
X274717D01*
X274883D01*
Y102250D01*
X275050Y102083D01*
X274217Y102250D02*
X273550Y101250D01*
Y102250D02*
X274217Y101250D01*
X273217Y101750D02*
X272551D01*
X272218Y101250D02*
X271884D01*
X272051D01*
Y102250D01*
X272218Y102083D01*
X271385D02*
X271218Y102250D01*
X270885D01*
X270718Y102083D01*
Y101417D01*
X270885Y101250D01*
X271218D01*
X271385Y101417D01*
Y102083D01*
X270385Y102250D02*
X269718Y101250D01*
Y102250D02*
X270385Y101250D01*
X120489Y145419D02*
X120656Y145586D01*
X120989D01*
X121156Y145419D01*
Y145253D01*
X120989Y145086D01*
X120656D01*
X120489Y144919D01*
Y144753D01*
X120656Y144586D01*
X120989D01*
X121156Y144753D01*
X119490Y144586D02*
X120156D01*
X119490Y145253D01*
Y145419D01*
X119656Y145586D01*
X119990D01*
X120156Y145419D01*
X119156D02*
X118990Y145586D01*
X118657D01*
X118490Y145419D01*
Y144753D01*
X118657Y144586D01*
X118990D01*
X119156Y144753D01*
Y145419D01*
X154884Y109716D02*
X155050Y109883D01*
X155383D01*
X155550Y109716D01*
Y109550D01*
X155383Y109383D01*
X155050D01*
X154884Y109216D01*
Y109050D01*
X155050Y108883D01*
X155383D01*
X155550Y109050D01*
X154384Y109716D02*
Y109550D01*
X154550D01*
X154217D01*
X154384D01*
Y109050D01*
X154217Y108883D01*
X153217D02*
X153551D01*
X153717Y109050D01*
Y109383D01*
X153551Y109550D01*
X153217D01*
X153051Y109383D01*
Y109216D01*
X153717D01*
X152718Y108550D02*
Y109550D01*
X152218D01*
X152051Y109383D01*
Y109050D01*
X152218Y108883D01*
X152718D01*
X150218Y109883D02*
X150552D01*
X150718Y109716D01*
Y109050D01*
X150552Y108883D01*
X150218D01*
X150052Y109050D01*
Y109716D01*
X150218Y109883D01*
X149719Y109550D02*
Y109050D01*
X149552Y108883D01*
X149052D01*
Y109550D01*
X148552Y109716D02*
Y109550D01*
X148719D01*
X148386D01*
X148552D01*
Y109050D01*
X148386Y108883D01*
X147886Y108550D02*
Y109550D01*
X147386D01*
X147219Y109383D01*
Y109050D01*
X147386Y108883D01*
X147886D01*
X146886Y109550D02*
Y109050D01*
X146720Y108883D01*
X146220D01*
Y109550D01*
X145720Y109716D02*
Y109550D01*
X145886D01*
X145553D01*
X145720D01*
Y109050D01*
X145553Y108883D01*
X151534Y111483D02*
X151700Y111650D01*
X152033D01*
X152200Y111483D01*
Y111316D01*
X152033Y111150D01*
X151700D01*
X151534Y110983D01*
Y110817D01*
X151700Y110650D01*
X152033D01*
X152200Y110817D01*
X150534Y110650D02*
X151200D01*
X150534Y111316D01*
Y111483D01*
X150700Y111650D01*
X151034D01*
X151200Y111483D01*
X150201Y110650D02*
X149867D01*
X150034D01*
Y111650D01*
X150201Y111483D01*
X131584Y127769D02*
X131750Y127936D01*
X132083D01*
X132250Y127769D01*
Y127603D01*
X132083Y127436D01*
X131750D01*
X131584Y127270D01*
Y127103D01*
X131750Y126936D01*
X132083D01*
X132250Y127103D01*
X130584Y126936D02*
X131250D01*
X130584Y127603D01*
Y127769D01*
X130750Y127936D01*
X131084D01*
X131250Y127769D01*
X129584Y126936D02*
X130251D01*
X129584Y127603D01*
Y127769D01*
X129751Y127936D01*
X130084D01*
X130251Y127769D01*
X107227Y106626D02*
X107394Y106793D01*
X107727D01*
X107894Y106626D01*
Y106459D01*
X107727Y106293D01*
X107394D01*
X107227Y106126D01*
Y105960D01*
X107394Y105793D01*
X107727D01*
X107894Y105960D01*
X106894Y106626D02*
X106727Y106793D01*
X106394D01*
X106227Y106626D01*
Y106459D01*
X106394Y106293D01*
X106561D01*
X106394D01*
X106227Y106126D01*
Y105960D01*
X106394Y105793D01*
X106727D01*
X106894Y105960D01*
X107400Y98500D02*
Y99500D01*
X107067D02*
Y98500D01*
X107566Y99167D02*
X107067D01*
X106900D01*
X107566Y98833D02*
X106900D01*
X105900Y99333D02*
X106067Y99500D01*
X106400D01*
X106567Y99333D01*
Y99167D01*
X106400Y99000D01*
X106067D01*
X105900Y98833D01*
Y98667D01*
X106067Y98500D01*
X106400D01*
X106567Y98667D01*
X105401Y99333D02*
Y99167D01*
X105567D01*
X105234D01*
X105401D01*
Y98667D01*
X105234Y98500D01*
X104234D02*
X104567D01*
X104734Y98667D01*
Y99000D01*
X104567Y99167D01*
X104234D01*
X104068Y99000D01*
Y98833D01*
X104734D01*
X103734Y98167D02*
Y99167D01*
X103235D01*
X103068Y99000D01*
Y98667D01*
X103235Y98500D01*
X103734D01*
X102735D02*
X102235D01*
X102068Y98667D01*
X102235Y98833D01*
X102568D01*
X102735Y99000D01*
X102568Y99167D01*
X102068D01*
X131819Y123142D02*
Y122143D01*
X131319D01*
X131152Y122309D01*
Y122476D01*
X131319Y122643D01*
X131819D01*
X131319D01*
X131152Y122809D01*
Y122976D01*
X131319Y123142D01*
X131819D01*
X130152D02*
X130486D01*
X130319D01*
Y122309D01*
X130486Y122143D01*
X130652D01*
X130819Y122309D01*
X129819Y123142D02*
X129153D01*
X129486D01*
Y122143D01*
X128820D02*
X128153Y122809D01*
X127153Y123142D02*
X127820D01*
Y122643D01*
X127487D01*
X127820D01*
Y122143D01*
X126154Y123142D02*
X126820D01*
Y122143D01*
X126154D01*
X126820Y122643D02*
X126487D01*
X125821Y123142D02*
X125154D01*
X125487D01*
Y122143D01*
X302957Y138641D02*
Y137975D01*
X302624Y137642D01*
X302291Y137975D01*
Y138641D01*
X301791Y137642D02*
X301458D01*
X301291Y137808D01*
Y138141D01*
X301458Y138308D01*
X301791D01*
X301957Y138141D01*
Y137808D01*
X301791Y137642D01*
X300958D02*
X300625D01*
X300791D01*
Y138641D01*
X300958D01*
X299958Y138475D02*
Y138308D01*
X300125D01*
X299791D01*
X299958D01*
Y137808D01*
X299791Y137642D01*
X299125Y138308D02*
X298792D01*
X298625Y138141D01*
Y137642D01*
X299125D01*
X299292Y137808D01*
X299125Y137975D01*
X298625D01*
X297959Y137308D02*
X297792D01*
X297625Y137475D01*
Y138308D01*
X298125D01*
X298292Y138141D01*
Y137808D01*
X298125Y137642D01*
X297625D01*
X296792D02*
X297126D01*
X297292Y137808D01*
Y138141D01*
X297126Y138308D01*
X296792D01*
X296626Y138141D01*
Y137975D01*
X297292D01*
X312600Y139004D02*
Y140004D01*
X312100D01*
X311934Y139837D01*
Y139504D01*
X312100Y139337D01*
X312600D01*
X311434Y139004D02*
X311100D01*
X310934Y139171D01*
Y139504D01*
X311100Y139670D01*
X311434D01*
X311600Y139504D01*
Y139171D01*
X311434Y139004D01*
X310434Y139837D02*
Y139670D01*
X310601D01*
X310267D01*
X310434D01*
Y139171D01*
X310267Y139004D01*
X309768D02*
X309434D01*
X309601D01*
Y140004D01*
X309768Y139837D01*
X308935D02*
X308768Y140004D01*
X308435D01*
X308268Y139837D01*
Y139171D01*
X308435Y139004D01*
X308768D01*
X308935Y139171D01*
Y139837D01*
X307268Y139004D02*
X307935D01*
X307268Y139670D01*
Y139837D01*
X307435Y140004D01*
X307768D01*
X307935Y139837D01*
X310484Y103283D02*
X310650Y103450D01*
X310983D01*
X311150Y103283D01*
Y103116D01*
X310983Y102950D01*
X310650D01*
X310484Y102783D01*
Y102617D01*
X310650Y102450D01*
X310983D01*
X311150Y102617D01*
X310150Y102450D02*
X309817D01*
X309984D01*
Y103450D01*
X310150Y103283D01*
X309317D02*
X309151Y103450D01*
X308817D01*
X308651Y103283D01*
Y102617D01*
X308817Y102450D01*
X309151D01*
X309317Y102617D01*
Y103283D01*
X308318D02*
X308151Y103450D01*
X307818D01*
X307651Y103283D01*
Y102617D01*
X307818Y102450D01*
X308151D01*
X308318Y102617D01*
Y103283D01*
X273584Y103483D02*
X273750Y103650D01*
X274083D01*
X274250Y103483D01*
Y103316D01*
X274083Y103150D01*
X273750D01*
X273584Y102983D01*
Y102817D01*
X273750Y102650D01*
X274083D01*
X274250Y102817D01*
X273250Y103650D02*
X272584D01*
Y103483D01*
X273250Y102817D01*
Y102650D01*
X272251Y103483D02*
X272084Y103650D01*
X271751D01*
X271584Y103483D01*
Y102817D01*
X271751Y102650D01*
X272084D01*
X272251Y102817D01*
Y103483D01*
X250584Y119783D02*
X250750Y119950D01*
X251083D01*
X251250Y119783D01*
Y119616D01*
X251083Y119450D01*
X250750D01*
X250584Y119283D01*
Y119117D01*
X250750Y118950D01*
X251083D01*
X251250Y119117D01*
X250250Y118950D02*
X249917D01*
X250084D01*
Y119950D01*
X250250Y119783D01*
X249417D02*
X249251Y119950D01*
X248917D01*
X248751Y119783D01*
Y119117D01*
X248917Y118950D01*
X249251D01*
X249417Y119117D01*
Y119783D01*
X248418Y118950D02*
X248084D01*
X248251D01*
Y119950D01*
X248418Y119783D01*
X201484Y144083D02*
X201650Y144250D01*
X201983D01*
X202150Y144083D01*
Y143916D01*
X201983Y143750D01*
X201650D01*
X201484Y143583D01*
Y143417D01*
X201650Y143250D01*
X201983D01*
X202150Y143417D01*
X201150Y144250D02*
X200484D01*
Y144083D01*
X201150Y143417D01*
Y143250D01*
X200151D02*
X199817D01*
X199984D01*
Y144250D01*
X200151Y144083D01*
X159684Y155983D02*
X159850Y156150D01*
X160183D01*
X160350Y155983D01*
Y155816D01*
X160183Y155650D01*
X159850D01*
X159684Y155483D01*
Y155317D01*
X159850Y155150D01*
X160183D01*
X160350Y155317D01*
X159350Y156150D02*
X158684D01*
Y155983D01*
X159350Y155317D01*
Y155150D01*
X157684D02*
X158351D01*
X157684Y155816D01*
Y155983D01*
X157851Y156150D01*
X158184D01*
X158351Y155983D01*
X166834Y152850D02*
Y153850D01*
X166167Y152850D01*
Y153850D01*
X165834Y152850D02*
X165167Y153516D01*
X164834Y152850D02*
Y153850D01*
X164334D01*
X164168Y153683D01*
Y153350D01*
X164334Y153183D01*
X164834D01*
X216753Y134142D02*
Y134809D01*
X216419Y135142D01*
X216086Y134809D01*
Y134142D01*
Y134642D01*
X216753D01*
X215753Y134142D02*
X215087Y134809D01*
X214753Y135142D02*
Y134142D01*
X214254D01*
X214087Y134309D01*
Y134476D01*
X214254Y134642D01*
X214753D01*
X214254D01*
X214087Y134809D01*
Y134975D01*
X214254Y135142D01*
X214753D01*
X262841Y144539D02*
X263008Y144706D01*
X263341D01*
X263507Y144539D01*
Y143873D01*
X263341Y143706D01*
X263008D01*
X262841Y143873D01*
X262508Y144372D02*
Y143873D01*
X262341Y143706D01*
X261841D01*
Y144372D01*
X261508D02*
Y143706D01*
Y144039D01*
X261341Y144206D01*
X261175Y144372D01*
X261008D01*
X260508D02*
Y143706D01*
Y144039D01*
X260342Y144206D01*
X260175Y144372D01*
X260009D01*
X259009Y143706D02*
X259342D01*
X259509Y143873D01*
Y144206D01*
X259342Y144372D01*
X259009D01*
X258842Y144206D01*
Y144039D01*
X259509D01*
X258509Y143706D02*
Y144372D01*
X258009D01*
X257843Y144206D01*
Y143706D01*
X257343Y144539D02*
Y144372D01*
X257509D01*
X257176D01*
X257343D01*
Y143873D01*
X257176Y143706D01*
X262971Y114677D02*
X263137Y114844D01*
X263471D01*
X263637Y114677D01*
Y114011D01*
X263471Y113844D01*
X263137D01*
X262971Y114011D01*
X262638Y114511D02*
Y114011D01*
X262471Y113844D01*
X261971D01*
Y114511D01*
X261638D02*
Y113844D01*
Y114177D01*
X261471Y114344D01*
X261305Y114511D01*
X261138D01*
X260638D02*
Y113844D01*
Y114177D01*
X260472Y114344D01*
X260305Y114511D01*
X260138D01*
X259139Y113844D02*
X259472D01*
X259639Y114011D01*
Y114344D01*
X259472Y114511D01*
X259139D01*
X258972Y114344D01*
Y114177D01*
X259639D01*
X258639Y113844D02*
Y114511D01*
X258139D01*
X257972Y114344D01*
Y113844D01*
X257473Y114677D02*
Y114511D01*
X257639D01*
X257306D01*
X257473D01*
Y114011D01*
X257306Y113844D01*
X255806D02*
Y114844D01*
X255307D01*
X255140Y114677D01*
Y114344D01*
X255307Y114177D01*
X255806D01*
X255473D02*
X255140Y113844D01*
X254640Y114511D02*
X254307D01*
X254140Y114344D01*
Y113844D01*
X254640D01*
X254807Y114011D01*
X254640Y114177D01*
X254140D01*
X253807Y113844D02*
Y114511D01*
X253307D01*
X253141Y114344D01*
Y113844D01*
X252474Y113511D02*
X252308D01*
X252141Y113677D01*
Y114511D01*
X252641D01*
X252807Y114344D01*
Y114011D01*
X252641Y113844D01*
X252141D01*
X251308D02*
X251641D01*
X251808Y114011D01*
Y114344D01*
X251641Y114511D01*
X251308D01*
X251141Y114344D01*
Y114177D01*
X251808D01*
X279684Y129016D02*
X279850Y129183D01*
X280183D01*
X280350Y129016D01*
Y128850D01*
X280183Y128683D01*
X279850D01*
X279684Y128516D01*
Y128350D01*
X279850Y128183D01*
X280183D01*
X280350Y128350D01*
X279350Y128850D02*
Y128350D01*
X279184Y128183D01*
X279017Y128350D01*
X278850Y128183D01*
X278684Y128350D01*
Y128850D01*
X277851Y128183D02*
X278184D01*
X278351Y128350D01*
Y128683D01*
X278184Y128850D01*
X277851D01*
X277684Y128683D01*
Y128516D01*
X278351D01*
X276851Y128183D02*
X277184D01*
X277351Y128350D01*
Y128683D01*
X277184Y128850D01*
X276851D01*
X276685Y128683D01*
Y128516D01*
X277351D01*
X276351Y127850D02*
Y128850D01*
X275851D01*
X275685Y128683D01*
Y128350D01*
X275851Y128183D01*
X276351D01*
X275352D02*
X274685Y128850D01*
X274352Y129183D02*
Y128183D01*
X273852D01*
X273685Y128350D01*
Y129016D01*
X273852Y129183D01*
X274352D01*
X272686Y129016D02*
X272852Y129183D01*
X273186D01*
X273352Y129016D01*
Y128350D01*
X273186Y128183D01*
X272852D01*
X272686Y128350D01*
X310576Y95642D02*
X310743Y95809D01*
X311076D01*
X311242Y95642D01*
Y95476D01*
X311076Y95309D01*
X310743D01*
X310576Y95142D01*
Y94976D01*
X310743Y94809D01*
X311076D01*
X311242Y94976D01*
X309743Y94809D02*
X310076D01*
X310243Y94976D01*
Y95309D01*
X310076Y95476D01*
X309743D01*
X309576Y95309D01*
Y95142D01*
X310243D01*
X309243Y94809D02*
X308910D01*
X309076D01*
Y95809D01*
X309243D01*
X307910Y94809D02*
X308243D01*
X308410Y94976D01*
Y95309D01*
X308243Y95476D01*
X307910D01*
X307743Y95309D01*
Y95142D01*
X308410D01*
X306744Y95476D02*
X307244D01*
X307410Y95309D01*
Y94976D01*
X307244Y94809D01*
X306744D01*
X306244Y95642D02*
Y95476D01*
X306411D01*
X306077D01*
X306244D01*
Y94976D01*
X306077Y94809D01*
X304578Y95809D02*
Y95142D01*
X304245Y94809D01*
X303911Y95142D01*
Y95809D01*
X168887Y145550D02*
Y144550D01*
X168387D01*
X168220Y144717D01*
Y145383D01*
X168387Y145550D01*
X168887D01*
X167887Y145216D02*
X167554Y144550D01*
X167221Y145216D01*
X166221Y145383D02*
X166388Y145550D01*
X166721D01*
X166887Y145383D01*
Y144717D01*
X166721Y144550D01*
X166388D01*
X166221Y144717D01*
X151155Y145358D02*
X151321Y145524D01*
X151655D01*
X151821Y145358D01*
Y144691D01*
X151655Y144525D01*
X151321D01*
X151155Y144691D01*
X150155Y145358D02*
X150322Y145524D01*
X150655D01*
X150822Y145358D01*
Y145191D01*
X150655Y145025D01*
X150322D01*
X150155Y144858D01*
Y144691D01*
X150322Y144525D01*
X150655D01*
X150822Y144691D01*
X149822Y145025D02*
X149155D01*
X265200Y119600D02*
Y119933D01*
Y119767D01*
X266200D01*
X266033Y119600D01*
X289998Y124582D02*
X289665D01*
X289831D01*
Y125581D01*
X289998Y125415D01*
X105972Y150950D02*
X105639D01*
X105805D01*
Y151950D01*
X105972Y151783D01*
X236744Y143555D02*
X237411D01*
Y143055D01*
X237078D01*
X237411D01*
Y142555D01*
X236244Y143221D02*
X235911D01*
X235745Y143055D01*
Y142555D01*
X236244D01*
X236411Y142722D01*
X236244Y142888D01*
X235745D01*
X235411Y143221D02*
Y142722D01*
X235245Y142555D01*
X234745D01*
Y143221D01*
X234412Y142555D02*
X234079D01*
X234245D01*
Y143555D01*
X234412D01*
X233412Y143388D02*
Y143221D01*
X233579D01*
X233245D01*
X233412D01*
Y142722D01*
X233245Y142555D01*
X232246Y143555D02*
X232579D01*
X232746Y143388D01*
Y142722D01*
X232579Y142555D01*
X232246D01*
X232079Y142722D01*
Y143388D01*
X232246Y143555D01*
X231746Y142555D02*
Y143221D01*
X231246D01*
X231079Y143055D01*
Y142555D01*
X301984Y108950D02*
X302317Y108783D01*
X302650Y108450D01*
Y108117D01*
X302483Y107950D01*
X302150D01*
X301984Y108117D01*
Y108283D01*
X302150Y108450D01*
X302650D01*
X306784Y108950D02*
X307450D01*
Y108450D01*
X307117Y108616D01*
X306950D01*
X306784Y108450D01*
Y108117D01*
X306950Y107950D01*
X307283D01*
X307450Y108117D01*
X311550Y107550D02*
Y108550D01*
X312050Y108050D01*
X311384D01*
X302560Y97883D02*
X302393Y98050D01*
X302060D01*
X301894Y97883D01*
Y97716D01*
X302060Y97550D01*
X302227D01*
X302060D01*
X301894Y97383D01*
Y97217D01*
X302060Y97050D01*
X302393D01*
X302560Y97217D01*
X306684Y97050D02*
X307350D01*
X306684Y97716D01*
Y97883D01*
X306850Y98050D01*
X307183D01*
X307350Y97883D01*
X312050Y97050D02*
X311717D01*
X311883D01*
Y98050D01*
X312050Y97883D01*
X151773Y150310D02*
Y149310D01*
X151273D01*
X151107Y149477D01*
Y150143D01*
X151273Y150310D01*
X151773D01*
X150773Y149976D02*
X150440Y149310D01*
X150107Y149976D01*
X149107Y150143D02*
X149274Y150310D01*
X149607D01*
X149774Y150143D01*
Y149477D01*
X149607Y149310D01*
X149274D01*
X149107Y149477D01*
X135250Y118150D02*
X134917D01*
X135083D01*
Y117150D01*
X135250D01*
X134917D01*
X134250D02*
X133917D01*
X133750Y117317D01*
Y117650D01*
X133917Y117816D01*
X134250D01*
X134417Y117650D01*
Y117317D01*
X134250Y117150D01*
X133417Y117816D02*
Y117317D01*
X133251Y117150D01*
X132751D01*
Y117816D01*
X132251Y117983D02*
Y117816D01*
X132418D01*
X132084D01*
X132251D01*
Y117317D01*
X132084Y117150D01*
X292150Y110750D02*
X292483D01*
X292317D01*
Y109750D01*
X292150Y109917D01*
X291850Y155250D02*
Y154917D01*
Y155083D01*
X290850D01*
X291017Y155250D01*
X106001Y147850D02*
X105668D01*
X105834D01*
Y146850D01*
X106001D01*
X105668D01*
X104501Y147683D02*
X104668Y147850D01*
X105001D01*
X105168Y147683D01*
Y147516D01*
X105001Y147350D01*
X104668D01*
X104501Y147183D01*
Y147017D01*
X104668Y146850D01*
X105001D01*
X105168Y147017D01*
X103668Y147850D02*
X104002D01*
X104168Y147683D01*
Y147017D01*
X104002Y146850D01*
X103668D01*
X103502Y147017D01*
Y147683D01*
X103668Y147850D01*
X261384Y124535D02*
X261550Y124701D01*
X261883D01*
X262050Y124535D01*
Y123868D01*
X261883Y123702D01*
X261550D01*
X261384Y123868D01*
X261050Y124701D02*
Y123702D01*
Y124201D01*
X260884Y124368D01*
X260550D01*
X260384Y124201D01*
Y123702D01*
X259884D02*
X259551D01*
X259384Y123868D01*
Y124201D01*
X259551Y124368D01*
X259884D01*
X260051Y124201D01*
Y123868D01*
X259884Y123702D01*
X259051D02*
X258718D01*
X258884D01*
Y124368D01*
X259051D01*
X257551D02*
X258051D01*
X258218Y124201D01*
Y123868D01*
X258051Y123702D01*
X257551D01*
X256718D02*
X257052D01*
X257218Y123868D01*
Y124201D01*
X257052Y124368D01*
X256718D01*
X256552Y124201D01*
Y124035D01*
X257218D01*
X181850Y125246D02*
X181517D01*
X181683D01*
Y124247D01*
X181850D01*
X181517D01*
X180350Y125080D02*
X180517Y125246D01*
X180850D01*
X181017Y125080D01*
Y124913D01*
X180850Y124746D01*
X180517D01*
X180350Y124580D01*
Y124413D01*
X180517Y124247D01*
X180850D01*
X181017Y124413D01*
X179517Y125246D02*
X179851D01*
X180017Y125080D01*
Y124413D01*
X179851Y124247D01*
X179517D01*
X179351Y124413D01*
Y125080D01*
X179517Y125246D01*
X233202Y125543D02*
X232869D01*
X233035D01*
Y124543D01*
X233202D01*
X232869D01*
X231702Y125376D02*
X231869Y125543D01*
X232202D01*
X232369Y125376D01*
Y125209D01*
X232202Y125043D01*
X231869D01*
X231702Y124876D01*
Y124710D01*
X231869Y124543D01*
X232202D01*
X232369Y124710D01*
X230869Y125543D02*
X231203D01*
X231369Y125376D01*
Y124710D01*
X231203Y124543D01*
X230869D01*
X230703Y124710D01*
Y125376D01*
X230869Y125543D01*
X230384Y120283D02*
X230550Y120450D01*
X230883D01*
X231050Y120283D01*
Y119617D01*
X230883Y119450D01*
X230550D01*
X230384Y119617D01*
Y127827D02*
X230550Y127994D01*
X230883D01*
X231050Y127827D01*
Y127161D01*
X230883Y126994D01*
X230550D01*
X230384Y127161D01*
X231050Y130595D02*
Y129595D01*
X230550D01*
X230384Y129762D01*
Y129928D01*
X230550Y130095D01*
X231050D01*
X230550D01*
X230384Y130262D01*
Y130428D01*
X230550Y130595D01*
X231050D01*
Y122950D02*
Y121950D01*
X230550D01*
X230384Y122117D01*
Y122283D01*
X230550Y122450D01*
X231050D01*
X230550D01*
X230384Y122616D01*
Y122783D01*
X230550Y122950D01*
X231050D01*
X191050Y122904D02*
Y121904D01*
X190550D01*
X190384Y122071D01*
Y122237D01*
X190550Y122404D01*
X191050D01*
X190550D01*
X190384Y122571D01*
Y122737D01*
X190550Y122904D01*
X191050D01*
Y130550D02*
Y129550D01*
X190550D01*
X190384Y129717D01*
Y129883D01*
X190550Y130050D01*
X191050D01*
X190550D01*
X190384Y130216D01*
Y130383D01*
X190550Y130550D01*
X191050D01*
X190384Y120305D02*
X190550Y120471D01*
X190883D01*
X191050Y120305D01*
Y119638D01*
X190883Y119472D01*
X190550D01*
X190384Y119638D01*
Y127883D02*
X190550Y128050D01*
X190883D01*
X191050Y127883D01*
Y127217D01*
X190883Y127050D01*
X190550D01*
X190384Y127217D01*
X168288Y150143D02*
X168455Y150310D01*
X168788D01*
X168954Y150143D01*
Y149477D01*
X168788Y149310D01*
X168455D01*
X168288Y149477D01*
X167288Y150143D02*
X167455Y150310D01*
X167788D01*
X167955Y150143D01*
Y149976D01*
X167788Y149810D01*
X167455D01*
X167288Y149643D01*
Y149477D01*
X167455Y149310D01*
X167788D01*
X167955Y149477D01*
X166955Y149810D02*
X166289D01*
X256084Y151802D02*
X256250Y151969D01*
X256583D01*
X256750Y151802D01*
Y151136D01*
X256583Y150969D01*
X256250D01*
X256084Y151136D01*
X255084Y151802D02*
X255250Y151969D01*
X255584D01*
X255750Y151802D01*
Y151636D01*
X255584Y151469D01*
X255250D01*
X255084Y151303D01*
Y151136D01*
X255250Y150969D01*
X255584D01*
X255750Y151136D01*
X254751Y151469D02*
X254084D01*
X256784Y147183D02*
X256950Y147350D01*
X257283D01*
X257450Y147183D01*
Y146517D01*
X257283Y146350D01*
X256950D01*
X256784Y146517D01*
Y146850D01*
X257117D01*
X256450Y146350D02*
Y147350D01*
X255784Y146350D01*
Y147350D01*
X255451D02*
Y146350D01*
X254951D01*
X254784Y146517D01*
Y147183D01*
X254951Y147350D01*
X255451D01*
X261384Y121985D02*
X261550Y122151D01*
X261883D01*
X262050Y121985D01*
Y121818D01*
X261883Y121652D01*
X261550D01*
X261384Y121485D01*
Y121318D01*
X261550Y121152D01*
X261883D01*
X262050Y121318D01*
X261050Y121818D02*
Y121318D01*
X260884Y121152D01*
X260717Y121318D01*
X260550Y121152D01*
X260384Y121318D01*
Y121818D01*
X259551Y121152D02*
X259884D01*
X260051Y121318D01*
Y121652D01*
X259884Y121818D01*
X259551D01*
X259384Y121652D01*
Y121485D01*
X260051D01*
X258551Y121152D02*
X258884D01*
X259051Y121318D01*
Y121652D01*
X258884Y121818D01*
X258551D01*
X258385Y121652D01*
Y121485D01*
X259051D01*
X258051Y120818D02*
Y121818D01*
X257551D01*
X257385Y121652D01*
Y121318D01*
X257551Y121152D01*
X258051D01*
X271351Y134950D02*
X270684D01*
Y134783D01*
X271351Y134117D01*
Y133950D01*
X270351Y134950D02*
Y134283D01*
X270018Y133950D01*
X269685Y134283D01*
Y134950D01*
X268685D02*
X269352D01*
Y134450D01*
X269018Y134616D01*
X268852D01*
X268685Y134450D01*
Y134117D01*
X268852Y133950D01*
X269185D01*
X269352Y134117D01*
X207384Y141783D02*
X207550Y141950D01*
X207883D01*
X208050Y141783D01*
Y141117D01*
X207883Y140950D01*
X207550D01*
X207384Y141117D01*
X206884Y140950D02*
X206550D01*
X206384Y141117D01*
Y141450D01*
X206550Y141616D01*
X206884D01*
X207050Y141450D01*
Y141117D01*
X206884Y140950D01*
X206051D02*
X205717D01*
X205884D01*
Y141950D01*
X206051D01*
X205218Y140950D02*
X204884D01*
X205051D01*
Y141950D01*
X205218D01*
X207750Y131750D02*
Y130750D01*
X207250D01*
X207084Y130917D01*
Y131083D01*
X207250Y131250D01*
X207750D01*
X207250D01*
X207084Y131416D01*
Y131583D01*
X207250Y131750D01*
X207750D01*
X206750Y130750D02*
X206084Y131416D01*
X205084Y131583D02*
X205251Y131750D01*
X205584D01*
X205751Y131583D01*
Y130917D01*
X205584Y130750D01*
X205251D01*
X205084Y130917D01*
Y131250D01*
X205417D01*
X159884Y153383D02*
X160050Y153550D01*
X160383D01*
X160550Y153383D01*
Y152717D01*
X160383Y152550D01*
X160050D01*
X159884Y152717D01*
X159384Y152550D02*
X159050D01*
X158884Y152717D01*
Y153050D01*
X159050Y153216D01*
X159384D01*
X159550Y153050D01*
Y152717D01*
X159384Y152550D01*
X158551D02*
X158217D01*
X158384D01*
Y153550D01*
X158551D01*
X157718Y152550D02*
X157384D01*
X157551D01*
Y153550D01*
X157718D01*
X160084Y136416D02*
X160250Y136583D01*
X160583D01*
X160750Y136416D01*
Y136250D01*
X160583Y136083D01*
X160250D01*
X160084Y135916D01*
Y135750D01*
X160250Y135583D01*
X160583D01*
X160750Y135750D01*
X159584Y136416D02*
Y136250D01*
X159750D01*
X159417D01*
X159584D01*
Y135750D01*
X159417Y135583D01*
X158417D02*
X158751D01*
X158917Y135750D01*
Y136083D01*
X158751Y136250D01*
X158417D01*
X158251Y136083D01*
Y135916D01*
X158917D01*
X157918Y135250D02*
Y136250D01*
X157418D01*
X157251Y136083D01*
Y135750D01*
X157418Y135583D01*
X157918D01*
X148141Y144280D02*
Y145280D01*
X147641D01*
X147474Y145113D01*
Y144780D01*
X147641Y144613D01*
X148141D01*
X146974Y144280D02*
X146641D01*
X146474Y144447D01*
Y144780D01*
X146641Y144946D01*
X146974D01*
X147141Y144780D01*
Y144447D01*
X146974Y144280D01*
X145975Y145113D02*
Y144946D01*
X146141D01*
X145808D01*
X145975D01*
Y144447D01*
X145808Y144280D01*
X144642D02*
X145308D01*
X144642Y144946D01*
Y145113D01*
X144808Y145280D01*
X145141D01*
X145308Y145113D01*
X144308D02*
X144142Y145280D01*
X143809D01*
X143642Y145113D01*
Y144447D01*
X143809Y144280D01*
X144142D01*
X144308Y144447D01*
Y145113D01*
X136087Y149450D02*
X135754D01*
X135921D01*
Y148450D01*
X136087D01*
X135754D01*
X134588Y149283D02*
X134755Y149450D01*
X135088D01*
X135254Y149283D01*
Y149116D01*
X135088Y148950D01*
X134755D01*
X134588Y148783D01*
Y148617D01*
X134755Y148450D01*
X135088D01*
X135254Y148617D01*
X133755Y149450D02*
X134088D01*
X134255Y149283D01*
Y148617D01*
X134088Y148450D01*
X133755D01*
X133588Y148617D01*
Y149283D01*
X133755Y149450D01*
X295143Y112850D02*
Y112683D01*
X294809Y112350D01*
X294476Y112683D01*
Y112850D01*
X294809Y112350D02*
Y111850D01*
X298084Y112783D02*
X298250Y112950D01*
X298583D01*
X298750Y112783D01*
Y112117D01*
X298583Y111950D01*
X298250D01*
X298084Y112117D01*
Y112450D01*
X298417D01*
X307750Y115850D02*
Y116850D01*
X307250D01*
X307084Y116683D01*
Y116350D01*
X307250Y116183D01*
X307750D01*
X306750D02*
X306417D01*
X306584D01*
Y117183D01*
X306750D01*
X305917Y116850D02*
Y116350D01*
X305751Y116183D01*
X305251D01*
Y116850D01*
X304918Y116183D02*
X304418D01*
X304251Y116350D01*
X304418Y116516D01*
X304751D01*
X304918Y116683D01*
X304751Y116850D01*
X304251D01*
X303918Y117183D02*
X303251D01*
X303585D01*
Y116183D01*
X302918Y116850D02*
Y116183D01*
Y116516D01*
X302752Y116683D01*
X302585Y116850D01*
X302418D01*
X301919Y116183D02*
X301585D01*
X301752D01*
Y116850D01*
X301919D01*
X307181Y119209D02*
X307348Y119376D01*
X307681D01*
X307847Y119209D01*
Y119043D01*
X307681Y118876D01*
X307348D01*
X307181Y118709D01*
Y118543D01*
X307348Y118376D01*
X307681D01*
X307847Y118543D01*
X306348Y118376D02*
X306681D01*
X306848Y118543D01*
Y118876D01*
X306681Y119043D01*
X306348D01*
X306181Y118876D01*
Y118709D01*
X306848D01*
X305848Y118376D02*
X305515D01*
X305681D01*
Y119376D01*
X305848D01*
X304515Y118376D02*
X304848D01*
X305015Y118543D01*
Y118876D01*
X304848Y119043D01*
X304515D01*
X304349Y118876D01*
Y118709D01*
X305015D01*
X303349Y119043D02*
X303849D01*
X304015Y118876D01*
Y118543D01*
X303849Y118376D01*
X303349D01*
X302849Y119209D02*
Y119043D01*
X303016D01*
X302682D01*
X302849D01*
Y118543D01*
X302682Y118376D01*
X301516D02*
X302183D01*
X301516Y119043D01*
Y119209D01*
X301683Y119376D01*
X302016D01*
X302183Y119209D01*
X301183D02*
X301016Y119376D01*
X300683D01*
X300517Y119209D01*
Y118543D01*
X300683Y118376D01*
X301016D01*
X301183Y118543D01*
Y119209D01*
X300183D02*
X300017Y119376D01*
X299683D01*
X299517Y119209D01*
Y118543D01*
X299683Y118376D01*
X300017D01*
X300183Y118543D01*
Y119209D01*
X299184Y119376D02*
Y118709D01*
X298850Y118376D01*
X298517Y118709D01*
Y119376D01*
X307066Y111830D02*
X307232Y111996D01*
X307565D01*
X307732Y111830D01*
Y111663D01*
X307565Y111496D01*
X307232D01*
X307066Y111330D01*
Y111163D01*
X307232Y110997D01*
X307565D01*
X307732Y111163D01*
X306732Y110997D02*
X306399D01*
X306566D01*
Y111996D01*
X306732D01*
X305233Y111663D02*
X305733D01*
X305899Y111496D01*
Y111163D01*
X305733Y110997D01*
X305233D01*
X304733Y111830D02*
Y111663D01*
X304900D01*
X304566D01*
X304733D01*
Y111163D01*
X304566Y110997D01*
X304067Y111996D02*
X303400D01*
Y111830D01*
X304067Y111163D01*
Y110997D01*
X303067Y111830D02*
X302900Y111996D01*
X302567D01*
X302400Y111830D01*
Y111163D01*
X302567Y110997D01*
X302900D01*
X303067Y111163D01*
Y111830D01*
X302067Y111996D02*
Y111330D01*
X301734Y110997D01*
X301401Y111330D01*
Y111996D01*
X306960Y114276D02*
X307127Y114443D01*
X307460D01*
X307627Y114276D01*
Y114109D01*
X307460Y113943D01*
X307127D01*
X306960Y113776D01*
Y113610D01*
X307127Y113443D01*
X307460D01*
X307627Y113610D01*
X306127Y113443D02*
X306460D01*
X306627Y113610D01*
Y113943D01*
X306460Y114109D01*
X306127D01*
X305961Y113943D01*
Y113776D01*
X306627D01*
X305627Y113443D02*
X305294D01*
X305461D01*
Y114443D01*
X305627D01*
X304294Y113443D02*
X304628D01*
X304794Y113610D01*
Y113943D01*
X304628Y114109D01*
X304294D01*
X304128Y113943D01*
Y113776D01*
X304794D01*
X303128Y114109D02*
X303628D01*
X303795Y113943D01*
Y113610D01*
X303628Y113443D01*
X303128D01*
X302628Y114276D02*
Y114109D01*
X302795D01*
X302462D01*
X302628D01*
Y113610D01*
X302462Y113443D01*
X301962Y114276D02*
X301795Y114443D01*
X301462D01*
X301295Y114276D01*
Y114109D01*
X301462Y113943D01*
X301629D01*
X301462D01*
X301295Y113776D01*
Y113610D01*
X301462Y113443D01*
X301795D01*
X301962Y113610D01*
X300296Y114443D02*
X300962D01*
Y113943D01*
X300629Y114109D01*
X300462D01*
X300296Y113943D01*
Y113610D01*
X300462Y113443D01*
X300796D01*
X300962Y113610D01*
X299963Y114443D02*
Y113776D01*
X299629Y113443D01*
X299296Y113776D01*
Y114443D01*
X267598Y134950D02*
X266932D01*
X267265D01*
Y133950D01*
X266599D02*
Y134616D01*
X266266Y134950D01*
X265932Y134616D01*
Y133950D01*
Y134450D01*
X266599D01*
X265599Y133950D02*
Y134950D01*
X265099D01*
X264933Y134783D01*
Y134450D01*
X265099Y134283D01*
X265599D01*
X295584Y149423D02*
X295750Y149590D01*
X296083D01*
X296250Y149423D01*
Y148757D01*
X296083Y148590D01*
X295750D01*
X295584Y148757D01*
Y149090D01*
X295917D01*
X295250Y148590D02*
Y149590D01*
X294584Y148590D01*
Y149590D01*
X294251D02*
Y148590D01*
X293751D01*
X293584Y148757D01*
Y149423D01*
X293751Y149590D01*
X294251D01*
X293850Y152040D02*
X294516Y153040D01*
Y152040D02*
X293850Y153040D01*
X168766Y114833D02*
X168933Y115000D01*
X169266D01*
X169433Y114833D01*
Y114167D01*
X169266Y114000D01*
X168933D01*
X168766Y114167D01*
X167767Y115000D02*
X168433D01*
Y114500D01*
X168100Y114667D01*
X167933D01*
X167767Y114500D01*
Y114167D01*
X167933Y114000D01*
X168267D01*
X168433Y114167D01*
X166767Y114000D02*
X167434D01*
X166767Y114667D01*
Y114833D01*
X166934Y115000D01*
X167267D01*
X167434Y114833D01*
X171257Y123775D02*
X170257D01*
Y123275D01*
X170423Y123109D01*
X170757D01*
X170923Y123275D01*
Y123775D01*
Y123442D02*
X171257Y123109D01*
X170423Y122775D02*
X170257Y122609D01*
Y122276D01*
X170423Y122109D01*
X170590D01*
X170757Y122276D01*
Y122442D01*
Y122276D01*
X170923Y122109D01*
X171090D01*
X171257Y122276D01*
Y122609D01*
X171090Y122775D01*
X171257Y121776D02*
Y121443D01*
Y121609D01*
X170257D01*
X170423Y121776D01*
X137558Y143497D02*
X137724Y143663D01*
X138058D01*
X138224Y143497D01*
Y142830D01*
X138058Y142664D01*
X137724D01*
X137558Y142830D01*
X136725Y142664D02*
Y143663D01*
X137225Y143164D01*
X136558D01*
X135559Y142664D02*
X136225D01*
X135559Y143330D01*
Y143497D01*
X135725Y143663D01*
X136058D01*
X136225Y143497D01*
X286433Y144400D02*
Y143400D01*
X285933D01*
X285766Y143567D01*
Y144233D01*
X285933Y144400D01*
X286433D01*
X285433D02*
X284767D01*
Y144233D01*
X285433Y143567D01*
Y143400D01*
X284434Y144233D02*
X284267Y144400D01*
X283934D01*
X283767Y144233D01*
Y143567D01*
X283934Y143400D01*
X284267D01*
X284434Y143567D01*
Y144233D01*
X227957Y140022D02*
Y139022D01*
X227458D01*
X227291Y139189D01*
Y139855D01*
X227458Y140022D01*
X227957D01*
X226958Y139022D02*
X226625D01*
X226791D01*
Y140022D01*
X226958Y139855D01*
X225458Y139022D02*
X226125D01*
X225458Y139689D01*
Y139855D01*
X225625Y140022D01*
X225958D01*
X226125Y139855D01*
X225125D02*
X224958Y140022D01*
X224625D01*
X224459Y139855D01*
Y139189D01*
X224625Y139022D01*
X224958D01*
X225125Y139189D01*
Y139855D01*
X291600Y107866D02*
Y108200D01*
Y108033D01*
X292433D01*
X292600Y108200D01*
Y108366D01*
X292433Y108533D01*
X291600Y107533D02*
Y106867D01*
X291767D01*
X292433Y107533D01*
X292600D01*
Y105867D02*
Y106534D01*
X291933Y105867D01*
X291767D01*
X291600Y106034D01*
Y106367D01*
X291767Y106534D01*
X299459Y99475D02*
Y99308D01*
X299125Y98975D01*
X298792Y99308D01*
Y99475D01*
X299125Y98975D02*
Y98475D01*
X298459Y98975D02*
X297793D01*
X297459Y99475D02*
Y98808D01*
X297126Y98475D01*
X296793Y98808D01*
Y99475D01*
X295960Y98475D02*
X296293D01*
X296460Y98642D01*
Y98975D01*
X296293Y99142D01*
X295960D01*
X295793Y98975D01*
Y98808D01*
X296460D01*
X295460Y99142D02*
Y98475D01*
Y98808D01*
X295293Y98975D01*
X295127Y99142D01*
X294960D01*
X294294Y99308D02*
Y99142D01*
X294460D01*
X294127D01*
X294294D01*
Y98642D01*
X294127Y98475D01*
X274302Y112309D02*
Y113309D01*
X273802D01*
X273635Y113142D01*
Y112809D01*
X273802Y112642D01*
X274302D01*
X273968D02*
X273635Y112309D01*
X273302Y112476D02*
X273135Y112309D01*
X272802D01*
X272635Y112476D01*
Y113142D01*
X272802Y113309D01*
X273135D01*
X273302Y113142D01*
Y112975D01*
X273135Y112809D01*
X272635D01*
X272302Y113142D02*
X272136Y113309D01*
X271802D01*
X271636Y113142D01*
Y112476D01*
X271802Y112309D01*
X272136D01*
X272302Y112476D01*
Y113142D01*
X228841Y148118D02*
Y148784D01*
X229008Y148951D01*
X229341D01*
X229508Y148784D01*
Y148118D01*
X229341Y147951D01*
X229008D01*
X229175Y148284D02*
X228841Y147951D01*
X229008D02*
X228841Y148118D01*
X228508Y147951D02*
X228175D01*
X228342D01*
Y148951D01*
X228508Y148784D01*
X227009Y147951D02*
X227675D01*
X227009Y148617D01*
Y148784D01*
X227175Y148951D01*
X227509D01*
X227675Y148784D01*
X226675Y147951D02*
X226342D01*
X226509D01*
Y148951D01*
X226675Y148784D01*
X245024Y141532D02*
X245358D01*
X245191D01*
Y140699D01*
X245358Y140533D01*
X245524D01*
X245691Y140699D01*
X244691Y140533D02*
X244358D01*
X244525D01*
Y141532D01*
X244691Y141366D01*
X243192Y140533D02*
X243858D01*
X243192Y141199D01*
Y141366D01*
X243358Y141532D01*
X243692D01*
X243858Y141366D01*
X242859D02*
X242692Y141532D01*
X242359D01*
X242192Y141366D01*
Y140699D01*
X242359Y140533D01*
X242692D01*
X242859Y140699D01*
Y141366D01*
X240451Y135563D02*
Y134563D01*
X239951D01*
X239784Y134730D01*
Y134897D01*
X239951Y135063D01*
X240451D01*
X239951D01*
X239784Y135230D01*
Y135396D01*
X239951Y135563D01*
X240451D01*
X239451Y134563D02*
X238785Y135230D01*
X237785Y135396D02*
X237952Y135563D01*
X238285D01*
X238452Y135396D01*
Y134730D01*
X238285Y134563D01*
X237952D01*
X237785Y134730D01*
Y135063D01*
X238118D01*
X237452D02*
X236785D01*
X235786Y135563D02*
X236452D01*
Y135063D01*
X236119D01*
X236452D01*
Y134563D01*
X235453D02*
X235119D01*
X235286D01*
Y135563D01*
X235453D01*
X234453Y135396D02*
Y135230D01*
X234619D01*
X234286D01*
X234453D01*
Y134730D01*
X234286Y134563D01*
X217141Y144112D02*
X217308Y144278D01*
X217641D01*
X217808Y144112D01*
Y143445D01*
X217641Y143279D01*
X217308D01*
X217141Y143445D01*
X216142Y144278D02*
X216808D01*
Y143778D01*
X216475Y143945D01*
X216308D01*
X216142Y143778D01*
Y143445D01*
X216308Y143279D01*
X216642D01*
X216808Y143445D01*
X215809Y144112D02*
X215642Y144278D01*
X215309D01*
X215142Y144112D01*
Y143445D01*
X215309Y143279D01*
X215642D01*
X215809Y143445D01*
Y144112D01*
X195103Y151353D02*
Y152352D01*
X194603D01*
X194436Y152186D01*
Y151852D01*
X194603Y151686D01*
X195103D01*
X194769D02*
X194436Y151353D01*
X193603D02*
Y152352D01*
X194103Y151852D01*
X193436D01*
X192437Y152352D02*
X192770Y152186D01*
X193103Y151852D01*
Y151519D01*
X192937Y151353D01*
X192603D01*
X192437Y151519D01*
Y151686D01*
X192603Y151852D01*
X193103D01*
X217600Y154700D02*
Y155700D01*
X217100D01*
X216934Y155533D01*
Y155200D01*
X217100Y155033D01*
X217600D01*
X217267D02*
X216934Y154700D01*
X215934Y155700D02*
X216267Y155533D01*
X216600Y155200D01*
Y154867D01*
X216434Y154700D01*
X216100D01*
X215934Y154867D01*
Y155033D01*
X216100Y155200D01*
X216600D01*
X215601Y155533D02*
X215434Y155700D01*
X215101D01*
X214934Y155533D01*
Y155366D01*
X215101Y155200D01*
X214934Y155033D01*
Y154867D01*
X215101Y154700D01*
X215434D01*
X215601Y154867D01*
Y155033D01*
X215434Y155200D01*
X215601Y155366D01*
Y155533D01*
X215434Y155200D02*
X215101D01*
X210300Y156300D02*
Y155467D01*
X210133Y155300D01*
X209800D01*
X209634Y155467D01*
Y156300D01*
X208634Y155300D02*
X209300D01*
X208634Y155966D01*
Y156133D01*
X208800Y156300D01*
X209134D01*
X209300Y156133D01*
X207634Y156300D02*
X208301D01*
Y155800D01*
X207967Y155966D01*
X207801D01*
X207634Y155800D01*
Y155467D01*
X207801Y155300D01*
X208134D01*
X208301Y155467D01*
X295437Y115173D02*
Y116173D01*
X294937D01*
X294770Y116006D01*
Y115673D01*
X294937Y115506D01*
X295437D01*
X295104D02*
X294770Y115173D01*
X294437Y116006D02*
X294271Y116173D01*
X293937D01*
X293771Y116006D01*
Y115840D01*
X293937Y115673D01*
X293771Y115506D01*
Y115340D01*
X293937Y115173D01*
X294271D01*
X294437Y115340D01*
Y115506D01*
X294271Y115673D01*
X294437Y115840D01*
Y116006D01*
X294271Y115673D02*
X293937D01*
X293438Y116006D02*
X293271Y116173D01*
X292938D01*
X292771Y116006D01*
Y115840D01*
X292938Y115673D01*
X292771Y115506D01*
Y115340D01*
X292938Y115173D01*
X293271D01*
X293438Y115340D01*
Y115506D01*
X293271Y115673D01*
X293438Y115840D01*
Y116006D01*
X293271Y115673D02*
X292938D01*
X98967Y150400D02*
X99300D01*
X99133D01*
Y149567D01*
X99300Y149400D01*
X99466D01*
X99633Y149567D01*
X97967Y149400D02*
X98633D01*
X97967Y150067D01*
Y150233D01*
X98134Y150400D01*
X98467D01*
X98633Y150233D01*
X105972Y156166D02*
X105305D01*
X105639D01*
Y155167D01*
X104972Y155833D02*
Y155167D01*
Y155500D01*
X104806Y155667D01*
X104639Y155833D01*
X104472D01*
X103973Y155167D02*
X103639D01*
X103806D01*
Y155833D01*
X103973D01*
X102806Y154834D02*
X102640D01*
X102473Y155000D01*
Y155833D01*
X102973D01*
X103140Y155667D01*
Y155333D01*
X102973Y155167D01*
X102473D01*
X102140Y155667D02*
X101473D01*
X101140Y155167D02*
Y156166D01*
X100640D01*
X100474Y156000D01*
Y155667D01*
X100640Y155500D01*
X101140D01*
X100140Y155833D02*
Y155333D01*
X99974Y155167D01*
X99474D01*
Y155833D01*
X99141Y155167D02*
X98808D01*
X98974D01*
Y156166D01*
X99141D01*
X111807Y145742D02*
Y146741D01*
X111307D01*
X111140Y146575D01*
Y146241D01*
X111307Y146075D01*
X111807D01*
X110640Y145742D02*
X110307D01*
X110140Y145908D01*
Y146241D01*
X110307Y146408D01*
X110640D01*
X110807Y146241D01*
Y145908D01*
X110640Y145742D01*
X109641Y146575D02*
Y146408D01*
X109807D01*
X109474D01*
X109641D01*
Y145908D01*
X109474Y145742D01*
X108308D02*
X108974D01*
X108308Y146408D01*
Y146575D01*
X108474Y146741D01*
X108808D01*
X108974Y146575D01*
X107974D02*
X107808Y146741D01*
X107475D01*
X107308Y146575D01*
Y145908D01*
X107475Y145742D01*
X107808D01*
X107974Y145908D01*
Y146575D01*
X116478Y153216D02*
X116811D01*
X116978Y153049D01*
Y152383D01*
X116811Y152216D01*
X116478D01*
X116311Y152383D01*
Y153049D01*
X116478Y153216D01*
X115811Y152216D02*
Y153049D01*
Y152716D01*
X115978D01*
X115645D01*
X115811D01*
Y153049D01*
X115645Y153216D01*
X114978Y152216D02*
Y153049D01*
Y152716D01*
X115145D01*
X114812D01*
X114978D01*
Y153049D01*
X114812Y153216D01*
X114312Y152216D02*
X113812D01*
X113645Y152383D01*
X113812Y152550D01*
X114145D01*
X114312Y152716D01*
X114145Y152883D01*
X113645D01*
X112812Y152216D02*
X113145D01*
X113312Y152383D01*
Y152716D01*
X113145Y152883D01*
X112812D01*
X112646Y152716D01*
Y152550D01*
X113312D01*
X112146Y153049D02*
Y152883D01*
X112312D01*
X111979D01*
X112146D01*
Y152383D01*
X111979Y152216D01*
X129597Y155499D02*
X129930D01*
X129764D01*
Y154665D01*
X129930Y154499D01*
X130097D01*
X130263Y154665D01*
X129264Y154499D02*
X128930D01*
X129097D01*
Y155499D01*
X129264Y155332D01*
X137234Y157333D02*
X137400Y157500D01*
X137733D01*
X137900Y157333D01*
Y157166D01*
X137733Y157000D01*
X137400D01*
X137234Y156833D01*
Y156667D01*
X137400Y156500D01*
X137733D01*
X137900Y156667D01*
X136734Y157333D02*
Y157166D01*
X136900D01*
X136567D01*
X136734D01*
Y156667D01*
X136567Y156500D01*
X135567D02*
X135901D01*
X136067Y156667D01*
Y157000D01*
X135901Y157166D01*
X135567D01*
X135401Y157000D01*
Y156833D01*
X136067D01*
X135068Y156167D02*
Y157166D01*
X134568D01*
X134401Y157000D01*
Y156667D01*
X134568Y156500D01*
X135068D01*
X134068Y157000D02*
X133401D01*
X133068Y157500D02*
Y156500D01*
X132568D01*
X132402Y156667D01*
Y157333D01*
X132568Y157500D01*
X133068D01*
X131402Y157333D02*
X131569Y157500D01*
X131902D01*
X132069Y157333D01*
Y156667D01*
X131902Y156500D01*
X131569D01*
X131402Y156667D01*
X145101Y139333D02*
X145268Y139500D01*
X145601D01*
X145768Y139333D01*
Y138667D01*
X145601Y138500D01*
X145268D01*
X145101Y138667D01*
X144102Y138500D02*
X144768D01*
X144102Y139167D01*
Y139333D01*
X144268Y139500D01*
X144601D01*
X144768Y139333D01*
X143768Y138500D02*
X143435D01*
X143602D01*
Y139500D01*
X143768Y139333D01*
X275766Y149433D02*
X275933Y149600D01*
X276266D01*
X276433Y149433D01*
Y148767D01*
X276266Y148600D01*
X275933D01*
X275766Y148767D01*
X275433Y149600D02*
X274767D01*
Y149433D01*
X275433Y148767D01*
Y148600D01*
X274434Y149433D02*
X274267Y149600D01*
X273934D01*
X273767Y149433D01*
Y149267D01*
X273934Y149100D01*
X274100D01*
X273934D01*
X273767Y148933D01*
Y148767D01*
X273934Y148600D01*
X274267D01*
X274434Y148767D01*
X312983Y123633D02*
X313316D01*
X313150D01*
Y122800D01*
X313316Y122633D01*
X313483D01*
X313650Y122800D01*
X312650Y122633D02*
X312317D01*
X312483D01*
Y123633D01*
X312650Y123466D01*
X311817D02*
X311650Y123633D01*
X311317D01*
X311150Y123466D01*
Y122800D01*
X311317Y122633D01*
X311650D01*
X311817Y122800D01*
Y123466D01*
X310317Y122633D02*
Y123633D01*
X310817Y123133D01*
X310151D01*
X313385Y121656D02*
X313218Y121823D01*
X312885D01*
X312718Y121656D01*
Y121490D01*
X312885Y121323D01*
X313052D01*
X312885D01*
X312718Y121157D01*
Y120990D01*
X312885Y120823D01*
X313218D01*
X313385Y120990D01*
X312385Y121823D02*
Y120823D01*
X312052Y121157D01*
X311719Y120823D01*
Y121823D01*
X311219Y121490D02*
X310886D01*
X310719Y121323D01*
Y120823D01*
X311219D01*
X311385Y120990D01*
X311219Y121157D01*
X310719D01*
X310386Y121490D02*
Y120990D01*
X310219Y120823D01*
X309719D01*
Y120657D01*
X309886Y120490D01*
X310053D01*
X309719Y120823D02*
Y121490D01*
X124967Y139502D02*
X125133Y139668D01*
X125466D01*
X125633Y139502D01*
Y138835D01*
X125466Y138669D01*
X125133D01*
X124967Y138835D01*
X124633Y139502D02*
X124467Y139668D01*
X124134D01*
X123967Y139502D01*
Y139335D01*
X124134Y139169D01*
X123967Y139002D01*
Y138835D01*
X124134Y138669D01*
X124467D01*
X124633Y138835D01*
Y139002D01*
X124467Y139169D01*
X124633Y139335D01*
Y139502D01*
X124467Y139169D02*
X124134D01*
X280079Y154045D02*
Y155045D01*
X279579D01*
X279412Y154878D01*
Y154545D01*
X279579Y154378D01*
X280079D01*
X279745D02*
X279412Y154045D01*
X279079Y154878D02*
X278912Y155045D01*
X278579D01*
X278413Y154878D01*
Y154712D01*
X278579Y154545D01*
X278413Y154378D01*
Y154212D01*
X278579Y154045D01*
X278912D01*
X279079Y154212D01*
Y154378D01*
X278912Y154545D01*
X279079Y154712D01*
Y154878D01*
X278912Y154545D02*
X278579D01*
X277413Y154045D02*
X278079D01*
X277413Y154712D01*
Y154878D01*
X277579Y155045D01*
X277913D01*
X278079Y154878D01*
X162630Y94739D02*
Y95739D01*
X162130D01*
X161964Y95572D01*
Y95239D01*
X162130Y95072D01*
X162630D01*
X162297D02*
X161964Y94739D01*
X160964Y95739D02*
X161631D01*
Y95239D01*
X161297Y95405D01*
X161131D01*
X160964Y95239D01*
Y94906D01*
X161131Y94739D01*
X161464D01*
X161631Y94906D01*
X160631Y95572D02*
X160464Y95739D01*
X160131D01*
X159964Y95572D01*
Y94906D01*
X160131Y94739D01*
X160464D01*
X160631Y94906D01*
Y95572D01*
X274383Y132400D02*
X274716D01*
X274550D01*
Y131567D01*
X274716Y131400D01*
X274883D01*
X275049Y131567D01*
X274050Y131400D02*
X273717D01*
X273883D01*
Y132400D01*
X274050Y132233D01*
X273217D02*
X273050Y132400D01*
X272717D01*
X272550Y132233D01*
Y131567D01*
X272717Y131400D01*
X273050D01*
X273217Y131567D01*
Y132233D01*
X272217D02*
X272050Y132400D01*
X271717D01*
X271551Y132233D01*
Y131567D01*
X271717Y131400D01*
X272050D01*
X272217Y131567D01*
Y132233D01*
X265116Y132800D02*
X264783D01*
X264949D01*
Y131800D01*
X265116D01*
X264783D01*
X264283Y132800D02*
Y131800D01*
X263616D01*
X263283D02*
X262950D01*
X263117D01*
Y132467D01*
X263283D01*
X262450Y131800D02*
Y132467D01*
X262283D01*
X262117Y132300D01*
Y131800D01*
Y132300D01*
X261950Y132467D01*
X261784Y132300D01*
Y131800D01*
X261450D02*
X261117D01*
X261284D01*
Y132467D01*
X261450D01*
X260451Y132633D02*
Y132467D01*
X260617D01*
X260284D01*
X260451D01*
Y131967D01*
X260284Y131800D01*
X268194Y106277D02*
Y107277D01*
X267694D01*
X267528Y107110D01*
Y106777D01*
X267694Y106610D01*
X268194D01*
X267861D02*
X267528Y106277D01*
X267194D02*
X266861D01*
X267028D01*
Y107277D01*
X267194Y107110D01*
X266361Y106277D02*
X266028D01*
X266195D01*
Y107277D01*
X266361Y107110D01*
X265528D02*
X265362Y107277D01*
X265028D01*
X264862Y107110D01*
Y106444D01*
X265028Y106277D01*
X265362D01*
X265528Y106444D01*
Y107110D01*
X266949Y100289D02*
Y101289D01*
X266450D01*
X266283Y101122D01*
Y100789D01*
X266450Y100622D01*
X266949D01*
X266616D02*
X266283Y100289D01*
X265950D02*
X265617D01*
X265783D01*
Y101289D01*
X265950Y101122D01*
X265117D02*
X264950Y101289D01*
X264617D01*
X264450Y101122D01*
Y100456D01*
X264617Y100289D01*
X264950D01*
X265117Y100456D01*
Y101122D01*
X264117Y100456D02*
X263950Y100289D01*
X263617D01*
X263451Y100456D01*
Y101122D01*
X263617Y101289D01*
X263950D01*
X264117Y101122D01*
Y100956D01*
X263950Y100789D01*
X263451D01*
X258353Y101001D02*
X257354D01*
Y100501D01*
X257520Y100335D01*
X257854D01*
X258020Y100501D01*
Y101001D01*
Y100668D02*
X258353Y100335D01*
Y100002D02*
Y99668D01*
Y99835D01*
X257354D01*
X257520Y100002D01*
Y99169D02*
X257354Y99002D01*
Y98669D01*
X257520Y98502D01*
X258187D01*
X258353Y98669D01*
Y99002D01*
X258187Y99169D01*
X257520D01*
Y98169D02*
X257354Y98002D01*
Y97669D01*
X257520Y97502D01*
X257687D01*
X257854Y97669D01*
X258020Y97502D01*
X258187D01*
X258353Y97669D01*
Y98002D01*
X258187Y98169D01*
X258020D01*
X257854Y98002D01*
X257687Y98169D01*
X257520D01*
X257854Y98002D02*
Y97669D01*
X256453Y101001D02*
X255454D01*
Y100501D01*
X255620Y100335D01*
X255954D01*
X256120Y100501D01*
Y101001D01*
Y100668D02*
X256453Y100335D01*
Y100002D02*
Y99668D01*
Y99835D01*
X255454D01*
X255620Y100002D01*
Y99169D02*
X255454Y99002D01*
Y98669D01*
X255620Y98502D01*
X256287D01*
X256453Y98669D01*
Y99002D01*
X256287Y99169D01*
X255620D01*
X255454Y98169D02*
Y97502D01*
X255620D01*
X256287Y98169D01*
X256453D01*
X248441Y100852D02*
Y101852D01*
X247942D01*
X247775Y101685D01*
Y101352D01*
X247942Y101185D01*
X248441D01*
X248108D02*
X247775Y100852D01*
X247442D02*
X247109D01*
X247275D01*
Y101852D01*
X247442Y101685D01*
X246609D02*
X246442Y101852D01*
X246109D01*
X245942Y101685D01*
Y101019D01*
X246109Y100852D01*
X246442D01*
X246609Y101019D01*
Y101685D01*
X244943Y101852D02*
X245276Y101685D01*
X245609Y101352D01*
Y101019D01*
X245442Y100852D01*
X245109D01*
X244943Y101019D01*
Y101185D01*
X245109Y101352D01*
X245609D01*
X255849Y104400D02*
Y105400D01*
X255350D01*
X255183Y105233D01*
Y104900D01*
X255350Y104733D01*
X255849D01*
X255516D02*
X255183Y104400D01*
X254850D02*
X254517D01*
X254683D01*
Y105400D01*
X254850Y105233D01*
X254017D02*
X253850Y105400D01*
X253517D01*
X253350Y105233D01*
Y104567D01*
X253517Y104400D01*
X253850D01*
X254017Y104567D01*
Y105233D01*
X252517Y104400D02*
Y105400D01*
X253017Y104900D01*
X252351D01*
X257450Y111100D02*
Y112100D01*
X256950D01*
X256784Y111933D01*
Y111600D01*
X256950Y111433D01*
X257450D01*
X257117D02*
X256784Y111100D01*
X256451D02*
X256117D01*
X256284D01*
Y112100D01*
X256451Y111933D01*
X255617D02*
X255451Y112100D01*
X255118D01*
X254951Y111933D01*
Y111267D01*
X255118Y111100D01*
X255451D01*
X255617Y111267D01*
Y111933D01*
X253951Y111100D02*
X254618D01*
X253951Y111767D01*
Y111933D01*
X254118Y112100D01*
X254451D01*
X254618Y111933D01*
X246479Y108050D02*
Y109050D01*
X245979D01*
X245813Y108883D01*
Y108550D01*
X245979Y108383D01*
X246479D01*
X246146D02*
X245813Y108050D01*
X245479D02*
X245146D01*
X245313D01*
Y109050D01*
X245479Y108883D01*
X244646D02*
X244480Y109050D01*
X244146D01*
X243980Y108883D01*
Y108217D01*
X244146Y108050D01*
X244480D01*
X244646Y108217D01*
Y108883D01*
X243647D02*
X243480Y109050D01*
X243147D01*
X242980Y108883D01*
Y108217D01*
X243147Y108050D01*
X243480D01*
X243647Y108217D01*
Y108883D01*
X293633Y93800D02*
Y94800D01*
X293133D01*
X292966Y94633D01*
Y94300D01*
X293133Y94133D01*
X293633D01*
X293300D02*
X292966Y93800D01*
X292633Y94633D02*
X292467Y94800D01*
X292133D01*
X291967Y94633D01*
Y94467D01*
X292133Y94300D01*
X291967Y94133D01*
Y93967D01*
X292133Y93800D01*
X292467D01*
X292633Y93967D01*
Y94133D01*
X292467Y94300D01*
X292633Y94467D01*
Y94633D01*
X292467Y94300D02*
X292133D01*
X290967Y94800D02*
X291300Y94633D01*
X291634Y94300D01*
Y93967D01*
X291467Y93800D01*
X291134D01*
X290967Y93967D01*
Y94133D01*
X291134Y94300D01*
X291634D01*
X296444Y116618D02*
X297444D01*
Y117117D01*
X297277Y117284D01*
X296944D01*
X296777Y117117D01*
Y116618D01*
Y116951D02*
X296444Y117284D01*
X297277Y117617D02*
X297444Y117784D01*
Y118117D01*
X297277Y118284D01*
X297110D01*
X296944Y118117D01*
X296777Y118284D01*
X296611D01*
X296444Y118117D01*
Y117784D01*
X296611Y117617D01*
X296777D01*
X296944Y117784D01*
X297110Y117617D01*
X297277D01*
X296944Y117784D02*
Y118117D01*
X296444Y119117D02*
X297444D01*
X296944Y118617D01*
Y119283D01*
X300376Y124784D02*
X300709D01*
X300542D01*
Y123951D01*
X300709Y123784D01*
X300876D01*
X301042Y123951D01*
X300043Y123784D02*
X299709D01*
X299876D01*
Y124784D01*
X300043Y124617D01*
X299210D02*
X299043Y124784D01*
X298710D01*
X298543Y124617D01*
Y123951D01*
X298710Y123784D01*
X299043D01*
X299210Y123951D01*
Y124617D01*
X297543Y123784D02*
X298210D01*
X297543Y124451D01*
Y124617D01*
X297710Y124784D01*
X298043D01*
X298210Y124617D01*
X306166Y121100D02*
Y120433D01*
X305833Y120100D01*
X305500Y120433D01*
Y121100D01*
X304500Y120767D02*
X305000D01*
X305166Y120600D01*
Y120267D01*
X305000Y120100D01*
X304500D01*
X303500Y120933D02*
X303667Y121100D01*
X304000D01*
X304167Y120933D01*
Y120767D01*
X304000Y120600D01*
X303667D01*
X303500Y120433D01*
Y120267D01*
X303667Y120100D01*
X304000D01*
X304167Y120267D01*
X302667Y120100D02*
X303000D01*
X303167Y120267D01*
Y120600D01*
X303000Y120767D01*
X302667D01*
X302500Y120600D01*
Y120433D01*
X303167D01*
X302001Y120933D02*
Y120767D01*
X302167D01*
X301834D01*
X302001D01*
Y120267D01*
X301834Y120100D01*
X267346Y119090D02*
X267679D01*
X267513D01*
Y118257D01*
X267679Y118091D01*
X267846D01*
X268013Y118257D01*
X267013Y118091D02*
X266680D01*
X266846D01*
Y119090D01*
X267013Y118924D01*
X266180D02*
X266013Y119090D01*
X265680D01*
X265513Y118924D01*
Y118257D01*
X265680Y118091D01*
X266013D01*
X266180Y118257D01*
Y118924D01*
X265180Y118091D02*
X264847D01*
X265014D01*
Y119090D01*
X265180Y118924D01*
X267493Y126600D02*
X267659Y126766D01*
X267993D01*
X268159Y126600D01*
Y126433D01*
X267993Y126267D01*
X267659D01*
X267493Y126100D01*
Y125933D01*
X267659Y125767D01*
X267993D01*
X268159Y125933D01*
X267160Y126433D02*
Y125933D01*
X266993Y125767D01*
X266826Y125933D01*
X266660Y125767D01*
X266493Y125933D01*
Y126433D01*
X265660Y125767D02*
X265993D01*
X266160Y125933D01*
Y126267D01*
X265993Y126433D01*
X265660D01*
X265493Y126267D01*
Y126100D01*
X266160D01*
X264660Y125767D02*
X264994D01*
X265160Y125933D01*
Y126267D01*
X264994Y126433D01*
X264660D01*
X264494Y126267D01*
Y126100D01*
X265160D01*
X264160Y125434D02*
Y126433D01*
X263661D01*
X263494Y126267D01*
Y125933D01*
X263661Y125767D01*
X264160D01*
X224656Y103841D02*
Y102842D01*
X224156D01*
X223989Y103008D01*
Y103175D01*
X224156Y103342D01*
X224656D01*
X224156D01*
X223989Y103508D01*
Y103675D01*
X224156Y103841D01*
X224656D01*
X223656D02*
Y102842D01*
X223156D01*
X222990Y103008D01*
Y103175D01*
Y103342D01*
X223156Y103508D01*
X223656D01*
X214194Y104000D02*
X214861D01*
Y103000D01*
X214194D01*
X214861Y103500D02*
X214527D01*
X213861Y104000D02*
Y103000D01*
X213361D01*
X213194Y103167D01*
Y103333D01*
Y103500D01*
X213361Y103667D01*
X213861D01*
X174306Y103993D02*
X174973D01*
Y102994D01*
X174306D01*
X174973Y103494D02*
X174639D01*
X173806Y103660D02*
X173473D01*
X173306Y103494D01*
Y102994D01*
X173806D01*
X173973Y103160D01*
X173806Y103327D01*
X173306D01*
X194304Y103833D02*
X194470Y104000D01*
X194803D01*
X194970Y103833D01*
Y103167D01*
X194803Y103000D01*
X194470D01*
X194304Y103167D01*
X193804Y103667D02*
X193471D01*
X193304Y103500D01*
Y103000D01*
X193804D01*
X193970Y103167D01*
X193804Y103333D01*
X193304D01*
X284082Y156000D02*
X284415D01*
X284249D01*
Y155167D01*
X284415Y155000D01*
X284582D01*
X284749Y155167D01*
X283749Y156000D02*
X283082D01*
Y155833D01*
X283749Y155167D01*
Y155000D01*
X282749D02*
X282416D01*
X282583D01*
Y156000D01*
X282749Y155833D01*
X289857Y156000D02*
X289191Y155000D01*
Y156000D02*
X289857Y155000D01*
X288858Y155500D02*
X288191D01*
X287858Y156000D02*
Y155000D01*
Y155500D01*
X287191D01*
Y156000D01*
Y155000D01*
X286692D02*
X286358D01*
X286192Y155167D01*
Y155500D01*
X286358Y155667D01*
X286692D01*
X286858Y155500D01*
Y155167D01*
X286692Y155000D01*
X285859Y155667D02*
Y155000D01*
Y155333D01*
X285692Y155500D01*
X285525Y155667D01*
X285359D01*
X259912Y107917D02*
X260078Y108083D01*
X260411D01*
X260578Y107917D01*
Y107250D01*
X260411Y107083D01*
X260078D01*
X259912Y107250D01*
X259578Y107083D02*
X259245D01*
X259412D01*
Y108083D01*
X259578Y107917D01*
X258745D02*
X258579Y108083D01*
X258245D01*
X258079Y107917D01*
Y107250D01*
X258245Y107083D01*
X258579D01*
X258745Y107250D01*
Y107917D01*
X257079Y107083D02*
X257746D01*
X257079Y107750D01*
Y107917D01*
X257246Y108083D01*
X257579D01*
X257746Y107917D01*
X245813Y113883D02*
X245979Y114050D01*
X246312D01*
X246479Y113883D01*
Y113217D01*
X246312Y113050D01*
X245979D01*
X245813Y113217D01*
X245479Y113050D02*
X245146D01*
X245313D01*
Y114050D01*
X245479Y113883D01*
X244646D02*
X244480Y114050D01*
X244146D01*
X243980Y113883D01*
Y113217D01*
X244146Y113050D01*
X244480D01*
X244646Y113217D01*
Y113883D01*
X243647D02*
X243480Y114050D01*
X243147D01*
X242980Y113883D01*
Y113217D01*
X243147Y113050D01*
X243480D01*
X243647Y113217D01*
Y113883D01*
X128903Y95433D02*
X129070Y95600D01*
X129403D01*
X129570Y95433D01*
Y94767D01*
X129403Y94600D01*
X129070D01*
X128903Y94767D01*
X127904Y94600D02*
X128570D01*
X127904Y95266D01*
Y95433D01*
X128070Y95600D01*
X128404D01*
X128570Y95433D01*
X127571D02*
X127404Y95600D01*
X127071D01*
X126904Y95433D01*
Y95266D01*
X127071Y95100D01*
X127237D01*
X127071D01*
X126904Y94933D01*
Y94767D01*
X127071Y94600D01*
X127404D01*
X127571Y94767D01*
X136617Y122833D02*
X136783Y123000D01*
X137117D01*
X137283Y122833D01*
Y122167D01*
X137117Y122000D01*
X136783D01*
X136617Y122167D01*
X136284Y122833D02*
X136117Y123000D01*
X135784D01*
X135617Y122833D01*
Y122666D01*
X135784Y122500D01*
X135950D01*
X135784D01*
X135617Y122333D01*
Y122167D01*
X135784Y122000D01*
X136117D01*
X136284Y122167D01*
X135284Y122000D02*
X134951D01*
X135117D01*
Y123000D01*
X135284Y122833D01*
X147001Y132154D02*
X147168Y132320D01*
X147501D01*
X147668Y132154D01*
Y131487D01*
X147501Y131321D01*
X147168D01*
X147001Y131487D01*
X146668Y132154D02*
X146502Y132320D01*
X146168D01*
X146002Y132154D01*
Y131987D01*
X146168Y131821D01*
X146335D01*
X146168D01*
X146002Y131654D01*
Y131487D01*
X146168Y131321D01*
X146502D01*
X146668Y131487D01*
X145669Y132154D02*
X145502Y132320D01*
X145169D01*
X145002Y132154D01*
Y131987D01*
X145169Y131821D01*
X145335D01*
X145169D01*
X145002Y131654D01*
Y131487D01*
X145169Y131321D01*
X145502D01*
X145669Y131487D01*
X144334Y125583D02*
X144500Y125750D01*
X144833D01*
X145000Y125583D01*
Y124917D01*
X144833Y124750D01*
X144500D01*
X144334Y124917D01*
X144000Y125583D02*
X143834Y125750D01*
X143500D01*
X143334Y125583D01*
Y125416D01*
X143500Y125250D01*
X143667D01*
X143500D01*
X143334Y125083D01*
Y124917D01*
X143500Y124750D01*
X143834D01*
X144000Y124917D01*
X142334Y124750D02*
X143001D01*
X142334Y125416D01*
Y125583D01*
X142501Y125750D01*
X142834D01*
X143001Y125583D01*
X125544Y153233D02*
X125710Y153400D01*
X126043D01*
X126210Y153233D01*
Y152567D01*
X126043Y152400D01*
X125710D01*
X125544Y152567D01*
X124544Y152400D02*
X125210D01*
X124544Y153066D01*
Y153233D01*
X124711Y153400D01*
X125044D01*
X125210Y153233D01*
X123544Y153400D02*
X123877Y153233D01*
X124211Y152900D01*
Y152567D01*
X124044Y152400D01*
X123711D01*
X123544Y152567D01*
Y152733D01*
X123711Y152900D01*
X124211D01*
X147906Y151777D02*
X148072Y151611D01*
Y151277D01*
X147906Y151111D01*
X147239D01*
X147072Y151277D01*
Y151611D01*
X147239Y151777D01*
X147906Y152110D02*
X148072Y152277D01*
Y152610D01*
X147906Y152777D01*
X147739D01*
X147572Y152610D01*
Y152444D01*
Y152610D01*
X147406Y152777D01*
X147239D01*
X147072Y152610D01*
Y152277D01*
X147239Y152110D01*
X147906Y153110D02*
X148072Y153277D01*
Y153610D01*
X147906Y153776D01*
X147239D01*
X147072Y153610D01*
Y153277D01*
X147239Y153110D01*
X147906D01*
X161317Y132017D02*
X161483Y132183D01*
X161816D01*
X161983Y132017D01*
Y131350D01*
X161816Y131184D01*
X161483D01*
X161317Y131350D01*
X160983Y132017D02*
X160817Y132183D01*
X160484D01*
X160317Y132017D01*
Y131850D01*
X160484Y131683D01*
X160650D01*
X160484D01*
X160317Y131517D01*
Y131350D01*
X160484Y131184D01*
X160817D01*
X160983Y131350D01*
X159484Y131184D02*
Y132183D01*
X159984Y131683D01*
X159317D01*
X157734Y127333D02*
X157900Y127500D01*
X158233D01*
X158400Y127333D01*
Y126667D01*
X158233Y126500D01*
X157900D01*
X157734Y126667D01*
X157400Y127333D02*
X157234Y127500D01*
X156900D01*
X156734Y127333D01*
Y127166D01*
X156900Y127000D01*
X157067D01*
X156900D01*
X156734Y126833D01*
Y126667D01*
X156900Y126500D01*
X157234D01*
X157400Y126667D01*
X155734Y127500D02*
X156401D01*
Y127000D01*
X156067Y127166D01*
X155901D01*
X155734Y127000D01*
Y126667D01*
X155901Y126500D01*
X156234D01*
X156401Y126667D01*
X174934Y140412D02*
X175100Y140578D01*
X175433D01*
X175600Y140412D01*
Y139745D01*
X175433Y139579D01*
X175100D01*
X174934Y139745D01*
X174600Y140412D02*
X174434Y140578D01*
X174100D01*
X173934Y140412D01*
Y140245D01*
X174100Y140079D01*
X174267D01*
X174100D01*
X173934Y139912D01*
Y139745D01*
X174100Y139579D01*
X174434D01*
X174600Y139745D01*
X172934Y140578D02*
X173267Y140412D01*
X173601Y140079D01*
Y139745D01*
X173434Y139579D01*
X173101D01*
X172934Y139745D01*
Y139912D01*
X173101Y140079D01*
X173601D01*
X149942Y122377D02*
X150109Y122543D01*
X150442D01*
X150609Y122377D01*
Y121710D01*
X150442Y121544D01*
X150109D01*
X149942Y121710D01*
X149609Y122377D02*
X149442Y122543D01*
X149109D01*
X148943Y122377D01*
Y122210D01*
X149109Y122043D01*
X149276D01*
X149109D01*
X148943Y121877D01*
Y121710D01*
X149109Y121544D01*
X149442D01*
X149609Y121710D01*
X148609Y122543D02*
X147943D01*
Y122377D01*
X148609Y121710D01*
Y121544D01*
X141980Y124306D02*
X142146Y124473D01*
X142479D01*
X142646Y124306D01*
Y123640D01*
X142479Y123473D01*
X142146D01*
X141980Y123640D01*
X141646Y124306D02*
X141480Y124473D01*
X141146D01*
X140980Y124306D01*
Y124139D01*
X141146Y123973D01*
X141313D01*
X141146D01*
X140980Y123806D01*
Y123640D01*
X141146Y123473D01*
X141480D01*
X141646Y123640D01*
X140647Y124306D02*
X140480Y124473D01*
X140147D01*
X139980Y124306D01*
Y124139D01*
X140147Y123973D01*
X139980Y123806D01*
Y123640D01*
X140147Y123473D01*
X140480D01*
X140647Y123640D01*
Y123806D01*
X140480Y123973D01*
X140647Y124139D01*
Y124306D01*
X140480Y123973D02*
X140147D01*
X136225Y127433D02*
X136392Y127600D01*
X136725D01*
X136891Y127433D01*
Y126767D01*
X136725Y126600D01*
X136392D01*
X136225Y126767D01*
X135392Y126600D02*
Y127600D01*
X135892Y127100D01*
X135225D01*
X134892Y127433D02*
X134725Y127600D01*
X134392D01*
X134226Y127433D01*
Y126767D01*
X134392Y126600D01*
X134725D01*
X134892Y126767D01*
Y127433D01*
X180178Y120464D02*
X180344Y120631D01*
X180678D01*
X180844Y120464D01*
Y119798D01*
X180678Y119631D01*
X180344D01*
X180178Y119798D01*
X179845Y120464D02*
X179678Y120631D01*
X179345D01*
X179178Y120464D01*
Y120298D01*
X179345Y120131D01*
X179511D01*
X179345D01*
X179178Y119965D01*
Y119798D01*
X179345Y119631D01*
X179678D01*
X179845Y119798D01*
X178845D02*
X178678Y119631D01*
X178345D01*
X178178Y119798D01*
Y120464D01*
X178345Y120631D01*
X178678D01*
X178845Y120464D01*
Y120298D01*
X178678Y120131D01*
X178178D01*
X174434Y129833D02*
X174600Y130000D01*
X174933D01*
X175100Y129833D01*
Y129167D01*
X174933Y129000D01*
X174600D01*
X174434Y129167D01*
X173434Y129000D02*
X174100D01*
X173434Y129666D01*
Y129833D01*
X173600Y130000D01*
X173934D01*
X174100Y129833D01*
X173101D02*
X172934Y130000D01*
X172601D01*
X172434Y129833D01*
Y129167D01*
X172601Y129000D01*
X172934D01*
X173101Y129167D01*
Y129833D01*
X163290Y122913D02*
Y121913D01*
X162791D01*
X162624Y122079D01*
Y122746D01*
X162791Y122913D01*
X163290D01*
X161624Y121913D02*
X162291D01*
X161624Y122579D01*
Y122746D01*
X161791Y122913D01*
X162124D01*
X162291Y122746D01*
X161291D02*
X161124Y122913D01*
X160791D01*
X160625Y122746D01*
Y122079D01*
X160791Y121913D01*
X161124D01*
X161291Y122079D01*
Y122746D01*
X130700Y144532D02*
Y143532D01*
X130200D01*
X130034Y143699D01*
Y144365D01*
X130200Y144532D01*
X130700D01*
X129034Y143532D02*
X129700D01*
X129034Y144199D01*
Y144365D01*
X129200Y144532D01*
X129534D01*
X129700Y144365D01*
X128034Y143532D02*
X128701D01*
X128034Y144199D01*
Y144365D01*
X128201Y144532D01*
X128534D01*
X128701Y144365D01*
X157664Y125000D02*
Y124000D01*
X157164D01*
X156997Y124167D01*
Y124833D01*
X157164Y125000D01*
X157664D01*
X155997Y124000D02*
X156664D01*
X155997Y124666D01*
Y124833D01*
X156164Y125000D01*
X156497D01*
X156664Y124833D01*
X155164Y124000D02*
Y125000D01*
X155664Y124500D01*
X154998D01*
X154500Y129200D02*
X153500D01*
Y129700D01*
X153667Y129866D01*
X154333D01*
X154500Y129700D01*
Y129200D01*
X153500Y130866D02*
Y130200D01*
X154166Y130866D01*
X154333D01*
X154500Y130700D01*
Y130366D01*
X154333Y130200D01*
X153500Y131199D02*
Y131533D01*
Y131366D01*
X154500D01*
X154333Y131199D01*
X150365Y126050D02*
Y125050D01*
X149865D01*
X149699Y125217D01*
Y125883D01*
X149865Y126050D01*
X150365D01*
X148699Y125050D02*
X149365D01*
X148699Y125716D01*
Y125883D01*
X148865Y126050D01*
X149199D01*
X149365Y125883D01*
X148366D02*
X148199Y126050D01*
X147866D01*
X147699Y125883D01*
Y125716D01*
X147866Y125550D01*
X148032D01*
X147866D01*
X147699Y125383D01*
Y125217D01*
X147866Y125050D01*
X148199D01*
X148366Y125217D01*
X141389Y96489D02*
X142055D01*
X142222Y96323D01*
Y95990D01*
X142055Y95823D01*
X141389D01*
X141222Y95990D01*
Y96323D01*
X141556Y96156D02*
X141222Y96489D01*
Y96323D02*
X141389Y96489D01*
X141222Y97489D02*
Y96823D01*
X141889Y97489D01*
X142055D01*
X142222Y97323D01*
Y96989D01*
X142055Y96823D01*
Y97822D02*
X142222Y97989D01*
Y98322D01*
X142055Y98489D01*
X141389D01*
X141222Y98322D01*
Y97989D01*
X141389Y97822D01*
X142055D01*
X122797Y140057D02*
Y140724D01*
X122963Y140890D01*
X123297D01*
X123463Y140724D01*
Y140057D01*
X123297Y139891D01*
X122963D01*
X123130Y140224D02*
X122797Y139891D01*
X122963D02*
X122797Y140057D01*
X121797Y139891D02*
X122464D01*
X121797Y140557D01*
Y140724D01*
X121964Y140890D01*
X122297D01*
X122464Y140724D01*
X120797Y139891D02*
X121464D01*
X120797Y140557D01*
Y140724D01*
X120964Y140890D01*
X121297D01*
X121464Y140724D01*
X161343Y117086D02*
Y118085D01*
X160843D01*
X160676Y117919D01*
Y117586D01*
X160843Y117419D01*
X161343D01*
X161009D02*
X160676Y117086D01*
X159676D02*
X160343D01*
X159676Y117752D01*
Y117919D01*
X159843Y118085D01*
X160176D01*
X160343Y117919D01*
X159343D02*
X159177Y118085D01*
X158843D01*
X158677Y117919D01*
Y117252D01*
X158843Y117086D01*
X159177D01*
X159343Y117252D01*
Y117919D01*
X166169Y133450D02*
Y134450D01*
X165669D01*
X165502Y134283D01*
Y133950D01*
X165669Y133783D01*
X166169D01*
X165835D02*
X165502Y133450D01*
X164503D02*
X165169D01*
X164503Y134116D01*
Y134283D01*
X164669Y134450D01*
X165002D01*
X165169Y134283D01*
X163503Y133450D02*
X164169D01*
X163503Y134116D01*
Y134283D01*
X163669Y134450D01*
X164003D01*
X164169Y134283D01*
X175100Y132100D02*
Y133100D01*
X174600D01*
X174434Y132933D01*
Y132600D01*
X174600Y132433D01*
X175100D01*
X174767D02*
X174434Y132100D01*
X173434D02*
X174100D01*
X173434Y132766D01*
Y132933D01*
X173600Y133100D01*
X173934D01*
X174100Y132933D01*
X173101D02*
X172934Y133100D01*
X172601D01*
X172434Y132933D01*
Y132766D01*
X172601Y132600D01*
X172767D01*
X172601D01*
X172434Y132433D01*
Y132267D01*
X172601Y132100D01*
X172934D01*
X173101Y132267D01*
X166214Y127240D02*
Y128240D01*
X165714D01*
X165548Y128073D01*
Y127740D01*
X165714Y127574D01*
X166214D01*
X165881D02*
X165548Y127240D01*
X164548D02*
X165214D01*
X164548Y127907D01*
Y128073D01*
X164715Y128240D01*
X165048D01*
X165214Y128073D01*
X163548Y128240D02*
X163882Y128073D01*
X164215Y127740D01*
Y127407D01*
X164048Y127240D01*
X163715D01*
X163548Y127407D01*
Y127574D01*
X163715Y127740D01*
X164215D01*
X123100Y135371D02*
Y136371D01*
X122600D01*
X122434Y136204D01*
Y135871D01*
X122600Y135704D01*
X123100D01*
X122767D02*
X122434Y135371D01*
X122100Y136204D02*
X121934Y136371D01*
X121600D01*
X121434Y136204D01*
Y136037D01*
X121600Y135871D01*
X121767D01*
X121600D01*
X121434Y135704D01*
Y135538D01*
X121600Y135371D01*
X121934D01*
X122100Y135538D01*
X120434Y136371D02*
X120767Y136204D01*
X121101Y135871D01*
Y135538D01*
X120934Y135371D01*
X120601D01*
X120434Y135538D01*
Y135704D01*
X120601Y135871D01*
X121101D01*
X165468Y106819D02*
Y107818D01*
X164969D01*
X164802Y107652D01*
Y107319D01*
X164969Y107152D01*
X165468D01*
X165135D02*
X164802Y106819D01*
X163802Y107818D02*
X164469D01*
Y107319D01*
X164135Y107485D01*
X163969D01*
X163802Y107319D01*
Y106985D01*
X163969Y106819D01*
X164302D01*
X164469Y106985D01*
X163469Y107652D02*
X163302Y107818D01*
X162969D01*
X162803Y107652D01*
Y107485D01*
X162969Y107319D01*
X163136D01*
X162969D01*
X162803Y107152D01*
Y106985D01*
X162969Y106819D01*
X163302D01*
X163469Y106985D01*
X165279Y109390D02*
Y110390D01*
X164779D01*
X164612Y110223D01*
Y109890D01*
X164779Y109723D01*
X165279D01*
X164946D02*
X164612Y109390D01*
X163613Y110390D02*
X164279D01*
Y109890D01*
X163946Y110057D01*
X163779D01*
X163613Y109890D01*
Y109557D01*
X163779Y109390D01*
X164113D01*
X164279Y109557D01*
X162780Y109390D02*
Y110390D01*
X163279Y109890D01*
X162613D01*
X165371Y111948D02*
Y112948D01*
X164872D01*
X164705Y112781D01*
Y112448D01*
X164872Y112281D01*
X165371D01*
X165038D02*
X164705Y111948D01*
X163705Y112948D02*
X164372D01*
Y112448D01*
X164038Y112615D01*
X163872D01*
X163705Y112448D01*
Y112115D01*
X163872Y111948D01*
X164205D01*
X164372Y112115D01*
X162706Y112948D02*
X163372D01*
Y112448D01*
X163039Y112615D01*
X162872D01*
X162706Y112448D01*
Y112115D01*
X162872Y111948D01*
X163205D01*
X163372Y112115D01*
X153546Y119527D02*
X154546D01*
Y120027D01*
X154379Y120193D01*
X154046D01*
X153879Y120027D01*
Y119527D01*
Y119860D02*
X153546Y120193D01*
X154546Y121193D02*
Y120527D01*
X154046D01*
X154213Y120860D01*
Y121027D01*
X154046Y121193D01*
X153713D01*
X153546Y121027D01*
Y120693D01*
X153713Y120527D01*
X154546Y122193D02*
X154379Y121860D01*
X154046Y121526D01*
X153713D01*
X153546Y121693D01*
Y122026D01*
X153713Y122193D01*
X153879D01*
X154046Y122026D01*
Y121526D01*
X152023Y119300D02*
Y120300D01*
X151523D01*
X151357Y120133D01*
Y119800D01*
X151523Y119633D01*
X152023D01*
X151690D02*
X151357Y119300D01*
X150357Y120300D02*
X151023D01*
Y119800D01*
X150690Y119966D01*
X150523D01*
X150357Y119800D01*
Y119467D01*
X150523Y119300D01*
X150857D01*
X151023Y119467D01*
X150024Y120300D02*
X149357D01*
Y120133D01*
X150024Y119467D01*
Y119300D01*
X147608Y116273D02*
Y117273D01*
X147108D01*
X146942Y117106D01*
Y116773D01*
X147108Y116606D01*
X147608D01*
X147275D02*
X146942Y116273D01*
X145942Y117273D02*
X146608D01*
Y116773D01*
X146275Y116939D01*
X146108D01*
X145942Y116773D01*
Y116440D01*
X146108Y116273D01*
X146442D01*
X146608Y116440D01*
X145609Y117106D02*
X145442Y117273D01*
X145109D01*
X144942Y117106D01*
Y116939D01*
X145109Y116773D01*
X144942Y116606D01*
Y116440D01*
X145109Y116273D01*
X145442D01*
X145609Y116440D01*
Y116606D01*
X145442Y116773D01*
X145609Y116939D01*
Y117106D01*
X145442Y116773D02*
X145109D01*
X139800Y113700D02*
Y114700D01*
X139300D01*
X139134Y114533D01*
Y114200D01*
X139300Y114033D01*
X139800D01*
X139467D02*
X139134Y113700D01*
X138134Y114700D02*
X138800D01*
Y114200D01*
X138467Y114366D01*
X138300D01*
X138134Y114200D01*
Y113867D01*
X138300Y113700D01*
X138634D01*
X138800Y113867D01*
X137801D02*
X137634Y113700D01*
X137301D01*
X137134Y113867D01*
Y114533D01*
X137301Y114700D01*
X137634D01*
X137801Y114533D01*
Y114366D01*
X137634Y114200D01*
X137134D01*
X139832Y111454D02*
Y112454D01*
X139332D01*
X139166Y112287D01*
Y111954D01*
X139332Y111787D01*
X139832D01*
X139499D02*
X139166Y111454D01*
X138166Y112454D02*
X138499Y112287D01*
X138832Y111954D01*
Y111621D01*
X138666Y111454D01*
X138333D01*
X138166Y111621D01*
Y111787D01*
X138333Y111954D01*
X138832D01*
X137833Y112287D02*
X137666Y112454D01*
X137333D01*
X137166Y112287D01*
Y111621D01*
X137333Y111454D01*
X137666D01*
X137833Y111621D01*
Y112287D01*
X139773Y108992D02*
Y109992D01*
X139273D01*
X139107Y109825D01*
Y109492D01*
X139273Y109325D01*
X139773D01*
X139440D02*
X139107Y108992D01*
X138107Y109992D02*
X138440Y109825D01*
X138773Y109492D01*
Y109159D01*
X138607Y108992D01*
X138273D01*
X138107Y109159D01*
Y109325D01*
X138273Y109492D01*
X138773D01*
X137774Y108992D02*
X137440D01*
X137607D01*
Y109992D01*
X137774Y109825D01*
X162500Y115700D02*
Y114700D01*
X162000D01*
X161834Y114867D01*
Y115033D01*
X162000Y115200D01*
X162500D01*
X162000D01*
X161834Y115366D01*
Y115533D01*
X162000Y115700D01*
X162500D01*
X161500Y115366D02*
Y114867D01*
X161334Y114700D01*
X160834D01*
Y115366D01*
X160334Y114700D02*
Y115533D01*
Y115200D01*
X160501D01*
X160167D01*
X160334D01*
Y115533D01*
X160167Y115700D01*
X159001Y115533D02*
X159168Y115700D01*
X159501D01*
X159668Y115533D01*
Y115366D01*
X159501Y115200D01*
X159168D01*
X159001Y115033D01*
Y114867D01*
X159168Y114700D01*
X159501D01*
X159668Y114867D01*
X158501Y115533D02*
Y115366D01*
X158668D01*
X158335D01*
X158501D01*
Y114867D01*
X158335Y114700D01*
X157335D02*
X157668D01*
X157835Y114867D01*
Y115200D01*
X157668Y115366D01*
X157335D01*
X157168Y115200D01*
Y115033D01*
X157835D01*
X156835Y114367D02*
Y115366D01*
X156335D01*
X156169Y115200D01*
Y114867D01*
X156335Y114700D01*
X156835D01*
X172290Y111088D02*
X171957D01*
X172123D01*
Y110088D01*
X172290D01*
X171957D01*
X170790Y110921D02*
X170957Y111088D01*
X171290D01*
X171457Y110921D01*
Y110754D01*
X171290Y110588D01*
X170957D01*
X170790Y110421D01*
Y110255D01*
X170957Y110088D01*
X171290D01*
X171457Y110255D01*
X169957Y111088D02*
X170291D01*
X170457Y110921D01*
Y110255D01*
X170291Y110088D01*
X169957D01*
X169791Y110255D01*
Y110921D01*
X169957Y111088D01*
X165984Y116299D02*
Y117299D01*
X165484D01*
X165317Y117132D01*
Y116799D01*
X165484Y116632D01*
X165984D01*
X165650D02*
X165317Y116299D01*
X164317D02*
X164984D01*
X164317Y116965D01*
Y117132D01*
X164484Y117299D01*
X164817D01*
X164984Y117132D01*
X163318Y117299D02*
X163984D01*
Y116799D01*
X163651Y116965D01*
X163484D01*
X163318Y116799D01*
Y116465D01*
X163484Y116299D01*
X163818D01*
X163984Y116465D01*
X143000Y132525D02*
Y133524D01*
X142500D01*
X142334Y133358D01*
Y133025D01*
X142500Y132858D01*
X143000D01*
X142667D02*
X142334Y132525D01*
X142000Y133358D02*
X141834Y133524D01*
X141500D01*
X141334Y133358D01*
Y133191D01*
X141500Y133025D01*
X141667D01*
X141500D01*
X141334Y132858D01*
Y132691D01*
X141500Y132525D01*
X141834D01*
X142000Y132691D01*
X140501Y132525D02*
Y133524D01*
X141001Y133025D01*
X140334D01*
X137723Y128598D02*
Y129597D01*
X137223D01*
X137056Y129431D01*
Y129098D01*
X137223Y128931D01*
X137723D01*
X137389D02*
X137056Y128598D01*
X136723Y129431D02*
X136556Y129597D01*
X136223D01*
X136057Y129431D01*
Y129264D01*
X136223Y129098D01*
X136390D01*
X136223D01*
X136057Y128931D01*
Y128764D01*
X136223Y128598D01*
X136556D01*
X136723Y128764D01*
X135057Y129597D02*
X135723D01*
Y129098D01*
X135390Y129264D01*
X135223D01*
X135057Y129098D01*
Y128764D01*
X135223Y128598D01*
X135557D01*
X135723Y128764D01*
X145779Y135829D02*
Y136828D01*
X145279D01*
X145113Y136662D01*
Y136329D01*
X145279Y136162D01*
X145779D01*
X145446D02*
X145113Y135829D01*
X144779Y136662D02*
X144613Y136828D01*
X144279D01*
X144113Y136662D01*
Y136495D01*
X144279Y136329D01*
X144446D01*
X144279D01*
X144113Y136162D01*
Y135995D01*
X144279Y135829D01*
X144613D01*
X144779Y135995D01*
X143780Y136662D02*
X143613Y136828D01*
X143280D01*
X143113Y136662D01*
Y136495D01*
X143280Y136329D01*
X143113Y136162D01*
Y135995D01*
X143280Y135829D01*
X143613D01*
X143780Y135995D01*
Y136162D01*
X143613Y136329D01*
X143780Y136495D01*
Y136662D01*
X143613Y136329D02*
X143280D01*
X134675Y138700D02*
Y139700D01*
X134175D01*
X134009Y139533D01*
Y139200D01*
X134175Y139033D01*
X134675D01*
X134342D02*
X134009Y138700D01*
X133675Y139533D02*
X133509Y139700D01*
X133175D01*
X133009Y139533D01*
Y139366D01*
X133175Y139200D01*
X133342D01*
X133175D01*
X133009Y139033D01*
Y138867D01*
X133175Y138700D01*
X133509D01*
X133675Y138867D01*
X132676D02*
X132509Y138700D01*
X132176D01*
X132009Y138867D01*
Y139533D01*
X132176Y139700D01*
X132509D01*
X132676Y139533D01*
Y139366D01*
X132509Y139200D01*
X132009D01*
X142246Y141950D02*
Y142950D01*
X141746D01*
X141580Y142783D01*
Y142450D01*
X141746Y142283D01*
X142246D01*
X141913D02*
X141580Y141950D01*
X140746D02*
Y142950D01*
X141246Y142450D01*
X140580D01*
X140247Y142783D02*
X140080Y142950D01*
X139747D01*
X139580Y142783D01*
Y142117D01*
X139747Y141950D01*
X140080D01*
X140247Y142117D01*
Y142783D01*
X137340Y132724D02*
Y131891D01*
X137173Y131725D01*
X136840D01*
X136674Y131891D01*
Y132724D01*
X135674Y131725D02*
X136340D01*
X135674Y132391D01*
Y132558D01*
X135840Y132724D01*
X136174D01*
X136340Y132558D01*
X135341D02*
X135174Y132724D01*
X134841D01*
X134674Y132558D01*
Y132391D01*
X134841Y132225D01*
X135007D01*
X134841D01*
X134674Y132058D01*
Y131891D01*
X134841Y131725D01*
X135174D01*
X135341Y131891D01*
X154174Y136630D02*
Y135797D01*
X154008Y135630D01*
X153674D01*
X153508Y135797D01*
Y136630D01*
X152508Y135630D02*
X153175D01*
X152508Y136296D01*
Y136463D01*
X152675Y136630D01*
X153008D01*
X153175Y136463D01*
X152175Y135630D02*
X151842D01*
X152008D01*
Y136630D01*
X152175Y136463D01*
X144333Y104200D02*
Y105200D01*
X143833D01*
X143666Y105033D01*
Y104700D01*
X143833Y104533D01*
X144333D01*
X144000D02*
X143666Y104200D01*
X142667Y105200D02*
X143000Y105033D01*
X143333Y104700D01*
Y104367D01*
X143167Y104200D01*
X142833D01*
X142667Y104367D01*
Y104533D01*
X142833Y104700D01*
X143333D01*
X141667Y104200D02*
X142334D01*
X141667Y104867D01*
Y105033D01*
X141834Y105200D01*
X142167D01*
X142334Y105033D01*
X145133Y93700D02*
Y94700D01*
X144633D01*
X144466Y94533D01*
Y94200D01*
X144633Y94033D01*
X145133D01*
X144800D02*
X144466Y93700D01*
X143633D02*
Y94700D01*
X144133Y94200D01*
X143467D01*
X142467Y94700D02*
X143134D01*
Y94200D01*
X142800Y94367D01*
X142634D01*
X142467Y94200D01*
Y93867D01*
X142634Y93700D01*
X142967D01*
X143134Y93867D01*
X147733Y100250D02*
Y101250D01*
X147233D01*
X147066Y101083D01*
Y100750D01*
X147233Y100583D01*
X147733D01*
X147400D02*
X147066Y100250D01*
X146067Y101250D02*
X146400Y101083D01*
X146733Y100750D01*
Y100417D01*
X146567Y100250D01*
X146233D01*
X146067Y100417D01*
Y100583D01*
X146233Y100750D01*
X146733D01*
X145734Y101083D02*
X145567Y101250D01*
X145234D01*
X145067Y101083D01*
Y100917D01*
X145234Y100750D01*
X145400D01*
X145234D01*
X145067Y100583D01*
Y100417D01*
X145234Y100250D01*
X145567D01*
X145734Y100417D01*
X149933Y95142D02*
Y96142D01*
X149433D01*
X149266Y95975D01*
Y95642D01*
X149433Y95475D01*
X149933D01*
X149600D02*
X149266Y95142D01*
X148267Y96142D02*
X148600Y95975D01*
X148933Y95642D01*
Y95309D01*
X148767Y95142D01*
X148433D01*
X148267Y95309D01*
Y95475D01*
X148433Y95642D01*
X148933D01*
X147434Y95142D02*
Y96142D01*
X147934Y95642D01*
X147267D01*
X155744Y95775D02*
Y96775D01*
X155244D01*
X155077Y96608D01*
Y96275D01*
X155244Y96108D01*
X155744D01*
X155411D02*
X155077Y95775D01*
X154078Y96775D02*
X154411Y96608D01*
X154744Y96275D01*
Y95942D01*
X154578Y95775D01*
X154244D01*
X154078Y95942D01*
Y96108D01*
X154244Y96275D01*
X154744D01*
X153078Y96775D02*
X153745D01*
Y96275D01*
X153411Y96442D01*
X153245D01*
X153078Y96275D01*
Y95942D01*
X153245Y95775D01*
X153578D01*
X153745Y95942D01*
X168701Y100793D02*
Y101792D01*
X168201D01*
X168035Y101626D01*
Y101293D01*
X168201Y101126D01*
X168701D01*
X168368D02*
X168035Y100793D01*
X167035Y101792D02*
X167702D01*
Y101293D01*
X167368Y101459D01*
X167202D01*
X167035Y101293D01*
Y100959D01*
X167202Y100793D01*
X167535D01*
X167702Y100959D01*
X166702Y100793D02*
X166369D01*
X166535D01*
Y101792D01*
X166702Y101626D01*
X282633Y135936D02*
X282800Y135769D01*
Y135436D01*
X282633Y135269D01*
X281967D01*
X281800Y135436D01*
Y135769D01*
X281967Y135936D01*
X282800Y136269D02*
Y136935D01*
X282633D01*
X281967Y136269D01*
X281800D01*
X282633Y137268D02*
X282800Y137435D01*
Y137768D01*
X282633Y137935D01*
X281967D01*
X281800Y137768D01*
Y137435D01*
X281967Y137268D01*
X282633D01*
X287469Y135434D02*
X287636Y135268D01*
Y134935D01*
X287469Y134768D01*
X286802D01*
X286636Y134935D01*
Y135268D01*
X286802Y135434D01*
X287636Y135768D02*
Y136434D01*
X287469D01*
X286802Y135768D01*
X286636D01*
Y136767D02*
Y137101D01*
Y136934D01*
X287636D01*
X287469Y136767D01*
X286709Y108924D02*
X286876Y109090D01*
X287209D01*
X287376Y108924D01*
Y108257D01*
X287209Y108091D01*
X286876D01*
X286709Y108257D01*
X286376Y109090D02*
X285710D01*
Y108924D01*
X286376Y108257D01*
Y108091D01*
X284710D02*
X285376D01*
X284710Y108757D01*
Y108924D01*
X284877Y109090D01*
X285210D01*
X285376Y108924D01*
X282266Y94633D02*
X282433Y94800D01*
X282766D01*
X282933Y94633D01*
Y93967D01*
X282766Y93800D01*
X282433D01*
X282266Y93967D01*
X281933Y94800D02*
X281267D01*
Y94633D01*
X281933Y93967D01*
Y93800D01*
X280434D02*
Y94800D01*
X280934Y94300D01*
X280267D01*
X287025Y131983D02*
X287192Y132149D01*
X287525D01*
X287692Y131983D01*
Y131316D01*
X287525Y131150D01*
X287192D01*
X287025Y131316D01*
X286692Y132149D02*
X286026D01*
Y131983D01*
X286692Y131316D01*
Y131150D01*
X285692Y131316D02*
X285526Y131150D01*
X285193D01*
X285026Y131316D01*
Y131983D01*
X285193Y132149D01*
X285526D01*
X285692Y131983D01*
Y131816D01*
X285526Y131650D01*
X285026D01*
X291437Y145906D02*
X291604Y146072D01*
X291937D01*
X292104Y145906D01*
Y145239D01*
X291937Y145073D01*
X291604D01*
X291437Y145239D01*
X291104Y145906D02*
X290937Y146072D01*
X290604D01*
X290438Y145906D01*
Y145739D01*
X290604Y145572D01*
X290438Y145406D01*
Y145239D01*
X290604Y145073D01*
X290937D01*
X291104Y145239D01*
Y145406D01*
X290937Y145572D01*
X291104Y145739D01*
Y145906D01*
X290937Y145572D02*
X290604D01*
X289438Y145073D02*
X290104D01*
X289438Y145739D01*
Y145906D01*
X289605Y146072D01*
X289938D01*
X290104Y145906D01*
X294405Y141617D02*
X294572Y141783D01*
X294905D01*
X295072Y141617D01*
Y140950D01*
X294905Y140783D01*
X294572D01*
X294405Y140950D01*
X294072Y141617D02*
X293905Y141783D01*
X293572D01*
X293406Y141617D01*
Y141450D01*
X293572Y141283D01*
X293406Y141117D01*
Y140950D01*
X293572Y140783D01*
X293905D01*
X294072Y140950D01*
Y141117D01*
X293905Y141283D01*
X294072Y141450D01*
Y141617D01*
X293905Y141283D02*
X293572D01*
X292573Y140783D02*
Y141783D01*
X293072Y141283D01*
X292406D01*
X198164Y127997D02*
X198331Y128163D01*
X198664D01*
X198830Y127997D01*
Y127330D01*
X198664Y127163D01*
X198331D01*
X198164Y127330D01*
X197831Y127997D02*
X197664Y128163D01*
X197331D01*
X197164Y127997D01*
Y127830D01*
X197331Y127663D01*
X197164Y127497D01*
Y127330D01*
X197331Y127163D01*
X197664D01*
X197831Y127330D01*
Y127497D01*
X197664Y127663D01*
X197831Y127830D01*
Y127997D01*
X197664Y127663D02*
X197331D01*
X196165Y128163D02*
X196831D01*
Y127663D01*
X196498Y127830D01*
X196331D01*
X196165Y127663D01*
Y127330D01*
X196331Y127163D01*
X196664D01*
X196831Y127330D01*
X216056Y127871D02*
X216222Y128037D01*
X216555D01*
X216722Y127871D01*
Y127204D01*
X216555Y127038D01*
X216222D01*
X216056Y127204D01*
X215722Y127871D02*
X215556Y128037D01*
X215223D01*
X215056Y127871D01*
Y127704D01*
X215223Y127537D01*
X215056Y127371D01*
Y127204D01*
X215223Y127038D01*
X215556D01*
X215722Y127204D01*
Y127371D01*
X215556Y127537D01*
X215722Y127704D01*
Y127871D01*
X215556Y127537D02*
X215223D01*
X214056Y128037D02*
X214389Y127871D01*
X214723Y127537D01*
Y127204D01*
X214556Y127038D01*
X214223D01*
X214056Y127204D01*
Y127371D01*
X214223Y127537D01*
X214723D01*
X247361Y143805D02*
X247694D01*
X247528D01*
Y142971D01*
X247694Y142805D01*
X247861D01*
X248027Y142971D01*
X247028Y143805D02*
X246361D01*
Y143638D01*
X247028Y142971D01*
Y142805D01*
X246028Y143638D02*
X245861Y143805D01*
X245528D01*
X245362Y143638D01*
Y142971D01*
X245528Y142805D01*
X245861D01*
X246028Y142971D01*
Y143638D01*
X251851Y156166D02*
Y155167D01*
X251351D01*
X251184Y155333D01*
Y156000D01*
X251351Y156166D01*
X251851D01*
X250851D02*
Y155333D01*
X250684Y155167D01*
X250351D01*
X250184Y155333D01*
Y156166D01*
X249851D02*
X249185D01*
X249518D01*
Y155167D01*
X248185Y156000D02*
X248352Y156166D01*
X248685D01*
X248852Y156000D01*
Y155833D01*
X248685Y155667D01*
X248352D01*
X248185Y155500D01*
Y155333D01*
X248352Y155167D01*
X248685D01*
X248852Y155333D01*
X247852Y155833D02*
Y155333D01*
X247685Y155167D01*
X247185D01*
Y155833D01*
X246852Y154834D02*
Y155833D01*
X246352D01*
X246186Y155667D01*
Y155333D01*
X246352Y155167D01*
X246852D01*
X245852Y154834D02*
Y155833D01*
X245353D01*
X245186Y155667D01*
Y155333D01*
X245353Y155167D01*
X245852D01*
X244853D02*
X244520D01*
X244686D01*
Y156166D01*
X244853D01*
X244020Y155833D02*
Y155333D01*
X243853Y155167D01*
X243353D01*
Y155000D01*
X243520Y154834D01*
X243687D01*
X243353Y155167D02*
Y155833D01*
X243020Y155167D02*
Y156166D01*
X242687Y155833D01*
X242354Y156166D01*
Y155167D01*
X298166Y126400D02*
X298500D01*
X298333D01*
Y125567D01*
X298500Y125400D01*
X298666D01*
X298833Y125567D01*
X297833Y126400D02*
X297167D01*
Y126233D01*
X297833Y125567D01*
Y125400D01*
X296334D02*
Y126400D01*
X296834Y125900D01*
X296167D01*
X295472Y122297D02*
X294805Y121297D01*
Y122297D02*
X295472Y121297D01*
X294472Y122297D02*
Y122131D01*
X294139Y121797D01*
X293806Y122131D01*
Y122297D01*
X294139Y121797D02*
Y121297D01*
X293473Y121797D02*
X292806D01*
X292473Y122297D02*
Y121297D01*
X291973D01*
X291806Y121464D01*
Y122131D01*
X291973Y122297D01*
X292473D01*
X290807Y122131D02*
X290973Y122297D01*
X291307D01*
X291473Y122131D01*
Y121464D01*
X291307Y121297D01*
X290973D01*
X290807Y121464D01*
X234722Y103985D02*
X234888Y104152D01*
X235222D01*
X235388Y103985D01*
Y103319D01*
X235222Y103152D01*
X234888D01*
X234722Y103319D01*
X234388Y104152D02*
Y103152D01*
X233889D01*
X233722Y103319D01*
Y103486D01*
Y103652D01*
X233889Y103819D01*
X234388D01*
X185123Y103901D02*
Y102901D01*
X184623D01*
X184457Y103068D01*
Y103234D01*
X184623Y103401D01*
X185123D01*
X184623D01*
X184457Y103568D01*
Y103734D01*
X184623Y103901D01*
X185123D01*
X183957Y103568D02*
X183624D01*
X183457Y103401D01*
Y102901D01*
X183957D01*
X184124Y103068D01*
X183957Y103234D01*
X183457D01*
X200698Y122957D02*
Y121958D01*
X200031D01*
X199698Y122957D02*
X199032D01*
Y122791D01*
X199698Y122124D01*
Y121958D01*
X198699Y122791D02*
X198532Y122957D01*
X198199D01*
X198032Y122791D01*
Y122124D01*
X198199Y121958D01*
X198532D01*
X198699Y122124D01*
Y122791D01*
X215108Y122982D02*
Y121982D01*
X214442D01*
X214108Y122982D02*
X213442D01*
Y122815D01*
X214108Y122148D01*
Y121982D01*
X213109D02*
X212775D01*
X212942D01*
Y122982D01*
X213109Y122815D01*
X267430Y140863D02*
X268430D01*
Y141363D01*
X268263Y141530D01*
X267930D01*
X267763Y141363D01*
Y140863D01*
X267430Y142029D02*
Y142363D01*
X267596Y142529D01*
X267930D01*
X268096Y142363D01*
Y142029D01*
X267930Y141863D01*
X267596D01*
X267430Y142029D01*
X268263Y143029D02*
X268096D01*
Y142862D01*
Y143196D01*
Y143029D01*
X267596D01*
X267430Y143196D01*
X268430Y143696D02*
Y144362D01*
X268263D01*
X267596Y143696D01*
X267430D01*
X268263Y144695D02*
X268430Y144862D01*
Y145195D01*
X268263Y145362D01*
X267596D01*
X267430Y145195D01*
Y144862D01*
X267596Y144695D01*
X268263D01*
X272020Y148079D02*
Y147079D01*
Y147579D01*
X271353D01*
Y148079D01*
Y147079D01*
X269354Y147913D02*
X269520Y148079D01*
X269854D01*
X270020Y147913D01*
Y147246D01*
X269854Y147079D01*
X269520D01*
X269354Y147246D01*
Y147579D01*
X269687D01*
X268854Y147746D02*
X268521D01*
X268354Y147579D01*
Y147079D01*
X268854D01*
X269021Y147246D01*
X268854Y147413D01*
X268354D01*
X268021Y147079D02*
X267688D01*
X267854D01*
Y147746D01*
X268021D01*
X267188Y147079D02*
Y147746D01*
X266688D01*
X266521Y147579D01*
Y147079D01*
X314283Y124700D02*
Y125700D01*
X313783D01*
X313616Y125533D01*
Y125200D01*
X313783Y125034D01*
X314283D01*
X313116Y124700D02*
X312783D01*
X312617Y124867D01*
Y125200D01*
X312783Y125367D01*
X313116D01*
X313283Y125200D01*
Y124867D01*
X313116Y124700D01*
X312117Y125533D02*
Y125367D01*
X312283D01*
X311950D01*
X312117D01*
Y124867D01*
X311950Y124700D01*
X311450Y125700D02*
X310784D01*
Y125533D01*
X311450Y124867D01*
Y124700D01*
X310451D02*
X310117D01*
X310284D01*
Y125700D01*
X310451Y125533D01*
X313783Y135000D02*
Y134833D01*
X313450Y134500D01*
X313116Y134833D01*
Y135000D01*
X313450Y134500D02*
Y134000D01*
X312283Y135000D02*
X312617D01*
X312783Y134833D01*
Y134167D01*
X312617Y134000D01*
X312283D01*
X312117Y134167D01*
Y134833D01*
X312283Y135000D01*
X311617Y134000D02*
Y134833D01*
Y134500D01*
X311783D01*
X311450D01*
X311617D01*
Y134833D01*
X311450Y135000D01*
X310784Y134000D02*
Y134833D01*
Y134500D01*
X310950D01*
X310617D01*
X310784D01*
Y134833D01*
X310617Y135000D01*
X279233Y131100D02*
Y132100D01*
X278733D01*
X278566Y131933D01*
Y131600D01*
X278733Y131433D01*
X279233D01*
X278900D02*
X278566Y131100D01*
X278233Y132100D02*
X277567D01*
Y131933D01*
X278233Y131267D01*
Y131100D01*
X277234Y131933D02*
X277067Y132100D01*
X276734D01*
X276567Y131933D01*
Y131267D01*
X276734Y131100D01*
X277067D01*
X277234Y131267D01*
Y131933D01*
X273493Y136390D02*
Y137390D01*
X272993D01*
X272826Y137223D01*
Y136890D01*
X272993Y136723D01*
X273493D01*
X273159D02*
X272826Y136390D01*
X272493Y137390D02*
X271826D01*
Y137223D01*
X272493Y136557D01*
Y136390D01*
X271493D02*
X271160D01*
X271327D01*
Y137390D01*
X271493Y137223D01*
X280958Y110360D02*
Y111360D01*
X280458D01*
X280292Y111193D01*
Y110860D01*
X280458Y110693D01*
X280958D01*
X280625D02*
X280292Y110360D01*
X279959Y111193D02*
X279792Y111360D01*
X279459D01*
X279292Y111193D01*
Y111027D01*
X279459Y110860D01*
X279292Y110693D01*
Y110527D01*
X279459Y110360D01*
X279792D01*
X279959Y110527D01*
Y110693D01*
X279792Y110860D01*
X279959Y111027D01*
Y111193D01*
X279792Y110860D02*
X279459D01*
X278959Y110527D02*
X278792Y110360D01*
X278459D01*
X278292Y110527D01*
Y111193D01*
X278459Y111360D01*
X278792D01*
X278959Y111193D01*
Y111027D01*
X278792Y110860D01*
X278292D01*
X292333Y100200D02*
Y101200D01*
X291833D01*
X291666Y101033D01*
Y100700D01*
X291833Y100533D01*
X292333D01*
X292000D02*
X291666Y100200D01*
X291333Y101200D02*
X290667D01*
Y101033D01*
X291333Y100367D01*
Y100200D01*
X290334Y101200D02*
X289667D01*
Y101033D01*
X290334Y100367D01*
Y100200D01*
X288068Y105960D02*
Y106960D01*
X287568D01*
X287401Y106793D01*
Y106460D01*
X287568Y106293D01*
X288068D01*
X287735D02*
X287401Y105960D01*
X287068Y106960D02*
X286402D01*
Y106793D01*
X287068Y106127D01*
Y105960D01*
X286069Y106793D02*
X285902Y106960D01*
X285569D01*
X285402Y106793D01*
Y106627D01*
X285569Y106460D01*
X285402Y106293D01*
Y106127D01*
X285569Y105960D01*
X285902D01*
X286069Y106127D01*
Y106293D01*
X285902Y106460D01*
X286069Y106627D01*
Y106793D01*
X285902Y106460D02*
X285569D01*
X278933Y147900D02*
Y147067D01*
X278766Y146900D01*
X278433D01*
X278266Y147067D01*
Y147900D01*
X277933D02*
X277267D01*
Y147733D01*
X277933Y147067D01*
Y146900D01*
X276934Y147733D02*
X276767Y147900D01*
X276434D01*
X276267Y147733D01*
Y147067D01*
X276434Y146900D01*
X276767D01*
X276934Y147067D01*
Y147733D01*
X285072Y115238D02*
Y114405D01*
X284906Y114238D01*
X284573D01*
X284406Y114405D01*
Y115238D01*
X284073D02*
X283406D01*
Y115071D01*
X284073Y114405D01*
Y114238D01*
X283073D02*
X282740D01*
X282907D01*
Y115238D01*
X283073Y115071D01*
X290442Y94916D02*
Y95916D01*
X289943D01*
X289776Y95749D01*
Y95416D01*
X289943Y95250D01*
X290442D01*
X290109D02*
X289776Y94916D01*
X289443Y95749D02*
X289276Y95916D01*
X288943D01*
X288776Y95749D01*
Y95583D01*
X288943Y95416D01*
X288776Y95250D01*
Y95083D01*
X288943Y94916D01*
X289276D01*
X289443Y95083D01*
Y95250D01*
X289276Y95416D01*
X289443Y95583D01*
Y95749D01*
X289276Y95416D02*
X288943D01*
X288443Y95749D02*
X288276Y95916D01*
X287943D01*
X287777Y95749D01*
Y95083D01*
X287943Y94916D01*
X288276D01*
X288443Y95083D01*
Y95749D01*
X275666Y94762D02*
Y95762D01*
X275166D01*
X275000Y95595D01*
Y95262D01*
X275166Y95096D01*
X275666D01*
X275333D02*
X275000Y94762D01*
X274667Y95595D02*
X274500Y95762D01*
X274167D01*
X274000Y95595D01*
Y95429D01*
X274167Y95262D01*
X274000Y95096D01*
Y94929D01*
X274167Y94762D01*
X274500D01*
X274667Y94929D01*
Y95096D01*
X274500Y95262D01*
X274667Y95429D01*
Y95595D01*
X274500Y95262D02*
X274167D01*
X273667Y94762D02*
X273334D01*
X273500D01*
Y95762D01*
X273667Y95595D01*
X111226Y137837D02*
X111392Y138003D01*
X111725D01*
X111892Y137837D01*
Y137170D01*
X111725Y137004D01*
X111392D01*
X111226Y137170D01*
X110226Y138003D02*
X110892D01*
Y137503D01*
X110559Y137670D01*
X110392D01*
X110226Y137503D01*
Y137170D01*
X110392Y137004D01*
X110726D01*
X110892Y137170D01*
X108317Y143692D02*
X108484Y143858D01*
X108817D01*
X108984Y143692D01*
Y143025D01*
X108817Y142859D01*
X108484D01*
X108317Y143025D01*
X107484Y142859D02*
Y143858D01*
X107984Y143358D01*
X107318D01*
X128180Y114861D02*
X128346Y115028D01*
X128679D01*
X128846Y114861D01*
Y114195D01*
X128679Y114028D01*
X128346D01*
X128180Y114195D01*
X127846Y114861D02*
X127680Y115028D01*
X127346D01*
X127180Y114861D01*
Y114695D01*
X127346Y114528D01*
X127513D01*
X127346D01*
X127180Y114362D01*
Y114195D01*
X127346Y114028D01*
X127680D01*
X127846Y114195D01*
X99297Y124066D02*
X99464Y123900D01*
Y123567D01*
X99297Y123400D01*
X98631D01*
X98464Y123567D01*
Y123900D01*
X98631Y124066D01*
X98464Y124400D02*
Y124733D01*
Y124566D01*
X99464D01*
X99297Y124400D01*
X98464Y125899D02*
Y125233D01*
X99131Y125899D01*
X99297D01*
X99464Y125733D01*
Y125399D01*
X99297Y125233D01*
X122756Y109510D02*
X122922Y109677D01*
X123256D01*
X123422Y109510D01*
Y108844D01*
X123256Y108677D01*
X122922D01*
X122756Y108844D01*
X122423Y108677D02*
X122089D01*
X122256D01*
Y109677D01*
X122423Y109510D01*
X121590Y109677D02*
X120923D01*
Y109510D01*
X121590Y108844D01*
Y108677D01*
X107034Y128133D02*
X107200Y128300D01*
X107533D01*
X107700Y128133D01*
Y127467D01*
X107533Y127300D01*
X107200D01*
X107034Y127467D01*
X106700Y127300D02*
X106367D01*
X106534D01*
Y128300D01*
X106700Y128133D01*
X105201Y128300D02*
X105867D01*
Y127800D01*
X105534Y127966D01*
X105367D01*
X105201Y127800D01*
Y127467D01*
X105367Y127300D01*
X105701D01*
X105867Y127467D01*
X119717Y124810D02*
X118717D01*
Y124310D01*
X118883Y124144D01*
X119217D01*
X119383Y124310D01*
Y124810D01*
X119717Y123644D02*
Y123311D01*
X119550Y123144D01*
X119217D01*
X119050Y123311D01*
Y123644D01*
X119217Y123811D01*
X119550D01*
X119717Y123644D01*
X118883Y122644D02*
X119050D01*
Y122811D01*
Y122478D01*
Y122644D01*
X119550D01*
X119717Y122478D01*
Y121978D02*
Y121645D01*
Y121811D01*
X118717D01*
X118883Y121978D01*
X117472Y126498D02*
X117139D01*
X117306D01*
Y127497D01*
X117472Y127331D01*
X116639Y127497D02*
Y126831D01*
X116306Y126498D01*
X115973Y126831D01*
Y127497D01*
X113973Y127331D02*
X114140Y127497D01*
X114473D01*
X114640Y127331D01*
Y127164D01*
X114473Y126997D01*
X114140D01*
X113973Y126831D01*
Y126664D01*
X114140Y126498D01*
X114473D01*
X114640Y126664D01*
X113474Y127331D02*
Y127164D01*
X113640D01*
X113307D01*
X113474D01*
Y126664D01*
X113307Y126498D01*
X112807Y126164D02*
Y127164D01*
X112307D01*
X112141Y126997D01*
Y126664D01*
X112307Y126498D01*
X112807D01*
X105646Y135371D02*
Y136371D01*
X105146D01*
X104979Y136204D01*
Y135871D01*
X105146Y135704D01*
X105646D01*
X104479Y135371D02*
X104146D01*
X103979Y135538D01*
Y135871D01*
X104146Y136037D01*
X104479D01*
X104646Y135871D01*
Y135538D01*
X104479Y135371D01*
X103480Y136204D02*
Y136037D01*
X103646D01*
X103313D01*
X103480D01*
Y135538D01*
X103313Y135371D01*
X102147D02*
X102813D01*
X102147Y136037D01*
Y136204D01*
X102313Y136371D01*
X102647D01*
X102813Y136204D01*
X105692Y145308D02*
Y144308D01*
X105192D01*
X105026Y144475D01*
Y145141D01*
X105192Y145308D01*
X105692D01*
X104193Y144308D02*
X104526D01*
X104692Y144475D01*
Y144808D01*
X104526Y144975D01*
X104193D01*
X104026Y144808D01*
Y144642D01*
X104692D01*
X103693Y144308D02*
X103359D01*
X103526D01*
Y145308D01*
X103693D01*
X102693Y144975D02*
X102360D01*
X102193Y144808D01*
Y144308D01*
X102693D01*
X102860Y144475D01*
X102693Y144642D01*
X102193D01*
X101860Y144975D02*
Y144475D01*
X101693Y144308D01*
X101194D01*
Y144142D01*
X101360Y143975D01*
X101527D01*
X101194Y144308D02*
Y144975D01*
X100400Y103000D02*
Y104000D01*
X99900D01*
X99734Y103833D01*
Y103500D01*
X99900Y103333D01*
X100400D01*
X100067D02*
X99734Y103000D01*
X99400Y103833D02*
X99234Y104000D01*
X98900D01*
X98734Y103833D01*
Y103666D01*
X98900Y103500D01*
X99067D01*
X98900D01*
X98734Y103333D01*
Y103167D01*
X98900Y103000D01*
X99234D01*
X99400Y103167D01*
X133515Y102912D02*
Y103912D01*
X133015D01*
X132849Y103745D01*
Y103412D01*
X133015Y103245D01*
X133515D01*
X133182D02*
X132849Y102912D01*
X132015D02*
Y103912D01*
X132515Y103412D01*
X131849D01*
X129968Y101110D02*
Y102110D01*
X129468D01*
X129302Y101943D01*
Y101610D01*
X129468Y101444D01*
X129968D01*
X129635D02*
X129302Y101110D01*
X128302Y102110D02*
X128968D01*
Y101610D01*
X128635Y101777D01*
X128469D01*
X128302Y101610D01*
Y101277D01*
X128469Y101110D01*
X128802D01*
X128968Y101277D01*
X128300Y106900D02*
Y107900D01*
X127800D01*
X127634Y107733D01*
Y107400D01*
X127800Y107233D01*
X128300D01*
X127967D02*
X127634Y106900D01*
X126634Y107900D02*
X126967Y107733D01*
X127300Y107400D01*
Y107067D01*
X127134Y106900D01*
X126800D01*
X126634Y107067D01*
Y107233D01*
X126800Y107400D01*
X127300D01*
X133650Y113157D02*
Y114157D01*
X133150D01*
X132984Y113990D01*
Y113657D01*
X133150Y113490D01*
X133650D01*
X133317D02*
X132984Y113157D01*
X132650Y113324D02*
X132484Y113157D01*
X132150D01*
X131984Y113324D01*
Y113990D01*
X132150Y114157D01*
X132484D01*
X132650Y113990D01*
Y113823D01*
X132484Y113657D01*
X131984D01*
X131000Y109400D02*
Y110400D01*
X130500D01*
X130334Y110233D01*
Y109900D01*
X130500Y109733D01*
X131000D01*
X130667D02*
X130334Y109400D01*
X130000D02*
X129667D01*
X129834D01*
Y110400D01*
X130000Y110233D01*
X129167D02*
X129001Y110400D01*
X128667D01*
X128501Y110233D01*
Y109567D01*
X128667Y109400D01*
X129001D01*
X129167Y109567D01*
Y110233D01*
X110700Y113336D02*
Y114335D01*
X110200D01*
X110034Y114169D01*
Y113835D01*
X110200Y113669D01*
X110700D01*
X110367D02*
X110034Y113336D01*
X109700Y114169D02*
X109534Y114335D01*
X109200D01*
X109034Y114169D01*
Y114002D01*
X109200Y113835D01*
X109034Y113669D01*
Y113502D01*
X109200Y113336D01*
X109534D01*
X109700Y113502D01*
Y113669D01*
X109534Y113835D01*
X109700Y114002D01*
Y114169D01*
X109534Y113835D02*
X109200D01*
X115300Y112300D02*
Y113300D01*
X114800D01*
X114634Y113133D01*
Y112800D01*
X114800Y112633D01*
X115300D01*
X114967D02*
X114634Y112300D01*
X114300D02*
X113967D01*
X114134D01*
Y113300D01*
X114300Y113133D01*
X113467D02*
X113301Y113300D01*
X112967D01*
X112801Y113133D01*
Y112966D01*
X112967Y112800D01*
X113134D01*
X112967D01*
X112801Y112633D01*
Y112467D01*
X112967Y112300D01*
X113301D01*
X113467Y112467D01*
X119936Y130449D02*
X120102Y130616D01*
X120436D01*
X120602Y130449D01*
Y130283D01*
X120436Y130116D01*
X120102D01*
X119936Y129950D01*
Y129783D01*
X120102Y129616D01*
X120436D01*
X120602Y129783D01*
X119603Y129616D02*
X119269D01*
X119436D01*
Y130616D01*
X119603Y130449D01*
X121100Y133200D02*
Y132200D01*
X120600D01*
X120434Y132367D01*
Y133033D01*
X120600Y133200D01*
X121100D01*
X119600Y132200D02*
X119934D01*
X120100Y132367D01*
Y132700D01*
X119934Y132866D01*
X119600D01*
X119434Y132700D01*
Y132533D01*
X120100D01*
X119101Y132200D02*
X118767D01*
X118934D01*
Y133200D01*
X119101D01*
X118101Y132866D02*
X117768D01*
X117601Y132700D01*
Y132200D01*
X118101D01*
X118268Y132367D01*
X118101Y132533D01*
X117601D01*
X117268Y132866D02*
Y132367D01*
X117101Y132200D01*
X116601D01*
Y132033D01*
X116768Y131867D01*
X116935D01*
X116601Y132200D02*
Y132866D01*
X114602Y133200D02*
X115269D01*
Y132200D01*
X114602D01*
X115269Y132700D02*
X114935D01*
X114269Y132200D02*
Y132866D01*
X113769D01*
X113602Y132700D01*
Y132200D01*
X113103Y132866D02*
X112769D01*
X112603Y132700D01*
Y132200D01*
X113103D01*
X113269Y132367D01*
X113103Y132533D01*
X112603D01*
X112270Y133200D02*
Y132200D01*
X111770D01*
X111603Y132367D01*
Y132533D01*
Y132700D01*
X111770Y132866D01*
X112270D01*
X111270Y132200D02*
X110937D01*
X111103D01*
Y133200D01*
X111270D01*
X109937Y132200D02*
X110270D01*
X110437Y132367D01*
Y132700D01*
X110270Y132866D01*
X109937D01*
X109770Y132700D01*
Y132533D01*
X110437D01*
X177784Y143790D02*
Y144456D01*
X177284D01*
X177118Y144290D01*
Y143790D01*
X176118Y144623D02*
X176285Y144790D01*
X176618D01*
X176785Y144623D01*
Y144456D01*
X176618Y144290D01*
X176285D01*
X176118Y144123D01*
Y143956D01*
X176285Y143790D01*
X176618D01*
X176785Y143956D01*
X175618Y144623D02*
Y144456D01*
X175785D01*
X175452D01*
X175618D01*
Y143956D01*
X175452Y143790D01*
X174452D02*
X174785D01*
X174952Y143956D01*
Y144290D01*
X174785Y144456D01*
X174452D01*
X174285Y144290D01*
Y144123D01*
X174952D01*
X173952Y143457D02*
Y144456D01*
X173452D01*
X173286Y144290D01*
Y143956D01*
X173452Y143790D01*
X173952D01*
X105500Y95900D02*
Y96900D01*
X105000D01*
X104834Y96733D01*
Y96400D01*
X105000Y96233D01*
X105500D01*
X104500Y96566D02*
Y96067D01*
X104334Y95900D01*
X103834D01*
Y96566D01*
X103501Y95900D02*
X103167D01*
X103334D01*
Y96900D01*
X103501D01*
X102668Y95900D02*
X102168D01*
X102001Y96067D01*
X102168Y96233D01*
X102501D01*
X102668Y96400D01*
X102501Y96566D01*
X102001D01*
X101168Y95900D02*
X101501D01*
X101668Y96067D01*
Y96400D01*
X101501Y96566D01*
X101168D01*
X101001Y96400D01*
Y96233D01*
X101668D01*
X127600Y99300D02*
Y98467D01*
X127433Y98300D01*
X127100D01*
X126934Y98467D01*
Y99300D01*
X126600Y98300D02*
X126267D01*
X126434D01*
Y99300D01*
X126600Y99133D01*
X106825Y125460D02*
Y124627D01*
X106659Y124460D01*
X106326D01*
X106159Y124627D01*
Y125460D01*
X105159Y124460D02*
X105826D01*
X105159Y125126D01*
Y125293D01*
X105326Y125460D01*
X105659D01*
X105826Y125293D01*
X121200Y119700D02*
Y118867D01*
X121033Y118700D01*
X120700D01*
X120534Y118867D01*
Y119700D01*
X119700Y118700D02*
Y119700D01*
X120200Y119200D01*
X119534D01*
X111741Y96200D02*
X111408D01*
X111574D01*
Y95200D01*
X111741D01*
X111408D01*
X110241Y96033D02*
X110408Y96200D01*
X110741D01*
X110908Y96033D01*
Y95866D01*
X110741Y95700D01*
X110408D01*
X110241Y95533D01*
Y95367D01*
X110408Y95200D01*
X110741D01*
X110908Y95367D01*
X109408Y96200D02*
X109741D01*
X109908Y96033D01*
Y95367D01*
X109741Y95200D01*
X109408D01*
X109242Y95367D01*
Y96033D01*
X109408Y96200D01*
X179555Y149492D02*
X179222D01*
X179389D01*
Y148492D01*
X179555D01*
X179222D01*
X178056Y149325D02*
X178222Y149492D01*
X178556D01*
X178722Y149325D01*
Y149159D01*
X178556Y148992D01*
X178222D01*
X178056Y148826D01*
Y148659D01*
X178222Y148492D01*
X178556D01*
X178722Y148659D01*
X177223Y149492D02*
X177556D01*
X177722Y149325D01*
Y148659D01*
X177556Y148492D01*
X177223D01*
X177056Y148659D01*
Y149325D01*
X177223Y149492D01*
D13*
X137590Y137306D02*
G03*
X137590Y137306I-250J0D01*
G01*
X123103Y118203D02*
G03*
X123103Y118203I-250J0D01*
G01*
X291561Y111276D02*
G03*
X291561Y111276I-250J0D01*
G01*
X146579Y133029D02*
G03*
X146579Y133029I-250J0D01*
G01*
X277376Y145661D02*
G03*
X277376Y145661I-250J0D01*
G01*
X97502Y93000D02*
X315500D01*
X315500Y158000D02*
X315500Y93000D01*
X97502Y158000D02*
X315500D01*
X97502D02*
X97502Y93000D01*
D14*
X110500Y154500D02*
G03*
X110500Y147700I0J-3400D01*
G01*
X178600Y122900D02*
G03*
X178600Y122900I-2500J0D01*
G01*
X173300Y137400D02*
G03*
X173300Y137400I-2500J0D01*
G01*
X289450Y126100D02*
G03*
X289450Y126100I-3150J0D01*
G01*
X292100Y141300D02*
G03*
X292100Y141300I-2500J0D01*
G01*
X134900Y96600D02*
G03*
X134900Y96600I-2500J0D01*
G01*
X141700Y119900D02*
G03*
X141700Y119900I-2500J0D01*
G01*
X146650Y152400D02*
G03*
X146650Y152400I-2500J0D01*
G01*
X127300Y149400D02*
G03*
X127300Y149400I-2500J0D01*
G01*
X105100Y130000D02*
G03*
X105100Y130000I-2500J0D01*
G01*
X104706Y141686D02*
G03*
X99136Y137786I-2785J-1950D01*
G01*
X167400Y119300D02*
X168800D01*
X170150Y119300D02*
X171450Y119300D01*
X138700Y140800D02*
Y142200D01*
X111496Y148569D02*
Y153569D01*
X294200Y113150D02*
Y114450D01*
X285600Y142250D02*
X285800Y142250D01*
X285600Y139350D02*
X285800D01*
X284000Y139350D02*
X284200Y139350D01*
X284000Y142250D02*
X284200Y142250D01*
X284000Y140200D02*
X285800Y140200D01*
X284000Y142250D02*
X284000Y139350D01*
X285800Y142250D02*
X285800Y139350D01*
X297200Y119850D02*
Y121150D01*
X228650Y141600D02*
X228650Y141800D01*
X231550Y141600D02*
X231550Y141800D01*
X231550Y140000D02*
X231550Y140200D01*
X228650D02*
X228650Y140000D01*
X230700Y141800D02*
X230700Y140000D01*
X228650Y140000D02*
X231550Y140000D01*
X228650Y141800D02*
X231550Y141800D01*
X210505Y148425D02*
Y154775D01*
X204706Y148425D02*
Y154775D01*
X210505D01*
X204706Y148425D02*
X210505D01*
X101135Y136500D02*
X105231Y139368D01*
X160300Y99550D02*
X162700Y99550D01*
X160300Y96250D02*
X162700D01*
X293100Y107600D02*
X300100Y107600D01*
X293100Y105200D02*
X300100Y105200D01*
X286300Y147300D02*
X286300Y154300D01*
X288700Y154300D02*
X288700Y147300D01*
X164800Y132850D02*
X164800Y131550D01*
X297750Y93975D02*
X298350D01*
X297750Y97275D02*
X298350D01*
X274625Y107600D02*
Y108200D01*
X271325Y107600D02*
Y108200D01*
X227125Y146278D02*
X227525Y146278D01*
X227125Y145478D02*
X227125Y146278D01*
X227125Y143278D02*
X227525Y143278D01*
X227125Y143278D02*
Y144078D01*
X215900Y148800D02*
X217300Y148800D01*
X190350Y152100D02*
X191650D01*
X215850Y152100D02*
X217150Y152100D01*
X159042Y136400D02*
Y138362D01*
X152404Y94000D02*
X153550D01*
X147160Y100484D02*
X147379Y100703D01*
X125200Y113700D02*
X126600Y113700D01*
X100779Y146777D02*
X101079D01*
X100779D02*
Y147777D01*
X100279D02*
X100779D01*
X100279Y146777D02*
Y147777D01*
X100275Y146773D02*
X100279Y146777D01*
X99974Y146773D02*
X100275D01*
X98950Y100700D02*
X100250D01*
X115199Y102203D02*
X125199D01*
X115199Y103803D02*
X125199D01*
Y102203D02*
Y103803D01*
X115199Y102203D02*
Y103803D01*
X126200Y135300D02*
X127600Y135300D01*
X159900Y118650D02*
X159900Y119950D01*
X164600Y118050D02*
X164600Y119350D01*
X146400Y137900D02*
X146400Y139300D01*
X123750Y135700D02*
X125050Y135700D01*
X140000Y128550D02*
X140000Y129850D01*
X140100Y130950D02*
X140100Y132250D01*
X128300Y142800D02*
X128700Y142800D01*
X128300Y142800D02*
X128300Y142000D01*
X128300Y139800D02*
X128700D01*
X128300Y140600D02*
X128300Y139800D01*
X125113Y141600D02*
X125913Y141600D01*
Y142000D01*
X122913Y141600D02*
X123713Y141600D01*
X122913Y142000D02*
X122913Y141600D01*
X136800Y138350D02*
X136800Y139650D01*
X140250Y140000D02*
X141550Y140000D01*
X141000Y136950D02*
X141000Y135650D01*
X142600Y126100D02*
X144000Y126100D01*
X145600Y126200D02*
X147000Y126200D01*
X146600Y122900D02*
X146600Y124300D01*
X147500Y122900D02*
X147500Y124300D01*
X154300Y126400D02*
Y127200D01*
X153900D02*
X154300D01*
Y124200D02*
Y125000D01*
X153900Y124200D02*
X154300Y124200D01*
X143050Y113443D02*
Y114743D01*
X155126Y128025D02*
X155126Y129425D01*
X155126Y131025D02*
X155126Y132425D01*
X107967Y138500D02*
X109367Y138500D01*
X110278Y138500D02*
X111678Y138500D01*
X102675Y113683D02*
X104275Y113683D01*
X102675Y122483D02*
X104275Y122483D01*
X102675Y113683D02*
X102675Y122483D01*
X104275Y122483D02*
X104275Y113683D01*
X100006Y124000D02*
X100006Y125400D01*
X113650Y115400D02*
X114950D01*
X132050Y111200D02*
X133350Y111200D01*
X128650Y104200D02*
X129950Y104200D01*
X132050Y106000D02*
X133350Y106000D01*
X161100Y125883D02*
X161100Y126683D01*
X160700D02*
X161100D01*
X161100Y123683D02*
Y124483D01*
X160700Y123683D02*
X161100Y123683D01*
X142050Y99100D02*
X142050Y101700D01*
X135350Y101700D02*
X135350Y99100D01*
X142050Y99100D01*
X135350Y101700D02*
X142050Y101700D01*
X109978Y114893D02*
Y116193D01*
X143050Y102300D02*
X144350D01*
X143050Y96900D02*
X144350D01*
X145750Y98200D02*
X147050D01*
X148250D02*
X149550D01*
X151050Y98000D02*
X152350D01*
X160800Y100850D02*
X163200D01*
X160800Y104150D02*
X163200Y104150D01*
X160500Y111850D02*
Y113150D01*
Y106650D02*
Y107950D01*
X148150Y116700D02*
X149450D01*
X150650Y117300D02*
X151950D01*
X142000Y108850D02*
Y110150D01*
Y111250D02*
Y112550D01*
X153250Y117300D02*
X154550D01*
X160500Y109250D02*
Y110550D01*
X280801Y148440D02*
Y149840D01*
X217900Y123700D02*
X218700D01*
X217900Y121100D02*
X218700Y121100D01*
Y123700D01*
X194402Y121157D02*
X195202Y121157D01*
X194402Y123757D02*
X195202D01*
X194402Y121157D02*
Y123757D01*
X279100Y132850D02*
X279900D01*
X279100Y134550D02*
X279900Y134550D01*
X126700Y109650D02*
X126700Y108350D01*
X255200Y109600D02*
X256600Y109600D01*
X246854Y111252D02*
X246854Y112652D01*
X250254Y104502D02*
X250254Y105802D01*
X252156Y109493D02*
X253456Y109493D01*
X248900Y109150D02*
X248900Y107850D01*
X261504Y99652D02*
X262804D01*
X262830Y105221D02*
X264130Y105221D01*
X250654Y102302D02*
X250654Y101002D01*
X253604Y99752D02*
X254904Y99752D01*
X258904Y99652D02*
X260204Y99652D01*
X278801Y151890D02*
Y153190D01*
X164800Y130250D02*
X164800Y128950D01*
X170331Y131596D02*
X170331Y132896D01*
X168331Y128846D02*
X168331Y130246D01*
X288900Y99850D02*
X289500D01*
X288900Y96550D02*
X289500D01*
X274600Y96550D02*
X275200D01*
X274600Y99850D02*
X275200D01*
X149504Y136729D02*
X149504Y133629D01*
X148504Y133629D02*
X148504Y136729D01*
X149504Y136729D01*
X148504Y133629D02*
X149504Y133629D01*
X123600Y110300D02*
X123600Y111700D01*
X129454Y112150D02*
X129454Y110850D01*
X284301Y144940D02*
X284301Y146340D01*
X284401Y137940D02*
X285801D01*
X278950Y108100D02*
X280250Y108100D01*
X288650Y107600D02*
X289950Y107600D01*
X290250Y103200D02*
X291550Y103200D01*
X283144Y98116D02*
X283144Y97316D01*
X280544D02*
X280544Y98116D01*
X280544Y97316D02*
X283144D01*
X282876Y106060D02*
X284276Y106060D01*
X274150Y136000D02*
X275450D01*
X281101Y137540D02*
X281101Y136140D01*
X141000Y125733D02*
X141000Y127133D01*
X192200Y125500D02*
X192200Y126900D01*
X220957Y127055D02*
X220957Y125655D01*
D95*
X211571Y105091D02*
Y107090D01*
X210572D01*
X210238Y106757D01*
Y106091D01*
X210572Y105757D01*
X211571D01*
X210905D02*
X210238Y105091D01*
X208572D02*
X209239D01*
X209572Y105424D01*
Y106091D01*
X209239Y106424D01*
X208572D01*
X208239Y106091D01*
Y105757D01*
X209572D01*
X207573Y106424D02*
X206906Y105091D01*
X206240Y106424D01*
X202241Y105091D02*
X203574D01*
X202241Y106424D01*
Y106757D01*
X202574Y107090D01*
X203241D01*
X203574Y106757D01*
X201575Y107090D02*
Y105091D01*
X200575D01*
X200242Y105424D01*
Y105757D01*
Y106091D01*
X200575Y106424D01*
X201575D01*
D116*
X241720Y144220D02*
X249340D01*
X241720D02*
Y154380D01*
X251880D01*
Y144220D02*
Y154380D01*
X249340Y144220D02*
X251880D01*
X249340D02*
X249340Y154380D01*
X242990Y154380D02*
X242990Y144220D01*
X249340Y153110D02*
X250610D01*
X250610Y150570D01*
X249340Y150570D02*
X250610Y150570D01*
X249340Y148030D02*
X250610Y148030D01*
X250610Y145490D01*
X249340D02*
X250610D01*
D117*
X293100Y100400D02*
X293100Y111600D01*
X300100Y111600D01*
X293100Y100400D02*
X300100Y100400D01*
X300100Y111600D01*
X281500Y147300D02*
X292700Y147300D01*
X281500Y154300D02*
X281500Y147300D01*
X292700Y147300D02*
X292700Y154300D01*
X281500Y154300D02*
X292700Y154300D01*
X233530Y139600D02*
X234030D01*
X233780D01*
Y138100D01*
X233530Y138350D01*
X310950Y109075D02*
Y109575D01*
Y109325D01*
X312450D01*
X312200Y109075D01*
X140000Y152600D02*
X139500D01*
X139750D01*
Y154100D01*
X140000Y153850D01*
X265339Y129607D02*
X264839D01*
X265089D01*
Y131107D01*
X265339Y130857D01*
X119277Y149700D02*
X118278D01*
X119200Y140346D02*
X118200D01*
X118700Y140846D02*
Y139846D01*
X138900Y148869D02*
X137900D01*
X131960Y149000D02*
X130960D01*
X131460Y149500D02*
Y148500D01*
X292367Y129613D02*
X291367D01*
X291867Y130113D02*
Y129114D01*
X295014Y129545D02*
X294015D01*
X208174Y121050D02*
X207675D01*
X207924D01*
Y119550D01*
X208174D01*
X207675D01*
X205925Y120800D02*
X206175Y121050D01*
X206675D01*
X206925Y120800D01*
Y120550D01*
X206675Y120300D01*
X206175D01*
X205925Y120050D01*
Y119800D01*
X206175Y119550D01*
X206675D01*
X206925Y119800D01*
X204676Y121050D02*
X205175D01*
X205425Y120800D01*
Y119800D01*
X205175Y119550D01*
X204676D01*
X204426Y119800D01*
Y120800D01*
X204676Y121050D01*
X227665Y96560D02*
X228164D01*
X227915D01*
Y95310D01*
X228164Y95060D01*
X228414D01*
X228664Y95310D01*
X227165Y96560D02*
X226165D01*
Y96310D01*
X227165Y95310D01*
Y95060D01*
X225665Y95310D02*
X225415Y95060D01*
X224916D01*
X224666Y95310D01*
Y96310D01*
X224916Y96560D01*
X225415D01*
X225665Y96310D01*
Y96060D01*
X225415Y95810D01*
X224666D01*
X217642Y96457D02*
X218141D01*
X217892D01*
Y95207D01*
X218141Y94957D01*
X218391D01*
X218641Y95207D01*
X217142Y96457D02*
X216142D01*
Y96207D01*
X217142Y95207D01*
Y94957D01*
X215642Y96207D02*
X215392Y96457D01*
X214893D01*
X214643Y96207D01*
Y95957D01*
X214893Y95707D01*
X214643Y95457D01*
Y95207D01*
X214893Y94957D01*
X215392D01*
X215642Y95207D01*
Y95457D01*
X215392Y95707D01*
X215642Y95957D01*
Y96207D01*
X215392Y95707D02*
X214893D01*
X177400Y96050D02*
X177900D01*
X177650D01*
Y94800D01*
X177900Y94550D01*
X178149D01*
X178399Y94800D01*
X176900Y96050D02*
X175900D01*
Y95800D01*
X176900Y94800D01*
Y94550D01*
X174401Y96050D02*
X175400D01*
Y95300D01*
X174900Y95550D01*
X174651D01*
X174401Y95300D01*
Y94800D01*
X174651Y94550D01*
X175150D01*
X175400Y94800D01*
X197803Y96050D02*
X198303D01*
X198053D01*
Y94800D01*
X198303Y94550D01*
X198553D01*
X198802Y94800D01*
X197303Y96050D02*
X196303D01*
Y95800D01*
X197303Y94800D01*
Y94550D01*
X195803Y95800D02*
X195554Y96050D01*
X195054D01*
X194804Y95800D01*
Y95550D01*
X195054Y95300D01*
X195304D01*
X195054D01*
X194804Y95050D01*
Y94800D01*
X195054Y94550D01*
X195554D01*
X195803Y94800D01*
X237798Y96560D02*
X238298D01*
X238048D01*
Y95310D01*
X238298Y95060D01*
X238548D01*
X238797Y95310D01*
X237298Y96560D02*
X236298D01*
Y96310D01*
X237298Y95310D01*
Y95060D01*
X234799Y96560D02*
X235299Y96310D01*
X235798Y95810D01*
Y95310D01*
X235549Y95060D01*
X235049D01*
X234799Y95310D01*
Y95560D01*
X235049Y95810D01*
X235798D01*
X187401Y96050D02*
X187901D01*
X187651D01*
Y94800D01*
X187901Y94550D01*
X188151D01*
X188400Y94800D01*
X186901Y96050D02*
X185901D01*
Y95800D01*
X186901Y94800D01*
Y94550D01*
X185401Y96050D02*
X184402D01*
Y95800D01*
X185401Y94800D01*
Y94550D01*
D118*
X145921Y143460D02*
X145421D01*
X145671D01*
Y142710D01*
X145171D02*
Y143210D01*
X144922Y143460D01*
X144672Y143210D01*
Y142710D01*
Y143085D01*
X145171D01*
X144422Y142710D02*
Y143460D01*
X144047D01*
X143922Y143335D01*
Y143085D01*
X144047Y142960D01*
X144422D01*
X112600Y154925D02*
X112725Y155050D01*
X112975D01*
X113100Y154925D01*
Y154425D01*
X112975Y154300D01*
X112725D01*
X112600Y154425D01*
X111850Y154925D02*
X111975Y155050D01*
X112225D01*
X112350Y154925D01*
Y154425D01*
X112225Y154300D01*
X111975D01*
X111850Y154425D01*
X111600Y155050D02*
Y154300D01*
X111351Y154550D01*
X111101Y154300D01*
Y155050D01*
X111900Y147925D02*
X112025Y148050D01*
X112275D01*
X112400Y147925D01*
Y147425D01*
X112275Y147300D01*
X112025D01*
X111900Y147425D01*
X111650Y148050D02*
Y147300D01*
X111400Y147550D01*
X111150Y147300D01*
Y148050D01*
X286339Y130818D02*
Y129819D01*
X285839Y130318D02*
X286839D01*
X115700Y123950D02*
X115200D01*
X115450D01*
Y123200D01*
X114950D02*
Y123700D01*
X114700Y123950D01*
X114450Y123700D01*
Y123200D01*
Y123575D01*
X114950D01*
X114200Y123200D02*
Y123950D01*
X113826D01*
X113701Y123825D01*
Y123575D01*
X113826Y123450D01*
X114200D01*
X117700Y121254D02*
X117825Y121379D01*
X118075D01*
X118200Y121254D01*
Y120754D01*
X118075Y120629D01*
X117825D01*
X117700Y120754D01*
X116950Y121254D02*
X117075Y121379D01*
X117325D01*
X117450Y121254D01*
Y120754D01*
X117325Y120629D01*
X117075D01*
X116950Y120754D01*
X116700Y121379D02*
Y120629D01*
X116451Y120879D01*
X116201Y120629D01*
Y121379D01*
X112500Y121325D02*
X112625Y121450D01*
X112875D01*
X113000Y121325D01*
Y120825D01*
X112875Y120700D01*
X112625D01*
X112500Y120825D01*
X112250Y121450D02*
Y120700D01*
X112000Y120950D01*
X111750Y120700D01*
Y121450D01*
X99942Y136425D02*
X100067Y136550D01*
X100317D01*
X100442Y136425D01*
Y135925D01*
X100317Y135800D01*
X100067D01*
X99942Y135925D01*
X99692Y136550D02*
Y135800D01*
X99442Y136050D01*
X99192Y135800D01*
Y136550D01*
X107367Y140175D02*
X107492Y140300D01*
X107742D01*
X107867Y140175D01*
Y139675D01*
X107742Y139550D01*
X107492D01*
X107367Y139675D01*
X106617Y140175D02*
X106742Y140300D01*
X106992D01*
X107117Y140175D01*
Y139675D01*
X106992Y139550D01*
X106742D01*
X106617Y139675D01*
X106367Y140300D02*
Y139550D01*
X106117Y139800D01*
X105867Y139550D01*
Y140300D01*
X100412Y144079D02*
X99912D01*
X100162D01*
Y143330D01*
X99662D02*
Y143830D01*
X99412Y144079D01*
X99162Y143830D01*
Y143330D01*
Y143705D01*
X99662D01*
X98912Y143330D02*
Y144079D01*
X98537D01*
X98412Y143954D01*
Y143705D01*
X98537Y143580D01*
X98912D01*
X313350Y128600D02*
Y129100D01*
Y128850D01*
X312600D01*
Y129350D02*
X313100D01*
X313350Y129600D01*
X313100Y129850D01*
X312600D01*
X312975D01*
Y129350D01*
X312600Y130100D02*
X313350D01*
Y130474D01*
X313225Y130599D01*
X312975D01*
X312850Y130474D01*
Y130100D01*
X310625Y127000D02*
X310750Y126875D01*
Y126625D01*
X310625Y126500D01*
X310125D01*
X310000Y126625D01*
Y126875D01*
X310125Y127000D01*
X310625Y127750D02*
X310750Y127625D01*
Y127375D01*
X310625Y127250D01*
X310125D01*
X310000Y127375D01*
Y127625D01*
X310125Y127750D01*
X310750Y128000D02*
X310000D01*
X310250Y128249D01*
X310000Y128499D01*
X310750D01*
X310625Y132000D02*
X310750Y131875D01*
Y131625D01*
X310625Y131500D01*
X310125D01*
X310000Y131625D01*
Y131875D01*
X310125Y132000D01*
X310750Y132250D02*
X310000D01*
X310250Y132500D01*
X310000Y132750D01*
X310750D01*
X274400Y140798D02*
X274525Y140923D01*
X274775D01*
X274900Y140798D01*
Y140298D01*
X274775Y140173D01*
X274525D01*
X274400Y140298D01*
X274150Y140923D02*
Y140173D01*
X273900Y140423D01*
X273650Y140173D01*
Y140923D01*
X274944Y145857D02*
X275069Y145982D01*
X275319D01*
X275444Y145857D01*
Y145357D01*
X275319Y145232D01*
X275069D01*
X274944Y145357D01*
X274194Y145857D02*
X274319Y145982D01*
X274569D01*
X274694Y145857D01*
Y145357D01*
X274569Y145232D01*
X274319D01*
X274194Y145357D01*
X273944Y145982D02*
Y145232D01*
X273694Y145482D01*
X273444Y145232D01*
Y145982D01*
X272989Y143484D02*
X272490D01*
X272740D01*
Y142734D01*
X272240D02*
Y143234D01*
X271990Y143484D01*
X271740Y143234D01*
Y142734D01*
Y143109D01*
X272240D01*
X271490Y142734D02*
Y143484D01*
X271115D01*
X270990Y143359D01*
Y143109D01*
X271115Y142984D01*
X271490D01*
D119*
X180075Y122900D02*
X179075D01*
X179575Y123400D02*
Y122400D01*
X166825Y137400D02*
X167825D01*
X167325Y136900D02*
Y137900D01*
X289600Y137325D02*
Y138325D01*
X290100Y137825D02*
X289100D01*
X134650Y93600D02*
Y94600D01*
X135150Y94100D02*
X134150D01*
X135225Y119900D02*
X136225D01*
X135725Y119400D02*
Y120400D01*
X144150Y148425D02*
Y149425D01*
X144650Y148925D02*
X143650D01*
X124800Y145425D02*
Y146425D01*
X125300Y145925D02*
X124300D01*
X98625Y130000D02*
X99625D01*
X99125Y129500D02*
Y130500D01*
D120*
X218425Y122400D02*
D03*
X194677Y122457D02*
D03*
D121*
X281844Y97591D02*
D03*
M02*
