G04*
G04 #@! TF.GenerationSoftware,Altium Limited,Altium Designer,22.6.1 (34)*
G04*
G04 Layer_Color=16711935*
%FSLAX43Y43*%
%MOMM*%
G71*
G04*
G04 #@! TF.SameCoordinates,99C1152C-6A39-4C0D-8BA1-0B4153190082*
G04*
G04*
G04 #@! TF.FilePolarity,Negative*
G04*
G01*
G75*
%ADD10C,0.400*%
%ADD11C,0.500*%
%ADD12C,0.250*%
%ADD13C,0.152*%
%ADD14C,0.102*%
%ADD15C,0.254*%
G36*
X241700Y117900D02*
X223700D01*
Y134900D01*
X241700D01*
Y117900D01*
D02*
G37*
G36*
X276457Y124157D02*
Y123698D01*
X276691D01*
Y123454D01*
X276457D01*
Y122383D01*
Y122333D01*
X276456Y122285D01*
X276454Y122244D01*
X276452Y122206D01*
X276448Y122172D01*
X276446Y122141D01*
X276443Y122115D01*
X276439Y122091D01*
X276435Y122070D01*
X276431Y122054D01*
X276430Y122041D01*
X276426Y122030D01*
X276424Y122020D01*
X276422Y122015D01*
X276420Y122013D01*
Y122011D01*
X276404Y121980D01*
X276383Y121952D01*
X276361Y121928D01*
X276339Y121907D01*
X276319Y121893D01*
X276302Y121880D01*
X276291Y121872D01*
X276289Y121870D01*
X276287D01*
X276248Y121852D01*
X276206Y121839D01*
X276161Y121830D01*
X276119Y121824D01*
X276082Y121820D01*
X276065Y121819D01*
X276050Y121817D01*
X276022D01*
X275982Y121819D01*
X275941Y121820D01*
X275900Y121826D01*
X275863Y121831D01*
X275832Y121835D01*
X275817Y121839D01*
X275806Y121841D01*
X275796Y121843D01*
X275789D01*
X275785Y121844D01*
X275783D01*
X275830Y122122D01*
X275859Y122118D01*
X275887Y122117D01*
X275911Y122113D01*
X275930D01*
X275946Y122111D01*
X275967D01*
X275991Y122113D01*
X276013Y122115D01*
X276032Y122118D01*
X276046Y122122D01*
X276059Y122126D01*
X276067Y122130D01*
X276072Y122133D01*
X276074D01*
X276087Y122143D01*
X276098Y122152D01*
X276115Y122172D01*
X276120Y122181D01*
X276124Y122189D01*
X276128Y122193D01*
Y122194D01*
X276130Y122204D01*
X276133Y122213D01*
X276137Y122237D01*
X276139Y122267D01*
X276141Y122294D01*
X276143Y122322D01*
Y122344D01*
Y122354D01*
Y122361D01*
Y122365D01*
Y122367D01*
Y123454D01*
X275830D01*
Y123698D01*
X276143D01*
Y124346D01*
X276457Y124157D01*
D02*
G37*
G36*
X291847Y122546D02*
Y122509D01*
Y122476D01*
X291845Y122444D01*
X291843Y122417D01*
Y122391D01*
X291841Y122367D01*
X291839Y122344D01*
X291837Y122326D01*
X291835Y122307D01*
X291834Y122294D01*
X291832Y122281D01*
Y122272D01*
X291830Y122263D01*
X291828Y122257D01*
Y122256D01*
Y122254D01*
X291815Y122204D01*
X291802Y122159D01*
X291785Y122118D01*
X291769Y122083D01*
X291754Y122056D01*
X291748Y122044D01*
X291743Y122035D01*
X291737Y122028D01*
X291735Y122022D01*
X291732Y122020D01*
Y122019D01*
X291702Y121985D01*
X291671Y121954D01*
X291635Y121928D01*
X291600Y121904D01*
X291569Y121885D01*
X291556Y121878D01*
X291545Y121872D01*
X291534Y121869D01*
X291526Y121865D01*
X291522Y121861D01*
X291521D01*
X291467Y121841D01*
X291413Y121826D01*
X291361Y121815D01*
X291313Y121807D01*
X291293Y121806D01*
X291273Y121804D01*
X291256Y121802D01*
X291241D01*
X291230Y121800D01*
X291213D01*
X291145Y121804D01*
X291082Y121813D01*
X291021Y121830D01*
X290963Y121848D01*
X290911Y121872D01*
X290863Y121900D01*
X290819Y121928D01*
X290780Y121957D01*
X290743Y121985D01*
X290713Y122015D01*
X290686Y122041D01*
X290663Y122065D01*
X290647Y122083D01*
X290634Y122100D01*
X290626Y122109D01*
X290624Y122113D01*
Y121841D01*
X290343D01*
Y123698D01*
X290658D01*
Y122702D01*
Y122659D01*
X290660Y122618D01*
X290663Y122580D01*
X290665Y122544D01*
X290669Y122513D01*
X290674Y122483D01*
X290678Y122455D01*
X290684Y122431D01*
X290689Y122409D01*
X290693Y122391D01*
X290697Y122376D01*
X290702Y122363D01*
X290704Y122352D01*
X290708Y122344D01*
X290710Y122341D01*
Y122339D01*
X290732Y122294D01*
X290760Y122256D01*
X290787Y122222D01*
X290817Y122194D01*
X290843Y122172D01*
X290865Y122156D01*
X290874Y122150D01*
X290880Y122146D01*
X290884Y122143D01*
X290886D01*
X290932Y122118D01*
X290980Y122100D01*
X291024Y122089D01*
X291065Y122080D01*
X291082Y122076D01*
X291098Y122074D01*
X291113Y122072D01*
X291126D01*
X291137Y122070D01*
X291150D01*
X291200Y122074D01*
X291247Y122081D01*
X291287Y122093D01*
X291321Y122106D01*
X291350Y122118D01*
X291361Y122124D01*
X291371Y122130D01*
X291378Y122135D01*
X291384Y122137D01*
X291385Y122141D01*
X291387D01*
X291421Y122168D01*
X291448Y122200D01*
X291469Y122233D01*
X291485Y122265D01*
X291498Y122293D01*
X291504Y122304D01*
X291508Y122315D01*
X291510Y122324D01*
X291511Y122330D01*
X291513Y122333D01*
Y122335D01*
X291517Y122354D01*
X291519Y122374D01*
X291522Y122398D01*
X291524Y122422D01*
X291528Y122478D01*
X291530Y122533D01*
Y122559D01*
Y122585D01*
X291532Y122607D01*
Y122628D01*
Y122643D01*
Y122655D01*
Y122665D01*
Y122667D01*
Y123698D01*
X291847D01*
Y122546D01*
D02*
G37*
G36*
X283786Y123735D02*
X283853Y123728D01*
X283916Y123715D01*
X283977Y123698D01*
X284033Y123679D01*
X284083Y123657D01*
X284131Y123633D01*
X284173Y123609D01*
X284212Y123585D01*
X284245Y123561D01*
X284273Y123541D01*
X284297Y123520D01*
X284318Y123504D01*
X284331Y123491D01*
X284338Y123483D01*
X284342Y123479D01*
X284384Y123429D01*
X284421Y123374D01*
X284453Y123317D01*
X284481Y123257D01*
X284505Y123196D01*
X284523Y123135D01*
X284540Y123076D01*
X284553Y123020D01*
X284562Y122965D01*
X284570Y122915D01*
X284575Y122870D01*
X284579Y122831D01*
X284581Y122813D01*
Y122798D01*
Y122785D01*
X284582Y122774D01*
Y122765D01*
Y122759D01*
Y122755D01*
Y122754D01*
X284581Y122670D01*
X284571Y122593D01*
X284560Y122520D01*
X284545Y122452D01*
X284527Y122389D01*
X284507Y122331D01*
X284486Y122280D01*
X284464Y122231D01*
X284442Y122189D01*
X284420Y122154D01*
X284401Y122122D01*
X284383Y122096D01*
X284368Y122076D01*
X284355Y122061D01*
X284347Y122054D01*
X284345Y122050D01*
X284299Y122006D01*
X284249Y121967D01*
X284197Y121933D01*
X284144Y121906D01*
X284090Y121881D01*
X284036Y121861D01*
X283983Y121844D01*
X283933Y121831D01*
X283884Y121820D01*
X283840Y121813D01*
X283801Y121807D01*
X283766Y121804D01*
X283738Y121802D01*
X283727D01*
X283718Y121800D01*
X283699D01*
X283640Y121802D01*
X283583Y121807D01*
X283529Y121815D01*
X283479Y121824D01*
X283433Y121837D01*
X283388Y121850D01*
X283349Y121865D01*
X283312Y121880D01*
X283279Y121893D01*
X283251Y121907D01*
X283225Y121920D01*
X283205Y121933D01*
X283188Y121943D01*
X283177Y121950D01*
X283170Y121956D01*
X283168Y121957D01*
X283131Y121989D01*
X283096Y122022D01*
X283064Y122057D01*
X283036Y122093D01*
X283010Y122130D01*
X282986Y122167D01*
X282966Y122204D01*
X282947Y122237D01*
X282931Y122270D01*
X282918Y122302D01*
X282907Y122330D01*
X282897Y122354D01*
X282892Y122372D01*
X282886Y122387D01*
X282883Y122396D01*
Y122400D01*
X283207Y122443D01*
X283221Y122405D01*
X283236Y122372D01*
X283251Y122341D01*
X283268Y122311D01*
X283284Y122285D01*
X283299Y122261D01*
X283316Y122241D01*
X283331Y122220D01*
X283346Y122204D01*
X283359Y122189D01*
X283370Y122178D01*
X283381Y122167D01*
X283390Y122159D01*
X283396Y122154D01*
X283399Y122152D01*
X283401Y122150D01*
X283425Y122133D01*
X283449Y122120D01*
X283473Y122107D01*
X283499Y122098D01*
X283549Y122081D01*
X283596Y122070D01*
X283616Y122067D01*
X283636Y122065D01*
X283653Y122063D01*
X283668Y122061D01*
X283681Y122059D01*
X283697D01*
X283740Y122061D01*
X283781Y122067D01*
X283820Y122074D01*
X283857Y122085D01*
X283892Y122096D01*
X283923Y122111D01*
X283953Y122124D01*
X283979Y122141D01*
X284003Y122156D01*
X284025Y122170D01*
X284044Y122183D01*
X284058Y122194D01*
X284070Y122206D01*
X284079Y122213D01*
X284084Y122218D01*
X284086Y122220D01*
X284114Y122252D01*
X284138Y122287D01*
X284160Y122324D01*
X284179Y122363D01*
X284195Y122402D01*
X284208Y122441D01*
X284221Y122478D01*
X284231Y122517D01*
X284238Y122552D01*
X284245Y122583D01*
X284249Y122613D01*
X284253Y122639D01*
X284257Y122659D01*
Y122676D01*
X284258Y122685D01*
Y122689D01*
X282873D01*
Y122709D01*
X282872Y122726D01*
Y122739D01*
Y122752D01*
Y122761D01*
Y122767D01*
Y122770D01*
Y122772D01*
X282873Y122855D01*
X282881Y122935D01*
X282894Y123009D01*
X282909Y123078D01*
X282927Y123141D01*
X282946Y123200D01*
X282968Y123254D01*
X282990Y123302D01*
X283012Y123344D01*
X283033Y123381D01*
X283053Y123413D01*
X283072Y123439D01*
X283086Y123459D01*
X283097Y123474D01*
X283107Y123481D01*
X283109Y123485D01*
X283155Y123529D01*
X283203Y123568D01*
X283251Y123604D01*
X283303Y123631D01*
X283353Y123657D01*
X283405Y123678D01*
X283453Y123694D01*
X283501Y123707D01*
X283546Y123718D01*
X283586Y123726D01*
X283621Y123731D01*
X283655Y123735D01*
X283681Y123737D01*
X283699Y123739D01*
X283716D01*
X283786Y123735D01*
D02*
G37*
G36*
X277815D02*
X277881Y123728D01*
X277944Y123715D01*
X278005Y123698D01*
X278061Y123679D01*
X278111Y123657D01*
X278159Y123633D01*
X278202Y123609D01*
X278241Y123585D01*
X278274Y123561D01*
X278302Y123541D01*
X278326Y123520D01*
X278346Y123504D01*
X278359Y123491D01*
X278366Y123483D01*
X278370Y123479D01*
X278413Y123429D01*
X278450Y123374D01*
X278481Y123317D01*
X278509Y123257D01*
X278533Y123196D01*
X278552Y123135D01*
X278568Y123076D01*
X278581Y123020D01*
X278591Y122965D01*
X278598Y122915D01*
X278603Y122870D01*
X278607Y122831D01*
X278609Y122813D01*
Y122798D01*
Y122785D01*
X278611Y122774D01*
Y122765D01*
Y122759D01*
Y122755D01*
Y122754D01*
X278609Y122670D01*
X278600Y122593D01*
X278589Y122520D01*
X278574Y122452D01*
X278555Y122389D01*
X278535Y122331D01*
X278515Y122280D01*
X278492Y122231D01*
X278470Y122189D01*
X278448Y122154D01*
X278429Y122122D01*
X278411Y122096D01*
X278396Y122076D01*
X278383Y122061D01*
X278376Y122054D01*
X278374Y122050D01*
X278328Y122006D01*
X278278Y121967D01*
X278226Y121933D01*
X278172Y121906D01*
X278118Y121881D01*
X278065Y121861D01*
X278011Y121844D01*
X277961Y121831D01*
X277913Y121820D01*
X277868Y121813D01*
X277829Y121807D01*
X277794Y121804D01*
X277767Y121802D01*
X277755D01*
X277746Y121800D01*
X277728D01*
X277668Y121802D01*
X277611Y121807D01*
X277557Y121815D01*
X277507Y121824D01*
X277461Y121837D01*
X277417Y121850D01*
X277378Y121865D01*
X277341Y121880D01*
X277307Y121893D01*
X277280Y121907D01*
X277254Y121920D01*
X277233Y121933D01*
X277217Y121943D01*
X277205Y121950D01*
X277198Y121956D01*
X277196Y121957D01*
X277159Y121989D01*
X277124Y122022D01*
X277092Y122057D01*
X277065Y122093D01*
X277039Y122130D01*
X277015Y122167D01*
X276994Y122204D01*
X276976Y122237D01*
X276959Y122270D01*
X276946Y122302D01*
X276935Y122330D01*
X276926Y122354D01*
X276920Y122372D01*
X276915Y122387D01*
X276911Y122396D01*
Y122400D01*
X277235Y122443D01*
X277250Y122405D01*
X277265Y122372D01*
X277280Y122341D01*
X277296Y122311D01*
X277313Y122285D01*
X277328Y122261D01*
X277344Y122241D01*
X277359Y122220D01*
X277374Y122204D01*
X277387Y122189D01*
X277398Y122178D01*
X277409Y122167D01*
X277418Y122159D01*
X277424Y122154D01*
X277428Y122152D01*
X277430Y122150D01*
X277454Y122133D01*
X277478Y122120D01*
X277502Y122107D01*
X277528Y122098D01*
X277578Y122081D01*
X277624Y122070D01*
X277644Y122067D01*
X277665Y122065D01*
X277681Y122063D01*
X277696Y122061D01*
X277709Y122059D01*
X277726D01*
X277768Y122061D01*
X277809Y122067D01*
X277848Y122074D01*
X277885Y122085D01*
X277920Y122096D01*
X277952Y122111D01*
X277981Y122124D01*
X278007Y122141D01*
X278031Y122156D01*
X278054Y122170D01*
X278072Y122183D01*
X278087Y122194D01*
X278098Y122206D01*
X278107Y122213D01*
X278113Y122218D01*
X278115Y122220D01*
X278142Y122252D01*
X278166Y122287D01*
X278189Y122324D01*
X278207Y122363D01*
X278224Y122402D01*
X278237Y122441D01*
X278250Y122478D01*
X278259Y122517D01*
X278266Y122552D01*
X278274Y122583D01*
X278278Y122613D01*
X278281Y122639D01*
X278285Y122659D01*
Y122676D01*
X278287Y122685D01*
Y122689D01*
X276902D01*
Y122709D01*
X276900Y122726D01*
Y122739D01*
Y122752D01*
Y122761D01*
Y122767D01*
Y122770D01*
Y122772D01*
X276902Y122855D01*
X276909Y122935D01*
X276922Y123009D01*
X276937Y123078D01*
X276955Y123141D01*
X276974Y123200D01*
X276996Y123254D01*
X277018Y123302D01*
X277041Y123344D01*
X277061Y123381D01*
X277081Y123413D01*
X277100Y123439D01*
X277115Y123459D01*
X277126Y123474D01*
X277135Y123481D01*
X277137Y123485D01*
X277183Y123529D01*
X277231Y123568D01*
X277280Y123604D01*
X277331Y123631D01*
X277381Y123657D01*
X277433Y123678D01*
X277481Y123694D01*
X277530Y123707D01*
X277574Y123718D01*
X277615Y123726D01*
X277650Y123731D01*
X277683Y123735D01*
X277709Y123737D01*
X277728Y123739D01*
X277744D01*
X277815Y123735D01*
D02*
G37*
G36*
X294200Y121841D02*
X293180D01*
X293135Y121843D01*
X293095Y121844D01*
X293056Y121848D01*
X293020Y121850D01*
X292985Y121854D01*
X292954Y121857D01*
X292926Y121863D01*
X292900Y121867D01*
X292878Y121870D01*
X292858Y121874D01*
X292841Y121876D01*
X292828Y121880D01*
X292819Y121881D01*
X292813Y121883D01*
X292811D01*
X292750Y121902D01*
X292696Y121920D01*
X292648Y121943D01*
X292628Y121952D01*
X292608Y121963D01*
X292591Y121972D01*
X292576Y121981D01*
X292563Y121989D01*
X292552Y121996D01*
X292543Y122002D01*
X292537Y122006D01*
X292534Y122009D01*
X292532D01*
X292491Y122043D01*
X292456Y122081D01*
X292424Y122120D01*
X292396Y122159D01*
X292374Y122193D01*
X292365Y122207D01*
X292358Y122220D01*
X292352Y122231D01*
X292348Y122239D01*
X292345Y122244D01*
Y122246D01*
X292319Y122305D01*
X292300Y122365D01*
X292285Y122422D01*
X292276Y122474D01*
X292272Y122496D01*
X292271Y122518D01*
X292269Y122537D01*
Y122552D01*
X292267Y122565D01*
Y122576D01*
Y122581D01*
Y122583D01*
X292269Y122624D01*
X292272Y122663D01*
X292278Y122702D01*
X292287Y122737D01*
X292296Y122772D01*
X292306Y122804D01*
X292319Y122833D01*
X292330Y122861D01*
X292341Y122885D01*
X292352Y122907D01*
X292363Y122926D01*
X292372Y122941D01*
X292382Y122954D01*
X292387Y122963D01*
X292391Y122968D01*
X292393Y122970D01*
X292417Y123000D01*
X292443Y123028D01*
X292472Y123054D01*
X292500Y123076D01*
X292530Y123098D01*
X292559Y123117D01*
X292589Y123133D01*
X292619Y123148D01*
X292645Y123163D01*
X292671Y123174D01*
X292693Y123183D01*
X292711Y123191D01*
X292728Y123196D01*
X292739Y123200D01*
X292748Y123204D01*
X292750D01*
X292717Y123220D01*
X292687Y123239D01*
X292659Y123257D01*
X292632Y123278D01*
X292608Y123298D01*
X292585Y123317D01*
X292567Y123335D01*
X292548Y123354D01*
X292534Y123370D01*
X292519Y123387D01*
X292508Y123400D01*
X292498Y123413D01*
X292491Y123424D01*
X292485Y123431D01*
X292484Y123435D01*
X292482Y123437D01*
X292465Y123465D01*
X292452Y123492D01*
X292439Y123518D01*
X292430Y123546D01*
X292413Y123598D01*
X292402Y123646D01*
X292398Y123666D01*
X292396Y123687D01*
X292393Y123704D01*
Y123718D01*
X292391Y123729D01*
Y123739D01*
Y123744D01*
Y123746D01*
X292393Y123779D01*
X292395Y123811D01*
X292408Y123874D01*
X292422Y123931D01*
X292432Y123957D01*
X292441Y123983D01*
X292452Y124005D01*
X292461Y124024D01*
X292469Y124042D01*
X292476Y124057D01*
X292484Y124068D01*
X292489Y124078D01*
X292491Y124083D01*
X292493Y124085D01*
X292513Y124115D01*
X292534Y124142D01*
X292556Y124166D01*
X292578Y124190D01*
X292602Y124213D01*
X292624Y124231D01*
X292646Y124250D01*
X292669Y124265D01*
X292689Y124279D01*
X292709Y124290D01*
X292726Y124302D01*
X292741Y124309D01*
X292754Y124316D01*
X292763Y124320D01*
X292769Y124324D01*
X292771D01*
X292804Y124339D01*
X292841Y124350D01*
X292919Y124370D01*
X292996Y124385D01*
X293035Y124389D01*
X293072Y124394D01*
X293106Y124396D01*
X293139Y124400D01*
X293167Y124402D01*
X293193D01*
X293213Y124403D01*
X294200D01*
Y121841D01*
D02*
G37*
G36*
X286838D02*
X285818D01*
X285773Y121843D01*
X285732Y121844D01*
X285693Y121848D01*
X285658Y121850D01*
X285623Y121854D01*
X285592Y121857D01*
X285564Y121863D01*
X285538Y121867D01*
X285516Y121870D01*
X285495Y121874D01*
X285479Y121876D01*
X285466Y121880D01*
X285456Y121881D01*
X285451Y121883D01*
X285449D01*
X285388Y121902D01*
X285334Y121920D01*
X285286Y121943D01*
X285266Y121952D01*
X285245Y121963D01*
X285229Y121972D01*
X285214Y121981D01*
X285201Y121989D01*
X285190Y121996D01*
X285181Y122002D01*
X285175Y122006D01*
X285171Y122009D01*
X285169D01*
X285129Y122043D01*
X285094Y122081D01*
X285062Y122120D01*
X285034Y122159D01*
X285012Y122193D01*
X285003Y122207D01*
X284995Y122220D01*
X284990Y122231D01*
X284986Y122239D01*
X284982Y122244D01*
Y122246D01*
X284957Y122305D01*
X284938Y122365D01*
X284923Y122422D01*
X284914Y122474D01*
X284910Y122496D01*
X284908Y122518D01*
X284907Y122537D01*
Y122552D01*
X284905Y122565D01*
Y122576D01*
Y122581D01*
Y122583D01*
X284907Y122624D01*
X284910Y122663D01*
X284916Y122702D01*
X284925Y122737D01*
X284934Y122772D01*
X284944Y122804D01*
X284957Y122833D01*
X284968Y122861D01*
X284979Y122885D01*
X284990Y122907D01*
X285001Y122926D01*
X285010Y122941D01*
X285019Y122954D01*
X285025Y122963D01*
X285029Y122968D01*
X285031Y122970D01*
X285055Y123000D01*
X285081Y123028D01*
X285110Y123054D01*
X285138Y123076D01*
X285168Y123098D01*
X285197Y123117D01*
X285227Y123133D01*
X285256Y123148D01*
X285282Y123163D01*
X285308Y123174D01*
X285331Y123183D01*
X285349Y123191D01*
X285366Y123196D01*
X285377Y123200D01*
X285386Y123204D01*
X285388D01*
X285355Y123220D01*
X285325Y123239D01*
X285297Y123257D01*
X285269Y123278D01*
X285245Y123298D01*
X285223Y123317D01*
X285205Y123335D01*
X285186Y123354D01*
X285171Y123370D01*
X285156Y123387D01*
X285145Y123400D01*
X285136Y123413D01*
X285129Y123424D01*
X285123Y123431D01*
X285121Y123435D01*
X285119Y123437D01*
X285103Y123465D01*
X285090Y123492D01*
X285077Y123518D01*
X285068Y123546D01*
X285051Y123598D01*
X285040Y123646D01*
X285036Y123666D01*
X285034Y123687D01*
X285031Y123704D01*
Y123718D01*
X285029Y123729D01*
Y123739D01*
Y123744D01*
Y123746D01*
X285031Y123779D01*
X285032Y123811D01*
X285045Y123874D01*
X285060Y123931D01*
X285069Y123957D01*
X285079Y123983D01*
X285090Y124005D01*
X285099Y124024D01*
X285107Y124042D01*
X285114Y124057D01*
X285121Y124068D01*
X285127Y124078D01*
X285129Y124083D01*
X285131Y124085D01*
X285151Y124115D01*
X285171Y124142D01*
X285194Y124166D01*
X285216Y124190D01*
X285240Y124213D01*
X285262Y124231D01*
X285284Y124250D01*
X285306Y124265D01*
X285327Y124279D01*
X285347Y124290D01*
X285364Y124302D01*
X285379Y124309D01*
X285392Y124316D01*
X285401Y124320D01*
X285406Y124324D01*
X285408D01*
X285442Y124339D01*
X285479Y124350D01*
X285556Y124370D01*
X285634Y124385D01*
X285673Y124389D01*
X285710Y124394D01*
X285743Y124396D01*
X285777Y124400D01*
X285805Y124402D01*
X285831D01*
X285851Y124403D01*
X286838D01*
Y121841D01*
D02*
G37*
G36*
X281685Y123735D02*
X281751Y123726D01*
X281812Y123711D01*
X281870Y123691D01*
X281923Y123668D01*
X281972Y123642D01*
X282016Y123615D01*
X282055Y123587D01*
X282090Y123557D01*
X282120Y123529D01*
X282146Y123504D01*
X282168Y123481D01*
X282183Y123461D01*
X282196Y123446D01*
X282203Y123437D01*
X282205Y123433D01*
Y123698D01*
X282488D01*
Y121841D01*
X282173D01*
Y122854D01*
X282172Y122918D01*
X282168Y122978D01*
X282161Y123031D01*
X282151Y123079D01*
X282140Y123124D01*
X282127Y123165D01*
X282114Y123200D01*
X282101Y123229D01*
X282088Y123257D01*
X282075Y123279D01*
X282062Y123298D01*
X282051Y123313D01*
X282042Y123324D01*
X282035Y123333D01*
X282031Y123337D01*
X282029Y123339D01*
X282001Y123361D01*
X281972Y123381D01*
X281942Y123398D01*
X281912Y123413D01*
X281883Y123426D01*
X281855Y123435D01*
X281827Y123444D01*
X281799Y123450D01*
X281775Y123455D01*
X281753Y123459D01*
X281733Y123463D01*
X281714Y123465D01*
X281701Y123466D01*
X281681D01*
X281635Y123465D01*
X281594Y123457D01*
X281557Y123448D01*
X281524Y123439D01*
X281498Y123428D01*
X281479Y123418D01*
X281472Y123415D01*
X281466Y123411D01*
X281464Y123409D01*
X281462D01*
X281429Y123387D01*
X281401Y123361D01*
X281379Y123335D01*
X281361Y123311D01*
X281348Y123289D01*
X281338Y123272D01*
X281335Y123265D01*
X281333Y123259D01*
X281331Y123257D01*
Y123255D01*
X281324Y123237D01*
X281318Y123217D01*
X281309Y123170D01*
X281303Y123124D01*
X281298Y123076D01*
Y123055D01*
X281296Y123035D01*
Y123017D01*
X281294Y123000D01*
Y122987D01*
Y122978D01*
Y122970D01*
Y122968D01*
Y121841D01*
X280979D01*
Y122981D01*
Y123020D01*
Y123057D01*
X280981Y123091D01*
X280983Y123122D01*
Y123150D01*
X280985Y123174D01*
X280987Y123196D01*
X280988Y123217D01*
X280990Y123233D01*
X280992Y123248D01*
X280994Y123261D01*
Y123270D01*
X280996Y123278D01*
X280998Y123283D01*
Y123285D01*
Y123287D01*
X281011Y123335D01*
X281025Y123379D01*
X281040Y123420D01*
X281057Y123454D01*
X281072Y123481D01*
X281079Y123492D01*
X281085Y123502D01*
X281088Y123509D01*
X281092Y123515D01*
X281096Y123516D01*
Y123518D01*
X281125Y123554D01*
X281159Y123585D01*
X281194Y123613D01*
X281227Y123635D01*
X281259Y123654D01*
X281272Y123661D01*
X281283Y123666D01*
X281294Y123672D01*
X281301Y123676D01*
X281305Y123678D01*
X281307D01*
X281361Y123698D01*
X281414Y123713D01*
X281466Y123724D01*
X281512Y123731D01*
X281535Y123733D01*
X281553Y123735D01*
X281572Y123737D01*
X281586Y123739D01*
X281614D01*
X281685Y123735D01*
D02*
G37*
G36*
X279694D02*
X279761Y123726D01*
X279822Y123711D01*
X279879Y123691D01*
X279933Y123668D01*
X279981Y123642D01*
X280026Y123615D01*
X280064Y123587D01*
X280100Y123557D01*
X280129Y123529D01*
X280155Y123504D01*
X280177Y123481D01*
X280192Y123461D01*
X280205Y123446D01*
X280213Y123437D01*
X280214Y123433D01*
Y123698D01*
X280498D01*
Y121841D01*
X280183D01*
Y122854D01*
X280181Y122918D01*
X280177Y122978D01*
X280170Y123031D01*
X280161Y123079D01*
X280150Y123124D01*
X280137Y123165D01*
X280124Y123200D01*
X280111Y123229D01*
X280098Y123257D01*
X280085Y123279D01*
X280072Y123298D01*
X280061Y123313D01*
X280051Y123324D01*
X280044Y123333D01*
X280040Y123337D01*
X280039Y123339D01*
X280011Y123361D01*
X279981Y123381D01*
X279951Y123398D01*
X279922Y123413D01*
X279892Y123426D01*
X279864Y123435D01*
X279837Y123444D01*
X279809Y123450D01*
X279785Y123455D01*
X279763Y123459D01*
X279742Y123463D01*
X279724Y123465D01*
X279711Y123466D01*
X279690D01*
X279644Y123465D01*
X279603Y123457D01*
X279566Y123448D01*
X279533Y123439D01*
X279507Y123428D01*
X279489Y123418D01*
X279481Y123415D01*
X279476Y123411D01*
X279474Y123409D01*
X279472D01*
X279439Y123387D01*
X279411Y123361D01*
X279389Y123335D01*
X279370Y123311D01*
X279357Y123289D01*
X279348Y123272D01*
X279344Y123265D01*
X279342Y123259D01*
X279340Y123257D01*
Y123255D01*
X279333Y123237D01*
X279327Y123217D01*
X279318Y123170D01*
X279313Y123124D01*
X279307Y123076D01*
Y123055D01*
X279305Y123035D01*
Y123017D01*
X279303Y123000D01*
Y122987D01*
Y122978D01*
Y122970D01*
Y122968D01*
Y121841D01*
X278989D01*
Y122981D01*
Y123020D01*
Y123057D01*
X278990Y123091D01*
X278992Y123122D01*
Y123150D01*
X278994Y123174D01*
X278996Y123196D01*
X278998Y123217D01*
X279000Y123233D01*
X279002Y123248D01*
X279003Y123261D01*
Y123270D01*
X279005Y123278D01*
X279007Y123283D01*
Y123285D01*
Y123287D01*
X279020Y123335D01*
X279035Y123379D01*
X279050Y123420D01*
X279066Y123454D01*
X279081Y123481D01*
X279089Y123492D01*
X279094Y123502D01*
X279098Y123509D01*
X279102Y123515D01*
X279105Y123516D01*
Y123518D01*
X279135Y123554D01*
X279168Y123585D01*
X279203Y123613D01*
X279237Y123635D01*
X279268Y123654D01*
X279281Y123661D01*
X279292Y123666D01*
X279303Y123672D01*
X279311Y123676D01*
X279315Y123678D01*
X279316D01*
X279370Y123698D01*
X279424Y123713D01*
X279476Y123724D01*
X279522Y123731D01*
X279544Y123733D01*
X279563Y123735D01*
X279581Y123737D01*
X279596Y123739D01*
X279624D01*
X279694Y123735D01*
D02*
G37*
G36*
X288671Y123481D02*
X288704Y123522D01*
X288739Y123559D01*
X288775Y123591D01*
X288810Y123616D01*
X288839Y123639D01*
X288852Y123646D01*
X288864Y123654D01*
X288873Y123659D01*
X288880Y123663D01*
X288884Y123666D01*
X288886D01*
X288936Y123691D01*
X288988Y123709D01*
X289038Y123722D01*
X289084Y123729D01*
X289104Y123733D01*
X289123Y123735D01*
X289141Y123737D01*
X289156D01*
X289167Y123739D01*
X289184D01*
X289226Y123737D01*
X289267Y123733D01*
X289306Y123728D01*
X289345Y123720D01*
X289380Y123711D01*
X289415Y123700D01*
X289447Y123689D01*
X289476Y123678D01*
X289502Y123666D01*
X289526Y123655D01*
X289547Y123644D01*
X289563Y123635D01*
X289578Y123628D01*
X289588Y123622D01*
X289595Y123618D01*
X289597Y123616D01*
X289630Y123592D01*
X289662Y123566D01*
X289691Y123541D01*
X289719Y123511D01*
X289743Y123483D01*
X289765Y123454D01*
X289788Y123426D01*
X289804Y123398D01*
X289821Y123372D01*
X289836Y123348D01*
X289847Y123326D01*
X289858Y123307D01*
X289865Y123292D01*
X289871Y123279D01*
X289873Y123272D01*
X289875Y123270D01*
X289891Y123228D01*
X289904Y123183D01*
X289917Y123141D01*
X289926Y123096D01*
X289943Y123011D01*
X289949Y122972D01*
X289954Y122933D01*
X289958Y122898D01*
X289960Y122867D01*
X289962Y122839D01*
X289963Y122813D01*
X289965Y122794D01*
Y122780D01*
Y122770D01*
Y122767D01*
X289963Y122715D01*
X289962Y122663D01*
X289956Y122615D01*
X289949Y122568D01*
X289941Y122524D01*
X289934Y122481D01*
X289925Y122443D01*
X289913Y122407D01*
X289904Y122376D01*
X289895Y122346D01*
X289887Y122322D01*
X289880Y122302D01*
X289873Y122285D01*
X289867Y122272D01*
X289865Y122265D01*
X289863Y122263D01*
X289843Y122224D01*
X289823Y122185D01*
X289799Y122150D01*
X289776Y122118D01*
X289752Y122087D01*
X289728Y122059D01*
X289704Y122033D01*
X289682Y122011D01*
X289660Y121991D01*
X289641Y121972D01*
X289623Y121957D01*
X289606Y121944D01*
X289595Y121935D01*
X289584Y121928D01*
X289578Y121924D01*
X289576Y121922D01*
X289541Y121900D01*
X289506Y121881D01*
X289469Y121865D01*
X289434Y121852D01*
X289399Y121839D01*
X289365Y121830D01*
X289334Y121822D01*
X289302Y121815D01*
X289275Y121811D01*
X289249Y121807D01*
X289226Y121804D01*
X289206Y121802D01*
X289191Y121800D01*
X289169D01*
X289106Y121804D01*
X289049Y121811D01*
X288993Y121826D01*
X288943Y121843D01*
X288897Y121865D01*
X288854Y121887D01*
X288815Y121913D01*
X288780Y121939D01*
X288751Y121963D01*
X288723Y121989D01*
X288701Y122011D01*
X288682Y122033D01*
X288667Y122050D01*
X288656Y122065D01*
X288651Y122072D01*
X288649Y122076D01*
Y121841D01*
X288356D01*
Y124403D01*
X288671D01*
Y123481D01*
D02*
G37*
G36*
X268944Y130452D02*
X268651D01*
Y130685D01*
X268614Y130637D01*
X268575Y130594D01*
X268535Y130557D01*
X268492Y130526D01*
X268449Y130500D01*
X268407Y130478D01*
X268364Y130459D01*
X268324Y130446D01*
X268287Y130433D01*
X268251Y130426D01*
X268218Y130420D01*
X268190Y130415D01*
X268168Y130413D01*
X268151Y130411D01*
X268137D01*
X268075Y130415D01*
X268018Y130422D01*
X267962Y130435D01*
X267909Y130452D01*
X267859Y130472D01*
X267812Y130493D01*
X267770Y130517D01*
X267731Y130541D01*
X267696Y130565D01*
X267664Y130589D01*
X267637Y130611D01*
X267614Y130630D01*
X267596Y130646D01*
X267583Y130659D01*
X267574Y130667D01*
X267572Y130670D01*
X267529Y130722D01*
X267494Y130778D01*
X267463Y130835D01*
X267435Y130896D01*
X267413Y130957D01*
X267392Y131018D01*
X267377Y131078D01*
X267364Y131137D01*
X267355Y131192D01*
X267348Y131242D01*
X267342Y131289D01*
X267339Y131329D01*
X267337Y131346D01*
Y131361D01*
X267335Y131376D01*
Y131387D01*
Y131396D01*
Y131402D01*
Y131405D01*
Y131407D01*
X267337Y131481D01*
X267344Y131552D01*
X267348Y131585D01*
X267353Y131615D01*
X267359Y131644D01*
X267363Y131672D01*
X267368Y131696D01*
X267374Y131718D01*
X267379Y131739D01*
X267383Y131753D01*
X267387Y131768D01*
X267390Y131778D01*
X267392Y131783D01*
Y131785D01*
X267414Y131848D01*
X267440Y131905D01*
X267464Y131957D01*
X267477Y131979D01*
X267490Y132002D01*
X267501Y132020D01*
X267513Y132037D01*
X267522Y132052D01*
X267529Y132063D01*
X267537Y132072D01*
X267542Y132079D01*
X267544Y132083D01*
X267546Y132085D01*
X267585Y132129D01*
X267627Y132168D01*
X267668Y132202D01*
X267709Y132229D01*
X267744Y132252D01*
X267759Y132259D01*
X267772Y132266D01*
X267783Y132272D01*
X267790Y132276D01*
X267796Y132279D01*
X267798D01*
X267855Y132303D01*
X267913Y132320D01*
X267968Y132333D01*
X268018Y132340D01*
X268040Y132344D01*
X268059Y132346D01*
X268077Y132348D01*
X268092D01*
X268105Y132350D01*
X268122D01*
X268179Y132348D01*
X268233Y132339D01*
X268283Y132326D01*
X268331Y132311D01*
X268377Y132290D01*
X268418Y132270D01*
X268457Y132248D01*
X268492Y132224D01*
X268522Y132200D01*
X268549Y132178D01*
X268574Y132157D01*
X268594Y132137D01*
X268609Y132122D01*
X268620Y132109D01*
X268627Y132102D01*
X268629Y132098D01*
Y133014D01*
X268944D01*
Y130452D01*
D02*
G37*
G36*
X265072Y131952D02*
X264715D01*
Y132309D01*
X265072D01*
Y131952D01*
D02*
G37*
G36*
X276202Y132346D02*
X276243Y132344D01*
X276282Y132339D01*
X276319Y132335D01*
X276354Y132329D01*
X276388Y132322D01*
X276417Y132316D01*
X276443Y132311D01*
X276467Y132303D01*
X276488Y132298D01*
X276506Y132294D01*
X276519Y132289D01*
X276530Y132287D01*
X276536Y132283D01*
X276538D01*
X276571Y132270D01*
X276602Y132257D01*
X276630Y132242D01*
X276658Y132226D01*
X276682Y132211D01*
X276704Y132196D01*
X276726Y132179D01*
X276745Y132165D01*
X276762Y132152D01*
X276775Y132139D01*
X276788Y132126D01*
X276797Y132116D01*
X276806Y132107D01*
X276812Y132102D01*
X276813Y132098D01*
X276815Y132096D01*
X276849Y132048D01*
X276876Y131994D01*
X276900Y131942D01*
X276919Y131891D01*
X276928Y131868D01*
X276934Y131846D01*
X276939Y131828D01*
X276945Y131811D01*
X276949Y131796D01*
X276950Y131787D01*
X276952Y131779D01*
Y131778D01*
X276645Y131735D01*
X276636Y131770D01*
X276625Y131803D01*
X276612Y131833D01*
X276599Y131861D01*
X276588Y131885D01*
X276575Y131907D01*
X276562Y131928D01*
X276549Y131946D01*
X276536Y131961D01*
X276525Y131974D01*
X276515Y131985D01*
X276506Y131994D01*
X276499Y132000D01*
X276493Y132005D01*
X276491Y132009D01*
X276489D01*
X276469Y132024D01*
X276445Y132035D01*
X276393Y132055D01*
X276339Y132070D01*
X276286Y132079D01*
X276262Y132081D01*
X276238Y132085D01*
X276217Y132087D01*
X276199D01*
X276182Y132089D01*
X276162D01*
X276119Y132087D01*
X276078Y132085D01*
X276041Y132079D01*
X276006Y132072D01*
X275973Y132065D01*
X275945Y132055D01*
X275917Y132044D01*
X275893Y132035D01*
X275873Y132026D01*
X275854Y132015D01*
X275839Y132005D01*
X275827Y131998D01*
X275817Y131990D01*
X275810Y131987D01*
X275806Y131983D01*
X275804Y131981D01*
X275788Y131965D01*
X275775Y131948D01*
X275762Y131928D01*
X275752Y131907D01*
X275736Y131861D01*
X275725Y131816D01*
X275719Y131776D01*
X275715Y131757D01*
Y131742D01*
X275714Y131729D01*
Y131720D01*
Y131713D01*
Y131711D01*
Y131702D01*
Y131691D01*
Y131663D01*
X275715Y131650D01*
Y131641D01*
Y131633D01*
Y131629D01*
X275752Y131618D01*
X275791Y131607D01*
X275834Y131596D01*
X275880Y131585D01*
X275973Y131566D01*
X276019Y131559D01*
X276064Y131552D01*
X276106Y131544D01*
X276147Y131539D01*
X276182Y131533D01*
X276214Y131528D01*
X276239Y131526D01*
X276260Y131522D01*
X276267D01*
X276273Y131520D01*
X276276D01*
X276310Y131516D01*
X276341Y131513D01*
X276371Y131507D01*
X276399Y131504D01*
X276425Y131500D01*
X276447Y131496D01*
X276467Y131492D01*
X276486Y131489D01*
X276502Y131485D01*
X276517Y131483D01*
X276528Y131479D01*
X276539Y131478D01*
X276547Y131476D01*
X276552D01*
X276554Y131474D01*
X276556D01*
X276602Y131459D01*
X276645Y131442D01*
X276684Y131426D01*
X276717Y131409D01*
X276745Y131394D01*
X276756Y131387D01*
X276765Y131381D01*
X276773Y131378D01*
X276778Y131374D01*
X276782Y131370D01*
X276784D01*
X276819Y131342D01*
X276850Y131313D01*
X276878Y131283D01*
X276902Y131254D01*
X276921Y131228D01*
X276934Y131207D01*
X276939Y131200D01*
X276941Y131194D01*
X276945Y131191D01*
Y131189D01*
X276965Y131146D01*
X276980Y131104D01*
X276991Y131061D01*
X276999Y131024D01*
X277002Y130991D01*
X277004Y130976D01*
Y130965D01*
X277006Y130954D01*
Y130946D01*
Y130942D01*
Y130941D01*
X277004Y130898D01*
X276999Y130857D01*
X276991Y130820D01*
X276980Y130783D01*
X276969Y130750D01*
X276954Y130718D01*
X276939Y130689D01*
X276925Y130663D01*
X276910Y130639D01*
X276895Y130618D01*
X276880Y130602D01*
X276869Y130587D01*
X276858Y130574D01*
X276850Y130567D01*
X276845Y130561D01*
X276843Y130559D01*
X276810Y130533D01*
X276776Y130511D01*
X276738Y130491D01*
X276700Y130474D01*
X276662Y130459D01*
X276621Y130448D01*
X276584Y130437D01*
X276547Y130430D01*
X276512Y130424D01*
X276478Y130418D01*
X276449Y130415D01*
X276423Y130413D01*
X276402D01*
X276386Y130411D01*
X276373D01*
X276304Y130413D01*
X276241Y130420D01*
X276182Y130430D01*
X276154Y130435D01*
X276130Y130441D01*
X276108Y130446D01*
X276088Y130452D01*
X276069Y130457D01*
X276054Y130461D01*
X276043Y130465D01*
X276034Y130468D01*
X276028Y130470D01*
X276026D01*
X275997Y130483D01*
X275965Y130496D01*
X275906Y130530D01*
X275849Y130565D01*
X275823Y130581D01*
X275797Y130598D01*
X275775Y130615D01*
X275754Y130631D01*
X275736Y130644D01*
X275719Y130657D01*
X275706Y130667D01*
X275697Y130674D01*
X275691Y130680D01*
X275689Y130681D01*
X275682Y130633D01*
X275675Y130591D01*
X275664Y130552D01*
X275652Y130517D01*
X275641Y130491D01*
X275638Y130478D01*
X275632Y130468D01*
X275630Y130461D01*
X275627Y130455D01*
X275625Y130454D01*
Y130452D01*
X275297D01*
X275317Y130493D01*
X275336Y130531D01*
X275349Y130568D01*
X275360Y130602D01*
X275369Y130631D01*
X275371Y130644D01*
X275375Y130654D01*
X275377Y130663D01*
Y130668D01*
X275378Y130672D01*
Y130674D01*
X275380Y130685D01*
X275382Y130700D01*
X275384Y130731D01*
X275388Y130768D01*
X275389Y130809D01*
X275391Y130855D01*
X275393Y130902D01*
X275395Y130996D01*
Y131041D01*
Y131085D01*
X275397Y131124D01*
Y131159D01*
Y131189D01*
Y131200D01*
Y131211D01*
Y131218D01*
Y131224D01*
Y131228D01*
Y131229D01*
Y131648D01*
Y131685D01*
Y131720D01*
X275399Y131752D01*
Y131781D01*
X275401Y131807D01*
X275402Y131831D01*
X275404Y131852D01*
Y131870D01*
X275406Y131887D01*
X275408Y131900D01*
X275410Y131913D01*
X275412Y131922D01*
Y131928D01*
X275414Y131933D01*
Y131937D01*
X275427Y131983D01*
X275441Y132026D01*
X275456Y132061D01*
X275473Y132092D01*
X275488Y132118D01*
X275501Y132137D01*
X275504Y132142D01*
X275508Y132148D01*
X275512Y132150D01*
Y132152D01*
X275541Y132183D01*
X275575Y132209D01*
X275612Y132233D01*
X275647Y132253D01*
X275680Y132270D01*
X275693Y132278D01*
X275706Y132283D01*
X275715Y132287D01*
X275723Y132290D01*
X275728Y132292D01*
X275730D01*
X275758Y132302D01*
X275789Y132311D01*
X275852Y132326D01*
X275917Y132335D01*
X275978Y132342D01*
X276006Y132344D01*
X276032Y132346D01*
X276056Y132348D01*
X276076Y132350D01*
X276115D01*
X276202Y132346D01*
D02*
G37*
G36*
X284540Y130452D02*
X284246D01*
X283542Y132309D01*
X283866D01*
X284279Y131176D01*
X284305Y131102D01*
X284318Y131067D01*
X284329Y131033D01*
X284339Y131002D01*
X284348Y130972D01*
X284357Y130946D01*
X284365Y130922D01*
X284372Y130900D01*
X284379Y130880D01*
X284383Y130863D01*
X284389Y130848D01*
X284392Y130837D01*
X284394Y130830D01*
X284396Y130824D01*
Y130822D01*
X284416Y130894D01*
X284437Y130963D01*
X284457Y131026D01*
X284466Y131055D01*
X284476Y131081D01*
X284483Y131107D01*
X284490Y131129D01*
X284498Y131148D01*
X284503Y131165D01*
X284509Y131178D01*
X284511Y131189D01*
X284514Y131194D01*
Y131196D01*
X284913Y132309D01*
X285244D01*
X284540Y130452D01*
D02*
G37*
G36*
X266426Y130450D02*
X266433Y130433D01*
X266439Y130417D01*
X266444Y130404D01*
X266448Y130393D01*
X266452Y130385D01*
X266453Y130380D01*
X266455Y130376D01*
Y130374D01*
X266466Y130341D01*
X266477Y130311D01*
X266489Y130283D01*
X266498Y130259D01*
X266505Y130237D01*
X266513Y130217D01*
X266520Y130200D01*
X266527Y130187D01*
X266533Y130174D01*
X266537Y130165D01*
X266540Y130156D01*
X266544Y130150D01*
X266548Y130141D01*
X266550Y130139D01*
X266566Y130117D01*
X266583Y130096D01*
X266600Y130080D01*
X266616Y130067D01*
X266631Y130056D01*
X266642Y130048D01*
X266650Y130043D01*
X266653Y130041D01*
X266679Y130030D01*
X266705Y130020D01*
X266733Y130015D01*
X266761Y130009D01*
X266783Y130007D01*
X266803Y130006D01*
X266820D01*
X266850Y130007D01*
X266881Y130011D01*
X266911Y130015D01*
X266939Y130020D01*
X266963Y130026D01*
X266983Y130031D01*
X266990Y130033D01*
X266996D01*
X266998Y130035D01*
X267000D01*
X266964Y129739D01*
X266924Y129726D01*
X266887Y129717D01*
X266852Y129709D01*
X266822Y129706D01*
X266798Y129702D01*
X266779Y129700D01*
X266763D01*
X266709Y129704D01*
X266659Y129711D01*
X266615Y129724D01*
X266577Y129737D01*
X266561Y129744D01*
X266546Y129750D01*
X266533Y129757D01*
X266522Y129763D01*
X266514Y129767D01*
X266509Y129770D01*
X266505Y129774D01*
X266503D01*
X266483Y129789D01*
X266465Y129804D01*
X266427Y129841D01*
X266394Y129878D01*
X266366Y129915D01*
X266342Y129948D01*
X266333Y129963D01*
X266326Y129974D01*
X266320Y129985D01*
X266315Y129993D01*
X266311Y129998D01*
Y130000D01*
X266298Y130024D01*
X266285Y130052D01*
X266272Y130081D01*
X266257Y130115D01*
X266227Y130183D01*
X266200Y130254D01*
X266187Y130287D01*
X266174Y130318D01*
X266163Y130346D01*
X266153Y130370D01*
X266146Y130391D01*
X266140Y130407D01*
X266137Y130417D01*
X266135Y130420D01*
X265429Y132309D01*
X265742D01*
X266140Y131226D01*
X266168Y131148D01*
X266192Y131072D01*
X266215Y131002D01*
X266226Y130968D01*
X266235Y130937D01*
X266242Y130909D01*
X266250Y130883D01*
X266257Y130859D01*
X266263Y130841D01*
X266266Y130824D01*
X266270Y130813D01*
X266272Y130805D01*
Y130804D01*
X266294Y130887D01*
X266318Y130967D01*
X266329Y131004D01*
X266340Y131039D01*
X266352Y131072D01*
X266361Y131104D01*
X266372Y131131D01*
X266379Y131157D01*
X266387Y131179D01*
X266394Y131198D01*
X266400Y131213D01*
X266403Y131224D01*
X266407Y131231D01*
Y131233D01*
X266794Y132309D01*
X267129D01*
X266426Y130450D01*
D02*
G37*
G36*
X298208Y130452D02*
X297858D01*
X296854Y133014D01*
X297200D01*
X297893Y131152D01*
X297922Y131074D01*
X297948Y130996D01*
X297959Y130961D01*
X297972Y130926D01*
X297982Y130892D01*
X297993Y130863D01*
X298000Y130835D01*
X298009Y130809D01*
X298015Y130787D01*
X298020Y130767D01*
X298026Y130752D01*
X298030Y130741D01*
X298032Y130733D01*
Y130731D01*
X298052Y130805D01*
X298076Y130880D01*
X298098Y130950D01*
X298109Y130983D01*
X298119Y131015D01*
X298130Y131044D01*
X298139Y131070D01*
X298146Y131094D01*
X298154Y131113D01*
X298159Y131129D01*
X298163Y131142D01*
X298165Y131150D01*
X298167Y131152D01*
X298832Y133014D01*
X299200D01*
X298208Y130452D01*
D02*
G37*
G36*
X289734Y133057D02*
X289795Y133051D01*
X289855Y133044D01*
X289912Y133035D01*
X289966Y133024D01*
X290018Y133009D01*
X290066Y132996D01*
X290110Y132981D01*
X290149Y132966D01*
X290186Y132953D01*
X290218Y132940D01*
X290244Y132927D01*
X290266Y132918D01*
X290281Y132911D01*
X290290Y132905D01*
X290294Y132903D01*
X290345Y132872D01*
X290394Y132839D01*
X290438Y132803D01*
X290481Y132766D01*
X290519Y132729D01*
X290555Y132692D01*
X290588Y132653D01*
X290616Y132618D01*
X290642Y132585D01*
X290666Y132552D01*
X290684Y132524D01*
X290701Y132500D01*
X290712Y132477D01*
X290721Y132463D01*
X290727Y132453D01*
X290729Y132450D01*
X290755Y132392D01*
X290779Y132335D01*
X290799Y132276D01*
X290816Y132216D01*
X290831Y132157D01*
X290843Y132098D01*
X290853Y132042D01*
X290862Y131990D01*
X290868Y131941D01*
X290873Y131894D01*
X290875Y131853D01*
X290879Y131818D01*
Y131791D01*
X290880Y131779D01*
Y131770D01*
Y131763D01*
Y131757D01*
Y131753D01*
Y131752D01*
X290879Y131683D01*
X290875Y131616D01*
X290868Y131552D01*
X290860Y131491D01*
X290849Y131429D01*
X290838Y131374D01*
X290825Y131320D01*
X290812Y131270D01*
X290801Y131226D01*
X290788Y131185D01*
X290777Y131150D01*
X290766Y131120D01*
X290758Y131096D01*
X290751Y131079D01*
X290747Y131068D01*
X290745Y131067D01*
Y131065D01*
X290719Y131007D01*
X290690Y130952D01*
X290658Y130902D01*
X290627Y130854D01*
X290593Y130811D01*
X290560Y130770D01*
X290529Y130735D01*
X290497Y130702D01*
X290468Y130672D01*
X290440Y130648D01*
X290416Y130626D01*
X290394Y130609D01*
X290375Y130596D01*
X290362Y130585D01*
X290355Y130580D01*
X290351Y130578D01*
X290301Y130548D01*
X290247Y130522D01*
X290192Y130500D01*
X290136Y130480D01*
X290081Y130465D01*
X290023Y130450D01*
X289969Y130439D01*
X289916Y130430D01*
X289868Y130424D01*
X289821Y130418D01*
X289781Y130415D01*
X289745Y130411D01*
X289718D01*
X289705Y130409D01*
X289677D01*
X289603Y130411D01*
X289532Y130418D01*
X289466Y130430D01*
X289401Y130443D01*
X289342Y130459D01*
X289286Y130478D01*
X289234Y130498D01*
X289188Y130518D01*
X289145Y130539D01*
X289108Y130559D01*
X289075Y130578D01*
X289049Y130594D01*
X289027Y130607D01*
X289012Y130618D01*
X289003Y130626D01*
X288999Y130628D01*
X288949Y130672D01*
X288903Y130718D01*
X288860Y130768D01*
X288821Y130820D01*
X288786Y130874D01*
X288755Y130926D01*
X288727Y130978D01*
X288703Y131029D01*
X288681Y131078D01*
X288662Y131122D01*
X288647Y131161D01*
X288634Y131196D01*
X288625Y131224D01*
X288621Y131237D01*
X288620Y131246D01*
X288618Y131254D01*
X288616Y131259D01*
X288614Y131263D01*
Y131265D01*
X288953Y131350D01*
X288968Y131291D01*
X288984Y131237D01*
X289003Y131185D01*
X289025Y131139D01*
X289046Y131094D01*
X289070Y131054D01*
X289092Y131018D01*
X289114Y130985D01*
X289134Y130957D01*
X289155Y130931D01*
X289173Y130911D01*
X289190Y130894D01*
X289203Y130880D01*
X289212Y130870D01*
X289220Y130865D01*
X289221Y130863D01*
X289260Y130835D01*
X289299Y130809D01*
X289340Y130787D01*
X289381Y130768D01*
X289421Y130754D01*
X289462Y130741D01*
X289501Y130730D01*
X289538Y130720D01*
X289571Y130713D01*
X289605Y130709D01*
X289632Y130705D01*
X289657Y130702D01*
X289677D01*
X289692Y130700D01*
X289705D01*
X289747Y130702D01*
X289790Y130705D01*
X289831Y130711D01*
X289871Y130718D01*
X289908Y130728D01*
X289945Y130739D01*
X289979Y130748D01*
X290010Y130761D01*
X290038Y130772D01*
X290064Y130781D01*
X290086Y130792D01*
X290105Y130802D01*
X290119Y130809D01*
X290131Y130815D01*
X290138Y130818D01*
X290140Y130820D01*
X290177Y130844D01*
X290210Y130870D01*
X290242Y130898D01*
X290271Y130928D01*
X290297Y130957D01*
X290321Y130989D01*
X290344Y131018D01*
X290364Y131046D01*
X290381Y131074D01*
X290395Y131100D01*
X290408Y131124D01*
X290418Y131144D01*
X290427Y131161D01*
X290432Y131172D01*
X290434Y131181D01*
X290436Y131183D01*
X290453Y131229D01*
X290468Y131278D01*
X290481Y131326D01*
X290490Y131376D01*
X290508Y131470D01*
X290514Y131516D01*
X290519Y131561D01*
X290523Y131600D01*
X290525Y131637D01*
X290527Y131670D01*
X290529Y131698D01*
X290531Y131722D01*
Y131739D01*
Y131750D01*
Y131753D01*
X290529Y131802D01*
X290527Y131848D01*
X290518Y131937D01*
X290512Y131979D01*
X290505Y132020D01*
X290497Y132059D01*
X290490Y132094D01*
X290482Y132128D01*
X290477Y132157D01*
X290469Y132183D01*
X290464Y132205D01*
X290458Y132222D01*
X290455Y132235D01*
X290451Y132244D01*
Y132246D01*
X290434Y132290D01*
X290416Y132331D01*
X290395Y132370D01*
X290373Y132405D01*
X290351Y132440D01*
X290329Y132472D01*
X290305Y132500D01*
X290282Y132526D01*
X290260Y132548D01*
X290240Y132568D01*
X290221Y132585D01*
X290205Y132600D01*
X290192Y132611D01*
X290182Y132620D01*
X290175Y132624D01*
X290173Y132626D01*
X290134Y132652D01*
X290094Y132672D01*
X290053Y132692D01*
X290012Y132709D01*
X289969Y132722D01*
X289929Y132733D01*
X289890Y132742D01*
X289851Y132750D01*
X289816Y132757D01*
X289782Y132761D01*
X289753Y132764D01*
X289727Y132766D01*
X289707Y132768D01*
X289679D01*
X289631Y132766D01*
X289586Y132763D01*
X289544Y132757D01*
X289503Y132748D01*
X289466Y132739D01*
X289431Y132727D01*
X289399Y132716D01*
X289370Y132705D01*
X289344Y132692D01*
X289320Y132681D01*
X289299Y132670D01*
X289283Y132661D01*
X289270Y132652D01*
X289260Y132646D01*
X289255Y132642D01*
X289253Y132640D01*
X289221Y132615D01*
X289192Y132587D01*
X289166Y132555D01*
X289140Y132524D01*
X289116Y132489D01*
X289095Y132455D01*
X289075Y132422D01*
X289058Y132389D01*
X289044Y132357D01*
X289029Y132328D01*
X289018Y132302D01*
X289008Y132279D01*
X289001Y132259D01*
X288996Y132246D01*
X288994Y132237D01*
X288992Y132233D01*
X288659Y132311D01*
X288679Y132376D01*
X288705Y132437D01*
X288731Y132494D01*
X288760Y132548D01*
X288790Y132596D01*
X288820Y132642D01*
X288851Y132683D01*
X288881Y132720D01*
X288910Y132753D01*
X288936Y132781D01*
X288960Y132807D01*
X288983Y132826D01*
X288999Y132842D01*
X289014Y132853D01*
X289021Y132861D01*
X289025Y132863D01*
X289075Y132898D01*
X289127Y132927D01*
X289183Y132953D01*
X289236Y132976D01*
X289290Y132996D01*
X289344Y133011D01*
X289395Y133024D01*
X289445Y133035D01*
X289494Y133042D01*
X289536Y133048D01*
X289573Y133053D01*
X289607Y133055D01*
X289634Y133057D01*
X289645Y133059D01*
X289671D01*
X289734Y133057D01*
D02*
G37*
G36*
X288244Y131157D02*
Y131120D01*
Y131087D01*
X288242Y131055D01*
X288240Y131028D01*
Y131002D01*
X288238Y130978D01*
X288236Y130955D01*
X288234Y130937D01*
X288233Y130918D01*
X288231Y130905D01*
X288229Y130892D01*
Y130883D01*
X288227Y130874D01*
X288225Y130868D01*
Y130867D01*
Y130865D01*
X288212Y130815D01*
X288199Y130770D01*
X288183Y130730D01*
X288166Y130694D01*
X288151Y130667D01*
X288146Y130655D01*
X288140Y130646D01*
X288134Y130639D01*
X288133Y130633D01*
X288129Y130631D01*
Y130630D01*
X288099Y130596D01*
X288068Y130565D01*
X288033Y130539D01*
X287997Y130515D01*
X287966Y130496D01*
X287953Y130489D01*
X287942Y130483D01*
X287931Y130480D01*
X287923Y130476D01*
X287920Y130472D01*
X287918D01*
X287864Y130452D01*
X287810Y130437D01*
X287759Y130426D01*
X287710Y130418D01*
X287690Y130417D01*
X287670Y130415D01*
X287653Y130413D01*
X287638D01*
X287627Y130411D01*
X287610D01*
X287542Y130415D01*
X287479Y130424D01*
X287418Y130441D01*
X287361Y130459D01*
X287309Y130483D01*
X287260Y130511D01*
X287216Y130539D01*
X287177Y130568D01*
X287140Y130596D01*
X287111Y130626D01*
X287083Y130652D01*
X287061Y130676D01*
X287044Y130694D01*
X287031Y130711D01*
X287023Y130720D01*
X287022Y130724D01*
Y130452D01*
X286740D01*
Y132309D01*
X287055D01*
Y131313D01*
Y131270D01*
X287057Y131229D01*
X287061Y131191D01*
X287062Y131155D01*
X287066Y131124D01*
X287072Y131094D01*
X287075Y131067D01*
X287081Y131042D01*
X287086Y131020D01*
X287090Y131002D01*
X287094Y130987D01*
X287099Y130974D01*
X287101Y130963D01*
X287105Y130955D01*
X287107Y130952D01*
Y130950D01*
X287129Y130905D01*
X287157Y130867D01*
X287185Y130833D01*
X287214Y130805D01*
X287240Y130783D01*
X287262Y130767D01*
X287272Y130761D01*
X287277Y130757D01*
X287281Y130754D01*
X287283D01*
X287329Y130730D01*
X287377Y130711D01*
X287422Y130700D01*
X287462Y130691D01*
X287479Y130687D01*
X287496Y130685D01*
X287510Y130683D01*
X287523D01*
X287535Y130681D01*
X287547D01*
X287598Y130685D01*
X287644Y130692D01*
X287685Y130704D01*
X287718Y130717D01*
X287747Y130730D01*
X287759Y130735D01*
X287768Y130741D01*
X287775Y130746D01*
X287781Y130748D01*
X287783Y130752D01*
X287785D01*
X287818Y130780D01*
X287846Y130811D01*
X287866Y130844D01*
X287883Y130876D01*
X287896Y130904D01*
X287901Y130915D01*
X287905Y130926D01*
X287907Y130935D01*
X287909Y130941D01*
X287910Y130944D01*
Y130946D01*
X287914Y130965D01*
X287916Y130985D01*
X287920Y131009D01*
X287922Y131033D01*
X287925Y131089D01*
X287927Y131144D01*
Y131170D01*
Y131196D01*
X287929Y131218D01*
Y131239D01*
Y131254D01*
Y131266D01*
Y131276D01*
Y131278D01*
Y132309D01*
X288244D01*
Y131157D01*
D02*
G37*
G36*
X282572Y132346D02*
X282639Y132339D01*
X282702Y132326D01*
X282763Y132309D01*
X282818Y132290D01*
X282868Y132268D01*
X282917Y132244D01*
X282959Y132220D01*
X282998Y132196D01*
X283031Y132172D01*
X283059Y132152D01*
X283083Y132131D01*
X283104Y132115D01*
X283116Y132102D01*
X283124Y132094D01*
X283128Y132090D01*
X283170Y132040D01*
X283207Y131985D01*
X283239Y131928D01*
X283266Y131868D01*
X283291Y131807D01*
X283309Y131746D01*
X283326Y131687D01*
X283339Y131631D01*
X283348Y131576D01*
X283355Y131526D01*
X283361Y131481D01*
X283365Y131442D01*
X283366Y131424D01*
Y131409D01*
Y131396D01*
X283368Y131385D01*
Y131376D01*
Y131370D01*
Y131366D01*
Y131365D01*
X283366Y131281D01*
X283357Y131204D01*
X283346Y131131D01*
X283331Y131063D01*
X283313Y131000D01*
X283292Y130942D01*
X283272Y130891D01*
X283250Y130842D01*
X283228Y130800D01*
X283205Y130765D01*
X283187Y130733D01*
X283168Y130707D01*
X283154Y130687D01*
X283141Y130672D01*
X283133Y130665D01*
X283131Y130661D01*
X283085Y130617D01*
X283035Y130578D01*
X282983Y130544D01*
X282929Y130517D01*
X282876Y130493D01*
X282822Y130472D01*
X282768Y130455D01*
X282718Y130443D01*
X282670Y130431D01*
X282626Y130424D01*
X282587Y130418D01*
X282552Y130415D01*
X282524Y130413D01*
X282513D01*
X282504Y130411D01*
X282485D01*
X282426Y130413D01*
X282368Y130418D01*
X282315Y130426D01*
X282265Y130435D01*
X282218Y130448D01*
X282174Y130461D01*
X282135Y130476D01*
X282098Y130491D01*
X282065Y130504D01*
X282037Y130518D01*
X282011Y130531D01*
X281991Y130544D01*
X281974Y130554D01*
X281963Y130561D01*
X281955Y130567D01*
X281954Y130568D01*
X281917Y130600D01*
X281881Y130633D01*
X281850Y130668D01*
X281822Y130704D01*
X281796Y130741D01*
X281772Y130778D01*
X281752Y130815D01*
X281733Y130848D01*
X281717Y130881D01*
X281704Y130913D01*
X281693Y130941D01*
X281683Y130965D01*
X281678Y130983D01*
X281672Y130998D01*
X281668Y131007D01*
Y131011D01*
X281993Y131054D01*
X282007Y131017D01*
X282022Y130983D01*
X282037Y130952D01*
X282054Y130922D01*
X282070Y130896D01*
X282085Y130872D01*
X282102Y130852D01*
X282117Y130831D01*
X282131Y130815D01*
X282144Y130800D01*
X282155Y130789D01*
X282167Y130778D01*
X282176Y130770D01*
X282181Y130765D01*
X282185Y130763D01*
X282187Y130761D01*
X282211Y130744D01*
X282235Y130731D01*
X282259Y130718D01*
X282285Y130709D01*
X282335Y130692D01*
X282381Y130681D01*
X282402Y130678D01*
X282422Y130676D01*
X282439Y130674D01*
X282454Y130672D01*
X282467Y130670D01*
X282483D01*
X282526Y130672D01*
X282567Y130678D01*
X282605Y130685D01*
X282642Y130696D01*
X282678Y130707D01*
X282709Y130722D01*
X282739Y130735D01*
X282765Y130752D01*
X282789Y130767D01*
X282811Y130781D01*
X282829Y130794D01*
X282844Y130805D01*
X282855Y130817D01*
X282865Y130824D01*
X282870Y130830D01*
X282872Y130831D01*
X282900Y130863D01*
X282924Y130898D01*
X282946Y130935D01*
X282965Y130974D01*
X282981Y131013D01*
X282994Y131052D01*
X283007Y131089D01*
X283016Y131128D01*
X283024Y131163D01*
X283031Y131194D01*
X283035Y131224D01*
X283039Y131250D01*
X283042Y131270D01*
Y131287D01*
X283044Y131296D01*
Y131300D01*
X281659D01*
Y131320D01*
X281657Y131337D01*
Y131350D01*
Y131363D01*
Y131372D01*
Y131378D01*
Y131381D01*
Y131383D01*
X281659Y131466D01*
X281667Y131546D01*
X281680Y131620D01*
X281694Y131689D01*
X281713Y131752D01*
X281731Y131811D01*
X281754Y131865D01*
X281776Y131913D01*
X281798Y131955D01*
X281818Y131992D01*
X281839Y132024D01*
X281857Y132050D01*
X281872Y132070D01*
X281883Y132085D01*
X281893Y132092D01*
X281894Y132096D01*
X281941Y132140D01*
X281989Y132179D01*
X282037Y132215D01*
X282089Y132242D01*
X282139Y132268D01*
X282191Y132289D01*
X282239Y132305D01*
X282287Y132318D01*
X282331Y132329D01*
X282372Y132337D01*
X282407Y132342D01*
X282441Y132346D01*
X282467Y132348D01*
X282485Y132350D01*
X282502D01*
X282572Y132346D01*
D02*
G37*
G36*
X274204Y132348D02*
X274247Y132344D01*
X274290Y132339D01*
X274330Y132333D01*
X274369Y132324D01*
X274404Y132315D01*
X274440Y132303D01*
X274471Y132294D01*
X274499Y132283D01*
X274525Y132272D01*
X274549Y132263D01*
X274567Y132255D01*
X274582Y132248D01*
X274593Y132242D01*
X274601Y132239D01*
X274603Y132237D01*
X274640Y132215D01*
X274675Y132190D01*
X274706Y132163D01*
X274736Y132137D01*
X274764Y132109D01*
X274788Y132079D01*
X274810Y132052D01*
X274830Y132026D01*
X274849Y132000D01*
X274864Y131976D01*
X274877Y131953D01*
X274888Y131935D01*
X274895Y131920D01*
X274901Y131907D01*
X274904Y131900D01*
X274906Y131898D01*
X274923Y131855D01*
X274938Y131811D01*
X274953Y131766D01*
X274964Y131720D01*
X274980Y131633D01*
X274988Y131591D01*
X274991Y131550D01*
X274997Y131513D01*
X274999Y131479D01*
X275001Y131448D01*
X275003Y131422D01*
X275004Y131402D01*
Y131385D01*
Y131376D01*
Y131372D01*
X275003Y131287D01*
X274995Y131207D01*
X274982Y131133D01*
X274967Y131065D01*
X274951Y131002D01*
X274930Y130942D01*
X274910Y130889D01*
X274888Y130841D01*
X274867Y130800D01*
X274847Y130763D01*
X274827Y130731D01*
X274808Y130705D01*
X274795Y130685D01*
X274782Y130670D01*
X274775Y130663D01*
X274773Y130659D01*
X274728Y130615D01*
X274680Y130578D01*
X274630Y130544D01*
X274580Y130517D01*
X274528Y130493D01*
X274478Y130472D01*
X274428Y130455D01*
X274380Y130443D01*
X274336Y130431D01*
X274293Y130424D01*
X274256Y130418D01*
X274225Y130415D01*
X274199Y130413D01*
X274179Y130411D01*
X274162D01*
X274106Y130413D01*
X274053Y130418D01*
X274001Y130428D01*
X273953Y130439D01*
X273908Y130454D01*
X273866Y130468D01*
X273827Y130483D01*
X273792Y130502D01*
X273758Y130518D01*
X273730Y130533D01*
X273706Y130550D01*
X273686Y130563D01*
X273669Y130574D01*
X273658Y130583D01*
X273651Y130589D01*
X273649Y130591D01*
X273612Y130626D01*
X273577Y130663D01*
X273547Y130704D01*
X273519Y130744D01*
X273495Y130787D01*
X273475Y130828D01*
X273456Y130868D01*
X273440Y130907D01*
X273427Y130946D01*
X273416Y130980D01*
X273406Y131011D01*
X273399Y131037D01*
X273393Y131059D01*
X273390Y131076D01*
X273388Y131087D01*
Y131091D01*
X273697Y131133D01*
X273704Y131091D01*
X273714Y131050D01*
X273723Y131013D01*
X273736Y130980D01*
X273749Y130946D01*
X273762Y130918D01*
X273775Y130892D01*
X273788Y130870D01*
X273801Y130850D01*
X273814Y130831D01*
X273825Y130817D01*
X273834Y130805D01*
X273843Y130796D01*
X273849Y130789D01*
X273853Y130785D01*
X273854Y130783D01*
X273879Y130763D01*
X273903Y130746D01*
X273929Y130731D01*
X273954Y130718D01*
X273980Y130707D01*
X274006Y130698D01*
X274056Y130685D01*
X274079Y130680D01*
X274099Y130676D01*
X274117Y130674D01*
X274132Y130672D01*
X274145Y130670D01*
X274164D01*
X274206Y130672D01*
X274247Y130678D01*
X274284Y130685D01*
X274319Y130696D01*
X274353Y130709D01*
X274384Y130724D01*
X274412Y130739D01*
X274438Y130755D01*
X274460Y130770D01*
X274480Y130785D01*
X274497Y130800D01*
X274512Y130813D01*
X274523Y130824D01*
X274530Y130831D01*
X274536Y130837D01*
X274538Y130839D01*
X274564Y130872D01*
X274584Y130911D01*
X274604Y130952D01*
X274619Y130994D01*
X274634Y131039D01*
X274645Y131085D01*
X274654Y131129D01*
X274662Y131174D01*
X274669Y131215D01*
X274673Y131254D01*
X274677Y131289D01*
X274678Y131320D01*
Y131346D01*
X274680Y131365D01*
Y131372D01*
Y131378D01*
Y131379D01*
Y131381D01*
X274678Y131448D01*
X274675Y131511D01*
X274667Y131568D01*
X274656Y131620D01*
X274645Y131670D01*
X274634Y131715D01*
X274619Y131753D01*
X274606Y131789D01*
X274593Y131820D01*
X274578Y131846D01*
X274567Y131870D01*
X274554Y131889D01*
X274545Y131902D01*
X274538Y131913D01*
X274534Y131918D01*
X274532Y131920D01*
X274503Y131950D01*
X274473Y131976D01*
X274441Y132000D01*
X274410Y132018D01*
X274377Y132035D01*
X274345Y132050D01*
X274314Y132061D01*
X274284Y132070D01*
X274256Y132076D01*
X274230Y132081D01*
X274206Y132085D01*
X274186Y132089D01*
X274169D01*
X274158Y132090D01*
X274147D01*
X274117Y132089D01*
X274090Y132087D01*
X274038Y132076D01*
X273993Y132061D01*
X273954Y132044D01*
X273936Y132035D01*
X273921Y132026D01*
X273908Y132018D01*
X273899Y132011D01*
X273890Y132005D01*
X273884Y132000D01*
X273880Y131998D01*
X273879Y131996D01*
X273858Y131978D01*
X273840Y131957D01*
X273808Y131913D01*
X273780Y131866D01*
X273758Y131820D01*
X273751Y131800D01*
X273743Y131779D01*
X273736Y131763D01*
X273732Y131746D01*
X273729Y131735D01*
X273725Y131724D01*
X273723Y131718D01*
Y131716D01*
X273417Y131763D01*
X273429Y131815D01*
X273443Y131861D01*
X273460Y131907D01*
X273480Y131948D01*
X273499Y131987D01*
X273521Y132022D01*
X273542Y132055D01*
X273562Y132085D01*
X273582Y132111D01*
X273601Y132133D01*
X273619Y132152D01*
X273634Y132168D01*
X273647Y132179D01*
X273656Y132189D01*
X273664Y132194D01*
X273666Y132196D01*
X273703Y132224D01*
X273742Y132246D01*
X273782Y132268D01*
X273823Y132285D01*
X273866Y132300D01*
X273906Y132313D01*
X273945Y132322D01*
X273984Y132331D01*
X274021Y132337D01*
X274054Y132342D01*
X274084Y132344D01*
X274110Y132348D01*
X274130D01*
X274147Y132350D01*
X274160D01*
X274204Y132348D01*
D02*
G37*
G36*
X272427Y132346D02*
X272493Y132339D01*
X272556Y132326D01*
X272618Y132309D01*
X272673Y132290D01*
X272723Y132268D01*
X272771Y132244D01*
X272814Y132220D01*
X272853Y132196D01*
X272886Y132172D01*
X272914Y132152D01*
X272938Y132131D01*
X272958Y132115D01*
X272971Y132102D01*
X272979Y132094D01*
X272982Y132090D01*
X273025Y132040D01*
X273062Y131985D01*
X273093Y131928D01*
X273121Y131868D01*
X273145Y131807D01*
X273164Y131746D01*
X273180Y131687D01*
X273193Y131631D01*
X273203Y131576D01*
X273210Y131526D01*
X273216Y131481D01*
X273219Y131442D01*
X273221Y131424D01*
Y131409D01*
Y131396D01*
X273223Y131385D01*
Y131376D01*
Y131370D01*
Y131366D01*
Y131365D01*
X273221Y131281D01*
X273212Y131204D01*
X273201Y131131D01*
X273186Y131063D01*
X273168Y131000D01*
X273147Y130942D01*
X273127Y130891D01*
X273105Y130842D01*
X273082Y130800D01*
X273060Y130765D01*
X273042Y130733D01*
X273023Y130707D01*
X273008Y130687D01*
X272995Y130672D01*
X272988Y130665D01*
X272986Y130661D01*
X272940Y130617D01*
X272890Y130578D01*
X272838Y130544D01*
X272784Y130517D01*
X272731Y130493D01*
X272677Y130472D01*
X272623Y130455D01*
X272573Y130443D01*
X272525Y130431D01*
X272481Y130424D01*
X272442Y130418D01*
X272406Y130415D01*
X272379Y130413D01*
X272368D01*
X272358Y130411D01*
X272340D01*
X272281Y130413D01*
X272223Y130418D01*
X272169Y130426D01*
X272119Y130435D01*
X272073Y130448D01*
X272029Y130461D01*
X271990Y130476D01*
X271953Y130491D01*
X271919Y130504D01*
X271892Y130518D01*
X271866Y130531D01*
X271845Y130544D01*
X271829Y130554D01*
X271818Y130561D01*
X271810Y130567D01*
X271808Y130568D01*
X271771Y130600D01*
X271736Y130633D01*
X271705Y130668D01*
X271677Y130704D01*
X271651Y130741D01*
X271627Y130778D01*
X271607Y130815D01*
X271588Y130848D01*
X271571Y130881D01*
X271558Y130913D01*
X271547Y130941D01*
X271538Y130965D01*
X271533Y130983D01*
X271527Y130998D01*
X271523Y131007D01*
Y131011D01*
X271847Y131054D01*
X271862Y131017D01*
X271877Y130983D01*
X271892Y130952D01*
X271908Y130922D01*
X271925Y130896D01*
X271940Y130872D01*
X271957Y130852D01*
X271971Y130831D01*
X271986Y130815D01*
X271999Y130800D01*
X272010Y130789D01*
X272021Y130778D01*
X272031Y130770D01*
X272036Y130765D01*
X272040Y130763D01*
X272042Y130761D01*
X272066Y130744D01*
X272090Y130731D01*
X272114Y130718D01*
X272140Y130709D01*
X272190Y130692D01*
X272236Y130681D01*
X272257Y130678D01*
X272277Y130676D01*
X272294Y130674D01*
X272308Y130672D01*
X272321Y130670D01*
X272338D01*
X272381Y130672D01*
X272421Y130678D01*
X272460Y130685D01*
X272497Y130696D01*
X272532Y130707D01*
X272564Y130722D01*
X272594Y130735D01*
X272619Y130752D01*
X272643Y130767D01*
X272666Y130781D01*
X272684Y130794D01*
X272699Y130805D01*
X272710Y130817D01*
X272719Y130824D01*
X272725Y130830D01*
X272727Y130831D01*
X272755Y130863D01*
X272779Y130898D01*
X272801Y130935D01*
X272819Y130974D01*
X272836Y131013D01*
X272849Y131052D01*
X272862Y131089D01*
X272871Y131128D01*
X272879Y131163D01*
X272886Y131194D01*
X272890Y131224D01*
X272893Y131250D01*
X272897Y131270D01*
Y131287D01*
X272899Y131296D01*
Y131300D01*
X271514D01*
Y131320D01*
X271512Y131337D01*
Y131350D01*
Y131363D01*
Y131372D01*
Y131378D01*
Y131381D01*
Y131383D01*
X271514Y131466D01*
X271521Y131546D01*
X271534Y131620D01*
X271549Y131689D01*
X271568Y131752D01*
X271586Y131811D01*
X271608Y131865D01*
X271631Y131913D01*
X271653Y131955D01*
X271673Y131992D01*
X271694Y132024D01*
X271712Y132050D01*
X271727Y132070D01*
X271738Y132085D01*
X271747Y132092D01*
X271749Y132096D01*
X271795Y132140D01*
X271844Y132179D01*
X271892Y132215D01*
X271944Y132242D01*
X271994Y132268D01*
X272045Y132289D01*
X272094Y132305D01*
X272142Y132318D01*
X272186Y132329D01*
X272227Y132337D01*
X272262Y132342D01*
X272295Y132346D01*
X272321Y132348D01*
X272340Y132350D01*
X272356D01*
X272427Y132346D01*
D02*
G37*
G36*
X296563Y130452D02*
X295543D01*
X295499Y130454D01*
X295458Y130455D01*
X295419Y130459D01*
X295384Y130461D01*
X295349Y130465D01*
X295317Y130468D01*
X295289Y130474D01*
X295263Y130478D01*
X295241Y130481D01*
X295221Y130485D01*
X295204Y130487D01*
X295191Y130491D01*
X295182Y130493D01*
X295176Y130494D01*
X295174D01*
X295113Y130513D01*
X295060Y130531D01*
X295012Y130554D01*
X294991Y130563D01*
X294971Y130574D01*
X294954Y130583D01*
X294939Y130592D01*
X294926Y130600D01*
X294915Y130607D01*
X294906Y130613D01*
X294900Y130617D01*
X294897Y130620D01*
X294895D01*
X294854Y130654D01*
X294819Y130692D01*
X294788Y130731D01*
X294760Y130770D01*
X294737Y130804D01*
X294728Y130818D01*
X294721Y130831D01*
X294715Y130842D01*
X294712Y130850D01*
X294708Y130855D01*
Y130857D01*
X294682Y130917D01*
X294663Y130976D01*
X294649Y131033D01*
X294639Y131085D01*
X294636Y131107D01*
X294634Y131129D01*
X294632Y131148D01*
Y131163D01*
X294630Y131176D01*
Y131187D01*
Y131192D01*
Y131194D01*
X294632Y131235D01*
X294636Y131274D01*
X294641Y131313D01*
X294650Y131348D01*
X294660Y131383D01*
X294669Y131415D01*
X294682Y131444D01*
X294693Y131472D01*
X294704Y131496D01*
X294715Y131518D01*
X294726Y131537D01*
X294736Y131552D01*
X294745Y131565D01*
X294750Y131574D01*
X294754Y131579D01*
X294756Y131581D01*
X294780Y131611D01*
X294806Y131639D01*
X294836Y131665D01*
X294863Y131687D01*
X294893Y131709D01*
X294923Y131728D01*
X294952Y131744D01*
X294982Y131759D01*
X295008Y131774D01*
X295034Y131785D01*
X295056Y131794D01*
X295074Y131802D01*
X295091Y131807D01*
X295102Y131811D01*
X295112Y131815D01*
X295113D01*
X295080Y131831D01*
X295050Y131850D01*
X295023Y131868D01*
X294995Y131889D01*
X294971Y131909D01*
X294949Y131928D01*
X294930Y131946D01*
X294912Y131965D01*
X294897Y131981D01*
X294882Y131998D01*
X294871Y132011D01*
X294862Y132024D01*
X294854Y132035D01*
X294849Y132042D01*
X294847Y132046D01*
X294845Y132048D01*
X294828Y132076D01*
X294815Y132103D01*
X294802Y132129D01*
X294793Y132157D01*
X294776Y132209D01*
X294765Y132257D01*
X294762Y132278D01*
X294760Y132298D01*
X294756Y132315D01*
Y132329D01*
X294754Y132340D01*
Y132350D01*
Y132355D01*
Y132357D01*
X294756Y132390D01*
X294758Y132422D01*
X294771Y132485D01*
X294786Y132542D01*
X294795Y132568D01*
X294804Y132594D01*
X294815Y132616D01*
X294825Y132635D01*
X294832Y132653D01*
X294839Y132668D01*
X294847Y132679D01*
X294852Y132689D01*
X294854Y132694D01*
X294856Y132696D01*
X294876Y132726D01*
X294897Y132753D01*
X294919Y132777D01*
X294941Y132802D01*
X294965Y132824D01*
X294987Y132842D01*
X295010Y132861D01*
X295032Y132876D01*
X295052Y132890D01*
X295073Y132902D01*
X295089Y132913D01*
X295104Y132920D01*
X295117Y132927D01*
X295126Y132931D01*
X295132Y132935D01*
X295134D01*
X295167Y132950D01*
X295204Y132961D01*
X295282Y132981D01*
X295360Y132996D01*
X295399Y133000D01*
X295436Y133005D01*
X295469Y133007D01*
X295502Y133011D01*
X295530Y133013D01*
X295556D01*
X295576Y133014D01*
X296563D01*
Y130452D01*
D02*
G37*
G36*
X294441D02*
X294084D01*
X293804Y131228D01*
X292728D01*
X292432Y130452D01*
X292047D01*
X293095Y133014D01*
X293458D01*
X294441Y130452D01*
D02*
G37*
G36*
X285607Y132348D02*
X285644Y132340D01*
X285677Y132329D01*
X285709Y132318D01*
X285733Y132305D01*
X285751Y132296D01*
X285759Y132290D01*
X285764Y132289D01*
X285766Y132285D01*
X285768D01*
X285785Y132272D01*
X285803Y132255D01*
X285820Y132237D01*
X285837Y132218D01*
X285870Y132174D01*
X285901Y132131D01*
X285927Y132090D01*
X285938Y132072D01*
X285948Y132055D01*
X285955Y132042D01*
X285961Y132033D01*
X285964Y132026D01*
X285966Y132024D01*
Y132309D01*
X286249D01*
Y130452D01*
X285935D01*
Y131422D01*
X285933Y131496D01*
X285927Y131565D01*
X285922Y131596D01*
X285918Y131626D01*
X285914Y131654D01*
X285909Y131681D01*
X285903Y131704D01*
X285900Y131726D01*
X285894Y131744D01*
X285890Y131759D01*
X285888Y131772D01*
X285885Y131781D01*
X285883Y131787D01*
Y131789D01*
X285868Y131828D01*
X285850Y131863D01*
X285831Y131892D01*
X285811Y131916D01*
X285794Y131935D01*
X285779Y131950D01*
X285770Y131957D01*
X285766Y131961D01*
X285735Y131981D01*
X285703Y131998D01*
X285672Y132009D01*
X285644Y132016D01*
X285620Y132020D01*
X285600Y132024D01*
X285583D01*
X285540Y132020D01*
X285498Y132013D01*
X285459Y132003D01*
X285426Y131990D01*
X285396Y131978D01*
X285383Y131972D01*
X285374Y131968D01*
X285364Y131963D01*
X285359Y131961D01*
X285355Y131957D01*
X285353D01*
X285242Y132248D01*
X285274Y132266D01*
X285303Y132281D01*
X285333Y132296D01*
X285363Y132307D01*
X285416Y132326D01*
X285442Y132331D01*
X285466Y132337D01*
X285488Y132340D01*
X285507Y132344D01*
X285524Y132346D01*
X285538Y132348D01*
X285550Y132350D01*
X285566D01*
X285607Y132348D01*
D02*
G37*
G36*
X280432Y132713D02*
X279587D01*
Y130452D01*
X279248D01*
Y132713D01*
X278400D01*
Y133014D01*
X280432D01*
Y132713D01*
D02*
G37*
G36*
X277452Y132348D02*
X277489Y132340D01*
X277523Y132329D01*
X277554Y132318D01*
X277578Y132305D01*
X277597Y132296D01*
X277604Y132290D01*
X277610Y132289D01*
X277612Y132285D01*
X277613D01*
X277630Y132272D01*
X277649Y132255D01*
X277665Y132237D01*
X277682Y132218D01*
X277715Y132174D01*
X277747Y132131D01*
X277773Y132090D01*
X277784Y132072D01*
X277793Y132055D01*
X277800Y132042D01*
X277806Y132033D01*
X277810Y132026D01*
X277811Y132024D01*
Y132309D01*
X278095D01*
Y130452D01*
X277780D01*
Y131422D01*
X277778Y131496D01*
X277773Y131565D01*
X277767Y131596D01*
X277763Y131626D01*
X277760Y131654D01*
X277754Y131681D01*
X277749Y131704D01*
X277745Y131726D01*
X277739Y131744D01*
X277736Y131759D01*
X277734Y131772D01*
X277730Y131781D01*
X277728Y131787D01*
Y131789D01*
X277713Y131828D01*
X277695Y131863D01*
X277676Y131892D01*
X277656Y131916D01*
X277639Y131935D01*
X277624Y131950D01*
X277615Y131957D01*
X277612Y131961D01*
X277580Y131981D01*
X277549Y131998D01*
X277517Y132009D01*
X277489Y132016D01*
X277465Y132020D01*
X277445Y132024D01*
X277428D01*
X277386Y132020D01*
X277343Y132013D01*
X277304Y132003D01*
X277271Y131990D01*
X277241Y131978D01*
X277228Y131972D01*
X277219Y131968D01*
X277210Y131963D01*
X277204Y131961D01*
X277200Y131957D01*
X277199D01*
X277087Y132248D01*
X277119Y132266D01*
X277149Y132281D01*
X277178Y132296D01*
X277208Y132307D01*
X277262Y132326D01*
X277287Y132331D01*
X277312Y132337D01*
X277334Y132340D01*
X277352Y132344D01*
X277369Y132346D01*
X277384Y132348D01*
X277395Y132350D01*
X277412D01*
X277452Y132348D01*
D02*
G37*
G36*
X270488D02*
X270525Y132340D01*
X270559Y132329D01*
X270590Y132318D01*
X270614Y132305D01*
X270633Y132296D01*
X270640Y132290D01*
X270646Y132289D01*
X270647Y132285D01*
X270649D01*
X270666Y132272D01*
X270684Y132255D01*
X270701Y132237D01*
X270718Y132218D01*
X270751Y132174D01*
X270783Y132131D01*
X270809Y132090D01*
X270820Y132072D01*
X270829Y132055D01*
X270836Y132042D01*
X270842Y132033D01*
X270846Y132026D01*
X270847Y132024D01*
Y132309D01*
X271131D01*
Y130452D01*
X270816D01*
Y131422D01*
X270814Y131496D01*
X270809Y131565D01*
X270803Y131596D01*
X270799Y131626D01*
X270796Y131654D01*
X270790Y131681D01*
X270784Y131704D01*
X270781Y131726D01*
X270775Y131744D01*
X270771Y131759D01*
X270770Y131772D01*
X270766Y131781D01*
X270764Y131787D01*
Y131789D01*
X270749Y131828D01*
X270731Y131863D01*
X270712Y131892D01*
X270692Y131916D01*
X270675Y131935D01*
X270660Y131950D01*
X270651Y131957D01*
X270647Y131961D01*
X270616Y131981D01*
X270584Y131998D01*
X270553Y132009D01*
X270525Y132016D01*
X270501Y132020D01*
X270481Y132024D01*
X270464D01*
X270422Y132020D01*
X270379Y132013D01*
X270340Y132003D01*
X270307Y131990D01*
X270277Y131978D01*
X270264Y131972D01*
X270255Y131968D01*
X270246Y131963D01*
X270240Y131961D01*
X270236Y131957D01*
X270234D01*
X270123Y132248D01*
X270155Y132266D01*
X270184Y132281D01*
X270214Y132296D01*
X270244Y132307D01*
X270297Y132326D01*
X270323Y132331D01*
X270347Y132337D01*
X270370Y132340D01*
X270388Y132344D01*
X270405Y132346D01*
X270420Y132348D01*
X270431Y132350D01*
X270447D01*
X270488Y132348D01*
D02*
G37*
G36*
X265072Y130452D02*
X264715D01*
Y130809D01*
X265072D01*
Y130452D01*
D02*
G37*
G36*
X273111Y127448D02*
X273156Y127444D01*
X273197Y127439D01*
X273237Y127431D01*
X273274Y127420D01*
X273310Y127411D01*
X273343Y127400D01*
X273373Y127389D01*
X273400Y127376D01*
X273424Y127365D01*
X273445Y127355D01*
X273461Y127346D01*
X273476Y127337D01*
X273485Y127331D01*
X273493Y127328D01*
X273495Y127326D01*
X273528Y127302D01*
X273560Y127276D01*
X273589Y127248D01*
X273615Y127220D01*
X273641Y127190D01*
X273663Y127163D01*
X273684Y127135D01*
X273704Y127107D01*
X273721Y127081D01*
X273734Y127057D01*
X273747Y127035D01*
X273756Y127016D01*
X273765Y127002D01*
X273771Y126989D01*
X273772Y126981D01*
X273774Y126979D01*
X273791Y126937D01*
X273806Y126894D01*
X273819Y126852D01*
X273828Y126809D01*
X273847Y126726D01*
X273852Y126687D01*
X273858Y126650D01*
X273861Y126616D01*
X273863Y126585D01*
X273865Y126557D01*
X273867Y126533D01*
X273869Y126515D01*
Y126500D01*
Y126492D01*
Y126489D01*
X273867Y126418D01*
X273860Y126350D01*
X273850Y126285D01*
X273835Y126224D01*
X273821Y126165D01*
X273802Y126111D01*
X273784Y126059D01*
X273763Y126015D01*
X273745Y125972D01*
X273726Y125935D01*
X273708Y125904D01*
X273693Y125878D01*
X273678Y125855D01*
X273669Y125841D01*
X273661Y125831D01*
X273660Y125828D01*
X273619Y125780D01*
X273574Y125737D01*
X273526Y125700D01*
X273478Y125668D01*
X273430Y125641D01*
X273380Y125618D01*
X273332Y125602D01*
X273285Y125587D01*
X273241Y125576D01*
X273198Y125567D01*
X273161Y125561D01*
X273130Y125555D01*
X273104Y125554D01*
X273084Y125552D01*
X273067D01*
X273011Y125555D01*
X272956Y125563D01*
X272906Y125574D01*
X272858Y125591D01*
X272811Y125607D01*
X272769Y125628D01*
X272730Y125650D01*
X272695Y125674D01*
X272663Y125696D01*
X272636Y125718D01*
X272612Y125739D01*
X272591Y125757D01*
X272574Y125772D01*
X272563Y125783D01*
X272556Y125792D01*
X272554Y125794D01*
Y125739D01*
Y125689D01*
X272556Y125644D01*
Y125604D01*
X272558Y125567D01*
X272560Y125533D01*
X272561Y125504D01*
X272565Y125480D01*
X272567Y125457D01*
X272569Y125439D01*
X272571Y125424D01*
X272573Y125413D01*
X272574Y125404D01*
Y125398D01*
X272576Y125394D01*
Y125393D01*
X272595Y125337D01*
X272619Y125289D01*
X272647Y125248D01*
X272673Y125213D01*
X272686Y125198D01*
X272699Y125185D01*
X272708Y125174D01*
X272719Y125167D01*
X272726Y125159D01*
X272732Y125154D01*
X272736Y125152D01*
X272737Y125150D01*
X272761Y125135D01*
X272786Y125120D01*
X272839Y125098D01*
X272897Y125083D01*
X272950Y125072D01*
X272976Y125068D01*
X272999Y125067D01*
X273021Y125063D01*
X273039D01*
X273054Y125061D01*
X273074D01*
X273111Y125063D01*
X273147Y125065D01*
X273180Y125068D01*
X273210Y125076D01*
X273239Y125081D01*
X273265Y125089D01*
X273289Y125098D01*
X273311Y125106D01*
X273330Y125115D01*
X273347Y125122D01*
X273361Y125130D01*
X273373Y125137D01*
X273382Y125143D01*
X273389Y125146D01*
X273393Y125148D01*
X273395Y125150D01*
X273424Y125178D01*
X273448Y125209D01*
X273467Y125243D01*
X273480Y125276D01*
X273489Y125306D01*
X273493Y125318D01*
X273497Y125331D01*
X273498Y125341D01*
Y125348D01*
X273500Y125352D01*
Y125354D01*
X273806Y125400D01*
X273804Y125346D01*
X273800Y125294D01*
X273791Y125246D01*
X273778Y125204D01*
X273763Y125163D01*
X273747Y125126D01*
X273730Y125093D01*
X273710Y125063D01*
X273691Y125037D01*
X273674Y125013D01*
X273656Y124994D01*
X273641Y124978D01*
X273628Y124967D01*
X273619Y124957D01*
X273611Y124952D01*
X273610Y124950D01*
X273569Y124924D01*
X273528Y124900D01*
X273484Y124880D01*
X273439Y124863D01*
X273395Y124848D01*
X273348Y124837D01*
X273306Y124826D01*
X273263Y124819D01*
X273224Y124813D01*
X273187Y124807D01*
X273156Y124806D01*
X273128Y124802D01*
X273104D01*
X273087Y124800D01*
X273073D01*
X273021Y124802D01*
X272973Y124804D01*
X272924Y124809D01*
X272882Y124817D01*
X272839Y124824D01*
X272800Y124833D01*
X272765Y124843D01*
X272732Y124854D01*
X272704Y124863D01*
X272678Y124872D01*
X272654Y124881D01*
X272636Y124889D01*
X272621Y124896D01*
X272612Y124902D01*
X272604Y124904D01*
X272602Y124906D01*
X272567Y124926D01*
X272536Y124948D01*
X272506Y124972D01*
X272478Y124994D01*
X272452Y125019D01*
X272430Y125043D01*
X272410Y125067D01*
X272391Y125089D01*
X272374Y125109D01*
X272362Y125130D01*
X272349Y125148D01*
X272339Y125163D01*
X272332Y125176D01*
X272326Y125185D01*
X272324Y125191D01*
X272323Y125193D01*
X272308Y125230D01*
X272293Y125270D01*
X272282Y125317D01*
X272271Y125365D01*
X272263Y125415D01*
X272256Y125465D01*
X272250Y125517D01*
X272245Y125565D01*
X272241Y125613D01*
X272237Y125657D01*
X272236Y125698D01*
Y125733D01*
X272234Y125763D01*
Y125774D01*
Y125785D01*
Y125792D01*
Y125798D01*
Y125802D01*
Y125804D01*
Y127409D01*
X272524D01*
Y127185D01*
X272565Y127231D01*
X272610Y127272D01*
X272654Y127307D01*
X272699Y127339D01*
X272745Y127365D01*
X272789Y127385D01*
X272834Y127403D01*
X272876Y127416D01*
X272915Y127428D01*
X272952Y127435D01*
X272984Y127442D01*
X273011Y127446D01*
X273036Y127448D01*
X273052Y127450D01*
X273067D01*
X273111Y127448D01*
D02*
G37*
G36*
X291156Y127446D02*
X291197Y127444D01*
X291236Y127439D01*
X291273Y127435D01*
X291308Y127429D01*
X291341Y127422D01*
X291371Y127416D01*
X291397Y127411D01*
X291421Y127403D01*
X291441Y127398D01*
X291460Y127394D01*
X291473Y127389D01*
X291484Y127387D01*
X291489Y127383D01*
X291491D01*
X291524Y127370D01*
X291556Y127357D01*
X291584Y127342D01*
X291611Y127326D01*
X291635Y127311D01*
X291658Y127296D01*
X291680Y127279D01*
X291698Y127265D01*
X291715Y127252D01*
X291728Y127239D01*
X291741Y127226D01*
X291750Y127216D01*
X291760Y127207D01*
X291765Y127202D01*
X291767Y127198D01*
X291769Y127196D01*
X291802Y127148D01*
X291830Y127094D01*
X291854Y127042D01*
X291872Y126991D01*
X291882Y126968D01*
X291887Y126946D01*
X291893Y126928D01*
X291898Y126911D01*
X291902Y126896D01*
X291904Y126887D01*
X291906Y126879D01*
Y126878D01*
X291598Y126835D01*
X291589Y126870D01*
X291578Y126903D01*
X291565Y126933D01*
X291552Y126961D01*
X291541Y126985D01*
X291528Y127007D01*
X291515Y127028D01*
X291502Y127046D01*
X291489Y127061D01*
X291478Y127074D01*
X291469Y127085D01*
X291460Y127094D01*
X291452Y127100D01*
X291447Y127105D01*
X291445Y127109D01*
X291443D01*
X291423Y127124D01*
X291398Y127135D01*
X291347Y127155D01*
X291293Y127170D01*
X291239Y127179D01*
X291215Y127181D01*
X291191Y127185D01*
X291171Y127187D01*
X291152D01*
X291135Y127189D01*
X291115D01*
X291073Y127187D01*
X291032Y127185D01*
X290995Y127179D01*
X290960Y127172D01*
X290926Y127165D01*
X290898Y127155D01*
X290871Y127144D01*
X290847Y127135D01*
X290826Y127126D01*
X290808Y127115D01*
X290793Y127105D01*
X290780Y127098D01*
X290771Y127091D01*
X290763Y127087D01*
X290760Y127083D01*
X290758Y127081D01*
X290741Y127065D01*
X290728Y127048D01*
X290715Y127028D01*
X290706Y127007D01*
X290689Y126961D01*
X290678Y126916D01*
X290673Y126876D01*
X290669Y126857D01*
Y126842D01*
X290667Y126829D01*
Y126820D01*
Y126813D01*
Y126811D01*
Y126802D01*
Y126791D01*
Y126763D01*
X290669Y126750D01*
Y126741D01*
Y126733D01*
Y126729D01*
X290706Y126718D01*
X290745Y126707D01*
X290787Y126696D01*
X290834Y126685D01*
X290926Y126666D01*
X290973Y126659D01*
X291017Y126652D01*
X291060Y126644D01*
X291100Y126639D01*
X291135Y126633D01*
X291167Y126628D01*
X291193Y126626D01*
X291213Y126622D01*
X291221D01*
X291226Y126620D01*
X291230D01*
X291263Y126616D01*
X291295Y126613D01*
X291324Y126607D01*
X291352Y126604D01*
X291378Y126600D01*
X291400Y126596D01*
X291421Y126592D01*
X291439Y126589D01*
X291456Y126585D01*
X291471Y126583D01*
X291482Y126579D01*
X291493Y126578D01*
X291500Y126576D01*
X291506D01*
X291508Y126574D01*
X291510D01*
X291556Y126559D01*
X291598Y126542D01*
X291637Y126526D01*
X291671Y126509D01*
X291698Y126494D01*
X291710Y126487D01*
X291719Y126481D01*
X291726Y126478D01*
X291732Y126474D01*
X291735Y126470D01*
X291737D01*
X291772Y126442D01*
X291804Y126413D01*
X291832Y126383D01*
X291856Y126354D01*
X291874Y126328D01*
X291887Y126307D01*
X291893Y126300D01*
X291895Y126294D01*
X291898Y126291D01*
Y126289D01*
X291919Y126246D01*
X291934Y126204D01*
X291945Y126161D01*
X291952Y126124D01*
X291956Y126091D01*
X291958Y126076D01*
Y126065D01*
X291960Y126054D01*
Y126046D01*
Y126042D01*
Y126041D01*
X291958Y125998D01*
X291952Y125957D01*
X291945Y125920D01*
X291934Y125883D01*
X291922Y125850D01*
X291908Y125818D01*
X291893Y125789D01*
X291878Y125763D01*
X291863Y125739D01*
X291848Y125718D01*
X291834Y125702D01*
X291822Y125687D01*
X291811Y125674D01*
X291804Y125667D01*
X291798Y125661D01*
X291797Y125659D01*
X291763Y125633D01*
X291730Y125611D01*
X291691Y125591D01*
X291654Y125574D01*
X291615Y125559D01*
X291574Y125548D01*
X291537Y125537D01*
X291500Y125530D01*
X291465Y125524D01*
X291432Y125518D01*
X291402Y125515D01*
X291376Y125513D01*
X291356D01*
X291339Y125511D01*
X291326D01*
X291258Y125513D01*
X291195Y125520D01*
X291135Y125530D01*
X291108Y125535D01*
X291084Y125541D01*
X291061Y125546D01*
X291041Y125552D01*
X291023Y125557D01*
X291008Y125561D01*
X290997Y125565D01*
X290987Y125568D01*
X290982Y125570D01*
X290980D01*
X290950Y125583D01*
X290919Y125596D01*
X290860Y125630D01*
X290802Y125665D01*
X290776Y125681D01*
X290750Y125698D01*
X290728Y125715D01*
X290708Y125731D01*
X290689Y125744D01*
X290673Y125757D01*
X290660Y125767D01*
X290650Y125774D01*
X290645Y125780D01*
X290643Y125781D01*
X290636Y125733D01*
X290628Y125691D01*
X290617Y125652D01*
X290606Y125617D01*
X290595Y125591D01*
X290591Y125578D01*
X290586Y125568D01*
X290584Y125561D01*
X290580Y125555D01*
X290578Y125554D01*
Y125552D01*
X290250D01*
X290271Y125593D01*
X290289Y125631D01*
X290302Y125668D01*
X290313Y125702D01*
X290323Y125731D01*
X290324Y125744D01*
X290328Y125754D01*
X290330Y125763D01*
Y125768D01*
X290332Y125772D01*
Y125774D01*
X290334Y125785D01*
X290336Y125800D01*
X290337Y125831D01*
X290341Y125868D01*
X290343Y125909D01*
X290345Y125955D01*
X290347Y126002D01*
X290349Y126096D01*
Y126141D01*
Y126185D01*
X290350Y126224D01*
Y126259D01*
Y126289D01*
Y126300D01*
Y126311D01*
Y126318D01*
Y126324D01*
Y126328D01*
Y126329D01*
Y126748D01*
Y126785D01*
Y126820D01*
X290352Y126852D01*
Y126881D01*
X290354Y126907D01*
X290356Y126931D01*
X290358Y126952D01*
Y126970D01*
X290360Y126987D01*
X290362Y127000D01*
X290363Y127013D01*
X290365Y127022D01*
Y127028D01*
X290367Y127033D01*
Y127037D01*
X290380Y127083D01*
X290395Y127126D01*
X290410Y127161D01*
X290426Y127192D01*
X290441Y127218D01*
X290454Y127237D01*
X290458Y127242D01*
X290461Y127248D01*
X290465Y127250D01*
Y127252D01*
X290495Y127283D01*
X290528Y127309D01*
X290565Y127333D01*
X290600Y127353D01*
X290634Y127370D01*
X290647Y127378D01*
X290660Y127383D01*
X290669Y127387D01*
X290676Y127390D01*
X290682Y127392D01*
X290684D01*
X290711Y127402D01*
X290743Y127411D01*
X290806Y127426D01*
X290871Y127435D01*
X290932Y127442D01*
X290960Y127444D01*
X290986Y127446D01*
X291010Y127448D01*
X291030Y127450D01*
X291069D01*
X291156Y127446D01*
D02*
G37*
G36*
X285314Y125552D02*
X284964D01*
X283960Y128114D01*
X284307D01*
X284999Y126252D01*
X285029Y126174D01*
X285055Y126096D01*
X285066Y126061D01*
X285079Y126026D01*
X285088Y125992D01*
X285099Y125963D01*
X285107Y125935D01*
X285116Y125909D01*
X285121Y125887D01*
X285127Y125867D01*
X285132Y125852D01*
X285136Y125841D01*
X285138Y125833D01*
Y125831D01*
X285158Y125905D01*
X285182Y125980D01*
X285205Y126050D01*
X285216Y126083D01*
X285225Y126115D01*
X285236Y126144D01*
X285245Y126170D01*
X285253Y126194D01*
X285260Y126213D01*
X285266Y126229D01*
X285269Y126242D01*
X285271Y126250D01*
X285273Y126252D01*
X285938Y128114D01*
X286306D01*
X285314Y125552D01*
D02*
G37*
G36*
X278665Y127868D02*
Y127409D01*
X278898D01*
Y127165D01*
X278665D01*
Y126094D01*
Y126044D01*
X278663Y125996D01*
X278661Y125955D01*
X278659Y125917D01*
X278655Y125883D01*
X278653Y125852D01*
X278650Y125826D01*
X278646Y125802D01*
X278642Y125781D01*
X278639Y125765D01*
X278637Y125752D01*
X278633Y125741D01*
X278631Y125731D01*
X278629Y125726D01*
X278628Y125724D01*
Y125722D01*
X278611Y125691D01*
X278591Y125663D01*
X278568Y125639D01*
X278546Y125618D01*
X278526Y125604D01*
X278509Y125591D01*
X278498Y125583D01*
X278496Y125581D01*
X278494D01*
X278455Y125563D01*
X278413Y125550D01*
X278368Y125541D01*
X278326Y125535D01*
X278289Y125531D01*
X278272Y125530D01*
X278257Y125528D01*
X278229D01*
X278189Y125530D01*
X278148Y125531D01*
X278107Y125537D01*
X278070Y125543D01*
X278039Y125546D01*
X278024Y125550D01*
X278013Y125552D01*
X278004Y125554D01*
X277996D01*
X277992Y125555D01*
X277991D01*
X278037Y125833D01*
X278066Y125830D01*
X278094Y125828D01*
X278118Y125824D01*
X278137D01*
X278154Y125822D01*
X278174D01*
X278198Y125824D01*
X278220Y125826D01*
X278239Y125830D01*
X278254Y125833D01*
X278266Y125837D01*
X278274Y125841D01*
X278279Y125844D01*
X278281D01*
X278294Y125854D01*
X278305Y125863D01*
X278322Y125883D01*
X278328Y125892D01*
X278331Y125900D01*
X278335Y125904D01*
Y125905D01*
X278337Y125915D01*
X278341Y125924D01*
X278344Y125948D01*
X278346Y125978D01*
X278348Y126005D01*
X278350Y126033D01*
Y126055D01*
Y126065D01*
Y126072D01*
Y126076D01*
Y126078D01*
Y127165D01*
X278037D01*
Y127409D01*
X278350D01*
Y128057D01*
X278665Y127868D01*
D02*
G37*
G36*
X289869Y126257D02*
Y126220D01*
Y126187D01*
X289867Y126155D01*
X289865Y126128D01*
Y126102D01*
X289863Y126078D01*
X289862Y126055D01*
X289860Y126037D01*
X289858Y126018D01*
X289856Y126005D01*
X289854Y125992D01*
Y125983D01*
X289852Y125974D01*
X289850Y125968D01*
Y125967D01*
Y125965D01*
X289837Y125915D01*
X289825Y125870D01*
X289808Y125830D01*
X289791Y125794D01*
X289776Y125767D01*
X289771Y125755D01*
X289765Y125746D01*
X289760Y125739D01*
X289758Y125733D01*
X289754Y125731D01*
Y125730D01*
X289725Y125696D01*
X289693Y125665D01*
X289658Y125639D01*
X289623Y125615D01*
X289591Y125596D01*
X289578Y125589D01*
X289567Y125583D01*
X289556Y125580D01*
X289549Y125576D01*
X289545Y125572D01*
X289543D01*
X289489Y125552D01*
X289436Y125537D01*
X289384Y125526D01*
X289336Y125518D01*
X289315Y125517D01*
X289295Y125515D01*
X289278Y125513D01*
X289263D01*
X289252Y125511D01*
X289236D01*
X289167Y125515D01*
X289104Y125524D01*
X289043Y125541D01*
X288986Y125559D01*
X288934Y125583D01*
X288886Y125611D01*
X288841Y125639D01*
X288802Y125668D01*
X288765Y125696D01*
X288736Y125726D01*
X288708Y125752D01*
X288686Y125776D01*
X288669Y125794D01*
X288656Y125811D01*
X288649Y125820D01*
X288647Y125824D01*
Y125552D01*
X288365D01*
Y127409D01*
X288680D01*
Y126413D01*
Y126370D01*
X288682Y126329D01*
X288686Y126291D01*
X288688Y126255D01*
X288691Y126224D01*
X288697Y126194D01*
X288701Y126167D01*
X288706Y126142D01*
X288712Y126120D01*
X288715Y126102D01*
X288719Y126087D01*
X288725Y126074D01*
X288727Y126063D01*
X288730Y126055D01*
X288732Y126052D01*
Y126050D01*
X288754Y126005D01*
X288782Y125967D01*
X288810Y125933D01*
X288839Y125905D01*
X288865Y125883D01*
X288888Y125867D01*
X288897Y125861D01*
X288902Y125857D01*
X288906Y125854D01*
X288908D01*
X288954Y125830D01*
X289002Y125811D01*
X289047Y125800D01*
X289088Y125791D01*
X289104Y125787D01*
X289121Y125785D01*
X289136Y125783D01*
X289149D01*
X289160Y125781D01*
X289173D01*
X289223Y125785D01*
X289269Y125792D01*
X289310Y125804D01*
X289343Y125817D01*
X289373Y125830D01*
X289384Y125835D01*
X289393Y125841D01*
X289401Y125846D01*
X289406Y125848D01*
X289408Y125852D01*
X289410D01*
X289443Y125880D01*
X289471Y125911D01*
X289491Y125944D01*
X289508Y125976D01*
X289521Y126004D01*
X289526Y126015D01*
X289530Y126026D01*
X289532Y126035D01*
X289534Y126041D01*
X289536Y126044D01*
Y126046D01*
X289539Y126065D01*
X289541Y126085D01*
X289545Y126109D01*
X289547Y126133D01*
X289550Y126189D01*
X289552Y126244D01*
Y126270D01*
Y126296D01*
X289554Y126318D01*
Y126339D01*
Y126354D01*
Y126367D01*
Y126376D01*
Y126378D01*
Y127409D01*
X289869D01*
Y126257D01*
D02*
G37*
G36*
X283005Y127446D02*
X283072Y127439D01*
X283134Y127426D01*
X283196Y127409D01*
X283251Y127390D01*
X283301Y127368D01*
X283349Y127344D01*
X283392Y127320D01*
X283431Y127296D01*
X283464Y127272D01*
X283492Y127252D01*
X283516Y127231D01*
X283536Y127215D01*
X283549Y127202D01*
X283557Y127194D01*
X283560Y127190D01*
X283603Y127141D01*
X283640Y127085D01*
X283671Y127028D01*
X283699Y126968D01*
X283723Y126907D01*
X283742Y126846D01*
X283758Y126787D01*
X283771Y126731D01*
X283781Y126676D01*
X283788Y126626D01*
X283794Y126581D01*
X283797Y126542D01*
X283799Y126524D01*
Y126509D01*
Y126496D01*
X283801Y126485D01*
Y126476D01*
Y126470D01*
Y126466D01*
Y126465D01*
X283799Y126381D01*
X283790Y126304D01*
X283779Y126231D01*
X283764Y126163D01*
X283746Y126100D01*
X283725Y126042D01*
X283705Y125991D01*
X283683Y125942D01*
X283660Y125900D01*
X283638Y125865D01*
X283620Y125833D01*
X283601Y125807D01*
X283586Y125787D01*
X283573Y125772D01*
X283566Y125765D01*
X283564Y125761D01*
X283518Y125717D01*
X283468Y125678D01*
X283416Y125644D01*
X283362Y125617D01*
X283309Y125593D01*
X283255Y125572D01*
X283201Y125555D01*
X283151Y125543D01*
X283103Y125531D01*
X283059Y125524D01*
X283020Y125518D01*
X282984Y125515D01*
X282957Y125513D01*
X282946D01*
X282936Y125511D01*
X282918D01*
X282859Y125513D01*
X282801Y125518D01*
X282747Y125526D01*
X282697Y125535D01*
X282651Y125548D01*
X282607Y125561D01*
X282568Y125576D01*
X282531Y125591D01*
X282497Y125604D01*
X282470Y125618D01*
X282444Y125631D01*
X282423Y125644D01*
X282407Y125654D01*
X282396Y125661D01*
X282388Y125667D01*
X282386Y125668D01*
X282349Y125700D01*
X282314Y125733D01*
X282283Y125768D01*
X282255Y125804D01*
X282229Y125841D01*
X282205Y125878D01*
X282185Y125915D01*
X282166Y125948D01*
X282149Y125981D01*
X282136Y126013D01*
X282125Y126041D01*
X282116Y126065D01*
X282111Y126083D01*
X282105Y126098D01*
X282101Y126107D01*
Y126111D01*
X282425Y126154D01*
X282440Y126117D01*
X282455Y126083D01*
X282470Y126052D01*
X282486Y126022D01*
X282503Y125996D01*
X282518Y125972D01*
X282535Y125952D01*
X282549Y125931D01*
X282564Y125915D01*
X282577Y125900D01*
X282588Y125889D01*
X282599Y125878D01*
X282609Y125870D01*
X282614Y125865D01*
X282618Y125863D01*
X282620Y125861D01*
X282644Y125844D01*
X282668Y125831D01*
X282692Y125818D01*
X282718Y125809D01*
X282768Y125792D01*
X282814Y125781D01*
X282835Y125778D01*
X282855Y125776D01*
X282872Y125774D01*
X282886Y125772D01*
X282899Y125770D01*
X282916D01*
X282959Y125772D01*
X282999Y125778D01*
X283038Y125785D01*
X283075Y125796D01*
X283110Y125807D01*
X283142Y125822D01*
X283172Y125835D01*
X283197Y125852D01*
X283221Y125867D01*
X283244Y125881D01*
X283262Y125894D01*
X283277Y125905D01*
X283288Y125917D01*
X283297Y125924D01*
X283303Y125930D01*
X283305Y125931D01*
X283333Y125963D01*
X283357Y125998D01*
X283379Y126035D01*
X283397Y126074D01*
X283414Y126113D01*
X283427Y126152D01*
X283440Y126189D01*
X283449Y126228D01*
X283457Y126263D01*
X283464Y126294D01*
X283468Y126324D01*
X283471Y126350D01*
X283475Y126370D01*
Y126387D01*
X283477Y126396D01*
Y126400D01*
X282092D01*
Y126420D01*
X282090Y126437D01*
Y126450D01*
Y126463D01*
Y126472D01*
Y126478D01*
Y126481D01*
Y126483D01*
X282092Y126566D01*
X282099Y126646D01*
X282112Y126720D01*
X282127Y126789D01*
X282146Y126852D01*
X282164Y126911D01*
X282186Y126965D01*
X282209Y127013D01*
X282231Y127055D01*
X282251Y127092D01*
X282272Y127124D01*
X282290Y127150D01*
X282305Y127170D01*
X282316Y127185D01*
X282325Y127192D01*
X282327Y127196D01*
X282373Y127240D01*
X282422Y127279D01*
X282470Y127315D01*
X282522Y127342D01*
X282572Y127368D01*
X282623Y127389D01*
X282672Y127405D01*
X282720Y127418D01*
X282764Y127429D01*
X282805Y127437D01*
X282840Y127442D01*
X282873Y127446D01*
X282899Y127448D01*
X282918Y127450D01*
X282935D01*
X283005Y127446D01*
D02*
G37*
G36*
X277037D02*
X277104Y127439D01*
X277167Y127426D01*
X277228Y127409D01*
X277283Y127390D01*
X277333Y127368D01*
X277381Y127344D01*
X277424Y127320D01*
X277463Y127296D01*
X277496Y127272D01*
X277524Y127252D01*
X277548Y127231D01*
X277568Y127215D01*
X277581Y127202D01*
X277589Y127194D01*
X277592Y127190D01*
X277635Y127141D01*
X277672Y127085D01*
X277704Y127028D01*
X277731Y126968D01*
X277755Y126907D01*
X277774Y126846D01*
X277791Y126787D01*
X277804Y126731D01*
X277813Y126676D01*
X277820Y126626D01*
X277826Y126581D01*
X277829Y126542D01*
X277831Y126524D01*
Y126509D01*
Y126496D01*
X277833Y126485D01*
Y126476D01*
Y126470D01*
Y126466D01*
Y126465D01*
X277831Y126381D01*
X277822Y126304D01*
X277811Y126231D01*
X277796Y126163D01*
X277778Y126100D01*
X277757Y126042D01*
X277737Y125991D01*
X277715Y125942D01*
X277692Y125900D01*
X277670Y125865D01*
X277652Y125833D01*
X277633Y125807D01*
X277618Y125787D01*
X277605Y125772D01*
X277598Y125765D01*
X277596Y125761D01*
X277550Y125717D01*
X277500Y125678D01*
X277448Y125644D01*
X277394Y125617D01*
X277341Y125593D01*
X277287Y125572D01*
X277233Y125555D01*
X277183Y125543D01*
X277135Y125531D01*
X277091Y125524D01*
X277052Y125518D01*
X277017Y125515D01*
X276989Y125513D01*
X276978D01*
X276968Y125511D01*
X276950D01*
X276891Y125513D01*
X276833Y125518D01*
X276780Y125526D01*
X276730Y125535D01*
X276683Y125548D01*
X276639Y125561D01*
X276600Y125576D01*
X276563Y125591D01*
X276530Y125604D01*
X276502Y125618D01*
X276476Y125631D01*
X276456Y125644D01*
X276439Y125654D01*
X276428Y125661D01*
X276420Y125667D01*
X276419Y125668D01*
X276381Y125700D01*
X276346Y125733D01*
X276315Y125768D01*
X276287Y125804D01*
X276261Y125841D01*
X276237Y125878D01*
X276217Y125915D01*
X276198Y125948D01*
X276181Y125981D01*
X276169Y126013D01*
X276157Y126041D01*
X276148Y126065D01*
X276143Y126083D01*
X276137Y126098D01*
X276133Y126107D01*
Y126111D01*
X276457Y126154D01*
X276472Y126117D01*
X276487Y126083D01*
X276502Y126052D01*
X276518Y126022D01*
X276535Y125996D01*
X276550Y125972D01*
X276567Y125952D01*
X276581Y125931D01*
X276596Y125915D01*
X276609Y125900D01*
X276620Y125889D01*
X276631Y125878D01*
X276641Y125870D01*
X276646Y125865D01*
X276650Y125863D01*
X276652Y125861D01*
X276676Y125844D01*
X276700Y125831D01*
X276724Y125818D01*
X276750Y125809D01*
X276800Y125792D01*
X276846Y125781D01*
X276867Y125778D01*
X276887Y125776D01*
X276904Y125774D01*
X276918Y125772D01*
X276931Y125770D01*
X276948D01*
X276991Y125772D01*
X277031Y125778D01*
X277070Y125785D01*
X277107Y125796D01*
X277143Y125807D01*
X277174Y125822D01*
X277204Y125835D01*
X277230Y125852D01*
X277254Y125867D01*
X277276Y125881D01*
X277294Y125894D01*
X277309Y125905D01*
X277320Y125917D01*
X277330Y125924D01*
X277335Y125930D01*
X277337Y125931D01*
X277365Y125963D01*
X277389Y125998D01*
X277411Y126035D01*
X277430Y126074D01*
X277446Y126113D01*
X277459Y126152D01*
X277472Y126189D01*
X277481Y126228D01*
X277489Y126263D01*
X277496Y126294D01*
X277500Y126324D01*
X277504Y126350D01*
X277507Y126370D01*
Y126387D01*
X277509Y126396D01*
Y126400D01*
X276124D01*
Y126420D01*
X276122Y126437D01*
Y126450D01*
Y126463D01*
Y126472D01*
Y126478D01*
Y126481D01*
Y126483D01*
X276124Y126566D01*
X276132Y126646D01*
X276144Y126720D01*
X276159Y126789D01*
X276178Y126852D01*
X276196Y126911D01*
X276219Y126965D01*
X276241Y127013D01*
X276263Y127055D01*
X276283Y127092D01*
X276304Y127124D01*
X276322Y127150D01*
X276337Y127170D01*
X276348Y127185D01*
X276357Y127192D01*
X276359Y127196D01*
X276406Y127240D01*
X276454Y127279D01*
X276502Y127315D01*
X276554Y127342D01*
X276604Y127368D01*
X276656Y127389D01*
X276704Y127405D01*
X276752Y127418D01*
X276796Y127429D01*
X276837Y127437D01*
X276872Y127442D01*
X276905Y127446D01*
X276931Y127448D01*
X276950Y127450D01*
X276967D01*
X277037Y127446D01*
D02*
G37*
G36*
X275046D02*
X275113Y127439D01*
X275176Y127426D01*
X275237Y127409D01*
X275293Y127390D01*
X275343Y127368D01*
X275391Y127344D01*
X275433Y127320D01*
X275472Y127296D01*
X275506Y127272D01*
X275533Y127252D01*
X275557Y127231D01*
X275578Y127215D01*
X275591Y127202D01*
X275598Y127194D01*
X275602Y127190D01*
X275645Y127141D01*
X275682Y127085D01*
X275713Y127028D01*
X275741Y126968D01*
X275765Y126907D01*
X275783Y126846D01*
X275800Y126787D01*
X275813Y126731D01*
X275822Y126676D01*
X275830Y126626D01*
X275835Y126581D01*
X275839Y126542D01*
X275841Y126524D01*
Y126509D01*
Y126496D01*
X275843Y126485D01*
Y126476D01*
Y126470D01*
Y126466D01*
Y126465D01*
X275841Y126381D01*
X275832Y126304D01*
X275820Y126231D01*
X275806Y126163D01*
X275787Y126100D01*
X275767Y126042D01*
X275746Y125991D01*
X275724Y125942D01*
X275702Y125900D01*
X275680Y125865D01*
X275661Y125833D01*
X275643Y125807D01*
X275628Y125787D01*
X275615Y125772D01*
X275607Y125765D01*
X275606Y125761D01*
X275559Y125717D01*
X275509Y125678D01*
X275457Y125644D01*
X275404Y125617D01*
X275350Y125593D01*
X275296Y125572D01*
X275243Y125555D01*
X275193Y125543D01*
X275145Y125531D01*
X275100Y125524D01*
X275061Y125518D01*
X275026Y125515D01*
X274998Y125513D01*
X274987D01*
X274978Y125511D01*
X274959D01*
X274900Y125513D01*
X274843Y125518D01*
X274789Y125526D01*
X274739Y125535D01*
X274693Y125548D01*
X274648Y125561D01*
X274609Y125576D01*
X274572Y125591D01*
X274539Y125604D01*
X274511Y125618D01*
X274485Y125631D01*
X274465Y125644D01*
X274448Y125654D01*
X274437Y125661D01*
X274430Y125667D01*
X274428Y125668D01*
X274391Y125700D01*
X274356Y125733D01*
X274324Y125768D01*
X274297Y125804D01*
X274271Y125841D01*
X274247Y125878D01*
X274226Y125915D01*
X274208Y125948D01*
X274191Y125981D01*
X274178Y126013D01*
X274167Y126041D01*
X274158Y126065D01*
X274152Y126083D01*
X274147Y126098D01*
X274143Y126107D01*
Y126111D01*
X274467Y126154D01*
X274482Y126117D01*
X274496Y126083D01*
X274511Y126052D01*
X274528Y126022D01*
X274545Y125996D01*
X274559Y125972D01*
X274576Y125952D01*
X274591Y125931D01*
X274606Y125915D01*
X274619Y125900D01*
X274630Y125889D01*
X274641Y125878D01*
X274650Y125870D01*
X274656Y125865D01*
X274659Y125863D01*
X274661Y125861D01*
X274685Y125844D01*
X274709Y125831D01*
X274733Y125818D01*
X274759Y125809D01*
X274809Y125792D01*
X274856Y125781D01*
X274876Y125778D01*
X274896Y125776D01*
X274913Y125774D01*
X274928Y125772D01*
X274941Y125770D01*
X274958D01*
X275000Y125772D01*
X275041Y125778D01*
X275080Y125785D01*
X275117Y125796D01*
X275152Y125807D01*
X275183Y125822D01*
X275213Y125835D01*
X275239Y125852D01*
X275263Y125867D01*
X275285Y125881D01*
X275304Y125894D01*
X275319Y125905D01*
X275330Y125917D01*
X275339Y125924D01*
X275345Y125930D01*
X275346Y125931D01*
X275374Y125963D01*
X275398Y125998D01*
X275420Y126035D01*
X275439Y126074D01*
X275456Y126113D01*
X275469Y126152D01*
X275482Y126189D01*
X275491Y126228D01*
X275498Y126263D01*
X275506Y126294D01*
X275509Y126324D01*
X275513Y126350D01*
X275517Y126370D01*
Y126387D01*
X275519Y126396D01*
Y126400D01*
X274134D01*
Y126420D01*
X274132Y126437D01*
Y126450D01*
Y126463D01*
Y126472D01*
Y126478D01*
Y126481D01*
Y126483D01*
X274134Y126566D01*
X274141Y126646D01*
X274154Y126720D01*
X274169Y126789D01*
X274187Y126852D01*
X274206Y126911D01*
X274228Y126965D01*
X274250Y127013D01*
X274272Y127055D01*
X274293Y127092D01*
X274313Y127124D01*
X274332Y127150D01*
X274346Y127170D01*
X274358Y127185D01*
X274367Y127192D01*
X274369Y127196D01*
X274415Y127240D01*
X274463Y127279D01*
X274511Y127315D01*
X274563Y127342D01*
X274613Y127368D01*
X274665Y127389D01*
X274713Y127405D01*
X274761Y127418D01*
X274806Y127429D01*
X274846Y127437D01*
X274882Y127442D01*
X274915Y127446D01*
X274941Y127448D01*
X274959Y127450D01*
X274976D01*
X275046Y127446D01*
D02*
G37*
G36*
X294200Y125552D02*
X293861D01*
Y126594D01*
X293156D01*
X293108Y126596D01*
X293061Y126600D01*
X293017Y126604D01*
X292974Y126609D01*
X292933Y126615D01*
X292858Y126629D01*
X292791Y126646D01*
X292728Y126666D01*
X292674Y126687D01*
X292626Y126707D01*
X292583Y126728D01*
X292548Y126748D01*
X292519Y126768D01*
X292495Y126785D01*
X292476Y126800D01*
X292463Y126811D01*
X292456Y126818D01*
X292454Y126820D01*
X292417Y126863D01*
X292385Y126909D01*
X292358Y126955D01*
X292334Y127002D01*
X292313Y127048D01*
X292296Y127094D01*
X292282Y127139D01*
X292271Y127181D01*
X292261Y127220D01*
X292256Y127257D01*
X292250Y127289D01*
X292248Y127318D01*
X292246Y127340D01*
X292245Y127357D01*
Y127368D01*
Y127372D01*
X292248Y127442D01*
X292258Y127507D01*
X292263Y127539D01*
X292269Y127566D01*
X292276Y127594D01*
X292284Y127618D01*
X292291Y127640D01*
X292298Y127661D01*
X292304Y127679D01*
X292309Y127694D01*
X292315Y127705D01*
X292319Y127715D01*
X292321Y127720D01*
X292322Y127722D01*
X292354Y127777D01*
X292387Y127827D01*
X292422Y127870D01*
X292439Y127889D01*
X292454Y127905D01*
X292469Y127920D01*
X292484Y127933D01*
X292496Y127944D01*
X292508Y127952D01*
X292515Y127959D01*
X292522Y127964D01*
X292526Y127966D01*
X292528Y127968D01*
X292578Y128000D01*
X292632Y128024D01*
X292684Y128046D01*
X292733Y128063D01*
X292758Y128068D01*
X292778Y128074D01*
X292796Y128079D01*
X292813Y128083D01*
X292826Y128085D01*
X292835Y128087D01*
X292843Y128089D01*
X292845D01*
X292871Y128092D01*
X292900Y128098D01*
X292963Y128103D01*
X293028Y128109D01*
X293091Y128111D01*
X293120Y128113D01*
X293146D01*
X293172Y128114D01*
X294200D01*
Y125552D01*
D02*
G37*
G36*
X287878D02*
X287564D01*
Y128114D01*
X287878D01*
Y125552D01*
D02*
G37*
G36*
X281066Y127448D02*
X281103Y127440D01*
X281137Y127429D01*
X281168Y127418D01*
X281192Y127405D01*
X281211Y127396D01*
X281218Y127390D01*
X281224Y127389D01*
X281225Y127385D01*
X281227D01*
X281244Y127372D01*
X281262Y127355D01*
X281279Y127337D01*
X281296Y127318D01*
X281329Y127274D01*
X281361Y127231D01*
X281387Y127190D01*
X281398Y127172D01*
X281407Y127155D01*
X281414Y127142D01*
X281420Y127133D01*
X281424Y127126D01*
X281425Y127124D01*
Y127409D01*
X281709D01*
Y125552D01*
X281394D01*
Y126522D01*
X281392Y126596D01*
X281387Y126665D01*
X281381Y126696D01*
X281377Y126726D01*
X281374Y126754D01*
X281368Y126781D01*
X281362Y126803D01*
X281359Y126826D01*
X281353Y126844D01*
X281349Y126859D01*
X281348Y126872D01*
X281344Y126881D01*
X281342Y126887D01*
Y126889D01*
X281327Y126928D01*
X281309Y126963D01*
X281290Y126992D01*
X281270Y127016D01*
X281253Y127035D01*
X281238Y127050D01*
X281229Y127057D01*
X281225Y127061D01*
X281194Y127081D01*
X281162Y127098D01*
X281131Y127109D01*
X281103Y127116D01*
X281079Y127120D01*
X281059Y127124D01*
X281042D01*
X281000Y127120D01*
X280957Y127113D01*
X280918Y127103D01*
X280885Y127091D01*
X280855Y127078D01*
X280842Y127072D01*
X280833Y127068D01*
X280824Y127063D01*
X280818Y127061D01*
X280814Y127057D01*
X280812D01*
X280701Y127348D01*
X280733Y127366D01*
X280763Y127381D01*
X280792Y127396D01*
X280822Y127407D01*
X280875Y127426D01*
X280901Y127431D01*
X280925Y127437D01*
X280948Y127440D01*
X280966Y127444D01*
X280983Y127446D01*
X280998Y127448D01*
X281009Y127450D01*
X281025D01*
X281066Y127448D01*
D02*
G37*
G36*
X279959D02*
X280009Y127444D01*
X280055Y127437D01*
X280096Y127431D01*
X280113Y127428D01*
X280129Y127424D01*
X280144Y127420D01*
X280155Y127416D01*
X280164Y127415D01*
X280172Y127413D01*
X280176Y127411D01*
X280177D01*
X280222Y127396D01*
X280263Y127381D01*
X280296Y127366D01*
X280324Y127352D01*
X280348Y127339D01*
X280364Y127329D01*
X280374Y127322D01*
X280377Y127320D01*
X280413Y127292D01*
X280442Y127263D01*
X280470Y127233D01*
X280492Y127205D01*
X280509Y127181D01*
X280522Y127163D01*
X280527Y127155D01*
X280531Y127150D01*
X280533Y127146D01*
Y127144D01*
X280551Y127103D01*
X280564Y127065D01*
X280576Y127026D01*
X280581Y126991D01*
X280585Y126959D01*
X280587Y126946D01*
Y126935D01*
X280588Y126928D01*
Y126920D01*
Y126916D01*
Y126915D01*
X280585Y126865D01*
X280577Y126818D01*
X280566Y126776D01*
X280553Y126739D01*
X280548Y126722D01*
X280542Y126707D01*
X280537Y126694D01*
X280531Y126685D01*
X280525Y126676D01*
X280524Y126670D01*
X280520Y126666D01*
Y126665D01*
X280492Y126624D01*
X280459Y126589D01*
X280426Y126559D01*
X280394Y126535D01*
X280364Y126515D01*
X280351Y126507D01*
X280340Y126500D01*
X280331Y126496D01*
X280324Y126492D01*
X280320Y126489D01*
X280318D01*
X280290Y126478D01*
X280259Y126465D01*
X280224Y126452D01*
X280187Y126439D01*
X280107Y126413D01*
X280027Y126389D01*
X279988Y126378D01*
X279953Y126368D01*
X279922Y126359D01*
X279892Y126352D01*
X279870Y126346D01*
X279852Y126341D01*
X279840Y126339D01*
X279839Y126337D01*
X279837D01*
X279790Y126326D01*
X279748Y126315D01*
X279711Y126304D01*
X279677Y126294D01*
X279648Y126285D01*
X279620Y126276D01*
X279598Y126268D01*
X279577Y126261D01*
X279563Y126254D01*
X279548Y126248D01*
X279537Y126242D01*
X279527Y126239D01*
X279522Y126235D01*
X279518Y126233D01*
X279514Y126231D01*
X279498Y126220D01*
X279483Y126207D01*
X279470Y126192D01*
X279459Y126179D01*
X279442Y126152D01*
X279431Y126126D01*
X279426Y126102D01*
X279422Y126081D01*
X279420Y126076D01*
Y126070D01*
Y126067D01*
Y126065D01*
X279422Y126042D01*
X279424Y126022D01*
X279429Y126002D01*
X279437Y125983D01*
X279453Y125946D01*
X279472Y125917D01*
X279492Y125892D01*
X279509Y125874D01*
X279516Y125867D01*
X279522Y125861D01*
X279524Y125859D01*
X279526Y125857D01*
X279546Y125842D01*
X279570Y125830D01*
X279620Y125807D01*
X279674Y125792D01*
X279726Y125781D01*
X279751Y125778D01*
X279774Y125776D01*
X279794Y125772D01*
X279813D01*
X279827Y125770D01*
X279848D01*
X279887Y125772D01*
X279924Y125774D01*
X279959Y125780D01*
X279992Y125785D01*
X280022Y125792D01*
X280050Y125802D01*
X280076Y125811D01*
X280098Y125820D01*
X280118Y125828D01*
X280135Y125837D01*
X280150Y125846D01*
X280163Y125854D01*
X280172Y125859D01*
X280179Y125865D01*
X280183Y125867D01*
X280185Y125868D01*
X280205Y125889D01*
X280226Y125909D01*
X280242Y125931D01*
X280257Y125955D01*
X280283Y126004D01*
X280301Y126050D01*
X280309Y126070D01*
X280314Y126091D01*
X280320Y126109D01*
X280324Y126124D01*
X280326Y126137D01*
X280327Y126148D01*
X280329Y126154D01*
Y126155D01*
X280640Y126107D01*
X280629Y126054D01*
X280614Y126004D01*
X280600Y125955D01*
X280581Y125913D01*
X280561Y125872D01*
X280542Y125835D01*
X280520Y125804D01*
X280500Y125774D01*
X280481Y125746D01*
X280463Y125724D01*
X280444Y125705D01*
X280429Y125689D01*
X280418Y125678D01*
X280407Y125668D01*
X280401Y125663D01*
X280400Y125661D01*
X280363Y125635D01*
X280322Y125611D01*
X280277Y125591D01*
X280233Y125574D01*
X280187Y125559D01*
X280140Y125548D01*
X280096Y125537D01*
X280051Y125530D01*
X280009Y125524D01*
X279970Y125518D01*
X279937Y125517D01*
X279905Y125513D01*
X279881D01*
X279863Y125511D01*
X279846D01*
X279766Y125515D01*
X279692Y125522D01*
X279659Y125530D01*
X279626Y125535D01*
X279596Y125543D01*
X279568Y125550D01*
X279544Y125555D01*
X279522Y125563D01*
X279502Y125570D01*
X279485Y125576D01*
X279472Y125580D01*
X279463Y125583D01*
X279457Y125587D01*
X279455D01*
X279424Y125602D01*
X279394Y125618D01*
X279366Y125635D01*
X279340Y125652D01*
X279316Y125670D01*
X279294Y125689D01*
X279274Y125705D01*
X279257Y125722D01*
X279240Y125739D01*
X279227Y125754D01*
X279215Y125767D01*
X279205Y125780D01*
X279198Y125789D01*
X279192Y125796D01*
X279190Y125800D01*
X279189Y125802D01*
X279172Y125828D01*
X279157Y125854D01*
X279146Y125881D01*
X279135Y125907D01*
X279118Y125957D01*
X279107Y126002D01*
X279103Y126022D01*
X279102Y126041D01*
X279098Y126057D01*
Y126072D01*
X279096Y126083D01*
Y126091D01*
Y126096D01*
Y126098D01*
X279100Y126155D01*
X279107Y126207D01*
X279120Y126252D01*
X279128Y126272D01*
X279133Y126291D01*
X279140Y126307D01*
X279148Y126322D01*
X279153Y126335D01*
X279161Y126346D01*
X279165Y126354D01*
X279168Y126359D01*
X279172Y126363D01*
Y126365D01*
X279203Y126404D01*
X279237Y126437D01*
X279270Y126465D01*
X279303Y126489D01*
X279333Y126507D01*
X279346Y126515D01*
X279357Y126520D01*
X279366Y126526D01*
X279374Y126529D01*
X279377Y126531D01*
X279379D01*
X279407Y126542D01*
X279437Y126554D01*
X279472Y126566D01*
X279507Y126578D01*
X279585Y126604D01*
X279663Y126626D01*
X279698Y126637D01*
X279733Y126646D01*
X279764Y126655D01*
X279792Y126663D01*
X279814Y126668D01*
X279831Y126674D01*
X279842Y126676D01*
X279844Y126678D01*
X279846D01*
X279887Y126689D01*
X279926Y126700D01*
X279959Y126709D01*
X279988Y126716D01*
X280014Y126724D01*
X280037Y126731D01*
X280057Y126737D01*
X280074Y126741D01*
X280087Y126746D01*
X280098Y126748D01*
X280107Y126752D01*
X280114Y126754D01*
X280120Y126755D01*
X280124Y126757D01*
X280126D01*
X280155Y126770D01*
X280179Y126785D01*
X280201Y126798D01*
X280218Y126811D01*
X280231Y126824D01*
X280240Y126833D01*
X280246Y126839D01*
X280248Y126841D01*
X280261Y126859D01*
X280270Y126879D01*
X280276Y126898D01*
X280279Y126915D01*
X280283Y126929D01*
X280285Y126941D01*
Y126950D01*
Y126952D01*
X280283Y126968D01*
X280281Y126987D01*
X280270Y127018D01*
X280255Y127046D01*
X280238Y127070D01*
X280222Y127091D01*
X280207Y127105D01*
X280196Y127115D01*
X280194Y127118D01*
X280192D01*
X280174Y127131D01*
X280151Y127142D01*
X280129Y127152D01*
X280105Y127161D01*
X280053Y127174D01*
X280001Y127181D01*
X279977Y127185D01*
X279955Y127187D01*
X279935Y127189D01*
X279916D01*
X279901Y127190D01*
X279848D01*
X279816Y127187D01*
X279787Y127183D01*
X279759Y127178D01*
X279735Y127172D01*
X279711Y127165D01*
X279690Y127157D01*
X279670Y127150D01*
X279653Y127142D01*
X279639Y127135D01*
X279627Y127128D01*
X279616Y127122D01*
X279609Y127116D01*
X279602Y127113D01*
X279600Y127111D01*
X279598Y127109D01*
X279579Y127094D01*
X279563Y127078D01*
X279535Y127041D01*
X279514Y127003D01*
X279498Y126968D01*
X279487Y126937D01*
X279481Y126922D01*
X279479Y126911D01*
X279476Y126900D01*
Y126892D01*
X279474Y126889D01*
Y126887D01*
X279166Y126929D01*
X279179Y126994D01*
X279189Y127022D01*
X279198Y127050D01*
X279205Y127076D01*
X279215Y127100D01*
X279224Y127120D01*
X279233Y127141D01*
X279242Y127157D01*
X279250Y127174D01*
X279257Y127187D01*
X279264Y127196D01*
X279270Y127205D01*
X279274Y127211D01*
X279276Y127215D01*
X279277Y127216D01*
X279292Y127237D01*
X279311Y127255D01*
X279348Y127289D01*
X279389Y127318D01*
X279427Y127342D01*
X279464Y127361D01*
X279479Y127368D01*
X279492Y127376D01*
X279503Y127381D01*
X279513Y127383D01*
X279518Y127387D01*
X279520D01*
X279583Y127407D01*
X279650Y127424D01*
X279714Y127435D01*
X279746Y127439D01*
X279774Y127442D01*
X279801Y127444D01*
X279827Y127446D01*
X279850Y127448D01*
X279868Y127450D01*
X279905D01*
X279959Y127448D01*
D02*
G37*
G36*
X281303Y120342D02*
X280988D01*
Y120703D01*
X281303D01*
Y120342D01*
D02*
G37*
G36*
X290550Y120035D02*
X290591Y120033D01*
X290630Y120028D01*
X290667Y120024D01*
X290702Y120018D01*
X290736Y120011D01*
X290765Y120005D01*
X290791Y120000D01*
X290815Y119992D01*
X290836Y119987D01*
X290854Y119983D01*
X290867Y119978D01*
X290878Y119976D01*
X290884Y119972D01*
X290886D01*
X290919Y119959D01*
X290950Y119946D01*
X290978Y119931D01*
X291006Y119915D01*
X291030Y119900D01*
X291052Y119885D01*
X291074Y119868D01*
X291093Y119854D01*
X291110Y119841D01*
X291123Y119828D01*
X291135Y119815D01*
X291145Y119805D01*
X291154Y119796D01*
X291160Y119791D01*
X291161Y119787D01*
X291163Y119785D01*
X291197Y119737D01*
X291224Y119683D01*
X291248Y119631D01*
X291267Y119579D01*
X291276Y119557D01*
X291282Y119535D01*
X291287Y119517D01*
X291293Y119500D01*
X291297Y119485D01*
X291298Y119476D01*
X291300Y119468D01*
Y119467D01*
X290993Y119424D01*
X290984Y119459D01*
X290973Y119492D01*
X290960Y119522D01*
X290947Y119550D01*
X290936Y119574D01*
X290923Y119596D01*
X290910Y119617D01*
X290897Y119635D01*
X290884Y119650D01*
X290873Y119663D01*
X290863Y119674D01*
X290854Y119683D01*
X290847Y119689D01*
X290841Y119694D01*
X290839Y119698D01*
X290837D01*
X290817Y119713D01*
X290793Y119724D01*
X290741Y119744D01*
X290687Y119759D01*
X290634Y119768D01*
X290610Y119770D01*
X290586Y119774D01*
X290565Y119776D01*
X290547D01*
X290530Y119778D01*
X290510D01*
X290467Y119776D01*
X290426Y119774D01*
X290389Y119768D01*
X290354Y119761D01*
X290321Y119754D01*
X290293Y119744D01*
X290265Y119733D01*
X290241Y119724D01*
X290221Y119715D01*
X290202Y119704D01*
X290187Y119694D01*
X290174Y119687D01*
X290165Y119679D01*
X290158Y119676D01*
X290154Y119672D01*
X290152Y119670D01*
X290136Y119654D01*
X290123Y119637D01*
X290110Y119617D01*
X290100Y119596D01*
X290084Y119550D01*
X290073Y119505D01*
X290067Y119465D01*
X290063Y119446D01*
Y119431D01*
X290062Y119418D01*
Y119409D01*
Y119402D01*
Y119400D01*
Y119391D01*
Y119380D01*
Y119352D01*
X290063Y119339D01*
Y119329D01*
Y119322D01*
Y119318D01*
X290100Y119307D01*
X290139Y119296D01*
X290182Y119285D01*
X290228Y119274D01*
X290321Y119255D01*
X290367Y119248D01*
X290411Y119241D01*
X290454Y119233D01*
X290495Y119228D01*
X290530Y119222D01*
X290561Y119217D01*
X290587Y119215D01*
X290608Y119211D01*
X290615D01*
X290621Y119209D01*
X290624D01*
X290658Y119205D01*
X290689Y119202D01*
X290719Y119196D01*
X290747Y119192D01*
X290773Y119189D01*
X290795Y119185D01*
X290815Y119181D01*
X290834Y119178D01*
X290850Y119174D01*
X290865Y119172D01*
X290876Y119168D01*
X290887Y119167D01*
X290895Y119165D01*
X290900D01*
X290902Y119163D01*
X290904D01*
X290950Y119148D01*
X290993Y119131D01*
X291032Y119115D01*
X291065Y119098D01*
X291093Y119083D01*
X291104Y119076D01*
X291113Y119070D01*
X291121Y119067D01*
X291126Y119063D01*
X291130Y119059D01*
X291132D01*
X291167Y119031D01*
X291198Y119002D01*
X291226Y118972D01*
X291250Y118943D01*
X291269Y118917D01*
X291282Y118896D01*
X291287Y118889D01*
X291289Y118883D01*
X291293Y118880D01*
Y118878D01*
X291313Y118835D01*
X291328Y118793D01*
X291339Y118750D01*
X291347Y118713D01*
X291350Y118680D01*
X291352Y118665D01*
Y118654D01*
X291354Y118643D01*
Y118635D01*
Y118631D01*
Y118630D01*
X291352Y118587D01*
X291347Y118546D01*
X291339Y118509D01*
X291328Y118472D01*
X291317Y118439D01*
X291302Y118407D01*
X291287Y118378D01*
X291273Y118352D01*
X291258Y118328D01*
X291243Y118307D01*
X291228Y118291D01*
X291217Y118276D01*
X291206Y118263D01*
X291198Y118256D01*
X291193Y118250D01*
X291191Y118248D01*
X291158Y118222D01*
X291124Y118200D01*
X291086Y118180D01*
X291048Y118163D01*
X291010Y118148D01*
X290969Y118137D01*
X290932Y118126D01*
X290895Y118119D01*
X290860Y118113D01*
X290826Y118107D01*
X290797Y118104D01*
X290771Y118102D01*
X290750D01*
X290734Y118100D01*
X290721D01*
X290652Y118102D01*
X290589Y118109D01*
X290530Y118119D01*
X290502Y118124D01*
X290478Y118130D01*
X290456Y118135D01*
X290436Y118141D01*
X290417Y118146D01*
X290402Y118150D01*
X290391Y118154D01*
X290382Y118157D01*
X290376Y118159D01*
X290374D01*
X290345Y118172D01*
X290313Y118185D01*
X290254Y118219D01*
X290197Y118254D01*
X290171Y118270D01*
X290145Y118287D01*
X290123Y118304D01*
X290102Y118320D01*
X290084Y118333D01*
X290067Y118346D01*
X290054Y118356D01*
X290045Y118363D01*
X290039Y118368D01*
X290037Y118370D01*
X290030Y118322D01*
X290023Y118280D01*
X290012Y118241D01*
X290000Y118206D01*
X289989Y118180D01*
X289986Y118167D01*
X289980Y118157D01*
X289978Y118150D01*
X289975Y118144D01*
X289973Y118143D01*
Y118141D01*
X289645D01*
X289665Y118181D01*
X289684Y118220D01*
X289697Y118257D01*
X289708Y118291D01*
X289717Y118320D01*
X289719Y118333D01*
X289723Y118343D01*
X289725Y118352D01*
Y118357D01*
X289726Y118361D01*
Y118363D01*
X289728Y118374D01*
X289730Y118389D01*
X289732Y118420D01*
X289736Y118457D01*
X289737Y118498D01*
X289739Y118544D01*
X289741Y118591D01*
X289743Y118685D01*
Y118730D01*
Y118774D01*
X289745Y118813D01*
Y118848D01*
Y118878D01*
Y118889D01*
Y118900D01*
Y118907D01*
Y118913D01*
Y118917D01*
Y118918D01*
Y119337D01*
Y119374D01*
Y119409D01*
X289747Y119441D01*
Y119470D01*
X289749Y119496D01*
X289750Y119520D01*
X289752Y119541D01*
Y119559D01*
X289754Y119576D01*
X289756Y119589D01*
X289758Y119602D01*
X289760Y119611D01*
Y119617D01*
X289762Y119622D01*
Y119626D01*
X289775Y119672D01*
X289789Y119715D01*
X289804Y119750D01*
X289821Y119781D01*
X289836Y119807D01*
X289849Y119826D01*
X289852Y119831D01*
X289856Y119837D01*
X289860Y119839D01*
Y119841D01*
X289889Y119872D01*
X289923Y119898D01*
X289960Y119922D01*
X289995Y119942D01*
X290028Y119959D01*
X290041Y119966D01*
X290054Y119972D01*
X290063Y119976D01*
X290071Y119979D01*
X290076Y119981D01*
X290078D01*
X290106Y119991D01*
X290137Y120000D01*
X290200Y120015D01*
X290265Y120024D01*
X290326Y120031D01*
X290354Y120033D01*
X290380Y120035D01*
X290404Y120037D01*
X290424Y120039D01*
X290463D01*
X290550Y120035D01*
D02*
G37*
G36*
X288064Y118141D02*
X287749D01*
Y118876D01*
X287528Y119091D01*
X286914Y118141D01*
X286525D01*
X287306Y119307D01*
X286597Y119998D01*
X287004D01*
X287749Y119241D01*
Y120703D01*
X288064D01*
Y118141D01*
D02*
G37*
G36*
X294200D02*
X293872D01*
Y120322D01*
X293133Y118141D01*
X292826D01*
X292080Y120285D01*
Y118141D01*
X291752D01*
Y120703D01*
X292209D01*
X292824Y118920D01*
X292841Y118870D01*
X292858Y118824D01*
X292871Y118781D01*
X292885Y118741D01*
X292896Y118704D01*
X292908Y118670D01*
X292919Y118641D01*
X292928Y118613D01*
X292935Y118589D01*
X292943Y118568D01*
X292948Y118550D01*
X292952Y118535D01*
X292956Y118524D01*
X292959Y118517D01*
X292961Y118511D01*
Y118509D01*
X292969Y118535D01*
X292978Y118561D01*
X292987Y118591D01*
X292996Y118622D01*
X293017Y118685D01*
X293037Y118746D01*
X293046Y118776D01*
X293056Y118802D01*
X293063Y118826D01*
X293070Y118848D01*
X293076Y118865D01*
X293080Y118878D01*
X293082Y118885D01*
X293083Y118889D01*
X293691Y120703D01*
X294200D01*
Y118141D01*
D02*
G37*
G36*
X279818Y120035D02*
X279885Y120028D01*
X279948Y120015D01*
X280009Y119998D01*
X280064Y119979D01*
X280114Y119957D01*
X280163Y119933D01*
X280205Y119909D01*
X280244Y119885D01*
X280277Y119861D01*
X280305Y119841D01*
X280329Y119820D01*
X280350Y119804D01*
X280363Y119791D01*
X280370Y119783D01*
X280374Y119779D01*
X280416Y119729D01*
X280453Y119674D01*
X280485Y119617D01*
X280513Y119557D01*
X280537Y119496D01*
X280555Y119435D01*
X280572Y119376D01*
X280585Y119320D01*
X280594Y119265D01*
X280601Y119215D01*
X280607Y119170D01*
X280611Y119131D01*
X280613Y119113D01*
Y119098D01*
Y119085D01*
X280614Y119074D01*
Y119065D01*
Y119059D01*
Y119055D01*
Y119054D01*
X280613Y118970D01*
X280603Y118893D01*
X280592Y118820D01*
X280577Y118752D01*
X280559Y118689D01*
X280538Y118631D01*
X280518Y118580D01*
X280496Y118531D01*
X280474Y118489D01*
X280451Y118454D01*
X280433Y118422D01*
X280414Y118396D01*
X280400Y118376D01*
X280387Y118361D01*
X280379Y118354D01*
X280377Y118350D01*
X280331Y118306D01*
X280281Y118267D01*
X280229Y118233D01*
X280176Y118206D01*
X280122Y118181D01*
X280068Y118161D01*
X280014Y118144D01*
X279964Y118131D01*
X279916Y118120D01*
X279872Y118113D01*
X279833Y118107D01*
X279798Y118104D01*
X279770Y118102D01*
X279759D01*
X279750Y118100D01*
X279731D01*
X279672Y118102D01*
X279614Y118107D01*
X279561Y118115D01*
X279511Y118124D01*
X279464Y118137D01*
X279420Y118150D01*
X279381Y118165D01*
X279344Y118180D01*
X279311Y118193D01*
X279283Y118207D01*
X279257Y118220D01*
X279237Y118233D01*
X279220Y118243D01*
X279209Y118250D01*
X279202Y118256D01*
X279200Y118257D01*
X279163Y118289D01*
X279128Y118322D01*
X279096Y118357D01*
X279068Y118393D01*
X279042Y118430D01*
X279018Y118467D01*
X278998Y118504D01*
X278979Y118537D01*
X278963Y118570D01*
X278950Y118602D01*
X278939Y118630D01*
X278929Y118654D01*
X278924Y118672D01*
X278918Y118687D01*
X278915Y118696D01*
Y118700D01*
X279239Y118743D01*
X279253Y118705D01*
X279268Y118672D01*
X279283Y118641D01*
X279300Y118611D01*
X279316Y118585D01*
X279331Y118561D01*
X279348Y118541D01*
X279363Y118520D01*
X279377Y118504D01*
X279390Y118489D01*
X279402Y118478D01*
X279413Y118467D01*
X279422Y118459D01*
X279427Y118454D01*
X279431Y118452D01*
X279433Y118450D01*
X279457Y118433D01*
X279481Y118420D01*
X279505Y118407D01*
X279531Y118398D01*
X279581Y118381D01*
X279627Y118370D01*
X279648Y118367D01*
X279668Y118365D01*
X279685Y118363D01*
X279700Y118361D01*
X279713Y118359D01*
X279729D01*
X279772Y118361D01*
X279813Y118367D01*
X279852Y118374D01*
X279889Y118385D01*
X279924Y118396D01*
X279955Y118411D01*
X279985Y118424D01*
X280011Y118441D01*
X280035Y118456D01*
X280057Y118470D01*
X280076Y118483D01*
X280090Y118494D01*
X280101Y118506D01*
X280111Y118513D01*
X280116Y118518D01*
X280118Y118520D01*
X280146Y118552D01*
X280170Y118587D01*
X280192Y118624D01*
X280211Y118663D01*
X280227Y118702D01*
X280240Y118741D01*
X280253Y118778D01*
X280263Y118817D01*
X280270Y118852D01*
X280277Y118883D01*
X280281Y118913D01*
X280285Y118939D01*
X280288Y118959D01*
Y118976D01*
X280290Y118985D01*
Y118989D01*
X278905D01*
Y119009D01*
X278903Y119026D01*
Y119039D01*
Y119052D01*
Y119061D01*
Y119067D01*
Y119070D01*
Y119072D01*
X278905Y119155D01*
X278913Y119235D01*
X278926Y119309D01*
X278940Y119378D01*
X278959Y119441D01*
X278978Y119500D01*
X279000Y119554D01*
X279022Y119602D01*
X279044Y119644D01*
X279065Y119681D01*
X279085Y119713D01*
X279103Y119739D01*
X279118Y119759D01*
X279129Y119774D01*
X279139Y119781D01*
X279140Y119785D01*
X279187Y119829D01*
X279235Y119868D01*
X279283Y119904D01*
X279335Y119931D01*
X279385Y119957D01*
X279437Y119978D01*
X279485Y119994D01*
X279533Y120007D01*
X279577Y120018D01*
X279618Y120026D01*
X279653Y120031D01*
X279687Y120035D01*
X279713Y120037D01*
X279731Y120039D01*
X279748D01*
X279818Y120035D01*
D02*
G37*
G36*
X288617Y120037D02*
X288654Y120029D01*
X288688Y120018D01*
X288719Y120007D01*
X288743Y119994D01*
X288762Y119985D01*
X288769Y119979D01*
X288775Y119978D01*
X288776Y119974D01*
X288778D01*
X288795Y119961D01*
X288814Y119944D01*
X288830Y119926D01*
X288847Y119907D01*
X288880Y119863D01*
X288912Y119820D01*
X288938Y119779D01*
X288949Y119761D01*
X288958Y119744D01*
X288965Y119731D01*
X288971Y119722D01*
X288975Y119715D01*
X288976Y119713D01*
Y119998D01*
X289260D01*
Y118141D01*
X288945D01*
Y119111D01*
X288943Y119185D01*
X288938Y119254D01*
X288932Y119285D01*
X288928Y119315D01*
X288925Y119342D01*
X288919Y119370D01*
X288914Y119392D01*
X288910Y119415D01*
X288904Y119433D01*
X288901Y119448D01*
X288899Y119461D01*
X288895Y119470D01*
X288893Y119476D01*
Y119478D01*
X288878Y119517D01*
X288860Y119552D01*
X288841Y119581D01*
X288821Y119605D01*
X288804Y119624D01*
X288789Y119639D01*
X288780Y119646D01*
X288776Y119650D01*
X288745Y119670D01*
X288714Y119687D01*
X288682Y119698D01*
X288654Y119705D01*
X288630Y119709D01*
X288610Y119713D01*
X288593D01*
X288551Y119709D01*
X288508Y119702D01*
X288469Y119692D01*
X288436Y119679D01*
X288406Y119667D01*
X288393Y119661D01*
X288384Y119657D01*
X288375Y119652D01*
X288369Y119650D01*
X288365Y119646D01*
X288364D01*
X288252Y119937D01*
X288284Y119955D01*
X288314Y119970D01*
X288343Y119985D01*
X288373Y119996D01*
X288427Y120015D01*
X288452Y120020D01*
X288477Y120026D01*
X288499Y120029D01*
X288517Y120033D01*
X288534Y120035D01*
X288549Y120037D01*
X288560Y120039D01*
X288577D01*
X288617Y120037D01*
D02*
G37*
G36*
X285518Y118141D02*
X285160D01*
X284881Y118917D01*
X283805D01*
X283509Y118141D01*
X283123D01*
X284171Y120703D01*
X284534D01*
X285518Y118141D01*
D02*
G37*
G36*
X282899D02*
X282585D01*
Y120703D01*
X282899D01*
Y118141D01*
D02*
G37*
G36*
X282105D02*
X281790D01*
Y120703D01*
X282105D01*
Y118141D01*
D02*
G37*
G36*
X281303D02*
X280988D01*
Y119998D01*
X281303D01*
Y118141D01*
D02*
G37*
%LPC*%
G36*
X283734Y123479D02*
X283714D01*
X283670Y123478D01*
X283629Y123472D01*
X283588Y123463D01*
X283551Y123452D01*
X283516Y123437D01*
X283484Y123422D01*
X283455Y123405D01*
X283429Y123389D01*
X283405Y123372D01*
X283383Y123355D01*
X283366Y123341D01*
X283351Y123326D01*
X283338Y123315D01*
X283331Y123305D01*
X283325Y123300D01*
X283323Y123298D01*
X283307Y123276D01*
X283290Y123250D01*
X283262Y123194D01*
X283242Y123137D01*
X283227Y123079D01*
X283220Y123054D01*
X283216Y123028D01*
X283210Y123005D01*
X283209Y122987D01*
X283205Y122970D01*
Y122959D01*
X283203Y122950D01*
Y122948D01*
X284242D01*
X284238Y122992D01*
X284231Y123033D01*
X284221Y123074D01*
X284210Y123109D01*
X284197Y123144D01*
X284184Y123176D01*
X284170Y123205D01*
X284155Y123231D01*
X284140Y123254D01*
X284127Y123274D01*
X284114Y123292D01*
X284103Y123307D01*
X284092Y123318D01*
X284084Y123326D01*
X284081Y123331D01*
X284079Y123333D01*
X284051Y123359D01*
X284021Y123381D01*
X283990Y123402D01*
X283958Y123418D01*
X283929Y123431D01*
X283897Y123444D01*
X283870Y123454D01*
X283840Y123461D01*
X283814Y123466D01*
X283790Y123472D01*
X283770Y123476D01*
X283749Y123478D01*
X283734Y123479D01*
D02*
G37*
G36*
X277763D02*
X277742D01*
X277698Y123478D01*
X277657Y123472D01*
X277617Y123463D01*
X277579Y123452D01*
X277544Y123437D01*
X277513Y123422D01*
X277483Y123405D01*
X277457Y123389D01*
X277433Y123372D01*
X277411Y123355D01*
X277394Y123341D01*
X277380Y123326D01*
X277367Y123315D01*
X277359Y123305D01*
X277354Y123300D01*
X277352Y123298D01*
X277335Y123276D01*
X277318Y123250D01*
X277291Y123194D01*
X277270Y123137D01*
X277255Y123079D01*
X277248Y123054D01*
X277244Y123028D01*
X277239Y123005D01*
X277237Y122987D01*
X277233Y122970D01*
Y122959D01*
X277231Y122950D01*
Y122948D01*
X278270D01*
X278266Y122992D01*
X278259Y123033D01*
X278250Y123074D01*
X278239Y123109D01*
X278226Y123144D01*
X278213Y123176D01*
X278198Y123205D01*
X278183Y123231D01*
X278168Y123254D01*
X278155Y123274D01*
X278142Y123292D01*
X278131Y123307D01*
X278120Y123318D01*
X278113Y123326D01*
X278109Y123331D01*
X278107Y123333D01*
X278079Y123359D01*
X278050Y123381D01*
X278018Y123402D01*
X277987Y123418D01*
X277957Y123431D01*
X277926Y123444D01*
X277898Y123454D01*
X277868Y123461D01*
X277842Y123466D01*
X277818Y123472D01*
X277798Y123476D01*
X277778Y123478D01*
X277763Y123479D01*
D02*
G37*
G36*
X293861Y124102D02*
X293300D01*
X293254Y124100D01*
X293211Y124098D01*
X293172Y124096D01*
X293137Y124092D01*
X293106Y124090D01*
X293078Y124087D01*
X293052Y124083D01*
X293030Y124079D01*
X293011Y124076D01*
X292996Y124074D01*
X292983Y124070D01*
X292974Y124068D01*
X292967Y124066D01*
X292963Y124065D01*
X292961D01*
X292921Y124048D01*
X292887Y124029D01*
X292856Y124007D01*
X292832Y123985D01*
X292813Y123965D01*
X292798Y123948D01*
X292791Y123935D01*
X292787Y123933D01*
Y123931D01*
X292767Y123894D01*
X292750Y123855D01*
X292739Y123818D01*
X292732Y123783D01*
X292728Y123754D01*
X292726Y123741D01*
X292724Y123729D01*
Y123720D01*
Y123713D01*
Y123709D01*
Y123707D01*
X292728Y123659D01*
X292735Y123615D01*
X292745Y123576D01*
X292758Y123544D01*
X292771Y123516D01*
X292776Y123507D01*
X292780Y123498D01*
X292785Y123491D01*
X292787Y123485D01*
X292791Y123483D01*
Y123481D01*
X292819Y123450D01*
X292848Y123424D01*
X292882Y123402D01*
X292913Y123385D01*
X292941Y123372D01*
X292954Y123367D01*
X292963Y123363D01*
X292972Y123359D01*
X292980Y123357D01*
X292983Y123355D01*
X292985D01*
X293006Y123350D01*
X293028Y123346D01*
X293052Y123342D01*
X293078Y123339D01*
X293132Y123333D01*
X293183Y123329D01*
X293209Y123328D01*
X293254D01*
X293272Y123326D01*
X293861D01*
Y124102D01*
D02*
G37*
G36*
Y123024D02*
X293226D01*
X293183Y123022D01*
X293145Y123020D01*
X293109Y123017D01*
X293076Y123013D01*
X293045Y123009D01*
X293017Y123005D01*
X292991Y123002D01*
X292969Y122998D01*
X292950Y122994D01*
X292933Y122991D01*
X292921Y122987D01*
X292909Y122983D01*
X292902Y122981D01*
X292898Y122980D01*
X292896D01*
X292850Y122961D01*
X292809Y122939D01*
X292774Y122915D01*
X292745Y122889D01*
X292721Y122867D01*
X292704Y122848D01*
X292698Y122841D01*
X292695Y122837D01*
X292691Y122833D01*
Y122831D01*
X292667Y122791D01*
X292648Y122748D01*
X292635Y122707D01*
X292626Y122668D01*
X292621Y122633D01*
X292619Y122620D01*
Y122607D01*
X292617Y122598D01*
Y122589D01*
Y122585D01*
Y122583D01*
X292619Y122539D01*
X292624Y122496D01*
X292634Y122459D01*
X292643Y122428D01*
X292652Y122402D01*
X292661Y122381D01*
X292663Y122374D01*
X292667Y122368D01*
X292669Y122367D01*
Y122365D01*
X292689Y122331D01*
X292709Y122304D01*
X292732Y122280D01*
X292752Y122259D01*
X292771Y122243D01*
X292785Y122231D01*
X292795Y122224D01*
X292796Y122222D01*
X292798D01*
X292830Y122206D01*
X292861Y122191D01*
X292895Y122180D01*
X292924Y122170D01*
X292952Y122163D01*
X292972Y122157D01*
X292982Y122156D01*
X292987D01*
X292991Y122154D01*
X292993D01*
X293006Y122152D01*
X293022Y122150D01*
X293058Y122148D01*
X293095Y122144D01*
X293133D01*
X293169Y122143D01*
X293861D01*
Y123024D01*
D02*
G37*
G36*
X286499Y124102D02*
X285938D01*
X285892Y124100D01*
X285849Y124098D01*
X285810Y124096D01*
X285775Y124092D01*
X285743Y124090D01*
X285716Y124087D01*
X285690Y124083D01*
X285668Y124079D01*
X285649Y124076D01*
X285634Y124074D01*
X285621Y124070D01*
X285612Y124068D01*
X285605Y124066D01*
X285601Y124065D01*
X285599D01*
X285558Y124048D01*
X285525Y124029D01*
X285493Y124007D01*
X285469Y123985D01*
X285451Y123965D01*
X285436Y123948D01*
X285429Y123935D01*
X285425Y123933D01*
Y123931D01*
X285405Y123894D01*
X285388Y123855D01*
X285377Y123818D01*
X285369Y123783D01*
X285366Y123754D01*
X285364Y123741D01*
X285362Y123729D01*
Y123720D01*
Y123713D01*
Y123709D01*
Y123707D01*
X285366Y123659D01*
X285373Y123615D01*
X285382Y123576D01*
X285395Y123544D01*
X285408Y123516D01*
X285414Y123507D01*
X285418Y123498D01*
X285423Y123491D01*
X285425Y123485D01*
X285429Y123483D01*
Y123481D01*
X285456Y123450D01*
X285486Y123424D01*
X285519Y123402D01*
X285551Y123385D01*
X285579Y123372D01*
X285592Y123367D01*
X285601Y123363D01*
X285610Y123359D01*
X285618Y123357D01*
X285621Y123355D01*
X285623D01*
X285643Y123350D01*
X285666Y123346D01*
X285690Y123342D01*
X285716Y123339D01*
X285769Y123333D01*
X285821Y123329D01*
X285847Y123328D01*
X285892D01*
X285910Y123326D01*
X286499D01*
Y124102D01*
D02*
G37*
G36*
Y123024D02*
X285864D01*
X285821Y123022D01*
X285782Y123020D01*
X285747Y123017D01*
X285714Y123013D01*
X285682Y123009D01*
X285655Y123005D01*
X285629Y123002D01*
X285606Y122998D01*
X285588Y122994D01*
X285571Y122991D01*
X285558Y122987D01*
X285547Y122983D01*
X285540Y122981D01*
X285536Y122980D01*
X285534D01*
X285488Y122961D01*
X285447Y122939D01*
X285412Y122915D01*
X285382Y122889D01*
X285358Y122867D01*
X285342Y122848D01*
X285336Y122841D01*
X285332Y122837D01*
X285329Y122833D01*
Y122831D01*
X285305Y122791D01*
X285286Y122748D01*
X285273Y122707D01*
X285264Y122668D01*
X285258Y122633D01*
X285256Y122620D01*
Y122607D01*
X285255Y122598D01*
Y122589D01*
Y122585D01*
Y122583D01*
X285256Y122539D01*
X285262Y122496D01*
X285271Y122459D01*
X285281Y122428D01*
X285290Y122402D01*
X285299Y122381D01*
X285301Y122374D01*
X285305Y122368D01*
X285306Y122367D01*
Y122365D01*
X285327Y122331D01*
X285347Y122304D01*
X285369Y122280D01*
X285390Y122259D01*
X285408Y122243D01*
X285423Y122231D01*
X285432Y122224D01*
X285434Y122222D01*
X285436D01*
X285468Y122206D01*
X285499Y122191D01*
X285532Y122180D01*
X285562Y122170D01*
X285590Y122163D01*
X285610Y122157D01*
X285619Y122156D01*
X285625D01*
X285629Y122154D01*
X285631D01*
X285643Y122152D01*
X285660Y122150D01*
X285695Y122148D01*
X285732Y122144D01*
X285771D01*
X285806Y122143D01*
X286499D01*
Y123024D01*
D02*
G37*
G36*
X289162Y123478D02*
X289152D01*
X289113Y123476D01*
X289075Y123470D01*
X289039Y123461D01*
X289006Y123450D01*
X288973Y123437D01*
X288943Y123420D01*
X288915Y123405D01*
X288891Y123389D01*
X288869Y123370D01*
X288849Y123355D01*
X288832Y123341D01*
X288817Y123326D01*
X288806Y123315D01*
X288799Y123305D01*
X288793Y123300D01*
X288791Y123298D01*
X288765Y123263D01*
X288743Y123224D01*
X288723Y123181D01*
X288706Y123137D01*
X288691Y123091D01*
X288678Y123044D01*
X288669Y122998D01*
X288662Y122954D01*
X288656Y122909D01*
X288651Y122870D01*
X288647Y122835D01*
X288645Y122804D01*
X288643Y122778D01*
Y122757D01*
Y122750D01*
Y122744D01*
Y122743D01*
Y122741D01*
X288645Y122678D01*
X288649Y122618D01*
X288656Y122565D01*
X288665Y122515D01*
X288677Y122468D01*
X288689Y122426D01*
X288702Y122387D01*
X288715Y122354D01*
X288728Y122324D01*
X288741Y122298D01*
X288754Y122276D01*
X288765Y122257D01*
X288775Y122244D01*
X288782Y122233D01*
X288786Y122228D01*
X288788Y122226D01*
X288815Y122196D01*
X288843Y122170D01*
X288873Y122148D01*
X288902Y122130D01*
X288932Y122113D01*
X288962Y122100D01*
X288989Y122089D01*
X289017Y122080D01*
X289041Y122074D01*
X289065Y122068D01*
X289086Y122065D01*
X289102Y122061D01*
X289117D01*
X289128Y122059D01*
X289138D01*
X289175Y122061D01*
X289212Y122067D01*
X289245Y122076D01*
X289278Y122087D01*
X289310Y122100D01*
X289339Y122115D01*
X289365Y122131D01*
X289391Y122148D01*
X289413Y122163D01*
X289434Y122180D01*
X289451Y122194D01*
X289465Y122207D01*
X289476Y122218D01*
X289484Y122228D01*
X289489Y122233D01*
X289491Y122235D01*
X289517Y122270D01*
X289541Y122309D01*
X289562Y122350D01*
X289578Y122393D01*
X289593Y122437D01*
X289604Y122481D01*
X289615Y122524D01*
X289623Y122567D01*
X289628Y122607D01*
X289634Y122644D01*
X289636Y122680D01*
X289639Y122709D01*
Y122733D01*
X289641Y122752D01*
Y122757D01*
Y122763D01*
Y122765D01*
Y122767D01*
X289639Y122833D01*
X289636Y122896D01*
X289628Y122954D01*
X289619Y123005D01*
X289610Y123055D01*
X289597Y123100D01*
X289584Y123139D01*
X289571Y123174D01*
X289558Y123205D01*
X289547Y123231D01*
X289534Y123255D01*
X289525Y123274D01*
X289515Y123287D01*
X289508Y123298D01*
X289504Y123304D01*
X289502Y123305D01*
X289475Y123335D01*
X289447Y123363D01*
X289417Y123385D01*
X289388Y123405D01*
X289358Y123422D01*
X289330Y123435D01*
X289302Y123446D01*
X289275Y123455D01*
X289249Y123463D01*
X289226Y123468D01*
X289204Y123472D01*
X289188Y123476D01*
X289173D01*
X289162Y123478D01*
D02*
G37*
G36*
X268161Y132090D02*
X268151D01*
X268114Y132089D01*
X268077Y132083D01*
X268044Y132074D01*
X268011Y132063D01*
X267981Y132050D01*
X267951Y132035D01*
X267925Y132020D01*
X267901Y132003D01*
X267879Y131987D01*
X267859Y131972D01*
X267842Y131957D01*
X267829Y131944D01*
X267818Y131933D01*
X267811Y131924D01*
X267805Y131918D01*
X267803Y131916D01*
X267777Y131881D01*
X267755Y131844D01*
X267737Y131803D01*
X267720Y131761D01*
X267705Y131716D01*
X267694Y131672D01*
X267685Y131628D01*
X267677Y131585D01*
X267672Y131544D01*
X267666Y131505D01*
X267663Y131470D01*
X267661Y131441D01*
X267659Y131416D01*
Y131398D01*
Y131391D01*
Y131385D01*
Y131383D01*
Y131381D01*
X267661Y131316D01*
X267664Y131257D01*
X267672Y131202D01*
X267683Y131148D01*
X267694Y131102D01*
X267707Y131057D01*
X267720Y131018D01*
X267733Y130981D01*
X267748Y130950D01*
X267761Y130924D01*
X267774Y130900D01*
X267785Y130881D01*
X267794Y130867D01*
X267801Y130857D01*
X267807Y130850D01*
X267809Y130848D01*
X267837Y130817D01*
X267866Y130789D01*
X267898Y130767D01*
X267927Y130746D01*
X267957Y130728D01*
X267987Y130713D01*
X268016Y130702D01*
X268042Y130692D01*
X268068Y130685D01*
X268092Y130680D01*
X268112Y130676D01*
X268129Y130674D01*
X268144Y130672D01*
X268155Y130670D01*
X268164D01*
X268211Y130672D01*
X268255Y130681D01*
X268296Y130692D01*
X268335Y130707D01*
X268370Y130726D01*
X268403Y130746D01*
X268433Y130768D01*
X268461Y130791D01*
X268485Y130813D01*
X268505Y130835D01*
X268524Y130855D01*
X268538Y130874D01*
X268551Y130889D01*
X268559Y130900D01*
X268564Y130909D01*
X268566Y130911D01*
X268581Y130941D01*
X268596Y130976D01*
X268607Y131011D01*
X268618Y131050D01*
X268633Y131129D01*
X268644Y131209D01*
X268648Y131246D01*
X268649Y131281D01*
X268653Y131313D01*
Y131341D01*
X268655Y131363D01*
Y131379D01*
Y131391D01*
Y131394D01*
X268653Y131455D01*
X268649Y131513D01*
X268642Y131566D01*
X268631Y131616D01*
X268620Y131663D01*
X268609Y131705D01*
X268594Y131744D01*
X268581Y131779D01*
X268568Y131809D01*
X268553Y131837D01*
X268542Y131859D01*
X268529Y131878D01*
X268520Y131892D01*
X268512Y131903D01*
X268509Y131909D01*
X268507Y131911D01*
X268477Y131942D01*
X268448Y131970D01*
X268418Y131994D01*
X268388Y132015D01*
X268359Y132033D01*
X268329Y132046D01*
X268299Y132059D01*
X268274Y132068D01*
X268248Y132076D01*
X268224Y132081D01*
X268203Y132085D01*
X268187Y132089D01*
X268172D01*
X268161Y132090D01*
D02*
G37*
G36*
X275717Y131383D02*
X275715D01*
Y131266D01*
Y131229D01*
X275717Y131194D01*
X275721Y131161D01*
X275723Y131129D01*
X275727Y131102D01*
X275732Y131076D01*
X275736Y131054D01*
X275741Y131033D01*
X275747Y131015D01*
X275751Y130998D01*
X275754Y130985D01*
X275760Y130974D01*
X275762Y130965D01*
X275765Y130959D01*
X275767Y130955D01*
Y130954D01*
X275795Y130904D01*
X275828Y130861D01*
X275862Y130824D01*
X275895Y130792D01*
X275926Y130768D01*
X275939Y130757D01*
X275952Y130750D01*
X275962Y130742D01*
X275969Y130739D01*
X275973Y130737D01*
X275975Y130735D01*
X276028Y130709D01*
X276084Y130691D01*
X276139Y130676D01*
X276189Y130667D01*
X276212Y130665D01*
X276234Y130661D01*
X276252Y130659D01*
X276267D01*
X276280Y130657D01*
X276299D01*
X276332Y130659D01*
X276363Y130661D01*
X276393Y130665D01*
X276419Y130670D01*
X276445Y130676D01*
X276467Y130683D01*
X276488Y130691D01*
X276506Y130700D01*
X276523Y130707D01*
X276538Y130715D01*
X276549Y130722D01*
X276558Y130728D01*
X276567Y130733D01*
X276573Y130737D01*
X276575Y130741D01*
X276576D01*
X276593Y130757D01*
X276608Y130774D01*
X276621Y130791D01*
X276630Y130809D01*
X276649Y130844D01*
X276660Y130876D01*
X276665Y130905D01*
X276667Y130918D01*
X276669Y130930D01*
X276671Y130937D01*
Y130944D01*
Y130948D01*
Y130950D01*
X276669Y130980D01*
X276663Y131007D01*
X276658Y131033D01*
X276649Y131055D01*
X276641Y131072D01*
X276636Y131087D01*
X276630Y131094D01*
X276628Y131098D01*
X276610Y131122D01*
X276589Y131142D01*
X276569Y131161D01*
X276549Y131174D01*
X276532Y131185D01*
X276517Y131194D01*
X276508Y131198D01*
X276504Y131200D01*
X276488Y131207D01*
X276469Y131213D01*
X276428Y131224D01*
X276382Y131235D01*
X276338Y131244D01*
X276295Y131252D01*
X276278Y131255D01*
X276262Y131257D01*
X276249Y131261D01*
X276239D01*
X276232Y131263D01*
X276230D01*
X276167Y131272D01*
X276110Y131283D01*
X276056Y131292D01*
X276004Y131304D01*
X275960Y131313D01*
X275917Y131322D01*
X275878Y131333D01*
X275845Y131342D01*
X275814Y131350D01*
X275788Y131359D01*
X275765Y131365D01*
X275747Y131372D01*
X275734Y131376D01*
X275723Y131379D01*
X275717Y131383D01*
D02*
G37*
G36*
X282520Y132090D02*
X282500D01*
X282455Y132089D01*
X282415Y132083D01*
X282374Y132074D01*
X282337Y132063D01*
X282302Y132048D01*
X282270Y132033D01*
X282241Y132016D01*
X282215Y132000D01*
X282191Y131983D01*
X282168Y131966D01*
X282152Y131952D01*
X282137Y131937D01*
X282124Y131926D01*
X282117Y131916D01*
X282111Y131911D01*
X282109Y131909D01*
X282092Y131887D01*
X282076Y131861D01*
X282048Y131805D01*
X282028Y131748D01*
X282013Y131691D01*
X282005Y131665D01*
X282002Y131639D01*
X281996Y131616D01*
X281994Y131598D01*
X281991Y131581D01*
Y131570D01*
X281989Y131561D01*
Y131559D01*
X283028D01*
X283024Y131604D01*
X283016Y131644D01*
X283007Y131685D01*
X282996Y131720D01*
X282983Y131755D01*
X282970Y131787D01*
X282955Y131816D01*
X282941Y131842D01*
X282926Y131865D01*
X282913Y131885D01*
X282900Y131903D01*
X282889Y131918D01*
X282878Y131929D01*
X282870Y131937D01*
X282867Y131942D01*
X282865Y131944D01*
X282837Y131970D01*
X282807Y131992D01*
X282776Y132013D01*
X282744Y132029D01*
X282715Y132042D01*
X282683Y132055D01*
X282655Y132065D01*
X282626Y132072D01*
X282600Y132078D01*
X282576Y132083D01*
X282555Y132087D01*
X282535Y132089D01*
X282520Y132090D01*
D02*
G37*
G36*
X272375D02*
X272355D01*
X272310Y132089D01*
X272269Y132083D01*
X272229Y132074D01*
X272192Y132063D01*
X272157Y132048D01*
X272125Y132033D01*
X272095Y132016D01*
X272069Y132000D01*
X272045Y131983D01*
X272023Y131966D01*
X272007Y131952D01*
X271992Y131937D01*
X271979Y131926D01*
X271971Y131916D01*
X271966Y131911D01*
X271964Y131909D01*
X271947Y131887D01*
X271931Y131861D01*
X271903Y131805D01*
X271882Y131748D01*
X271868Y131691D01*
X271860Y131665D01*
X271857Y131639D01*
X271851Y131616D01*
X271849Y131598D01*
X271845Y131581D01*
Y131570D01*
X271844Y131561D01*
Y131559D01*
X272882D01*
X272879Y131604D01*
X272871Y131644D01*
X272862Y131685D01*
X272851Y131720D01*
X272838Y131755D01*
X272825Y131787D01*
X272810Y131816D01*
X272795Y131842D01*
X272781Y131865D01*
X272768Y131885D01*
X272755Y131903D01*
X272743Y131918D01*
X272732Y131929D01*
X272725Y131937D01*
X272721Y131942D01*
X272719Y131944D01*
X272692Y131970D01*
X272662Y131992D01*
X272631Y132013D01*
X272599Y132029D01*
X272569Y132042D01*
X272538Y132055D01*
X272510Y132065D01*
X272481Y132072D01*
X272455Y132078D01*
X272431Y132083D01*
X272410Y132087D01*
X272390Y132089D01*
X272375Y132090D01*
D02*
G37*
G36*
X296224Y132713D02*
X295663D01*
X295617Y132711D01*
X295574Y132709D01*
X295536Y132707D01*
X295500Y132703D01*
X295469Y132702D01*
X295441Y132698D01*
X295415Y132694D01*
X295393Y132690D01*
X295374Y132687D01*
X295360Y132685D01*
X295347Y132681D01*
X295337Y132679D01*
X295330Y132677D01*
X295326Y132676D01*
X295324D01*
X295284Y132659D01*
X295250Y132640D01*
X295219Y132618D01*
X295195Y132596D01*
X295176Y132576D01*
X295162Y132559D01*
X295154Y132546D01*
X295150Y132544D01*
Y132542D01*
X295130Y132505D01*
X295113Y132466D01*
X295102Y132429D01*
X295095Y132394D01*
X295091Y132365D01*
X295089Y132352D01*
X295087Y132340D01*
Y132331D01*
Y132324D01*
Y132320D01*
Y132318D01*
X295091Y132270D01*
X295099Y132226D01*
X295108Y132187D01*
X295121Y132155D01*
X295134Y132128D01*
X295139Y132118D01*
X295143Y132109D01*
X295149Y132102D01*
X295150Y132096D01*
X295154Y132094D01*
Y132092D01*
X295182Y132061D01*
X295212Y132035D01*
X295245Y132013D01*
X295276Y131996D01*
X295304Y131983D01*
X295317Y131978D01*
X295326Y131974D01*
X295336Y131970D01*
X295343Y131968D01*
X295347Y131966D01*
X295349D01*
X295369Y131961D01*
X295391Y131957D01*
X295415Y131953D01*
X295441Y131950D01*
X295495Y131944D01*
X295547Y131941D01*
X295573Y131939D01*
X295617D01*
X295636Y131937D01*
X296224D01*
Y132713D01*
D02*
G37*
G36*
Y131635D02*
X295589D01*
X295547Y131633D01*
X295508Y131631D01*
X295473Y131628D01*
X295439Y131624D01*
X295408Y131620D01*
X295380Y131616D01*
X295354Y131613D01*
X295332Y131609D01*
X295313Y131605D01*
X295297Y131602D01*
X295284Y131598D01*
X295273Y131594D01*
X295265Y131592D01*
X295262Y131591D01*
X295260D01*
X295213Y131572D01*
X295173Y131550D01*
X295137Y131526D01*
X295108Y131500D01*
X295084Y131478D01*
X295067Y131459D01*
X295062Y131452D01*
X295058Y131448D01*
X295054Y131444D01*
Y131442D01*
X295030Y131402D01*
X295012Y131359D01*
X294999Y131318D01*
X294989Y131279D01*
X294984Y131244D01*
X294982Y131231D01*
Y131218D01*
X294980Y131209D01*
Y131200D01*
Y131196D01*
Y131194D01*
X294982Y131150D01*
X294987Y131107D01*
X294997Y131070D01*
X295006Y131039D01*
X295015Y131013D01*
X295025Y130992D01*
X295026Y130985D01*
X295030Y130980D01*
X295032Y130978D01*
Y130976D01*
X295052Y130942D01*
X295073Y130915D01*
X295095Y130891D01*
X295115Y130870D01*
X295134Y130854D01*
X295149Y130842D01*
X295158Y130835D01*
X295160Y130833D01*
X295162D01*
X295193Y130817D01*
X295224Y130802D01*
X295258Y130791D01*
X295287Y130781D01*
X295315Y130774D01*
X295336Y130768D01*
X295345Y130767D01*
X295350D01*
X295354Y130765D01*
X295356D01*
X295369Y130763D01*
X295386Y130761D01*
X295421Y130759D01*
X295458Y130755D01*
X295497D01*
X295532Y130754D01*
X296224D01*
Y131635D01*
D02*
G37*
G36*
X293286Y132746D02*
X293275Y132705D01*
X293262Y132663D01*
X293232Y132574D01*
X293202Y132485D01*
X293188Y132442D01*
X293173Y132402D01*
X293158Y132363D01*
X293147Y132326D01*
X293134Y132294D01*
X293125Y132266D01*
X293115Y132244D01*
X293110Y132228D01*
X293106Y132216D01*
X293104Y132215D01*
Y132213D01*
X292836Y131504D01*
X293706D01*
X293425Y132255D01*
X293393Y132346D01*
X293365Y132435D01*
X293352Y132477D01*
X293341Y132516D01*
X293332Y132555D01*
X293321Y132592D01*
X293314Y132626D01*
X293306Y132655D01*
X293301Y132681D01*
X293295Y132703D01*
X293291Y132722D01*
X293288Y132735D01*
X293286Y132742D01*
Y132746D01*
D02*
G37*
G36*
X273052Y127189D02*
X273043D01*
X273004Y127187D01*
X272967Y127181D01*
X272930Y127172D01*
X272897Y127161D01*
X272865Y127148D01*
X272834Y127133D01*
X272806Y127118D01*
X272782Y127102D01*
X272760Y127085D01*
X272739Y127070D01*
X272721Y127055D01*
X272706Y127042D01*
X272695Y127031D01*
X272687Y127022D01*
X272682Y127016D01*
X272680Y127015D01*
X272654Y126981D01*
X272630Y126942D01*
X272610Y126903D01*
X272593Y126863D01*
X272578Y126820D01*
X272565Y126778D01*
X272556Y126735D01*
X272547Y126694D01*
X272541Y126655D01*
X272536Y126618D01*
X272532Y126587D01*
X272530Y126557D01*
Y126535D01*
X272528Y126516D01*
Y126505D01*
Y126504D01*
Y126502D01*
X272530Y126437D01*
X272534Y126378D01*
X272541Y126322D01*
X272550Y126270D01*
X272561Y126224D01*
X272574Y126179D01*
X272587Y126142D01*
X272600Y126107D01*
X272615Y126078D01*
X272628Y126052D01*
X272641Y126030D01*
X272652Y126011D01*
X272661Y125998D01*
X272669Y125987D01*
X272673Y125981D01*
X272674Y125980D01*
X272702Y125950D01*
X272732Y125924D01*
X272761Y125902D01*
X272793Y125883D01*
X272823Y125867D01*
X272854Y125854D01*
X272882Y125842D01*
X272911Y125833D01*
X272937Y125828D01*
X272961Y125822D01*
X272982Y125818D01*
X273000Y125815D01*
X273017D01*
X273028Y125813D01*
X273037D01*
X273078Y125815D01*
X273115Y125820D01*
X273152Y125828D01*
X273186Y125839D01*
X273219Y125852D01*
X273248Y125867D01*
X273276Y125881D01*
X273300Y125896D01*
X273323Y125911D01*
X273343Y125928D01*
X273360Y125941D01*
X273374Y125954D01*
X273385Y125965D01*
X273393Y125972D01*
X273398Y125978D01*
X273400Y125980D01*
X273426Y126013D01*
X273448Y126052D01*
X273467Y126091D01*
X273484Y126133D01*
X273498Y126178D01*
X273510Y126222D01*
X273519Y126267D01*
X273526Y126309D01*
X273532Y126350D01*
X273537Y126389D01*
X273541Y126424D01*
X273543Y126454D01*
Y126478D01*
X273545Y126496D01*
Y126504D01*
Y126509D01*
Y126511D01*
Y126513D01*
X273543Y126574D01*
X273539Y126631D01*
X273532Y126683D01*
X273523Y126733D01*
X273511Y126779D01*
X273498Y126820D01*
X273485Y126857D01*
X273471Y126891D01*
X273458Y126920D01*
X273445Y126946D01*
X273432Y126968D01*
X273421Y126987D01*
X273411Y127000D01*
X273404Y127011D01*
X273400Y127016D01*
X273398Y127018D01*
X273371Y127048D01*
X273341Y127074D01*
X273311Y127098D01*
X273282Y127116D01*
X273250Y127133D01*
X273223Y127148D01*
X273193Y127159D01*
X273165Y127168D01*
X273141Y127174D01*
X273117Y127179D01*
X273097Y127183D01*
X273078Y127187D01*
X273063D01*
X273052Y127189D01*
D02*
G37*
G36*
X290671Y126483D02*
X290669D01*
Y126367D01*
Y126329D01*
X290671Y126294D01*
X290674Y126261D01*
X290676Y126229D01*
X290680Y126202D01*
X290686Y126176D01*
X290689Y126154D01*
X290695Y126133D01*
X290700Y126115D01*
X290704Y126098D01*
X290708Y126085D01*
X290713Y126074D01*
X290715Y126065D01*
X290719Y126059D01*
X290721Y126055D01*
Y126054D01*
X290749Y126004D01*
X290782Y125961D01*
X290815Y125924D01*
X290849Y125892D01*
X290880Y125868D01*
X290893Y125857D01*
X290906Y125850D01*
X290915Y125842D01*
X290923Y125839D01*
X290926Y125837D01*
X290928Y125835D01*
X290982Y125809D01*
X291037Y125791D01*
X291093Y125776D01*
X291143Y125767D01*
X291165Y125765D01*
X291187Y125761D01*
X291206Y125759D01*
X291221D01*
X291234Y125757D01*
X291252D01*
X291285Y125759D01*
X291317Y125761D01*
X291347Y125765D01*
X291373Y125770D01*
X291398Y125776D01*
X291421Y125783D01*
X291441Y125791D01*
X291460Y125800D01*
X291476Y125807D01*
X291491Y125815D01*
X291502Y125822D01*
X291511Y125828D01*
X291521Y125833D01*
X291526Y125837D01*
X291528Y125841D01*
X291530D01*
X291547Y125857D01*
X291561Y125874D01*
X291574Y125891D01*
X291584Y125909D01*
X291602Y125944D01*
X291613Y125976D01*
X291619Y126005D01*
X291621Y126018D01*
X291622Y126030D01*
X291624Y126037D01*
Y126044D01*
Y126048D01*
Y126050D01*
X291622Y126079D01*
X291617Y126107D01*
X291611Y126133D01*
X291602Y126155D01*
X291595Y126172D01*
X291589Y126187D01*
X291584Y126194D01*
X291582Y126198D01*
X291563Y126222D01*
X291543Y126242D01*
X291522Y126261D01*
X291502Y126274D01*
X291485Y126285D01*
X291471Y126294D01*
X291461Y126298D01*
X291458Y126300D01*
X291441Y126307D01*
X291423Y126313D01*
X291382Y126324D01*
X291335Y126335D01*
X291291Y126344D01*
X291248Y126352D01*
X291232Y126355D01*
X291215Y126357D01*
X291202Y126361D01*
X291193D01*
X291185Y126363D01*
X291184D01*
X291121Y126372D01*
X291063Y126383D01*
X291010Y126392D01*
X290958Y126404D01*
X290913Y126413D01*
X290871Y126422D01*
X290832Y126433D01*
X290798Y126442D01*
X290767Y126450D01*
X290741Y126459D01*
X290719Y126465D01*
X290700Y126472D01*
X290687Y126476D01*
X290676Y126479D01*
X290671Y126483D01*
D02*
G37*
G36*
X282953Y127190D02*
X282933D01*
X282888Y127189D01*
X282847Y127183D01*
X282807Y127174D01*
X282770Y127163D01*
X282735Y127148D01*
X282703Y127133D01*
X282673Y127116D01*
X282647Y127100D01*
X282623Y127083D01*
X282601Y127066D01*
X282585Y127052D01*
X282570Y127037D01*
X282557Y127026D01*
X282549Y127016D01*
X282544Y127011D01*
X282542Y127009D01*
X282525Y126987D01*
X282509Y126961D01*
X282481Y126905D01*
X282460Y126848D01*
X282446Y126791D01*
X282438Y126765D01*
X282435Y126739D01*
X282429Y126716D01*
X282427Y126698D01*
X282423Y126681D01*
Y126670D01*
X282422Y126661D01*
Y126659D01*
X283460D01*
X283457Y126704D01*
X283449Y126744D01*
X283440Y126785D01*
X283429Y126820D01*
X283416Y126855D01*
X283403Y126887D01*
X283388Y126916D01*
X283373Y126942D01*
X283359Y126965D01*
X283346Y126985D01*
X283333Y127003D01*
X283322Y127018D01*
X283310Y127029D01*
X283303Y127037D01*
X283299Y127042D01*
X283297Y127044D01*
X283270Y127070D01*
X283240Y127092D01*
X283209Y127113D01*
X283177Y127129D01*
X283147Y127142D01*
X283116Y127155D01*
X283088Y127165D01*
X283059Y127172D01*
X283033Y127178D01*
X283009Y127183D01*
X282988Y127187D01*
X282968Y127189D01*
X282953Y127190D01*
D02*
G37*
G36*
X276985D02*
X276965D01*
X276920Y127189D01*
X276880Y127183D01*
X276839Y127174D01*
X276802Y127163D01*
X276767Y127148D01*
X276735Y127133D01*
X276706Y127116D01*
X276680Y127100D01*
X276656Y127083D01*
X276633Y127066D01*
X276617Y127052D01*
X276602Y127037D01*
X276589Y127026D01*
X276581Y127016D01*
X276576Y127011D01*
X276574Y127009D01*
X276557Y126987D01*
X276541Y126961D01*
X276513Y126905D01*
X276493Y126848D01*
X276478Y126791D01*
X276470Y126765D01*
X276467Y126739D01*
X276461Y126716D01*
X276459Y126698D01*
X276456Y126681D01*
Y126670D01*
X276454Y126661D01*
Y126659D01*
X277492D01*
X277489Y126704D01*
X277481Y126744D01*
X277472Y126785D01*
X277461Y126820D01*
X277448Y126855D01*
X277435Y126887D01*
X277420Y126916D01*
X277405Y126942D01*
X277391Y126965D01*
X277378Y126985D01*
X277365Y127003D01*
X277354Y127018D01*
X277342Y127029D01*
X277335Y127037D01*
X277331Y127042D01*
X277330Y127044D01*
X277302Y127070D01*
X277272Y127092D01*
X277241Y127113D01*
X277209Y127129D01*
X277180Y127142D01*
X277148Y127155D01*
X277120Y127165D01*
X277091Y127172D01*
X277065Y127178D01*
X277041Y127183D01*
X277020Y127187D01*
X277000Y127189D01*
X276985Y127190D01*
D02*
G37*
G36*
X274995D02*
X274974D01*
X274930Y127189D01*
X274889Y127183D01*
X274848Y127174D01*
X274811Y127163D01*
X274776Y127148D01*
X274745Y127133D01*
X274715Y127116D01*
X274689Y127100D01*
X274665Y127083D01*
X274643Y127066D01*
X274626Y127052D01*
X274611Y127037D01*
X274598Y127026D01*
X274591Y127016D01*
X274585Y127011D01*
X274583Y127009D01*
X274567Y126987D01*
X274550Y126961D01*
X274522Y126905D01*
X274502Y126848D01*
X274487Y126791D01*
X274480Y126765D01*
X274476Y126739D01*
X274471Y126716D01*
X274469Y126698D01*
X274465Y126681D01*
Y126670D01*
X274463Y126661D01*
Y126659D01*
X275502D01*
X275498Y126704D01*
X275491Y126744D01*
X275482Y126785D01*
X275470Y126820D01*
X275457Y126855D01*
X275445Y126887D01*
X275430Y126916D01*
X275415Y126942D01*
X275400Y126965D01*
X275387Y126985D01*
X275374Y127003D01*
X275363Y127018D01*
X275352Y127029D01*
X275345Y127037D01*
X275341Y127042D01*
X275339Y127044D01*
X275311Y127070D01*
X275282Y127092D01*
X275250Y127113D01*
X275219Y127129D01*
X275189Y127142D01*
X275158Y127155D01*
X275130Y127165D01*
X275100Y127172D01*
X275074Y127178D01*
X275050Y127183D01*
X275030Y127187D01*
X275009Y127189D01*
X274995Y127190D01*
D02*
G37*
G36*
X293861Y127813D02*
X293165D01*
X293128Y127811D01*
X293093D01*
X293061Y127809D01*
X293032Y127807D01*
X293006Y127805D01*
X292983Y127803D01*
X292963Y127802D01*
X292945Y127798D01*
X292930Y127796D01*
X292917Y127794D01*
X292908Y127792D01*
X292900Y127790D01*
X292895D01*
X292893Y127789D01*
X292891D01*
X292843Y127772D01*
X292800Y127750D01*
X292765Y127724D01*
X292733Y127700D01*
X292709Y127676D01*
X292691Y127655D01*
X292685Y127648D01*
X292680Y127642D01*
X292676Y127639D01*
Y127637D01*
X292661Y127615D01*
X292648Y127592D01*
X292630Y127546D01*
X292615Y127500D01*
X292604Y127457D01*
X292602Y127439D01*
X292598Y127420D01*
X292596Y127403D01*
Y127390D01*
X292595Y127378D01*
Y127370D01*
Y127365D01*
Y127363D01*
X292596Y127322D01*
X292600Y127285D01*
X292608Y127248D01*
X292617Y127215D01*
X292626Y127185D01*
X292639Y127155D01*
X292650Y127131D01*
X292663Y127107D01*
X292676Y127087D01*
X292689Y127068D01*
X292702Y127053D01*
X292711Y127041D01*
X292721Y127031D01*
X292728Y127024D01*
X292732Y127020D01*
X292733Y127018D01*
X292761Y126996D01*
X292793Y126978D01*
X292828Y126961D01*
X292865Y126948D01*
X292904Y126935D01*
X292943Y126926D01*
X293019Y126911D01*
X293056Y126907D01*
X293089Y126903D01*
X293120Y126900D01*
X293146Y126898D01*
X293169Y126896D01*
X293861D01*
Y127813D01*
D02*
G37*
G36*
X290065Y119072D02*
X290063D01*
Y118955D01*
Y118918D01*
X290065Y118883D01*
X290069Y118850D01*
X290071Y118818D01*
X290074Y118791D01*
X290080Y118765D01*
X290084Y118743D01*
X290089Y118722D01*
X290095Y118704D01*
X290099Y118687D01*
X290102Y118674D01*
X290108Y118663D01*
X290110Y118654D01*
X290113Y118648D01*
X290115Y118644D01*
Y118643D01*
X290143Y118593D01*
X290176Y118550D01*
X290210Y118513D01*
X290243Y118481D01*
X290274Y118457D01*
X290287Y118446D01*
X290300Y118439D01*
X290310Y118431D01*
X290317Y118428D01*
X290321Y118426D01*
X290323Y118424D01*
X290376Y118398D01*
X290432Y118380D01*
X290487Y118365D01*
X290537Y118356D01*
X290560Y118354D01*
X290582Y118350D01*
X290600Y118348D01*
X290615D01*
X290628Y118346D01*
X290647D01*
X290680Y118348D01*
X290711Y118350D01*
X290741Y118354D01*
X290767Y118359D01*
X290793Y118365D01*
X290815Y118372D01*
X290836Y118380D01*
X290854Y118389D01*
X290871Y118396D01*
X290886Y118404D01*
X290897Y118411D01*
X290906Y118417D01*
X290915Y118422D01*
X290921Y118426D01*
X290923Y118430D01*
X290924D01*
X290941Y118446D01*
X290956Y118463D01*
X290969Y118480D01*
X290978Y118498D01*
X290997Y118533D01*
X291008Y118565D01*
X291013Y118594D01*
X291015Y118607D01*
X291017Y118618D01*
X291019Y118626D01*
Y118633D01*
Y118637D01*
Y118639D01*
X291017Y118668D01*
X291011Y118696D01*
X291006Y118722D01*
X290997Y118744D01*
X290989Y118761D01*
X290984Y118776D01*
X290978Y118783D01*
X290976Y118787D01*
X290958Y118811D01*
X290937Y118831D01*
X290917Y118850D01*
X290897Y118863D01*
X290880Y118874D01*
X290865Y118883D01*
X290856Y118887D01*
X290852Y118889D01*
X290836Y118896D01*
X290817Y118902D01*
X290776Y118913D01*
X290730Y118924D01*
X290686Y118933D01*
X290643Y118941D01*
X290626Y118944D01*
X290610Y118946D01*
X290597Y118950D01*
X290587D01*
X290580Y118952D01*
X290578D01*
X290515Y118961D01*
X290458Y118972D01*
X290404Y118981D01*
X290352Y118993D01*
X290308Y119002D01*
X290265Y119011D01*
X290226Y119022D01*
X290193Y119031D01*
X290162Y119039D01*
X290136Y119048D01*
X290113Y119054D01*
X290095Y119061D01*
X290082Y119065D01*
X290071Y119068D01*
X290065Y119072D01*
D02*
G37*
G36*
X279766Y119779D02*
X279746D01*
X279702Y119778D01*
X279661Y119772D01*
X279620Y119763D01*
X279583Y119752D01*
X279548Y119737D01*
X279516Y119722D01*
X279487Y119705D01*
X279461Y119689D01*
X279437Y119672D01*
X279414Y119655D01*
X279398Y119641D01*
X279383Y119626D01*
X279370Y119615D01*
X279363Y119605D01*
X279357Y119600D01*
X279355Y119598D01*
X279339Y119576D01*
X279322Y119550D01*
X279294Y119494D01*
X279274Y119437D01*
X279259Y119380D01*
X279252Y119354D01*
X279248Y119328D01*
X279242Y119305D01*
X279240Y119287D01*
X279237Y119270D01*
Y119259D01*
X279235Y119250D01*
Y119248D01*
X280274D01*
X280270Y119292D01*
X280263Y119333D01*
X280253Y119374D01*
X280242Y119409D01*
X280229Y119444D01*
X280216Y119476D01*
X280201Y119505D01*
X280187Y119531D01*
X280172Y119554D01*
X280159Y119574D01*
X280146Y119592D01*
X280135Y119607D01*
X280124Y119618D01*
X280116Y119626D01*
X280113Y119631D01*
X280111Y119633D01*
X280083Y119659D01*
X280053Y119681D01*
X280022Y119702D01*
X279990Y119718D01*
X279961Y119731D01*
X279929Y119744D01*
X279901Y119754D01*
X279872Y119761D01*
X279846Y119767D01*
X279822Y119772D01*
X279802Y119776D01*
X279781Y119778D01*
X279766Y119779D01*
D02*
G37*
G36*
X284362Y120435D02*
X284351Y120394D01*
X284338Y120352D01*
X284308Y120263D01*
X284279Y120174D01*
X284264Y120131D01*
X284249Y120091D01*
X284234Y120052D01*
X284223Y120015D01*
X284210Y119983D01*
X284201Y119955D01*
X284192Y119933D01*
X284186Y119916D01*
X284183Y119905D01*
X284181Y119904D01*
Y119902D01*
X283912Y119192D01*
X284782D01*
X284501Y119944D01*
X284470Y120035D01*
X284442Y120124D01*
X284429Y120166D01*
X284418Y120205D01*
X284408Y120244D01*
X284397Y120281D01*
X284390Y120315D01*
X284383Y120344D01*
X284377Y120370D01*
X284371Y120392D01*
X284368Y120411D01*
X284364Y120424D01*
X284362Y120431D01*
Y120435D01*
D02*
G37*
%LPD*%
D10*
X182495Y145849D02*
X183827D01*
X182495Y147182D01*
Y147515D01*
X182828Y147848D01*
X183494D01*
X183827Y147515D01*
X181828D02*
X181495Y147848D01*
X180828D01*
X180495Y147515D01*
Y146182D01*
X180828Y145849D01*
X181495D01*
X181828Y146182D01*
Y147515D01*
X178496Y145849D02*
X179829D01*
X178496Y147182D01*
Y147515D01*
X178829Y147848D01*
X179495D01*
X179829Y147515D01*
X176496Y145849D02*
X177829D01*
X176496Y147182D01*
Y147515D01*
X176830Y147848D01*
X177496D01*
X177829Y147515D01*
X184598Y149138D02*
Y150471D01*
X183931Y151137D01*
X183265Y150471D01*
Y149138D01*
Y150137D01*
X184598D01*
X182598Y151137D02*
Y149138D01*
X181265D01*
X180599Y151137D02*
Y149138D01*
X179266D01*
X178600Y151137D02*
X177933D01*
X178266D01*
Y149138D01*
X178600D01*
X177933D01*
X175600Y151137D02*
X176933D01*
Y149138D01*
X175600D01*
X176933Y150137D02*
X176267D01*
D11*
X87000Y160000D02*
G03*
X85000Y158000I0J-2000D01*
G01*
X328000D02*
G03*
X326000Y160000I-2000J0D01*
G01*
X326000Y90000D02*
G03*
X328000Y92000I0J2000D01*
G01*
X85000D02*
G03*
X87000Y90000I2000J0D01*
G01*
Y160000D02*
X326000D01*
X328000Y158000D02*
X328000Y92000D01*
X326000Y89987D02*
Y90000D01*
X87000Y90000D02*
X326000D01*
X85000Y92000D02*
Y158000D01*
D12*
X290900Y153950D02*
X290900Y141050D01*
X310100Y141050D01*
X310100Y153950D02*
X310100Y141050D01*
X290900Y153950D02*
X310100Y153950D01*
X251300Y139400D02*
X271700D01*
X251300D02*
Y155600D01*
X271700D01*
Y139400D02*
Y155600D01*
D13*
X190579Y150800D02*
G03*
X190579Y150800I-279J0D01*
G01*
X193179D02*
G03*
X193179Y150800I-279J0D01*
G01*
X189919Y151257D02*
X191037Y150800D01*
X190173Y151054D02*
X190656Y151283D01*
X190300Y150495D02*
X191037Y150800D01*
X189055Y149174D02*
X190224Y150470D01*
X189309Y149124D02*
X190376Y150317D01*
X189589Y149098D02*
X190503Y150140D01*
X190021Y149251D02*
X190656Y149987D01*
X190021Y149022D02*
Y149251D01*
X189919Y148819D02*
Y148971D01*
X190122Y148819D02*
Y148971D01*
X189919D02*
X190122D01*
X190325D02*
X190529D01*
X190427Y149035D02*
Y149263D01*
X190325Y148819D02*
Y148971D01*
X190529Y148819D02*
Y148971D01*
X189563Y149073D02*
X190672Y145827D01*
X189309Y149124D02*
X190492Y145699D01*
X189055Y149174D02*
X190300Y145593D01*
X192163Y150800D02*
X193281Y151257D01*
X192544Y151283D02*
X193027Y151054D01*
X192163Y150800D02*
X192900Y150495D01*
X192972Y150483D02*
X194145Y149174D01*
X192824Y150317D02*
X193891Y149124D01*
X192697Y150140D02*
X193611Y149098D01*
X192544Y149987D02*
X193179Y149251D01*
X192773Y149022D02*
Y149251D01*
X192671Y148819D02*
Y148971D01*
X192875Y148819D02*
Y148971D01*
X192671D02*
X192875D01*
X193078D02*
X193281D01*
X193179Y149022D02*
Y149251D01*
X193078Y148819D02*
Y148971D01*
X193281Y148819D02*
Y148971D01*
X192528Y145827D02*
X193637Y149073D01*
X192708Y145699D02*
X193891Y149124D01*
X192896Y145594D02*
X194145Y149174D01*
D14*
X190351Y150800D02*
G03*
X190351Y150800I-51J0D01*
G01*
X192951D02*
G03*
X192951Y150800I-51J0D01*
G01*
D15*
X190300Y150419D02*
X190884Y149835D01*
X190452Y149327D02*
X190884Y149835D01*
X192316D02*
X192900Y150419D01*
X192316Y149835D02*
X192748Y149327D01*
M02*
