G04*
G04 #@! TF.GenerationSoftware,Altium Limited,Altium Designer,22.6.1 (34)*
G04*
G04 Layer_Color=33789*
%FSLAX43Y43*%
%MOMM*%
G71*
G04*
G04 #@! TF.SameCoordinates,C52DC31D-5F11-4B46-91AB-9CC05509C3B8*
G04*
G04*
G04 #@! TF.FilePolarity,Positive*
G04*
G01*
G75*
%ADD10C,0.400*%
%ADD11C,0.500*%
%ADD12C,0.250*%
D10*
X287400Y153666D02*
X287733Y154000D01*
X288400D01*
X288733Y153666D01*
Y153333D01*
X288400Y153000D01*
X287733D01*
X287400Y152667D01*
Y152334D01*
X287733Y152000D01*
X288400D01*
X288733Y152334D01*
X286734Y152000D02*
X286067D01*
X286400D01*
Y154000D01*
X286734Y153666D01*
X247278Y155800D02*
X247944D01*
X247611D01*
Y154134D01*
X247944Y153800D01*
X248277D01*
X248611Y154134D01*
X246611Y153800D02*
X245945D01*
X246278D01*
Y155800D01*
X246611Y155466D01*
D11*
X87000Y160000D02*
G03*
X85000Y158000I0J-2000D01*
G01*
X328000Y158012D02*
G03*
X326000Y160012I-2000J0D01*
G01*
X326000Y90000D02*
G03*
X328000Y92000I0J2000D01*
G01*
X85002Y92056D02*
G03*
X87072Y89987I2069J0D01*
G01*
X87000Y160000D02*
X326000D01*
X328000Y158012D02*
X328000Y92000D01*
X326000Y89987D02*
Y90000D01*
X87072Y89987D02*
X326000D01*
X85002Y92056D02*
X85002Y158000D01*
D12*
X290900Y153950D02*
X290900Y141050D01*
X310100Y141050D01*
X310100Y153950D02*
X310100Y141050D01*
X290900Y153950D02*
X310100Y153950D01*
X251300Y139400D02*
X271700D01*
X251300D02*
Y155600D01*
X271700D01*
Y139400D02*
Y155600D01*
M02*
